<svg width="343" height="343" viewBox="0 0 343 343" fill="none" xmlns="http://www.w3.org/2000/svg">
<g clip-path="url(#clip0_5335_14767)">
<rect width="343" height="343" rx="24" fill="#F7F7FB"/>
<g clip-path="url(#clip1_5335_14767)">
<rect x="50" y="46" width="243" height="526.176" rx="26" fill="white"/>
<rect width="243" height="41.472" transform="translate(50 80.9922)" fill="white"/>
<path d="M152.158 97.3505V106.514H150.513V97.3505H152.158ZM156.98 106.514H153.867V97.3505H157.031C159.765 97.3505 161.416 99.0655 161.423 101.919C161.416 104.786 159.765 106.514 156.98 106.514ZM155.512 105.084H156.892C158.809 105.09 159.777 104.033 159.777 101.919C159.777 99.8185 158.809 98.7744 156.942 98.7807H155.512V105.084ZM172.13 100.439C171.934 99.3376 171.054 98.7048 169.94 98.7048C168.441 98.7048 167.377 99.8565 167.384 101.932C167.377 104.039 168.447 105.159 169.94 105.159C171.029 105.159 171.908 104.552 172.13 103.476H173.788C173.535 105.235 172.086 106.64 169.915 106.64C167.498 106.64 165.72 104.887 165.726 101.932C165.72 98.9705 167.517 97.224 169.915 97.224C171.94 97.224 173.503 98.401 173.788 100.439H172.13ZM174.813 104.577C174.813 103.033 176.098 102.584 177.37 102.502C177.851 102.464 178.831 102.419 179.135 102.407L179.129 101.856C179.129 101.173 178.692 100.78 177.888 100.78C177.167 100.78 176.724 101.109 176.598 101.603H175.041C175.155 100.432 176.205 99.5527 177.926 99.5527C179.23 99.5527 180.736 100.091 180.736 101.919V106.514H179.192V105.564H179.141C178.838 106.147 178.199 106.653 177.116 106.653C175.807 106.653 174.813 105.938 174.813 104.577ZM176.37 104.565C176.37 105.159 176.857 105.463 177.534 105.463C178.515 105.463 179.141 104.818 179.141 104.046L179.135 103.482C178.844 103.495 177.945 103.552 177.623 103.577C176.857 103.641 176.37 103.963 176.37 104.565ZM182.255 106.514V99.6413H183.824V100.78H183.9C184.147 99.9894 184.805 99.5401 185.596 99.5401C185.773 99.5401 186.026 99.5591 186.178 99.578V101.071C186.033 101.021 185.697 100.977 185.432 100.97C184.533 100.977 183.875 101.597 183.875 102.464V106.514H182.255ZM189.469 106.64C187.855 106.634 186.634 105.343 186.634 103.084C186.634 100.793 187.887 99.5527 189.482 99.5527C190.69 99.5527 191.197 100.28 191.443 100.768H191.507V97.3505H193.114V106.514H191.532V105.425H191.443C191.184 105.931 190.659 106.634 189.469 106.64ZM188.279 103.071C188.279 104.368 188.849 105.311 189.912 105.311C190.956 105.311 191.545 104.413 191.545 103.071C191.545 101.736 190.962 100.875 189.912 100.869C188.836 100.875 188.279 101.793 188.279 103.071Z" fill="#131214"/>
<path opacity="0.7" d="M66.3389 94.6025V107.562H68.0906V94.6025H66.3389Z" fill="#C90000"/>
<path d="M77.3854 94.6016H69.2124V107.562H77.3854V94.6016Z" fill="#C90000"/>
<path opacity="0.5" d="M63.3535 94.6025V107.562H65.1053V94.6025H63.3535Z" fill="#C90000"/>
<path opacity="0.2" d="M60.3682 94.6025V107.562H62.1199V94.6025H60.3682Z" fill="#C90000"/>
<path d="M253.472 108.208L250.34 105.076M252.032 101.008C252.032 104.189 249.453 106.768 246.272 106.768C243.091 106.768 240.512 104.189 240.512 101.008C240.512 97.8269 243.091 95.248 246.272 95.248C249.453 95.248 252.032 97.8269 252.032 101.008Z" stroke="#131214" stroke-width="0.972" stroke-linecap="round" stroke-linejoin="round"/>
<path d="M274.026 107.562C273.912 107.759 273.748 107.922 273.552 108.035C273.355 108.148 273.132 108.208 272.905 108.208C272.678 108.208 272.454 108.148 272.258 108.035C272.061 107.922 271.897 107.759 271.783 107.562M276.792 99.1367C276.792 98.1054 276.384 97.1163 275.654 96.387C274.925 95.6577 273.936 95.248 272.905 95.248C271.873 95.248 270.884 95.6577 270.155 96.387C269.426 97.1163 269.016 98.1054 269.016 99.1367C269.016 102.538 265.987 103.116 267.072 104.563C268.157 106.01 277.602 106.183 278.817 104.563C279.874 103.154 276.792 102.538 276.792 99.1367Z" stroke="#131214" stroke-width="0.972" stroke-linecap="round" stroke-linejoin="round"/>
<rect width="243" height="34.992" transform="translate(50 46)" fill="white"/>
<path d="M85.9997 60.4924C87.5219 60.5032 89.0388 61.4122 89.0442 64.2577C89.0442 66.9417 87.8285 68.4962 85.9136 68.4962C84.4129 68.4962 83.3748 67.5603 83.2027 66.2694H84.5904C84.7303 66.888 85.209 67.2806 85.9136 67.2806C87.0432 67.2806 87.6779 66.2855 87.6887 64.6127H87.6026C87.2099 65.2904 86.4569 65.6938 85.6017 65.6885C84.2085 65.6938 83.1327 64.6342 83.1274 63.1604C83.1274 61.6381 84.2731 60.4817 85.9997 60.4924ZM84.4936 63.1281C84.4936 63.9672 85.1176 64.6234 85.9889 64.6234C86.8549 64.6234 87.5219 63.9242 87.5165 63.1173C87.5165 62.3266 86.8818 61.6274 86.0105 61.622C85.1337 61.6274 84.4828 62.2944 84.4936 63.1281ZM91.0666 67.4205C90.604 67.4205 90.2221 67.0439 90.2275 66.5814C90.2221 66.1295 90.604 65.7584 91.0666 65.753C91.5131 65.7584 91.895 66.1295 91.895 66.5814C91.895 67.0439 91.5131 67.4205 91.0666 67.4205ZM90.2275 62.4073C90.2221 61.9555 90.604 61.5844 91.0666 61.579C91.5131 61.5844 91.895 61.9555 91.895 62.4073C91.895 62.8699 91.5131 63.2464 91.0666 63.2464C90.604 63.2464 90.2221 62.8699 90.2275 62.4073ZM93.0676 66.9364V65.8176L96.4348 60.6H98.1775V65.7853H99.1995V66.9364H98.1775V68.3887H96.8436V66.9364H93.0676ZM94.4984 65.7853H96.8651V62.1922H96.779L94.4984 65.7315V65.7853ZM103.374 60.6V68.3887H101.964V61.9663H101.921L100.103 63.1281V61.8479L102.029 60.6H103.374Z" fill="#131214"/>
<rect opacity="0.35" x="256.994" y="60.7322" width="15.552" height="7.776" rx="2.4624" stroke="#131214" stroke-width="0.648"/>
<path opacity="0.4" d="M273.518 63.5059V66.1468C274.039 65.9231 274.378 65.4028 274.378 64.8263C274.378 64.2498 274.039 63.7295 273.518 63.5059Z" fill="#131214"/>
<rect x="257.966" y="61.7051" width="13.608" height="5.832" rx="1.62" fill="#131214"/>
<path fill-rule="evenodd" clip-rule="evenodd" d="M246.477 62.4204C248.089 62.4205 249.639 63.018 250.807 64.0894C250.895 64.1722 251.036 64.1711 251.122 64.0871L251.963 63.2684C252.007 63.2258 252.031 63.168 252.031 63.108C252.031 63.0479 252.005 62.9905 251.961 62.9484C248.895 60.1136 244.059 60.1136 240.993 62.9484C240.949 62.9905 240.924 63.0479 240.923 63.1079C240.923 63.168 240.947 63.2257 240.991 63.2684L241.832 64.0871C241.919 64.1713 242.059 64.1723 242.147 64.0894C243.315 63.0179 244.865 62.4204 246.477 62.4204ZM246.475 65.1552C247.355 65.1551 248.203 65.4867 248.855 66.0855C248.943 66.1705 249.082 66.1687 249.168 66.0814L250.002 65.2265C250.046 65.1816 250.07 65.1208 250.07 65.0576C250.069 64.9944 250.043 64.9341 249.999 64.8901C248.013 63.0169 244.939 63.0169 242.953 64.8901C242.908 64.9341 242.883 64.9944 242.882 65.0576C242.882 65.1209 242.906 65.1817 242.95 65.2265L243.784 66.0814C243.87 66.1687 244.009 66.1705 244.097 66.0855C244.749 65.4871 245.596 65.1555 246.475 65.1552ZM248.111 66.9654C248.112 67.0336 248.088 67.0995 248.045 67.1473L246.634 68.738C246.593 68.7847 246.536 68.811 246.478 68.811C246.419 68.811 246.362 68.7847 246.321 68.738L244.91 67.1473C244.867 67.0994 244.843 67.0336 244.844 66.9653C244.845 66.8971 244.872 66.8324 244.917 66.7866C245.818 65.9352 247.137 65.9352 248.038 66.7866C248.083 66.8324 248.11 66.8971 248.111 66.9654Z" fill="#131214"/>
<path fill-rule="evenodd" clip-rule="evenodd" d="M236.063 61.4967C236.063 61.0864 235.754 60.7539 235.372 60.7539H234.681C234.299 60.7539 233.99 61.0864 233.99 61.4967V67.9339C233.99 68.3441 234.299 68.6766 234.681 68.6766H235.372C235.754 68.6766 236.063 68.3441 236.063 67.9339V61.4967ZM231.246 62.3384H231.937C232.319 62.3384 232.629 62.679 232.629 63.099V67.916C232.629 68.3361 232.319 68.6766 231.937 68.6766H231.246C230.864 68.6766 230.555 68.3361 230.555 67.916V63.099C230.555 62.679 230.864 62.3384 231.246 62.3384ZM228.439 64.055H227.748C227.366 64.055 227.057 64.3999 227.057 64.8253V67.9064C227.057 68.3318 227.366 68.6766 227.748 68.6766H228.439C228.821 68.6766 229.13 68.3318 229.13 67.9064V64.8253C229.13 64.3999 228.821 64.055 228.439 64.055ZM225.004 65.6396H224.313C223.931 65.6396 223.622 65.9795 223.622 66.3988V67.9174C223.622 68.3367 223.931 68.6766 224.313 68.6766H225.004C225.386 68.6766 225.695 68.3367 225.695 67.9174V66.3988C225.695 65.9795 225.386 65.6396 225.004 65.6396Z" fill="#131214"/>
<g clip-path="url(#clip2_5335_14767)">
<rect x="60.3679" y="138.465" width="222.264" height="140.616" rx="7.776" fill="#FF375B"/>
<path d="M194.15 148.643C195.456 142.699 200.722 138.465 206.807 138.465H374.79C381.948 138.465 387.75 144.267 387.75 151.425V266.121C387.75 273.278 381.948 279.081 374.79 279.081H181.603C173.325 279.081 167.168 271.425 168.945 263.339L194.15 148.643Z" fill="#FF224A"/>
<g opacity="0.8" filter="url(#filter0_d_5335_14767)">
<g filter="url(#filter1_b_5335_14767)">
<ellipse cx="80.5277" cy="161.216" rx="7.20002" ry="7.452" fill="url(#paint0_linear_5335_14767)" fill-opacity="0.5"/>
</g>
<g filter="url(#filter2_b_5335_14767)">
<path d="M96.6554 161.216C96.6554 165.331 93.4319 168.668 89.4554 168.668C85.4789 168.668 82.2554 165.331 82.2554 161.216C82.2554 157.1 85.4789 153.764 89.4554 153.764C93.4319 153.764 96.6554 157.1 96.6554 161.216Z" fill="url(#paint1_linear_5335_14767)" fill-opacity="0.8"/>
</g>
<g filter="url(#filter3_b_5335_14767)">
<path d="M84.9914 155.369C83.3247 156.734 82.2554 158.846 82.2554 161.216C82.2554 163.587 83.3247 165.699 84.9914 167.064C86.658 165.699 87.7274 163.587 87.7274 161.216C87.7274 158.846 86.658 156.734 84.9914 155.369Z" fill="url(#paint2_linear_5335_14767)" fill-opacity="0.6"/>
</g>
</g>
<path d="M77.1884 183.04C76.5858 183.04 76.0415 182.937 75.5555 182.731C75.0733 182.521 74.6748 182.224 74.3599 181.839C74.0489 181.45 73.8467 180.989 73.7534 180.457L75.0247 180.264C75.1531 180.777 75.4213 181.178 75.8296 181.466C76.2378 181.749 76.7141 181.891 77.2584 181.891C77.5967 181.891 77.9077 181.839 78.1915 181.734C78.4753 181.625 78.7028 181.471 78.8739 181.273C79.0488 181.071 79.1363 180.83 79.1363 180.55C79.1363 180.398 79.1091 180.264 79.0547 180.148C79.0041 180.031 78.9322 179.93 78.8389 179.844C78.7495 179.755 78.6386 179.679 78.5065 179.617C78.3781 179.551 78.2362 179.494 78.0807 179.448L75.9287 178.812C75.7188 178.75 75.5049 178.67 75.2872 178.573C75.0695 178.472 74.8692 178.342 74.6865 178.182C74.5076 178.019 74.3618 177.819 74.2491 177.581C74.1363 177.34 74.08 177.049 74.08 176.707C74.08 176.19 74.2122 175.752 74.4765 175.394C74.7448 175.033 75.1064 174.761 75.5613 174.578C76.0162 174.391 76.5255 174.298 77.0893 174.298C77.6569 174.306 78.1643 174.407 78.6114 174.601C79.0624 174.796 79.4357 175.076 79.7312 175.441C80.0305 175.803 80.2366 176.242 80.3494 176.759L79.043 176.981C78.9847 176.666 78.8603 176.396 78.6697 176.17C78.4792 175.941 78.246 175.766 77.9699 175.645C77.6939 175.521 77.3945 175.457 77.0718 175.453C76.7607 175.445 76.475 175.492 76.2145 175.593C75.9579 175.694 75.7518 175.836 75.5963 176.018C75.4447 176.201 75.3688 176.411 75.3688 176.648C75.3688 176.882 75.4369 177.07 75.573 177.214C75.709 177.358 75.8762 177.473 76.0745 177.558C76.2767 177.64 76.4769 177.708 76.6752 177.762L78.2265 178.2C78.4209 178.254 78.6406 178.328 78.8855 178.421C79.1344 178.511 79.3735 178.637 79.6029 178.8C79.8361 178.964 80.0286 179.181 80.1802 179.454C80.3319 179.722 80.4077 180.06 80.4077 180.468C80.4077 180.892 80.3221 181.265 80.1511 181.588C79.98 181.907 79.7448 182.175 79.4454 182.393C79.1499 182.607 78.8078 182.768 78.419 182.877C78.0302 182.986 77.62 183.04 77.1884 183.04ZM85.2547 182.865C84.8581 182.943 84.4693 182.976 84.0883 182.964C83.7073 182.953 83.3671 182.879 83.0677 182.743C82.7683 182.607 82.5428 182.393 82.3912 182.101C82.2551 181.841 82.1813 181.576 82.1696 181.308C82.1618 181.036 82.1579 180.729 82.1579 180.387V174.817H83.3826V180.328C83.3826 180.581 83.3846 180.801 83.3885 180.987C83.3963 181.174 83.4371 181.331 83.5109 181.46C83.6509 181.701 83.8725 181.839 84.1758 181.874C84.4829 181.905 84.8426 181.891 85.2547 181.833V182.865ZM80.9507 177.546V176.567H85.2547V177.546H80.9507ZM88.3614 183.04C87.8949 183.04 87.5041 182.955 87.1892 182.784C86.8743 182.609 86.6352 182.379 86.4719 182.095C86.3125 181.808 86.2328 181.493 86.2328 181.151C86.2328 180.832 86.2891 180.552 86.4019 180.311C86.5146 180.07 86.6818 179.866 86.9034 179.698C87.1251 179.527 87.3972 179.389 87.7199 179.284C87.9999 179.203 88.3167 179.131 88.6705 179.069C89.0243 179.006 89.3956 178.948 89.7844 178.894C90.1771 178.839 90.5659 178.785 90.9508 178.73L90.5076 178.975C90.5154 178.482 90.4104 178.116 90.1927 177.879C89.9788 177.638 89.6095 177.517 89.0846 177.517C88.7541 177.517 88.4509 177.595 88.1748 177.751C87.8988 177.902 87.7063 178.155 87.5974 178.509L86.4602 178.159C86.6157 177.618 86.9112 177.189 87.3467 176.87C87.786 176.551 88.3692 176.392 89.0963 176.392C89.66 176.392 90.1499 176.489 90.5659 176.683C90.9858 176.874 91.293 177.177 91.4874 177.593C91.5885 177.799 91.6507 178.017 91.674 178.246C91.6973 178.476 91.709 178.723 91.709 178.987V182.865H90.6301V181.425L90.84 181.611C90.5795 182.093 90.2471 182.453 89.8428 182.69C89.4423 182.924 88.9485 183.04 88.3614 183.04ZM88.5772 182.043C88.9233 182.043 89.2207 181.983 89.4695 181.862C89.7184 181.738 89.9186 181.58 90.0702 181.39C90.2218 181.199 90.321 181.001 90.3676 180.795C90.4337 180.608 90.4707 180.398 90.4785 180.165C90.4901 179.932 90.496 179.745 90.496 179.605L90.8925 179.751C90.5076 179.809 90.1577 179.862 89.8428 179.908C89.5278 179.955 89.2421 180.002 88.9855 180.048C88.7327 180.091 88.5072 180.144 88.309 180.206C88.1418 180.264 87.9921 180.334 87.8599 180.416C87.7316 180.497 87.6286 180.597 87.5508 180.713C87.4769 180.83 87.44 180.972 87.44 181.139C87.44 181.302 87.4808 181.454 87.5625 181.594C87.6441 181.73 87.7685 181.839 87.9357 181.92C88.1029 182.002 88.3167 182.043 88.5772 182.043ZM93.8008 182.865V176.345C93.8008 176.186 93.8066 176.017 93.8183 175.838C93.8299 175.655 93.863 175.476 93.9174 175.301C93.9757 175.122 94.071 174.959 94.2032 174.811C94.3626 174.636 94.5376 174.512 94.7281 174.438C94.9186 174.364 95.1071 174.321 95.2938 174.31C95.4843 174.298 95.6592 174.292 95.8187 174.292H96.6118V175.295H95.877C95.5893 175.295 95.3735 175.367 95.2296 175.511C95.0897 175.651 95.0197 175.851 95.0197 176.112V182.865H93.8008ZM92.7569 177.546V176.567H96.6118V177.546H92.7569ZM97.6149 182.865V176.345C97.6149 176.186 97.6207 176.017 97.6324 175.838C97.6441 175.655 97.6771 175.476 97.7315 175.301C97.7899 175.122 97.8851 174.959 98.0173 174.811C98.1767 174.636 98.3517 174.512 98.5422 174.438C98.7327 174.364 98.9213 174.321 99.1079 174.31C99.2984 174.298 99.4734 174.292 99.6328 174.292H100.426V175.295H99.6911C99.4034 175.295 99.1876 175.367 99.0437 175.511C98.9038 175.651 98.8338 175.851 98.8338 176.112V182.865H97.6149ZM96.571 177.546V176.567H100.426V177.546H96.571ZM107.196 183.04C106.357 183.04 105.641 182.857 105.05 182.492C104.459 182.123 104.006 181.609 103.691 180.952C103.38 180.295 103.225 179.533 103.225 178.666C103.225 177.799 103.38 177.037 103.691 176.38C104.006 175.723 104.459 175.212 105.05 174.846C105.641 174.477 106.357 174.292 107.196 174.292C108.165 174.292 108.965 174.537 109.599 175.027C110.237 175.517 110.68 176.176 110.929 177.004L109.693 177.336C109.529 176.749 109.238 176.289 108.818 175.954C108.402 175.62 107.861 175.453 107.196 175.453C106.602 175.453 106.106 175.587 105.709 175.855C105.313 176.123 105.013 176.499 104.811 176.981C104.613 177.463 104.514 178.025 104.514 178.666C104.51 179.308 104.607 179.87 104.805 180.352C105.007 180.834 105.307 181.209 105.703 181.477C106.104 181.745 106.602 181.88 107.196 181.88C107.861 181.88 108.402 181.712 108.818 181.378C109.238 181.04 109.529 180.579 109.693 179.996L110.929 180.328C110.68 181.156 110.237 181.815 109.599 182.305C108.965 182.795 108.165 183.04 107.196 183.04ZM113.99 183.04C113.524 183.04 113.133 182.955 112.818 182.784C112.503 182.609 112.264 182.379 112.101 182.095C111.941 181.808 111.862 181.493 111.862 181.151C111.862 180.832 111.918 180.552 112.031 180.311C112.144 180.07 112.311 179.866 112.532 179.698C112.754 179.527 113.026 179.389 113.349 179.284C113.629 179.203 113.946 179.131 114.299 179.069C114.653 179.006 115.025 178.948 115.413 178.894C115.806 178.839 116.195 178.785 116.58 178.73L116.137 178.975C116.144 178.482 116.039 178.116 115.822 177.879C115.608 177.638 115.238 177.517 114.714 177.517C114.383 177.517 114.08 177.595 113.804 177.751C113.528 177.902 113.335 178.155 113.226 178.509L112.089 178.159C112.245 177.618 112.54 177.189 112.976 176.87C113.415 176.551 113.998 176.392 114.725 176.392C115.289 176.392 115.779 176.489 116.195 176.683C116.615 176.874 116.922 177.177 117.116 177.593C117.217 177.799 117.28 178.017 117.303 178.246C117.326 178.476 117.338 178.723 117.338 178.987V182.865H116.259V181.425L116.469 181.611C116.208 182.093 115.876 182.453 115.472 182.69C115.071 182.924 114.577 183.04 113.99 183.04ZM114.206 182.043C114.552 182.043 114.85 181.983 115.098 181.862C115.347 181.738 115.547 181.58 115.699 181.39C115.851 181.199 115.95 181.001 115.997 180.795C116.063 180.608 116.1 180.398 116.107 180.165C116.119 179.932 116.125 179.745 116.125 179.605L116.521 179.751C116.137 179.809 115.787 179.862 115.472 179.908C115.157 179.955 114.871 180.002 114.614 180.048C114.362 180.091 114.136 180.144 113.938 180.206C113.771 180.264 113.621 180.334 113.489 180.416C113.36 180.497 113.257 180.597 113.18 180.713C113.106 180.83 113.069 180.972 113.069 181.139C113.069 181.302 113.11 181.454 113.191 181.594C113.273 181.73 113.397 181.839 113.565 181.92C113.732 182.002 113.946 182.043 114.206 182.043ZM118.852 182.865V176.567H119.937V178.095L119.785 177.896C119.863 177.694 119.964 177.51 120.089 177.342C120.213 177.171 120.357 177.031 120.52 176.922C120.68 176.806 120.857 176.716 121.051 176.654C121.249 176.588 121.451 176.549 121.658 176.538C121.864 176.522 122.062 176.532 122.252 176.567V177.71C122.046 177.655 121.817 177.64 121.564 177.663C121.315 177.686 121.086 177.766 120.876 177.902C120.678 178.031 120.52 178.186 120.404 178.369C120.291 178.551 120.209 178.756 120.159 178.981C120.108 179.203 120.083 179.438 120.083 179.687V182.865H118.852ZM125.751 183.04C125.164 183.04 124.657 182.894 124.229 182.603C123.805 182.311 123.477 181.915 123.243 181.413C123.014 180.908 122.899 180.34 122.899 179.71C122.899 179.076 123.016 178.511 123.249 178.013C123.482 177.511 123.813 177.117 124.241 176.829C124.672 176.538 125.183 176.392 125.774 176.392C126.369 176.392 126.869 176.538 127.273 176.829C127.681 177.117 127.989 177.511 128.195 178.013C128.405 178.515 128.51 179.08 128.51 179.71C128.51 180.34 128.405 180.906 128.195 181.407C127.985 181.909 127.676 182.307 127.267 182.603C126.859 182.894 126.354 183.04 125.751 183.04ZM125.92 181.938C126.321 181.938 126.647 181.843 126.9 181.652C127.153 181.462 127.337 181.199 127.454 180.865C127.571 180.53 127.629 180.146 127.629 179.71C127.629 179.275 127.569 178.89 127.448 178.555C127.332 178.221 127.149 177.961 126.9 177.774C126.655 177.587 126.342 177.494 125.961 177.494C125.557 177.494 125.224 177.593 124.964 177.791C124.703 177.99 124.509 178.256 124.381 178.59C124.256 178.925 124.194 179.298 124.194 179.71C124.194 180.126 124.256 180.503 124.381 180.842C124.509 181.176 124.699 181.442 124.952 181.641C125.209 181.839 125.531 181.938 125.92 181.938ZM127.629 182.865V178.334H127.489V174.467H128.714V182.865H127.629Z" fill="white"/>
<rect x="228.848" y="152.072" width="40.824" height="20.736" rx="10.368" fill="white" fill-opacity="0.08"/>
<rect x="229.172" y="152.396" width="40.176" height="20.088" rx="10.044" stroke="white" stroke-opacity="0.2" stroke-width="0.648"/>
<path d="M240.064 164.816L244.019 166.794C244.52 167.044 245.111 167.044 245.613 166.794L249.568 164.816M240.064 162.44L244.019 164.418C244.52 164.668 245.111 164.668 245.613 164.418L249.568 162.44M240.064 160.064L244.019 158.087C244.52 157.836 245.111 157.836 245.613 158.087L249.568 160.064L245.613 162.042C245.111 162.292 244.52 162.292 244.019 162.042L240.064 160.064Z" stroke="white" stroke-width="0.972" stroke-linecap="round" stroke-linejoin="round"/>
<path d="M256.926 159.525V165.939H255.942V160.5H255.907L254.374 161.501V160.571L255.969 159.525H256.926Z" fill="white"/>
</g>
<rect x="59.7199" y="137.817" width="223.56" height="141.912" rx="8.424" stroke="white" stroke-width="1.296"/>
</g>
<rect x="48.5" y="44.5" width="246" height="529.176" rx="27.5" stroke="black" stroke-width="3"/>
</g>
<defs>
<filter id="filter0_d_5335_14767" x="65.5516" y="145.988" width="41.4719" height="33.0483" filterUnits="userSpaceOnUse" color-interpolation-filters="sRGB">
<feFlood flood-opacity="0" result="BackgroundImageFix"/>
<feColorMatrix in="SourceAlpha" type="matrix" values="0 0 0 0 0 0 0 0 0 0 0 0 0 0 0 0 0 0 127 0" result="hardAlpha"/>
<feOffset dx="1.296" dy="1.296"/>
<feGaussianBlur stdDeviation="4.536"/>
<feComposite in2="hardAlpha" operator="out"/>
<feColorMatrix type="matrix" values="0 0 0 0 0 0 0 0 0 0 0 0 0 0 0 0 0 0 0.1 0"/>
<feBlend mode="normal" in2="BackgroundImageFix" result="effect1_dropShadow_5335_14767"/>
<feBlend mode="normal" in="SourceGraphic" in2="effect1_dropShadow_5335_14767" result="shape"/>
</filter>
<filter id="filter1_b_5335_14767" x="63.6484" y="144.084" width="33.7586" height="34.2627" filterUnits="userSpaceOnUse" color-interpolation-filters="sRGB">
<feFlood flood-opacity="0" result="BackgroundImageFix"/>
<feGaussianBlur in="BackgroundImageFix" stdDeviation="4.83961"/>
<feComposite in2="SourceAlpha" operator="in" result="effect1_backgroundBlur_5335_14767"/>
<feBlend mode="normal" in="SourceGraphic" in2="effect1_backgroundBlur_5335_14767" result="shape"/>
</filter>
<filter id="filter2_b_5335_14767" x="72.5761" y="144.084" width="33.7586" height="34.2627" filterUnits="userSpaceOnUse" color-interpolation-filters="sRGB">
<feFlood flood-opacity="0" result="BackgroundImageFix"/>
<feGaussianBlur in="BackgroundImageFix" stdDeviation="4.83961"/>
<feComposite in2="SourceAlpha" operator="in" result="effect1_backgroundBlur_5335_14767"/>
<feBlend mode="normal" in="SourceGraphic" in2="effect1_backgroundBlur_5335_14767" result="shape"/>
</filter>
<filter id="filter3_b_5335_14767" x="72.5761" y="145.69" width="24.8304" height="31.0538" filterUnits="userSpaceOnUse" color-interpolation-filters="sRGB">
<feFlood flood-opacity="0" result="BackgroundImageFix"/>
<feGaussianBlur in="BackgroundImageFix" stdDeviation="4.83961"/>
<feComposite in2="SourceAlpha" operator="in" result="effect1_backgroundBlur_5335_14767"/>
<feBlend mode="normal" in="SourceGraphic" in2="effect1_backgroundBlur_5335_14767" result="shape"/>
</filter>
<linearGradient id="paint0_linear_5335_14767" x1="80.5276" y1="153.764" x2="80.5276" y2="168.668" gradientUnits="userSpaceOnUse">
<stop stop-color="white" stop-opacity="0.71"/>
<stop offset="1" stop-color="white"/>
</linearGradient>
<linearGradient id="paint1_linear_5335_14767" x1="89.4554" y1="153.764" x2="89.4554" y2="168.668" gradientUnits="userSpaceOnUse">
<stop stop-color="white" stop-opacity="0.45"/>
<stop offset="1" stop-color="white"/>
</linearGradient>
<linearGradient id="paint2_linear_5335_14767" x1="84.9914" y1="155.369" x2="84.9914" y2="167.064" gradientUnits="userSpaceOnUse">
<stop stop-color="white" stop-opacity="0.07"/>
<stop offset="1" stop-color="white"/>
</linearGradient>
<clipPath id="clip0_5335_14767">
<rect width="343" height="343" rx="24" fill="white"/>
</clipPath>
<clipPath id="clip1_5335_14767">
<rect x="50" y="46" width="243" height="526.176" rx="26" fill="white"/>
</clipPath>
<clipPath id="clip2_5335_14767">
<rect x="60.3679" y="138.465" width="222.264" height="140.616" rx="7.776" fill="white"/>
</clipPath>
</defs>
</svg>
