<svg width="343" height="343" viewBox="0 0 343 343" fill="none" xmlns="http://www.w3.org/2000/svg">
<g clip-path="url(#clip0_5339_15871)">
<rect width="343" height="343" rx="24" fill="#F7F7FB"/>
<g clip-path="url(#clip1_5339_15871)">
<rect x="50" y="46" width="243" height="526.176" rx="26" fill="white"/>
<rect x="60.6919" y="138.988" width="221.616" height="80.6" rx="4.86" fill="#FFF6F6"/>
<rect x="60.6919" y="138.988" width="221.616" height="80.6" rx="4.86" stroke="#FDBFC3" stroke-width="0.648"/>
<path d="M73.4722 152.833C73.4722 154.103 74.2867 155.35 75.9098 155.886L75.2719 156.865C74.1158 156.478 73.3014 155.709 72.8514 154.747C72.3958 155.8 71.5415 156.638 70.3398 157.048L69.6678 156.068C71.3251 155.516 72.1965 154.183 72.1965 152.833V152.708H70.0209V151.694H75.6137V152.708H73.4722V152.833ZM71.046 158.745V157.731H77.9032V161.342H76.6388V158.745H71.046ZM76.6388 157.253V151.045H77.9032V153.619H79.3384V154.678H77.9032V157.253H76.6388ZM83.6327 152.526C83.627 153.927 84.4471 155.208 86.0589 155.715L85.3754 156.706C84.2534 156.307 83.4675 155.555 83.029 154.582C82.5733 155.704 81.7133 156.586 80.4661 157.025L79.794 156C81.4969 155.442 82.3512 154.069 82.3569 152.583V151.603H83.6327V152.526ZM81.5026 159.36C81.4912 158.107 82.8296 157.372 84.9995 157.378C87.1808 157.372 88.5135 158.107 88.5192 159.36C88.5135 160.613 87.1808 161.33 84.9995 161.33C82.8296 161.33 81.4912 160.613 81.5026 159.36ZM82.7556 159.36C82.7499 159.986 83.57 160.334 84.9995 160.34C86.4404 160.334 87.2549 159.986 87.2549 159.36C87.2549 158.711 86.4404 158.363 84.9995 158.358C83.57 158.363 82.7499 158.711 82.7556 159.36ZM85.1704 154.075V153.038H87.2207V151.045H88.4851V157.105H87.2207V154.075H85.1704ZM102.12 159.052V160.089H92.711V159.052H94.8866V156.45C94.0665 155.977 93.571 155.237 93.5767 154.325C93.571 152.685 95.1771 151.603 97.3925 151.603C99.6194 151.603 101.237 152.685 101.231 154.325C101.237 155.225 100.753 155.948 99.9554 156.421V159.052H102.12ZM94.8183 154.325C94.8126 155.379 95.8548 156.051 97.3925 156.045C98.9246 156.051 99.9896 155.379 99.9896 154.325C99.9896 153.255 98.9246 152.6 97.3925 152.605C95.8548 152.6 94.8126 153.255 94.8183 154.325ZM96.1396 159.052H98.6683V156.905C98.2753 156.991 97.8482 157.036 97.3925 157.036C96.9483 157.036 96.5268 156.991 96.1396 156.911V159.052ZM106.494 153.243C106.488 154.371 107.371 155.481 108.988 155.92L108.396 156.9C107.211 156.575 106.357 155.886 105.884 154.992C105.434 156 104.58 156.797 103.35 157.162L102.758 156.182C104.369 155.692 105.229 154.485 105.229 153.243V153.186H103.076V152.184H105.229V150.999H106.505V152.184H108.646V153.186H106.494V153.243ZM104.432 159.394C104.421 158.17 105.765 157.48 107.929 157.48C110.104 157.48 111.443 158.17 111.449 159.394C111.443 160.619 110.104 161.33 107.929 161.33C105.765 161.33 104.421 160.619 104.432 159.394ZM105.685 159.394C105.679 160.003 106.499 160.351 107.929 160.351C109.387 160.351 110.184 160.003 110.184 159.394C110.184 158.779 109.387 158.454 107.929 158.449C106.499 158.454 105.679 158.779 105.685 159.394ZM108.339 154.895V153.87H110.15V151.045H111.414V157.275H110.15V154.895H108.339ZM116.563 153.972C116.557 155.561 117.514 157.372 119.137 158.13L118.431 159.132C117.269 158.585 116.409 157.48 115.948 156.193C115.481 157.606 114.581 158.813 113.396 159.383L112.656 158.392C114.296 157.611 115.293 155.686 115.299 153.972V153.106H113.055V152.059H118.716V153.106H116.563V153.972ZM119.673 161.342V151.045H120.937V155.054H122.52V156.114H120.937V161.342H119.673Z" fill="#C90000"/>
<line x1="69.4399" y1="171.076" x2="273.56" y2="171.076" stroke="#131214" stroke-opacity="0.1" stroke-width="0.648"/>
<path d="M77.2261 181.292V190.313H76.4262V181.292H77.2261ZM70.1386 185.129C70.1436 183.215 71.0954 181.995 72.4369 181.99C73.7734 181.995 74.7404 183.215 74.7353 185.129C74.7404 187.048 73.7734 188.263 72.4369 188.258C71.0954 188.263 70.1436 187.048 70.1386 185.129ZM70.9081 185.129C70.9081 186.592 71.5358 187.554 72.4369 187.549C73.3431 187.554 73.9658 186.592 73.9658 185.129C73.9658 183.666 73.3431 182.704 72.4369 182.699C71.5358 182.704 70.9081 183.666 70.9081 185.129ZM86.9967 185.939V186.597H78.7549V185.939H86.9967ZM79.7978 182.152V181.514H85.9336V183.641H80.6179V184.542H86.1259V185.159H79.8282V183.043H85.1337V182.152H79.7978ZM79.8788 190.171V187.417H85.9336V190.171H79.8788ZM80.6584 189.523H85.1539V188.065H80.6584V189.523Z" fill="#131214"/>
<path d="M123.389 181.828C123.384 184.152 121.744 185.787 119.056 186.496L118.671 185.737C120.853 185.17 122.179 184.03 122.356 182.598H119.177V181.828H123.389ZM120.169 190.212V186.779H126.113V190.212H120.169ZM121.121 189.442H125.171V187.549H121.121V189.442ZM125.151 186.374V181.271H126.113V186.374H125.151ZM130.77 182.618C130.765 183.889 131.59 185.023 132.967 185.473L132.441 186.223C131.444 185.858 130.71 185.159 130.315 184.248C129.925 185.286 129.135 186.101 128.037 186.496L127.52 185.726C128.968 185.23 129.808 184.02 129.819 182.659V181.768H130.77V182.618ZM129.009 188.602C129.004 187.503 130.168 186.865 132.076 186.871C133.975 186.865 135.139 187.503 135.144 188.602C135.139 189.695 133.975 190.318 132.076 190.313C130.168 190.318 129.004 189.695 129.009 188.602ZM129.96 188.602C129.955 189.204 130.745 189.559 132.076 189.554C133.398 189.559 134.188 189.204 134.193 188.602C134.188 187.979 133.398 187.62 132.076 187.62C130.745 187.62 129.955 187.979 129.96 188.602ZM132.238 183.894V183.104H134.152V181.261H135.114V186.617H134.152V183.894H132.238ZM144.368 182.537V183.317H136.906V182.537H140.166V181.393H141.118V182.537H144.368ZM136.511 189.311V188.531H140.166V187.331C138.577 187.23 137.61 186.602 137.615 185.595C137.61 184.501 138.769 183.858 140.642 183.863C142.49 183.858 143.665 184.501 143.659 185.595C143.665 186.602 142.687 187.23 141.118 187.331V188.531H144.814V189.311H136.511ZM138.597 185.595C138.587 186.228 139.346 186.572 140.642 186.577C141.918 186.572 142.682 186.228 142.677 185.595C142.682 184.967 141.918 184.623 140.642 184.623C139.346 184.623 138.587 184.967 138.597 185.595Z" fill="#131214"/>
<path d="M77.2666 199.077V205.679H76.4667V202.226H74.6138V201.568H76.4667V199.077H77.2666ZM69.8449 203.876C71.1713 203.411 72.1332 202.221 72.1332 200.93V200.464H70.0981V199.806H74.9479V200.464H72.9331V200.93C72.9331 202.094 73.8342 203.223 75.1504 203.674L74.7353 204.312C73.7228 203.942 72.9381 203.188 72.5483 202.256C72.1585 203.299 71.3283 204.124 70.2601 204.524L69.8449 203.876ZM71.4852 207.876V205.081H72.2851V207.208H77.5197V207.876H71.4852ZM85.7513 199.067V202.904H87.1891V203.573H85.7513V208.068H84.9514V199.067H85.7513ZM78.6537 205.669C79.3878 205.669 80.2433 205.663 81.1343 205.638V204.646C80.0864 204.524 79.4029 203.907 79.4131 203.016C79.4029 201.998 80.2636 201.34 81.5393 201.345C82.7948 201.34 83.6706 201.998 83.6757 203.016C83.6706 203.912 82.9771 204.524 81.9342 204.646V205.608C82.7695 205.567 83.62 205.496 84.4047 205.385L84.4553 205.993C82.4911 206.327 80.3648 206.347 78.7853 206.347L78.6537 205.669ZM78.8157 200.819V200.171H81.1343V199.087H81.9342V200.171H84.2427V200.819H78.8157ZM80.1522 203.016C80.1573 203.638 80.704 204.049 81.5393 204.038C82.3594 204.049 82.9113 203.638 82.9163 203.016C82.9113 202.388 82.3594 201.963 81.5393 201.963C80.704 201.963 80.1573 202.388 80.1522 203.016ZM95.1878 199.077V205.739H94.3879V202.277H92.2617V204.2H88.1813V199.675H88.9711V201.274H91.4821V199.675H92.2617V201.608H94.3879V199.077H95.1878ZM88.9711 203.542H91.4821V201.902H88.9711V203.542ZM89.3659 207.876V205.081H90.1658V207.208H95.3903V207.876H89.3659ZM104.462 200.404V201.062H97.0913V200.404H100.392V199.219H101.172V200.404H104.462ZM96.6863 207.015V206.357H100.392V205.091C98.7873 205.005 97.8203 204.383 97.8304 203.37C97.8203 202.302 98.9493 201.669 100.787 201.679C102.599 201.669 103.749 202.302 103.743 203.37C103.749 204.383 102.761 205.005 101.172 205.091V206.357H104.928V207.015H96.6863ZM98.6303 203.37C98.6202 204.054 99.4454 204.448 100.787 204.454C102.113 204.448 102.939 204.054 102.933 203.37C102.939 202.702 102.113 202.307 100.787 202.307C99.4454 202.307 98.6202 202.702 98.6303 203.37Z" fill="#131214"/>
<path d="M120.951 207.349C119.256 207.349 118.258 205.982 118.258 203.583C118.258 201.198 119.266 199.816 120.951 199.816C122.632 199.816 123.64 201.198 123.645 203.583C123.64 205.982 122.647 207.349 120.951 207.349ZM119.372 203.583C119.367 205.41 119.959 206.387 120.951 206.387C121.939 206.387 122.531 205.41 122.531 203.583C122.531 201.76 121.934 200.763 120.951 200.758C119.964 200.763 119.372 201.76 119.372 203.583ZM127.583 199.918V207.248H126.459V201.031H126.419L124.667 202.175V201.112L126.49 199.918H127.583ZM131.998 207.349C130.302 207.349 129.305 205.982 129.305 203.583C129.305 201.198 130.312 199.816 131.998 199.816C133.679 199.816 134.686 201.198 134.691 203.583C134.686 205.982 133.694 207.349 131.998 207.349ZM130.418 203.583C130.413 205.41 131.006 206.387 131.998 206.387C132.985 206.387 133.577 205.41 133.577 203.583C133.577 201.76 132.98 200.763 131.998 200.758C131.011 200.763 130.418 201.76 130.418 203.583ZM139.095 203.117V204.049H135.845V203.117H139.095ZM143.176 199.918V207.248H142.052V201.031H142.011L140.26 202.175V201.112L142.082 199.918H143.176ZM145.039 207.248V206.438L147.58 203.876C148.385 203.041 148.785 202.575 148.785 201.932C148.785 201.208 148.198 200.748 147.428 200.748C146.613 200.748 146.097 201.264 146.092 202.044H145.039C145.029 200.702 146.051 199.816 147.449 199.816C148.861 199.816 149.838 200.712 149.848 201.902C149.838 202.722 149.453 203.375 148.076 204.727L146.588 206.236V206.296H149.97V207.248H145.039ZM153.807 207.349C152.288 207.349 151.21 206.534 151.164 205.334H152.298C152.339 205.977 152.977 206.387 153.797 206.387C154.683 206.387 155.326 205.906 155.326 205.193C155.326 204.469 154.723 203.952 153.675 203.947H153.048V203.036H153.675C154.511 203.041 155.093 202.575 155.093 201.872C155.093 201.203 154.592 200.748 153.817 200.748C153.083 200.748 152.425 201.158 152.4 201.821H151.326C151.357 200.626 152.46 199.816 153.827 199.816C155.27 199.816 156.176 200.728 156.166 201.811C156.176 202.646 155.66 203.244 154.87 203.441V203.492C155.873 203.633 156.455 204.307 156.45 205.233C156.455 206.453 155.326 207.349 153.807 207.349ZM157.513 205.82V204.919L160.753 199.918H162.13V204.879H163.132V205.82H162.13V207.248H161.077V205.82H157.513ZM158.687 204.879H161.077V201.244H160.996L158.687 204.818V204.879ZM167.506 203.117V204.049H164.256V203.117H167.506ZM171.293 207.349C169.906 207.349 168.863 206.504 168.812 205.334H169.896C169.956 205.957 170.554 206.413 171.293 206.418C172.184 206.413 172.822 205.77 172.822 204.899C172.822 204.008 172.164 203.36 171.242 203.35C170.655 203.35 170.205 203.547 169.956 203.998H168.903L169.379 199.918H173.531V200.869H170.301L170.058 202.925H170.129C170.432 202.631 170.949 202.434 171.506 202.429C172.888 202.434 173.905 203.456 173.905 204.869C173.905 206.311 172.822 207.349 171.293 207.349ZM177.743 207.349C176.386 207.339 174.968 206.534 174.968 203.826C174.973 201.274 176.077 199.816 177.834 199.816C179.185 199.816 180.122 200.657 180.294 201.821H179.19C179.044 201.224 178.573 200.793 177.834 200.788C176.7 200.793 176.042 201.775 176.042 203.431H176.123C176.523 202.808 177.211 202.444 178.006 202.439C179.312 202.444 180.365 203.446 180.365 204.848C180.365 206.271 179.317 207.359 177.743 207.349ZM176.173 204.879C176.178 205.694 176.831 206.413 177.732 206.418C178.618 206.413 179.282 205.724 179.282 204.869C179.282 204.028 178.644 203.345 177.763 203.35C176.867 203.345 176.183 204.064 176.173 204.879ZM181.803 207.248L185.073 200.93V200.869H181.296V199.918H186.227V200.91L182.967 207.248H181.803ZM189.771 207.349C188.176 207.349 187.068 206.489 187.078 205.294C187.068 204.352 187.741 203.583 188.607 203.451V203.411C187.852 203.239 187.351 202.57 187.351 201.77C187.351 200.641 188.369 199.816 189.771 199.816C191.153 199.816 192.176 200.641 192.181 201.77C192.176 202.57 191.664 203.239 190.925 203.411V203.451C191.781 203.583 192.459 204.352 192.464 205.294C192.459 206.489 191.34 207.349 189.771 207.349ZM188.212 205.213C188.197 205.932 188.804 206.428 189.771 206.428C190.723 206.428 191.33 205.932 191.33 205.213C191.33 204.459 190.672 203.907 189.771 203.907C188.86 203.907 188.197 204.459 188.212 205.213ZM188.435 201.872C188.44 202.555 188.986 203.031 189.771 203.026C190.536 203.031 191.092 202.56 191.087 201.872C191.092 201.188 190.556 200.722 189.771 200.728C188.966 200.722 188.44 201.188 188.435 201.872Z" fill="#131214"/>
<rect x="60.6919" y="231.004" width="221.616" height="80.6" rx="4.86" fill="#F2F7FE"/>
<rect x="60.6919" y="231.004" width="221.616" height="80.6" rx="4.86" stroke="#8FBCFF" stroke-width="0.648"/>
<path d="M75.5339 243.778V244.803H74.6227V247.725C74.9986 247.696 75.3745 247.662 75.7276 247.617V246.694H77.14V245.806H75.7276V244.792H77.14V243.06H78.4044V249.371H77.14V247.708H75.756L75.8073 248.551C73.8424 248.875 71.57 248.909 69.9297 248.915L69.7931 247.867C70.1519 247.867 70.5448 247.867 70.9549 247.862V244.803H70.055V243.778H75.5339ZM71.4219 251.455C71.4105 250.242 72.7375 249.553 74.9188 249.553C77.1172 249.553 78.4328 250.242 78.4385 251.455C78.4328 252.64 77.1172 253.346 74.9188 253.346C72.7375 253.346 71.4105 252.64 71.4219 251.455ZM72.1851 247.844C72.5838 247.833 72.9938 247.816 73.4039 247.799V244.803H72.1851V247.844ZM72.6749 251.455C72.6692 252.053 73.4779 252.367 74.9188 252.367C76.3654 252.367 77.1742 252.053 77.1742 251.455C77.1742 250.846 76.3654 250.521 74.9188 250.521C73.4779 250.521 72.6692 250.846 72.6749 251.455ZM87.9269 243.06V247.081H89.4533V248.141H87.9269V253.335H86.6626V243.06H87.9269ZM79.8054 250.521C82.3113 249.268 83.6668 247.526 83.9174 245.179H80.3636V244.131H85.2046C85.1989 247.155 83.9459 249.815 80.523 251.501L79.8054 250.521ZM96.4015 244.849C96.4015 246.119 97.216 247.366 98.8391 247.901L98.2013 248.881C97.0451 248.494 96.2307 247.725 95.7808 246.762C95.3251 247.816 94.4708 248.653 93.2691 249.063L92.5971 248.084C94.2544 247.531 95.1258 246.199 95.1258 244.849V244.723H92.9502V243.71H98.543V244.723H96.4015V244.849ZM93.9753 250.76V249.747H100.833V253.358H99.5681V250.76H93.9753ZM99.5681 249.268V243.06H100.833V245.635H102.268V246.694H100.833V249.268H99.5681ZM106.562 244.541C106.556 245.942 107.376 247.224 108.988 247.731L108.305 248.722C107.183 248.323 106.397 247.571 105.958 246.597C105.503 247.719 104.643 248.602 103.395 249.04L102.723 248.015C104.426 247.457 105.281 246.085 105.286 244.598V243.619H106.562V244.541ZM104.432 251.376C104.421 250.123 105.759 249.388 107.929 249.394C110.11 249.388 111.443 250.123 111.449 251.376C111.443 252.629 110.11 253.346 107.929 253.346C105.759 253.346 104.421 252.629 104.432 251.376ZM105.685 251.376C105.679 252.002 106.499 252.349 107.929 252.355C109.37 252.349 110.184 252.002 110.184 251.376C110.184 250.726 109.37 250.379 107.929 250.373C106.499 250.379 105.679 250.726 105.685 251.376ZM108.1 246.09V245.054H110.15V243.06H111.414V249.12H110.15V246.09H108.1ZM116.563 245.988C116.557 247.577 117.514 249.388 119.137 250.145L118.431 251.148C117.269 250.601 116.409 249.496 115.948 248.209C115.481 249.621 114.581 250.829 113.396 251.398L112.656 250.407C114.296 249.627 115.293 247.702 115.299 245.988V245.122H113.055V244.074H118.716V245.122H116.563V245.988ZM119.673 253.358V243.06H120.937V247.07H122.52V248.129H120.937V253.358H119.673Z" fill="#131214"/>
<line x1="69.4399" y1="263.092" x2="273.56" y2="263.092" stroke="#131214" stroke-opacity="0.1" stroke-width="0.648"/>
<path d="M77.2261 273.307V282.329H76.4262V273.307H77.2261ZM70.1386 277.145C70.1436 275.231 71.0954 274.011 72.4369 274.006C73.7734 274.011 74.7404 275.231 74.7353 277.145C74.7404 279.063 73.7734 280.278 72.4369 280.273C71.0954 280.278 70.1436 279.063 70.1386 277.145ZM70.9081 277.145C70.9081 278.608 71.5358 279.57 72.4369 279.565C73.3431 279.57 73.9658 278.608 73.9658 277.145C73.9658 275.682 73.3431 274.72 72.4369 274.715C71.5358 274.72 70.9081 275.682 70.9081 277.145ZM86.9967 277.955V278.613H78.7549V277.955H86.9967ZM79.7978 274.168V273.53H85.9336V275.656H80.6179V276.557H86.1259V277.175H79.8282V275.059H85.1337V274.168H79.7978ZM79.8788 282.187V279.433H85.9336V282.187H79.8788ZM80.6584 281.539H85.1539V280.081H80.6584V281.539Z" fill="#131214"/>
<path d="M122.721 279.544C124.741 279.549 125.885 280.045 125.89 280.972C125.885 281.898 124.741 282.379 122.721 282.379C120.676 282.379 119.532 281.898 119.532 280.972C119.532 280.045 120.676 279.549 122.721 279.544ZM118.56 279.119V278.238H122.164V277.686C120.574 277.605 119.683 277.165 119.683 276.395C119.683 275.53 120.782 275.084 122.721 275.079C124.68 275.084 125.764 275.53 125.769 276.395C125.764 277.165 124.888 277.605 123.288 277.686V278.238H126.903V279.119H118.56ZM118.975 274.796V273.935H122.164V273.145H123.288V273.935H126.447V274.796H118.975ZM120.686 280.972C120.686 281.372 121.359 281.559 122.721 281.549C124.068 281.559 124.751 281.372 124.756 280.972C124.751 280.572 124.068 280.375 122.721 280.375C121.359 280.375 120.686 280.572 120.686 280.972ZM120.888 276.395C120.888 276.745 121.511 276.927 122.721 276.932C123.951 276.927 124.559 276.745 124.564 276.395C124.559 276.021 123.951 275.849 122.721 275.849C121.511 275.849 120.888 276.021 120.888 276.395ZM135.144 273.236V277.874H134.01V273.236H135.144ZM127.662 277.145C129.935 276.699 130.998 275.742 131.13 274.522H128.148V273.611H132.38C132.375 276.066 130.892 277.459 128.057 278.056L127.662 277.145ZM129.069 279.129V278.248H135.144V280.638H130.224V281.417H135.418V282.298H129.09V279.818H134.01V279.129H129.069ZM144.834 277.621V278.522H136.481V277.621H140.106V276.75H137.503V273.652H143.821V274.532H138.627V275.859H143.872V276.75H141.209V277.621H144.834ZM137.453 280.719C137.453 279.646 138.653 279.043 140.642 279.048C142.617 279.043 143.806 279.646 143.811 280.719C143.806 281.782 142.617 282.384 140.642 282.389C138.653 282.384 137.453 281.782 137.453 280.719ZM138.597 280.719C138.592 281.25 139.311 281.524 140.642 281.519C141.953 281.524 142.677 281.25 142.687 280.719C142.677 280.192 141.953 279.909 140.642 279.909C139.311 279.909 138.592 280.192 138.597 280.719Z" fill="#131214"/>
<path d="M77.2666 291.093V297.694H76.4667V294.242H74.6138V293.584H76.4667V291.093H77.2666ZM69.8449 295.892C71.1713 295.426 72.1332 294.237 72.1332 292.946V292.48H70.0981V291.822H74.9479V292.48H72.9331V292.946C72.9331 294.11 73.8342 295.239 75.1504 295.69L74.7353 296.327C73.7228 295.958 72.9381 295.204 72.5483 294.272C72.1585 295.315 71.3283 296.14 70.2601 296.54L69.8449 295.892ZM71.4852 299.891V297.097H72.2851V299.223H77.5197V299.891H71.4852ZM85.7513 291.083V294.92H87.1891V295.588H85.7513V300.084H84.9514V291.083H85.7513ZM78.6537 297.684C79.3878 297.684 80.2433 297.679 81.1343 297.654V296.662C80.0864 296.54 79.4029 295.922 79.4131 295.031C79.4029 294.014 80.2636 293.356 81.5393 293.361C82.7948 293.356 83.6706 294.014 83.6757 295.031C83.6706 295.927 82.9771 296.54 81.9342 296.662V297.623C82.7695 297.583 83.62 297.512 84.4047 297.401L84.4553 298.008C82.4911 298.342 80.3648 298.363 78.7853 298.363L78.6537 297.684ZM78.8157 292.834V292.186H81.1343V291.103H81.9342V292.186H84.2427V292.834H78.8157ZM80.1522 295.031C80.1573 295.654 80.704 296.064 81.5393 296.054C82.3594 296.064 82.9113 295.654 82.9163 295.031C82.9113 294.404 82.3594 293.978 81.5393 293.978C80.704 293.978 80.1573 294.404 80.1522 295.031ZM95.1878 291.093V297.755H94.3879V294.292H92.2617V296.216H88.1813V291.69H88.9711V293.29H91.4821V291.69H92.2617V293.624H94.3879V291.093H95.1878ZM88.9711 295.558H91.4821V293.918H88.9711V295.558ZM89.3659 299.891V297.097H90.1658V299.223H95.3903V299.891H89.3659ZM104.462 292.419V293.077H97.0913V292.419H100.392V291.235H101.172V292.419H104.462ZM96.6863 299.031V298.373H100.392V297.107C98.7873 297.021 97.8203 296.398 97.8304 295.386C97.8203 294.318 98.9493 293.685 100.787 293.695C102.599 293.685 103.749 294.318 103.743 295.386C103.749 296.398 102.761 297.021 101.172 297.107V298.373H104.928V299.031H96.6863ZM98.6303 295.386C98.6202 296.069 99.4454 296.464 100.787 296.469C102.113 296.464 102.939 296.069 102.933 295.386C102.939 294.718 102.113 294.323 100.787 294.323C99.4454 294.323 98.6202 294.718 98.6303 295.386Z" fill="#131214"/>
<path d="M121.063 299.365C119.296 299.365 118.243 297.998 118.248 295.598C118.243 293.209 119.306 291.832 121.063 291.832C122.82 291.832 123.878 293.209 123.878 295.598C123.878 298.003 122.825 299.365 121.063 299.365ZM119.574 295.598C119.574 297.36 120.141 298.256 121.063 298.261C121.979 298.256 122.551 297.36 122.551 295.598C122.546 293.852 121.979 292.93 121.063 292.925C120.147 292.93 119.58 293.852 119.574 295.598ZM127.958 291.933V299.264H126.632V293.219H126.591L124.88 294.313V293.108L126.692 291.933H127.958ZM132.443 299.365C130.677 299.365 129.624 297.998 129.629 295.598C129.624 293.209 130.687 291.832 132.443 291.832C134.2 291.832 135.258 293.209 135.258 295.598C135.258 298.003 134.205 299.365 132.443 299.365ZM130.955 295.598C130.955 297.36 131.522 298.256 132.443 298.261C133.36 298.256 133.932 297.36 133.932 295.598C133.927 293.852 133.36 292.93 132.443 292.925C131.527 292.93 130.96 293.852 130.955 295.598ZM139.703 295.072V296.135H136.402V295.072H139.703ZM143.935 291.933V299.264H142.609V293.219H142.568L140.857 294.313V293.108L142.67 291.933H143.935ZM145.717 299.264V298.312L148.309 295.811C149.048 295.072 149.433 294.637 149.433 294.019C149.433 293.335 148.891 292.905 148.178 292.905C147.423 292.905 146.937 293.376 146.942 294.12H145.687C145.682 292.733 146.725 291.832 148.188 291.832C149.686 291.832 150.694 292.728 150.699 293.958C150.694 294.783 150.299 295.452 148.856 296.813L147.55 298.109V298.16H150.81V299.264H145.717ZM154.627 299.365C153.063 299.365 151.944 298.514 151.914 297.279H153.24C153.276 297.866 153.863 298.256 154.627 298.251C155.432 298.256 156.014 297.811 156.014 297.158C156.014 296.5 155.447 296.029 154.496 296.024H153.837V295.011H154.496C155.275 295.011 155.817 294.576 155.812 293.938C155.817 293.32 155.351 292.905 154.637 292.905C153.949 292.905 153.357 293.29 153.331 293.908H152.066C152.096 292.677 153.215 291.832 154.647 291.832C156.136 291.832 157.098 292.743 157.088 293.867C157.098 294.687 156.551 295.279 155.751 295.447V295.507C156.784 295.644 157.371 296.307 157.361 297.229C157.371 298.469 156.212 299.365 154.627 299.365ZM158.384 297.897V296.844L161.553 291.933H163.193V296.813H164.155V297.897H163.193V299.264H161.937V297.897H158.384ZM159.73 296.813H161.958V293.432H161.877L159.73 296.763V296.813ZM168.549 295.072V296.135H165.248V295.072H168.549ZM172.407 299.365C170.944 299.365 169.865 298.489 169.825 297.279H171.111C171.151 297.871 171.713 298.297 172.407 298.302C173.227 298.297 173.819 297.704 173.814 296.894C173.819 296.054 173.212 295.462 172.366 295.457C171.794 295.452 171.379 295.654 171.151 296.084H169.926L170.372 291.933H174.705V293.037H171.455L171.232 294.981H171.303C171.587 294.662 172.118 294.429 172.721 294.424C174.082 294.429 175.095 295.441 175.09 296.854C175.095 298.317 173.991 299.365 172.407 299.365ZM178.947 299.365C177.515 299.355 176.087 298.504 176.092 295.801C176.092 293.295 177.231 291.832 179.028 291.832C180.441 291.832 181.413 292.718 181.58 293.908H180.274C180.142 293.346 179.697 292.971 179.028 292.976C177.965 292.971 177.373 293.913 177.368 295.457H177.439C177.813 294.824 178.517 294.449 179.322 294.454C180.638 294.449 181.656 295.447 181.651 296.834C181.656 298.292 180.567 299.375 178.947 299.365ZM177.51 296.874C177.52 297.639 178.117 298.297 178.947 298.302C179.763 298.297 180.37 297.669 180.375 296.864C180.37 296.084 179.783 295.457 178.968 295.457C178.143 295.457 177.52 296.11 177.51 296.874ZM183.038 299.264L186.217 293.087V293.037H182.532V291.933H187.584V293.057L184.405 299.264H183.038ZM191.168 299.365C189.533 299.365 188.379 298.494 188.384 297.299C188.379 296.368 189.072 295.609 189.953 295.467V295.426C189.184 295.264 188.662 294.596 188.657 293.796C188.662 292.662 189.72 291.832 191.168 291.832C192.606 291.832 193.669 292.662 193.669 293.796C193.669 294.601 193.133 295.264 192.373 295.426V295.467C193.249 295.609 193.948 296.368 193.953 297.299C193.948 298.494 192.788 299.365 191.168 299.365ZM189.741 297.178C189.736 297.856 190.298 298.322 191.168 298.322C192.029 298.322 192.591 297.856 192.596 297.178C192.591 296.489 191.994 295.978 191.168 295.983C190.343 295.978 189.736 296.484 189.741 297.178ZM189.943 293.918C189.948 294.561 190.455 295.001 191.168 295.001C191.872 295.001 192.383 294.561 192.383 293.918C192.383 293.295 191.887 292.865 191.168 292.865C190.434 292.865 189.948 293.295 189.943 293.918Z" fill="#131214"/>
<rect x="50" y="331.768" width="243" height="9.072" fill="#70737C" fill-opacity="0.08"/>
<rect width="243" height="34.992" transform="translate(50 46)" fill="white"/>
<path d="M85.9997 60.4924C87.5219 60.5032 89.0388 61.4122 89.0442 64.2577C89.0442 66.9417 87.8285 68.4962 85.9136 68.4962C84.4129 68.4962 83.3748 67.5603 83.2027 66.2694H84.5904C84.7303 66.888 85.209 67.2806 85.9136 67.2806C87.0432 67.2806 87.6779 66.2855 87.6887 64.6127H87.6026C87.2099 65.2904 86.4569 65.6938 85.6017 65.6885C84.2085 65.6938 83.1327 64.6342 83.1274 63.1604C83.1274 61.6381 84.2731 60.4817 85.9997 60.4924ZM84.4936 63.1281C84.4936 63.9672 85.1176 64.6234 85.9889 64.6234C86.8549 64.6234 87.5219 63.9242 87.5165 63.1173C87.5165 62.3266 86.8818 61.6274 86.0105 61.622C85.1337 61.6274 84.4828 62.2944 84.4936 63.1281ZM91.0666 67.4205C90.604 67.4205 90.2221 67.0439 90.2275 66.5814C90.2221 66.1295 90.604 65.7584 91.0666 65.753C91.5131 65.7584 91.895 66.1295 91.895 66.5814C91.895 67.0439 91.5131 67.4205 91.0666 67.4205ZM90.2275 62.4073C90.2221 61.9555 90.604 61.5844 91.0666 61.579C91.5131 61.5844 91.895 61.9555 91.895 62.4073C91.895 62.8699 91.5131 63.2464 91.0666 63.2464C90.604 63.2464 90.2221 62.8699 90.2275 62.4073ZM93.0676 66.9364V65.8176L96.4348 60.6H98.1775V65.7853H99.1995V66.9364H98.1775V68.3887H96.8436V66.9364H93.0676ZM94.4984 65.7853H96.8651V62.1922H96.779L94.4984 65.7315V65.7853ZM103.374 60.6V68.3887H101.964V61.9663H101.921L100.103 63.1281V61.8479L102.029 60.6H103.374Z" fill="#131214"/>
<rect opacity="0.35" x="256.994" y="60.7322" width="15.552" height="7.776" rx="2.4624" stroke="#131214" stroke-width="0.648"/>
<path opacity="0.4" d="M273.518 63.5059V66.1468C274.039 65.9231 274.378 65.4028 274.378 64.8263C274.378 64.2498 274.039 63.7295 273.518 63.5059Z" fill="#131214"/>
<rect x="257.966" y="61.7051" width="13.608" height="5.832" rx="1.62" fill="#131214"/>
<path fill-rule="evenodd" clip-rule="evenodd" d="M246.477 62.4204C248.089 62.4205 249.639 63.018 250.807 64.0894C250.895 64.1722 251.036 64.1711 251.122 64.0871L251.963 63.2684C252.007 63.2258 252.031 63.168 252.031 63.108C252.031 63.0479 252.005 62.9905 251.961 62.9484C248.895 60.1136 244.059 60.1136 240.993 62.9484C240.949 62.9905 240.924 63.0479 240.923 63.1079C240.923 63.168 240.947 63.2257 240.991 63.2684L241.832 64.0871C241.919 64.1713 242.059 64.1723 242.147 64.0894C243.315 63.0179 244.865 62.4204 246.477 62.4204ZM246.475 65.1552C247.355 65.1551 248.203 65.4867 248.855 66.0855C248.943 66.1705 249.082 66.1687 249.168 66.0814L250.002 65.2265C250.046 65.1816 250.07 65.1208 250.07 65.0576C250.069 64.9944 250.043 64.9341 249.999 64.8901C248.013 63.0169 244.939 63.0169 242.953 64.8901C242.908 64.9341 242.883 64.9944 242.882 65.0576C242.882 65.1209 242.906 65.1817 242.95 65.2265L243.784 66.0814C243.87 66.1687 244.009 66.1705 244.097 66.0855C244.749 65.4871 245.596 65.1555 246.475 65.1552ZM248.111 66.9654C248.112 67.0336 248.088 67.0995 248.045 67.1473L246.634 68.738C246.593 68.7847 246.536 68.811 246.478 68.811C246.419 68.811 246.362 68.7847 246.321 68.738L244.91 67.1473C244.867 67.0994 244.843 67.0336 244.844 66.9653C244.845 66.8971 244.872 66.8324 244.917 66.7866C245.818 65.9352 247.137 65.9352 248.038 66.7866C248.083 66.8324 248.11 66.8971 248.111 66.9654Z" fill="#131214"/>
<path fill-rule="evenodd" clip-rule="evenodd" d="M236.063 61.4967C236.063 61.0864 235.754 60.7539 235.372 60.7539H234.681C234.299 60.7539 233.99 61.0864 233.99 61.4967V67.9339C233.99 68.3441 234.299 68.6766 234.681 68.6766H235.372C235.754 68.6766 236.063 68.3441 236.063 67.9339V61.4967ZM231.246 62.3384H231.937C232.319 62.3384 232.629 62.679 232.629 63.099V67.916C232.629 68.3361 232.319 68.6766 231.937 68.6766H231.246C230.864 68.6766 230.555 68.3361 230.555 67.916V63.099C230.555 62.679 230.864 62.3384 231.246 62.3384ZM228.439 64.055H227.748C227.366 64.055 227.057 64.3999 227.057 64.8253V67.9064C227.057 68.3318 227.366 68.6766 227.748 68.6766H228.439C228.821 68.6766 229.13 68.3318 229.13 67.9064V64.8253C229.13 64.3999 228.821 64.055 228.439 64.055ZM225.004 65.6396H224.313C223.931 65.6396 223.622 65.9795 223.622 66.3988V67.9174C223.622 68.3367 223.931 68.6766 224.313 68.6766H225.004C225.386 68.6766 225.695 68.3367 225.695 67.9174V66.3988C225.695 65.9795 225.386 65.6396 225.004 65.6396Z" fill="#131214"/>
<rect width="243" height="41.472" transform="translate(50 80.9922)" fill="white"/>
<path d="M153.723 97.9202C153.723 99.3314 154.628 100.717 156.431 101.312L155.722 102.401C154.438 101.97 153.533 101.116 153.033 100.046C152.527 101.217 151.578 102.147 150.242 102.603L149.496 101.515C151.337 100.901 152.305 99.42 152.305 97.9202V97.781H149.888V96.6546H156.102V97.781H153.723V97.9202ZM151.027 104.489V103.362H158.646V107.374H157.241V104.489H151.027ZM157.241 102.831V95.9332H158.646V98.7935H160.241V99.9705H158.646V102.831H157.241ZM165.012 97.5785C165.006 99.1352 165.917 100.559 167.708 101.122L166.949 102.223C165.702 101.78 164.829 100.945 164.341 99.863C163.835 101.11 162.88 102.09 161.494 102.578L160.747 101.439C162.639 100.819 163.588 99.2934 163.595 97.6418V96.5534H165.012V97.5785ZM162.645 105.172C162.633 103.78 164.12 102.964 166.531 102.97C168.955 102.964 170.435 103.78 170.442 105.172C170.435 106.564 168.955 107.362 166.531 107.362C164.12 107.362 162.633 106.564 162.645 105.172ZM164.038 105.172C164.031 105.868 164.943 106.254 166.531 106.261C168.132 106.254 169.037 105.868 169.037 105.172C169.037 104.451 168.132 104.065 166.531 104.059C164.943 104.065 164.031 104.451 164.038 105.172ZM166.721 99.2998V98.148H168.999V95.9332H170.404V102.666H168.999V99.2998H166.721ZM180.984 95.9332V100.489H182.744V101.654H180.984V107.374H179.592V95.9332H180.984ZM171.96 98.8188V97.6924H174.669V96.0977H176.074V97.6924H178.706V98.8188H171.96ZM172.492 102.261C172.479 100.679 173.707 99.5592 175.378 99.5655C177.023 99.5592 178.244 100.679 178.251 102.261C178.244 103.837 177.023 104.944 175.378 104.944C173.707 104.944 172.479 103.837 172.492 102.261ZM173.834 102.261C173.827 103.192 174.479 103.786 175.378 103.78C176.257 103.786 176.896 103.192 176.909 102.261C176.896 101.331 176.257 100.717 175.378 100.717C174.479 100.717 173.827 101.331 173.834 102.261ZM192.78 95.9332V107.374H191.362V95.9332H192.78ZM183.3 104.223C186.3 102.799 187.68 100.863 187.933 98.262H183.883V97.1482H189.363C189.363 100.553 188.04 103.445 184.035 105.349L183.3 104.223Z" fill="#131214"/>
<path d="M68.7919 106.913L63.8797 102.34C63.5173 102.002 63.5173 101.455 63.8797 101.118L68.7919 96.5449" stroke="#131214" stroke-width="0.972" stroke-linecap="round"/>
<g opacity="0.7">
<rect width="243" height="526.176" transform="translate(50 46)" fill="black" fill-opacity="0.7"/>
</g>
<rect x="60.3679" y="159" width="222.264" height="154.808" rx="10.368" fill="white"/>
<rect x="160.547" y="173.642" width="21.9068" height="21.9068" rx="10.9534" stroke="#04B014" stroke-width="0.773182"/>
<path d="M176.225 181.613L170.563 187.275C170.102 187.736 169.354 187.736 168.893 187.275L166.775 185.157" stroke="#04B014" stroke-width="1.06313" stroke-linecap="round" stroke-linejoin="round"/>
<path d="M123.745 208.513C123.745 209.783 124.559 211.03 126.182 211.565L125.545 212.545C124.388 212.158 123.574 211.389 123.124 210.426C122.668 211.48 121.814 212.317 120.612 212.727L119.94 211.748C121.598 211.195 122.469 209.863 122.469 208.513V208.387H120.293V207.374H125.886V208.387H123.745V208.513ZM121.319 214.425V213.411H128.176V217.022H126.911V214.425H121.319ZM126.911 212.932V206.724H128.176V209.299H129.611V210.358H128.176V212.932H126.911ZM133.905 208.205C133.9 209.606 134.72 210.888 136.331 211.395L135.648 212.386C134.526 211.987 133.74 211.235 133.302 210.261C132.846 211.383 131.986 212.266 130.739 212.705L130.067 211.679C131.77 211.121 132.624 209.749 132.629 208.262V207.283H133.905V208.205ZM131.775 215.04C131.764 213.787 133.102 213.052 135.272 213.058C137.453 213.052 138.786 213.787 138.792 215.04C138.786 216.293 137.453 217.01 135.272 217.01C133.102 217.01 131.764 216.293 131.775 215.04ZM133.028 215.04C133.022 215.666 133.843 216.014 135.272 216.019C136.713 216.014 137.527 215.666 137.527 215.04C137.527 214.39 136.713 214.043 135.272 214.037C133.843 214.043 133.022 214.39 133.028 215.04ZM135.443 209.754V208.718H137.493V206.724H138.758V212.784H137.493V209.754H135.443ZM144.897 206.884C147.244 206.89 148.605 207.51 148.611 208.649C148.605 209.8 147.244 210.421 144.897 210.426C142.556 210.421 141.184 209.8 141.184 208.649C141.184 207.51 142.556 206.89 144.897 206.884ZM140.216 211.987V210.973H149.602V211.987H140.216ZM141.321 213.616V212.682H148.428V215.199H142.574V215.962H148.713V216.93H141.332V214.299H147.187V213.616H141.321ZM142.517 208.649C142.511 209.219 143.331 209.481 144.897 209.481C146.486 209.481 147.301 209.219 147.301 208.649C147.301 208.12 146.486 207.818 144.897 207.818C143.331 207.818 142.511 208.12 142.517 208.649ZM156.174 207.169C157.677 207.169 158.748 208.006 158.76 209.242C158.748 210.267 157.979 211.036 156.835 211.247V212.078C157.695 212.027 158.555 211.953 159.352 211.839L159.454 212.761C157.313 213.143 154.921 213.189 153.178 213.183L153.041 212.169C153.782 212.169 154.648 212.163 155.559 212.135V211.252C154.38 211.053 153.594 210.284 153.6 209.242C153.594 208.006 154.665 207.169 156.174 207.169ZM154.454 216.805V213.901H155.718V215.78H161.584V216.805H154.454ZM154.784 209.242C154.773 209.92 155.354 210.341 156.174 210.347C157 210.341 157.558 209.92 157.564 209.242C157.558 208.547 157 208.137 156.174 208.137C155.354 208.137 154.773 208.547 154.784 209.242ZM159.956 214.595V206.736H161.22V210.062H162.61V211.11H161.22V214.595H159.956ZM172.554 214.778V215.826H163.145V214.778H165.64V213.08H164.261V209.72H170.184V208.456H164.238V207.431H171.437V210.734H165.526V212.055H171.677V213.08H170.173V214.778H172.554ZM166.87 214.778H168.931V213.08H166.87V214.778ZM181.29 206.724V210.825H182.874V211.873H181.29V217.022H180.037V206.724H181.29ZM173.169 209.322V208.308H175.606V206.873H176.871V208.308H179.24V209.322H173.169ZM173.647 212.42C173.636 210.996 174.741 209.988 176.244 209.994C177.725 209.988 178.824 210.996 178.83 212.42C178.824 213.838 177.725 214.835 176.244 214.835C174.741 214.835 173.636 213.838 173.647 212.42ZM174.855 212.42C174.849 213.257 175.435 213.792 176.244 213.787C177.036 213.792 177.611 213.257 177.622 212.42C177.611 211.583 177.036 211.03 176.244 211.03C175.435 211.03 174.849 211.583 174.855 212.42ZM187.077 213.422C187.065 214.288 187.458 215.188 188.347 215.763C189.241 215.142 189.64 214.191 189.651 213.422V212.887H190.893V213.422C190.887 214.481 191.519 215.518 192.897 215.951L192.259 216.885C191.263 216.537 190.602 215.877 190.249 215.051C189.913 215.865 189.298 216.6 188.352 216.976C187.396 216.617 186.786 215.922 186.45 215.097C186.08 215.883 185.431 216.537 184.48 216.885L183.865 215.951C185.197 215.495 185.841 214.425 185.846 213.422V212.887H187.077V213.422ZM183.443 209.72C183.443 208.279 184.605 207.243 186.165 207.248C186.98 207.243 187.697 207.545 188.187 208.046H190.665V206.724H191.929V212.534H190.665V211.349H188.216C187.726 211.862 186.997 212.175 186.165 212.169C184.605 212.175 183.443 211.15 183.443 209.72ZM184.662 209.72C184.656 210.569 185.294 211.11 186.165 211.11C187.014 211.11 187.646 210.569 187.646 209.72C187.646 208.866 187.014 208.308 186.165 208.308C185.294 208.308 184.656 208.866 184.662 209.72ZM188.774 209.06C188.831 209.27 188.865 209.487 188.865 209.72C188.865 209.931 188.837 210.13 188.785 210.324H190.665V209.06H188.774ZM195.768 212.898V213.878H200.301V212.898H201.566V216.896H194.515V212.898H195.768ZM193.387 212.317V211.281H202.773V212.317H193.387ZM193.865 209.743C196.018 209.475 197.425 208.37 197.431 207.226V206.838H198.729V207.226C198.729 208.336 200.142 209.492 202.272 209.743L201.828 210.745C200.102 210.512 198.741 209.743 198.08 208.701C197.414 209.749 196.047 210.512 194.333 210.745L193.865 209.743ZM195.768 215.894H200.301V214.846H195.768V215.894ZM212.056 206.724V217.022H210.803V206.724H212.056ZM204.06 214.436V207.727H205.313V213.354C206.754 213.331 208.292 213.206 209.881 212.887L210.04 213.946C208.229 214.322 206.549 214.442 204.949 214.436H204.06ZM221.613 206.724V210.631H223.196V211.668H221.613V217.033H220.349V206.724H221.613ZM213.97 214.516V207.704H218.788V208.729H215.234V213.456C216.835 213.451 218.105 213.371 219.517 213.126L219.665 214.197C218.065 214.47 216.681 214.516 214.824 214.516H213.97Z" fill="#131214"/>
<path d="M93.8682 235.191V228.319H96.2032C97.8122 228.319 98.5478 229.278 98.5478 230.502C98.5478 231.722 97.8122 232.695 96.2127 232.695H94.7225V235.191H93.8682ZM94.7225 231.936H96.1748C97.2711 231.936 97.6983 231.319 97.703 230.502C97.6983 229.681 97.2711 229.078 96.1653 229.078H94.7225V231.936ZM104.433 230.483C104.234 229.534 103.422 229.021 102.516 229.021C101.272 229.021 100.309 229.98 100.304 231.755C100.309 233.526 101.272 234.484 102.516 234.489C103.422 234.484 104.229 233.976 104.433 233.037H105.287C105.04 234.442 103.911 235.286 102.516 235.286C100.75 235.286 99.4733 233.929 99.478 231.755C99.4733 229.582 100.75 228.224 102.516 228.224C103.906 228.224 105.031 229.055 105.287 230.483H104.433ZM113.783 231.442V232.031H106.056V231.442H113.783ZM106.986 233.264V232.704H112.815V234.498H107.746V235.305H113.09V235.846H106.996V233.986H112.074V233.264H106.986ZM107.034 228.319V227.778H112.786V229.525H107.803V230.265H112.938V230.806H107.062V229.012H112.036V228.319H107.034ZM124.594 232.002V232.61H116.896V232.002H120.37V231.167H117.921V227.769H123.636V228.376H118.671V229.164H123.408V229.733H118.671V230.569H123.683V231.167H121.111V232.002H124.594ZM117.836 234.593C117.831 233.715 118.88 233.236 120.75 233.246C122.601 233.236 123.645 233.715 123.655 234.593C123.645 235.481 122.601 235.941 120.75 235.941C118.88 235.941 117.831 235.481 117.836 234.593ZM118.586 234.593C118.576 235.106 119.355 235.372 120.75 235.362C122.131 235.372 122.9 235.106 122.905 234.593C122.9 234.09 122.131 233.81 120.75 233.806C119.355 233.81 118.576 234.09 118.586 234.593ZM129.521 228.984V229.591H125.287V228.984H127.043V227.778H127.784V228.984H129.521ZM125.591 232.078C125.591 230.958 126.355 230.165 127.404 230.161C128.467 230.165 129.227 230.958 129.236 232.078C129.227 233.212 128.467 234.01 127.404 234.014C126.355 234.01 125.591 233.212 125.591 232.078ZM126.255 232.078C126.255 232.828 126.735 233.364 127.404 233.359C128.078 233.364 128.572 232.828 128.572 232.078C128.572 231.338 128.078 230.797 127.404 230.787C126.735 230.797 126.255 231.338 126.255 232.078ZM129.957 235.543V227.731H130.66V231.081H131.78V227.522H132.492V235.96H131.78V231.698H130.66V235.543H129.957ZM143.114 227.531V233.701H142.373V227.531H143.114ZM136.346 230.189C136.341 228.974 137.295 228.124 138.557 228.12C139.82 228.124 140.764 228.974 140.769 230.189C140.764 231.418 139.82 232.273 138.557 232.268C137.295 232.273 136.341 231.418 136.346 230.189ZM137.077 230.189C137.067 231.029 137.703 231.613 138.557 231.613C139.397 231.613 140.038 231.029 140.038 230.189C140.038 229.363 139.397 228.775 138.557 228.775C137.703 228.775 137.067 229.363 137.077 230.189ZM137.665 235.78V233.075H138.405V235.153H143.379V235.78H137.665ZM147.376 229.79C147.376 231.276 148.358 232.809 149.559 233.397L149.103 233.995C148.173 233.511 147.395 232.51 147.02 231.338C146.645 232.581 145.847 233.649 144.898 234.157L144.424 233.559C145.658 232.951 146.635 231.333 146.645 229.79V228.253H147.376V229.79ZM150.337 235.96V227.522H151.078V230.948H152.492V231.594H151.078V235.96H150.337ZM157.684 228.167V228.784H156.82V231.485C157.21 231.456 157.594 231.423 157.959 231.376L157.997 231.945C156.35 232.197 154.433 232.225 153.061 232.22L152.967 231.594C153.303 231.594 153.669 231.594 154.058 231.589V228.784H153.204V228.167H157.684ZM154.314 234.423C154.31 233.459 155.378 232.909 157.143 232.913C158.909 232.909 159.972 233.459 159.972 234.423C159.972 235.386 158.909 235.941 157.143 235.941C155.378 235.941 154.31 235.386 154.314 234.423ZM154.78 231.575C155.211 231.565 155.658 231.551 156.099 231.527V228.784H154.78V231.575ZM155.055 234.423C155.05 235.011 155.843 235.353 157.143 235.353C158.439 235.353 159.231 235.011 159.231 234.423C159.231 233.844 158.439 233.492 157.143 233.492C155.843 233.492 155.05 233.844 155.055 234.423ZM157.77 231.167V230.55H159.193V229.657H157.77V229.04H159.193V227.522H159.943V232.733H159.193V231.167H157.77ZM167.879 227.522V230.958H169.246V231.584H167.879V235.96H167.138V227.522H167.879ZM161.405 233.768C163.584 232.685 164.77 231.058 164.941 229.059H161.794V228.433H165.696C165.691 230.82 164.571 232.999 161.823 234.356L161.405 233.768ZM175.045 229.088C175.05 230.213 175.876 231.238 177.124 231.67L176.744 232.249C175.781 231.907 175.045 231.219 174.685 230.346C174.324 231.304 173.55 232.049 172.558 232.41L172.16 231.831C173.422 231.385 174.305 230.298 174.314 229.088V228.727H172.388V228.12H176.944V228.727H175.045V229.088ZM173.261 233.663V233.056H178.785V235.96H178.045V233.663H173.261ZM178.045 232.61V227.522H178.785V229.752H180.057V230.388H178.785V232.61H178.045ZM183.493 228.851C183.484 230.056 184.343 231.115 185.582 231.537L185.164 232.116C184.234 231.769 183.503 231.081 183.137 230.194C182.777 231.205 182.008 231.988 180.987 232.372L180.579 231.765C181.88 231.309 182.744 230.189 182.753 228.879V228.006H183.493V228.851ZM181.956 234.366C181.951 233.35 183.028 232.766 184.784 232.771C186.536 232.766 187.613 233.35 187.613 234.366C187.613 235.372 186.536 235.941 184.784 235.941C183.028 235.941 181.951 235.372 181.956 234.366ZM182.696 234.366C182.691 234.978 183.489 235.348 184.784 235.343C186.075 235.348 186.873 234.978 186.873 234.366C186.873 233.734 186.075 233.359 184.784 233.359C183.489 233.359 182.691 233.734 182.696 234.366ZM184.955 229.952V229.335H186.835V227.522H187.585V232.524H186.835V229.952H184.955ZM192.834 227.674C194.708 227.674 195.809 228.191 195.814 229.126C195.809 230.085 194.708 230.602 192.834 230.607C190.949 230.602 189.844 230.085 189.844 229.126C189.844 228.191 190.949 227.674 192.834 227.674ZM188.989 231.784V231.176H196.678V231.784H188.989ZM189.92 233.084V232.515H195.691V234.404H190.679V235.277H195.947V235.865H189.939V233.853H194.96V233.084H189.92ZM190.622 229.126C190.613 229.714 191.434 230.037 192.834 230.037C194.234 230.037 195.05 229.714 195.055 229.126C195.05 228.571 194.234 228.238 192.834 228.234C191.434 228.238 190.613 228.571 190.622 229.126ZM202.402 227.92C203.636 227.92 204.495 228.585 204.5 229.591C204.495 230.464 203.816 231.091 202.8 231.219V232.045C203.588 232.002 204.39 231.931 205.126 231.822L205.183 232.382C203.394 232.7 201.372 232.728 199.915 232.723L199.82 232.106C200.475 232.111 201.244 232.106 202.051 232.078V231.224C201.006 231.11 200.309 230.479 200.314 229.591C200.309 228.585 201.168 227.92 202.402 227.92ZM201.016 229.591C201.006 230.232 201.581 230.668 202.402 230.673C203.228 230.668 203.792 230.232 203.797 229.591C203.792 228.936 203.228 228.499 202.402 228.499C201.581 228.499 201.006 228.936 201.016 229.591ZM201.054 235.77V233.426H201.804V235.144H206.721V235.77H201.054ZM205.667 233.986V227.531H206.417V230.388H207.679V231.024H206.417V233.986H205.667ZM215.957 234.29V234.916H208.23V234.29H210.404V232.685H209.198V230.085H214.248V228.765H209.179V228.148H214.979V230.702H209.939V232.068H215.178V232.685H213.859V234.29H215.957ZM211.135 234.29H213.128V232.685H211.135V234.29ZM220.845 228.984V229.591H216.612V228.984H218.368V227.778H219.108V228.984H220.845ZM216.915 232.078C216.915 230.958 217.679 230.165 218.728 230.161C219.792 230.165 220.551 230.958 220.56 232.078C220.551 233.212 219.792 234.01 218.728 234.014C217.679 234.01 216.915 233.212 216.915 232.078ZM217.58 232.078C217.58 232.828 218.059 233.364 218.728 233.359C219.402 233.364 219.896 232.828 219.896 232.078C219.896 231.338 219.402 230.797 218.728 230.787C218.059 230.797 217.58 231.338 217.58 232.078ZM221.282 235.543V227.731H221.984V231.081H223.104V227.522H223.816V235.96H223.104V231.698H221.984V235.543H221.282ZM229.293 228.718C229.288 229.847 230.793 230.806 232.264 231.024L231.989 231.613C230.674 231.39 229.388 230.687 228.876 229.672C228.363 230.687 227.077 231.39 225.781 231.613L225.487 231.024C226.953 230.806 228.453 229.847 228.458 228.718V228.661H225.753V228.053H231.989V228.661H229.293V228.718ZM225.031 232.951V232.334H232.72V232.951H229.227V235.96H228.496V232.951H225.031ZM236.431 229.79C236.427 231.333 237.475 232.88 238.719 233.445L238.263 234.033C237.3 233.568 236.469 232.567 236.066 231.366C235.677 232.638 234.846 233.706 233.859 234.204L233.384 233.578C234.642 233.003 235.681 231.39 235.691 229.79V228.253H236.431V229.79ZM239.64 235.979V227.522H240.39V235.979H239.64ZM246.104 228.262V229.012H248.078V227.531H248.828V233.692H248.078V231.442H246.104V232.201H242.231V228.262H246.104ZM242.971 231.603H245.373V228.879H242.971V231.603ZM243.37 235.78V233.141H244.12V235.153H249.018V235.78H243.37ZM246.104 230.825H248.078V229.638H246.104V230.825ZM121.291 249.252V249.878H113.564V249.252H115.482V246.978C114.76 246.603 114.324 245.996 114.324 245.227C114.324 243.922 115.605 243.063 117.409 243.053C119.212 243.063 120.494 243.922 120.494 245.227C120.494 245.982 120.071 246.58 119.374 246.955V249.252H121.291ZM115.045 245.227C115.04 246.171 116.023 246.803 117.409 246.803C118.78 246.803 119.772 246.171 119.772 245.227C119.772 244.283 118.78 243.661 117.409 243.67C116.023 243.661 115.04 244.283 115.045 245.227ZM116.213 249.252H118.624V247.244C118.258 247.339 117.85 247.391 117.409 247.391C116.977 247.391 116.573 247.344 116.213 247.249V249.252ZM124.841 244.335C124.846 245.384 125.752 246.333 126.996 246.698L126.635 247.277C125.657 246.983 124.879 246.347 124.495 245.517C124.134 246.437 123.36 247.163 122.354 247.496L121.994 246.926C123.232 246.508 124.106 245.479 124.11 244.335V244.154H122.202V243.556H124.11V242.484H124.86V243.556H126.749V244.154H124.841V244.335ZM123.332 249.404C123.327 248.421 124.405 247.861 126.161 247.866C127.912 247.861 128.989 248.421 128.989 249.404C128.989 250.381 127.912 250.941 126.161 250.941C124.405 250.941 123.327 250.381 123.332 249.404ZM124.072 249.404C124.068 249.992 124.865 250.353 126.161 250.353C127.456 250.353 128.249 249.992 128.249 249.404C128.249 248.801 127.456 248.454 126.161 248.445C124.865 248.454 124.068 248.801 124.072 249.404ZM126.483 245.559V244.942H128.211V242.522H128.961V247.638H128.211V245.559H126.483ZM133.223 245.113C133.213 246.466 134.191 247.956 135.415 248.54L134.988 249.128C134.039 248.663 133.237 247.666 132.857 246.523C132.468 247.761 131.623 248.853 130.679 249.337L130.223 248.749C131.438 248.155 132.482 246.551 132.492 245.113V244.012H130.527V243.395H135.121V244.012H133.223V245.113ZM136.156 250.96V242.522H136.896V245.939H138.311V246.575H136.896V250.96H136.156ZM145.999 242.522V250.96H145.278V242.522H145.999ZM138.871 246.167C138.875 244.373 139.587 243.238 140.684 243.234C141.709 243.238 142.402 244.226 142.497 245.816H143.588V242.702H144.3V250.533H143.588V246.433H142.501C142.43 248.075 141.723 249.105 140.684 249.1C139.587 249.105 138.875 247.961 138.871 246.167ZM139.573 246.167C139.564 247.534 140 248.397 140.684 248.388C141.372 248.397 141.808 247.534 141.804 246.167C141.808 244.795 141.372 243.936 140.684 243.936C140 243.936 139.564 244.795 139.573 246.167ZM154.39 242.522V250.96H153.678V242.522H154.39ZM147.176 248.597C149.008 247.51 149.929 245.986 150.071 244.221H147.537V243.604H150.812C150.812 244.434 150.679 245.236 150.389 245.986H151.903V242.75H152.615V250.533H151.903V246.594H150.114C149.606 247.576 148.79 248.445 147.613 249.138L147.176 248.597ZM164.604 242.522V244.354H165.876V244.98H164.604V246.822H163.864V242.522H164.604ZM158.168 244.705C158.163 243.599 159.094 242.84 160.361 242.835C161.633 242.84 162.554 243.599 162.554 244.705C162.554 245.816 161.633 246.58 160.361 246.584C159.094 246.58 158.163 245.816 158.168 244.705ZM158.899 244.705C158.894 245.445 159.516 245.977 160.361 245.977C161.201 245.977 161.827 245.445 161.823 244.705C161.827 243.974 161.201 243.452 160.361 243.461C159.516 243.452 158.894 243.974 158.899 244.705ZM159.222 247.818V247.22H164.604V249.28H159.972V250.248H164.917V250.846H159.241V248.711H163.864V247.818H159.222ZM173.375 242.531V247.534H172.634V242.531H173.375ZM166.835 243.642V243.044H170.688V245.331H167.575V246.499C169.084 246.508 170.209 246.461 171.581 246.233L171.666 246.86C170.247 247.078 169.094 247.125 167.537 247.125H166.854V244.743H169.948V243.642H166.835ZM167.888 250.846V247.989H173.375V250.846H167.888ZM168.619 250.239H172.644V248.597H168.619V250.239ZM181.766 242.522V250.979H181.016V242.522H181.766ZM175.121 246.119C175.126 244.325 176.018 243.181 177.276 243.177C178.529 243.181 179.435 244.325 179.431 246.119C179.435 247.918 178.529 249.057 177.276 249.052C176.018 249.057 175.126 247.918 175.121 246.119ZM175.843 246.119C175.843 247.491 176.431 248.393 177.276 248.388C178.126 248.393 178.709 247.491 178.709 246.119C178.709 244.748 178.126 243.846 177.276 243.841C176.431 243.846 175.843 244.748 175.843 246.119ZM186.74 242.882V244.097H189.198V242.882H189.939V246.556H186.009V242.882H186.74ZM186.74 245.948H189.198V244.676H186.74V245.948ZM186.863 247.885V247.287H192.245V249.328H187.613V250.258H192.558V250.865H186.882V248.758H191.505V247.885H186.863ZM191.505 246.888V242.522H192.245V244.354H193.517V244.98H192.245V246.888H191.505ZM198.254 245.474V246.717H201.737V247.325H194.049V246.717H197.523V245.474H198.254ZM194.514 245.322C196.004 245.118 197.513 244.178 197.513 243.053V242.655H198.263V243.053C198.263 244.178 199.782 245.118 201.272 245.322L200.968 245.92C199.692 245.697 198.42 245.018 197.893 244.045C197.361 245.028 196.094 245.697 194.799 245.92L194.514 245.322ZM194.979 249.489C194.974 248.554 196.061 248.032 197.893 248.027C199.706 248.032 200.788 248.554 200.798 249.489C200.788 250.429 199.706 250.941 197.893 250.941C196.061 250.941 194.974 250.429 194.979 249.489ZM195.738 249.489C195.729 250.044 196.526 250.367 197.893 250.362C199.246 250.367 200.043 250.044 200.048 249.489C200.043 248.929 199.246 248.616 197.893 248.616C196.526 248.616 195.729 248.929 195.738 249.489ZM209.417 242.531V247.382H208.667V242.531H209.417ZM202.478 246.556C203.194 246.556 204.03 246.556 204.898 246.527V245.616H203.247V242.949H207.252V243.566H203.997V245.018H207.328V245.616H205.648V246.494C206.431 246.456 207.224 246.395 207.964 246.29L208.012 246.831C206.161 247.144 204.115 247.173 202.592 247.173L202.478 246.556ZM203.854 250.846V247.761H204.595V248.663H208.686V247.761H209.417V250.846H203.854ZM204.595 250.239H208.686V249.242H204.595V250.239ZM217.808 242.522V250.96H217.067V242.522H217.808ZM211.4 248.787V243.357H212.131V248.141C213.422 248.132 214.751 248.032 216.165 247.733L216.27 248.369C214.77 248.682 213.436 248.787 212.084 248.787H211.4ZM225.781 242.522V245.863H227.195V246.489H225.781V250.979H225.041V242.522H225.781ZM219.621 248.863V243.348H223.56V243.965H220.361V248.236C221.889 248.231 222.967 248.165 224.224 247.932L224.319 248.578C222.995 248.815 221.889 248.863 220.285 248.863H219.621ZM228.543 250.248C228.211 250.244 227.926 249.968 227.936 249.631C227.926 249.299 228.211 249.024 228.543 249.024C228.88 249.024 229.156 249.299 229.151 249.631C229.156 249.968 228.88 250.244 228.543 250.248Z" fill="#898D8F"/>
<rect x="125.816" y="270.068" width="91.368" height="26.568" rx="3.564" stroke="black" stroke-width="0.648"/>
<path d="M158.064 280.163V282.522H159.279V279.312H160.2V287.767H159.279V283.312H158.064V285.823H154.541V280.163H158.064ZM155.452 285.053H157.163V280.922H155.452V285.053ZM161.122 288.212V279.14H162.043V288.212H161.122ZM170.72 279.15V285.742H169.758V279.15H170.72ZM163.38 282.006C163.385 280.694 164.428 279.763 165.8 279.758C167.166 279.763 168.209 280.694 168.209 282.006C168.209 283.337 167.166 284.263 165.8 284.263C164.428 284.263 163.385 283.337 163.38 282.006ZM164.321 282.006C164.316 282.861 164.954 283.423 165.8 283.423C166.63 283.423 167.268 282.861 167.268 282.006C167.268 281.17 166.63 280.598 165.8 280.598C164.954 280.598 164.316 281.17 164.321 282.006ZM164.787 288.02V285.073H165.759V287.24H170.994V288.02H164.787ZM176.289 279.687C178.193 279.687 179.64 280.694 179.64 282.218C179.64 283.752 178.193 284.754 176.289 284.749C174.391 284.754 172.943 283.752 172.948 282.218C172.943 280.694 174.391 279.687 176.289 279.687ZM172.158 287.038V286.238H180.461V287.038H172.158ZM173.869 282.218C173.864 283.276 174.897 283.96 176.289 283.96C177.676 283.96 178.704 283.276 178.709 282.218C178.704 281.165 177.676 280.461 176.289 280.467C174.897 280.461 173.864 281.165 173.869 282.218ZM189.421 286.319V287.129H181.119V286.319H184.774V284.729H182.131V281.844H187.457V280.568H182.111V279.778H188.409V282.613H183.083V283.939H188.621V284.729H185.726V286.319H189.421Z" fill="#131214"/>
</g>
<rect x="48.5" y="44.5" width="246" height="529.176" rx="27.5" stroke="black" stroke-width="3"/>
</g>
<defs>
<clipPath id="clip0_5339_15871">
<rect width="343" height="343" rx="24" fill="white"/>
</clipPath>
<clipPath id="clip1_5339_15871">
<rect x="50" y="46" width="243" height="526.176" rx="26" fill="white"/>
</clipPath>
</defs>
</svg>
