<svg width="343" height="343" viewBox="0 0 343 343" fill="none" xmlns="http://www.w3.org/2000/svg">
<g clip-path="url(#clip0_5326_19506)">
<rect width="343" height="343" rx="24" fill="#F7F7FB"/>
<g clip-path="url(#clip1_5326_19506)">
<rect x="50" y="41" width="243" height="526.176" rx="26" fill="#F7F7FB"/>
<rect width="243" height="41.472" transform="translate(50 75.9922)" fill="white"/>
<path d="M157.966 91.4365V100.6H156.32V91.4365H157.966ZM161.218 96.5749V100.6H159.598V93.7273H161.142V94.8916H161.231C161.541 94.1259 162.243 93.6387 163.269 93.6387C164.692 93.6387 165.629 94.5752 165.623 96.2205V100.6H164.015V96.4737C164.015 95.5498 163.515 94.9992 162.674 95.0055C161.819 94.9992 161.218 95.5751 161.218 96.5749ZM167.243 100.6V91.4365H168.863V94.8537H168.926C169.173 94.3664 169.673 93.6387 170.888 93.6387C172.476 93.6387 173.729 94.879 173.735 97.1698C173.729 99.4289 172.514 100.72 170.9 100.726C169.711 100.72 169.179 100.017 168.926 99.5112H168.825V100.6H167.243ZM168.825 97.1571C168.825 98.4987 169.413 99.3973 170.445 99.3973C171.52 99.3973 172.084 98.4544 172.09 97.1571C172.084 95.8788 171.533 94.9613 170.445 94.9549C169.4 94.9613 168.825 95.8219 168.825 97.1571ZM178 100.739C175.994 100.739 174.71 99.315 174.71 97.1951C174.71 95.0562 175.994 93.6387 178 93.6387C180.013 93.6387 181.297 95.0562 181.291 97.1951C181.297 99.315 180.013 100.739 178 100.739ZM176.342 97.1824C176.342 98.4417 176.893 99.4479 178.013 99.4479C179.114 99.4479 179.665 98.4417 179.658 97.1824C179.665 95.9231 179.114 94.9106 178.013 94.917C176.893 94.9106 176.342 95.9231 176.342 97.1824ZM183.594 93.7273L184.987 96.2712L186.404 93.7273H188.113L186.037 97.1571L188.151 100.6H186.455L184.987 98.119L183.556 100.6H181.835L183.936 97.1571L181.886 93.7273H183.594Z" fill="#131214"/>
<path d="M253.472 102.56L250.34 99.4276M252.032 95.3596C252.032 98.5408 249.453 101.12 246.272 101.12C243.091 101.12 240.512 98.5408 240.512 95.3596C240.512 92.1784 243.091 89.5996 246.272 89.5996C249.453 89.5996 252.032 92.1784 252.032 95.3596Z" stroke="#131214" stroke-width="0.972" stroke-linecap="round" stroke-linejoin="round"/>
<path d="M274.026 101.914C273.912 102.11 273.749 102.273 273.552 102.387C273.355 102.5 273.132 102.56 272.905 102.56C272.678 102.56 272.455 102.5 272.258 102.387C272.061 102.273 271.897 102.11 271.784 101.914M276.792 93.4883C276.792 92.457 276.384 91.4679 275.654 90.7386C274.925 90.0093 273.936 89.5996 272.905 89.5996C271.873 89.5996 270.884 90.0093 270.155 90.7386C269.426 91.4679 269.016 92.457 269.016 93.4883C269.016 96.8896 265.987 97.4678 267.072 98.9146C268.157 100.361 277.602 100.535 278.817 98.9146C279.874 97.5052 276.792 96.8896 276.792 93.4883Z" stroke="#131214" stroke-width="0.972" stroke-linecap="round" stroke-linejoin="round"/>
<path opacity="0.7" d="M66.3387 89.6005V102.561H68.0904V89.6005H66.3387Z" fill="#D03233"/>
<path d="M77.3852 89.5996H69.2122V102.56H77.3852V89.5996Z" fill="#C80000"/>
<path opacity="0.5" d="M63.3534 89.6005V102.561H65.1051V89.6005H63.3534Z" fill="#DF6564"/>
<path opacity="0.5" d="M60.368 89.6005V102.561H62.1197V89.6005H60.368Z" fill="#E79894"/>
<rect width="243" height="41.472" transform="translate(50 117.463)" fill="white"/>
<path d="M60.368 138.2C60.368 132.116 65.3 127.184 71.384 127.184H271.616C277.7 127.184 282.632 132.116 282.632 138.2C282.632 144.284 277.7 149.216 271.616 149.216H71.384C65.3 149.216 60.368 144.284 60.368 138.2Z" fill="#F4F6F7"/>
<g filter="url(#filter0_dd_5326_19506)">
<path d="M61.664 138.2C61.664 132.832 66.0158 128.48 71.384 128.48H161.78C167.148 128.48 171.5 132.832 171.5 138.2C171.5 143.569 167.148 147.92 161.78 147.92H71.384C66.0158 147.92 61.664 143.569 61.664 138.2Z" fill="#312C2C"/>
<path d="M93.7047 141.312H92.6491L94.5855 135.815H95.8005L97.7445 141.312H96.689L96.2296 139.953H94.1603L93.7047 141.312ZM94.4261 139.156H95.9638L95.2158 136.939H95.1703L94.4261 139.156ZM99.7569 141.388C98.7887 141.385 98.0559 140.61 98.0559 139.255C98.0559 137.88 98.8077 137.136 99.7645 137.136C100.49 137.136 100.793 137.573 100.942 137.865H100.979V135.815H101.944V141.312H100.995V140.659H100.942C100.786 140.963 100.471 141.385 99.7569 141.388ZM99.0431 139.247C99.0431 140.025 99.3848 140.591 100.023 140.591C100.649 140.591 101.002 140.052 101.002 139.247C101.002 138.446 100.653 137.929 100.023 137.926C99.3772 137.929 99.0431 138.48 99.0431 139.247ZM102.923 141.312V137.189H103.85V137.888H103.903C104.074 137.417 104.488 137.136 105.035 137.136C105.593 137.136 105.995 137.421 106.151 137.888H106.196C106.375 137.432 106.834 137.136 107.434 137.136C108.19 137.136 108.721 137.622 108.718 138.541V141.312H107.753V138.693C107.753 138.18 107.442 137.948 107.047 137.948C106.572 137.948 106.295 138.271 106.295 138.738V141.312H105.353V138.655C105.35 138.226 105.069 137.948 104.655 137.948C104.237 137.948 103.895 138.294 103.895 138.807V141.312H102.923ZM109.644 141.312V137.189H110.616V141.312H109.644ZM109.576 136.073C109.576 135.784 109.83 135.549 110.138 135.549C110.445 135.549 110.699 135.784 110.699 136.073C110.699 136.365 110.445 136.601 110.138 136.604C109.83 136.601 109.576 136.365 109.576 136.073ZM112.514 138.898V141.312H111.542V137.189H112.469V137.888H112.522C112.708 137.428 113.129 137.136 113.745 137.136C114.599 137.136 115.161 137.698 115.157 138.685V141.312H114.193V138.837C114.193 138.283 113.893 137.952 113.388 137.956C112.875 137.952 112.514 138.298 112.514 138.898ZM116.083 141.312V137.189H117.055V141.312H116.083ZM116.015 136.073C116.015 135.784 116.269 135.549 116.577 135.549C116.885 135.549 117.139 135.784 117.139 136.073C117.139 136.365 116.885 136.601 116.577 136.604C116.269 136.601 116.015 136.365 116.015 136.073ZM120.321 138.366C120.26 138.055 120.002 137.854 119.592 137.857C119.178 137.854 118.874 138.062 118.878 138.343C118.874 138.556 119.045 138.715 119.463 138.814L120.161 138.958C120.94 139.129 121.319 139.49 121.323 140.082C121.319 140.857 120.64 141.396 119.561 141.396C118.513 141.396 117.895 140.925 117.792 140.135H118.779C118.836 140.489 119.11 140.663 119.561 140.659C120.028 140.663 120.332 140.473 120.336 140.166C120.332 139.927 120.146 139.775 119.736 139.687L119.075 139.543C118.308 139.387 117.91 138.985 117.914 138.397C117.91 137.633 118.57 137.136 119.577 137.136C120.56 137.136 121.167 137.618 121.24 138.366H120.321ZM124.118 137.189V137.933H123.305V140.075C123.305 140.47 123.503 140.549 123.746 140.553C123.859 140.557 124.049 140.546 124.171 140.538V141.328C124.057 141.347 123.871 141.369 123.624 141.366C122.895 141.369 122.333 141.009 122.341 140.234V137.933H121.748V137.189H122.341V136.202H123.305V137.189H124.118ZM124.862 141.312V137.189H125.803V137.873H125.849C125.997 137.398 126.392 137.128 126.867 137.128C126.973 137.128 127.125 137.14 127.216 137.151V138.047C127.129 138.017 126.927 137.99 126.768 137.986C126.229 137.99 125.834 138.362 125.834 138.883V141.312H124.862ZM127.527 140.151C127.527 139.224 128.298 138.955 129.061 138.905C129.35 138.883 129.938 138.856 130.12 138.848L130.117 138.518C130.117 138.108 129.855 137.873 129.373 137.873C128.94 137.873 128.674 138.07 128.598 138.366H127.664C127.732 137.664 128.363 137.136 129.395 137.136C130.177 137.136 131.081 137.459 131.081 138.556V141.312H130.155V140.743H130.124C129.942 141.092 129.559 141.396 128.909 141.396C128.123 141.396 127.527 140.967 127.527 140.151ZM128.461 140.143C128.461 140.5 128.754 140.682 129.16 140.682C129.748 140.682 130.124 140.295 130.124 139.832L130.12 139.494C129.946 139.501 129.407 139.536 129.213 139.551C128.754 139.589 128.461 139.782 128.461 140.143ZM134.05 137.189V137.933H133.238V140.075C133.238 140.47 133.435 140.549 133.678 140.553C133.792 140.557 133.982 140.546 134.103 140.538V141.328C133.99 141.347 133.803 141.369 133.557 141.366C132.828 141.369 132.266 141.009 132.273 140.234V137.933H131.681V137.189H132.273V136.202H133.238V137.189H134.05ZM136.549 141.396C135.345 141.396 134.574 140.542 134.574 139.27C134.574 137.986 135.345 137.136 136.549 137.136C137.756 137.136 138.527 137.986 138.523 139.27C138.527 140.542 137.756 141.396 136.549 141.396ZM135.554 139.262C135.554 140.018 135.884 140.621 136.556 140.621C137.217 140.621 137.547 140.018 137.543 139.262C137.547 138.507 137.217 137.899 136.556 137.903C135.884 137.899 135.554 138.507 135.554 139.262ZM139.275 141.312V137.189H140.216V137.873H140.262C140.41 137.398 140.805 137.128 141.28 137.128C141.386 137.128 141.538 137.14 141.629 137.151V138.047C141.541 138.017 141.34 137.99 141.181 137.986C140.642 137.99 140.247 138.362 140.247 138.883V141.312H139.275Z" fill="white"/>
</g>
<path d="M199.522 141.312H198.633L200.608 135.815H201.572L203.554 141.312H202.665L202.164 139.862H200.023L199.522 141.312ZM200.262 139.163H201.921L201.109 136.817H201.071L200.262 139.163ZM204.184 142.862V137.189H204.974V137.857H205.042C205.187 137.599 205.464 137.136 206.227 137.136C207.226 137.136 207.958 137.918 207.958 139.262C207.958 140.591 207.233 141.392 206.235 141.396C205.487 141.392 205.19 140.937 205.042 140.667H204.997V142.862H204.184ZM204.982 139.247C204.982 140.113 205.361 140.701 206.052 140.705C206.766 140.701 207.138 140.075 207.138 139.247C207.138 138.434 206.777 137.823 206.052 137.827C205.354 137.823 204.982 138.389 204.982 139.247ZM208.763 142.862V137.189H209.553V137.857H209.621C209.766 137.599 210.043 137.136 210.806 137.136C211.805 137.136 212.537 137.918 212.537 139.262C212.537 140.591 211.812 141.392 210.814 141.396C210.066 141.392 209.769 140.937 209.621 140.667H209.576V142.862H208.763ZM209.561 139.247C209.561 140.113 209.94 140.701 210.631 140.705C211.345 140.701 211.717 140.075 211.717 139.247C211.717 138.434 211.357 137.823 210.631 137.827C209.933 137.823 209.561 138.389 209.561 139.247ZM214.155 135.815V141.312H213.342V135.815H214.155ZM215.142 141.312V137.189H215.955V141.312H215.142ZM215.036 136.073C215.039 135.807 215.271 135.594 215.552 135.594C215.829 135.594 216.061 135.807 216.061 136.073C216.061 136.339 215.829 136.555 215.552 136.551C215.271 136.555 215.039 136.339 215.036 136.073ZM218.688 141.396C217.485 141.396 216.756 140.511 216.759 139.27C216.756 138.013 217.511 137.136 218.673 137.136C219.615 137.136 220.294 137.69 220.382 138.526H219.592C219.508 138.138 219.201 137.816 218.688 137.812C218.02 137.816 217.572 138.37 217.572 139.247C217.572 140.151 218.009 140.709 218.688 140.705C219.148 140.709 219.489 140.451 219.592 140.006H220.382C220.294 140.808 219.66 141.396 218.688 141.396ZM220.959 140.151C220.955 139.209 221.756 138.966 222.5 138.913C222.774 138.898 223.393 138.864 223.582 138.856L223.579 138.526C223.582 138.059 223.294 137.789 222.743 137.789C222.265 137.789 221.976 138.009 221.893 138.313H221.088C221.16 137.63 221.798 137.136 222.774 137.136C223.431 137.136 224.387 137.375 224.391 138.571V141.312H223.601V140.751H223.571C223.412 141.058 223.032 141.404 222.348 141.404C221.566 141.404 220.955 140.956 220.959 140.151ZM221.749 140.158C221.749 140.553 222.075 140.754 222.531 140.758C223.191 140.754 223.586 140.314 223.586 139.824L223.582 139.448C223.396 139.46 222.808 139.501 222.614 139.513C222.083 139.551 221.749 139.752 221.749 140.158ZM226.183 138.867V141.312H225.371V137.189H226.153V137.865H226.199C226.392 137.421 226.798 137.136 227.414 137.136C228.26 137.136 228.822 137.671 228.818 138.693V141.312H228.013V138.791C228.01 138.191 227.687 137.835 227.14 137.835C226.582 137.835 226.183 138.21 226.183 138.867ZM231.734 137.189V137.835H230.891V140.098C230.895 140.565 231.123 140.648 231.385 140.652C231.503 140.652 231.681 140.64 231.795 140.629V141.335C231.685 141.35 231.51 141.366 231.286 141.366C230.652 141.366 230.079 141.016 230.087 140.265V137.835H229.479V137.189H230.087V136.202H230.891V137.189H231.734ZM236.518 135.556L234.749 142.14H234.028L235.797 135.556H236.518ZM242.077 137.265C242.024 136.752 241.576 136.46 240.946 136.46C240.274 136.46 239.848 136.806 239.844 137.273C239.844 137.793 240.41 137.998 240.847 138.1L241.378 138.245C242.081 138.415 242.962 138.799 242.966 139.794C242.962 140.724 242.221 141.404 240.923 141.404C239.693 141.404 238.918 140.789 238.865 139.786H239.7C239.75 140.386 240.281 140.671 240.923 140.675C241.625 140.671 242.134 140.318 242.138 139.779C242.134 139.3 241.678 139.107 241.097 138.951L240.444 138.776C239.56 138.533 239.013 138.085 239.009 137.318C239.013 136.369 239.856 135.739 240.968 135.739C242.085 135.739 242.863 136.377 242.89 137.265H242.077ZM245.722 137.189V137.835H244.879V140.098C244.883 140.565 245.111 140.648 245.373 140.652C245.49 140.652 245.669 140.64 245.783 140.629V141.335C245.673 141.35 245.498 141.366 245.274 141.366C244.64 141.366 244.067 141.016 244.074 140.265V137.835H243.467V137.189H244.074V136.202H244.879V137.189H245.722ZM246.322 140.151C246.318 139.209 247.119 138.966 247.863 138.913C248.137 138.898 248.756 138.864 248.946 138.856L248.942 138.526C248.946 138.059 248.657 137.789 248.106 137.789C247.628 137.789 247.34 138.009 247.256 138.313H246.451C246.523 137.63 247.161 137.136 248.137 137.136C248.794 137.136 249.751 137.375 249.754 138.571V141.312H248.965V140.751H248.934C248.775 141.058 248.395 141.404 247.712 141.404C246.929 141.404 246.318 140.956 246.322 140.151ZM247.112 140.158C247.112 140.553 247.438 140.754 247.894 140.758C248.555 140.754 248.949 140.314 248.949 139.824L248.946 139.448C248.76 139.46 248.171 139.501 247.977 139.513C247.446 139.551 247.112 139.752 247.112 140.158ZM252.701 137.189V137.835H251.812V141.312H251V137.835H250.362V137.189H251V136.711C251.003 135.974 251.474 135.556 252.23 135.556C252.424 135.556 252.625 135.579 252.784 135.61V136.285C252.632 136.263 252.515 136.255 252.443 136.255C252.013 136.255 251.812 136.43 251.812 136.832V137.189H252.701ZM255.404 137.189V137.835H254.516V141.312H253.703V137.835H253.065V137.189H253.703V136.711C253.707 135.974 254.178 135.556 254.933 135.556C255.127 135.556 255.328 135.579 255.488 135.61V136.285C255.336 136.263 255.218 136.255 255.146 136.255C254.717 136.255 254.516 136.43 254.516 136.832V137.189H255.404Z" fill="#6E7375"/>
<rect x="60.368" y="169.303" width="222.264" height="100.648" rx="3.24" fill="white"/>
<path d="M79.6434 187.164V197.472H78.3677V187.164H79.6434ZM71.408 191.549C71.4023 189.328 72.5357 187.916 74.0962 187.916C75.6396 187.916 76.7787 189.328 76.7844 191.549C76.7787 193.788 75.6396 195.194 74.0962 195.194C72.5357 195.194 71.4023 193.788 71.408 191.549ZM72.6268 191.549C72.6268 193.133 73.2248 194.05 74.0962 194.055C74.9619 194.05 75.5542 193.133 75.5542 191.549C75.5542 189.977 74.9619 189.055 74.0962 189.055C73.2248 189.055 72.6268 189.977 72.6268 191.549ZM90.5443 192.483V193.497H81.1584V192.483H90.5443ZM82.1266 189.579C82.1266 188.274 83.5903 187.489 85.8399 187.494C88.0839 187.489 89.5476 188.274 89.5533 189.579C89.5476 190.889 88.0839 191.686 85.8399 191.686C83.5903 191.686 82.1266 190.889 82.1266 189.579ZM82.3202 197.256V194.26H83.5846V196.231H89.4849V197.256H82.3202ZM83.4479 189.579C83.4365 190.279 84.3421 190.655 85.8399 190.649C87.3435 190.655 88.2434 190.279 88.2434 189.579C88.2434 188.901 87.3435 188.508 85.8399 188.508C84.3421 188.508 83.4365 188.901 83.4479 189.579ZM100.625 192.905V193.93H96.5357V197.45H95.2828V193.93H91.2391V192.905H100.625ZM91.7289 191.219C93.7507 190.963 95.1062 189.875 95.1973 188.747H92.1048V187.745H99.7593V188.747H96.6667C96.7521 189.875 98.0962 190.963 100.135 191.219L99.6795 192.21C97.9254 191.959 96.5585 191.156 95.932 190.046C95.2998 191.156 93.9444 191.959 92.2073 192.21L91.7289 191.219Z" fill="#131214"/>
<rect x="229.304" y="182.264" width="42.96" height="20.368" rx="2.592" fill="#FDF3E2"/>
<path d="M238.63 190.1C238.626 191.042 239.28 191.935 240.407 192.313L240.012 192.922C239.177 192.634 238.565 192.058 238.244 191.334C237.923 192.128 237.281 192.757 236.417 193.062L235.998 192.453C237.15 192.062 237.845 191.108 237.849 190.092V189.894H236.228V189.261H240.218V189.894H238.63V190.1ZM236.977 194.213V193.58H241.847V196.147H241.065V194.213H236.977ZM241.065 193.218V188.776H241.847V190.668H242.916V191.326H241.847V193.218H241.065ZM245.952 189.878C245.948 190.91 246.618 191.832 247.737 192.198L247.309 192.807C246.499 192.51 245.903 191.943 245.582 191.202C245.265 192.046 244.623 192.708 243.731 193.029L243.311 192.403C244.488 192 245.17 191.017 245.179 189.911V189.187H245.952V189.878ZM244.521 194.74C244.516 193.847 245.462 193.329 247.013 193.333C248.556 193.329 249.502 193.847 249.506 194.74C249.502 195.628 248.556 196.134 247.013 196.13C245.462 196.134 244.516 195.628 244.521 194.74ZM245.294 194.74C245.29 195.229 245.931 195.517 247.013 195.513C248.087 195.517 248.728 195.229 248.733 194.74C248.728 194.234 248.087 193.942 247.013 193.942C245.931 193.942 245.29 194.234 245.294 194.74ZM247.145 190.914V190.273H248.7V188.776H249.481V193.127H248.7V190.914H247.145ZM257.362 194.575V195.225H250.616V194.575H252.229V192.65C251.624 192.317 251.254 191.791 251.258 191.128C251.254 189.968 252.393 189.207 253.973 189.203C255.556 189.207 256.696 189.968 256.696 191.128C256.696 191.778 256.342 192.301 255.75 192.634V194.575H257.362ZM252.015 191.128C252.015 191.918 252.817 192.432 253.973 192.436C255.12 192.432 255.935 191.918 255.939 191.128C255.935 190.334 255.12 189.829 253.973 189.829C252.817 189.829 252.015 190.334 252.015 191.128ZM253.002 194.575H254.96V192.938C254.66 193.008 254.327 193.045 253.973 193.045C253.627 193.045 253.298 193.008 253.002 192.938V194.575ZM260.48 190.347C260.48 191.215 261.192 192.025 262.315 192.338L261.944 192.946C261.089 192.704 260.447 192.177 260.11 191.494C259.789 192.255 259.147 192.86 258.267 193.136L257.897 192.535C259.016 192.177 259.707 191.297 259.707 190.347V190.256H258.103V189.631H259.707V188.743H260.488V189.631H262.084V190.256H260.48V190.347ZM259.082 194.764C259.077 193.901 260.028 193.411 261.574 193.407C263.117 193.411 264.063 193.901 264.067 194.764C264.063 195.632 263.117 196.134 261.574 196.13C260.028 196.134 259.077 195.632 259.082 194.764ZM259.855 194.764C259.851 195.242 260.492 195.525 261.574 195.53C262.656 195.525 263.289 195.242 263.294 194.764C263.289 194.287 262.656 194.016 261.574 194.016C260.492 194.016 259.851 194.287 259.855 194.764ZM261.854 191.482V190.84H263.261V188.776H264.042V193.243H263.261V191.482H261.854Z" fill="#EE772F"/>
<path d="M73.7393 246.984V253.398H72.7559V247.959H72.7205L71.1878 248.96V248.03L72.7825 246.984H73.7393ZM77.602 253.487C76.118 253.487 75.2454 252.291 75.2454 250.191C75.2454 248.105 76.1269 246.896 77.602 246.896C79.0726 246.896 79.9541 248.105 79.9586 250.191C79.9541 252.291 79.0859 253.487 77.602 253.487ZM76.2199 250.191C76.2155 251.79 76.7338 252.645 77.602 252.645C78.4658 252.645 78.984 251.79 78.984 250.191C78.984 248.597 78.4613 247.724 77.602 247.72C76.7382 247.724 76.2199 248.597 76.2199 250.191ZM81.5976 252.575C81.252 252.57 80.9641 252.291 80.9685 251.946C80.9641 251.6 81.252 251.316 81.5976 251.316C81.9386 251.316 82.2221 251.6 82.2266 251.946C82.2221 252.291 81.9386 252.57 81.5976 252.575ZM80.9685 248.446C80.9641 248.101 81.252 247.817 81.5976 247.817C81.9386 247.817 82.2221 248.101 82.2266 248.446C82.2221 248.792 81.9386 249.071 81.5976 249.075C81.252 249.071 80.9641 248.792 80.9685 248.446ZM85.7969 246.984V253.398H84.8135V247.959H84.7781L83.2454 248.96V248.03L84.8401 246.984H85.7969ZM89.8634 246.984V253.398H88.88V247.959H88.8445L87.3119 248.96V248.03L88.9065 246.984H89.8634ZM94.3462 253.398H93.3096L95.6131 246.984H96.7382L99.0505 253.398H98.014L97.4293 251.706H94.9309L94.3462 253.398ZM95.21 250.891H97.1458L96.1978 248.154H96.1535L95.21 250.891ZM99.8656 246.984H101.053L103.082 251.954H103.161L105.19 246.984H106.377V253.398H105.447V248.765H105.385L103.507 253.39H102.736L100.849 248.756H100.796V253.398H99.8656V246.984Z" fill="#A5A5A5"/>
<rect x="60.368" y="276.432" width="222.264" height="100.648" rx="3.24" fill="white"/>
<path d="M79.6434 294.293V304.601H78.3677V294.293H79.6434ZM71.408 298.678C71.4023 296.457 72.5357 295.045 74.0962 295.045C75.6396 295.045 76.7787 296.457 76.7844 298.678C76.7787 300.916 75.6396 302.323 74.0962 302.323C72.5357 302.323 71.4023 300.916 71.408 298.678ZM72.6268 298.678C72.6268 300.262 73.2248 301.178 74.0962 301.184C74.9619 301.178 75.5542 300.262 75.5542 298.678C75.5542 297.106 74.9619 296.184 74.0962 296.184C73.2248 296.184 72.6268 297.106 72.6268 298.678ZM90.5443 299.612V300.626H81.1584V299.612H90.5443ZM82.1266 296.708C82.1266 295.403 83.5903 294.617 85.8399 294.623C88.0839 294.617 89.5476 295.403 89.5533 296.708C89.5476 298.018 88.0839 298.815 85.8399 298.815C83.5903 298.815 82.1266 298.018 82.1266 296.708ZM82.3202 304.385V301.389H83.5846V303.36H89.4849V304.385H82.3202ZM83.4479 296.708C83.4365 297.408 84.3421 297.784 85.8399 297.778C87.3435 297.784 88.2434 297.408 88.2434 296.708C88.2434 296.03 87.3435 295.637 85.8399 295.637C84.3421 295.637 83.4365 296.03 83.4479 296.708ZM100.625 300.034V301.059H96.5357V304.579H95.2828V301.059H91.2391V300.034H100.625ZM91.7289 298.348C93.7507 298.092 95.1062 297.004 95.1973 295.876H92.1048V294.874H99.7593V295.876H96.6667C96.7521 297.004 98.0962 298.092 100.135 298.348L99.6795 299.339C97.9254 299.088 96.5585 298.285 95.932 297.175C95.2998 298.285 93.9444 299.088 92.2073 299.339L91.7289 298.348Z" fill="#131214"/>
<rect x="229.304" y="289.393" width="42.96" height="20.368" rx="2.592" fill="#FDF3E2"/>
<path d="M238.63 297.229C238.626 298.171 239.28 299.063 240.407 299.442L240.012 300.051C239.177 299.763 238.565 299.187 238.244 298.463C237.923 299.257 237.281 299.886 236.417 300.19L235.998 299.582C237.15 299.191 237.845 298.237 237.849 297.221V297.023H236.228V296.39H240.218V297.023H238.63V297.229ZM236.977 301.342V300.709H241.847V303.275H241.065V301.342H236.977ZM241.065 300.347V295.904H241.847V297.797H242.916V298.455H241.847V300.347H241.065ZM245.952 297.007C245.948 298.039 246.618 298.961 247.737 299.327L247.309 299.935C246.499 299.639 245.903 299.072 245.582 298.331C245.265 299.174 244.623 299.837 243.731 300.158L243.311 299.532C244.488 299.129 245.17 298.146 245.179 297.04V296.316H245.952V297.007ZM244.521 301.869C244.516 300.976 245.462 300.458 247.013 300.462C248.556 300.458 249.502 300.976 249.506 301.869C249.502 302.757 248.556 303.263 247.013 303.259C245.462 303.263 244.516 302.757 244.521 301.869ZM245.294 301.869C245.29 302.358 245.931 302.646 247.013 302.642C248.087 302.646 248.728 302.358 248.733 301.869C248.728 301.363 248.087 301.071 247.013 301.071C245.931 301.071 245.29 301.363 245.294 301.869ZM247.145 298.043V297.402H248.7V295.904H249.481V300.256H248.7V298.043H247.145ZM257.362 301.704V302.354H250.616V301.704H252.229V299.779C251.624 299.446 251.254 298.919 251.258 298.257C251.254 297.097 252.393 296.336 253.973 296.332C255.556 296.336 256.696 297.097 256.696 298.257C256.696 298.907 256.342 299.43 255.75 299.763V301.704H257.362ZM252.015 298.257C252.015 299.047 252.817 299.561 253.973 299.565C255.12 299.561 255.935 299.047 255.939 298.257C255.935 297.463 255.12 296.957 253.973 296.957C252.817 296.957 252.015 297.463 252.015 298.257ZM253.002 301.704H254.96V300.067C254.66 300.137 254.327 300.174 253.973 300.174C253.627 300.174 253.298 300.137 253.002 300.067V301.704ZM260.48 297.476C260.48 298.344 261.192 299.154 262.315 299.467L261.944 300.075C261.089 299.833 260.447 299.306 260.11 298.623C259.789 299.384 259.147 299.989 258.267 300.265L257.897 299.664C259.016 299.306 259.707 298.426 259.707 297.476V297.385H258.103V296.76H259.707V295.872H260.488V296.76H262.084V297.385H260.48V297.476ZM259.082 301.893C259.077 301.03 260.028 300.54 261.574 300.536C263.117 300.54 264.063 301.03 264.067 301.893C264.063 302.761 263.117 303.263 261.574 303.259C260.028 303.263 259.077 302.761 259.082 301.893ZM259.855 301.893C259.851 302.371 260.492 302.654 261.574 302.658C262.656 302.654 263.289 302.371 263.294 301.893C263.289 301.416 262.656 301.145 261.574 301.145C260.492 301.145 259.851 301.416 259.855 301.893ZM261.854 298.611V297.969H263.261V295.904H264.042V300.371H263.261V298.611H261.854Z" fill="#EE772F"/>
<path d="M78.0355 319.571V328.028H77.2856V319.571H78.0355ZM71.3909 323.168C71.3957 321.374 72.2879 320.23 73.5456 320.226C74.7986 320.23 75.7051 321.374 75.7004 323.168C75.7051 324.967 74.7986 326.106 73.5456 326.101C72.2879 326.106 71.3957 324.967 71.3909 323.168ZM72.1123 323.168C72.1123 324.54 72.7008 325.441 73.5456 325.437C74.3952 325.441 74.979 324.54 74.979 323.168C74.979 321.796 74.3952 320.895 73.5456 320.89C72.7008 320.895 72.1123 321.796 72.1123 323.168ZM87.1669 324.022V324.63H79.4783V324.022H87.1669ZM80.3326 321.545C80.3326 320.487 81.4906 319.865 83.3226 319.874C85.1356 319.865 86.2984 320.487 86.3031 321.545C86.2984 322.594 85.1356 323.225 83.3226 323.225C81.4906 323.225 80.3326 322.594 80.3326 321.545ZM80.4749 327.829V325.37H81.2248V327.202H86.3126V327.829H80.4749ZM81.1014 321.545C81.0967 322.214 81.9605 322.618 83.3226 322.618C84.6752 322.618 85.539 322.214 85.5438 321.545C85.539 320.885 84.6752 320.472 83.3226 320.472C81.9605 320.472 81.0967 320.885 81.1014 321.545ZM92.1408 320.767C92.1361 321.896 93.6406 322.855 95.1119 323.073L94.8366 323.662C93.522 323.439 92.2358 322.736 91.7232 321.721C91.2106 322.736 89.9244 323.439 88.6287 323.662L88.3345 323.073C89.801 322.855 91.3008 321.896 91.3055 320.767V320.71H88.6003V320.102H94.8366V320.71H92.1408V320.767ZM87.8789 325V324.383H95.5675V325H92.0744V328.009H91.3435V325H87.8789ZM103.237 319.571V324.364H102.506V319.571H103.237ZM96.811 323.719V320.074H97.5609V323.083C98.9562 323.073 100.204 322.978 101.548 322.693L101.662 323.32C100.233 323.609 98.9515 323.709 97.4944 323.719H96.811ZM97.7602 327.895V324.753H103.237V327.895H97.7602ZM98.4911 327.288H102.506V325.351H98.4911V327.288ZM111.638 319.571V328.028H110.888V319.571H111.638ZM104.993 323.168C104.998 321.374 105.89 320.23 107.148 320.226C108.401 320.23 109.307 321.374 109.303 323.168C109.307 324.967 108.401 326.106 107.148 326.101C105.89 326.106 104.998 324.967 104.993 323.168ZM105.715 323.168C105.715 324.54 106.303 325.441 107.148 325.437C107.998 325.441 108.581 324.54 108.581 323.168C108.581 321.796 107.998 320.895 107.148 320.89C106.303 320.895 105.715 321.796 105.715 323.168ZM122.487 319.58V325.75H121.747V319.58H122.487ZM115.719 322.238C115.715 321.023 116.669 320.173 117.931 320.169C119.194 320.173 120.138 321.023 120.143 322.238C120.138 323.467 119.194 324.321 117.931 324.317C116.669 324.321 115.715 323.467 115.719 322.238ZM116.45 322.238C116.441 323.078 117.077 323.662 117.931 323.662C118.771 323.662 119.412 323.078 119.412 322.238C119.412 321.412 118.771 320.824 117.931 320.824C117.077 320.824 116.441 321.412 116.45 322.238ZM117.039 327.829V325.123H117.779V327.202H122.753V327.829H117.039ZM126.749 321.839C126.749 323.325 127.732 324.858 128.933 325.446L128.477 326.044C127.547 325.56 126.768 324.559 126.393 323.386C126.018 324.63 125.221 325.698 124.272 326.206L123.797 325.608C125.031 325 126.009 323.382 126.018 321.839V320.301H126.749V321.839ZM129.711 328.009V319.571H130.451V322.997H131.866V323.643H130.451V328.009H129.711ZM137.058 320.216V320.833H136.194V323.534C136.583 323.505 136.968 323.472 137.333 323.424L137.371 323.994C135.724 324.245 133.807 324.274 132.435 324.269L132.34 323.643C132.677 323.643 133.043 323.643 133.432 323.638V320.833H132.578V320.216H137.058ZM133.688 326.471C133.683 325.508 134.751 324.957 136.517 324.962C138.282 324.957 139.345 325.508 139.345 326.471C139.345 327.435 138.282 327.99 136.517 327.99C134.751 327.99 133.683 327.435 133.688 326.471ZM134.153 323.624C134.585 323.614 135.031 323.6 135.473 323.576V320.833H134.153V323.624ZM134.429 326.471C134.424 327.06 135.216 327.402 136.517 327.402C137.812 327.402 138.605 327.06 138.605 326.471C138.605 325.892 137.812 325.541 136.517 325.541C135.216 325.541 134.424 325.892 134.429 326.471ZM137.143 323.216V322.599H138.567V321.706H137.143V321.089H138.567V319.571H139.317V324.782H138.567V323.216H137.143ZM147.252 319.571V323.007H148.619V323.633H147.252V328.009H146.512V319.571H147.252ZM140.779 325.816C142.957 324.734 144.144 323.106 144.315 321.108H141.168V320.482H145.069C145.065 322.869 143.944 325.048 141.196 326.405L140.779 325.816ZM154.419 321.137C154.424 322.262 155.25 323.287 156.498 323.719L156.118 324.298C155.155 323.956 154.419 323.268 154.058 322.394C153.698 323.353 152.924 324.098 151.932 324.459L151.533 323.88C152.796 323.434 153.679 322.347 153.688 321.137V320.776H151.761V320.169H156.318V320.776H154.419V321.137ZM152.635 325.712V325.104H158.159V328.009H157.419V325.712H152.635ZM157.419 324.658V319.571H158.159V321.801H159.431V322.437H158.159V324.658H157.419ZM162.867 320.899C162.858 322.105 163.717 323.163 164.955 323.586L164.538 324.165C163.608 323.818 162.877 323.13 162.511 322.243C162.15 323.254 161.382 324.037 160.361 324.421L159.953 323.814C161.253 323.358 162.117 322.238 162.127 320.928V320.055H162.867V320.899ZM161.329 326.414C161.325 325.399 162.402 324.815 164.158 324.82C165.909 324.815 166.987 325.399 166.987 326.414C166.987 327.421 165.909 327.99 164.158 327.99C162.402 327.99 161.325 327.421 161.329 326.414ZM162.07 326.414C162.065 327.027 162.862 327.397 164.158 327.392C165.449 327.397 166.246 327.027 166.246 326.414C166.246 325.783 165.449 325.408 164.158 325.408C162.862 325.408 162.065 325.783 162.07 326.414ZM164.329 322.001V321.384H166.208V319.571H166.958V324.573H166.208V322.001H164.329ZM172.207 319.722C174.082 319.722 175.183 320.24 175.188 321.175C175.183 322.133 174.082 322.651 172.207 322.656C170.323 322.651 169.217 322.133 169.217 321.175C169.217 320.24 170.323 319.722 172.207 319.722ZM168.363 323.833V323.225H176.052V323.833H168.363ZM169.293 325.133V324.563H175.065V326.452H170.053V327.326H175.321V327.914H169.312V325.902H174.334V325.133H169.293ZM169.996 321.175C169.986 321.763 170.807 322.086 172.207 322.086C173.608 322.086 174.424 321.763 174.429 321.175C174.424 320.619 173.608 320.287 172.207 320.282C170.807 320.287 169.986 320.619 169.996 321.175ZM186.93 326.301V326.927H179.203V326.301H181.121V324.027C180.399 323.652 179.963 323.045 179.963 322.276C179.963 320.971 181.244 320.112 183.048 320.102C184.851 320.112 186.132 320.971 186.132 322.276C186.132 323.03 185.71 323.628 185.012 324.003V326.301H186.93ZM180.684 322.276C180.679 323.22 181.662 323.852 183.048 323.852C184.419 323.852 185.411 323.22 185.411 322.276C185.411 321.331 184.419 320.71 183.048 320.719C181.662 320.71 180.679 321.331 180.684 322.276ZM181.851 326.301H184.263V324.293C183.897 324.388 183.489 324.44 183.048 324.44C182.616 324.44 182.212 324.393 181.851 324.298V326.301ZM190.48 321.384C190.485 322.432 191.391 323.382 192.635 323.747L192.274 324.326C191.296 324.032 190.518 323.396 190.133 322.565C189.773 323.486 188.999 324.212 187.993 324.544L187.632 323.975C188.871 323.557 189.744 322.527 189.749 321.384V321.203H187.841V320.605H189.749V319.533H190.499V320.605H192.388V321.203H190.48V321.384ZM188.971 326.452C188.966 325.47 190.043 324.91 191.799 324.915C193.551 324.91 194.628 325.47 194.628 326.452C194.628 327.43 193.551 327.99 191.799 327.99C190.043 327.99 188.966 327.43 188.971 326.452ZM189.711 326.452C189.706 327.041 190.504 327.402 191.799 327.402C193.095 327.402 193.888 327.041 193.888 326.452C193.888 325.85 193.095 325.503 191.799 325.494C190.504 325.503 189.706 325.85 189.711 326.452ZM192.122 322.608V321.991H193.85V319.571H194.6V324.687H193.85V322.608H192.122ZM202.535 319.571V323.054H203.949V323.671H202.535V328.009H201.795V319.571H202.535ZM195.957 321.545V320.928H198.131V319.675H198.871V320.928H200.978V321.545H195.957ZM196.441 324.184C196.436 323.045 197.31 322.247 198.51 322.247C199.702 322.247 200.57 323.045 200.58 324.184C200.57 325.328 199.702 326.12 198.51 326.12C197.31 326.12 196.436 325.328 196.441 324.184ZM197.153 324.184C197.148 324.953 197.722 325.494 198.51 325.484C199.289 325.494 199.858 324.953 199.868 324.184C199.858 323.42 199.289 322.869 198.51 322.874C197.722 322.869 197.148 323.42 197.153 324.184ZM207.31 325.237C207.305 325.992 207.708 326.789 208.515 327.245C209.322 326.747 209.735 325.883 209.74 325.237V324.658H210.47V325.237C210.466 326.106 211.097 326.984 212.198 327.345L211.809 327.914C210.974 327.61 210.385 327.017 210.096 326.31C209.83 326.998 209.317 327.648 208.525 327.981C207.718 327.672 207.196 327.05 206.939 326.338C206.636 327.017 206.057 327.606 205.25 327.914L204.88 327.345C205.947 326.965 206.588 326.054 206.598 325.237V324.658H207.31V325.237ZM204.547 322.029C204.547 320.861 205.468 320.036 206.731 320.036C207.438 320.036 208.045 320.306 208.434 320.757H210.651V319.571H211.401V324.393H210.651V323.273H208.458C208.069 323.738 207.452 324.013 206.731 324.013C205.468 324.013 204.547 323.201 204.547 322.029ZM205.269 322.029C205.259 322.822 205.881 323.382 206.731 323.386C207.561 323.382 208.183 322.822 208.183 322.029C208.183 321.241 207.561 320.667 206.731 320.672C205.881 320.667 205.259 321.241 205.269 322.029ZM208.79 321.365C208.862 321.569 208.904 321.792 208.904 322.029C208.904 322.252 208.866 322.461 208.805 322.656H210.651V321.365H208.79ZM216.65 320.121C218.411 320.126 219.735 321.047 219.735 322.437C219.735 323.842 218.411 324.763 216.65 324.753C214.889 324.763 213.565 323.842 213.565 322.437C213.565 321.047 214.889 320.126 216.65 320.121ZM212.806 326.889V326.263H220.532V326.889H212.806ZM214.277 322.437C214.267 323.462 215.288 324.146 216.65 324.146C218.002 324.146 219.013 323.462 219.013 322.437C219.013 321.426 218.002 320.724 216.65 320.729C215.288 320.724 214.267 321.426 214.277 322.437ZM228.164 319.571V328.009H227.423V319.571H228.164ZM221.757 325.835V320.406H222.488V325.19C223.778 325.18 225.107 325.081 226.522 324.782L226.626 325.418C225.126 325.731 223.793 325.835 222.44 325.835H221.757ZM234.903 321.137C234.908 322.262 235.734 323.287 236.982 323.719L236.602 324.298C235.639 323.956 234.903 323.268 234.543 322.394C234.182 323.353 233.408 324.098 232.416 324.459L232.018 323.88C233.28 323.434 234.163 322.347 234.172 321.137V320.776H232.246V320.169H236.802V320.776H234.903V321.137ZM233.119 325.712V325.104H238.643V328.009H237.903V325.712H233.119ZM237.903 324.658V319.571H238.643V321.801H239.915V322.437H238.643V324.658H237.903ZM243.351 320.899C243.342 322.105 244.201 323.163 245.44 323.586L245.022 324.165C244.092 323.818 243.361 323.13 242.995 322.243C242.635 323.254 241.866 324.037 240.845 324.421L240.437 323.814C241.738 323.358 242.601 322.238 242.611 320.928V320.055H243.351V320.899ZM241.814 326.414C241.809 325.399 242.886 324.815 244.642 324.82C246.394 324.815 247.471 325.399 247.471 326.414C247.471 327.421 246.394 327.99 244.642 327.99C242.886 327.99 241.809 327.421 241.814 326.414ZM242.554 326.414C242.549 327.027 243.347 327.397 244.642 327.392C245.933 327.397 246.731 327.027 246.731 326.414C246.731 325.783 245.933 325.408 244.642 325.408C243.347 325.408 242.549 325.783 242.554 326.414ZM244.813 322.001V321.384H246.693V319.571H247.443V324.573H246.693V322.001H244.813ZM252.692 319.722C254.566 319.722 255.667 320.24 255.672 321.175C255.667 322.133 254.566 322.651 252.692 322.656C250.807 322.651 249.702 322.133 249.702 321.175C249.702 320.24 250.807 319.722 252.692 319.722ZM248.847 323.833V323.225H256.536V323.833H248.847ZM249.778 325.133V324.563H255.549V326.452H250.537V327.326H255.805V327.914H249.797V325.902H254.818V325.133H249.778ZM250.48 321.175C250.471 321.763 251.292 322.086 252.692 322.086C254.092 322.086 254.908 321.763 254.913 321.175C254.908 320.619 254.092 320.287 252.692 320.282C251.292 320.287 250.471 320.619 250.48 321.175ZM262.725 321.384C262.73 322.523 263.627 323.548 264.889 323.946L264.509 324.544C263.527 324.207 262.749 323.515 262.364 322.627C261.999 323.586 261.206 324.345 260.2 324.715L259.811 324.117C261.078 323.676 261.97 322.58 261.975 321.384V320.89H260.001V320.282H264.671V320.89H262.725V321.384ZM261.206 327.829V325.18H261.947V327.202H266.92V327.829H261.206ZM265.914 325.769V319.58H266.655V325.769H265.914ZM78.2443 334.571V339.915H77.5324V337.494H76.4028V339.611H75.7004V334.741H76.4028V336.877H77.5324V334.571H78.2443ZM71.0302 336.184V335.586H72.8337V334.637H73.5741V335.586H75.3587V336.184H71.0302ZM71.4004 338.083C71.3957 337.2 72.1408 336.635 73.2039 336.64C74.2718 336.635 75.0122 337.2 75.0169 338.083C75.0122 338.951 74.2718 339.516 73.2039 339.516C72.1408 339.516 71.3957 338.951 71.4004 338.083ZM72.0649 338.083C72.0649 338.6 72.53 338.956 73.2039 338.956C73.8779 338.956 74.343 338.6 74.343 338.083C74.343 337.546 73.8779 337.19 73.2039 337.19C72.53 337.19 72.0649 337.546 72.0649 338.083ZM72.6249 341.538C72.6154 340.589 73.6738 340.057 75.4536 340.057C77.2286 340.057 78.287 340.589 78.2917 341.538C78.287 342.463 77.2286 342.99 75.4536 342.99C73.6738 342.99 72.6154 342.463 72.6249 341.538ZM73.3653 341.538C73.3558 342.084 74.1389 342.416 75.4536 342.411C76.7635 342.416 77.5419 342.084 77.5514 341.538C77.5419 340.959 76.7635 340.636 75.4536 340.646C74.1389 340.636 73.3558 340.959 73.3653 341.538ZM83.6928 336.032V336.64H79.4593V336.032H81.2153V334.827H81.9557V336.032H83.6928ZM79.763 339.127C79.763 338.007 80.5272 337.214 81.576 337.209C82.6392 337.214 83.3985 338.007 83.408 339.127C83.3985 340.261 82.6392 341.058 81.576 341.063C80.5272 341.058 79.763 340.261 79.763 339.127ZM80.4275 339.127C80.4275 339.877 80.9068 340.413 81.576 340.408C82.25 340.413 82.7436 339.877 82.7436 339.127C82.7436 338.386 82.25 337.845 81.576 337.836C80.9068 337.845 80.4275 338.386 80.4275 339.127ZM84.1294 342.591V334.779H84.8319V338.13H85.9519V334.571H86.6639V343.009H85.9519V338.747H84.8319V342.591H84.1294ZM94.5803 335.767C94.5756 336.896 96.0801 337.855 97.5514 338.073L97.2761 338.662C95.9614 338.439 94.6753 337.736 94.1627 336.721C93.6501 337.736 92.3639 338.439 91.0682 338.662L90.774 338.073C92.2405 337.855 93.7403 336.896 93.745 335.767V335.71H91.0397V335.102H97.2761V335.71H94.5803V335.767ZM90.3183 340V339.383H98.007V340H94.5139V343.009H93.783V340H90.3183ZM101.225 336.972C101.225 338.315 101.88 339.763 103 340.427L102.573 341.006C101.756 340.513 101.173 339.611 100.878 338.581C100.57 339.706 99.9434 340.674 99.0986 341.187L98.624 340.627C99.7915 339.943 100.503 338.448 100.503 337.001V335.368H101.225V336.972ZM102.07 338.235V337.599H103.503V334.751H104.205V342.582H103.503V338.235H102.07ZM105.231 343.009V334.571H105.952V343.009H105.231ZM114.846 341.301V341.927H107.12V341.301H109.037V339.027C108.316 338.652 107.879 338.045 107.879 337.276C107.879 335.971 109.16 335.112 110.964 335.102C112.767 335.112 114.049 335.971 114.049 337.276C114.049 338.03 113.626 338.628 112.929 339.003V341.301H114.846ZM108.6 337.276C108.596 338.22 109.578 338.852 110.964 338.852C112.335 338.852 113.327 338.22 113.327 337.276C113.327 336.331 112.335 335.71 110.964 335.719C109.578 335.71 108.596 336.331 108.6 337.276ZM109.768 341.301H112.179V339.293C111.813 339.388 111.405 339.44 110.964 339.44C110.532 339.44 110.129 339.393 109.768 339.298V341.301ZM116.412 342.297C116.08 342.292 115.795 342.017 115.805 341.68C115.795 341.348 116.08 341.073 116.412 341.073C116.749 341.073 117.025 341.348 117.02 341.68C117.025 342.017 116.749 342.292 116.412 342.297Z" fill="#131214"/>
<rect width="243" height="34.992" transform="translate(50 41)" fill="white"/>
<path d="M85.9999 55.4924C87.5221 55.5032 89.039 56.4122 89.0443 59.2577C89.0443 61.9417 87.8287 63.4962 85.9138 63.4962C84.4131 63.4962 83.375 62.5603 83.2028 61.2694H84.5906C84.7305 61.888 85.2092 62.2806 85.9138 62.2806C87.0434 62.2806 87.6781 61.2855 87.6889 59.6127H87.6028C87.2101 60.2904 86.4571 60.6938 85.6018 60.6885C84.2087 60.6938 83.1329 59.6342 83.1275 58.1604C83.1275 56.6381 84.2732 55.4817 85.9999 55.4924ZM84.4938 58.1281C84.4938 58.9672 85.1177 59.6234 85.9891 59.6234C86.8551 59.6234 87.5221 58.9242 87.5167 58.1173C87.5167 57.3266 86.882 56.6274 86.0106 56.622C85.1339 56.6274 84.483 57.2944 84.4938 58.1281ZM91.0668 62.4205C90.6042 62.4205 90.2223 62.0439 90.2277 61.5814C90.2223 61.1295 90.6042 60.7584 91.0668 60.753C91.5133 60.7584 91.8952 61.1295 91.8952 61.5814C91.8952 62.0439 91.5133 62.4205 91.0668 62.4205ZM90.2277 57.4073C90.2223 56.9555 90.6042 56.5844 91.0668 56.579C91.5133 56.5844 91.8952 56.9555 91.8952 57.4073C91.8952 57.8699 91.5133 58.2464 91.0668 58.2464C90.6042 58.2464 90.2223 57.8699 90.2277 57.4073ZM93.0678 61.9364V60.8176L96.435 55.6H98.1777V60.7853H99.1997V61.9364H98.1777V63.3887H96.8438V61.9364H93.0678ZM94.4986 60.7853H96.8653V57.1922H96.7792L94.4986 60.7315V60.7853ZM103.374 55.6V63.3887H101.964V56.9663H101.921L100.103 58.1281V56.8479L102.029 55.6H103.374Z" fill="#131214"/>
<rect opacity="0.35" x="256.994" y="55.7322" width="15.552" height="7.776" rx="2.4624" stroke="#131214" stroke-width="0.648"/>
<path opacity="0.4" d="M273.518 58.5059V61.1468C274.039 60.9231 274.379 60.4028 274.379 59.8263C274.379 59.2498 274.039 58.7295 273.518 58.5059Z" fill="#131214"/>
<rect x="257.966" y="56.7051" width="13.608" height="5.832" rx="1.62" fill="#131214"/>
<path fill-rule="evenodd" clip-rule="evenodd" d="M246.477 57.4204C248.089 57.4205 249.639 58.018 250.807 59.0894C250.895 59.1722 251.035 59.1711 251.122 59.0871L251.963 58.2684C252.007 58.2258 252.031 58.168 252.031 58.108C252.03 58.0479 252.005 57.9905 251.961 57.9484C248.895 55.1136 244.059 55.1136 240.993 57.9484C240.949 57.9905 240.923 58.0479 240.923 58.1079C240.923 58.168 240.947 58.2257 240.991 58.2684L241.832 59.0871C241.918 59.1713 242.059 59.1723 242.147 59.0894C243.315 58.0179 244.865 57.4204 246.477 57.4204ZM246.475 60.1552C247.355 60.1551 248.203 60.4867 248.855 61.0855C248.943 61.1705 249.082 61.1687 249.168 61.0814L250.002 60.2265C250.046 60.1816 250.07 60.1208 250.07 60.0576C250.069 59.9944 250.043 59.9341 249.999 59.8901C248.013 58.0169 244.939 58.0169 242.953 59.8901C242.908 59.9341 242.883 59.9944 242.882 60.0576C242.882 60.1209 242.906 60.1817 242.95 60.2265L243.784 61.0814C243.87 61.1687 244.009 61.1705 244.097 61.0855C244.749 60.4871 245.596 60.1555 246.475 60.1552ZM248.111 61.9654C248.112 62.0336 248.088 62.0995 248.045 62.1473L246.634 63.738C246.593 63.7847 246.536 63.811 246.477 63.811C246.419 63.811 246.362 63.7847 246.321 63.738L244.91 62.1473C244.867 62.0994 244.843 62.0336 244.844 61.9653C244.845 61.8971 244.872 61.8324 244.917 61.7866C245.818 60.9352 247.137 60.9352 248.038 61.7866C248.083 61.8324 248.11 61.8971 248.111 61.9654Z" fill="#131214"/>
<path fill-rule="evenodd" clip-rule="evenodd" d="M236.064 56.4967C236.064 56.0864 235.754 55.7539 235.372 55.7539H234.681C234.299 55.7539 233.99 56.0864 233.99 56.4967V62.9339C233.99 63.3441 234.299 63.6766 234.681 63.6766H235.372C235.754 63.6766 236.064 63.3441 236.064 62.9339V56.4967ZM231.246 57.3384H231.937C232.319 57.3384 232.629 57.679 232.629 58.099V62.916C232.629 63.3361 232.319 63.6766 231.937 63.6766H231.246C230.865 63.6766 230.555 63.3361 230.555 62.916V58.099C230.555 57.679 230.865 57.3384 231.246 57.3384ZM228.439 59.055H227.748C227.366 59.055 227.057 59.3999 227.057 59.8253V62.9064C227.057 63.3318 227.366 63.6766 227.748 63.6766H228.439C228.821 63.6766 229.13 63.3318 229.13 62.9064V59.8253C229.13 59.3999 228.821 59.055 228.439 59.055ZM225.004 60.6396H224.313C223.931 60.6396 223.622 60.9795 223.622 61.3988V62.9174C223.622 63.3367 223.931 63.6766 224.313 63.6766H225.004C225.386 63.6766 225.696 63.3367 225.696 62.9174V61.3988C225.696 60.9795 225.386 60.6396 225.004 60.6396Z" fill="#131214"/>
<g opacity="0.7">
<rect width="243" height="526.176" transform="translate(50 41)" fill="black" fill-opacity="0.7"/>
</g>
<rect x="60.368" y="181.916" width="222.264" height="244.344" rx="10.368" fill="white"/>
<path d="M81.2938 198.573V206.837H79.8763V198.573H81.2938ZM71.9662 202.18C71.9662 200.516 73.3141 199.326 75.0543 199.32C76.7945 199.326 78.1361 200.516 78.1298 202.18C78.1361 203.869 76.7945 205.053 75.0543 205.053C73.3141 205.053 71.9662 203.869 71.9662 202.18ZM73.3457 202.18C73.3394 203.192 74.0734 203.825 75.0543 203.825C76.0098 203.825 76.7502 203.192 76.7502 202.18C76.7502 201.193 76.0098 200.547 75.0543 200.547C74.0734 200.547 73.3394 201.193 73.3457 202.18ZM73.7254 209.774V206.002H75.1429V208.635H81.6102V209.774H73.7254ZM86.7284 201.307C86.7158 203.351 87.7409 205.414 89.5128 206.268L88.6522 207.394C87.4118 206.768 86.5196 205.559 86.0323 204.104C85.5324 205.66 84.5958 206.951 83.2859 207.609L82.4253 206.483C84.2668 205.61 85.3172 203.42 85.3236 201.307V199.484H86.7284V201.307ZM90.1962 210.001V198.56H91.6011V203.04H93.3603V204.243H91.6011V210.001H90.1962ZM99.9086 199.358V200.497H98.8961V203.743C99.3138 203.711 99.7314 203.673 100.124 203.623V202.598H101.693V201.61H100.124V200.484H101.693V198.56H103.098V205.572H101.693V203.724H100.155L100.212 204.66C98.0292 205.021 95.5043 205.059 93.6818 205.065L93.5299 203.901C93.9285 203.901 94.3652 203.901 94.8208 203.895V200.497H93.821V199.358H99.9086ZM95.3397 207.888C95.3271 206.54 96.8015 205.774 99.2252 205.774C101.668 205.774 103.13 206.54 103.136 207.888C103.13 209.204 101.668 209.989 99.2252 209.989C96.8015 209.989 95.3271 209.204 95.3397 207.888ZM96.1877 203.876C96.6307 203.863 97.0863 203.844 97.5419 203.825V200.497H96.1877V203.876ZM96.7319 207.888C96.7256 208.552 97.6242 208.9 99.2252 208.9C100.833 208.9 101.731 208.552 101.731 207.888C101.731 207.211 100.833 206.85 99.2252 206.85C97.6242 206.85 96.7256 207.211 96.7319 207.888ZM113.355 198.56V203.028H115.051V204.205H113.355V209.976H111.95V198.56H113.355ZM104.331 206.85C107.115 205.458 108.621 203.521 108.9 200.914H104.951V199.75H110.33C110.323 203.11 108.931 206.065 105.128 207.938L104.331 206.85ZM124.123 199.269V204.028H118.604V199.269H124.123ZM119.288 208.888C121.484 208.698 122.889 207.723 123.015 206.812H119.756V205.749H123.047V204.749H124.464V205.749H127.768V206.812H124.502C124.629 207.698 126.008 208.666 128.198 208.888L127.717 209.963C125.863 209.767 124.458 209.04 123.762 208.09C123.059 209.052 121.636 209.761 119.769 209.963L119.288 208.888ZM119.997 202.927H122.73V200.383H119.997V202.927ZM126.135 205.078V198.56H127.527V205.078H126.135ZM142.079 205.433V206.584H137.548V210.014H136.156V206.584H131.651V205.433H142.079ZM132.22 203.623C134.504 203.344 136.004 202.174 136.143 201.028H132.612V199.914H136.156V198.573H137.548V199.914H141.105V201.028H137.574C137.707 202.161 139.2 203.344 141.484 203.623L140.965 204.736C139.073 204.496 137.605 203.667 136.865 202.566C136.118 203.68 134.631 204.496 132.726 204.736L132.22 203.623ZM146.641 201.269C146.634 202.629 147.59 203.952 149.4 204.509L148.716 205.61C147.419 205.224 146.476 204.395 145.957 203.344C145.451 204.477 144.508 205.369 143.173 205.8L142.489 204.698C144.293 204.135 145.236 202.737 145.236 201.269V201.091H142.844V199.978H145.236V198.636H146.653V199.978H149.033V201.091H146.641V201.269ZM144.603 209.774V206.331H146.008V208.635H152.399V209.774H144.603ZM148.653 203.104V201.977H150.703V198.573H152.108V207.065H150.703V203.104H148.653ZM157.631 201.307C157.625 203.433 158.644 205.521 160.466 206.318L159.618 207.445C158.327 206.812 157.416 205.597 156.929 204.097C156.429 205.679 155.492 206.996 154.176 207.66L153.29 206.521C155.157 205.648 156.195 203.445 156.201 201.307V199.484H157.631V201.307ZM159.201 203.395V202.256H161.605V198.56H162.998V210.014H161.605V203.395H159.201ZM75.8643 218.547C75.8643 219.958 76.7692 221.344 78.5727 221.939L77.864 223.028C76.5794 222.597 75.6744 221.743 75.1745 220.673C74.6683 221.844 73.7191 222.774 72.3838 223.23L71.6371 222.142C73.4786 221.528 74.4468 220.047 74.4468 218.547V218.408H72.0294V217.282H78.2437V218.408H75.8643V218.547ZM73.1685 225.116V223.989H80.7876V228.001H79.3827V225.116H73.1685ZM79.3827 223.458V216.56H80.7876V219.42H82.3823V220.598H80.7876V223.458H79.3827ZM86.8297 218.205C86.8233 219.762 87.7346 221.186 89.5254 221.749L88.7661 222.85C87.5194 222.407 86.6461 221.572 86.1589 220.49C85.6526 221.737 84.6971 222.717 83.3112 223.205L82.5645 222.066C84.4566 221.445 85.4058 219.92 85.4122 218.269V217.18H86.8297V218.205ZM84.4629 225.799C84.4503 224.407 85.9374 223.591 88.3484 223.597C90.7721 223.591 92.2529 224.407 92.2592 225.799C92.2529 227.191 90.7721 227.989 88.3484 227.989C85.9374 227.989 84.4503 227.191 84.4629 225.799ZM85.8551 225.799C85.8488 226.495 86.76 226.881 88.3484 226.888C89.9494 226.881 90.8543 226.495 90.8543 225.799C90.8543 225.078 89.9494 224.692 88.3484 224.685C86.76 224.692 85.8488 225.078 85.8551 225.799ZM88.5383 219.927V218.775H90.8164V216.56H92.2212V223.293H90.8164V219.927H88.5383ZM98.7189 216.737C101.326 216.744 102.839 217.433 102.845 218.699C102.839 219.977 101.326 220.667 98.7189 220.673C96.1181 220.667 94.593 219.977 94.593 218.699C94.593 217.433 96.1181 216.744 98.7189 216.737ZM93.5172 222.407V221.281H103.946V222.407H93.5172ZM94.7449 224.217V223.179H102.642V225.976H96.1371V226.824H102.959V227.9H94.7575V224.977H101.263V224.217H94.7449ZM96.0738 218.699C96.0675 219.332 96.9787 219.623 98.7189 219.623C100.484 219.623 101.389 219.332 101.389 218.699C101.389 218.111 100.484 217.775 98.7189 217.775C96.9787 217.775 96.0675 218.111 96.0738 218.699ZM111.474 219.307C111.461 221.408 112.569 223.508 114.423 224.306L113.588 225.432C112.271 224.825 111.309 223.616 110.778 222.123C110.253 223.73 109.265 225.046 107.88 225.698L107.019 224.521C108.924 223.698 110.037 221.515 110.044 219.307V217.484H111.474V219.307ZM115.245 228.014V216.56H116.663V228.014H115.245ZM122.123 218.547C122.123 219.958 123.028 221.344 124.831 221.939L124.123 223.028C122.838 222.597 121.933 221.743 121.433 220.673C120.927 221.844 119.978 222.774 118.642 223.23L117.896 222.142C119.737 221.528 120.705 220.047 120.705 218.547V218.408H118.288V217.282H124.502V218.408H122.123V218.547ZM119.427 225.116V223.989H127.046V228.001H125.641V225.116H119.427ZM125.641 223.458V216.56H127.046V219.42H128.641V220.598H127.046V223.458H125.641ZM137.86 216.56V221.116H139.619V222.281H137.86V228.001H136.467V216.56H137.86ZM128.836 219.446V218.319H131.544V216.725H132.949V218.319H135.582V219.446H128.836ZM129.367 222.888C129.355 221.306 130.582 220.186 132.253 220.193C133.898 220.186 135.12 221.306 135.126 222.888C135.12 224.464 133.898 225.571 132.253 225.571C130.582 225.571 129.355 224.464 129.367 222.888ZM130.709 222.888C130.703 223.819 131.354 224.413 132.253 224.407C133.133 224.413 133.772 223.819 133.784 222.888C133.772 221.958 133.133 221.344 132.253 221.344C131.354 221.344 130.703 221.958 130.709 222.888ZM144.838 217.37C144.838 218.199 144.718 218.959 144.471 219.648H145.876V216.801H147.205V222.952H145.876V220.775H143.921C143.212 221.876 142.086 222.749 140.523 223.407L139.826 222.357C142.003 221.496 143.149 220.218 143.377 218.509H140.371V217.37H144.838ZM140.345 226.888C141.832 226.375 142.573 225.192 142.573 224.078V223.47H143.927V224.078C143.914 225.04 144.351 226.027 145.332 226.66C146.325 225.976 146.781 224.926 146.787 224.078V223.47H148.167V224.078C148.161 225.261 148.882 226.419 150.382 226.888L149.698 227.925C148.585 227.539 147.844 226.799 147.446 225.888C147.078 226.786 146.408 227.59 145.357 228.014C144.275 227.615 143.604 226.831 143.244 225.913C142.839 226.799 142.111 227.533 141.054 227.925L140.345 226.888ZM148.218 223.116V216.573H149.559V223.116H148.218ZM153.298 223.42V224.508H158.335V223.42H159.74V227.862H151.906V223.42H153.298ZM150.653 222.774V221.623H161.081V222.774H150.653ZM151.184 219.914C153.576 219.617 155.139 218.389 155.146 217.117V216.687H156.588V217.117C156.588 218.351 158.158 219.636 160.524 219.914L160.031 221.028C158.113 220.768 156.601 219.914 155.867 218.756C155.127 219.92 153.608 220.768 151.703 221.028L151.184 219.914ZM153.298 226.748H158.335V225.584H153.298V226.748ZM171.072 216.56V228.001H169.68V216.56H171.072ZM162.188 225.128V217.674H163.58V223.926C165.181 223.901 166.889 223.762 168.655 223.407L168.832 224.584C166.82 225.002 164.953 225.135 163.175 225.128H162.188ZM181.367 216.56V220.901H183.126V222.053H181.367V228.014H179.962V216.56H181.367ZM172.874 225.217V217.649H178.228V218.788H174.279V224.04C176.057 224.034 177.469 223.945 179.038 223.673L179.203 224.863C177.424 225.166 175.887 225.217 173.824 225.217H172.874ZM184.675 226.976C184.131 226.976 183.682 226.533 183.688 225.989C183.682 225.458 184.131 225.021 184.675 225.015C185.2 225.021 185.65 225.458 185.65 225.989C185.65 226.533 185.2 226.976 184.675 226.976Z" fill="#131214"/>
<path d="M259.952 198.764L263.84 202.652M263.84 202.652L267.728 206.54M263.84 202.652L267.728 198.764M263.84 202.652L259.952 206.54" stroke="#131214" stroke-width="0.972" stroke-linecap="round"/>
<rect x="71.708" y="238.974" width="199.584" height="91.568" rx="4.86" stroke="#E6E9EB" stroke-width="0.648"/>
<circle cx="80.1319" cy="255.822" r="0.972" fill="#6E7375"/>
<path d="M92.449 253.144V253.826H88.5066V253.144H90.0658V252.063H90.8986V253.144H92.449ZM88.7635 256.129C88.7591 255.062 89.4855 254.304 90.4822 254.304C91.4878 254.304 92.2054 255.062 92.2098 256.129C92.2054 257.215 91.4878 257.977 90.4822 257.972C89.4855 257.977 88.7591 257.215 88.7635 256.129ZM89.5077 256.129C89.5033 256.803 89.9108 257.255 90.4822 257.255C91.0536 257.255 91.4656 256.803 91.4656 256.129C91.4656 255.469 91.0536 255.009 90.4822 255.004C89.9108 255.009 89.5033 255.469 89.5077 256.129ZM92.8122 259.399V252.01H93.6096V255.137H94.5221V251.833H95.3194V259.771H94.5221V255.828H93.6096V259.399H92.8122ZM102.384 251.833V253.844H103.527V254.535H102.384V256.519H101.533V251.833H102.384ZM96.4747 255.943V252.417H100.018V253.1H97.3075V255.261C98.8712 255.252 99.7527 255.208 100.754 255.004L100.834 255.686C99.7704 255.904 98.8224 255.943 97.1037 255.943H96.4747ZM97.148 258.211C97.148 257.241 98.1757 256.674 99.8147 256.67C101.436 256.674 102.446 257.241 102.446 258.211C102.446 259.19 101.436 259.757 99.8147 259.753C98.1757 259.757 97.148 259.19 97.148 258.211ZM97.9808 258.211C97.9764 258.761 98.6674 259.084 99.8147 259.08C100.94 259.084 101.635 258.761 101.64 258.211C101.635 257.662 100.94 257.348 99.8147 257.352C98.6674 257.348 97.9764 257.662 97.9808 258.211ZM112.978 256.617V257.308H109.771V259.779H108.938V257.308H105.74V256.617H112.978ZM106.165 255.394C107.671 255.204 108.885 254.362 108.938 253.472H106.422V252.789H108.938V251.833H109.771V252.789H112.287V253.472H109.78C109.824 254.353 111.024 255.204 112.535 255.394L112.234 256.067C110.958 255.89 109.873 255.292 109.359 254.482C108.845 255.301 107.755 255.89 106.475 256.067L106.165 255.394ZM116.135 253.72C116.135 254.721 116.884 255.642 118.102 256.023L117.695 256.688C116.782 256.4 116.096 255.797 115.732 255.022C115.387 255.85 114.7 256.502 113.761 256.812L113.354 256.156C114.567 255.766 115.303 254.787 115.303 253.72V253.534H113.575V252.851H115.303V251.886H116.144V252.851H117.863V253.534H116.135V253.72ZM114.815 259.602V257.228H115.657V258.92H120.184V259.602H114.815ZM117.588 254.925V254.242H119.13V251.841H119.972V257.751H119.13V254.925H117.588ZM123.829 253.853C123.829 255.306 124.644 256.754 125.858 257.299L125.344 257.972C124.445 257.52 123.762 256.626 123.413 255.54C123.063 256.683 122.372 257.649 121.455 258.123L120.923 257.441C122.154 256.851 122.974 255.323 122.978 253.853V252.497H123.829V253.853ZM124.981 255.155V254.473H126.752V251.833H127.585V259.788H126.752V255.155H124.981ZM134.76 252.338V255.598H130.986V252.338H134.76ZM131.508 259.097C132.952 258.956 134.082 258.234 134.139 257.52H131.827V256.882H134.157V256.138H134.99V256.882H137.329V257.52H135.008C135.065 258.211 136.168 258.938 137.612 259.097L137.329 259.744C136.084 259.593 135.056 259.062 134.578 258.362C134.091 259.071 133.05 259.593 131.801 259.744L131.508 259.097ZM131.809 254.942H133.927V253.011H131.809V254.942ZM136.31 256.369V251.833H137.143V256.369H136.31ZM146.753 251.841V257.609H145.912V251.841H146.753ZM140.33 254.34C140.335 253.193 141.247 252.377 142.448 252.373C143.644 252.377 144.556 253.193 144.556 254.34C144.556 255.505 143.644 256.315 142.448 256.315C141.247 256.315 140.335 255.505 140.33 254.34ZM141.154 254.34C141.15 255.088 141.708 255.58 142.448 255.58C143.174 255.58 143.732 255.088 143.732 254.34C143.732 253.609 143.174 253.108 142.448 253.108C141.708 253.108 141.15 253.609 141.154 254.34ZM141.562 259.602V257.024H142.412V258.92H146.993V259.602H141.562ZM150.54 253.853C150.531 255.257 151.351 256.696 152.533 257.272L152.011 257.946C151.147 257.494 150.478 256.608 150.128 255.549C149.774 256.674 149.078 257.627 148.174 258.096L147.652 257.414C148.87 256.829 149.694 255.306 149.698 253.853V252.497H150.54V253.853ZM153.127 259.771V251.833H153.968V254.995H155.244V255.713H153.968V259.771H153.127ZM159.846 252.408V253.091H159.084V255.492C159.421 255.465 159.744 255.434 160.058 255.394L160.094 256.032C158.566 256.271 156.785 256.298 155.514 256.298L155.407 255.598C155.704 255.598 156.032 255.598 156.373 255.593V253.091H155.629V252.408H159.846ZM156.674 258.318C156.67 257.392 157.68 256.865 159.359 256.865C161.033 256.865 162.039 257.392 162.043 258.318C162.039 259.226 161.033 259.757 159.359 259.753C157.68 259.757 156.67 259.226 156.674 258.318ZM157.188 255.58C157.547 255.571 157.91 255.558 158.278 255.54V253.091H157.188V255.58ZM157.507 258.318C157.503 258.818 158.185 259.102 159.359 259.106C160.524 259.102 161.206 258.818 161.21 258.318C161.206 257.804 160.524 257.516 159.359 257.52C158.185 257.516 157.503 257.804 157.507 258.318ZM159.961 255.332V254.659H161.175V253.888H159.961V253.215H161.175V251.833H162.016V256.714H161.175V255.332H159.961ZM169.196 251.833V254.995H170.427V255.695H169.196V259.762H168.354V251.833H169.196ZM163.021 257.644C165.01 256.652 166.091 255.217 166.264 253.365H163.42V252.665H167.123C167.114 254.96 166.104 257.011 163.491 258.3L163.021 257.644ZM177.456 251.833V259.771H176.65V251.833H177.456ZM170.714 255.261C170.714 253.542 171.388 252.466 172.424 252.471C173.39 252.466 174.041 253.383 174.139 254.871H175.038V251.983H175.844V259.381H175.038V255.554H174.143C174.068 257.104 173.408 258.065 172.424 258.061C171.388 258.065 170.714 256.984 170.714 255.261ZM171.494 255.261C171.494 256.524 171.853 257.268 172.424 257.263C173.009 257.268 173.372 256.524 173.372 255.261C173.372 253.994 173.009 253.255 172.424 253.259C171.853 253.255 171.494 253.994 171.494 255.261ZM187.041 251.833V259.771H186.234V255.669H185.207V259.363H184.436V251.992H185.207V254.978H186.234V251.833H187.041ZM180.493 257.866V252.789H183.47V253.472H181.335V257.148C182.31 257.144 183.045 257.1 183.895 256.936L183.957 257.627C183.005 257.826 182.181 257.857 181.025 257.866H180.493ZM194.078 251.841V254.393H195.23V255.093H194.078V257.777H193.237V251.841H194.078ZM187.85 253.445V252.763H189.799V251.833H190.641V252.763H192.581V253.445H187.85ZM188.284 255.323C188.28 254.415 189.064 253.822 190.216 253.826C191.354 253.822 192.138 254.415 192.138 255.323C192.138 256.222 191.354 256.807 190.216 256.812C189.064 256.807 188.28 256.222 188.284 255.323ZM189.046 259.602V257.308H189.888V258.92H194.415V259.602H189.046ZM189.099 255.323C189.091 255.841 189.542 256.16 190.216 256.156C190.889 256.16 191.341 255.841 191.35 255.323C191.341 254.801 190.889 254.477 190.216 254.473C189.542 254.477 189.091 254.801 189.099 255.323ZM204.708 258.078V258.778H197.443V258.078H200.641V256.245H198.276V252.471H203.84V256.245H201.474V258.078H204.708ZM199.091 255.58H203.016V253.144H199.091V255.58ZM212.304 255.81V256.484H205.057V255.81H212.304ZM205.961 255.013V252.16H211.409V252.834H206.802V254.322H211.489V255.013H205.961ZM205.969 259.602V257.263H206.802V258.911H211.542V259.602H205.969ZM220.896 251.833V253.649H222.047V254.349H220.896V256.067H220.054V251.833H220.896ZM215.013 255.828V252.338H218.539V253.029H215.846V255.137C217.392 255.128 218.26 255.084 219.257 254.871L219.354 255.554C218.282 255.779 217.343 255.824 215.642 255.828H215.013ZM215.81 259.647V256.484H216.643V257.387H220.054V256.484H220.896V259.647H215.81ZM216.643 258.964H220.054V258.052H216.643V258.964ZM228.89 251.841V257.706H228.049V255.642H226.312V256.386H222.653V252.364H223.495V253.711H225.48V252.364H226.312V253.25H228.049V251.841H228.89ZM223.495 255.704H225.48V254.358H223.495V255.704ZM223.708 259.602V257.131H224.558V258.92H229.068V259.602H223.708ZM226.312 254.96H228.049V253.941H226.312V254.96ZM238.669 251.833V259.771H237.863V255.704H236.844V259.363H236.056V251.992H236.844V255.013H237.863V251.833H238.669ZM232.246 257.751V252.772H233.088V257.011C233.819 257.002 234.621 256.944 235.524 256.767L235.613 257.503C234.523 257.698 233.615 257.755 232.76 257.751H232.246ZM246.726 255.704V256.386H239.488V255.704H241.224V254.637C240.609 254.389 240.263 253.99 240.268 253.463C240.263 252.519 241.357 251.97 243.103 251.974C244.844 251.97 245.933 252.519 245.938 253.463C245.933 253.99 245.588 254.389 244.972 254.641V255.704H246.726ZM240.347 258.335C240.347 257.427 241.375 256.927 243.103 256.927C244.808 256.927 245.836 257.427 245.84 258.335C245.836 259.252 244.808 259.753 243.103 259.753C241.375 259.753 240.347 259.252 240.347 258.335ZM241.136 253.463C241.131 253.994 241.867 254.291 243.103 254.296C244.33 254.291 245.074 253.994 245.069 253.463C245.074 252.931 244.33 252.626 243.103 252.621C241.867 252.626 241.131 252.931 241.136 253.463ZM241.198 258.335C241.193 258.832 241.889 259.115 243.103 259.106C244.299 259.115 244.999 258.832 244.999 258.335C244.999 257.848 244.299 257.574 243.103 257.574C241.889 257.574 241.193 257.848 241.198 258.335ZM242.075 255.704H244.139V254.858C243.829 254.907 243.479 254.933 243.103 254.933C242.731 254.933 242.385 254.907 242.075 254.863V255.704ZM254.34 255.979V256.652H247.102V255.979H254.34ZM247.881 253.684C247.877 252.688 248.989 252.094 250.716 252.098C252.435 252.094 253.547 252.688 253.551 253.684C253.547 254.685 252.435 255.292 250.716 255.297C248.989 255.292 247.877 254.685 247.881 253.684ZM248.014 259.602V257.299H248.865V258.92H253.525V259.602H248.014ZM248.75 253.684C248.745 254.273 249.498 254.606 250.716 254.606C251.93 254.606 252.688 254.273 252.683 253.684C252.688 253.117 251.93 252.772 250.716 252.772C249.498 252.772 248.745 253.117 248.75 253.684Z" fill="#6E7375"/>
<path d="M92.573 265.506V266.179H94.3006V264.841H95.1422V270.627H94.3006V268.571H92.573V269.262H88.8875V265.506H92.573ZM89.7203 268.598H91.7491V266.188H89.7203V268.598ZM89.9595 272.602V270.095H90.81V271.92H95.3194V272.602H89.9595ZM92.573 267.88H94.3006V266.87H92.573V267.88ZM102.747 264.833V269.156H101.914V267.402H100.426V266.711H101.914V264.833H102.747ZM96.1469 268.624C97.3651 268.199 98.127 267.158 98.1225 266.064V265.958H96.4038V265.276H100.683V265.958H98.9819V266.073C98.9775 267.056 99.6951 268.053 100.896 268.456L100.461 269.112C99.5666 268.793 98.911 268.164 98.5655 267.384C98.22 268.257 97.5245 268.957 96.581 269.289L96.1469 268.624ZM97.5821 272.673V269.51H98.4149V270.423H101.914V269.51H102.747V272.673H97.5821ZM98.4149 271.991H101.914V271.078H98.4149V271.991ZM108.173 265.435V265.878C108.164 266.41 108.164 267.198 107.969 268.226L107.136 268.146C107.309 267.269 107.335 266.627 107.344 266.126H104.168V265.435H108.173ZM103.69 268.908C104.177 268.908 104.731 268.904 105.311 268.89V267.216H106.144V268.864C106.994 268.828 107.871 268.766 108.669 268.651L108.722 269.262C107.065 269.555 105.169 269.586 103.77 269.59L103.69 268.908ZM104.895 272.602V270.255H105.736V271.92H110.29V272.602H104.895ZM109.174 270.795V264.833H110.033V267.358H111.123V268.066H110.033V270.795H109.174ZM117.939 264.833V272.788H117.098V264.833H117.939ZM111.64 268.208C111.64 266.511 112.495 265.431 113.696 265.426C114.874 265.431 115.742 266.511 115.742 268.208C115.742 269.922 114.874 271.003 113.696 270.999C112.495 271.003 111.64 269.922 111.64 268.208ZM112.455 268.208C112.451 269.471 112.956 270.246 113.696 270.246C114.422 270.246 114.927 269.471 114.927 268.208C114.927 266.963 114.422 266.184 113.696 266.179C112.956 266.184 112.451 266.963 112.455 268.208ZM122.748 264.957V265.648H126.425V264.957H127.266V267.588H124.981V268.279H128.205V268.952H120.967V268.279H124.157V267.588H121.915V264.957H122.748ZM121.836 270.157V269.528H127.293V271.38H122.668V272.044H127.514V272.691H121.844V270.777H126.46V270.157H121.836ZM122.748 266.95H126.425V266.268H122.748V266.95ZM134.636 265.533C134.631 266.587 135.92 267.575 137.479 267.783L137.152 268.474C135.854 268.266 134.715 267.592 134.197 266.658C133.679 267.592 132.54 268.266 131.251 268.474L130.915 267.783C132.469 267.575 133.754 266.6 133.758 265.533V265.098H134.636V265.533ZM130.569 269.944V269.253H137.807V269.944H134.582V272.771H133.758V269.944H130.569ZM142.926 270.077C142.926 270.76 143.263 271.482 143.985 271.911C144.711 271.446 145.07 270.689 145.07 270.077V269.696H145.894V270.077C145.89 270.901 146.434 271.699 147.471 272.035L147.055 272.655C146.271 272.385 145.735 271.854 145.46 271.207C145.207 271.845 144.733 272.425 144.007 272.726C143.245 272.438 142.762 271.876 142.519 271.229C142.231 271.854 141.708 272.381 140.959 272.655L140.534 272.035C141.553 271.672 142.107 270.844 142.111 270.077V269.696H142.926V270.077ZM140.33 267.154C140.335 266.042 141.23 265.28 142.448 265.276C143.661 265.28 144.556 266.042 144.556 267.154C144.556 268.252 143.661 269.014 142.448 269.014C141.23 269.014 140.335 268.252 140.33 267.154ZM141.154 267.154C141.15 267.845 141.695 268.314 142.448 268.314C143.192 268.314 143.732 267.845 143.732 267.154C143.732 266.458 143.192 265.989 142.448 265.993C141.695 265.989 141.15 266.458 141.154 267.154ZM145.912 269.36V264.841H146.753V269.36H145.912ZM151.399 265.311C153.065 265.311 154.332 266.193 154.332 267.526C154.332 268.868 153.065 269.745 151.399 269.741C149.738 269.745 148.471 268.868 148.476 267.526C148.471 266.193 149.738 265.311 151.399 265.311ZM147.785 271.743V271.043H155.049V271.743H147.785ZM149.282 267.526C149.277 268.452 150.181 269.05 151.399 269.05C152.613 269.05 153.512 268.452 153.517 267.526C153.512 266.605 152.613 265.989 151.399 265.993C150.181 265.989 149.277 266.605 149.282 267.526ZM159.394 265.595V266.702H161.184V264.833H162.016V272.788H161.184V269.564H159.394V270.786H155.708V265.595H159.394ZM156.541 270.113H158.57V266.25H156.541V270.113ZM159.394 268.881H161.184V267.393H159.394V268.881ZM169.448 265.408V266.091H168.686V268.492C169.022 268.465 169.346 268.434 169.66 268.394L169.696 269.032C168.167 269.271 166.387 269.298 165.115 269.298L165.009 268.598C165.306 268.598 165.634 268.598 165.975 268.593V266.091H165.231V265.408H169.448ZM166.276 271.318C166.272 270.392 167.281 269.865 168.96 269.865C170.635 269.865 171.64 270.392 171.645 271.318C171.64 272.226 170.635 272.757 168.96 272.753C167.281 272.757 166.272 272.226 166.276 271.318ZM166.79 268.58C167.149 268.571 167.512 268.558 167.879 268.54V266.091H166.79V268.58ZM167.109 271.318C167.104 271.818 167.786 272.102 168.96 272.106C170.125 272.102 170.808 271.818 170.812 271.318C170.808 270.804 170.125 270.516 168.96 270.52C167.786 270.516 167.104 270.804 167.109 271.318ZM169.563 268.332V267.659H170.776V266.888H169.563V266.215H170.776V264.833H171.618V269.714H170.776V268.332H169.563ZM178.798 264.833V267.995H180.029V268.695H178.798V272.762H177.956V264.833H178.798ZM172.623 270.644C174.612 269.652 175.693 268.217 175.865 266.365H173.021V265.665H176.725C176.716 267.96 175.706 270.011 173.092 271.3L172.623 270.644ZM184.98 267.172C184.975 268.425 185.804 269.825 187.009 270.396L186.53 271.052C185.64 270.627 184.931 269.732 184.572 268.695C184.209 269.825 183.465 270.804 182.561 271.256L182.065 270.591C183.27 270.011 184.143 268.514 184.147 267.172V266.33H182.357V265.63H186.707V266.33H184.98V267.172ZM187.558 272.771V264.833H188.4V267.978H189.675V268.686H188.4V272.771H187.558ZM197.094 271.114V271.823H189.829V271.114H191.814V269.714H190.715V267.189H195.375V266.082H190.698V265.391H196.208V267.871H191.548V269.023H196.394V269.714H195.189V271.114H197.094ZM192.629 271.114H194.365V269.714H192.629V271.114ZM204.708 271.114V271.823H197.443V271.114H200.641V269.723H198.329V267.198H202.989V266.082H198.311V265.391H203.822V267.871H199.162V269.032H204.008V269.723H201.474V271.114H204.708ZM213.291 264.833V266.808H214.425V267.526H213.291V269.51H212.449V264.833H213.291ZM206.992 268.757C207.608 268.757 208.321 268.753 209.065 268.735V268.288C208.152 268.204 207.585 267.836 207.594 267.242C207.585 266.596 208.33 266.215 209.481 266.215C210.624 266.215 211.364 266.596 211.368 267.242C211.364 267.832 210.806 268.199 209.907 268.288V268.7C210.615 268.669 211.333 268.611 211.997 268.518L212.068 269.067C210.363 269.346 208.476 269.36 207.08 269.36L206.992 268.757ZM207.196 265.984V265.4H209.065V264.762H209.907V265.4H211.776V265.984H207.196ZM208.046 270.432V269.847H213.291V271.504H208.905V272.106H213.583V272.691H208.064V270.963H212.458V270.432H208.046ZM208.392 267.242C208.392 267.561 208.804 267.756 209.481 267.756C210.15 267.756 210.567 267.561 210.562 267.242C210.567 266.937 210.15 266.764 209.481 266.764C208.804 266.764 208.392 266.937 208.392 267.242ZM221.897 268.704V269.386H214.659V268.704H216.395V267.637C215.779 267.389 215.434 266.99 215.438 266.463C215.434 265.519 216.528 264.97 218.273 264.974C220.014 264.97 221.104 265.519 221.108 266.463C221.104 266.99 220.758 267.389 220.143 267.641V268.704H221.897ZM215.518 271.335C215.518 270.427 216.546 269.927 218.273 269.927C219.979 269.927 221.006 270.427 221.011 271.335C221.006 272.252 219.979 272.753 218.273 272.753C216.546 272.753 215.518 272.252 215.518 271.335ZM216.307 266.463C216.302 266.994 217.037 267.291 218.273 267.296C219.5 267.291 220.245 266.994 220.24 266.463C220.245 265.931 219.5 265.626 218.273 265.621C217.037 265.626 216.302 265.931 216.307 266.463ZM216.369 271.335C216.364 271.832 217.06 272.115 218.273 272.106C219.469 272.115 220.169 271.832 220.169 271.335C220.169 270.848 219.469 270.574 218.273 270.574C217.06 270.574 216.364 270.848 216.369 271.335ZM217.246 268.704H219.31V267.858C219 267.907 218.65 267.933 218.273 267.933C217.901 267.933 217.556 267.907 217.246 267.863V268.704ZM228.873 264.841V269.413H228.022V264.841H228.873ZM222.29 268.571C222.95 268.571 223.712 268.567 224.505 268.545V267.765H222.999V265.214H226.791V265.905H223.841V267.101H226.862V267.765H225.338V268.509C226.042 268.474 226.755 268.421 227.42 268.332L227.464 268.926C225.745 269.218 223.836 269.245 222.414 269.253L222.29 268.571ZM223.575 272.673V269.758H224.416V270.52H228.04V269.758H228.873V272.673H223.575ZM224.416 271.991H228.04V271.167H224.416V271.991ZM236.478 264.833V272.771H235.636V264.833H236.478ZM230.374 270.751V265.603H231.206V270.024C232.367 270.02 233.585 269.918 234.856 269.661L234.972 270.37C233.567 270.658 232.292 270.755 231.038 270.751H230.374ZM243.684 264.833V267.907H244.96V268.598H243.684V272.788H242.842V264.833H243.684ZM237.837 270.813V265.595H241.549V266.277H238.678V270.113C240.012 270.108 241.008 270.051 242.142 269.847L242.249 270.556C241.004 270.777 239.95 270.817 238.475 270.813H237.837ZM246.017 272.08C245.672 272.075 245.384 271.796 245.388 271.451C245.384 271.105 245.672 270.822 246.017 270.822C246.358 270.822 246.642 271.105 246.646 271.451C246.642 271.796 246.358 272.075 246.017 272.08Z" fill="#04B014"/>
<circle cx="80.1319" cy="288.302" r="0.972" fill="#6E7375"/>
<path d="M92.4755 286.749V287.786H95.7269V288.353H88.5508V287.786H91.7933V286.749H92.4755ZM88.9495 286.634C90.3891 286.475 91.7845 285.722 91.7845 284.703V284.402H92.4844V284.703C92.4844 285.722 93.8842 286.475 95.3194 286.634L95.0713 287.166C93.831 286.997 92.6306 286.461 92.1344 285.598C91.6383 286.461 90.4334 286.997 89.1975 287.166L88.9495 286.634ZM89.419 289.549V289.009H94.8055V290.798H90.1278V291.578H95.0447V292.127H89.4367V290.275H94.1234V289.549H89.419ZM98.9996 285.801C99.004 286.86 99.8412 287.826 101.019 288.211L100.665 288.752C99.7482 288.442 99.0217 287.795 98.6629 286.962C98.3174 287.857 97.5821 288.566 96.643 288.902L96.2797 288.362C97.4625 287.945 98.2952 286.918 98.2997 285.801V285.465H96.4569V284.898H100.816V285.465H98.9996V285.801ZM97.3694 290.098V289.522H102.667V292.216H101.976V290.098H97.3694ZM101.976 289.106V284.34H102.667V289.106H101.976ZM109.874 284.34V287.591H111.194V288.167H109.874V292.216H109.183V284.34H109.874ZM103.734 286.182V285.607H105.763V284.437H106.454V285.607H108.421V286.182H103.734ZM104.186 288.645C104.181 287.582 104.996 286.838 106.117 286.838C107.229 286.838 108.04 287.582 108.049 288.645C108.04 289.713 107.229 290.453 106.117 290.453C104.996 290.453 104.181 289.713 104.186 288.645ZM104.85 288.645C104.846 289.363 105.382 289.868 106.117 289.859C106.844 289.868 107.375 289.363 107.384 288.645C107.375 287.932 106.844 287.418 106.117 287.423C105.382 287.418 104.846 287.932 104.85 288.645ZM118.134 284.34V292.216H117.47V284.34H118.134ZM111.401 290.01C113.111 288.995 113.97 287.573 114.103 285.926H111.738V285.35H114.794C114.794 286.125 114.67 286.873 114.4 287.573H115.813V284.552H116.477V291.817H115.813V288.14H114.143C113.669 289.057 112.907 289.868 111.808 290.515L111.401 290.01ZM123.723 285.801C123.727 286.851 124.498 287.808 125.663 288.211L125.308 288.752C124.409 288.433 123.723 287.79 123.386 286.975C123.049 287.87 122.327 288.566 121.401 288.902L121.029 288.362C122.208 287.945 123.031 286.931 123.04 285.801V285.465H121.242V284.898H125.494V285.465H123.723V285.801ZM122.057 290.072V289.505H127.213V292.216H126.522V290.072H122.057ZM126.522 289.088V284.34H127.213V286.422H128.4V287.015H127.213V289.088H126.522ZM131.381 285.58C131.372 286.705 132.173 287.693 133.33 288.087L132.94 288.628C132.072 288.304 131.389 287.662 131.048 286.834C130.712 287.777 129.994 288.508 129.042 288.867L128.661 288.3C129.874 287.875 130.681 286.829 130.69 285.607V284.792H131.381V285.58ZM129.945 290.727C129.941 289.779 130.946 289.234 132.585 289.239C134.22 289.234 135.226 289.779 135.226 290.727C135.226 291.666 134.22 292.198 132.585 292.198C130.946 292.198 129.941 291.666 129.945 290.727ZM130.636 290.727C130.632 291.299 131.376 291.644 132.585 291.64C133.79 291.644 134.535 291.299 134.535 290.727C134.535 290.138 133.79 289.788 132.585 289.788C131.376 289.788 130.632 290.138 130.636 290.727ZM132.745 286.608V286.032H134.499V284.34H135.199V289.009H134.499V286.608H132.745ZM140.217 285.704V286.271H136.266V285.704H137.905V284.579H138.596V285.704H140.217ZM136.549 288.592C136.549 287.547 137.262 286.807 138.241 286.803C139.234 286.807 139.942 287.547 139.951 288.592C139.942 289.651 139.234 290.395 138.241 290.399C137.262 290.395 136.549 289.651 136.549 288.592ZM137.169 288.592C137.169 289.292 137.617 289.793 138.241 289.788C138.87 289.793 139.331 289.292 139.331 288.592C139.331 287.901 138.87 287.396 138.241 287.387C137.617 287.396 137.169 287.901 137.169 288.592ZM140.624 291.826V284.535H141.28V287.662H142.325V284.34H142.99V292.216H142.325V288.238H141.28V291.826H140.624ZM147.875 285.456C147.871 286.51 149.275 287.405 150.648 287.609L150.391 288.158C149.164 287.95 147.964 287.294 147.485 286.346C147.007 287.294 145.806 287.95 144.597 288.158L144.322 287.609C145.691 287.405 147.091 286.51 147.095 285.456V285.403H144.57V284.836H150.391V285.403H147.875V285.456ZM143.897 289.407V288.831H151.073V289.407H147.813V292.216H147.131V289.407H143.897ZM158.014 284.349V290.125H157.323V284.349H158.014ZM151.591 288.442C152.782 287.976 153.593 286.825 153.593 285.58V284.792H154.302V285.58C154.293 286.78 155.112 287.857 156.286 288.282L155.923 288.84C155.01 288.49 154.302 287.782 153.952 286.873C153.611 287.839 152.893 288.614 151.972 288.982L151.591 288.442ZM152.928 292.047V289.593H153.619V291.463H158.262V292.047H152.928ZM167.704 284.34V289.035H167.004V286.971H165.418V286.395H167.004V284.34H167.704ZM161.21 288.406C162.38 287.985 163.212 286.918 163.212 285.793V285.5H161.432V284.916H165.675V285.5H163.912V285.784C163.912 286.811 164.701 287.79 165.852 288.185L165.489 288.743C164.608 288.424 163.921 287.759 163.58 286.949C163.243 287.87 162.512 288.605 161.573 288.964L161.21 288.406ZM162.45 290.745C162.446 289.819 163.452 289.279 165.09 289.283C166.725 289.279 167.731 289.819 167.731 290.745C167.731 291.675 166.725 292.207 165.09 292.216C163.452 292.207 162.446 291.675 162.45 290.745ZM163.141 290.745C163.137 291.316 163.881 291.662 165.09 291.658C166.295 291.662 167.04 291.316 167.04 290.745C167.04 290.169 166.295 289.824 165.09 289.824C163.881 289.824 163.137 290.169 163.141 290.745ZM176 290.63V291.206H168.788V290.63H172.031V288.929H169.639V284.898H170.339V286.324H174.432V284.898H175.114V288.929H172.713V290.63H176ZM170.339 288.362H174.432V286.891H170.339V288.362ZM182.772 286.732V287.29H177.377V284.632H178.068V286.732H182.772ZM176.393 288.929V288.362H183.605V288.929H176.393ZM177.332 292.021V289.735H178.023V291.445H182.816V292.021H177.332ZM220.488 298.057V301.681H216.847V298.057H220.488ZM217.529 301.123H219.815V298.624H217.529V301.123ZM217.742 305.047V302.567H218.424V304.463H223.031V305.047H217.742ZM221.977 303.116V297.34H222.668V299.741H223.855V300.325H222.668V303.116H221.977ZM231.495 300.485V301.069H230.219V305.216H229.528V297.34H230.219V300.485H231.495ZM224.452 303.213V298.119H225.143V302.629C226.295 302.629 227.468 302.54 228.766 302.265L228.855 302.859C227.495 303.134 226.272 303.213 225.081 303.213H224.452ZM238.108 299.732V300.29H232.712V297.632H233.403V299.732H238.108ZM231.729 301.929V301.362H238.94V301.929H231.729ZM232.668 305.021V302.735H233.359V304.445H238.152V305.021H232.668ZM246.094 297.34V305.216H245.42V297.34H246.094ZM239.662 303.32V298.314H242.63V298.89H240.335V302.735C241.473 302.726 242.191 302.686 243.037 302.496L243.108 303.089C242.195 303.275 241.425 303.315 240.158 303.32H239.662ZM242.098 300.937V300.352H243.817V297.535H244.481V304.808H243.817V300.937H242.098ZM94.8144 310.765V311.429C94.8144 312.187 94.8144 313.033 94.5973 314.22H95.7535V314.796H88.5508V314.22H93.893C93.9949 313.715 94.0525 313.268 94.0835 312.86L89.3659 313.077L89.2773 312.484L94.1145 312.337C94.1278 312.014 94.1234 311.713 94.1234 311.429V311.341H89.4633V310.765H94.8144ZM89.4633 318.047V315.584H90.1632V317.463H94.9827V318.047H89.4633ZM104.576 314.034V314.601H102.139V316.639H105.426V317.223H98.2146V316.639H101.457V314.601H99.136V310.986H104.496V311.553H99.8359V314.034H104.576ZM109.416 310.49C111.131 310.495 112.194 311.04 112.198 311.979C112.194 312.9 111.131 313.445 109.416 313.44C107.702 313.445 106.626 312.9 106.626 311.979C106.626 311.04 107.702 310.495 109.416 310.49ZM105.828 314.619V314.043H113.004V314.619H109.753V315.522H112.127V318.109H106.705V315.522H109.071V314.619H105.828ZM107.343 311.979C107.339 312.555 108.141 312.891 109.416 312.891C110.679 312.891 111.485 312.555 111.49 311.979C111.485 311.39 110.679 311.04 109.416 311.04C108.141 311.04 107.339 311.39 107.343 311.979ZM107.396 317.542H111.445V316.081H107.396V317.542ZM119.936 310.34V318.233H119.236V310.34H119.936ZM113.734 313.697C113.739 312.023 114.572 310.955 115.746 310.951C116.915 310.955 117.761 312.023 117.757 313.697C117.761 315.376 116.915 316.439 115.746 316.435C114.572 316.439 113.739 315.376 113.734 313.697ZM114.408 313.697C114.408 314.978 114.957 315.819 115.746 315.815C116.538 315.819 117.083 314.978 117.083 313.697C117.083 312.417 116.538 311.576 115.746 311.571C114.957 311.576 114.408 312.417 114.408 313.697ZM127.801 313.742V314.318H126.074V315.868C126.845 315.837 127.62 315.784 128.351 315.7L128.404 316.222C126.659 316.475 124.754 316.51 123.248 316.506L123.15 315.921C123.837 315.921 124.599 315.917 125.383 315.895V314.318H123.753V311.093H127.766V311.66H124.435V313.742H127.801ZM128.873 318.233V310.34H129.564V318.233H128.873ZM137.214 310.34V318.216H136.523V310.34H137.214ZM131.234 316.187V311.119H131.916V315.584C133.121 315.576 134.361 315.483 135.681 315.203L135.778 315.797C134.379 316.089 133.134 316.187 131.871 316.187H131.234ZM143.094 311.58C143.086 312.705 143.887 313.693 145.043 314.087L144.654 314.628C143.785 314.304 143.103 313.662 142.762 312.834C142.426 313.777 141.708 314.508 140.756 314.867L140.375 314.3C141.588 313.875 142.395 312.829 142.403 311.607V310.792H143.094V311.58ZM141.659 316.727C141.655 315.779 142.66 315.234 144.299 315.239C145.934 315.234 146.939 315.779 146.939 316.727C146.939 317.666 145.934 318.198 144.299 318.198C142.66 318.198 141.655 317.666 141.659 316.727ZM142.35 316.727C142.346 317.299 143.09 317.644 144.299 317.64C145.504 317.644 146.248 317.299 146.248 316.727C146.248 316.138 145.504 315.788 144.299 315.788C143.09 315.788 142.346 316.138 142.35 316.727ZM144.459 312.608V312.032H146.213V310.34H146.913V315.009H146.213V312.608H144.459ZM154.5 310.349V314.823H153.809V310.349H154.5ZM148.059 314.069C149.251 313.653 150.079 312.586 150.079 311.429V310.659H150.788V311.429C150.779 312.541 151.63 313.525 152.79 313.937L152.436 314.468C151.523 314.154 150.792 313.489 150.438 312.63C150.088 313.542 149.353 314.269 148.414 314.619L148.059 314.069ZM149.379 318.109V315.274H154.5V318.109H149.379ZM150.061 317.542H153.818V315.841H150.061V317.542ZM158.322 311.58C158.313 312.705 159.115 313.693 160.271 314.087L159.881 314.628C159.013 314.304 158.331 313.662 157.99 312.834C157.653 313.777 156.935 314.508 155.983 314.867L155.602 314.3C156.816 313.875 157.622 312.829 157.631 311.607V310.792H158.322V311.58ZM156.887 316.727C156.882 315.779 157.888 315.234 159.527 315.239C161.161 315.234 162.167 315.779 162.167 316.727C162.167 317.666 161.161 318.198 159.527 318.198C157.888 318.198 156.882 317.666 156.887 316.727ZM157.578 316.727C157.573 317.299 158.317 317.644 159.527 317.64C160.732 317.644 161.476 317.299 161.476 316.727C161.476 316.138 160.732 315.788 159.527 315.788C158.317 315.788 157.573 316.138 157.578 316.727ZM159.686 312.608V312.032H161.44V310.34H162.14V315.009H161.44V312.608H159.686ZM165.803 310.916C167.039 310.92 167.916 311.673 167.92 312.767C167.916 313.866 167.039 314.614 165.803 314.619C164.558 314.614 163.672 313.866 163.677 312.767C163.672 311.673 164.558 310.92 165.803 310.916ZM163.269 315.903C164.722 315.908 166.729 315.895 168.469 315.638L168.523 316.151C166.72 316.488 164.784 316.497 163.366 316.497L163.269 315.903ZM164.359 312.767C164.354 313.502 164.961 314.007 165.803 314.007C166.636 314.007 167.242 313.502 167.238 312.767C167.242 312.036 166.636 311.527 165.803 311.527C164.961 311.527 164.354 312.036 164.359 312.767ZM168.992 318.233V310.34H169.683V318.233H168.992ZM177.341 310.349V315.744H176.632V313.184H174.989C174.714 313.844 174.28 314.442 173.629 314.982L173.133 314.574C174.187 313.733 174.621 312.758 174.71 311.527H173.479V310.951H175.374C175.374 311.54 175.317 312.098 175.18 312.617H176.632V310.349H177.341ZM170.892 314.114C171.91 313.432 172.407 312.67 172.517 311.527H171.104V310.951H173.186C173.177 312.524 172.677 313.64 171.343 314.557L170.892 314.114ZM171.769 317.64C173.155 317.396 174.431 316.528 174.435 315.372V315.053H175.126V315.372C175.131 316.51 176.384 317.374 177.775 317.613L177.483 318.171C176.318 317.95 175.246 317.334 174.776 316.413C174.302 317.343 173.222 317.959 172.043 318.189L171.769 317.64ZM183.169 311.801C183.173 312.851 183.944 313.808 185.109 314.211L184.755 314.752C183.856 314.433 183.169 313.79 182.832 312.975C182.496 313.87 181.774 314.566 180.848 314.902L180.476 314.362C181.654 313.945 182.478 312.931 182.487 311.801V311.465H180.688V310.898H184.941V311.465H183.169V311.801ZM181.503 316.072V315.505H186.66V318.216H185.968V316.072H181.503ZM185.968 315.088V310.34H186.66V312.422H187.847V313.015H186.66V315.088H185.968ZM190.827 311.58C190.818 312.705 191.62 313.693 192.776 314.087L192.386 314.628C191.518 314.304 190.836 313.662 190.495 312.834C190.158 313.777 189.44 314.508 188.488 314.867L188.107 314.3C189.321 313.875 190.127 312.829 190.136 311.607V310.792H190.827V311.58ZM189.392 316.727C189.387 315.779 190.393 315.234 192.032 315.239C193.666 315.234 194.672 315.779 194.672 316.727C194.672 317.666 193.666 318.198 192.032 318.198C190.393 318.198 189.387 317.666 189.392 316.727ZM190.083 316.727C190.078 317.299 190.823 317.644 192.032 317.64C193.237 317.644 193.981 317.299 193.981 316.727C193.981 316.138 193.237 315.788 192.032 315.788C190.823 315.788 190.078 316.138 190.083 316.727ZM192.191 312.608V312.032H193.945V310.34H194.645V315.009H193.945V312.608H192.191ZM199.663 311.704V312.271H195.712V311.704H197.351V310.579H198.042V311.704H199.663ZM195.996 314.592C195.996 313.547 196.709 312.807 197.688 312.803C198.68 312.807 199.389 313.547 199.398 314.592C199.389 315.651 198.68 316.395 197.688 316.399C196.709 316.395 195.996 315.651 195.996 314.592ZM196.616 314.592C196.616 315.292 197.063 315.793 197.688 315.788C198.317 315.793 198.777 315.292 198.777 314.592C198.777 313.901 198.317 313.396 197.688 313.387C197.063 313.396 196.616 313.901 196.616 314.592ZM200.071 317.826V310.535H200.726V313.662H201.772V310.34H202.436V318.216H201.772V314.238H200.726V317.826H200.071ZM209.371 311.456C209.367 312.51 210.771 313.405 212.144 313.609L211.887 314.158C210.66 313.95 209.46 313.294 208.982 312.346C208.503 313.294 207.303 313.95 206.093 314.158L205.819 313.609C207.188 313.405 208.587 312.51 208.592 311.456V311.403H206.067V310.836H211.887V311.403H209.371V311.456ZM205.394 315.407V314.831H212.57V315.407H209.309V318.216H208.627V315.407H205.394ZM215.807 312.457C215.802 313.897 216.781 315.341 217.942 315.868L217.517 316.417C216.618 315.983 215.842 315.048 215.466 313.928C215.103 315.115 214.327 316.112 213.406 316.577L212.963 315.992C214.137 315.456 215.107 313.95 215.116 312.457V311.022H215.807V312.457ZM218.801 318.233V310.34H219.501V318.233H218.801ZM227.124 310.34V314.371H226.433V310.34H227.124ZM220.754 313.954C222.73 313.516 223.881 312.572 224.005 311.305H221.153V310.729H224.767C224.763 312.741 223.341 313.994 221.011 314.539L220.754 313.954ZM222.003 315.301V314.743H227.124V316.648H222.712V317.587H227.407V318.145H222.021V316.116H226.433V315.301H222.003ZM236.38 310.34V313.44H237.7V314.043H236.38V318.216H235.689V310.34H236.38ZM230.613 316.329V311.013H231.304V313.095H233.607V311.013H234.298V316.329H230.613ZM231.304 315.744H233.607V313.653H231.304V315.744ZM244.056 310.349V312.244H245.252V312.838H244.056V314.69H243.365V310.349H244.056ZM238.235 311.314V310.738H241.806V312.838H238.935V313.928C240.335 313.919 241.349 313.879 242.576 313.653L242.647 314.238C241.385 314.455 240.331 314.504 238.864 314.512H238.253V312.289H241.123V311.314H238.235ZM239.077 318.109V315.044H239.768V316.01H243.365V315.044H244.056V318.109H239.077ZM239.768 317.542H243.365V316.568H239.768V317.542ZM252.006 310.34V318.216H251.315V310.34H252.006ZM246.026 316.187V311.119H246.708V315.584C247.913 315.576 249.154 315.483 250.474 315.203L250.571 315.797C249.171 316.089 247.927 316.187 246.664 316.187H246.026ZM259.221 310.34V313.458H260.541V314.043H259.221V318.233H258.53V310.34H259.221ZM253.472 316.258V311.11H257.148V311.686H254.163V315.673C255.589 315.669 256.595 315.607 257.768 315.39L257.857 315.992C256.621 316.213 255.589 316.258 254.092 316.258H253.472ZM261.573 317.551C261.263 317.547 260.997 317.29 261.006 316.975C260.997 316.665 261.263 316.408 261.573 316.408C261.887 316.408 262.144 316.665 262.14 316.975C262.144 317.29 261.887 317.547 261.573 317.551Z" fill="#6E7375"/>
<path d="M193.304 290.559V291.259H186.039V290.559H187.776V288.486C187.125 288.127 186.726 287.56 186.73 286.847C186.726 285.598 187.953 284.778 189.654 284.774C191.359 284.778 192.586 285.598 192.586 286.847C192.586 287.547 192.205 288.109 191.568 288.468V290.559H193.304ZM187.545 286.847C187.545 287.697 188.409 288.251 189.654 288.256C190.89 288.251 191.767 287.697 191.771 286.847C191.767 285.992 190.89 285.447 189.654 285.447C188.409 285.447 187.545 285.992 187.545 286.847ZM188.609 290.559H190.717V288.796C190.394 288.871 190.035 288.911 189.654 288.911C189.282 288.911 188.928 288.871 188.609 288.796V290.559ZM196.435 286.005C196.435 286.94 197.201 287.813 198.411 288.149L198.012 288.805C197.091 288.543 196.4 287.976 196.036 287.241C195.691 288.061 195 288.712 194.052 289.009L193.653 288.362C194.858 287.976 195.602 287.028 195.602 286.005V285.908H193.875V285.234H195.602V284.278H196.444V285.234H198.163V285.908H196.435V286.005ZM194.929 290.763C194.924 289.832 195.948 289.305 197.613 289.301C199.274 289.305 200.293 289.832 200.298 290.763C200.293 291.697 199.274 292.238 197.613 292.233C195.948 292.238 194.924 291.697 194.929 290.763ZM195.762 290.763C195.757 291.277 196.448 291.582 197.613 291.587C198.778 291.582 199.46 291.277 199.465 290.763C199.46 290.249 198.778 289.957 197.613 289.957C196.448 289.957 195.757 290.249 195.762 290.763ZM197.914 287.228V286.537H199.429V284.313H200.271V289.124H199.429V287.228H197.914ZM204.031 286.652C204.027 287.906 204.855 289.305 206.06 289.877L205.581 290.532C204.691 290.107 203.982 289.212 203.623 288.176C203.26 289.305 202.516 290.284 201.612 290.736L201.116 290.072C202.321 289.491 203.194 287.994 203.198 286.652V285.81H201.409V285.11H205.759V285.81H204.031V286.652ZM206.609 292.251V284.313H207.451V287.458H208.726V288.167H207.451V292.251H206.609ZM215.454 284.313V288.796H214.621V284.313H215.454ZM209.368 288.264V284.774H210.21V287.556C211.49 287.547 212.61 287.458 213.806 287.201L213.922 287.901C212.61 288.167 211.414 288.26 210.023 288.264H209.368ZM210.254 292.145V289.159H215.454V292.145H210.254ZM211.078 291.471H214.63V289.824H211.078V291.471ZM223.068 284.313V292.269H222.226V284.313H223.068ZM216.769 287.689C216.769 285.992 217.624 284.911 218.824 284.907C220.003 284.911 220.871 285.992 220.871 287.689C220.871 289.403 220.003 290.484 218.824 290.479C217.624 290.484 216.769 289.403 216.769 287.689ZM217.584 287.689C217.58 288.951 218.085 289.726 218.824 289.726C219.551 289.726 220.056 288.951 220.056 287.689C220.056 286.444 219.551 285.664 218.824 285.66C218.085 285.664 217.58 286.444 217.584 287.689ZM233.334 289.097V289.788H230.127V292.26H229.294V289.788H226.096V289.097H233.334ZM226.521 287.875C228.027 287.684 229.241 286.842 229.294 285.952H226.778V285.27H229.294V284.313H230.127V285.27H232.643V285.952H230.136C230.18 286.834 231.381 287.684 232.891 287.875L232.59 288.548C231.314 288.371 230.229 287.773 229.715 286.962C229.201 287.782 228.112 288.371 226.831 288.548L226.521 287.875ZM240.027 284.809V285.509C240.027 286.262 240.027 287.082 239.805 288.211H240.948V288.902H237.732V292.26H236.882V288.902H233.71V288.211H238.955C239.189 287.077 239.189 286.249 239.194 285.509V285.5H234.596V284.809H240.027ZM247.507 284.313V287.529H248.783V288.229H247.507V292.251H246.675V284.313H247.507ZM241.279 286.244V285.553H243.237V284.419H244.079V285.553H245.984V286.244H241.279ZM241.687 288.672C241.687 287.591 242.52 286.829 243.663 286.829C244.801 286.829 245.634 287.591 245.638 288.672C245.634 289.762 244.801 290.519 243.663 290.524C242.52 290.519 241.687 289.762 241.687 288.672ZM242.493 288.672C242.489 289.363 242.985 289.824 243.663 289.815C244.336 289.824 244.828 289.363 244.832 288.672C244.828 287.994 244.336 287.525 243.663 287.52C242.985 287.525 242.489 287.994 242.493 288.672ZM255.36 286.634V287.308H249.894V284.597H250.727V286.634H255.36ZM248.929 288.982V288.309H256.193V288.982H248.929ZM249.832 292.065V289.735H250.674V291.374H255.414V292.065H249.832ZM94.7081 297.313V300.476H95.9395V301.176H94.7081V305.242H93.8664V297.313H94.7081ZM88.5331 303.125C90.522 302.133 91.6029 300.697 91.7756 298.846H88.9318V298.146H92.635C92.6261 300.44 91.6162 302.491 89.0026 303.78L88.5331 303.125ZM102.712 297.313V305.251H101.87V297.313H102.712ZM96.2532 303.081C97.4802 302.531 98.2952 301.194 98.2997 299.865V299.342H96.4924V298.669H98.2908V297.473H99.1236V298.669H100.904V299.342H99.1236V299.865C99.128 301.131 99.9608 302.425 101.197 302.948L100.736 303.594C99.819 303.196 99.0926 302.367 98.7249 301.366C98.3661 302.429 97.6441 303.311 96.7227 303.727L96.2532 303.081ZM106.135 297.818C107.357 297.818 108.266 298.589 108.27 299.705C108.266 300.689 107.561 301.402 106.56 301.561V302.819C107.264 302.784 107.969 302.731 108.624 302.646L108.686 303.275C107.008 303.568 105.16 303.581 103.787 303.568L103.654 302.877C104.27 302.872 104.979 302.868 105.719 302.85V301.561C104.695 301.411 103.995 300.693 104 299.705C103.995 298.589 104.89 297.818 106.135 297.818ZM104.815 299.705C104.81 300.409 105.373 300.879 106.135 300.875C106.888 300.879 107.442 300.409 107.446 299.705C107.442 298.996 106.888 298.536 106.135 298.527C105.373 298.536 104.81 298.996 104.815 299.705ZM109.103 305.251V297.313H109.944V300.538H111.167V301.247H109.944V305.251H109.103ZM115.551 297.676C116.596 297.667 117.407 298.274 117.579 299.165H119.13V297.313H119.971V301.574H119.13V299.856H117.584C117.42 300.768 116.605 301.38 115.551 301.38C114.337 301.38 113.464 300.613 113.469 299.519C113.464 298.438 114.337 297.667 115.551 297.676ZM114.275 299.519C114.27 300.197 114.802 300.671 115.551 300.671C116.286 300.671 116.809 300.197 116.809 299.519C116.809 298.837 116.286 298.372 115.551 298.376C114.802 298.372 114.27 298.837 114.275 299.519ZM114.798 305.154V301.955H115.63V302.877H119.13V301.955H119.971V305.154H114.798ZM115.63 304.463H119.13V303.541H115.63V304.463ZM128.223 301.867V302.549H124.981V305.242H124.157V302.549H120.958V301.867H128.223ZM121.871 300.857V297.738H127.311V300.857H121.871ZM122.695 300.201H126.469V298.412H122.695V300.201ZM134.827 297.313V300.033H135.961V300.733H134.827V303.515H133.985V297.313H134.827ZM128.528 301.973C129.139 301.973 129.852 301.973 130.601 301.947V301.393C129.697 301.287 129.121 300.852 129.13 300.201C129.121 299.43 129.879 298.97 131.017 298.979C132.156 298.97 132.9 299.43 132.904 300.201C132.9 300.852 132.337 301.287 131.443 301.388V301.907C132.151 301.867 132.869 301.8 133.533 301.698L133.604 302.292C131.912 302.611 130.003 302.633 128.616 302.646L128.528 301.973ZM128.732 298.669V298.048H130.601V297.287H131.443V298.048H133.312V298.669H128.732ZM129.697 305.083V303.098H130.539V304.401H135.11V305.083H129.697ZM129.928 300.201C129.928 300.587 130.34 300.83 131.017 300.83C131.686 300.83 132.103 300.587 132.098 300.201C132.103 299.789 131.686 299.55 131.017 299.555C130.34 299.55 129.928 299.789 129.928 300.201ZM142.813 297.322V302.017H141.971V301.052H139.969V300.361H141.971V299.395H140.053C139.539 300.671 138.348 301.57 136.629 302.062L136.292 301.406C138.17 300.87 139.269 299.86 139.42 298.58H136.7V297.889H140.332C140.332 298.181 140.301 298.465 140.248 298.731H141.971V297.322H142.813ZM137.524 303.656C137.524 302.695 138.569 302.11 140.199 302.106C141.807 302.11 142.861 302.695 142.866 303.656C142.861 304.622 141.807 305.216 140.199 305.216C138.569 305.216 137.524 304.622 137.524 303.656ZM138.356 303.656C138.356 304.215 139.065 304.538 140.199 304.542C141.311 304.538 142.02 304.215 142.024 303.656C142.02 303.089 141.311 302.766 140.199 302.77C139.065 302.766 138.356 303.089 138.356 303.656ZM152.087 298.119V298.97C152.087 299.997 152.087 301.109 151.794 302.806L150.935 302.726C151.254 301.136 151.254 299.971 151.254 298.97V298.81H146.576V298.119H152.087ZM145.797 304.126V303.426H153.035V304.126H145.797ZM160.002 297.313V305.269H159.16V297.313H160.002ZM153.853 298.713V298.031H157.574V300.928H154.721V302.664C156.011 302.66 157.131 302.598 158.46 302.381L158.54 303.072C157.136 303.306 155.94 303.36 154.535 303.364H153.862V300.254H156.715V298.713H153.853ZM167.447 298.075V298.855C167.443 299.834 167.443 300.932 167.146 302.558L166.295 302.469C166.601 300.932 166.601 299.807 166.605 298.855V298.757H161.786V298.075H167.447ZM161.024 304.179V303.479H163.779V300.68H164.612V303.479H168.262V304.179H161.024ZM175.286 297.978V298.669H174.524V300.906C174.909 300.875 175.286 300.839 175.649 300.795L175.702 301.406C174.081 301.69 172.194 301.707 170.856 301.707L170.759 301.007C171.056 301.007 171.383 301.012 171.724 301.007V298.669H170.971V297.978H175.286ZM171.521 304.56C173.022 304.312 174.147 303.466 174.152 302.398V302.257H175.029V302.398C175.02 303.466 176.145 304.312 177.642 304.56L177.324 305.216C176.092 304.999 175.06 304.396 174.586 303.515C174.112 304.396 173.08 304.999 171.857 305.216L171.521 304.56ZM172.531 300.994C172.916 300.985 173.319 300.972 173.718 300.954V298.669H172.531V300.994ZM176.367 302.664V297.313H177.208V302.664H176.367ZM181.358 301.38V302.195H178.514V301.38H181.358ZM188.228 297.322V299.873H189.379V300.573H188.228V303.258H187.386V297.322H188.228ZM181.999 298.926V298.243H183.949V297.313H184.79V298.243H186.73V298.926H181.999ZM182.434 300.804C182.429 299.896 183.213 299.302 184.365 299.306C185.503 299.302 186.287 299.896 186.287 300.804C186.287 301.703 185.503 302.288 184.365 302.292C183.213 302.288 182.429 301.703 182.434 300.804ZM183.196 305.083V302.788H184.037V304.401H188.564V305.083H183.196ZM183.249 300.804C183.24 301.322 183.692 301.641 184.365 301.636C185.038 301.641 185.49 301.322 185.499 300.804C185.49 300.281 185.038 299.958 184.365 299.953C183.692 299.958 183.24 300.281 183.249 300.804ZM198.157 297.313V305.251H197.316V297.313H198.157ZM191.637 303.089C192.292 303.085 193.037 303.081 193.816 303.063V302.265C192.89 302.141 192.288 301.597 192.292 300.821C192.288 299.927 193.068 299.337 194.215 299.333C195.375 299.337 196.168 299.927 196.173 300.821C196.168 301.588 195.57 302.128 194.649 302.261V303.032C195.384 302.996 196.128 302.943 196.828 302.85L196.89 303.479C195.127 303.772 193.205 303.794 191.752 303.789L191.637 303.089ZM191.805 298.934V298.261H193.816V297.331H194.658V298.261H196.651V298.934H191.805ZM193.09 300.821C193.081 301.326 193.55 301.641 194.215 301.636C194.901 301.641 195.367 301.326 195.367 300.821C195.367 300.312 194.901 299.989 194.215 299.989C193.55 299.989 193.081 300.312 193.09 300.821ZM201.961 299.333C201.953 300.737 202.772 302.177 203.955 302.753L203.432 303.426C202.568 302.974 201.899 302.088 201.549 301.03C201.195 302.155 200.5 303.107 199.596 303.577L199.073 302.895C200.291 302.31 201.115 300.786 201.12 299.333V297.978H201.961V299.333ZM204.548 305.251V297.313H205.39V300.476H206.666V301.194H205.39V305.251H204.548ZM214.076 300.954V301.601H206.811V300.954H214.076ZM207.67 302.762V302.159H213.181V303.904H208.521V304.56H213.429V305.154H207.679V303.346H212.348V302.762H207.67ZM207.724 298.11V297.517H213.163V299.236H208.574V299.838H213.296V300.432H207.741V298.677H212.322V298.11H207.724Z" fill="#04B014"/>
</g>
<rect x="48.5" y="39.5" width="246" height="529.176" rx="27.5" stroke="black" stroke-width="3"/>
</g>
<defs>
<filter id="filter0_dd_5326_19506" x="56.48" y="123.944" width="120.204" height="29.8075" filterUnits="userSpaceOnUse" color-interpolation-filters="sRGB">
<feFlood flood-opacity="0" result="BackgroundImageFix"/>
<feColorMatrix in="SourceAlpha" type="matrix" values="0 0 0 0 0 0 0 0 0 0 0 0 0 0 0 0 0 0 127 0" result="hardAlpha"/>
<feOffset dy="0.648"/>
<feGaussianBlur stdDeviation="2.592"/>
<feColorMatrix type="matrix" values="0 0 0 0 0.0784314 0 0 0 0 0.0784314 0 0 0 0 0.0784314 0 0 0 0.08 0"/>
<feBlend mode="normal" in2="BackgroundImageFix" result="effect1_dropShadow_5326_19506"/>
<feColorMatrix in="SourceAlpha" type="matrix" values="0 0 0 0 0 0 0 0 0 0 0 0 0 0 0 0 0 0 127 0" result="hardAlpha"/>
<feOffset/>
<feGaussianBlur stdDeviation="0.324"/>
<feColorMatrix type="matrix" values="0 0 0 0 0.0784314 0 0 0 0 0.0784314 0 0 0 0 0.0784314 0 0 0 0.12 0"/>
<feBlend mode="normal" in2="effect1_dropShadow_5326_19506" result="effect2_dropShadow_5326_19506"/>
<feBlend mode="normal" in="SourceGraphic" in2="effect2_dropShadow_5326_19506" result="shape"/>
</filter>
<clipPath id="clip0_5326_19506">
<rect width="343" height="343" rx="24" fill="white"/>
</clipPath>
<clipPath id="clip1_5326_19506">
<rect x="50" y="41" width="243" height="526.176" rx="26" fill="white"/>
</clipPath>
</defs>
</svg>
