<svg width="343" height="343" viewBox="0 0 343 343" fill="none" xmlns="http://www.w3.org/2000/svg">
<g clip-path="url(#clip0_5311_17697)">
<rect width="343" height="343" rx="24" fill="#F7F7FB"/>
<g clip-path="url(#clip1_5311_17697)">
<rect x="50" y="55" width="243" height="526.176" rx="26" fill="white"/>
<path d="M67.2897 167.63C69.4995 167.63 70.8949 168.331 70.9006 169.521C70.8949 170.706 69.4995 171.406 67.2897 171.4C65.1027 171.406 63.7017 170.706 63.7017 169.521C63.7017 168.331 65.1027 167.63 67.2897 167.63ZM62.6993 166.787V165.91H66.424V163.997H67.4834V165.91H71.9827V166.787H62.6993ZM63.7814 162.584V161.718H70.8208V162.573C70.8265 163.387 70.8265 164.23 70.5361 165.284L69.4767 165.17C69.7501 164.128 69.7501 163.376 69.7501 162.584H63.7814ZM64.7838 169.521C64.7724 170.182 65.7463 170.563 67.2897 170.569C68.8502 170.563 69.8184 170.182 69.8298 169.521C69.8184 168.849 68.8502 168.456 67.2897 168.45C65.7463 168.456 64.7724 168.849 64.7838 169.521ZM81.5052 161.217V171.423H80.4687V166.127H79.2043V170.933H78.1906V161.491H79.2043V165.25H80.4687V161.217H81.5052ZM72.7344 168.507C75.0012 167.22 75.9523 165.483 76.1232 163.404H73.1673V162.516H77.1768C77.1711 165.198 76.2826 167.613 73.3609 169.259L72.7344 168.507ZM94.2058 161.217V166.468H93.1237V163.849H90.9708V162.971H93.1237V161.217H94.2058ZM85.6628 165.648C87.2575 165.141 88.2086 163.871 88.2143 162.436V161.548H89.285V162.436C89.285 163.735 90.2191 164.942 91.7568 165.432L91.1873 166.275C90.0653 165.887 89.2167 165.119 88.7668 164.145C88.3225 165.244 87.4511 166.098 86.2437 166.514L85.6628 165.648ZM87.5309 167.801V166.947H94.2058V169.487H88.613V170.432H94.5589V171.298H87.5537V168.667H93.1351V167.801H87.5309ZM104.286 161.217V167.288H103.204V164.703H101.302V163.814H103.204V161.217H104.286ZM95.7777 166.366C97.361 165.813 98.3349 164.435 98.3292 163.028V162.801H96.1194V161.924H101.621V162.801H99.4341V163.017C99.4284 164.31 100.351 165.569 101.894 166.092L101.336 166.947C100.192 166.554 99.3486 165.734 98.9044 164.726C98.4602 165.865 97.566 166.782 96.3472 167.232L95.7777 166.366ZM97.4179 169.498C97.4122 168.285 98.7222 167.579 100.869 167.573C103.005 167.579 104.315 168.285 104.321 169.498C104.315 170.711 103.005 171.418 100.869 171.423C98.7222 171.418 97.4122 170.711 97.4179 169.498ZM98.4886 169.498C98.483 170.187 99.3714 170.58 100.869 170.569C102.356 170.58 103.244 170.187 103.25 169.498C103.244 168.803 102.356 168.41 100.869 168.416C99.3714 168.41 98.483 168.803 98.4886 169.498Z" fill="#131214"/>
<rect x="246.344" y="156.088" width="36" height="21" rx="10.5" fill="#131214"/>
<path d="M263.192 166.457C263.192 161.446 267.254 157.385 272.264 157.385C277.274 157.385 281.336 161.446 281.336 166.457C281.336 171.467 277.274 175.529 272.264 175.529C267.254 175.529 263.192 171.467 263.192 166.457Z" fill="white"/>
<path d="M64.2345 189.064L62.4538 182.65H63.4815L64.7306 187.612H64.7838L66.0861 182.65H67.0961L68.3984 187.612H68.4516L69.7007 182.65H70.7284L68.9477 189.064H67.9643L66.6177 184.272H66.5645L65.2179 189.064H64.2345ZM73.0053 189.162C71.6409 189.162 70.7506 188.17 70.755 186.681C70.7506 185.184 71.6409 184.192 73.0053 184.192C74.3608 184.192 75.2467 185.184 75.2467 186.681C75.2467 188.17 74.3608 189.162 73.0053 189.162ZM71.703 186.681C71.703 187.598 72.1238 188.373 73.0053 188.373C73.8735 188.373 74.2899 187.598 74.2899 186.681C74.2899 185.76 73.8735 184.976 73.0053 184.971C72.1238 184.976 71.703 185.76 71.703 186.681ZM76.1769 189.064V184.254H77.0895V185.016H77.1426C77.3198 184.502 77.8026 184.179 78.3652 184.183C78.4804 184.179 78.6664 184.192 78.7639 184.201V185.104C78.6842 185.087 78.4627 185.047 78.2678 185.051C77.6122 185.047 77.1249 185.503 77.1249 186.132V189.064H76.1769ZM79.4726 189.064V182.65H80.4206V186.283H80.5003L82.4051 184.254H83.5391L81.5945 186.318L83.672 189.064H82.5114L80.8768 186.903L80.4206 187.355V189.064H79.4726ZM84.2833 190.872V184.254H85.2047V185.033H85.2844C85.4527 184.732 85.7761 184.192 86.6664 184.192C87.8315 184.192 88.6864 185.104 88.6864 186.672C88.6864 188.223 87.8403 189.157 86.6753 189.162C85.8027 189.157 85.4571 188.626 85.2844 188.311H85.2312V190.872H84.2833ZM85.2135 186.655C85.2135 187.665 85.6565 188.351 86.4627 188.356C87.2955 188.351 87.7296 187.62 87.7296 186.655C87.7296 185.707 87.3088 184.994 86.4627 184.998C85.6476 184.994 85.2135 185.654 85.2135 186.655ZM90.5734 182.65V189.064H89.6255V182.65H90.5734ZM91.5037 187.709C91.4992 186.61 92.4339 186.327 93.3021 186.265C93.6211 186.247 94.3431 186.207 94.5646 186.198L94.5602 185.813C94.5646 185.268 94.2279 184.954 93.5856 184.954C93.0275 184.954 92.6908 185.211 92.5934 185.565H91.6543C91.7384 184.768 92.4826 184.192 93.6211 184.192C94.3874 184.192 95.5037 184.471 95.5081 185.866V189.064H94.5867V188.409H94.5513C94.3652 188.768 93.9223 189.171 93.1249 189.171C92.2124 189.171 91.4992 188.648 91.5037 187.709ZM92.425 187.718C92.425 188.179 92.806 188.413 93.3376 188.418C94.1083 188.413 94.569 187.899 94.569 187.328L94.5646 186.889C94.3475 186.903 93.6609 186.951 93.435 186.965C92.8149 187.009 92.425 187.244 92.425 187.718ZM98.6886 189.162C97.2844 189.162 96.4339 188.13 96.4383 186.681C96.4339 185.215 97.3154 184.192 98.6709 184.192C99.7695 184.192 100.562 184.839 100.664 185.813H99.7429C99.6454 185.361 99.2866 184.985 98.6886 184.98C97.909 184.985 97.3863 185.631 97.3863 186.655C97.3863 187.709 97.8957 188.36 98.6886 188.356C99.2246 188.36 99.6233 188.059 99.7429 187.541H100.664C100.562 188.475 99.8226 189.162 98.6886 189.162ZM103.632 189.162C102.215 189.162 101.342 188.183 101.346 186.69C101.342 185.211 102.228 184.192 103.57 184.192C104.664 184.192 105.705 184.87 105.705 186.61V186.947H102.286C102.312 187.864 102.853 188.382 103.641 188.382C104.177 188.382 104.527 188.152 104.686 187.86H105.643C105.431 188.639 104.691 189.162 103.632 189.162ZM102.29 186.238H104.775C104.775 185.507 104.301 184.967 103.579 184.971C102.822 184.967 102.33 185.561 102.29 186.238ZM113.28 184.741C113.125 183.913 112.438 183.452 111.623 183.456C110.516 183.452 109.696 184.303 109.692 185.857C109.696 187.421 110.52 188.263 111.623 188.258C112.43 188.263 113.112 187.811 113.28 186.991L114.263 187C114.06 188.267 113.028 189.153 111.614 189.153C109.944 189.153 108.726 187.908 108.726 185.857C108.726 183.806 109.953 182.562 111.614 182.562C112.97 182.562 114.046 183.363 114.263 184.741H113.28ZM115.016 187.709C115.012 186.61 115.947 186.327 116.815 186.265C117.134 186.247 117.856 186.207 118.077 186.198L118.073 185.813C118.077 185.268 117.741 184.954 117.098 184.954C116.54 184.954 116.204 185.211 116.106 185.565H115.167C115.251 184.768 115.995 184.192 117.134 184.192C117.9 184.192 119.016 184.471 119.021 185.866V189.064H118.1V188.409H118.064C117.878 188.768 117.435 189.171 116.638 189.171C115.725 189.171 115.012 188.648 115.016 187.709ZM115.938 187.718C115.938 188.179 116.319 188.413 116.85 188.418C117.621 188.413 118.082 187.899 118.082 187.328L118.077 186.889C117.86 186.903 117.174 186.951 116.948 186.965C116.328 187.009 115.938 187.244 115.938 187.718ZM120.164 189.064V184.254H121.076V185.016H121.129C121.307 184.502 121.789 184.179 122.352 184.183C122.467 184.179 122.653 184.192 122.751 184.201V185.104C122.671 185.087 122.449 185.047 122.255 185.051C121.599 185.047 121.112 185.503 121.112 186.132V189.064H120.164ZM125.098 189.162C123.938 189.157 123.087 188.223 123.087 186.672C123.087 185.104 123.951 184.192 125.107 184.192C126.002 184.192 126.325 184.732 126.498 185.033H126.542V182.65H127.49V189.064H126.569V188.311H126.498C126.321 188.626 125.975 189.157 125.098 189.162ZM124.053 186.655C124.049 187.62 124.483 188.351 125.311 188.356C126.117 188.351 126.569 187.665 126.569 186.655C126.569 185.654 126.126 184.994 125.311 184.998C124.474 184.994 124.049 185.707 124.053 186.655ZM135.694 185.521V186.167H128.43V185.521H135.694ZM129.289 187.328V186.726H134.799V188.471H130.139V189.126H135.047V189.72H129.298V187.913H133.967V187.328H129.289ZM129.342 182.677V182.083H134.782V183.802H130.193V184.404H134.915V184.998H129.36V183.244H133.94V182.677H129.342ZM142.073 186.867C143.792 186.867 144.877 187.412 144.881 188.338C144.877 189.259 143.792 189.804 142.073 189.8C140.372 189.804 139.282 189.259 139.282 188.338C139.282 187.412 140.372 186.867 142.073 186.867ZM138.503 186.212V185.53H141.4V184.041H142.224V185.53H145.723V186.212H138.503ZM139.344 182.943V182.269H144.819V182.934C144.824 183.567 144.824 184.223 144.598 185.042L143.774 184.954C143.987 184.143 143.987 183.558 143.987 182.943H139.344ZM140.124 188.338C140.115 188.852 140.873 189.149 142.073 189.153C143.287 189.149 144.04 188.852 144.049 188.338C144.04 187.815 143.287 187.51 142.073 187.505C140.873 187.51 140.115 187.815 140.124 188.338ZM153.129 181.88V189.817H152.323V185.698H151.34V189.437H150.551V182.092H151.34V185.016H152.323V181.88H153.129ZM146.308 187.55C148.071 186.548 148.811 185.197 148.943 183.581H146.644V182.889H149.763C149.758 184.976 149.067 186.854 146.795 188.134L146.308 187.55ZM160.412 181.853V183.713H161.572V184.404H160.412V186.221H159.57V181.853H160.412ZM154.184 183.217V182.553H156.133V181.809H156.974V182.553H158.915V183.217H154.184ZM154.618 184.821C154.613 184.019 155.384 183.518 156.549 183.518C157.714 183.518 158.472 184.019 158.472 184.821C158.472 185.627 157.714 186.119 156.549 186.114C155.384 186.119 154.613 185.627 154.618 184.821ZM155.282 187.222V186.593H160.412V188.435H156.124V189.1H160.687V189.738H155.3V187.842H159.579V187.222H155.282ZM155.433 184.821C155.424 185.25 155.863 185.503 156.549 185.503C157.231 185.503 157.674 185.25 157.683 184.821C157.674 184.391 157.231 184.125 156.549 184.121C155.863 184.125 155.424 184.391 155.433 184.821ZM164.939 184.218C164.935 185.547 165.807 186.92 167.03 187.443L166.569 188.099C165.634 187.687 164.89 186.81 164.523 185.751C164.155 186.885 163.411 187.851 162.485 188.303L161.998 187.638C163.194 187.076 164.08 185.587 164.089 184.218V183.377H162.272V182.677H166.746V183.377H164.939V184.218ZM167.747 189.817V181.88H168.589V189.817H167.747ZM172.443 182.447C173.697 182.442 174.6 183.217 174.605 184.334C174.6 185.45 173.697 186.225 172.443 186.229C171.194 186.225 170.277 185.45 170.281 184.334C170.277 183.217 171.194 182.442 172.443 182.447ZM169.9 187.425C171.344 187.425 173.347 187.412 175.083 187.16L175.145 187.771C173.351 188.117 171.424 188.125 170.007 188.125L169.9 187.425ZM171.114 184.334C171.105 185.038 171.672 185.494 172.443 185.494C173.214 185.494 173.781 185.038 173.781 184.334C173.781 183.638 173.214 183.173 172.443 183.173C171.672 183.173 171.105 183.638 171.114 184.334ZM175.579 189.835V181.88H176.421V189.835H175.579ZM182.064 182.473C182.791 182.478 183.384 182.889 183.734 183.607H185.697V181.88H186.529V189.835H185.697V186.788H183.792C183.451 187.585 182.831 188.05 182.064 188.046C180.881 188.05 180.044 186.969 180.053 185.255C180.044 183.558 180.881 182.478 182.064 182.473ZM180.85 185.255C180.855 186.517 181.347 187.293 182.064 187.293C182.782 187.293 183.274 186.517 183.278 185.255C183.274 184.01 182.782 183.231 182.064 183.226C181.347 183.231 180.855 184.01 180.85 185.255ZM183.973 184.298C184.035 184.59 184.075 184.909 184.075 185.255C184.075 185.556 184.049 185.835 183.996 186.097H185.697V184.298H183.973ZM195.008 186.548V187.213H191.765V189.817H190.941V187.213H187.743V186.548H195.008ZM188.647 185.645V182.198H189.479V183.235H193.254V182.198H194.095V185.645H188.647ZM189.479 184.971H193.254V183.908H189.479V184.971ZM202.848 185.521V186.167H195.584V185.521H202.848ZM196.443 187.328V186.726H201.953V188.471H197.293V189.126H202.202V189.72H196.452V187.913H201.121V187.328H196.443ZM196.496 182.677V182.083H201.936V183.802H197.347V184.404H202.069V184.998H196.514V183.244H201.094V182.677H196.496ZM69.2223 194.88V198.964H68.3807V196.926H66.7063V196.244H68.3807V194.88H69.2223ZM62.5778 198.326C63.8181 197.932 64.5579 196.944 64.5623 195.827V195.136H65.3951V195.827C65.3951 196.837 66.1216 197.777 67.3176 198.157L66.8746 198.813C66.002 198.512 65.3419 197.914 64.992 197.156C64.6465 198.011 63.9687 198.676 63.0296 198.999L62.5778 198.326ZM64.0307 200V199.336H69.2223V201.311H64.8724V202.047H69.497V202.72H64.0485V200.674H68.3896V200H64.0307ZM77.0629 194.88V199.602H76.2212V197.59H74.7417V196.899H76.2212V194.88H77.0629ZM70.4449 198.884C71.6764 198.454 72.4339 197.382 72.4294 196.288V196.111H70.7107V195.429H74.9898V196.111H73.2888V196.279C73.2844 197.285 74.002 198.264 75.2024 198.671L74.7683 199.336C73.8779 199.03 73.2223 198.392 72.8768 197.608C72.5313 198.494 71.8359 199.207 70.8879 199.557L70.4449 198.884ZM71.7207 201.32C71.7163 200.377 72.7351 199.827 74.4051 199.823C76.0662 199.827 77.085 200.377 77.0895 201.32C77.085 202.264 76.0662 202.813 74.4051 202.817C72.7351 202.813 71.7163 202.264 71.7207 201.32ZM72.5535 201.32C72.549 201.856 73.2401 202.162 74.4051 202.153C75.5612 202.162 76.2523 201.856 76.2567 201.32C76.2523 200.78 75.5612 200.474 74.4051 200.479C73.2401 200.474 72.549 200.78 72.5535 201.32ZM84.4693 194.88V198.095H85.7451V198.795H84.4693V202.817H83.6365V194.88H84.4693ZM78.2412 196.811V196.12H80.1991V194.986H81.0407V196.12H82.9455V196.811H78.2412ZM78.6487 199.238C78.6487 198.157 79.4815 197.396 80.6244 197.396C81.7628 197.396 82.5956 198.157 82.6 199.238C82.5956 200.328 81.7628 201.085 80.6244 201.09C79.4815 201.085 78.6487 200.328 78.6487 199.238ZM79.4549 199.238C79.4505 199.929 79.9466 200.39 80.6244 200.381C81.2977 200.39 81.7894 199.929 81.7938 199.238C81.7894 198.561 81.2977 198.091 80.6244 198.087C79.9466 198.091 79.4505 198.561 79.4549 199.238ZM92.5491 197.201V197.874H87.0828V195.163H87.9156V197.201H92.5491ZM86.1172 199.548V198.875H93.3819V199.548H86.1172ZM87.0208 202.631V200.301H87.8625V201.94H92.6022V202.631H87.0208ZM102.782 194.88V202.817H101.931V194.88H102.782ZM96.2612 200.691C98.3697 199.686 99.4018 198.255 99.5657 196.403H96.6421V195.73H100.416C100.416 198.056 99.4284 200.067 96.7041 201.373L96.2612 200.691ZM110.436 197.023V197.706H104.988V195.021H105.82V197.023H110.436ZM104.022 199.238V198.547H111.269V199.238H104.022ZM104.881 201.329C104.881 200.403 105.913 199.881 107.637 199.885C109.346 199.881 110.37 200.403 110.374 201.329C110.37 202.259 109.346 202.782 107.637 202.782C105.913 202.782 104.881 202.259 104.881 201.329ZM105.732 201.329C105.727 201.839 106.423 202.131 107.637 202.135C108.833 202.131 109.532 201.839 109.532 201.329C109.532 200.815 108.833 200.545 107.637 200.541C106.423 200.545 105.727 200.815 105.732 201.329ZM118.445 194.88V199.141H117.603V194.88H118.445ZM112.022 197.085C112.026 195.996 112.921 195.238 114.139 195.243C115.353 195.238 116.248 195.996 116.248 197.085C116.248 198.171 115.353 198.928 114.139 198.919C112.921 198.928 112.026 198.171 112.022 197.085ZM112.846 197.085C112.841 197.772 113.386 198.228 114.139 198.228C114.884 198.228 115.424 197.772 115.424 197.085C115.424 196.408 114.884 195.947 114.139 195.951C113.386 195.947 112.841 196.408 112.846 197.085ZM113.253 202.72V199.522H114.077V200.417H117.612V199.522H118.445V202.72H113.253ZM114.077 202.029H117.612V201.081H114.077V202.029ZM126.294 194.88V202.817H125.453V194.88H126.294ZM120.19 200.798V195.65H121.023V200.071C122.184 200.067 123.402 199.965 124.673 199.708L124.788 200.417C123.384 200.705 122.108 200.802 120.855 200.798H120.19ZM133.727 194.88V197.954H135.003V198.645H133.727V202.835H132.886V194.88H133.727ZM127.88 200.86V195.641H131.592V196.324H128.722V200.16C130.055 200.155 131.052 200.098 132.186 199.894L132.292 200.603C131.047 200.824 129.993 200.864 128.518 200.86H127.88ZM136.288 202.126C135.942 202.122 135.654 201.843 135.659 201.497C135.654 201.152 135.942 200.868 136.288 200.868C136.629 200.868 136.912 201.152 136.917 201.497C136.912 201.843 136.629 202.122 136.288 202.126Z" fill="#898D8F"/>
<path d="M71.1967 227.996V235.514H70.1146V232.86H67.5802C67.1018 233.435 66.3614 233.783 65.5128 233.783C63.9751 233.783 62.8303 232.706 62.836 231.208C62.8303 229.699 63.9751 228.623 65.5128 228.611C66.3557 228.617 67.0904 228.964 67.5688 229.534H70.1146V227.996H71.1967ZM63.8725 231.208C63.8668 232.171 64.556 232.832 65.5128 232.826C66.4297 232.832 67.1303 232.171 67.1303 231.208C67.1303 230.246 66.4297 229.585 65.5128 229.58C64.556 229.585 63.8668 230.246 63.8725 231.208ZM64.5674 237.974V234.728H65.6495V237.097H71.4701V237.974H64.5674ZM68.0472 230.411C68.1269 230.662 68.1668 230.924 68.1668 231.208C68.1668 231.482 68.1269 231.744 68.0529 231.983H70.1146V230.411H68.0472ZM81.2774 227.985V233.179H80.1953V232.199H77.6096V231.356H80.1953V230.252H77.7349C77.1028 231.835 75.5593 232.883 73.304 233.407L72.9281 232.518C75.3771 231.977 76.6984 230.838 76.8749 229.34H73.4634V228.452H78.0653C78.0653 228.782 78.0368 229.095 77.9798 229.397H80.1953V227.985H81.2774ZM74.6025 234.466V233.612H81.2774V236.198H75.696V237.223H81.585V238.088H74.6253V235.377H80.1953V234.466H74.6025ZM95.0373 236.015V236.915H85.697V236.015H87.9295V233.35C87.0923 232.889 86.5798 232.16 86.5854 231.243C86.5798 229.637 88.1574 228.583 90.3444 228.577C92.537 228.583 94.1147 229.637 94.1147 231.243C94.1147 232.142 93.6249 232.866 92.8047 233.327V236.015H95.0373ZM87.6334 231.243C87.6334 232.336 88.744 233.048 90.3444 233.054C91.9333 233.048 93.061 232.336 93.0667 231.243C93.061 230.143 91.9333 229.443 90.3444 229.443C88.744 229.443 87.6334 230.143 87.6334 231.243ZM89.0003 236.015H91.7112V233.749C91.2955 233.845 90.8342 233.897 90.3444 233.897C89.8659 233.897 89.4103 233.845 89.0003 233.749V236.015ZM99.3543 230.16C99.3543 231.362 100.34 232.484 101.894 232.917L101.382 233.76C100.197 233.424 99.3088 232.695 98.8418 231.749C98.3975 232.803 97.5091 233.64 96.2903 234.022L95.7777 233.19C97.3268 232.695 98.2836 231.476 98.2836 230.16V230.035H96.0624V229.169H98.2836V227.939H99.3657V229.169H101.576V230.035H99.3543V230.16ZM97.4179 236.277C97.4122 235.081 98.7279 234.403 100.869 234.398C103.005 234.403 104.315 235.081 104.321 236.277C104.315 237.479 103.005 238.174 100.869 238.168C98.7279 238.174 97.4122 237.479 97.4179 236.277ZM98.4886 236.277C98.483 236.938 99.3714 237.331 100.869 237.337C102.367 237.331 103.244 236.938 103.25 236.277C103.244 235.617 102.367 235.241 100.869 235.241C99.3714 235.241 98.483 235.617 98.4886 236.277ZM101.257 231.732V230.844H103.204V227.985H104.286V234.17H103.204V231.732H101.257ZM117.215 227.985V233.236H116.133V230.616H113.98V229.739H116.133V227.985H117.215ZM108.672 232.416C110.267 231.909 111.218 230.639 111.223 229.204V228.315H112.294V229.204C112.294 230.502 113.228 231.71 114.766 232.199L114.196 233.042C113.074 232.655 112.226 231.886 111.776 230.912C111.332 232.011 110.46 232.866 109.253 233.282L108.672 232.416ZM110.54 234.569V233.714H117.215V236.254H111.622V237.2H117.568V238.066H110.563V235.434H116.144V234.569H110.54ZM127.296 227.985V234.056H126.213V231.47H124.311V230.582H126.213V227.985H127.296ZM118.787 233.133C120.37 232.581 121.344 231.203 121.338 229.796V229.568H119.128V228.691H124.63V229.568H122.443V229.785C122.437 231.077 123.36 232.336 124.904 232.86L124.345 233.714C123.201 233.321 122.358 232.501 121.913 231.493C121.469 232.632 120.575 233.549 119.356 233.999L118.787 233.133ZM120.427 236.266C120.421 235.053 121.731 234.347 123.878 234.341C126.014 234.347 127.324 235.053 127.33 236.266C127.324 237.479 126.014 238.185 123.878 238.191C121.731 238.185 120.421 237.479 120.427 236.266ZM121.498 236.266C121.492 236.955 122.38 237.348 123.878 237.337C125.365 237.348 126.253 236.955 126.259 236.266C126.253 235.571 125.365 235.178 123.878 235.184C122.38 235.178 121.492 235.571 121.498 236.266Z" fill="#131214"/>
<rect x="246.344" y="222.855" width="36" height="21" rx="10.5" fill="#E6E9EB"/>
<rect x="247.64" y="224.152" width="18.144" height="18.144" rx="9.072" fill="white"/>
<path d="M69.373 248.656V253.245H68.5756V248.656H69.373ZM62.9411 252.687V249.223H66.0418V250.561H67.0252V248.807H67.8226V253.148H67.0252V251.261H66.0418V252.687H62.9411ZM63.7295 252.049H65.2622V249.879H63.7295V252.049ZM64.0751 256.488V253.608H69.373V256.488H64.0751ZM64.899 255.805H68.549V254.273H64.899V255.805ZM77.0629 248.647V256.603H76.2301V252.235H74.476V254.636H70.755V249.258H71.6055V251.287H73.652V249.258H74.476V251.544H76.2301V248.647H77.0629ZM71.6055 253.945H73.652V251.952H71.6055V253.945ZM87.1183 248.656V254.503H86.2767V252.439H84.3054C83.9333 252.886 83.3575 253.157 82.6975 253.157C81.5014 253.157 80.6111 252.319 80.6155 251.154C80.6111 249.98 81.5014 249.143 82.6975 249.134C83.3531 249.139 83.9245 249.409 84.2966 249.852H86.2767V248.656H87.1183ZM81.4217 251.154C81.4173 251.903 81.9533 252.417 82.6975 252.412C83.4106 252.417 83.9555 251.903 83.9555 251.154C83.9555 250.406 83.4106 249.892 82.6975 249.887C81.9533 249.892 81.4173 250.406 81.4217 251.154ZM81.9621 256.417V253.892H82.8038V255.735H87.3309V256.417H81.9621ZM84.6687 250.534C84.7307 250.729 84.7617 250.933 84.7617 251.154C84.7617 251.367 84.7307 251.571 84.6731 251.757H86.2767V250.534H84.6687ZM94.9588 248.647V252.687H94.1172V251.925H92.1061V251.269H94.1172V250.41H92.2036C91.7119 251.642 90.5114 252.457 88.7573 252.864L88.4649 252.173C90.3697 251.752 91.3974 250.866 91.5347 249.701H88.8813V249.01H92.4605C92.4605 249.267 92.4383 249.511 92.394 249.746H94.1172V248.647H94.9588ZM89.7672 253.688V253.024H94.9588V255.035H90.6177V255.832H95.198V256.505H89.785V254.397H94.1172V253.688H89.7672ZM105.661 254.893V255.593H98.3963V254.893H100.133V252.82C99.4815 252.461 99.0829 251.894 99.0873 251.181C99.0829 249.932 100.31 249.112 102.011 249.108C103.716 249.112 104.943 249.932 104.943 251.181C104.943 251.881 104.562 252.443 103.925 252.802V254.893H105.661ZM99.9024 251.181C99.9024 252.031 100.766 252.585 102.011 252.59C103.247 252.585 104.124 252.031 104.128 251.181C104.124 250.326 103.247 249.781 102.011 249.781C100.766 249.781 99.9024 250.326 99.9024 251.181ZM100.965 254.893H103.074V253.13C102.751 253.205 102.392 253.245 102.011 253.245C101.639 253.245 101.284 253.205 100.965 253.13V254.893ZM109.019 250.339C109.019 251.274 109.785 252.147 110.994 252.483L110.596 253.139C109.674 252.877 108.983 252.31 108.62 251.575C108.274 252.395 107.583 253.046 106.635 253.343L106.237 252.696C107.442 252.31 108.186 251.362 108.186 250.339V250.242H106.458V249.568H108.186V248.612H109.028V249.568H110.746V250.242H109.019V250.339ZM107.513 255.097C107.508 254.166 108.531 253.639 110.197 253.635C111.858 253.639 112.877 254.166 112.881 255.097C112.877 256.031 111.858 256.572 110.197 256.567C108.531 256.572 107.508 256.031 107.513 255.097ZM108.345 255.097C108.341 255.611 109.032 255.916 110.197 255.921C111.362 255.916 112.044 255.611 112.049 255.097C112.044 254.583 111.362 254.291 110.197 254.291C109.032 254.291 108.341 254.583 108.345 255.097ZM110.498 251.562V250.871H112.013V248.647H112.855V253.458H112.013V251.562H110.498ZM117.692 248.78C119.482 248.776 120.523 249.258 120.527 250.144C120.523 251.035 119.482 251.518 117.692 251.518C115.902 251.518 114.853 251.035 114.857 250.144C114.853 249.258 115.902 248.776 117.692 248.78ZM114.077 252.678V252.005H121.315V252.678H114.077ZM114.946 253.918V253.289H120.403V255.15H115.778V255.859H120.624V256.505H114.954V254.539H119.57V253.918H114.946ZM115.734 250.144C115.73 250.636 116.43 250.889 117.692 250.889C118.963 250.889 119.663 250.636 119.659 250.144C119.663 249.675 118.963 249.4 117.692 249.4C116.43 249.4 115.73 249.675 115.734 250.144ZM130.37 248.647V250.525H131.521V251.225H130.37V253.281H129.528V248.647H130.37ZM124.443 252.82V249.099H125.267V250.251H127.349V249.099H128.181V252.82H124.443ZM125.267 252.155H127.349V250.915H125.267V252.155ZM125.311 256.47V253.697H130.432V254.37H126.153V255.805H130.574V256.47H125.311ZM135.588 248.78C137.378 248.776 138.419 249.258 138.423 250.144C138.419 251.035 137.378 251.518 135.588 251.518C133.798 251.518 132.749 251.035 132.753 250.144C132.749 249.258 133.798 248.776 135.588 248.78ZM131.973 252.678V252.005H139.211V252.678H131.973ZM132.842 253.918V253.289H138.299V255.15H133.674V255.859H138.52V256.505H132.85V254.539H137.466V253.918H132.842ZM133.63 250.144C133.626 250.636 134.325 250.889 135.588 250.889C136.859 250.889 137.559 250.636 137.555 250.144C137.559 249.675 136.859 249.4 135.588 249.4C134.325 249.4 133.626 249.675 133.63 250.144ZM142.737 250.986C142.733 252.315 143.606 253.688 144.828 254.211L144.368 254.866C143.433 254.454 142.689 253.577 142.321 252.519C141.953 253.653 141.209 254.618 140.283 255.07L139.796 254.406C140.992 253.843 141.878 252.355 141.887 250.986V250.144H140.071V249.444H144.545V250.144H142.737V250.986ZM145.546 256.585V248.647H146.388V256.585H145.546ZM150.241 249.214C151.495 249.21 152.399 249.985 152.403 251.101C152.399 252.217 151.495 252.993 150.241 252.997C148.992 252.993 148.075 252.217 148.08 251.101C148.075 249.985 148.992 249.21 150.241 249.214ZM147.699 254.193C149.143 254.193 151.145 254.18 152.881 253.927L152.943 254.539C151.149 254.884 149.223 254.893 147.805 254.893L147.699 254.193ZM148.912 251.101C148.904 251.805 149.471 252.262 150.241 252.262C151.012 252.262 151.579 251.805 151.579 251.101C151.579 250.406 151.012 249.941 150.241 249.941C149.471 249.941 148.904 250.406 148.912 251.101ZM153.378 256.603V248.647H154.219V256.603H153.378ZM159.863 249.241C160.589 249.245 161.183 249.657 161.533 250.375H163.495V248.647H164.328V256.603H163.495V253.555H161.59C161.249 254.353 160.629 254.818 159.863 254.813C158.68 254.818 157.843 253.737 157.852 252.023C157.843 250.326 158.68 249.245 159.863 249.241ZM158.649 252.023C158.653 253.285 159.145 254.06 159.863 254.06C160.58 254.06 161.072 253.285 161.076 252.023C161.072 250.778 160.58 249.998 159.863 249.994C159.145 249.998 158.653 250.778 158.649 252.023ZM161.772 251.066C161.834 251.358 161.874 251.677 161.874 252.023C161.874 252.324 161.847 252.603 161.794 252.864H163.495V251.066H161.772ZM172.806 253.316V253.98H169.564V256.585H168.74V253.98H165.541V253.316H172.806ZM166.445 252.412V248.966H167.278V250.003H171.052V248.966H171.894V252.412H166.445ZM167.278 251.739H171.052V250.676H167.278V251.739ZM180.647 252.288V252.935H173.382V252.288H180.647ZM174.241 254.096V253.493H179.752V255.238H175.092V255.894H180V256.488H174.25V254.68H178.919V254.096H174.241ZM174.295 249.444V248.851H179.734V250.57H175.145V251.172H179.867V251.766H174.312V250.011H178.893V249.444H174.295ZM190.064 248.647V252.731H189.223V250.694H187.548V250.011H189.223V248.647H190.064ZM183.42 252.093C184.66 251.699 185.4 250.711 185.404 249.595V248.904H186.237V249.595C186.237 250.605 186.963 251.544 188.159 251.925L187.716 252.581C186.844 252.279 186.184 251.681 185.834 250.924C185.488 251.779 184.811 252.443 183.872 252.767L183.42 252.093ZM184.873 253.768V253.103H190.064V255.079H185.714V255.814H190.339V256.488H184.89V254.441H189.231V253.768H184.873ZM197.905 248.647V253.369H197.063V251.358H195.584V250.667H197.063V248.647H197.905ZM191.287 252.652C192.518 252.222 193.276 251.15 193.271 250.056V249.879H191.553V249.196H195.832V249.879H194.131V250.047C194.126 251.052 194.844 252.031 196.044 252.439L195.61 253.103C194.72 252.798 194.064 252.16 193.719 251.376C193.373 252.262 192.678 252.975 191.73 253.325L191.287 252.652ZM192.563 255.088C192.558 254.144 193.577 253.595 195.247 253.591C196.908 253.595 197.927 254.144 197.931 255.088C197.927 256.031 196.908 256.581 195.247 256.585C193.577 256.581 192.558 256.031 192.563 255.088ZM193.395 255.088C193.391 255.624 194.082 255.929 195.247 255.921C196.403 255.929 197.094 255.624 197.099 255.088C197.094 254.547 196.403 254.242 195.247 254.246C194.082 254.242 193.391 254.547 193.395 255.088ZM66.5291 262.958V263.64H62.5867V262.958H64.1459V261.877H64.9787V262.958H66.5291ZM62.8436 265.944C62.8392 264.876 63.5656 264.119 64.5623 264.119C65.5679 264.119 66.2855 264.876 66.2899 265.944C66.2855 267.029 65.5679 267.791 64.5623 267.787C63.5656 267.791 62.8392 267.029 62.8436 265.944ZM63.5878 265.944C63.5834 266.617 63.9909 267.069 64.5623 267.069C65.1338 267.069 65.5457 266.617 65.5457 265.944C65.5457 265.284 65.1338 264.823 64.5623 264.819C63.9909 264.823 63.5834 265.284 63.5878 265.944ZM66.8923 269.213V261.824H67.6897V264.952H68.6022V261.647H69.3995V269.585H68.6022V265.643H67.6897V269.213H66.8923ZM77.6831 266.121V266.803H74.4582V269.576H73.6343V266.803H70.4449V266.121H77.6831ZM70.8525 264.854C72.332 264.65 73.5634 263.769 73.59 262.79H71.1183V262.117H77.0009V262.79H74.5468C74.5601 263.769 75.7827 264.65 77.2844 264.854L76.9743 265.519C75.672 265.315 74.5468 264.673 74.064 263.769C73.5767 264.673 72.456 265.315 71.1714 265.519L70.8525 264.854ZM84.7085 263.968V264.642H79.2423V261.931H80.0751V263.968H84.7085ZM78.2766 266.316V265.643H85.5413V266.316H78.2766ZM79.1803 269.399V267.069H80.0219V268.708H84.7617V269.399H79.1803ZM94.9411 261.647V269.585H94.0906V261.647H94.9411ZM88.4206 267.459C90.5292 266.453 91.5613 265.023 91.7252 263.171H88.8016V262.498H92.5757C92.5757 264.823 91.5878 266.834 88.8636 268.141L88.4206 267.459ZM102.596 263.791V264.473H97.1471V261.789H97.9799V263.791H102.596ZM96.1814 266.006V265.315H103.428V266.006H96.1814ZM97.0408 268.097C97.0408 267.171 98.0729 266.648 99.7961 266.653C101.506 266.648 102.529 267.171 102.534 268.097C102.529 269.027 101.506 269.55 99.7961 269.55C98.0729 269.55 97.0408 269.027 97.0408 268.097ZM97.8913 268.097C97.8869 268.606 98.5823 268.898 99.7961 268.903C100.992 268.898 101.692 268.606 101.692 268.097C101.692 267.583 100.992 267.313 99.7961 267.308C98.5823 267.313 97.8869 267.583 97.8913 268.097ZM110.604 261.647V265.908H109.763V261.647H110.604ZM104.181 263.853C104.186 262.763 105.081 262.006 106.299 262.01C107.513 262.006 108.407 262.763 108.407 263.853C108.407 264.938 107.513 265.696 106.299 265.687C105.081 265.696 104.186 264.938 104.181 263.853ZM105.005 263.853C105.001 264.54 105.546 264.996 106.299 264.996C107.043 264.996 107.583 264.54 107.583 263.853C107.583 263.175 107.043 262.715 106.299 262.719C105.546 262.715 105.001 263.175 105.005 263.853ZM105.413 269.488V266.289H106.237V267.184H109.772V266.289H110.604V269.488H105.413ZM106.237 268.797H109.772V267.849H106.237V268.797ZM118.454 261.647V269.585H117.612V261.647H118.454ZM112.35 267.565V262.418H113.183V266.839C114.343 266.834 115.561 266.732 116.833 266.475L116.948 267.184C115.544 267.472 114.268 267.57 113.014 267.565H112.35ZM125.887 261.647V264.721H127.163V265.412H125.887V269.603H125.045V261.647H125.887ZM120.04 267.627V262.409H123.752V263.091H120.881V266.927C122.215 266.923 123.211 266.865 124.345 266.661L124.452 267.37C123.207 267.592 122.153 267.632 120.678 267.627H120.04ZM128.447 268.894C128.102 268.89 127.814 268.611 127.818 268.265C127.814 267.92 128.102 267.636 128.447 267.636C128.788 267.636 129.072 267.92 129.076 268.265C129.072 268.611 128.788 268.89 128.447 268.894Z" fill="#898D8F"/>
<path d="M85.9999 69.4924C87.5221 69.5032 89.0389 70.4122 89.0443 73.2577C89.0443 75.9417 87.8287 77.4962 85.9138 77.4962C84.4131 77.4962 83.3749 76.5603 83.2028 75.2694H84.5906C84.7304 75.888 85.2092 76.2806 85.9138 76.2806C87.0434 76.2806 87.6781 75.2855 87.6888 73.6127H87.6028C87.2101 74.2904 86.4571 74.6938 85.6018 74.6885C84.2087 74.6938 83.1329 73.6342 83.1275 72.1604C83.1275 70.6381 84.2732 69.4817 85.9999 69.4924ZM84.4938 72.1281C84.4938 72.9672 85.1177 73.6234 85.9891 73.6234C86.8551 73.6234 87.5221 72.9242 87.5167 72.1173C87.5167 71.3266 86.882 70.6274 86.0106 70.622C85.1338 70.6274 84.483 71.2944 84.4938 72.1281ZM91.0668 76.4205C90.6042 76.4205 90.2223 76.0439 90.2277 75.5814C90.2223 75.1295 90.6042 74.7584 91.0668 74.753C91.5132 74.7584 91.8951 75.1295 91.8951 75.5814C91.8951 76.0439 91.5132 76.4205 91.0668 76.4205ZM90.2277 71.4073C90.2223 70.9555 90.6042 70.5844 91.0668 70.579C91.5132 70.5844 91.8951 70.9555 91.8951 71.4073C91.8951 71.8699 91.5132 72.2464 91.0668 72.2464C90.6042 72.2464 90.2223 71.8699 90.2277 71.4073ZM93.0677 75.9364V74.8176L96.4349 69.6H98.1777V74.7853H99.1997V75.9364H98.1777V77.3887H96.8437V75.9364H93.0677ZM94.4985 74.7853H96.8652V71.1922H96.7792L94.4985 74.7315V74.7853ZM103.374 69.6V77.3887H101.964V70.9663H101.921L100.103 72.1281V70.8479L102.029 69.6H103.374Z" fill="#131214"/>
<rect opacity="0.35" x="256.994" y="69.7322" width="15.552" height="7.776" rx="2.4624" stroke="#131214" stroke-width="0.648"/>
<path opacity="0.4" d="M273.518 72.5059V75.1468C274.039 74.9231 274.379 74.4028 274.379 73.8263C274.379 73.2498 274.039 72.7295 273.518 72.5059Z" fill="#131214"/>
<rect x="257.966" y="70.7051" width="13.608" height="5.832" rx="1.62" fill="#131214"/>
<path fill-rule="evenodd" clip-rule="evenodd" d="M246.477 71.4204C248.089 71.4205 249.639 72.018 250.807 73.0894C250.895 73.1722 251.035 73.1711 251.122 73.0871L251.963 72.2684C252.007 72.2258 252.031 72.168 252.031 72.108C252.03 72.0479 252.005 71.9905 251.961 71.9484C248.895 69.1136 244.059 69.1136 240.993 71.9484C240.949 71.9905 240.923 72.0479 240.923 72.1079C240.923 72.168 240.947 72.2257 240.991 72.2684L241.832 73.0871C241.918 73.1713 242.059 73.1723 242.147 73.0894C243.315 72.0179 244.865 71.4204 246.477 71.4204ZM246.475 74.1552C247.355 74.1551 248.203 74.4867 248.855 75.0855C248.943 75.1705 249.082 75.1687 249.168 75.0814L250.002 74.2265C250.046 74.1816 250.07 74.1208 250.07 74.0576C250.069 73.9944 250.043 73.9341 249.999 73.8901C248.013 72.0169 244.939 72.0169 242.953 73.8901C242.908 73.9341 242.883 73.9944 242.882 74.0576C242.882 74.1209 242.906 74.1817 242.95 74.2265L243.784 75.0814C243.87 75.1687 244.009 75.1705 244.097 75.0855C244.749 74.4871 245.596 74.1555 246.475 74.1552ZM248.111 75.9654C248.112 76.0336 248.088 76.0995 248.045 76.1473L246.634 77.738C246.593 77.7847 246.536 77.811 246.478 77.811C246.419 77.811 246.362 77.7847 246.321 77.738L244.91 76.1473C244.867 76.0994 244.843 76.0336 244.844 75.9653C244.845 75.8971 244.872 75.8324 244.917 75.7866C245.818 74.9352 247.137 74.9352 248.038 75.7866C248.083 75.8324 248.11 75.8971 248.111 75.9654Z" fill="#131214"/>
<path fill-rule="evenodd" clip-rule="evenodd" d="M236.064 70.4967C236.064 70.0864 235.754 69.7539 235.372 69.7539H234.681C234.299 69.7539 233.99 70.0864 233.99 70.4967V76.9339C233.99 77.3441 234.299 77.6766 234.681 77.6766H235.372C235.754 77.6766 236.064 77.3441 236.064 76.9339V70.4967ZM231.246 71.3384H231.937C232.319 71.3384 232.629 71.679 232.629 72.099V76.916C232.629 77.3361 232.319 77.6766 231.937 77.6766H231.246C230.865 77.6766 230.555 77.3361 230.555 76.916V72.099C230.555 71.679 230.865 71.3384 231.246 71.3384ZM228.439 73.055H227.748C227.366 73.055 227.057 73.3999 227.057 73.8253V76.9064C227.057 77.3318 227.366 77.6766 227.748 77.6766H228.439C228.821 77.6766 229.13 77.3318 229.13 76.9064V73.8253C229.13 73.3999 228.821 73.055 228.439 73.055ZM225.004 74.6396H224.313C223.931 74.6396 223.622 74.9795 223.622 75.3988V76.9174C223.622 77.3367 223.931 77.6766 224.313 77.6766H225.004C225.386 77.6766 225.696 77.3367 225.696 76.9174V75.3988C225.696 74.9795 225.386 74.6396 225.004 74.6396Z" fill="#131214"/>
<rect width="243" height="41.472" transform="translate(50 89.9922)" fill="white"/>
<path d="M124.536 115.514H122.777L126.005 106.351H128.03L131.27 115.514H129.51L128.745 113.248H125.296L124.536 115.514ZM125.739 111.919H128.302L127.055 108.224H126.979L125.739 111.919ZM134.624 115.64C133.01 115.634 131.789 114.343 131.789 112.084C131.789 109.793 133.041 108.553 134.636 108.553C135.845 108.553 136.351 109.28 136.598 109.768H136.661V106.351H138.269V115.514H136.686V114.425H136.598C136.338 114.931 135.813 115.634 134.624 115.64ZM133.434 112.071C133.434 113.368 134.003 114.311 135.066 114.311C136.111 114.311 136.699 113.413 136.699 112.071C136.699 110.736 136.117 109.875 135.066 109.869C133.991 109.875 133.434 110.793 133.434 112.071ZM139.901 115.514V108.641H141.445V109.806H141.534C141.819 109.021 142.508 108.553 143.42 108.553C144.35 108.553 145.021 109.027 145.28 109.806H145.356C145.653 109.046 146.419 108.553 147.419 108.553C148.678 108.553 149.564 109.363 149.558 110.894V115.514H147.951V111.147C147.951 110.293 147.432 109.907 146.774 109.907C145.983 109.907 145.521 110.445 145.521 111.223V115.514H143.951V111.084C143.945 110.369 143.477 109.907 142.787 109.907C142.091 109.907 141.521 110.483 141.521 111.337V115.514H139.901ZM151.102 115.514V108.641H152.722V115.514H151.102ZM150.988 106.781C150.988 106.3 151.412 105.908 151.925 105.908C152.437 105.908 152.861 106.3 152.861 106.781C152.861 107.268 152.437 107.66 151.925 107.667C151.412 107.66 150.988 107.268 150.988 106.781ZM155.886 111.489V115.514H154.266V108.641H155.81V109.806H155.899C156.209 109.04 156.911 108.553 157.936 108.553C159.36 108.553 160.297 109.489 160.29 111.135V115.514H158.683V111.388C158.683 110.464 158.183 109.913 157.341 109.92C156.487 109.913 155.886 110.489 155.886 111.489ZM171.162 109.439C170.966 108.338 170.086 107.705 168.973 107.705C167.473 107.705 166.41 108.856 166.416 110.932C166.41 113.039 167.479 114.159 168.973 114.159C170.061 114.159 170.941 113.552 171.162 112.476H172.82C172.567 114.235 171.118 115.64 168.947 115.64C166.53 115.64 164.752 113.887 164.758 110.932C164.752 107.971 166.549 106.224 168.947 106.224C170.972 106.224 172.535 107.401 172.82 109.439H171.162ZM173.845 113.577C173.845 112.033 175.13 111.584 176.402 111.502C176.883 111.464 177.864 111.419 178.167 111.407L178.161 110.856C178.161 110.173 177.724 109.78 176.921 109.78C176.199 109.78 175.756 110.109 175.63 110.603H174.073C174.187 109.432 175.237 108.553 176.959 108.553C178.262 108.553 179.768 109.091 179.768 110.919V115.514H178.224V114.564H178.174C177.87 115.147 177.231 115.653 176.149 115.653C174.839 115.653 173.845 114.938 173.845 113.577ZM175.402 113.565C175.402 114.159 175.889 114.463 176.566 114.463C177.547 114.463 178.174 113.818 178.174 113.046L178.167 112.482C177.876 112.495 176.978 112.552 176.655 112.577C175.889 112.641 175.402 112.963 175.402 113.565ZM181.287 115.514V108.641H182.856V109.78H182.932C183.179 108.989 183.837 108.54 184.628 108.54C184.806 108.54 185.059 108.559 185.211 108.578V110.071C185.065 110.021 184.73 109.977 184.464 109.97C183.565 109.977 182.907 110.597 182.907 111.464V115.514H181.287ZM188.501 115.64C186.888 115.634 185.666 114.343 185.666 112.084C185.666 109.793 186.919 108.553 188.514 108.553C189.723 108.553 190.229 109.28 190.476 109.768H190.539V106.351H192.146V115.514H190.564V114.425H190.476C190.216 114.931 189.691 115.634 188.501 115.64ZM187.311 112.071C187.311 113.368 187.881 114.311 188.944 114.311C189.988 114.311 190.577 113.413 190.577 112.071C190.577 110.736 189.995 109.875 188.944 109.869C187.868 109.875 187.311 110.793 187.311 112.071ZM206.891 112.071V113.223H202.36V116.653H200.968V113.223H196.462V112.071H206.891ZM197.032 110.261C199.316 109.983 200.816 108.812 200.955 107.667H197.424V106.553H200.968V105.211H202.36V106.553H205.916V107.667H202.385C202.518 108.8 204.011 109.983 206.296 110.261L205.777 111.375C203.885 111.135 202.417 110.306 201.676 109.205C200.93 110.318 199.443 111.135 197.538 111.375L197.032 110.261ZM216.623 105.199V109.666H218.319V110.844H216.623V116.615H215.219V105.199H216.623ZM207.599 113.489C210.384 112.096 211.89 110.16 212.168 107.553H208.22V106.389H213.599C213.592 109.749 212.2 112.704 208.397 114.577L207.599 113.489Z" fill="#131214"/>
<path d="M68.792 116.177L63.8798 111.604C63.5174 111.266 63.5174 110.719 63.8798 110.382L68.792 105.809" stroke="#131214" stroke-width="0.972" stroke-linecap="round"/>
<g opacity="0.7">
<rect width="243" height="526.176" transform="translate(50 55)" fill="black" fill-opacity="0.7"/>
</g>
<rect x="60.368" y="152" width="222.264" height="162" rx="7.776" fill="white"/>
<rect x="160.484" y="168.484" width="22.032" height="22.032" rx="11.016" stroke="#04B014" stroke-width="0.648"/>
<path d="M176.225 176.518L170.564 182.179C170.102 182.64 169.354 182.64 168.893 182.179L166.775 180.061" stroke="#04B014" stroke-width="1.06313" stroke-linecap="round" stroke-linejoin="round"/>
<path d="M113.943 203.291C113.937 206.401 113.089 209.072 109.296 210.957L108.601 210C110.384 209.123 111.449 208.092 112.047 206.873L108.84 207.175L108.681 206.082L112.428 205.848C112.559 205.364 112.645 204.857 112.684 204.316H109.216V203.291H113.943ZM115.39 212.552V202.277H116.654V206.309H118.18V207.346H116.654V212.552H115.39ZM127.031 207.107V208.121H119.809V203.177H126.951V204.202H121.062V207.107H127.031ZM118.67 211.264V210.216H128.079V211.264H118.67ZM140.916 207.05V208.086H131.519V207.05H140.916ZM132.612 210.672C132.612 209.476 133.962 208.798 136.2 208.804C138.422 208.798 139.76 209.476 139.766 210.672C139.76 211.885 138.422 212.563 136.2 212.563C133.962 212.563 132.612 211.885 132.612 210.672ZM132.669 206.241V202.608H139.777V203.633H133.934V205.227H139.834V206.241H132.669ZM133.9 210.672C133.894 211.281 134.703 211.583 136.2 211.583C137.676 211.583 138.49 211.281 138.501 210.672C138.49 210.091 137.676 209.772 136.2 209.772C134.703 209.772 133.894 210.091 133.9 210.672ZM150.997 207.847V208.872H141.588V207.847H145.666V206.993H142.784V204.259H148.571V203.496H142.75V202.505H149.835V205.182H144.037V206.002H150.04V206.993H146.919V207.847H150.997ZM142.636 210.524V209.522H149.892V212.506H148.616V210.524H142.636ZM156.362 202.437C158.708 202.442 160.069 203.063 160.075 204.202C160.069 205.353 158.708 205.973 156.362 205.979C154.021 205.973 152.648 205.353 152.648 204.202C152.648 203.063 154.021 202.442 156.362 202.437ZM151.68 207.54V206.526H161.066V207.54H151.68ZM152.785 209.169V208.234H159.893V210.752H154.038V211.515H160.178V212.483H152.797V209.852H158.651V209.169H152.785ZM153.981 204.202C153.975 204.772 154.796 205.034 156.362 205.034C157.951 205.034 158.765 204.772 158.765 204.202C158.765 203.673 157.951 203.371 156.362 203.371C154.796 203.371 153.975 203.673 153.981 204.202ZM167.639 202.721C169.142 202.721 170.213 203.559 170.224 204.795C170.213 205.82 169.444 206.589 168.299 206.799V207.631C169.159 207.58 170.019 207.505 170.817 207.392L170.919 208.314C168.778 208.696 166.386 208.741 164.643 208.736L164.506 207.722C165.247 207.722 166.112 207.716 167.023 207.688V206.805C165.845 206.606 165.059 205.837 165.064 204.795C165.059 203.559 166.129 202.721 167.639 202.721ZM165.919 212.358V209.453H167.183V211.333H173.049V212.358H165.919ZM166.249 204.795C166.237 205.472 166.818 205.894 167.639 205.899C168.464 205.894 169.023 205.472 169.028 204.795C169.023 204.1 168.464 203.69 167.639 203.69C166.818 203.69 166.237 204.1 166.249 204.795ZM171.42 210.148V202.289H172.685V205.615H174.074V206.663H172.685V210.148H171.42ZM184.018 210.33V211.378H174.61V210.33H177.104V208.633H175.726V205.273H181.649V204.009H175.703V202.983H182.902V206.287H176.99V207.608H183.141V208.633H181.638V210.33H184.018ZM178.334 210.33H180.396V208.633H178.334V210.33ZM192.755 202.277V206.378H194.338V207.426H192.755V212.574H191.502V202.277H192.755ZM184.633 204.874V203.86H187.071V202.425H188.335V203.86H190.705V204.874H184.633ZM185.112 207.973C185.1 206.549 186.205 205.541 187.709 205.546C189.19 205.541 190.289 206.549 190.294 207.973C190.289 209.391 189.19 210.387 187.709 210.387C186.205 210.387 185.1 209.391 185.112 207.973ZM186.319 207.973C186.313 208.81 186.9 209.345 187.709 209.339C188.5 209.345 189.076 208.81 189.087 207.973C189.076 207.135 188.5 206.583 187.709 206.583C186.9 206.583 186.313 207.135 186.319 207.973ZM198.541 208.975C198.53 209.841 198.923 210.74 199.811 211.316C200.706 210.695 201.104 209.744 201.116 208.975V208.44H202.357V208.975C202.351 210.034 202.984 211.071 204.362 211.504L203.724 212.438C202.727 212.09 202.067 211.43 201.714 210.604C201.378 211.418 200.762 212.153 199.817 212.529C198.86 212.17 198.251 211.475 197.915 210.649C197.545 211.435 196.895 212.09 195.944 212.438L195.329 211.504C196.662 211.048 197.305 209.977 197.311 208.975V208.44H198.541V208.975ZM194.908 205.273C194.908 203.832 196.07 202.795 197.63 202.801C198.444 202.795 199.162 203.097 199.652 203.599H202.129V202.277H203.394V208.086H202.129V206.902H199.68C199.191 207.414 198.462 207.728 197.63 207.722C196.07 207.728 194.908 206.702 194.908 205.273ZM196.126 205.273C196.121 206.122 196.759 206.663 197.63 206.663C198.479 206.663 199.111 206.122 199.111 205.273C199.111 204.419 198.479 203.86 197.63 203.86C196.759 203.86 196.121 204.419 196.126 205.273ZM200.239 204.612C200.295 204.823 200.33 205.039 200.33 205.273C200.33 205.484 200.301 205.683 200.25 205.877H202.129V204.612H200.239ZM207.232 208.451V209.431H211.766V208.451H213.03V212.449H205.979V208.451H207.232ZM204.852 207.87V206.833H214.238V207.87H204.852ZM205.33 205.296C207.483 205.028 208.89 203.923 208.895 202.778V202.391H210.194V202.778C210.194 203.889 211.606 205.045 213.736 205.296L213.292 206.298C211.566 206.065 210.205 205.296 209.545 204.253C208.878 205.301 207.511 206.065 205.797 206.298L205.33 205.296ZM207.232 211.447H211.766V210.399H207.232V211.447ZM223.521 202.277V212.574H222.268V202.277H223.521ZM215.525 209.989V203.28H216.778V208.907C218.219 208.884 219.756 208.758 221.345 208.44L221.505 209.499C219.694 209.875 218.014 209.994 216.413 209.989H215.525ZM233.078 202.277V206.184H234.661V207.221H233.078V212.586H231.813V202.277H233.078ZM225.435 210.068V203.257H230.253V204.282H226.699V209.009C228.299 209.003 229.569 208.924 230.982 208.679L231.13 209.749C229.53 210.023 228.146 210.068 226.289 210.068H225.435Z" fill="#131214"/>
<path d="M121.68 226.575C121.675 228.22 122.794 229.87 124.12 230.473L123.634 231.101C122.606 230.605 121.72 229.536 121.29 228.256C120.875 229.612 119.989 230.751 118.936 231.283L118.43 230.615C119.771 230.002 120.88 228.281 120.89 226.575V224.935H121.68V226.575ZM125.102 233.176V224.155H125.902V233.176H125.102ZM134.873 224.155V233.176H134.083V224.155H134.873ZM127.947 225.653V224.995H132.139V228.195H128.778V230.321C130.271 230.326 131.602 230.255 133.212 229.997L133.293 230.665C131.638 230.923 130.271 230.989 128.717 230.989H127.968V227.547H131.339V225.653H127.947ZM143.854 224.155V228.742H143.064V226.828H141.186C141.019 227.866 140.097 228.564 138.882 228.559C137.526 228.564 136.538 227.719 136.543 226.504C136.538 225.304 137.526 224.474 138.882 224.479C140.087 224.474 141.003 225.147 141.181 226.16H143.064V224.155H143.854ZM137.303 226.504C137.303 227.324 137.961 227.906 138.882 227.901C139.773 227.906 140.442 227.324 140.442 226.504C140.442 225.704 139.773 225.127 138.882 225.137C137.961 225.127 137.303 225.704 137.303 226.504ZM138.022 229.876V229.238H143.854V231.394H138.832V232.397H144.198V233.035H138.042V230.787H143.064V229.876H138.022ZM155.427 229.784V233.035H149.595V229.784H155.427ZM148.501 228.762V224.702H149.301V228.073C150.703 228.078 151.898 227.992 153.209 227.719L153.31 228.397C151.918 228.686 150.688 228.762 149.19 228.762H148.501ZM150.374 232.387H154.647V230.422H150.374V232.387ZM152.035 226.514V225.866H154.627V224.155H155.427V229.349H154.627V226.514H152.035ZM164.387 224.155V233.176H163.597V228.164H161.441V230.898H157.29V224.864H158.089V227.213H160.661V224.864H161.441V227.506H163.597V224.155H164.387ZM158.089 230.24H160.661V227.851H158.089V230.24ZM166.837 232.397C166.483 232.392 166.179 232.098 166.189 231.739C166.179 231.384 166.483 231.091 166.837 231.091C167.197 231.091 167.49 231.384 167.485 231.739C167.49 232.098 167.197 232.392 166.837 232.397ZM166.189 227.668C166.179 227.314 166.483 227.02 166.837 227.02C167.197 227.02 167.49 227.314 167.485 227.668C167.49 228.028 167.197 228.321 166.837 228.326C166.483 228.321 166.179 228.028 166.189 227.668ZM174.178 232.336L174.512 230.311H172.669L172.335 232.336H171.596L171.93 230.311H170.847L170.968 229.582H172.047L172.35 227.759H171.282L171.394 227.03H172.467L172.801 225.005H173.54L173.206 227.03H175.049L175.383 225.005H176.122L175.788 227.03H176.881L176.76 227.759H175.671L175.368 229.582H176.446L176.325 230.311H175.251L174.917 232.336H174.178ZM172.786 229.582H174.629L174.932 227.759H173.09L172.786 229.582ZM180.253 225.005V232.336H179.332V225.957H179.291L177.509 227.142V226.22L179.332 225.005H180.253ZM182.207 232.336L182.197 231.668L184.698 229.035C185.564 228.114 185.979 227.618 185.984 226.939C185.979 226.185 185.351 225.699 184.526 225.694C183.65 225.699 183.103 226.251 183.098 227.071H182.238C182.227 225.775 183.23 224.904 184.556 224.904C185.888 224.904 186.829 225.8 186.834 226.939C186.829 227.759 186.45 228.397 185.154 229.734L183.473 231.465V231.526H186.966V232.336H182.207ZM190.824 232.437C189.366 232.437 188.318 231.658 188.272 230.493H189.193C189.244 231.192 189.938 231.627 190.813 231.627C191.78 231.627 192.479 231.106 192.484 230.341C192.479 229.541 191.841 228.979 190.702 228.974H190.105V228.175H190.702C191.593 228.175 192.216 227.673 192.211 226.919C192.216 226.185 191.679 225.699 190.844 225.694C190.059 225.699 189.345 226.129 189.305 226.848H188.424C188.469 225.684 189.553 224.904 190.854 224.904C192.251 224.904 193.102 225.82 193.092 226.868C193.102 227.704 192.616 228.311 191.846 228.529V228.58C192.803 228.726 193.38 229.41 193.375 230.341C193.38 231.546 192.287 232.437 190.824 232.437ZM194.509 230.837V230.088L197.81 225.005H198.934V230.038H199.956V230.837H198.934V232.336H198.063V230.837H194.509ZM195.491 230.038H198.063V226.16H197.972L195.491 229.977V230.038ZM203.551 232.437C202.229 232.437 201.227 231.622 201.171 230.493H202.052C202.118 231.146 202.756 231.632 203.551 231.637C204.502 231.632 205.191 230.939 205.191 230.017C205.191 229.066 204.477 228.362 203.49 228.357C202.872 228.347 202.391 228.539 202.123 229.015H201.242L201.759 225.005H205.728V225.815H202.518L202.245 227.962H202.315C202.644 227.709 203.136 227.537 203.652 227.537C205.049 227.537 206.077 228.569 206.082 229.997C206.077 231.415 205.014 232.437 203.551 232.437ZM209.899 232.437C208.628 232.422 207.226 231.668 207.226 228.954C207.226 226.357 208.289 224.904 210.01 224.904C211.301 224.904 212.202 225.699 212.39 226.848H211.489C211.322 226.2 210.825 225.714 210.01 225.714C208.806 225.714 208.082 226.742 208.087 228.509H208.178C208.598 227.896 209.271 227.537 210.061 227.537C211.362 227.537 212.451 228.549 212.451 229.967C212.451 231.349 211.443 232.452 209.899 232.437ZM208.208 229.987C208.213 230.848 208.917 231.632 209.899 231.637C210.846 231.632 211.565 230.888 211.57 229.977C211.565 229.076 210.876 228.342 209.919 228.337C208.957 228.342 208.218 229.121 208.208 229.987ZM213.939 232.336L217.3 225.866V225.815H213.423V225.005H218.242V225.856L214.891 232.336H213.939ZM221.735 232.437C220.191 232.437 219.128 231.582 219.133 230.392C219.128 229.445 219.786 228.661 220.621 228.529V228.488C219.892 228.321 219.411 227.648 219.417 226.848C219.411 225.729 220.394 224.904 221.735 224.904C223.072 224.904 224.054 225.729 224.064 226.848C224.054 227.648 223.568 228.321 222.849 228.488V228.529C223.679 228.661 224.337 229.445 224.347 230.392C224.337 231.582 223.264 232.437 221.735 232.437ZM220.044 230.341C220.029 231.111 220.682 231.632 221.735 231.637C222.783 231.632 223.436 231.111 223.436 230.341C223.436 229.531 222.722 228.934 221.735 228.934C220.753 228.934 220.029 229.531 220.044 230.341ZM220.297 226.919C220.302 227.658 220.895 228.159 221.735 228.164C222.57 228.159 223.173 227.658 223.173 226.919C223.173 226.185 222.591 225.689 221.735 225.694C220.864 225.689 220.302 226.185 220.297 226.919Z" fill="#767676"/>
<path d="M149.347 250.147H149.288C148.393 250.147 147.668 249.422 147.668 248.527V245.028C147.668 244.134 148.393 243.408 149.288 243.408H152.787C153.682 243.408 154.407 244.134 154.407 245.028V245.068M152.917 253.776H156.416C157.311 253.776 158.036 253.051 158.036 252.156V248.657C158.036 247.762 157.311 247.037 156.416 247.037H152.917C152.022 247.037 151.297 247.762 151.297 248.657V252.156C151.297 253.051 152.022 253.776 152.917 253.776Z" stroke="#416BFF" stroke-width="0.972" stroke-linecap="round" stroke-linejoin="round"/>
<path d="M170.568 249.068V249.726H162.367V249.068H166.073V247.985H163.461V244.623H164.25V245.666H168.705V244.623H169.495V247.985H166.863V249.068H170.568ZM163.278 251.255V250.617H169.556V253.412H168.756V251.255H163.278ZM164.25 247.347H168.705V246.274H164.25V247.347ZM174.345 246.831C174.345 248.415 175.393 250.05 176.674 250.678L176.188 251.316C175.196 250.8 174.365 249.731 173.965 248.481C173.565 249.807 172.715 250.946 171.702 251.488L171.196 250.85C172.512 250.202 173.555 248.476 173.565 246.831V245.19H174.345V246.831ZM177.504 253.412V244.411H178.294V248.066H179.802V248.754H178.294V253.412H177.504ZM187.254 244.411V248.127H188.763V248.785H187.254V253.412H186.465V244.411H187.254ZM180.238 246.517V245.859H182.556V244.522H183.346V245.859H185.594V246.517H180.238ZM180.754 249.332C180.749 248.117 181.681 247.266 182.961 247.266C184.232 247.266 185.159 248.117 185.169 249.332C185.159 250.552 184.232 251.397 182.961 251.397C181.681 251.397 180.749 250.552 180.754 249.332ZM181.514 249.332C181.509 250.152 182.121 250.729 182.961 250.719C183.792 250.729 184.399 250.152 184.409 249.332C184.399 248.516 183.792 247.929 182.961 247.934C182.121 247.929 181.509 248.516 181.514 249.332ZM196.691 244.411V253.412H195.891V244.411H196.691ZM189.36 251.073C191.796 249.919 193.041 248.192 193.218 246.041H189.776V245.393H194.028C194.018 247.98 192.813 250.273 189.796 251.721L189.36 251.073Z" fill="#416BFF"/>
<rect x="126.788" y="270.623" width="89.424" height="27.216" rx="3.888" fill="#131214"/>
<path d="M165.653 286.357V288.98H159.385V286.357H165.653ZM158.393 285.74V284.98H162.048V284.363C160.443 284.297 159.542 283.867 159.547 283.087C159.542 282.242 160.621 281.806 162.524 281.801C164.438 281.806 165.506 282.242 165.501 283.087C165.506 283.867 164.62 284.297 163.01 284.363V284.98H166.665V285.74H158.393ZM158.818 281.477V280.738H162.048V279.898H163.01V280.738H166.2V281.477H158.818ZM160.337 288.241H164.721V287.096H160.337V288.241ZM160.57 283.087C160.565 283.497 161.259 283.715 162.524 283.715C163.8 283.715 164.478 283.497 164.478 283.087C164.478 282.672 163.8 282.469 162.524 282.459C161.259 282.469 160.565 282.672 160.57 283.087ZM171.485 280.566C173.388 280.566 174.836 281.573 174.836 283.097C174.836 284.631 173.388 285.633 171.485 285.628C169.586 285.633 168.138 284.631 168.144 283.097C168.138 281.573 169.586 280.566 171.485 280.566ZM167.354 287.917V287.117H175.656V287.917H167.354ZM169.065 283.097C169.06 284.155 170.093 284.839 171.485 284.839C172.872 284.839 173.9 284.155 173.905 283.097C173.9 282.044 172.872 281.34 171.485 281.345C170.093 281.34 169.06 282.044 169.065 283.097ZM184.617 287.198V288.008H176.314V287.198H179.97V285.608H177.327V282.722H182.653V281.447H177.307V280.657H183.604V283.492H178.279V284.818H183.817V285.608H180.921V287.198H184.617Z" fill="white"/>
</g>
<rect x="48.5" y="53.5" width="246" height="529.176" rx="27.5" stroke="#0C0C0C" stroke-width="3"/>
</g>
<defs>
<clipPath id="clip0_5311_17697">
<rect width="343" height="343" rx="24" fill="white"/>
</clipPath>
<clipPath id="clip1_5311_17697">
<rect x="50" y="55" width="243" height="526.176" rx="26" fill="white"/>
</clipPath>
</defs>
</svg>
