<svg width="343" height="343" viewBox="0 0 343 343" fill="none" xmlns="http://www.w3.org/2000/svg">
<g clip-path="url(#clip0_5351_15324)">
<rect width="343" height="343" rx="24" fill="#F7F7FB"/>
<g clip-path="url(#clip1_5351_15324)">
<rect x="50" y="-218" width="243" height="526.176" rx="26" fill="white"/>
<path d="M62.8614 13.5791V22.7422H61.2161V13.5791H62.8614ZM66.1141 18.7175V22.7422H64.4941V15.8698H66.0382V17.0342H66.1268C66.4368 16.2685 67.1393 15.7813 68.1644 15.7813C69.5882 15.7813 70.5248 16.7178 70.5185 18.3631V22.7422H68.9111V18.6163C68.9111 17.6923 68.4112 17.1418 67.5696 17.1481C66.7153 17.1418 66.1141 17.7177 66.1141 18.7175ZM75.543 15.8698V17.1102H74.1255V22.7422H72.5055V17.1102H71.4804V15.8698H72.5055V15.2117C72.5055 13.8765 73.3345 13.1488 74.6571 13.1488C75.0304 13.1488 75.3785 13.1867 75.6822 13.25V14.5283C75.4164 14.4903 75.2203 14.484 75.1 14.4777C74.4482 14.484 74.1192 14.7371 74.1255 15.3636V15.8698H75.543ZM79.4285 22.8814C77.4225 22.8814 76.1379 21.4576 76.1379 19.3377C76.1379 17.1988 77.4225 15.7813 79.4285 15.7813C81.4408 15.7813 82.7254 17.1988 82.7191 19.3377C82.7254 21.4576 81.4408 22.8814 79.4285 22.8814ZM77.7705 19.325C77.7705 20.5843 78.3211 21.5905 79.4411 21.5905C80.5422 21.5905 81.0928 20.5843 81.0864 19.325C81.0928 18.0657 80.5422 17.0532 79.4411 17.0595C78.3211 17.0532 77.7705 18.0657 77.7705 19.325Z" fill="black"/>
<path d="M63.3376 45.8292C63.3376 45.8292 66.848 48.4212 68.144 48.4212C69.44 48.4212 72.9504 45.8292 72.9504 45.8292M62.96 50.3652C62.96 51.4388 63.8303 52.3092 64.904 52.3092H71.384C72.4576 52.3092 73.328 51.4388 73.328 50.3652V46.4772C73.328 45.4036 72.4576 44.5332 71.384 44.5332H64.904C63.8303 44.5332 62.96 45.4036 62.96 46.4772L62.96 50.3652Z" stroke="#131214" stroke-width="0.972" stroke-linecap="round"/>
<path d="M84.8604 48.3536C84.7389 47.898 84.3896 47.5993 83.7466 47.5942C83.0683 47.5993 82.5873 47.9638 82.5823 48.4245C82.5873 48.789 82.8809 49.037 83.5239 49.194L84.344 49.3965C85.3261 49.6293 85.8071 50.1204 85.8121 50.8848C85.8071 51.8366 85.0325 52.5403 83.6555 52.5352C82.4203 52.5403 81.6862 51.9885 81.5394 50.9861H82.4506C82.5519 51.5227 82.9417 51.7809 83.6353 51.7758C84.4199 51.7809 84.911 51.4518 84.911 50.9355C84.911 50.5456 84.6326 50.2925 84.0099 50.1457L83.1796 49.9533C82.2228 49.7306 81.7115 49.2091 81.7115 48.4751C81.7115 47.5335 82.5367 46.8551 83.7466 46.8551C84.8857 46.8551 85.5995 47.4626 85.7109 48.3536H84.8604ZM90.419 50.166V46.926H91.2796V52.4238H90.419V51.4923H90.3583C90.1001 52.0492 89.5533 52.4947 88.7281 52.4947C87.6853 52.4947 86.9411 51.8163 86.9461 50.4191V46.926H87.8169V50.3583C87.8169 51.1481 88.3079 51.6594 89.0116 51.6543C89.6343 51.6594 90.4139 51.1936 90.419 50.166ZM92.5149 52.4238V51.7657L95.6131 47.7866V47.7258H92.6161V46.926H96.737V47.6145L93.7299 51.5632V51.624H96.8383V52.4238H92.5149ZM97.9925 52.4238V46.926H98.8633V52.4238H97.9925ZM97.8204 45.4376C97.8153 45.1136 98.0938 44.8554 98.4279 44.8605C98.762 44.8554 99.0404 45.1136 99.0455 45.4376C99.0404 45.7565 98.762 46.0147 98.4279 46.0147C98.0938 46.0147 97.8153 45.7565 97.8204 45.4376ZM100.25 52.4238V45.0933H101.121V49.356H101.222L103.602 46.926H104.675L102.356 49.28L104.847 52.4238H103.744L101.703 49.8318L101.121 50.3735V52.4238H100.25ZM105.607 52.4238V46.926H106.477V52.4238H105.607ZM105.434 45.4376C105.429 45.1136 105.708 44.8554 106.042 44.8605C106.376 44.8554 106.654 45.1136 106.66 45.4376C106.654 45.7565 106.376 46.0147 106.042 46.0147C105.708 46.0147 105.429 45.7565 105.434 45.4376ZM107.864 52.4238V46.926H108.705V47.7866H108.776C109.003 47.1993 109.535 46.8551 110.254 46.8551C110.973 46.8551 111.464 47.1993 111.722 47.7866H111.783C112.061 47.2196 112.643 46.8551 113.433 46.8551C114.41 46.8551 115.114 47.4525 115.114 48.7485V52.4238H114.243V48.7586C114.238 47.9486 113.732 47.6347 113.129 47.6347C112.365 47.6347 111.93 48.1511 111.925 48.8497V52.4238H111.044V48.6675C111.049 48.0498 110.603 47.6347 109.97 47.6347C109.312 47.6347 108.735 48.1916 108.735 48.9915V52.4238H107.864ZM120.136 51.462C119.118 51.4569 118.384 50.6418 118.384 49.3256C118.384 48.0195 119.134 47.2044 120.146 47.1993C120.875 47.2044 121.174 47.6701 121.3 47.898H121.351V47.2803H122.12V50.2368C122.136 50.6317 122.298 50.8291 122.627 50.8241C123.254 50.8291 123.675 50.0951 123.68 49.0421C123.69 47.1335 122.308 45.8881 120.369 45.8831C118.364 45.8932 117.073 47.4423 117.068 49.3256C117.068 51.386 118.192 52.7985 120.328 52.7782C121.037 52.7681 121.503 52.7225 122.12 52.5555V53.244C121.589 53.3857 120.997 53.4768 120.328 53.4768C117.853 53.4768 116.334 51.8923 116.339 49.3256C116.329 46.931 118.01 45.1845 120.369 45.1845C122.789 45.1845 124.419 46.8298 124.409 49.0117C124.414 50.5861 123.604 51.5025 122.576 51.5025C121.938 51.5025 121.457 51.143 121.417 50.6722H121.351C121.234 50.9 120.926 51.4569 120.136 51.462ZM119.174 49.3155C119.169 50.1052 119.564 50.7178 120.268 50.7228C120.991 50.7178 121.356 50.1558 121.361 49.3155C121.356 48.4953 120.997 47.9435 120.268 47.9385C119.559 47.9435 119.169 48.5409 119.174 49.3155ZM128.033 46.926V47.655H126.879V50.8443C126.874 51.548 127.228 51.6645 127.598 51.6645C127.755 51.6645 127.988 51.6493 128.114 51.6442V52.4542C127.978 52.4745 127.765 52.4947 127.507 52.4947C126.773 52.4947 126.003 52.0391 125.998 51.0671V47.655H125.168V46.926H125.998V45.6097H126.879V46.926H128.033ZM129.157 52.4238V46.926H129.998V47.7663H130.058C130.256 47.2095 130.828 46.8399 131.476 46.8348C131.608 46.8399 131.83 46.845 131.932 46.8551V47.736C131.866 47.7208 131.633 47.6752 131.405 47.6752C130.615 47.6752 130.028 48.222 130.028 48.9611V52.4238H129.157ZM132.509 50.8646C132.509 49.604 133.622 49.3155 134.574 49.2446C134.929 49.2193 135.814 49.1686 136.063 49.1636V48.7181C136.063 48.0195 135.647 47.6145 134.817 47.6145C134.124 47.6145 133.703 47.9334 133.582 48.3536H132.671C132.782 47.4676 133.643 46.8551 134.858 46.8551C135.577 46.8551 136.928 47.0677 136.923 48.7991V52.4238H136.063V51.6746H136.022C135.84 52.0441 135.339 52.5504 134.382 52.5555C133.339 52.5504 132.509 51.9378 132.509 50.8646ZM133.379 50.9051C133.384 51.4873 133.865 51.7809 134.534 51.7758C135.516 51.7809 136.063 51.1228 136.063 50.4292V49.8774C135.804 49.8926 134.939 49.9584 134.675 49.9736C133.886 50.0242 133.384 50.3026 133.379 50.9051ZM140.568 52.5352C139.009 52.5403 138.057 51.3506 138.057 49.7002C138.057 48.0296 139.054 46.8551 140.548 46.8551C141.717 46.8551 142.598 47.5486 142.735 48.5865H141.864C141.738 48.0853 141.302 47.6246 140.568 47.6246C139.586 47.6246 138.933 48.4346 138.928 49.6698C138.933 50.9405 139.571 51.7556 140.568 51.7556C141.216 51.7556 141.712 51.4063 141.864 50.8038H142.735C142.598 51.786 141.788 52.5403 140.568 52.5352ZM143.808 52.4238V45.0933H144.679V49.356H144.78L147.16 46.926H148.233L145.914 49.28L148.405 52.4238H147.301L145.261 49.8318L144.679 50.3735V52.4238H143.808ZM151.24 52.5352C149.65 52.5403 148.668 51.4063 148.668 49.7205C148.668 48.0296 149.665 46.8551 151.159 46.8551C152.313 46.8551 153.533 47.5638 153.528 49.599V49.9635H149.539C149.584 51.1278 150.263 51.7657 151.24 51.7657C151.898 51.7657 152.313 51.4771 152.516 51.138H153.447C153.189 51.9733 152.374 52.5403 151.24 52.5352ZM149.544 49.2243H152.647C152.642 48.308 152.065 47.6246 151.159 47.6246C150.207 47.6246 149.605 48.3738 149.544 49.2243ZM154.662 52.4238V46.926H155.503V47.7663H155.563C155.761 47.2095 156.333 46.8399 156.981 46.8348C157.112 46.8399 157.335 46.845 157.436 46.8551V47.736C157.371 47.7208 157.138 47.6752 156.91 47.6752C156.12 47.6752 155.533 48.222 155.533 48.9611V52.4238H154.662ZM161.041 48.8902V49.6901H157.831V48.8902H161.041ZM164.625 52.5352C163.066 52.5403 162.114 51.3506 162.114 49.7002C162.114 48.0296 163.111 46.8551 164.605 46.8551C165.774 46.8551 166.655 47.5486 166.792 48.5865H165.921C165.795 48.0853 165.359 47.6246 164.625 47.6246C163.643 47.6246 162.99 48.4346 162.985 49.6698C162.99 50.9405 163.628 51.7556 164.625 51.7556C165.273 51.7556 165.769 51.4063 165.921 50.8038H166.792C166.655 51.786 165.845 52.5403 164.625 52.5352ZM170.113 52.5352C168.614 52.5403 167.602 51.4063 167.602 49.7002C167.602 47.984 168.614 46.8551 170.113 46.8551C171.606 46.8551 172.609 47.984 172.604 49.7002C172.609 51.4063 171.606 52.5403 170.113 52.5352ZM168.473 49.7002C168.478 50.7988 168.994 51.7657 170.113 51.7657C171.222 51.7657 171.733 50.7988 171.733 49.7002C171.733 48.6067 171.222 47.6246 170.113 47.6246C168.994 47.6246 168.478 48.6067 168.473 49.7002ZM174.619 45.0933V52.4238H173.748V45.0933H174.619ZM176.876 45.0933V52.4238H176.006V45.0933H176.876ZM178.82 54.4893C178.633 54.4843 178.446 54.4792 178.334 54.4691V53.6895C178.426 53.6996 178.623 53.7046 178.76 53.7097C179.114 53.7046 179.413 53.6844 179.701 52.8795L179.863 52.4643L177.828 46.926H178.78L180.278 51.2898H180.339L181.838 46.926H182.789L180.461 53.2136C180.137 54.0793 179.6 54.4843 178.82 54.4893ZM184.025 52.4846C183.67 52.4795 183.367 52.1859 183.377 51.8265C183.367 51.4721 183.67 51.1785 184.025 51.1785C184.384 51.1785 184.678 51.4721 184.673 51.8265C184.678 52.1859 184.384 52.4795 184.025 52.4846ZM188.287 52.5352C186.728 52.5403 185.776 51.3506 185.776 49.7002C185.776 48.0296 186.774 46.8551 188.267 46.8551C189.436 46.8551 190.317 47.5486 190.454 48.5865H189.583C189.457 48.0853 189.021 47.6246 188.287 47.6246C187.305 47.6246 186.652 48.4346 186.647 49.6698C186.652 50.9405 187.29 51.7556 188.287 51.7556C188.935 51.7556 189.431 51.4063 189.583 50.8038H190.454C190.317 51.786 189.507 52.5403 188.287 52.5352ZM193.775 52.5352C192.277 52.5403 191.264 51.4063 191.264 49.7002C191.264 47.984 192.277 46.8551 193.775 46.8551C195.268 46.8551 196.271 47.984 196.266 49.7002C196.271 51.4063 195.268 52.5403 193.775 52.5352ZM192.135 49.7002C192.14 50.7988 192.656 51.7657 193.775 51.7657C194.884 51.7657 195.395 50.7988 195.395 49.7002C195.395 48.6067 194.884 47.6246 193.775 47.6246C192.656 47.6246 192.14 48.6067 192.135 49.7002ZM197.41 52.4238V46.926H198.25V47.7866H198.321C198.549 47.1993 199.081 46.8551 199.799 46.8551C200.518 46.8551 201.009 47.1993 201.268 47.7866H201.328C201.607 47.2196 202.189 46.8551 202.979 46.8551C203.956 46.8551 204.659 47.4525 204.659 48.7485V52.4238H203.789V48.7586C203.784 47.9486 203.277 47.6347 202.675 47.6347C201.91 47.6347 201.475 48.1511 201.47 48.8497V52.4238H200.589V48.6675C200.594 48.0498 200.149 47.6347 199.516 47.6347C198.858 47.6347 198.281 48.1916 198.281 48.9915V52.4238H197.41Z" fill="#131214"/>
<path d="M65.7707 75.2092H65.7763M67.9995 72.3984H64.365C63.589 72.3984 62.96 73.0275 62.96 73.8035V77.4376C62.96 77.8104 63.1082 78.168 63.372 78.4316L67.094 82.1499C67.9172 82.9722 69.251 82.9719 70.0738 82.1492L72.7127 79.5102C73.5358 78.6872 73.5358 77.3527 72.7127 76.5297L68.993 72.81C68.7295 72.5465 68.3721 72.3984 67.9995 72.3984Z" stroke="#131214" stroke-width="0.972" stroke-linecap="round" stroke-linejoin="round"/>
<path d="M84.5263 81.584L84.8604 79.559H83.0176L82.6835 81.584H81.9444L82.2785 79.559H81.1951L81.3166 78.83H82.3949L82.6987 77.0075H81.6305L81.7419 76.2785H82.8151L83.1493 74.2535H83.8884L83.5543 76.2785H85.397L85.7311 74.2535H86.4703L86.1361 76.2785H87.2296L87.1081 77.0075H86.0197L85.7159 78.83H86.7943L86.6728 79.559H85.5995L85.2654 81.584H84.5263ZM83.1341 78.83H84.9768L85.2806 77.0075H83.4378L83.1341 78.83ZM90.6013 74.2535V81.584H89.6799V75.2052H89.6394L87.8574 76.3899V75.4685L89.6799 74.2535H90.6013ZM92.5554 81.584L92.5453 80.9157L95.0461 78.2832C95.9118 77.3619 96.3269 76.8657 96.332 76.1874C96.3269 75.433 95.6992 74.947 94.874 74.942C93.9982 74.947 93.4514 75.4989 93.4464 76.319H92.5858C92.5756 75.023 93.578 74.1522 94.9044 74.1522C96.2358 74.1522 97.1774 75.0483 97.1825 76.1874C97.1774 77.0075 96.7978 77.6454 95.5018 78.9819L93.821 80.7132V80.774H97.3141V81.584H92.5554ZM101.172 81.6852C99.7138 81.6852 98.6658 80.9056 98.6203 79.7412H99.5416C99.5923 80.4399 100.286 80.8752 101.162 80.8752C102.129 80.8752 102.827 80.3538 102.832 79.5894C102.827 78.7895 102.189 78.2275 101.05 78.2225H100.453V77.4226H101.05C101.941 77.4226 102.564 76.9214 102.559 76.1671C102.564 75.433 102.027 74.947 101.192 74.942C100.407 74.947 99.6935 75.3774 99.653 76.0962H98.7721C98.8177 74.9319 99.9011 74.1522 101.202 74.1522C102.599 74.1522 103.45 75.0685 103.44 76.1165C103.45 76.9518 102.964 77.5593 102.194 77.777V77.8276C103.151 77.9744 103.728 78.6579 103.723 79.5894C103.728 80.7942 102.635 81.6852 101.172 81.6852ZM104.857 80.0855V79.3362L108.158 74.2535H109.282V79.2856H110.305V80.0855H109.282V81.584H108.411V80.0855H104.857ZM105.839 79.2856H108.411V75.4077H108.32L105.839 79.2249V79.2856ZM113.899 81.6852C112.578 81.6852 111.575 80.8702 111.52 79.7412H112.4C112.466 80.3943 113.104 80.8803 113.899 80.8854C114.851 80.8803 115.539 80.1867 115.539 79.2654C115.539 78.3136 114.825 77.6099 113.838 77.6049C113.221 77.5947 112.74 77.7871 112.471 78.263H111.59L112.107 74.2535H116.076V75.0635H112.866L112.593 77.21H112.664C112.993 76.9569 113.484 76.7847 114 76.7847C115.397 76.7847 116.425 77.8175 116.43 79.2451C116.425 80.6626 115.362 81.6852 113.899 81.6852ZM120.247 81.6852C118.977 81.67 117.574 80.9157 117.574 78.2022C117.574 75.6052 118.637 74.1522 120.359 74.1522C121.65 74.1522 122.551 74.947 122.738 76.0962H121.837C121.67 75.4482 121.174 74.9622 120.359 74.9622C119.154 74.9622 118.43 75.9899 118.435 77.7567H118.526C118.946 77.1442 119.62 76.7847 120.409 76.7847C121.71 76.7847 122.799 77.7972 122.799 79.2147C122.799 80.5968 121.791 81.7004 120.247 81.6852ZM118.556 79.235C118.561 80.0956 119.265 80.8803 120.247 80.8854C121.194 80.8803 121.913 80.1361 121.918 79.2249C121.913 78.3237 121.224 77.5897 120.268 77.5846C119.306 77.5897 118.567 78.3693 118.556 79.235ZM124.287 81.584L127.649 75.1141V75.0635H123.771V74.2535H128.59V75.104L125.239 81.584H124.287ZM132.083 81.6852C130.539 81.6852 129.476 80.8297 129.481 79.64C129.476 78.6933 130.134 77.9086 130.97 77.777V77.7365C130.241 77.5694 129.76 76.8961 129.765 76.0962C129.76 74.9774 130.742 74.1522 132.083 74.1522C133.42 74.1522 134.402 74.9774 134.412 76.0962C134.402 76.8961 133.916 77.5694 133.197 77.7365V77.777C134.027 77.9086 134.686 78.6933 134.696 79.64C134.686 80.8297 133.612 81.6852 132.083 81.6852ZM130.393 79.5894C130.377 80.3589 131.03 80.8803 132.083 80.8854C133.131 80.8803 133.784 80.3589 133.784 79.5894C133.784 78.7794 133.071 78.182 132.083 78.182C131.101 78.182 130.377 78.7794 130.393 79.5894ZM130.646 76.1671C130.651 76.9062 131.243 77.4074 132.083 77.4125C132.919 77.4074 133.521 76.9062 133.521 76.1671C133.521 75.433 132.939 74.9369 132.083 74.942C131.213 74.9369 130.651 75.433 130.646 76.1671ZM138.361 74.1522C139.621 74.1674 141.024 74.9268 141.024 77.6251C141.024 80.2323 139.956 81.6852 138.239 81.6852C136.948 81.6852 136.042 80.8955 135.86 79.7311H136.761C136.923 80.3892 137.424 80.8752 138.239 80.8752C139.434 80.8752 140.163 79.8425 140.173 78.0605H140.072C139.652 78.668 138.979 79.0325 138.199 79.0325C136.888 79.0325 135.799 78.025 135.799 76.6126C135.799 75.2457 136.802 74.137 138.361 74.1522ZM136.69 76.6025C136.685 77.5087 137.374 78.2326 138.331 78.2326C139.287 78.2326 140.032 77.4429 140.032 76.5822C140.032 75.7419 139.328 74.9521 138.361 74.9521C137.404 74.9521 136.68 75.6963 136.69 76.6025Z" fill="#131214"/>
<path d="M64.7417 106.743C62.7781 107.138 62.7262 109.365 63.2252 110.624V110.631M65.1696 102.207C64.3013 102.239 63.608 102.952 63.608 103.827C63.608 104.721 64.3337 105.447 65.228 105.447C65.3316 105.447 65.4353 105.434 65.5325 105.421M73.0627 110.631V110.624C73.5617 109.365 73.5098 107.138 71.5462 106.743M70.7554 105.421C70.8526 105.434 70.9562 105.447 71.0599 105.447C71.9542 105.447 72.6799 104.721 72.6799 103.827C72.6799 102.932 71.9866 102.239 71.1182 102.207M71.0255 111.927H65.2619L65.2571 111.915C64.5242 110.099 64.6858 106.743 68.1439 106.743C71.6021 106.743 71.7636 110.1 71.0302 111.915L71.0255 111.927ZM70.088 103.503C70.088 104.576 69.2176 105.447 68.144 105.447C67.0703 105.447 66.2 104.576 66.2 103.503C66.2 102.429 67.0703 101.559 68.144 101.559C69.2176 101.559 70.088 102.429 70.088 103.503Z" stroke="#131214" stroke-width="0.972" stroke-linecap="round" stroke-linejoin="round"/>
<path d="M88.8901 102.563V107.231H88.1105V102.563H88.8901ZM81.5293 106.512C82.886 106.041 83.8479 104.836 83.8479 103.515V102.826H84.6579V103.515C84.6478 104.786 85.6198 105.909 86.9563 106.35L86.5614 106.968C85.5033 106.608 84.668 105.854 84.263 104.882C83.858 105.93 83.0126 106.755 81.9444 107.14L81.5293 106.512ZM83.048 108.324V107.686H88.9003V109.843H83.8479V110.815H89.2243V111.463H83.0683V109.225H88.1105V108.324H83.048ZM98.6608 107.798V108.456H94.9044V111.564H94.1248V108.456H90.419V107.798H98.6608ZM91.4821 106.573V103.069H97.5875V106.573H91.4821ZM92.2618 105.945H96.7978V103.717H92.2618V105.945ZM106.427 102.563V104.77H107.783V105.439H106.427V107.676H105.637V102.563H106.427ZM99.815 107.14V103.181H103.804V103.829H100.605V106.482C102.412 106.492 103.44 106.421 104.645 106.188L104.746 106.836C103.48 107.094 102.407 107.145 100.514 107.14H99.815ZM100.747 111.443V108.142H106.427V111.443H100.747ZM101.526 110.795H105.637V108.79H101.526V110.795ZM115.397 102.563V104.912H116.744V105.58H115.397V107.94H114.598V102.563H115.397ZM108.766 107.2V103.252H112.765V103.91H109.545V106.552C111.368 106.542 112.416 106.487 113.626 106.239L113.707 106.897C112.446 107.15 111.368 107.2 109.464 107.2H108.766ZM109.515 109.823C109.52 108.744 110.664 108.117 112.502 108.112C114.339 108.117 115.468 108.744 115.468 109.823C115.468 110.916 114.339 111.544 112.502 111.544C110.664 111.544 109.52 110.916 109.515 109.823ZM110.294 109.823C110.299 110.491 111.145 110.901 112.502 110.906C113.848 110.901 114.704 110.491 114.699 109.823C114.704 109.16 113.848 108.76 112.502 108.77C111.145 108.76 110.299 109.16 110.294 109.823ZM120.359 105.327C120.349 106.77 121.391 108.36 122.698 108.982L122.242 109.61C121.229 109.114 120.374 108.051 119.969 106.831C119.554 108.152 118.653 109.317 117.645 109.833L117.159 109.205C118.455 108.572 119.569 106.861 119.579 105.327V104.153H117.483V103.495H122.384V104.153H120.359V105.327ZM123.487 111.564V102.563H124.277V106.208H125.786V106.887H124.277V111.564H123.487Z" fill="#131214"/>
<rect x="60.3682" y="247.264" width="222.264" height="31.104" rx="3.888" fill="#FEEBEC"/>
<path d="M137.622 259.575V262.805H135.323V264.668C136.311 264.663 137.252 264.622 138.371 264.425L138.452 265.215C137.191 265.443 136.159 265.468 135.02 265.478H134.392V262.035H136.7V260.355H134.382V259.575H137.622ZM138.047 262.592V261.813H139.12V258.806H140.031V267.209H139.12V262.592H138.047ZM140.973 267.675V258.603H141.894V267.675H140.973ZM148.334 259.504V260.294H147.342V264.562C147.772 264.531 148.192 264.491 148.597 264.445L148.658 265.154C146.81 265.448 144.684 265.488 143.109 265.488L143.008 264.688L144.162 264.673V260.294H143.282V259.504H148.334ZM145.104 264.658C145.534 264.648 145.98 264.633 146.42 264.612V260.294H145.104V264.658ZM148.04 262.775V261.985H149.681V258.603H150.632V267.675H149.681V262.775H148.04ZM156.454 259.231V261.965H153.356V263.271C154.961 263.266 155.988 263.215 157.163 263.018L157.254 263.807C155.978 264.015 154.885 264.05 153.113 264.05H152.394V261.205H155.502V260H152.374V259.231H156.454ZM153.639 267.483V264.759H154.601V266.703H159.856V267.483H153.639ZM157.001 261.732V260.912H158.631V258.613H159.593V265.275H158.631V261.732H157.001ZM165.597 259.889C165.597 261.367 167.172 262.764 168.918 263.078L168.473 263.878C167.02 263.564 165.688 262.613 165.101 261.337C164.504 262.608 163.172 263.554 161.719 263.878L161.294 263.078C163.015 262.754 164.58 261.367 164.585 259.889V259.2H165.597V259.889ZM160.99 266.48V265.68H169.293V266.48H160.99ZM180.268 258.603V267.675H179.347V258.603H180.268ZM172.35 265.174C173.636 264.4 174.289 262.749 174.294 261.134V260.405H172.624V259.626H176.775V260.405H175.216V261.134C175.216 262.683 175.844 264.238 177.119 264.972L176.542 265.68C175.677 265.164 175.084 264.238 174.765 263.144C174.441 264.329 173.824 265.341 172.938 265.893L172.35 265.174ZM176.107 262.602V261.813H177.514V258.795H178.425V267.219H177.514V262.602H176.107ZM189.705 262.582V263.301H186.05V264.06H188.672V266.106H183.387V266.855H188.925V267.584H182.445V265.437H187.72V264.759H182.435V264.06H185.098V263.301H181.453V262.582H189.705ZM181.858 261.499C183.594 261.403 184.819 260.871 185.017 260.102H182.273V259.362H185.098V258.563H186.05V259.362H188.885V260.102H186.126C186.318 260.871 187.543 261.403 189.3 261.499L189.006 262.228C187.427 262.111 186.141 261.651 185.574 260.856C185.007 261.651 183.721 262.111 182.131 262.228L181.858 261.499ZM201.237 265.741V266.541H192.935V265.741H194.919V263.372C194.175 262.962 193.719 262.314 193.724 261.499C193.719 260.071 195.122 259.135 197.066 259.13C199.015 259.135 200.417 260.071 200.417 261.499C200.417 262.299 199.982 262.942 199.253 263.352V265.741H201.237ZM194.656 261.499C194.656 262.471 195.643 263.104 197.066 263.109C198.478 263.104 199.48 262.471 199.485 261.499C199.48 260.522 198.478 259.899 197.066 259.899C195.643 259.899 194.656 260.522 194.656 261.499ZM195.871 265.741H198.281V263.726C197.911 263.812 197.501 263.858 197.066 263.858C196.64 263.858 196.235 263.812 195.871 263.726V265.741ZM205.074 260.537C205.074 261.605 205.95 262.602 207.332 262.987L206.877 263.736C205.824 263.438 205.034 262.79 204.619 261.949C204.224 262.886 203.434 263.63 202.351 263.969L201.895 263.23C203.272 262.79 204.123 261.706 204.123 260.537V260.426H202.148V259.656H204.123V258.563H205.085V259.656H207.049V260.426H205.074V260.537ZM203.353 265.974C203.348 264.911 204.518 264.309 206.421 264.303C208.32 264.309 209.484 264.911 209.489 265.974C209.484 267.042 208.32 267.66 206.421 267.655C204.518 267.66 203.348 267.042 203.353 265.974ZM204.305 265.974C204.3 266.561 205.09 266.911 206.421 266.916C207.753 266.911 208.532 266.561 208.537 265.974C208.532 265.387 207.753 265.053 206.421 265.053C205.09 265.053 204.3 265.387 204.305 265.974ZM206.765 261.934V261.144H208.497V258.603H209.459V264.101H208.497V261.934H206.765Z" fill="#C90000"/>
<rect x="60.3682" y="207.088" width="222.264" height="31.104" rx="3.888" fill="#E0EDFF"/>
<path d="M137.622 219.401V222.631H135.323V224.494C136.311 224.489 137.252 224.449 138.371 224.251L138.452 225.041C137.191 225.269 136.159 225.294 135.02 225.304H134.392V221.862H136.7V220.181H134.382V219.401H137.622ZM138.047 222.418V221.639H139.12V218.632H140.031V227.036H139.12V222.418H138.047ZM140.973 227.501V218.429H141.894V227.501H140.973ZM148.334 219.33V220.12H147.342V224.388C147.772 224.357 148.192 224.317 148.597 224.271L148.658 224.98C146.81 225.274 144.684 225.314 143.109 225.314L143.008 224.514L144.162 224.499V220.12H143.282V219.33H148.334ZM145.104 224.484C145.534 224.474 145.98 224.459 146.42 224.438V220.12H145.104V224.484ZM148.04 222.601V221.811H149.681V218.429H150.632V227.501H149.681V222.601H148.04ZM156.454 219.057V221.791H153.356V223.097C154.961 223.092 155.988 223.041 157.163 222.844L157.254 223.633C155.978 223.841 154.885 223.876 153.113 223.876H152.394V221.031H155.502V219.826H152.374V219.057H156.454ZM153.639 227.309V224.585H154.601V226.529H159.856V227.309H153.639ZM157.001 221.558V220.738H158.631V218.439H159.593V225.102H158.631V221.558H157.001ZM165.597 219.715C165.597 221.193 167.172 222.591 168.918 222.904L168.473 223.704C167.02 223.39 165.688 222.439 165.101 221.163C164.504 222.434 163.172 223.38 161.719 223.704L161.294 222.904C163.015 222.58 164.58 221.193 164.585 219.715V219.027H165.597V219.715ZM160.99 226.306V225.507H169.293V226.306H160.99ZM175.651 220.059C175.646 221.219 176.451 222.317 177.838 222.783L177.352 223.532C176.325 223.178 175.57 222.469 175.175 221.578C174.78 222.555 173.991 223.33 172.928 223.704L172.411 222.955C173.829 222.474 174.684 221.3 174.689 220.049V219.806H172.695V219.027H177.605V219.806H175.651V220.059ZM173.616 225.122V224.342H179.61V227.501H178.648V225.122H173.616ZM178.648 223.897V218.429H179.61V220.758H180.926V221.568H179.61V223.897H178.648ZM184.662 219.786C184.657 221.057 185.483 222.191 186.86 222.641L186.333 223.39C185.336 223.026 184.602 222.327 184.207 221.416C183.817 222.454 183.027 223.269 181.929 223.664L181.412 222.894C182.86 222.398 183.701 221.188 183.711 219.826V218.935H184.662V219.786ZM182.901 225.77C182.896 224.671 184.06 224.033 185.969 224.038C187.867 224.033 189.031 224.671 189.036 225.77C189.031 226.863 187.867 227.486 185.969 227.481C184.06 227.486 182.896 226.863 182.901 225.77ZM183.852 225.77C183.847 226.372 184.637 226.727 185.969 226.722C187.29 226.727 188.08 226.372 188.085 225.77C188.08 225.147 187.29 224.788 185.969 224.788C184.637 224.788 183.847 225.147 183.852 225.77ZM186.131 221.062V220.272H188.044V218.429H189.006V223.785H188.044V221.062H186.131ZM201.237 225.567V226.367H192.935V225.567H194.919V223.198C194.175 222.788 193.719 222.14 193.724 221.325C193.719 219.897 195.122 218.961 197.066 218.956C199.015 218.961 200.417 219.897 200.417 221.325C200.417 222.125 199.982 222.768 199.253 223.178V225.567H201.237ZM194.656 221.325C194.656 222.297 195.643 222.93 197.066 222.935C198.478 222.93 199.48 222.297 199.485 221.325C199.48 220.348 198.478 219.725 197.066 219.725C195.643 219.725 194.656 220.348 194.656 221.325ZM195.871 225.567H198.281V223.552C197.911 223.639 197.501 223.684 197.066 223.684C196.64 223.684 196.235 223.639 195.871 223.552V225.567ZM205.074 220.363C205.074 221.431 205.95 222.429 207.332 222.813L206.877 223.563C205.824 223.264 205.034 222.616 204.619 221.776C204.224 222.712 203.434 223.456 202.351 223.795L201.895 223.056C203.272 222.616 204.123 221.533 204.123 220.363V220.252H202.148V219.482H204.123V218.389H205.085V219.482H207.049V220.252H205.074V220.363ZM203.353 225.8C203.348 224.737 204.518 224.135 206.421 224.13C208.32 224.135 209.484 224.737 209.489 225.8C209.484 226.868 208.32 227.486 206.421 227.481C204.518 227.486 203.348 226.868 203.353 225.8ZM204.305 225.8C204.3 226.387 205.09 226.737 206.421 226.742C207.753 226.737 208.532 226.387 208.537 225.8C208.532 225.213 207.753 224.879 206.421 224.879C205.09 224.879 204.3 225.213 204.305 225.8ZM206.765 221.76V220.971H208.497V218.429H209.459V223.927H208.497V221.76H206.765Z" fill="#0038FF"/>
<rect width="243" height="526.176" transform="translate(50 -218)" fill="black" fill-opacity="0.7"/>
<rect width="243" height="22.032" transform="translate(50 286.143)" fill="white"/>
<path fill-rule="evenodd" clip-rule="evenodd" d="M126.64 301.339C126.64 300.444 127.365 299.719 128.26 299.719H215.092C215.987 299.719 216.712 300.444 216.712 301.339C216.712 302.233 215.987 302.959 215.092 302.959H128.26C127.365 302.959 126.64 302.233 126.64 301.339Z" fill="black"/>
<path d="M50 179.439C50 170.85 56.9629 163.887 65.552 163.887H277.448C286.037 163.887 293 170.85 293 179.439V198.879H50V179.439Z" fill="white"/>
<path d="M158.204 178.102V179.135H156.371C156.376 180.213 157.024 181.322 158.518 181.798L157.86 182.8C156.837 182.466 156.133 181.808 155.734 180.988C155.323 181.884 154.584 182.603 153.516 182.952L152.828 181.96C154.351 181.469 155.05 180.284 155.065 179.135H153.182V178.102H158.204ZM154.073 184.542V183.519H160.28V186.779H158.984V184.542H154.073ZM158.984 183.124V177.565H160.28V179.803H161.525V180.876H160.28V183.124H158.984ZM165.413 178.821C165.408 180.051 166.041 181.19 167.519 181.646L166.841 182.658C165.848 182.314 165.175 181.681 164.785 180.851C164.38 181.813 163.636 182.567 162.527 182.942L161.849 181.909C163.423 181.403 164.102 180.168 164.107 178.882V178.041H165.413V178.821ZM163.378 184.997C163.378 183.863 164.583 183.2 166.547 183.205C168.516 183.2 169.721 183.863 169.726 184.997C169.721 186.136 168.516 186.784 166.547 186.779C164.583 186.784 163.378 186.136 163.378 184.997ZM164.664 184.997C164.664 185.508 165.327 185.777 166.547 185.777C167.772 185.777 168.435 185.508 168.44 184.997C168.435 184.471 167.772 184.207 166.547 184.207C165.327 184.207 164.664 184.471 164.664 184.997ZM166.679 180.309V179.256H168.41V177.565H169.696V182.962H168.41V180.309H166.679ZM181.714 184.643V185.706H173.28V184.643H175.163V182.385C174.45 181.955 174.019 181.302 174.019 180.492C174.019 178.998 175.477 178.016 177.482 178.011C179.477 178.016 180.95 178.998 180.955 180.492C180.95 181.286 180.535 181.929 179.841 182.36V184.643H181.714ZM175.295 180.492C175.295 181.393 176.161 181.95 177.482 181.95C178.783 181.95 179.674 181.393 179.679 180.492C179.674 179.565 178.783 179.028 177.482 179.034C176.161 179.028 175.295 179.565 175.295 180.492ZM176.439 184.643H178.535V182.851C178.206 182.916 177.852 182.952 177.482 182.952C177.112 182.952 176.763 182.916 176.439 182.856V184.643ZM187.496 178.527V179.54H185.633C185.648 180.486 186.336 181.448 187.82 181.828L187.222 182.82C186.169 182.557 185.435 181.975 185.015 181.226C184.615 182.076 183.876 182.749 182.788 183.063L182.18 182.061C183.653 181.636 184.337 180.583 184.347 179.54H182.494V178.527H184.347V177.525H185.653V178.527H187.496ZM183.689 185.017C183.689 183.914 184.904 183.291 186.858 183.286C188.822 183.291 190.032 183.914 190.037 185.017C190.032 186.136 188.822 186.784 186.858 186.779C184.904 186.784 183.689 186.136 183.689 185.017ZM184.975 185.017C184.975 185.524 185.638 185.797 186.858 185.797C188.103 185.797 188.746 185.524 188.751 185.017C188.746 184.526 188.103 184.278 186.858 184.278C185.638 184.278 184.975 184.526 184.975 185.017ZM187.222 181.069V180.036H188.721V177.565H190.007V183.134H188.721V181.069H187.222Z" fill="black"/>
<path d="M269.348 177.818L273.56 182.03M273.56 182.03L277.772 186.242M273.56 182.03L277.772 177.818M273.56 182.03L269.348 186.242" stroke="#131214" stroke-width="0.972" stroke-linecap="round"/>
<rect x="50" y="198.879" width="243" height="0.648" fill="#E6E9EB"/>
<rect width="243" height="43.104" transform="translate(50 199.527)" fill="white"/>
<path d="M67.4959 217.193L67.4959 224.969M71.3839 221.081L63.6079 221.081" stroke="#131214" stroke-width="0.972" stroke-linecap="round"/>
<path d="M88.6472 215.854V223.269H87.5651V215.854H88.6472ZM80.389 219.066C80.3947 217.591 81.568 216.543 83.1114 216.537C84.6491 216.543 85.8224 217.591 85.8224 219.066C85.8224 220.564 84.6491 221.606 83.1114 221.606C81.568 221.606 80.3947 220.564 80.389 219.066ZM81.4484 219.066C81.4427 220.028 82.1603 220.661 83.1114 220.661C84.0454 220.661 84.763 220.028 84.763 219.066C84.763 218.126 84.0454 217.483 83.1114 217.483C82.1603 217.483 81.4427 218.126 81.4484 219.066ZM81.9723 225.832V222.517H83.0658V224.955H88.9548V225.832H81.9723ZM93.8072 218.439C93.7958 220.245 94.8494 222.096 96.3701 222.836L95.698 223.702C94.5874 223.121 93.7274 221.982 93.2775 220.621C92.8219 222.067 91.9277 223.292 90.7659 223.895L90.0938 223.018C91.6601 222.267 92.7194 220.307 92.7251 218.439V216.697H93.8072V218.439ZM97.1332 226.048V215.842H98.2154V219.909H99.8556V220.831H98.2154V226.048H97.1332ZM106.063 216.583V217.46H105.084V220.547C105.517 220.512 105.933 220.473 106.337 220.421L106.382 221.241C104.418 221.549 102.128 221.583 100.493 221.583L100.357 220.683C100.738 220.683 101.16 220.683 101.598 220.678V217.46H100.642V216.583H106.063ZM101.986 224.18C101.98 222.99 103.278 222.312 105.437 222.312C107.59 222.312 108.883 222.99 108.888 224.18C108.883 225.348 107.59 226.031 105.437 226.025C103.278 226.031 101.98 225.348 101.986 224.18ZM102.646 220.661C103.108 220.649 103.575 220.632 104.047 220.609V217.46H102.646V220.661ZM103.056 224.18C103.051 224.824 103.928 225.188 105.437 225.194C106.935 225.188 107.812 224.824 107.818 224.18C107.812 223.52 106.935 223.149 105.437 223.155C103.928 223.149 103.051 223.52 103.056 224.18ZM106.212 220.342V219.476H107.772V218.485H106.212V217.619H107.772V215.842H108.854V222.119H107.772V220.342H106.212ZM118.377 215.842V219.909H119.96V220.809H118.377V226.037H117.295V215.842H118.377ZM110.437 223.315C112.995 222.039 114.384 220.194 114.606 217.813H110.95V216.913H115.711C115.7 219.863 114.401 222.5 111.041 224.157L110.437 223.315ZM126.92 217.676C126.914 218.98 127.82 220.216 129.38 220.74L128.833 221.583C127.677 221.184 126.829 220.387 126.384 219.385C125.94 220.484 125.052 221.355 123.856 221.777L123.275 220.934C124.869 220.393 125.832 219.072 125.838 217.665V217.391H123.594V216.514H129.118V217.391H126.92V217.676ZM124.63 223.371V222.494H131.373V226.048H130.291V223.371H124.63ZM130.291 221.993V215.842H131.373V218.462H132.854V219.373H131.373V221.993H130.291ZM137.057 217.369C137.052 218.798 137.98 220.074 139.529 220.581L138.937 221.424C137.815 221.014 136.989 220.228 136.545 219.203C136.106 220.37 135.218 221.287 133.982 221.731L133.401 220.866C135.03 220.307 135.975 218.946 135.987 217.414V216.412H137.057V217.369ZM135.075 224.1C135.07 222.865 136.38 222.147 138.527 222.153C140.663 222.147 141.972 222.865 141.978 224.1C141.972 225.331 140.663 226.031 138.527 226.025C136.38 226.031 135.07 225.331 135.075 224.1ZM136.146 224.1C136.14 224.778 137.029 225.177 138.527 225.171C140.013 225.177 140.902 224.778 140.907 224.1C140.902 223.4 140.013 222.996 138.527 222.996C137.029 222.996 136.14 223.4 136.146 224.1ZM138.709 218.804V217.915H140.862V215.842H141.944V221.868H140.862V218.804H138.709ZM155.704 223.873V224.773H146.364V223.873H148.596V221.207C147.759 220.746 147.246 220.017 147.252 219.1C147.246 217.494 148.824 216.44 151.011 216.435C153.204 216.44 154.781 217.494 154.781 219.1C154.781 220 154.291 220.723 153.471 221.184V223.873H155.704ZM148.3 219.1C148.3 220.194 149.411 220.905 151.011 220.911C152.6 220.905 153.728 220.194 153.733 219.1C153.728 218.001 152.6 217.3 151.011 217.3C149.411 217.3 148.3 218.001 148.3 219.1ZM149.667 223.873H152.378V221.606C151.962 221.703 151.501 221.754 151.011 221.754C150.532 221.754 150.077 221.703 149.667 221.606V223.873ZM160.021 218.018C160.021 219.22 161.006 220.342 162.561 220.774L162.048 221.617C160.864 221.281 159.975 220.552 159.508 219.607C159.064 220.661 158.176 221.498 156.957 221.879L156.444 221.048C157.993 220.552 158.95 219.334 158.95 218.018V217.893H156.729V217.027H158.95V215.797H160.032V217.027H162.242V217.893H160.021V218.018ZM158.084 224.135C158.079 222.939 159.394 222.261 161.536 222.255C163.672 222.261 164.982 222.939 164.987 224.135C164.982 225.336 163.672 226.031 161.536 226.025C159.394 226.031 158.079 225.336 158.084 224.135ZM159.155 224.135C159.15 224.795 160.038 225.188 161.536 225.194C163.034 225.188 163.911 224.795 163.916 224.135C163.911 223.474 163.034 223.098 161.536 223.098C160.038 223.098 159.15 223.474 159.155 224.135ZM161.923 219.59V218.701H163.871V215.842H164.953V222.027H163.871V219.59H161.923Z" fill="#131214"/>
<rect x="50" y="242.631" width="243" height="0.648" fill="#E6E9EB"/>
<rect width="243" height="43.104" transform="translate(50 243.279)" fill="white"/>
<path d="M67.4959 260.945L67.4959 268.721M71.3839 264.833L63.6079 264.833" stroke="#131214" stroke-width="0.972" stroke-linecap="round"/>
<path d="M89.4901 265.745V266.634H85.3667V269.812H84.296V266.634H80.184V265.745H89.4901ZM80.7307 264.173C82.6672 263.928 84.2277 262.846 84.296 261.702H81.0611V260.824H84.296V259.594H85.3667V260.824H88.6017V261.702H85.3781C85.4351 262.835 86.9785 263.928 88.9206 264.173L88.5333 265.039C86.8931 264.811 85.4977 264.042 84.8371 263C84.1764 264.054 82.7754 264.811 81.1294 265.039L80.7307 264.173ZM93.8414 262.02C93.8414 263.308 94.8039 264.492 96.3701 264.982L95.8461 265.836C94.6729 265.466 93.7901 264.692 93.3231 263.695C92.8788 264.76 91.9961 265.597 90.7887 265.996L90.2647 265.153C91.8252 264.652 92.7706 263.393 92.7706 262.02V261.781H90.5495V260.904H92.7706V259.663H93.8527V260.904H96.0625V261.781H93.8414V262.02ZM92.1442 269.584V266.531H93.2263V268.707H99.0469V269.584H92.1442ZM95.7094 263.57V262.692H97.6914V259.606H98.7735V267.203H97.6914V263.57H95.7094ZM104.025 262.191C104.025 264.059 105.073 265.922 106.633 266.622L105.972 267.488C104.816 266.907 103.939 265.757 103.489 264.361C103.039 265.831 102.151 267.072 100.972 267.682L100.288 266.805C101.872 266.047 102.925 264.082 102.931 262.191V260.449H104.025V262.191ZM105.505 263.866V262.989H107.783V259.594H108.854V269.823H107.783V263.866H105.505ZM116.839 261.428C116.833 262.732 117.739 263.968 119.299 264.492L118.753 265.335C117.597 264.936 116.748 264.139 116.304 263.137C115.859 264.236 114.971 265.107 113.775 265.529L113.194 264.686C114.789 264.145 115.751 262.823 115.757 261.417V261.143H113.513V260.266H119.037V261.143H116.839V261.428ZM114.55 267.123V266.246H121.293V269.8H120.211V267.123H114.55ZM120.211 265.745V259.594H121.293V262.214H122.774V263.125H121.293V265.745H120.211ZM126.977 261.121C126.971 262.55 127.899 263.826 129.448 264.333L128.856 265.176C127.734 264.766 126.908 263.98 126.464 262.954C126.026 264.122 125.137 265.039 123.901 265.483L123.32 264.618C124.949 264.059 125.895 262.698 125.906 261.166V260.164H126.977V261.121ZM124.995 267.852C124.989 266.617 126.299 265.899 128.446 265.905C130.582 265.899 131.892 266.617 131.897 267.852C131.892 269.083 130.582 269.783 128.446 269.777C126.299 269.783 124.989 269.083 124.995 267.852ZM126.065 267.852C126.06 268.53 126.948 268.929 128.446 268.923C129.933 268.929 130.821 268.53 130.827 267.852C130.821 267.152 129.933 266.748 128.446 266.748C126.948 266.748 126.06 267.152 126.065 267.852ZM128.628 262.556V261.667H130.781V259.594H131.863V265.62H130.781V262.556H128.628ZM145.623 267.625V268.524H136.283V267.625H138.515V264.959C137.678 264.498 137.166 263.769 137.171 262.852C137.166 261.246 138.743 260.192 140.93 260.187C143.123 260.192 144.7 261.246 144.7 262.852C144.7 263.752 144.211 264.475 143.391 264.936V267.625H145.623ZM138.219 262.852C138.219 263.945 139.33 264.657 140.93 264.663C142.519 264.657 143.647 263.945 143.653 262.852C143.647 261.753 142.519 261.052 140.93 261.052C139.33 261.052 138.219 261.753 138.219 262.852ZM139.586 267.625H142.297V265.358C141.881 265.455 141.42 265.506 140.93 265.506C140.452 265.506 139.996 265.455 139.586 265.358V267.625ZM149.94 261.77C149.94 262.972 150.925 264.094 152.48 264.526L151.968 265.369C150.783 265.033 149.895 264.304 149.428 263.359C148.983 264.412 148.095 265.25 146.876 265.631L146.364 264.8C147.913 264.304 148.869 263.085 148.869 261.77V261.645H146.648V260.779H148.869V259.549H149.952V260.779H152.161V261.645H149.94V261.77ZM148.004 267.887C147.998 266.691 149.314 266.013 151.455 266.007C153.591 266.013 154.901 266.691 154.906 267.887C154.901 269.088 153.591 269.783 151.455 269.777C149.314 269.783 147.998 269.088 148.004 267.887ZM149.074 267.887C149.069 268.547 149.957 268.94 151.455 268.946C152.953 268.94 153.83 268.547 153.836 267.887C153.83 267.226 152.953 266.85 151.455 266.85C149.957 266.85 149.069 267.226 149.074 267.887ZM151.842 263.342V262.453H153.79V259.594H154.872V265.779H153.79V263.342H151.842Z" fill="#131214"/>
<rect x="50" y="286.383" width="243" height="0.648" fill="#E6E9EB"/>
</g>
<rect x="48.5" y="-219.5" width="246" height="529.176" rx="27.5" stroke="black" stroke-width="3"/>
</g>
<defs>
<clipPath id="clip0_5351_15324">
<rect width="343" height="343" rx="24" fill="white"/>
</clipPath>
<clipPath id="clip1_5351_15324">
<rect x="50" y="-218" width="243" height="526.176" rx="26" fill="white"/>
</clipPath>
</defs>
</svg>
