<svg width="343" height="343" viewBox="0 0 343 343" fill="none" xmlns="http://www.w3.org/2000/svg">
<g clip-path="url(#clip0_5322_18798)">
<rect width="343" height="343" rx="24" fill="#F7F7FB"/>
<g clip-path="url(#clip1_5322_18798)">
<rect x="50" y="-220" width="243" height="526.176" rx="26" fill="white"/>
<path d="M62.8613 11.581V20.7441H61.216V11.581H62.8613ZM66.1139 16.7195V20.7441H64.4939V13.8718H66.038V15.0362H66.1266C66.4367 14.2705 67.1391 13.7832 68.1643 13.7832C69.5881 13.7832 70.5246 14.7198 70.5183 16.3651V20.7441H68.911V16.6182C68.911 15.6943 68.4111 15.1438 67.5694 15.1501C66.7151 15.1438 66.1139 15.7196 66.1139 16.7195ZM75.5429 13.8718V15.1121H74.1254V20.7441H72.5054V15.1121H71.4802V13.8718H72.5054V13.2137C72.5054 11.8784 73.3343 11.1507 74.6569 11.1507C75.0303 11.1507 75.3783 11.1887 75.6821 11.252V12.5302C75.4163 12.4923 75.2201 12.4859 75.0999 12.4796C74.4481 12.4859 74.119 12.7391 74.1254 13.3655V13.8718H75.5429ZM79.4283 20.8834C77.4223 20.8834 76.1377 19.4595 76.1377 17.3396C76.1377 15.2007 77.4223 13.7832 79.4283 13.7832C81.4407 13.7832 82.7253 15.2007 82.7189 17.3396C82.7253 19.4595 81.4407 20.8834 79.4283 20.8834ZM77.7704 17.327C77.7704 18.5863 78.3209 19.5924 79.441 19.5924C80.5421 19.5924 81.0926 18.5863 81.0863 17.327C81.0926 16.0677 80.5421 15.0552 79.441 15.0615C78.3209 15.0552 77.7704 16.0677 77.7704 17.327Z" fill="black"/>
<path d="M63.3376 43.8331C63.3376 43.8331 66.848 46.4251 68.144 46.4251C69.44 46.4251 72.9504 43.8331 72.9504 43.8331M62.96 48.3691C62.96 49.4427 63.8303 50.3131 64.904 50.3131H71.384C72.4576 50.3131 73.328 49.4428 73.328 48.3691V44.4811C73.328 43.4075 72.4576 42.5371 71.384 42.5371H64.904C63.8304 42.5371 62.96 43.4075 62.96 44.4811L62.96 48.3691Z" stroke="#131214" stroke-width="0.972" stroke-linecap="round"/>
<path d="M84.8604 46.3555C84.7389 45.8999 84.3896 45.6012 83.7466 45.5962C83.0683 45.6012 82.5873 45.9657 82.5823 46.4264C82.5873 46.7909 82.8809 47.039 83.5239 47.1959L84.344 47.3984C85.3261 47.6313 85.8071 48.1223 85.8121 48.8868C85.8071 49.8385 85.0325 50.5422 83.6555 50.5372C82.4203 50.5422 81.6862 49.9904 81.5394 48.988H82.4506C82.5519 49.5247 82.9417 49.7828 83.6353 49.7778C84.4199 49.7828 84.911 49.4538 84.911 48.9374C84.911 48.5476 84.6326 48.2945 84.0099 48.1477L83.1796 47.9553C82.2228 47.7325 81.7115 47.2111 81.7115 46.477C81.7115 45.5354 82.5367 44.857 83.7466 44.857C84.8857 44.857 85.5995 45.4645 85.7109 46.3555H84.8604ZM90.419 48.1679V44.9279H91.2796V50.4258H90.419V49.4943H90.3583C90.1001 50.0512 89.5533 50.4967 88.7281 50.4967C87.6853 50.4967 86.9411 49.8183 86.9461 48.421V44.9279H87.8169V48.3603C87.8169 49.15 88.3079 49.6613 89.0116 49.6563C89.6343 49.6613 90.4139 49.1956 90.419 48.1679ZM92.5149 50.4258V49.7677L95.6131 45.7885V45.7278H92.6161V44.9279H96.737V45.6164L93.7299 49.5652V49.6259H96.8383V50.4258H92.5149ZM97.9925 50.4258V44.9279H98.8633V50.4258H97.9925ZM97.8204 43.4395C97.8153 43.1155 98.0938 42.8573 98.4279 42.8624C98.762 42.8573 99.0404 43.1155 99.0455 43.4395C99.0404 43.7585 98.762 44.0167 98.4279 44.0167C98.0938 44.0167 97.8153 43.7585 97.8204 43.4395ZM100.25 50.4258V43.0953H101.121V47.3579H101.222L103.602 44.9279H104.675L102.356 47.282L104.847 50.4258H103.744L101.703 47.8338L101.121 48.3755V50.4258H100.25ZM105.607 50.4258V44.9279H106.477V50.4258H105.607ZM105.434 43.4395C105.429 43.1155 105.708 42.8573 106.042 42.8624C106.376 42.8573 106.654 43.1155 106.66 43.4395C106.654 43.7585 106.376 44.0167 106.042 44.0167C105.708 44.0167 105.429 43.7585 105.434 43.4395ZM107.864 50.4258V44.9279H108.705V45.7885H108.776C109.003 45.2013 109.535 44.857 110.254 44.857C110.973 44.857 111.464 45.2013 111.722 45.7885H111.783C112.061 45.2215 112.643 44.857 113.433 44.857C114.41 44.857 115.114 45.4544 115.114 46.7504V50.4258H114.243V46.7605C114.238 45.9505 113.732 45.6367 113.129 45.6367C112.365 45.6367 111.93 46.153 111.925 46.8517V50.4258H111.044V46.6694C111.049 46.0518 110.603 45.6367 109.97 45.6367C109.312 45.6367 108.735 46.1935 108.735 46.9934V50.4258H107.864ZM120.136 49.4639C119.118 49.4588 118.384 48.6438 118.384 47.3275C118.384 46.0214 119.134 45.2063 120.146 45.2013C120.875 45.2063 121.174 45.6721 121.3 45.8999H121.351V45.2823H122.12V48.2388C122.136 48.6337 122.298 48.8311 122.627 48.826C123.254 48.8311 123.675 48.097 123.68 47.044C123.69 45.1355 122.308 43.8901 120.369 43.885C118.364 43.8952 117.073 45.4443 117.068 47.3275C117.068 49.388 118.192 50.8004 120.328 50.7802C121.037 50.77 121.503 50.7245 122.12 50.5574V51.2459C121.589 51.3877 120.997 51.4788 120.328 51.4788C117.853 51.4788 116.334 49.8942 116.339 47.3275C116.329 44.933 118.01 43.1864 120.369 43.1864C122.789 43.1864 124.419 44.8317 124.409 47.0137C124.414 48.5881 123.604 49.5044 122.576 49.5044C121.938 49.5044 121.457 49.145 121.417 48.6742H121.351C121.234 48.902 120.926 49.4588 120.136 49.4639ZM119.174 47.3174C119.169 48.1072 119.564 48.7197 120.268 48.7248C120.991 48.7197 121.356 48.1578 121.361 47.3174C121.356 46.4973 120.997 45.9455 120.268 45.9404C119.559 45.9455 119.169 46.5428 119.174 47.3174ZM128.033 44.9279V45.6569H126.879V48.8463C126.874 49.55 127.228 49.6664 127.598 49.6664C127.755 49.6664 127.988 49.6512 128.114 49.6462V50.4562C127.978 50.4764 127.765 50.4967 127.507 50.4967C126.773 50.4967 126.003 50.041 125.998 49.069V45.6569H125.168V44.9279H125.998V43.6117H126.879V44.9279H128.033ZM129.157 50.4258V44.9279H129.998V45.7683H130.058C130.256 45.2114 130.828 44.8418 131.476 44.8368C131.608 44.8418 131.83 44.8469 131.932 44.857V45.7379C131.866 45.7227 131.633 45.6772 131.405 45.6772C130.615 45.6772 130.028 46.2239 130.028 46.963V50.4258H129.157ZM132.509 48.8665C132.509 47.606 133.622 47.3174 134.574 47.2465C134.929 47.2212 135.814 47.1706 136.063 47.1655V46.72C136.063 46.0214 135.647 45.6164 134.817 45.6164C134.124 45.6164 133.703 45.9353 133.582 46.3555H132.671C132.782 45.4696 133.643 44.857 134.858 44.857C135.577 44.857 136.928 45.0697 136.923 46.801V50.4258H136.063V49.6765H136.022C135.84 50.0461 135.339 50.5523 134.382 50.5574C133.339 50.5523 132.509 49.9398 132.509 48.8665ZM133.379 48.907C133.384 49.4892 133.865 49.7828 134.534 49.7778C135.516 49.7828 136.063 49.1247 136.063 48.4312V47.8793C135.804 47.8945 134.939 47.9603 134.675 47.9755C133.886 48.0262 133.384 48.3046 133.379 48.907ZM140.568 50.5372C139.009 50.5422 138.057 49.3525 138.057 47.7022C138.057 46.0315 139.054 44.857 140.548 44.857C141.717 44.857 142.598 45.5506 142.735 46.5884H141.864C141.738 46.0872 141.302 45.6265 140.568 45.6265C139.586 45.6265 138.933 46.4365 138.928 47.6718C138.933 48.9425 139.571 49.7575 140.568 49.7575C141.216 49.7575 141.712 49.4082 141.864 48.8058H142.735C142.598 49.7879 141.788 50.5422 140.568 50.5372ZM143.808 50.4258V43.0953H144.679V47.3579H144.78L147.16 44.9279H148.233L145.914 47.282L148.405 50.4258H147.301L145.261 47.8338L144.679 48.3755V50.4258H143.808ZM151.24 50.5372C149.65 50.5422 148.668 49.4082 148.668 47.7224C148.668 46.0315 149.665 44.857 151.159 44.857C152.313 44.857 153.533 45.5658 153.528 47.6009V47.9654H149.539C149.584 49.1298 150.263 49.7677 151.24 49.7677C151.898 49.7677 152.313 49.4791 152.516 49.1399H153.447C153.189 49.9752 152.374 50.5422 151.24 50.5372ZM149.544 47.2263H152.647C152.642 46.31 152.065 45.6265 151.159 45.6265C150.207 45.6265 149.605 46.3758 149.544 47.2263ZM154.662 50.4258V44.9279H155.503V45.7683H155.563C155.761 45.2114 156.333 44.8418 156.981 44.8368C157.112 44.8418 157.335 44.8469 157.436 44.857V45.7379C157.371 45.7227 157.138 45.6772 156.91 45.6772C156.12 45.6772 155.533 46.2239 155.533 46.963V50.4258H154.662ZM161.041 46.8922V47.692H157.831V46.8922H161.041ZM164.625 50.5372C163.066 50.5422 162.114 49.3525 162.114 47.7022C162.114 46.0315 163.111 44.857 164.605 44.857C165.774 44.857 166.655 45.5506 166.792 46.5884H165.921C165.795 46.0872 165.359 45.6265 164.625 45.6265C163.643 45.6265 162.99 46.4365 162.985 47.6718C162.99 48.9425 163.628 49.7575 164.625 49.7575C165.273 49.7575 165.769 49.4082 165.921 48.8058H166.792C166.655 49.7879 165.845 50.5422 164.625 50.5372ZM170.113 50.5372C168.614 50.5422 167.602 49.4082 167.602 47.7022C167.602 45.986 168.614 44.857 170.113 44.857C171.606 44.857 172.609 45.986 172.604 47.7022C172.609 49.4082 171.606 50.5422 170.113 50.5372ZM168.473 47.7022C168.478 48.8007 168.994 49.7677 170.113 49.7677C171.222 49.7677 171.733 48.8007 171.733 47.7022C171.733 46.6087 171.222 45.6265 170.113 45.6265C168.994 45.6265 168.478 46.6087 168.473 47.7022ZM174.619 43.0953V50.4258H173.748V43.0953H174.619ZM176.876 43.0953V50.4258H176.006V43.0953H176.876ZM178.82 52.4913C178.633 52.4862 178.446 52.4812 178.334 52.471V51.6914C178.426 51.7015 178.623 51.7066 178.76 51.7117C179.114 51.7066 179.413 51.6863 179.701 50.8814L179.863 50.4663L177.828 44.9279H178.78L180.278 49.2918H180.339L181.838 44.9279H182.789L180.461 51.2155C180.137 52.0812 179.6 52.4862 178.82 52.4913ZM184.025 50.4865C183.67 50.4815 183.367 50.1878 183.377 49.8284C183.367 49.474 183.67 49.1804 184.025 49.1804C184.384 49.1804 184.678 49.474 184.673 49.8284C184.678 50.1878 184.384 50.4815 184.025 50.4865ZM188.287 50.5372C186.728 50.5422 185.776 49.3525 185.776 47.7022C185.776 46.0315 186.774 44.857 188.267 44.857C189.436 44.857 190.317 45.5506 190.454 46.5884H189.583C189.457 46.0872 189.021 45.6265 188.287 45.6265C187.305 45.6265 186.652 46.4365 186.647 47.6718C186.652 48.9425 187.29 49.7575 188.287 49.7575C188.935 49.7575 189.431 49.4082 189.583 48.8058H190.454C190.317 49.7879 189.507 50.5422 188.287 50.5372ZM193.775 50.5372C192.277 50.5422 191.264 49.4082 191.264 47.7022C191.264 45.986 192.277 44.857 193.775 44.857C195.268 44.857 196.271 45.986 196.266 47.7022C196.271 49.4082 195.268 50.5422 193.775 50.5372ZM192.135 47.7022C192.14 48.8007 192.656 49.7677 193.775 49.7677C194.884 49.7677 195.395 48.8007 195.395 47.7022C195.395 46.6087 194.884 45.6265 193.775 45.6265C192.656 45.6265 192.14 46.6087 192.135 47.7022ZM197.41 50.4258V44.9279H198.25V45.7885H198.321C198.549 45.2013 199.081 44.857 199.799 44.857C200.518 44.857 201.009 45.2013 201.268 45.7885H201.328C201.607 45.2215 202.189 44.857 202.979 44.857C203.956 44.857 204.659 45.4544 204.659 46.7504V50.4258H203.789V46.7605C203.784 45.9505 203.277 45.6367 202.675 45.6367C201.91 45.6367 201.475 46.153 201.47 46.8517V50.4258H200.589V46.6694C200.594 46.0518 200.149 45.6367 199.516 45.6367C198.858 45.6367 198.281 46.1935 198.281 46.9934V50.4258H197.41Z" fill="#131214"/>
<path d="M65.7708 73.2131H65.7764M67.9995 70.4023H64.365C63.589 70.4023 62.96 71.0314 62.96 71.8074V75.4415C62.96 75.8143 63.1082 76.1719 63.372 76.4355L67.0941 80.1538C67.9172 80.9761 69.2511 80.9758 70.0738 80.1531L72.7128 77.5141C73.5358 76.6911 73.5358 75.3567 72.7128 74.5336L68.993 70.8139C68.7295 70.5504 68.3722 70.4023 67.9995 70.4023Z" stroke="#131214" stroke-width="0.972" stroke-linecap="round" stroke-linejoin="round"/>
<path d="M84.5263 79.5859L84.8604 77.5609H83.0176L82.6835 79.5859H81.9444L82.2785 77.5609H81.1951L81.3166 76.8319H82.3949L82.6987 75.0094H81.6305L81.7419 74.2804H82.8151L83.1493 72.2554H83.8884L83.5543 74.2804H85.397L85.7311 72.2554H86.4703L86.1361 74.2804H87.2296L87.1081 75.0094H86.0197L85.7159 76.8319H86.7943L86.6728 77.5609H85.5995L85.2654 79.5859H84.5263ZM83.1341 76.8319H84.9768L85.2806 75.0094H83.4378L83.1341 76.8319ZM90.6013 72.2554V79.5859H89.6799V73.2072H89.6394L87.8574 74.3918V73.4704L89.6799 72.2554H90.6013ZM92.5554 79.5859L92.5453 78.9177L95.0461 76.2852C95.9118 75.3638 96.3269 74.8677 96.332 74.1893C96.3269 73.435 95.6992 72.949 94.874 72.9439C93.9982 72.949 93.4514 73.5008 93.4464 74.3209H92.5858C92.5756 73.0249 93.578 72.1542 94.9044 72.1542C96.2358 72.1542 97.1774 73.0502 97.1825 74.1893C97.1774 75.0094 96.7978 75.6473 95.5018 76.9838L93.821 78.7152V78.7759H97.3141V79.5859H92.5554ZM101.172 79.6872C99.7138 79.6872 98.6658 78.9076 98.6203 77.7432H99.5416C99.5923 78.4418 100.286 78.8772 101.162 78.8772C102.129 78.8772 102.827 78.3557 102.832 77.5913C102.827 76.7914 102.189 76.2295 101.05 76.2244H100.453V75.4246H101.05C101.941 75.4246 102.564 74.9234 102.559 74.1691C102.564 73.435 102.027 72.949 101.192 72.9439C100.407 72.949 99.6935 73.3793 99.653 74.0982H98.7721C98.8177 72.9338 99.9011 72.1542 101.202 72.1542C102.599 72.1542 103.45 73.0705 103.44 74.1184C103.45 74.9537 102.964 75.5612 102.194 75.7789V75.8296C103.151 75.9764 103.728 76.6598 103.723 77.5913C103.728 78.7962 102.635 79.6872 101.172 79.6872ZM104.857 78.0874V77.3382L108.158 72.2554H109.282V77.2876H110.305V78.0874H109.282V79.5859H108.411V78.0874H104.857ZM105.839 77.2876H108.411V73.4097H108.32L105.839 77.2268V77.2876ZM113.899 79.6872C112.578 79.6872 111.575 78.8721 111.52 77.7432H112.4C112.466 78.3962 113.104 78.8822 113.899 78.8873C114.851 78.8822 115.539 78.1887 115.539 77.2673C115.539 76.3156 114.825 75.6119 113.838 75.6068C113.221 75.5967 112.74 75.7891 112.471 76.2649H111.59L112.107 72.2554H116.076V73.0654H112.866L112.593 75.2119H112.664C112.993 74.9588 113.484 74.7867 114 74.7867C115.397 74.7867 116.425 75.8194 116.43 77.2471C116.425 78.6646 115.362 79.6872 113.899 79.6872ZM120.247 79.6872C118.977 79.672 117.574 78.9177 117.574 76.2042C117.574 73.6071 118.637 72.1542 120.359 72.1542C121.65 72.1542 122.551 72.949 122.738 74.0982H121.837C121.67 73.4502 121.174 72.9642 120.359 72.9642C119.154 72.9642 118.43 73.9919 118.435 75.7587H118.526C118.946 75.1461 119.62 74.7867 120.409 74.7867C121.71 74.7867 122.799 75.7992 122.799 77.2167C122.799 78.5987 121.791 79.7024 120.247 79.6872ZM118.556 77.2369C118.561 78.0976 119.265 78.8822 120.247 78.8873C121.194 78.8822 121.913 78.1381 121.918 77.2268C121.913 76.3257 121.224 75.5916 120.268 75.5866C119.306 75.5916 118.567 76.3712 118.556 77.2369ZM124.287 79.5859L127.649 73.1161V73.0654H123.771V72.2554H128.59V73.1059L125.239 79.5859H124.287ZM132.083 79.6872C130.539 79.6872 129.476 78.8316 129.481 77.6419C129.476 76.6952 130.134 75.9106 130.97 75.7789V75.7384C130.241 75.5714 129.76 74.8981 129.765 74.0982C129.76 72.9794 130.742 72.1542 132.083 72.1542C133.42 72.1542 134.402 72.9794 134.412 74.0982C134.402 74.8981 133.916 75.5714 133.197 75.7384V75.7789C134.027 75.9106 134.686 76.6952 134.696 77.6419C134.686 78.8316 133.612 79.6872 132.083 79.6872ZM130.393 77.5913C130.377 78.3608 131.03 78.8822 132.083 78.8873C133.131 78.8822 133.784 78.3608 133.784 77.5913C133.784 76.7813 133.071 76.1839 132.083 76.1839C131.101 76.1839 130.377 76.7813 130.393 77.5913ZM130.646 74.1691C130.651 74.9082 131.243 75.4094 132.083 75.4144C132.919 75.4094 133.521 74.9082 133.521 74.1691C133.521 73.435 132.939 72.9389 132.083 72.9439C131.213 72.9389 130.651 73.435 130.646 74.1691ZM138.361 72.1542C139.621 72.1694 141.024 72.9287 141.024 75.6271C141.024 78.2342 139.956 79.6872 138.239 79.6872C136.948 79.6872 136.042 78.8974 135.86 77.7331H136.761C136.923 78.3912 137.424 78.8772 138.239 78.8772C139.434 78.8772 140.163 77.8444 140.173 76.0624H140.072C139.652 76.6699 138.979 77.0344 138.199 77.0344C136.888 77.0344 135.799 76.027 135.799 74.6146C135.799 73.2477 136.802 72.139 138.361 72.1542ZM136.69 74.6044C136.685 75.5106 137.374 76.2346 138.331 76.2346C139.287 76.2346 140.032 75.4448 140.032 74.5842C140.032 73.7438 139.328 72.9541 138.361 72.9541C137.404 72.9541 136.68 73.6982 136.69 74.6044Z" fill="#131214"/>
<path d="M68.144 107.531H68.1492M64.256 107.985C64.256 109.058 65.1264 109.929 66.2 109.929H70.088C71.1616 109.929 72.032 109.058 72.032 107.985V101.505C72.032 100.431 71.1617 99.5605 70.088 99.5605H66.2C65.1264 99.5605 64.256 100.431 64.256 101.505L64.256 107.985Z" stroke="#131214" stroke-width="0.972" stroke-linecap="round"/>
<path d="M83.939 107.46V105.496H81.9849V104.676H83.939V102.722H84.7591V104.676H86.7234V105.496H84.7591V107.46H83.939ZM90.743 108.847C89.1989 108.847 88.1358 107.992 88.1409 106.802C88.1358 105.855 88.7939 105.071 89.6293 104.939V104.899C88.9003 104.732 88.4193 104.058 88.4244 103.258C88.4193 102.14 89.4014 101.314 90.743 101.314C92.0795 101.314 93.0616 102.14 93.0718 103.258C93.0616 104.058 92.5756 104.732 91.8568 104.899V104.939C92.687 105.071 93.3451 105.855 93.3553 106.802C93.3451 107.992 92.2719 108.847 90.743 108.847ZM89.0521 106.751C89.0369 107.521 89.69 108.042 90.743 108.047C91.7909 108.042 92.444 107.521 92.444 106.751C92.444 105.941 91.7302 105.344 90.743 105.344C89.7609 105.344 89.0369 105.941 89.0521 106.751ZM89.3053 103.329C89.3103 104.068 89.9026 104.57 90.743 104.575C91.5783 104.57 92.1808 104.068 92.1808 103.329C92.1808 102.595 91.5986 102.099 90.743 102.104C89.8723 102.099 89.3103 102.595 89.3053 103.329ZM94.5804 108.746L94.5703 108.078L97.0711 105.445C97.9368 104.524 98.3519 104.028 98.357 103.349C98.3519 102.595 97.7242 102.109 96.899 102.104C96.0232 102.109 95.4764 102.661 95.4714 103.481H94.6108C94.6006 102.185 95.603 101.314 96.9294 101.314C98.2608 101.314 99.2024 102.21 99.2075 103.349C99.2024 104.17 98.8228 104.807 97.5268 106.144L95.846 107.875V107.936H99.3391V108.746H94.5804ZM105.86 101.416V108.746H104.938V102.367H104.898L103.116 103.552V102.631L104.938 101.416H105.86ZM110.213 108.847C108.588 108.847 107.647 107.48 107.652 105.081C107.647 102.701 108.598 101.314 110.213 101.314C111.823 101.314 112.775 102.701 112.775 105.081C112.775 107.48 111.838 108.847 110.213 108.847ZM108.533 105.081C108.538 106.979 109.15 108.037 110.213 108.037C111.271 108.037 111.889 106.979 111.884 105.081C111.889 103.182 111.266 102.109 110.213 102.104C109.16 102.109 108.538 103.182 108.533 105.081ZM117.149 104.686V105.486H113.939V104.686H117.149ZM121.067 101.416V108.746H120.146V102.367H120.106L118.324 103.552V102.631L120.146 101.416H121.067ZM125.553 108.847C124.095 108.847 123.047 108.068 123.001 106.903H123.923C123.973 107.602 124.667 108.037 125.543 108.037C126.51 108.037 127.208 107.516 127.213 106.751C127.208 105.952 126.57 105.39 125.431 105.385H124.834V104.585H125.431C126.322 104.585 126.945 104.084 126.94 103.329C126.945 102.595 126.408 102.109 125.573 102.104C124.788 102.109 124.075 102.539 124.034 103.258H123.153C123.199 102.094 124.282 101.314 125.583 101.314C126.98 101.314 127.831 102.231 127.821 103.279C127.831 104.114 127.345 104.721 126.575 104.939V104.99C127.532 105.137 128.109 105.82 128.104 106.751C128.109 107.956 127.016 108.847 125.553 108.847ZM131.952 108.847C130.494 108.847 129.446 108.068 129.4 106.903H130.322C130.372 107.602 131.066 108.037 131.942 108.037C132.909 108.037 133.607 107.516 133.612 106.751C133.607 105.952 132.969 105.39 131.83 105.385H131.233V104.585H131.83C132.721 104.585 133.344 104.084 133.339 103.329C133.344 102.595 132.807 102.109 131.972 102.104C131.187 102.109 130.474 102.539 130.433 103.258H129.552C129.598 102.094 130.681 101.314 131.982 101.314C133.379 101.314 134.23 102.231 134.22 103.279C134.23 104.114 133.744 104.721 132.974 104.939V104.99C133.931 105.137 134.508 105.82 134.503 106.751C134.508 107.956 133.415 108.847 131.952 108.847ZM135.637 107.248V106.498L138.938 101.416H140.062V106.448H141.085V107.248H140.062V108.746H139.191V107.248H135.637ZM136.619 106.448H139.191V102.57H139.1L136.619 106.387V106.448ZM145.448 104.686V105.486H142.239V104.686H145.448ZM149.164 108.847C147.843 108.847 146.841 108.032 146.785 106.903H147.666C147.732 107.556 148.369 108.042 149.164 108.047C150.116 108.042 150.805 107.349 150.805 106.427C150.805 105.476 150.091 104.772 149.104 104.767C148.486 104.757 148.005 104.949 147.737 105.425H146.856L147.372 101.416H151.341V102.226H148.132L147.858 104.372H147.929C148.258 104.119 148.749 103.947 149.266 103.947C150.663 103.947 151.69 104.98 151.696 106.407C151.69 107.825 150.627 108.847 149.164 108.847ZM155.513 108.847C154.242 108.832 152.84 108.078 152.84 105.364C152.84 102.767 153.903 101.314 155.624 101.314C156.915 101.314 157.816 102.109 158.003 103.258H157.102C156.935 102.61 156.439 102.124 155.624 102.124C154.419 102.124 153.695 103.152 153.7 104.919H153.791C154.212 104.306 154.885 103.947 155.675 103.947C156.976 103.947 158.064 104.959 158.064 106.377C158.064 107.759 157.057 108.863 155.513 108.847ZM153.822 106.397C153.827 107.258 154.531 108.042 155.513 108.047C156.459 108.042 157.178 107.298 157.183 106.387C157.178 105.486 156.49 104.752 155.533 104.747C154.571 104.752 153.832 105.531 153.822 106.397ZM159.553 108.746L162.914 102.276V102.226H159.036V101.416H163.856V102.266L160.504 108.746H159.553ZM167.349 108.847C165.805 108.847 164.742 107.992 164.747 106.802C164.742 105.855 165.4 105.071 166.235 104.939V104.899C165.506 104.732 165.025 104.058 165.03 103.258C165.025 102.14 166.007 101.314 167.349 101.314C168.685 101.314 169.667 102.14 169.678 103.258C169.667 104.058 169.181 104.732 168.463 104.899V104.939C169.293 105.071 169.951 105.855 169.961 106.802C169.951 107.992 168.878 108.847 167.349 108.847ZM165.658 106.751C165.643 107.521 166.296 108.042 167.349 108.047C168.397 108.042 169.05 107.521 169.05 106.751C169.05 105.941 168.336 105.344 167.349 105.344C166.367 105.344 165.643 105.941 165.658 106.751ZM165.911 103.329C165.916 104.068 166.508 104.57 167.349 104.575C168.184 104.57 168.787 104.068 168.787 103.329C168.787 102.595 168.204 102.099 167.349 102.104C166.478 102.099 165.916 102.595 165.911 103.329Z" fill="#131214"/>
<path d="M72.5045 130.545C72.5045 132.881 70.4619 134.99 69.1551 136.1C68.5324 136.629 67.6447 136.629 67.022 136.1C65.7152 134.99 63.6726 132.881 63.6726 130.545C63.6726 129.374 64.1378 128.25 64.966 127.422C65.7941 126.594 66.9174 126.129 68.0886 126.129C69.2597 126.129 70.383 126.594 71.2111 127.422C72.0393 128.25 72.5045 129.374 72.5045 130.545Z" stroke="#131214" stroke-width="0.972" stroke-linecap="round" stroke-linejoin="round"/>
<path d="M68.0886 132.017C68.9015 132.017 69.5606 131.358 69.5606 130.545C69.5606 129.732 68.9015 129.073 68.0886 129.073C67.2756 129.073 66.6166 129.732 66.6166 130.545C66.6166 131.358 67.2756 132.017 68.0886 132.017Z" stroke="#131214" stroke-width="0.972" stroke-linecap="round" stroke-linejoin="round"/>
<path d="M84.6376 127.776C84.6326 129.406 85.6805 131.046 86.9866 131.644L86.5108 132.292C85.4881 131.765 84.6427 130.692 84.2428 129.411C83.8428 130.758 82.9974 131.912 81.9748 132.454L81.4584 131.816C82.7797 131.168 83.8226 129.436 83.8276 127.776V126.136H84.6376V127.776ZM86.0045 129.082V128.434H88.1409V125.356H88.9306V134.377H88.1409V129.082H86.0045ZM94.5298 125.467C96.5294 125.467 97.7039 126.024 97.709 127.027C97.7039 128.039 96.5294 128.591 94.5298 128.596C92.5199 128.591 91.3404 128.039 91.3404 127.027C91.3404 126.024 92.5199 125.467 94.5298 125.467ZM90.4291 129.831V129.193H98.6304V129.831H94.9145V130.682H97.5774V132.697H92.2314V133.628H97.8508V134.256H91.4416V132.109H96.7978V131.289H91.4214V130.682H94.1248V129.831H90.4291ZM92.1706 127.027C92.1605 127.644 93.0363 127.978 94.5298 127.989C96.0232 127.978 96.8939 127.644 96.899 127.027C96.8939 126.434 96.0232 126.085 94.5298 126.075C93.0363 126.085 92.1605 126.434 92.1706 127.027ZM109.11 125.943V126.733C109.11 127.584 109.11 128.52 108.852 129.811H110.193V130.469H106.477V134.377H105.677V130.469H101.992V129.811H108.047C108.32 128.515 108.32 127.573 108.32 126.733V126.601H103.025V125.943H109.11ZM119.194 132.575V133.243H110.953V132.575H114.658V130.874H111.985V128.1H117.372V126.682H111.965V126.024H118.151V128.748H112.775V130.216H118.364V130.874H115.438V132.575H119.194ZM127.031 125.943V126.733C127.031 127.584 127.031 128.52 126.773 129.811H128.114V130.469H124.399V134.377H123.599V130.469H119.913V129.811H125.968C126.241 128.515 126.241 127.573 126.241 126.733V126.601H120.946V125.943H127.031ZM138.898 125.356V134.377H138.098V125.356H138.898ZM132.063 132.14V126.217H136.346V126.885H132.863V131.451C134.615 131.451 135.764 131.401 137.116 131.158L137.197 131.826C135.799 132.074 134.615 132.135 132.792 132.14H132.063ZM143.656 128.12C143.661 129.649 144.77 131.203 146.096 131.775L145.651 132.403C144.598 131.927 143.692 130.889 143.272 129.644C142.851 130.965 141.94 132.109 140.912 132.626L140.437 131.998C141.727 131.38 142.851 129.679 142.856 128.12V126.946H140.73V126.288H145.803V126.946H143.656V128.12ZM147.058 134.357V125.356H147.858V134.357H147.058ZM153.943 125.913V126.571H150.653V127.533H153.7V128.151H150.653V129.224C152.313 129.219 153.265 129.183 154.429 128.991L154.5 129.639C153.28 129.841 152.283 129.862 150.521 129.862H149.863V125.913H153.943ZM151.017 131.269V130.631H156.849V132.717H151.827V133.618H157.193V134.256H151.037V132.109H156.059V131.269H151.017ZM154.328 128.08V127.432H156.059V125.356H156.849V130.226H156.059V128.08H154.328ZM166.6 132.575V133.243H158.358V132.575H162.064V130.874H159.391V128.1H164.777V126.682H159.37V126.024H165.557V128.748H160.18V130.216H165.769V130.874H162.843V132.575H166.6ZM172.776 133.638C171.318 133.638 170.27 132.859 170.224 131.694H171.146C171.196 132.393 171.89 132.828 172.766 132.828C173.733 132.828 174.431 132.307 174.436 131.542C174.431 130.743 173.793 130.181 172.654 130.176H172.057V129.376H172.654C173.545 129.376 174.168 128.875 174.163 128.12C174.168 127.386 173.631 126.9 172.796 126.895C172.011 126.9 171.298 127.33 171.257 128.049H170.376C170.422 126.885 171.505 126.105 172.806 126.105C174.203 126.105 175.054 127.022 175.044 128.07C175.054 128.905 174.568 129.512 173.798 129.73V129.781C174.755 129.928 175.332 130.611 175.327 131.542C175.332 132.747 174.239 133.638 172.776 133.638ZM176.644 133.537L176.633 132.869L179.134 130.236C180 129.315 180.415 128.819 180.42 128.14C180.415 127.386 179.787 126.9 178.962 126.895C178.086 126.9 177.54 127.452 177.535 128.272H176.674C176.664 126.976 177.666 126.105 178.993 126.105C180.324 126.105 181.266 127.001 181.271 128.14C181.266 128.961 180.886 129.598 179.59 130.935L177.909 132.666V132.727H181.402V133.537H176.644ZM185.888 130.003V130.803H182.678V130.003H185.888ZM189.806 126.207V133.537H188.885V127.158H188.844L187.062 128.343V127.422L188.885 126.207H189.806ZM191.76 133.537L191.75 132.869L194.251 130.236C195.117 129.315 195.532 128.819 195.537 128.14C195.532 127.386 194.904 126.9 194.079 126.895C193.203 126.9 192.656 127.452 192.651 128.272H191.791C191.78 126.976 192.783 126.105 194.109 126.105C195.441 126.105 196.382 127.001 196.387 128.14C196.382 128.961 196.003 129.598 194.707 130.935L193.026 132.666V132.727H196.519V133.537H191.76ZM88.6674 139.237V140.108C88.6573 141.201 88.6674 142.436 88.2928 144.269L87.5131 144.178C87.6853 143.363 87.7764 142.649 87.827 142.016L82.3291 142.345L82.1975 141.647L87.8624 141.414C87.8827 140.938 87.8878 140.513 87.8878 140.108V139.895H82.4608V139.237H88.6674ZM81.4685 146.132V145.454H84.6883V143.125H85.4679V145.454H89.6698V146.132H81.4685ZM94.5298 138.943C96.4434 138.953 97.8204 139.885 97.8204 141.302C97.8204 142.644 96.6256 143.53 94.9145 143.646V145.535H98.6709V146.203H90.4291V145.535H94.1349V143.646C92.4339 143.525 91.2391 142.639 91.2391 141.302C91.2391 139.885 92.6212 138.953 94.5298 138.943ZM92.0086 141.302C92.0036 142.34 93.0718 143.014 94.5298 143.024C95.9878 143.014 97.0509 142.34 97.0509 141.302C97.0509 140.285 95.9878 139.596 94.5298 139.601C93.0718 139.596 92.0036 140.285 92.0086 141.302ZM107.621 143.155V143.813H99.3796V143.155H103.106V142.315H100.453V140.168H105.758V139.267H100.423V138.619H106.558V140.756H101.243V141.687H106.751V142.315H103.885V143.155H107.621ZM100.352 145.889C100.342 144.932 101.491 144.426 103.49 144.421C105.47 144.426 106.614 144.932 106.619 145.889C106.614 146.831 105.47 147.337 103.49 147.337C101.491 147.337 100.342 146.831 100.352 145.889ZM101.162 145.889C101.152 146.431 102.002 146.745 103.49 146.74C104.953 146.745 105.804 146.431 105.809 145.889C105.804 145.342 104.953 145.039 103.49 145.039C102.002 145.039 101.152 145.342 101.162 145.889ZM118.374 138.356V143.064H117.595V138.356H118.374ZM111.428 142.659V138.721H112.218V140.047H114.871V138.721H115.661V142.659H111.428ZM112.218 142.021H114.871V140.665H112.218V142.021ZM112.532 144.158V143.53H118.384V145.646H113.332V146.618H118.708V147.256H112.552V145.059H117.595V144.158H112.532ZM126.95 138.366V141.13H128.317V141.809H126.95V144.988H126.16V138.366H126.95ZM120.298 139.622V138.953H124.378V141.525H121.098V142.933C122.698 142.943 123.857 142.872 125.259 142.639L125.34 143.297C123.897 143.545 122.692 143.596 121.017 143.591H120.318V140.897H123.599V139.622H120.298ZM121.371 147.165V144.482H122.181V146.497H127.375V147.165H121.371ZM136.164 143.226V143.874H129.937V139.136H136.063V139.804H130.747V141.14H135.87V141.778H130.747V143.226H136.164ZM128.874 146.183V145.525H137.116V146.183H128.874ZM143.353 139.207V146.537H142.431V140.158H142.391L140.609 141.343V140.422L142.431 139.207H143.353ZM147.696 146.638C146.375 146.638 145.372 145.823 145.317 144.694H146.198C146.263 145.347 146.901 145.833 147.696 145.838C148.648 145.833 149.336 145.14 149.336 144.218C149.336 143.267 148.623 142.563 147.635 142.558C147.018 142.548 146.537 142.74 146.269 143.216H145.388L145.904 139.207H149.873V140.017H146.663L146.39 142.163H146.461C146.79 141.91 147.281 141.738 147.797 141.738C149.195 141.738 150.222 142.771 150.227 144.198C150.222 145.616 149.159 146.638 147.696 146.638ZM153.893 146.638C152.268 146.638 151.326 145.271 151.331 142.872C151.326 140.492 152.278 139.105 153.893 139.105C155.503 139.105 156.454 140.492 156.454 142.872C156.454 145.271 155.518 146.638 153.893 146.638ZM152.212 142.872C152.217 144.77 152.83 145.828 153.893 145.828C154.951 145.828 155.568 144.77 155.563 142.872C155.568 140.973 154.946 139.9 153.893 139.895C152.84 139.9 152.217 140.973 152.212 142.872ZM157.487 145.039V144.289L160.788 139.207H161.912V144.239H162.934V145.039H161.912V146.537H161.041V145.039H157.487ZM158.469 144.239H161.041V140.361H160.95L158.469 144.178V144.239ZM171.591 139.693V140.351H164.22V139.693H167.521V138.508H168.301V139.693H171.591ZM163.815 146.304V145.646H167.521V144.38C165.916 144.294 164.949 143.672 164.959 142.659C164.949 141.591 166.078 140.958 167.916 140.968C169.728 140.958 170.877 141.591 170.872 142.659C170.877 143.672 169.89 144.294 168.301 144.38V145.646H172.057V146.304H163.815ZM165.759 142.659C165.749 143.343 166.574 143.738 167.916 143.743C169.242 143.738 170.067 143.343 170.062 142.659C170.067 141.991 169.242 141.596 167.916 141.596C166.574 141.596 165.749 141.991 165.759 142.659Z" fill="#131214"/>
<path d="M64.7417 168.248C62.7781 168.644 62.7263 170.871 63.2253 172.13V172.136M65.1697 163.712C64.3014 163.745 63.608 164.458 63.608 165.332C63.608 166.227 64.3338 166.952 65.228 166.952C65.3317 166.952 65.4354 166.939 65.5326 166.927M73.0627 172.136V172.13C73.5617 170.871 73.5099 168.644 71.5463 168.248M70.7554 166.927C70.8526 166.939 70.9563 166.952 71.06 166.952C71.9542 166.952 72.68 166.227 72.68 165.332C72.68 164.438 71.9866 163.745 71.1183 163.712M71.0256 173.432H65.262L65.2571 173.42C64.5242 171.605 64.6858 168.248 68.144 168.248C71.6021 168.248 71.7636 171.606 71.0303 173.421L71.0256 173.432ZM70.088 165.008C70.088 166.082 69.2177 166.952 68.144 166.952C67.0704 166.952 66.2 166.082 66.2 165.008C66.2 163.935 67.0704 163.064 68.144 163.064C69.2177 163.064 70.088 163.935 70.088 165.008Z" stroke="#131214" stroke-width="0.972" stroke-linecap="round" stroke-linejoin="round"/>
<path d="M89.6698 168.281V168.939H85.9539V169.901C87.6498 169.977 88.6573 170.529 88.6674 171.48C88.6573 172.488 87.4979 173.05 85.5691 173.05C83.615 173.05 82.4557 172.488 82.4608 171.48C82.4557 170.529 83.4581 169.977 85.1743 169.901V168.939H81.4685V168.281H89.6698ZM81.9343 167.106C83.4935 166.944 84.9971 166.15 85.0528 165.142H82.2178V164.494H88.9408V165.142H86.0855C86.1412 166.15 87.6296 166.944 89.2141 167.106L88.9205 167.734C87.4473 167.557 86.0653 166.894 85.5691 165.897C85.073 166.894 83.7011 167.557 82.2178 167.734L81.9343 167.106ZM83.2708 171.48C83.2606 172.078 84.1263 172.437 85.5691 172.432C86.9968 172.437 87.8624 172.078 87.8675 171.48C87.8624 170.868 86.9968 170.519 85.5691 170.508C84.1263 170.519 83.2606 170.868 83.2708 171.48ZM97.466 164.069V166.813H98.8228V167.481H97.466V170.66H96.6661V164.069H97.466ZM90.4393 168.98C92.6009 168.306 94.0033 167.025 94.1703 165.436H90.8139V164.768H95.036C95.036 167.086 93.3806 168.807 90.7835 169.617L90.4393 168.98ZM91.8264 172.878V169.992H92.6161V172.209H97.8811V172.878H91.8264ZM104.381 164.768V165.243C104.376 165.836 104.376 166.732 104.149 167.906L103.349 167.846C103.566 166.772 103.587 166.008 103.597 165.436H99.896V164.768H104.381ZM99.3391 168.747C99.9213 168.747 100.579 168.742 101.273 168.721V166.762H102.063V168.696C103.06 168.656 104.093 168.585 105.029 168.453L105.08 169.04C103.192 169.364 101.025 169.4 99.4201 169.405L99.3391 168.747ZM100.726 172.878V170.235H101.526V172.209H106.741V172.878H100.726ZM105.637 170.843V164.069H106.447V167.005H107.763V167.684H106.447V170.843H105.637ZM115.782 164.069V173.09H114.992V164.069H115.782ZM108.857 165.567V164.909H113.048V168.109H109.687V170.235C111.18 170.24 112.512 170.169 114.122 169.911L114.203 170.579C112.547 170.838 111.18 170.903 109.626 170.903H108.877V167.461H112.249V165.567H108.857ZM120.359 166.833C120.349 168.276 121.391 169.866 122.698 170.488L122.242 171.116C121.229 170.62 120.374 169.557 119.969 168.337C119.554 169.658 118.653 170.822 117.645 171.339L117.159 170.711C118.455 170.078 119.569 168.367 119.579 166.833V165.659H117.483V165H122.384V165.659H120.359V166.833ZM123.487 173.07V164.069H124.277V167.714H125.786V168.392H124.277V173.07H123.487Z" fill="#131214"/>
<rect x="60.3679" y="245.264" width="222.264" height="31.104" rx="3.888" fill="#FEEBEC"/>
<path d="M137.622 257.577V260.807H135.323V262.67C136.31 262.665 137.252 262.624 138.371 262.427L138.452 263.217C137.191 263.444 136.159 263.47 135.019 263.48H134.392V260.037H136.7V258.357H134.382V257.577H137.622ZM138.047 260.594V259.815H139.12V256.808H140.031V265.211H139.12V260.594H138.047ZM140.973 265.677V256.605H141.894V265.677H140.973ZM148.334 257.506V258.296H147.342V262.564C147.772 262.533 148.192 262.493 148.597 262.447L148.658 263.156C146.81 263.45 144.684 263.49 143.109 263.49L143.008 262.69L144.162 262.675V258.296H143.281V257.506H148.334ZM145.104 262.66C145.534 262.65 145.98 262.634 146.42 262.614V258.296H145.104V262.66ZM148.04 260.777V259.987H149.68V256.605H150.632V265.677H149.68V260.777H148.04ZM156.454 257.233V259.967H153.356V261.273C154.961 261.268 155.988 261.217 157.163 261.02L157.254 261.809C155.978 262.017 154.885 262.052 153.113 262.052H152.394V259.207H155.502V258.002H152.374V257.233H156.454ZM153.639 265.485V262.761H154.601V264.705H159.856V265.485H153.639ZM157.001 259.734V258.914H158.631V256.615H159.593V263.277H158.631V259.734H157.001ZM165.597 257.891C165.597 259.369 167.171 260.766 168.918 261.08L168.472 261.88C167.019 261.566 165.688 260.615 165.101 259.339C164.503 260.609 163.172 261.556 161.719 261.88L161.294 261.08C163.015 260.756 164.579 259.369 164.584 257.891V257.202H165.597V257.891ZM160.99 264.482V263.682H169.293V264.482H160.99ZM180.268 256.605V265.677H179.347V256.605H180.268ZM172.35 263.176C173.636 262.402 174.289 260.751 174.294 259.136V258.407H172.624V257.628H176.775V258.407H175.216V259.136C175.216 260.685 175.843 262.24 177.119 262.974L176.542 263.682C175.676 263.166 175.084 262.24 174.765 261.146C174.441 262.331 173.823 263.343 172.938 263.895L172.35 263.176ZM176.107 260.604V259.815H177.514V256.797H178.425V265.221H177.514V260.604H176.107ZM189.705 260.584V261.303H186.049V262.062H188.672V264.108H183.387V264.857H188.925V265.586H182.445V263.439H187.72V262.761H182.435V262.062H185.098V261.303H181.453V260.584H189.705ZM181.858 259.501C183.594 259.405 184.819 258.873 185.017 258.104H182.273V257.364H185.098V256.565H186.049V257.364H188.884V258.104H186.125C186.318 258.873 187.543 259.405 189.3 259.501L189.006 260.23C187.426 260.113 186.141 259.653 185.574 258.858C185.007 259.653 183.721 260.113 182.131 260.23L181.858 259.501ZM201.237 263.743V264.543H192.934V263.743H194.919V261.374C194.175 260.964 193.719 260.316 193.724 259.501C193.719 258.073 195.121 257.137 197.065 257.132C199.014 257.137 200.417 258.073 200.417 259.501C200.417 260.301 199.981 260.944 199.252 261.354V263.743H201.237ZM194.656 259.501C194.656 260.473 195.643 261.106 197.065 261.111C198.478 261.106 199.48 260.473 199.485 259.501C199.48 258.524 198.478 257.901 197.065 257.901C195.643 257.901 194.656 258.524 194.656 259.501ZM195.871 263.743H198.28V261.728C197.911 261.814 197.501 261.86 197.065 261.86C196.64 261.86 196.235 261.814 195.871 261.728V263.743ZM205.074 258.539C205.074 259.607 205.95 260.604 207.332 260.989L206.877 261.738C205.824 261.44 205.034 260.792 204.619 259.951C204.224 260.888 203.434 261.632 202.351 261.971L201.895 261.232C203.272 260.792 204.123 259.708 204.123 258.539V258.428H202.148V257.658H204.123V256.565H205.084V257.658H207.049V258.428H205.074V258.539ZM203.353 263.976C203.348 262.913 204.517 262.31 206.421 262.305C208.319 262.31 209.484 262.913 209.489 263.976C209.484 265.044 208.319 265.662 206.421 265.657C204.517 265.662 203.348 265.044 203.353 263.976ZM204.305 263.976C204.3 264.563 205.089 264.913 206.421 264.918C207.752 264.913 208.532 264.563 208.537 263.976C208.532 263.389 207.752 263.055 206.421 263.055C205.089 263.055 204.3 263.389 204.305 263.976ZM206.765 259.936V259.146H208.497V256.605H209.458V262.103H208.497V259.936H206.765Z" fill="#C90000"/>
<rect x="60.368" y="205.088" width="222.264" height="31.104" rx="3.888" fill="#E0EDFF"/>
<path d="M137.622 217.401V220.631H135.323V222.494C136.311 222.489 137.252 222.449 138.371 222.251L138.452 223.041C137.191 223.269 136.159 223.294 135.02 223.304H134.392V219.862H136.7V218.181H134.382V217.401H137.622ZM138.047 220.418V219.639H139.12V216.632H140.032V225.036H139.12V220.418H138.047ZM140.973 225.501V216.429H141.895V225.501H140.973ZM148.334 217.33V218.12H147.342V222.388C147.772 222.357 148.192 222.317 148.597 222.271L148.658 222.98C146.81 223.274 144.684 223.314 143.11 223.314L143.008 222.514L144.163 222.499V218.12H143.282V217.33H148.334ZM145.104 222.484C145.534 222.474 145.98 222.459 146.42 222.438V218.12H145.104V222.484ZM148.04 220.601V219.811H149.681V216.429H150.632V225.501H149.681V220.601H148.04ZM156.454 217.057V219.791H153.356V221.097C154.961 221.092 155.989 221.041 157.163 220.844L157.254 221.633C155.978 221.841 154.885 221.876 153.113 221.876H152.394V219.031H155.503V217.826H152.374V217.057H156.454ZM153.64 225.309V222.585H154.601V224.529H159.856V225.309H153.64ZM157.001 219.558V218.738H158.631V216.439H159.593V223.102H158.631V219.558H157.001ZM165.597 217.715C165.597 219.193 167.172 220.591 168.918 220.904L168.473 221.704C167.02 221.39 165.688 220.439 165.101 219.163C164.504 220.434 163.172 221.38 161.719 221.704L161.294 220.904C163.015 220.58 164.58 219.193 164.585 217.715V217.027H165.597V217.715ZM160.99 224.306V223.507H169.293V224.306H160.99ZM175.651 218.059C175.646 219.219 176.451 220.317 177.838 220.783L177.352 221.532C176.325 221.178 175.57 220.469 175.175 219.578C174.781 220.555 173.991 221.33 172.928 221.704L172.411 220.955C173.829 220.474 174.684 219.3 174.689 218.049V217.806H172.695V217.027H177.605V217.806H175.651V218.059ZM173.616 223.122V222.342H179.61V225.501H178.648V223.122H173.616ZM178.648 221.897V216.429H179.61V218.758H180.926V219.568H179.61V221.897H178.648ZM184.663 217.786C184.657 219.057 185.483 220.191 186.86 220.641L186.333 221.39C185.336 221.026 184.602 220.327 184.207 219.416C183.817 220.454 183.027 221.269 181.929 221.664L181.412 220.894C182.86 220.398 183.701 219.188 183.711 217.826V216.935H184.663V217.786ZM182.901 223.77C182.896 222.671 184.06 222.033 185.969 222.038C187.867 222.033 189.031 222.671 189.037 223.77C189.031 224.863 187.867 225.486 185.969 225.481C184.06 225.486 182.896 224.863 182.901 223.77ZM183.853 223.77C183.847 224.372 184.637 224.727 185.969 224.722C187.29 224.727 188.08 224.372 188.085 223.77C188.08 223.147 187.29 222.788 185.969 222.788C184.637 222.788 183.847 223.147 183.853 223.77ZM186.131 219.062V218.272H188.044V216.429H189.006V221.785H188.044V219.062H186.131ZM201.237 223.567V224.367H192.935V223.567H194.919V221.198C194.175 220.788 193.719 220.14 193.724 219.325C193.719 217.897 195.122 216.961 197.066 216.956C199.015 216.961 200.417 217.897 200.417 219.325C200.417 220.125 199.982 220.768 199.253 221.178V223.567H201.237ZM194.656 219.325C194.656 220.297 195.643 220.93 197.066 220.935C198.478 220.93 199.48 220.297 199.486 219.325C199.48 218.348 198.478 217.725 197.066 217.725C195.643 217.725 194.656 218.348 194.656 219.325ZM195.871 223.567H198.281V221.552C197.911 221.639 197.501 221.684 197.066 221.684C196.64 221.684 196.235 221.639 195.871 221.552V223.567ZM205.075 218.363C205.075 219.431 205.95 220.429 207.332 220.813L206.877 221.563C205.824 221.264 205.034 220.616 204.619 219.776C204.224 220.712 203.434 221.456 202.351 221.795L201.895 221.056C203.272 220.616 204.123 219.533 204.123 218.363V218.252H202.148V217.482H204.123V216.389H205.085V217.482H207.049V218.252H205.075V218.363ZM203.353 223.8C203.348 222.737 204.518 222.135 206.421 222.13C208.32 222.135 209.484 222.737 209.489 223.8C209.484 224.868 208.32 225.486 206.421 225.481C204.518 225.486 203.348 224.868 203.353 223.8ZM204.305 223.8C204.3 224.387 205.09 224.737 206.421 224.742C207.753 224.737 208.532 224.387 208.537 223.8C208.532 223.213 207.753 222.879 206.421 222.879C205.09 222.879 204.3 223.213 204.305 223.8ZM206.765 219.76V218.971H208.497V216.429H209.459V221.927H208.497V219.76H206.765Z" fill="#0038FF"/>
<rect width="243" height="526.176" transform="translate(50 -220)" fill="black" fill-opacity="0.7"/>
<rect width="243" height="22.032" transform="translate(50 284.143)" fill="white"/>
<path fill-rule="evenodd" clip-rule="evenodd" d="M126.64 299.339C126.64 298.444 127.365 297.719 128.26 297.719H215.092C215.987 297.719 216.712 298.444 216.712 299.339C216.712 300.233 215.987 300.959 215.092 300.959H128.26C127.365 300.959 126.64 300.233 126.64 299.339Z" fill="black"/>
<path d="M50 128.624C50 120.035 56.9629 113.072 65.552 113.072H277.448C286.037 113.072 293 120.035 293 128.624V148.064H50V128.624Z" fill="white"/>
<path d="M161.01 126.751V135.965H159.785V126.751H161.01ZM152.849 133.271C154.206 132.436 154.712 130.786 154.712 129.221V128.725H153.203V127.693H157.355V128.725H155.957V129.221C155.952 130.75 156.433 132.299 157.78 133.069L157.021 134.021C156.195 133.535 155.659 132.715 155.345 131.722C155.031 132.796 154.474 133.707 153.629 134.223L152.849 133.271ZM156.697 130.953V129.91H157.912V126.903H159.127V135.539H157.912V130.953H156.697ZM170.386 130.679V131.621H166.842V132.198H169.383V134.446H164.25V134.952H169.626V135.904H162.984V133.575H168.107V133.12H162.974V132.198H165.556V131.621H162.022V130.679H170.386ZM162.346 129.475C164.189 129.394 165.126 128.953 165.394 128.422H162.812V127.47H165.556V126.741H166.832V127.47H169.596V128.422H166.989C167.252 128.953 168.193 129.394 170.051 129.475L169.677 130.426C167.966 130.34 166.776 129.91 166.194 129.216C165.612 129.91 164.427 130.34 162.701 130.426L162.346 129.475ZM181.786 133.828V134.891H173.352V133.828H175.235V131.57C174.522 131.14 174.091 130.487 174.091 129.677C174.091 128.184 175.549 127.202 177.554 127.196C179.549 127.202 181.022 128.184 181.027 129.677C181.022 130.472 180.607 131.115 179.913 131.545V133.828H181.786ZM175.367 129.677C175.367 130.578 176.233 131.135 177.554 131.135C178.855 131.135 179.746 130.578 179.751 129.677C179.746 128.751 178.855 128.214 177.554 128.219C176.233 128.214 175.367 128.751 175.367 129.677ZM176.511 133.828H178.607V132.036C178.278 132.102 177.924 132.137 177.554 132.137C177.184 132.137 176.835 132.102 176.511 132.041V133.828ZM187.568 127.713V128.725H185.705C185.72 129.672 186.408 130.634 187.892 131.014L187.294 132.006C186.241 131.743 185.507 131.16 185.087 130.411C184.687 131.262 183.948 131.935 182.86 132.249L182.252 131.246C183.725 130.821 184.409 129.768 184.419 128.725H182.566V127.713H184.419V126.71H185.725V127.713H187.568ZM183.761 134.203C183.761 133.099 184.976 132.477 186.93 132.472C188.894 132.477 190.104 133.099 190.109 134.203C190.104 135.322 188.894 135.97 186.93 135.965C184.976 135.97 183.761 135.322 183.761 134.203ZM185.047 134.203C185.047 134.709 185.71 134.983 186.93 134.983C188.175 134.983 188.818 134.709 188.823 134.203C188.818 133.712 188.175 133.464 186.93 133.464C185.71 133.464 185.047 133.712 185.047 134.203ZM187.294 130.254V129.221H188.793V126.751H190.079V132.32H188.793V130.254H187.294Z" fill="black"/>
<path d="M269.348 127.006L273.56 131.218M273.56 131.218L277.772 135.43M273.56 131.218L277.772 127.006M273.56 131.218L269.348 135.43" stroke="#131214" stroke-width="0.972" stroke-linecap="round"/>
<rect x="50" y="148.064" width="243" height="0.648" fill="#F1F1F5"/>
<rect width="243" height="46.656" transform="translate(50 148.713)" fill="white"/>
<rect x="61.988" y="164.59" width="14.904" height="14.904" rx="2.268" stroke="#DE2D39" stroke-width="0.648"/>
<path d="M72.68 169.996L68.7978 173.878C68.4814 174.195 67.9686 174.195 67.6522 173.878L66.2 172.426" stroke="#DE2D39" stroke-width="0.972" stroke-linecap="round" stroke-linejoin="round"/>
<path d="M92.5351 166.815V174.23H91.453V166.815H92.5351ZM84.2769 170.027C84.2826 168.552 85.4559 167.504 86.9993 167.498C88.537 167.504 89.7102 168.552 89.7102 170.027C89.7102 171.525 88.537 172.567 86.9993 172.567C85.4559 172.567 84.2826 171.525 84.2769 170.027ZM85.3362 170.027C85.3306 170.989 86.0482 171.621 86.9993 171.621C87.9333 171.621 88.6509 170.989 88.6509 170.027C88.6509 169.087 87.9333 168.443 86.9993 168.443C86.0482 168.443 85.3306 169.087 85.3362 170.027ZM85.8602 176.793V173.478H86.9537V175.916H92.8427V176.793H85.8602ZM97.6951 169.4C97.6837 171.206 98.7373 173.057 100.258 173.797L99.5859 174.663C98.4753 174.082 97.6153 172.943 97.1654 171.582C96.7098 173.028 95.8156 174.253 94.6538 174.856L93.9817 173.979C95.5479 173.228 96.6073 171.268 96.613 169.4V167.658H97.6951V169.4ZM101.021 177.009V166.803H102.103V170.87H103.743V171.792H102.103V177.009H101.021ZM109.951 167.544V168.421H108.972V171.508C109.405 171.473 109.82 171.434 110.225 171.382L110.27 172.202C108.305 172.51 106.016 172.544 104.381 172.544L104.245 171.644C104.626 171.644 105.048 171.644 105.486 171.639V168.421H104.529V167.544H109.951ZM105.874 175.141C105.868 173.951 107.166 173.273 109.325 173.273C111.478 173.273 112.771 173.951 112.776 175.141C112.771 176.309 111.478 176.992 109.325 176.986C107.166 176.992 105.868 176.309 105.874 175.141ZM106.534 171.621C106.996 171.61 107.463 171.593 107.935 171.57V168.421H106.534V171.621ZM106.944 175.141C106.939 175.785 107.816 176.149 109.325 176.155C110.823 176.149 111.7 175.785 111.706 175.141C111.7 174.481 110.823 174.11 109.325 174.116C107.816 174.11 106.939 174.481 106.944 175.141ZM110.099 171.303V170.437H111.66V169.446H110.099V168.58H111.66V166.803H112.742V173.079H111.66V171.303H110.099ZM122.265 166.803V170.87H123.848V171.77H122.265V176.998H121.183V166.803H122.265ZM114.325 174.275C116.883 173 118.272 171.154 118.494 168.774H114.838V167.874H119.599C119.588 170.824 118.289 173.461 114.929 175.118L114.325 174.275ZM136.002 166.803V177.009H134.965V166.803H136.002ZM127.094 174.196C128.541 173.324 129.276 171.468 129.281 169.651V168.831H127.402V167.954H132.072V168.831H130.318V169.651C130.318 171.394 131.024 173.142 132.459 173.968L131.81 174.765C130.836 174.184 130.17 173.142 129.811 171.912C129.446 173.245 128.752 174.384 127.755 175.004L127.094 174.196ZM131.32 171.303V170.414H132.903V167.02H133.929V176.497H132.903V171.303H131.32ZM146.618 171.28V172.088H142.506V172.943H145.456V175.244H139.51V176.087H145.741V176.907H138.451V174.492H144.385V173.729H138.439V172.943H141.435V172.088H137.334V171.28H146.618ZM137.79 170.061C139.744 169.953 141.122 169.355 141.344 168.489H138.257V167.658H141.435V166.758H142.506V167.658H145.695V168.489H142.591C142.808 169.355 144.186 169.953 146.162 170.061L145.832 170.881C144.055 170.75 142.608 170.232 141.97 169.338C141.333 170.232 139.886 170.75 138.098 170.881L137.79 170.061ZM159.592 174.834V175.733H150.251V174.834H152.484V172.168C151.647 171.707 151.134 170.978 151.14 170.061C151.134 168.455 152.712 167.401 154.899 167.396C157.091 167.401 158.669 168.455 158.669 170.061C158.669 170.961 158.179 171.684 157.359 172.145V174.834H159.592ZM152.188 170.061C152.188 171.154 153.298 171.866 154.899 171.872C156.488 171.866 157.615 171.154 157.621 170.061C157.615 168.962 156.488 168.261 154.899 168.261C153.298 168.261 152.188 168.962 152.188 170.061ZM153.555 174.834H156.266V172.567C155.85 172.664 155.389 172.715 154.899 172.715C154.42 172.715 153.965 172.664 153.555 172.567V174.834ZM163.909 168.979C163.909 170.181 164.894 171.303 166.449 171.735L165.936 172.578C164.752 172.242 163.863 171.513 163.396 170.568C162.952 171.621 162.063 172.459 160.845 172.84L160.332 172.009C161.881 171.513 162.838 170.294 162.838 168.979V168.854H160.617V167.988H162.838V166.758H163.92V167.988H166.13V168.854H163.909V168.979ZM161.972 175.096C161.967 173.9 163.282 173.222 165.424 173.216C167.559 173.222 168.869 173.9 168.875 175.096C168.869 176.297 167.559 176.992 165.424 176.986C163.282 176.992 161.967 176.297 161.972 175.096ZM163.043 175.096C163.037 175.756 163.926 176.149 165.424 176.155C166.922 176.149 167.799 175.756 167.804 175.096C167.799 174.435 166.922 174.059 165.424 174.059C163.926 174.059 163.037 174.435 163.043 175.096ZM165.811 170.551V169.662H167.759V166.803H168.841V172.988H167.759V170.551H165.811Z" fill="#131214"/>
<rect x="50" y="195.369" width="243" height="0.648" fill="#E6E9EB"/>
<rect width="243" height="46.656" transform="translate(50 196.016)" fill="white"/>
<rect x="61.988" y="211.892" width="14.904" height="14.904" rx="2.268" stroke="#DE2D39" stroke-width="0.648"/>
<path d="M72.68 217.299L68.7978 221.181C68.4814 221.497 67.9686 221.497 67.6522 221.181L66.2 219.729" stroke="#DE2D39" stroke-width="0.972" stroke-linecap="round" stroke-linejoin="round"/>
<path d="M93.378 220.257V221.145H89.2546V224.323H88.1839V221.145H84.0719V220.257H93.378ZM84.6186 218.685C86.555 218.44 88.1156 217.358 88.1839 216.213H84.949V215.336H88.1839V214.106H89.2546V215.336H92.4896V216.213H89.266C89.323 217.347 90.8664 218.44 92.8085 218.685L92.4212 219.551C90.781 219.323 89.3856 218.554 88.725 217.512C88.0643 218.565 86.6633 219.323 85.0173 219.551L84.6186 218.685ZM97.7292 216.532C97.7292 217.819 98.6918 219.004 100.258 219.494L99.734 220.348C98.5608 219.978 97.678 219.203 97.211 218.207C96.7667 219.272 95.884 220.109 94.6766 220.507L94.1526 219.665C95.7131 219.163 96.6585 217.905 96.6585 216.532V216.293H94.4374V215.416H96.6585V214.174H97.7406V215.416H99.9504V216.293H97.7292V216.532ZM96.032 224.096V221.043H97.1142V223.218H102.935V224.096H96.032ZM99.5973 218.081V217.204H101.579V214.117H102.661V221.715H101.579V218.081H99.5973ZM107.912 216.703C107.912 218.571 108.96 220.433 110.521 221.134L109.86 222C108.704 221.419 107.827 220.268 107.377 218.873C106.927 220.342 106.039 221.584 104.86 222.193L104.176 221.316C105.76 220.559 106.813 218.594 106.819 216.703V214.96H107.912V216.703ZM109.393 218.377V217.5H111.671V214.106H112.742V224.335H111.671V218.377H109.393ZM125.921 214.106V224.312H124.884V214.106H125.921ZM117.014 221.498C118.46 220.627 119.195 218.77 119.201 216.954V216.133H117.321V215.256H121.991V216.133H120.237V216.954C120.237 218.696 120.943 220.445 122.379 221.271L121.729 222.068C120.755 221.487 120.089 220.445 119.73 219.215C119.366 220.547 118.671 221.686 117.674 222.307L117.014 221.498ZM121.239 218.605V217.717H122.823V214.322H123.848V223.799H122.823V218.605H121.239ZM136.537 218.582V219.391H132.425V220.246H135.375V222.546H129.429V223.389H135.66V224.209H128.37V221.795H134.305V221.031H128.359V220.246H131.354V219.391H127.254V218.582H136.537ZM127.709 217.364C129.663 217.255 131.041 216.657 131.263 215.792H128.176V214.96H131.354V214.06H132.425V214.96H135.614V215.792H132.511C132.727 216.657 134.105 217.255 136.081 217.364L135.751 218.184C133.974 218.053 132.528 217.535 131.89 216.64C131.252 217.535 129.805 218.053 128.017 218.184L127.709 217.364ZM149.511 222.136V223.036H140.171V222.136H142.403V219.471C141.566 219.01 141.053 218.281 141.059 217.364C141.053 215.758 142.631 214.704 144.818 214.698C147.011 214.704 148.588 215.758 148.588 217.364C148.588 218.264 148.099 218.987 147.278 219.448V222.136H149.511ZM142.107 217.364C142.107 218.457 143.218 219.169 144.818 219.175C146.407 219.169 147.535 218.457 147.54 217.364C147.535 216.264 146.407 215.564 144.818 215.564C143.218 215.564 142.107 216.264 142.107 217.364ZM143.474 222.136H146.185V219.87C145.769 219.966 145.308 220.018 144.818 220.018C144.34 220.018 143.884 219.966 143.474 219.87V222.136ZM153.828 216.282C153.828 217.483 154.813 218.605 156.368 219.038L155.856 219.881C154.671 219.545 153.783 218.816 153.315 217.871C152.871 218.924 151.983 219.761 150.764 220.143L150.251 219.311C151.801 218.816 152.757 217.597 152.757 216.282V216.156H150.536V215.291H152.757V214.06H153.839V215.291H156.049V216.156H153.828V216.282ZM151.892 222.398C151.886 221.202 153.202 220.525 155.343 220.519C157.479 220.525 158.789 221.202 158.794 222.398C158.789 223.6 157.479 224.295 155.343 224.289C153.202 224.295 151.886 223.6 151.892 222.398ZM152.962 222.398C152.957 223.059 153.845 223.452 155.343 223.458C156.841 223.452 157.718 223.059 157.724 222.398C157.718 221.738 156.841 221.362 155.343 221.362C153.845 221.362 152.957 221.738 152.962 222.398ZM155.73 217.853V216.965H157.678V214.106H158.76V220.291H157.678V217.853H155.73Z" fill="#131214"/>
<rect width="243" height="41.472" transform="translate(50 242.672)" fill="white"/>
<rect x="61.664" y="247.855" width="222" height="31" rx="3.888" fill="#C90000"/>
<path d="M161.826 259.156V268.309H160.752V259.156H161.826ZM153.786 265.707C155.108 264.902 155.69 263.252 155.69 261.657V261.05H154.1V260.138H158.251V261.05H156.773V261.657C156.773 263.201 157.325 264.75 158.636 265.505L157.968 266.335C157.123 265.834 156.561 264.963 156.242 263.92C155.918 265.049 155.335 266.011 154.475 266.548L153.786 265.707ZM157.583 263.257V262.346H158.899V259.328H159.963V267.864H158.899V263.257H157.583ZM171.232 263.115V263.945H167.627V264.614H170.209V266.76H165.005V267.388H170.462V268.228H163.901V265.991H169.105V265.424H163.891V264.614H166.513V263.945H162.929V263.115H171.232ZM163.294 261.971C165.101 261.88 166.164 261.394 166.397 260.746H163.729V259.906H166.513V259.136H167.627V259.906H170.432V260.746H167.744C167.966 261.394 169.03 261.88 170.857 261.971L170.523 262.811C168.878 262.71 167.647 262.265 167.07 261.526C166.493 262.265 165.268 262.71 163.608 262.811L163.294 261.971ZM182.693 266.274V267.196H174.33V266.274H176.264V263.961C175.535 263.54 175.094 262.882 175.099 262.072C175.094 260.614 176.522 259.652 178.491 259.652C180.471 259.652 181.909 260.614 181.903 262.072C181.909 262.872 181.478 263.515 180.769 263.935V266.274H182.693ZM176.203 262.072C176.198 263.009 177.124 263.606 178.491 263.601C179.853 263.606 180.8 263.009 180.8 262.072C180.8 261.121 179.853 260.538 178.491 260.543C177.124 260.538 176.198 261.121 176.203 262.072ZM177.378 266.274H179.625V264.366C179.276 264.442 178.896 264.482 178.491 264.482C178.096 264.482 177.722 264.442 177.378 264.371V266.274ZM186.581 261.11C186.576 262.113 187.361 263.1 188.799 263.49L188.272 264.361C187.219 264.072 186.46 263.459 186.04 262.665C185.64 263.561 184.88 264.269 183.787 264.593L183.26 263.723C184.693 263.287 185.457 262.214 185.457 261.11V261.06H183.544V260.169H185.457V259.116H186.591V260.169H188.495V261.06H186.581V261.11ZM184.749 266.578C184.738 265.49 185.933 264.877 187.857 264.877C189.791 264.877 190.981 265.49 190.986 266.578C190.981 267.666 189.791 268.299 187.857 268.299C185.933 268.299 184.738 267.666 184.749 266.578ZM185.862 266.578C185.857 267.12 186.586 267.428 187.857 267.428C189.153 267.428 189.862 267.12 189.862 266.578C189.862 266.031 189.153 265.743 187.857 265.738C186.586 265.743 185.857 266.031 185.862 266.578ZM188.221 262.579V261.667H189.831V259.156H190.955V264.695H189.831V262.579H188.221Z" fill="white"/>
</g>
<rect x="48.5" y="-221.5" width="246" height="529.176" rx="27.5" stroke="#0C0C0C" stroke-width="3"/>
</g>
<defs>
<clipPath id="clip0_5322_18798">
<rect width="343" height="343" rx="24" fill="white"/>
</clipPath>
<clipPath id="clip1_5322_18798">
<rect x="50" y="-220" width="243" height="526.176" rx="26" fill="white"/>
</clipPath>
</defs>
</svg>
