<svg width="343" height="343" viewBox="0 0 343 343" fill="none" xmlns="http://www.w3.org/2000/svg">
<g clip-path="url(#clip0_5339_17650)">
<rect width="343" height="343" rx="24" fill="#F7F7FB"/>
<g clip-path="url(#clip1_5339_17650)">
<rect x="50" y="47" width="243" height="526.176" rx="26" fill="white"/>
<path d="M69.287 150.113V157.551H68.0113V150.113H69.287ZM60.8921 153.359C60.8921 151.861 62.1052 150.791 63.6714 150.785C65.2377 150.791 66.4451 151.861 66.4394 153.359C66.4451 154.88 65.2377 155.945 63.6714 155.945C62.1052 155.945 60.8921 154.88 60.8921 153.359ZM62.1337 153.359C62.128 154.27 62.7887 154.84 63.6714 154.84C64.5314 154.84 65.1978 154.27 65.1978 153.359C65.1978 152.471 64.5314 151.89 63.6714 151.89C62.7887 151.89 62.128 152.471 62.1337 153.359ZM62.4754 160.193V156.799H63.7512V159.168H69.5718V160.193H62.4754ZM74.4698 152.573C74.4584 154.413 75.381 156.269 76.9757 157.038L76.2011 158.052C75.0849 157.488 74.2818 156.4 73.8433 155.091C73.3933 156.492 72.5504 157.653 71.3715 158.246L70.5969 157.232C72.2543 156.446 73.1997 154.475 73.2054 152.573V150.933H74.4698V152.573ZM77.5908 160.399V150.101H78.8551V154.134H80.4384V155.216H78.8551V160.399H77.5908ZM89.3915 150.819V151.844H88.4802V154.766C88.8561 154.737 89.232 154.703 89.5851 154.658V153.735H90.9976V152.847H89.5851V151.833H90.9976V150.101H92.2619V156.412H90.9976V154.749H89.6136L89.6649 155.592C87.7 155.916 85.4275 155.95 83.7873 155.956L83.6506 154.908C84.0094 154.908 84.4024 154.908 84.8124 154.903V151.844H83.9126V150.819H89.3915ZM85.2795 158.496C85.2681 157.283 86.5951 156.594 88.7764 156.594C90.9748 156.594 92.2904 157.283 92.2961 158.496C92.2904 159.681 90.9748 160.387 88.7764 160.387C86.5951 160.387 85.2681 159.681 85.2795 158.496ZM86.0426 154.885C86.4413 154.874 86.8514 154.857 87.2614 154.84V151.844H86.0426V154.885ZM86.5324 158.496C86.5267 159.094 87.3355 159.408 88.7764 159.408C90.223 159.408 91.0317 159.094 91.0317 158.496C91.0317 157.887 90.223 157.562 88.7764 157.562C87.3355 157.562 86.5267 157.887 86.5324 158.496ZM101.784 150.101V154.122H103.311V155.182H101.784V160.376H100.52V150.101H101.784ZM93.663 157.562C96.1689 156.309 97.5244 154.567 97.775 152.22H94.2211V151.172H99.0621C99.0564 154.196 97.8035 156.856 94.3806 158.542L93.663 157.562ZM107.605 152.573C107.599 154.487 108.516 156.366 110.157 157.084L109.393 158.098C108.232 157.528 107.411 156.435 106.973 155.085C106.523 156.509 105.68 157.693 104.495 158.291L103.698 157.266C105.378 156.48 106.312 154.498 106.318 152.573V150.933H107.605V152.573ZM109.018 154.453V153.427H111.182V150.101H112.435V160.41H111.182V154.453H109.018ZM123.279 154.772V155.728H113.87V154.772H123.279ZM114.963 157.232V156.343H122.14V158.69H116.239V159.408H122.447V160.285H114.975V157.87H120.887V157.232H114.963ZM115.032 151.206V150.329H122.117V152.653H116.319V153.325H122.299V154.191H115.066V151.833H120.852V151.206H115.032ZM130.477 151.924C130.472 153.291 131.292 154.623 132.892 155.17L132.197 156.161C131.087 155.745 130.295 154.942 129.857 153.929C129.418 155.062 128.575 155.95 127.368 156.4L126.696 155.398C128.353 154.84 129.196 153.416 129.202 151.913V150.739H130.477V151.924ZM128.564 160.193V156.924H129.851V159.168H135.58V160.193H128.564ZM132.038 153.416V152.38H134.088V150.113H135.353V157.756H134.088V153.416H132.038ZM141.242 150.819V151.833H138.417V152.835H141.139V153.803H138.417V154.885C139.67 154.874 140.547 154.823 141.549 154.635L141.686 155.66C140.473 155.888 139.482 155.928 137.881 155.922H137.198V150.819H141.242ZM138.565 157.858V156.833H145.616V160.399H144.351V157.858H138.565ZM142.153 156.298V150.306H143.337V152.687H144.408V150.113H145.616V156.378H144.408V153.701H143.337V156.298H142.153ZM151.915 151.742V152.755H146.869V151.742H148.782V150.398H150.035V151.742H151.915ZM147.165 155.694C147.153 154.293 148.104 153.296 149.409 153.302C150.719 153.296 151.653 154.293 151.653 155.694C151.653 157.124 150.719 158.12 149.409 158.12C148.104 158.12 147.153 157.124 147.165 155.694ZM148.281 155.694C148.275 156.526 148.742 157.044 149.409 157.038C150.069 157.044 150.536 156.526 150.536 155.694C150.536 154.885 150.069 154.35 149.409 154.35C148.742 154.35 148.275 154.885 148.281 155.694ZM152.347 159.932V150.318H153.532V154.339H154.534V150.101H155.742V160.399H154.534V155.364H153.532V159.932H152.347ZM169.126 155.842V156.867H165.037V160.387H163.784V156.867H159.74V155.842H169.126ZM160.23 154.156C162.252 153.9 163.607 152.812 163.698 151.685H160.606V150.682H168.26V151.685H165.168C165.253 152.812 166.597 153.9 168.636 154.156L168.18 155.147C166.426 154.897 165.059 154.094 164.433 152.983C163.801 154.094 162.445 154.897 160.708 155.147L160.23 154.156ZM173.033 152.801C173.039 154.464 173.608 156.195 175.003 157.072L174.309 158.041C173.38 157.483 172.777 156.526 172.435 155.404C172.065 156.64 171.404 157.688 170.436 158.28L169.65 157.334C171.148 156.429 171.808 154.612 171.814 152.858V151.013H173.033V152.801ZM173.899 154.692V153.644H175.368V150.284H176.564V159.897H175.368V154.692H173.899ZM177.487 160.399V150.101H178.705V160.399H177.487ZM189.31 158.109V159.146H179.901V158.109H182.077V155.506C181.257 155.034 180.761 154.293 180.767 153.382C180.761 151.742 182.367 150.66 184.583 150.66C186.81 150.66 188.427 151.742 188.422 153.382C188.427 154.282 187.943 155.005 187.146 155.478V158.109H189.31ZM182.009 153.382C182.003 154.436 183.045 155.108 184.583 155.102C186.115 155.108 187.18 154.436 187.18 153.382C187.18 152.311 186.115 151.656 184.583 151.662C183.045 151.656 182.003 152.311 182.009 153.382ZM183.33 158.109H185.859V155.962C185.466 156.047 185.039 156.093 184.583 156.093C184.139 156.093 183.717 156.047 183.33 155.968V158.109ZM191.235 159.476C190.745 159.476 190.341 159.077 190.347 158.587C190.341 158.109 190.745 157.716 191.235 157.71C191.708 157.716 192.112 158.109 192.112 158.587C192.112 159.077 191.708 159.476 191.235 159.476Z" fill="black"/>
<path d="M67.6771 171.148V177.318H66.9368V171.148H67.6771ZM60.9092 173.806C60.9045 172.591 61.8584 171.742 63.1209 171.737C64.3834 171.742 65.3278 172.591 65.3326 173.806C65.3278 175.035 64.3834 175.89 63.1209 175.885C61.8584 175.89 60.9045 175.035 60.9092 173.806ZM61.6401 173.806C61.6306 174.646 62.2666 175.23 63.1209 175.23C63.961 175.23 64.6017 174.646 64.6017 173.806C64.6017 172.98 63.961 172.392 63.1209 172.392C62.2666 172.392 61.6306 172.98 61.6401 173.806ZM62.2286 179.397V176.692H62.969V178.771H67.9429V179.397H62.2286ZM71.9391 173.408C71.9391 174.893 72.9216 176.426 74.1223 177.015L73.6667 177.613C72.7365 177.128 71.9581 176.127 71.5832 174.955C71.2082 176.198 70.4109 177.266 69.4617 177.774L68.9871 177.176C70.2211 176.568 71.1987 174.95 71.2082 173.408V171.87H71.9391V173.408ZM74.9007 179.577V171.139H75.6411V174.566H77.0554V175.211H75.6411V179.577H74.9007ZM84.6871 171.784V172.401H83.8234V175.102C84.2125 175.073 84.597 175.04 84.9624 174.993L85.0004 175.562C83.3535 175.814 81.4361 175.842 80.0645 175.838L79.9695 175.211C80.3065 175.211 80.672 175.211 81.0611 175.206V172.401H80.2068V171.784H84.6871ZM81.3174 178.04C81.3127 177.076 82.3805 176.526 84.1461 176.53C85.9116 176.526 86.9748 177.076 86.9748 178.04C86.9748 179.003 85.9116 179.558 84.1461 179.558C82.3805 179.558 81.3127 179.003 81.3174 178.04ZM81.7825 175.192C82.2144 175.183 82.6606 175.168 83.102 175.145V172.401H81.7825V175.192ZM82.0578 178.04C82.0531 178.628 82.8457 178.97 84.1461 178.97C85.4418 178.97 86.2344 178.628 86.2344 178.04C86.2344 177.461 85.4418 177.109 84.1461 177.109C82.8457 177.109 82.0531 177.461 82.0578 178.04ZM84.7726 174.784V174.167H86.1964V173.275H84.7726V172.658H86.1964V171.139H86.9463V176.35H86.1964V174.784H84.7726ZM94.8818 171.139V174.575H96.2486V175.202H94.8818V179.577H94.1414V171.139H94.8818ZM88.4081 177.385C90.5865 176.303 91.7731 174.675 91.9439 172.677H88.7973V172.05H92.6986C92.6938 174.437 91.5737 176.616 88.8257 177.973L88.4081 177.385ZM99.7228 173.408C99.718 174.936 100.7 176.474 101.925 177.034L101.479 177.641C100.52 177.147 99.7275 176.141 99.3526 174.941C98.9776 176.203 98.185 177.285 97.2263 177.793L96.7422 177.195C97.981 176.587 98.9586 174.964 98.9634 173.408V171.87H99.7228V173.408ZM101.004 174.632V174.025H103.007V171.139H103.747V179.596H103.007V174.632H101.004ZM107.915 171.756C109.239 171.761 110.178 172.567 110.183 173.74C110.178 174.917 109.239 175.719 107.915 175.724C106.581 175.719 105.632 174.917 105.636 173.74C105.632 172.567 106.581 171.761 107.915 171.756ZM105.2 177.1C106.756 177.105 108.906 177.091 110.772 176.815L110.829 177.366C108.897 177.726 106.823 177.736 105.304 177.736L105.2 177.1ZM106.367 173.74C106.363 174.528 107.013 175.069 107.915 175.069C108.807 175.069 109.457 174.528 109.452 173.74C109.457 172.957 108.807 172.411 107.915 172.411C107.013 172.411 106.363 172.957 106.367 173.74ZM111.332 179.596V171.139H112.072V179.596H111.332ZM122.988 171.148V176.217H122.238V175.078H119.998V174.461H122.238V173.322H120.084C119.528 174.679 118.228 175.662 116.42 176.198L116.106 175.61C118.142 175.007 119.419 173.863 119.566 172.401H116.533V171.775H120.378C120.378 172.107 120.34 172.425 120.269 172.724H122.238V171.148H122.988ZM117.407 177.916C117.402 176.91 118.498 176.303 120.226 176.303C121.934 176.303 123.036 176.91 123.036 177.916C123.036 178.927 121.934 179.539 120.226 179.539C118.498 179.539 117.402 178.927 117.407 177.916ZM118.138 177.916C118.142 178.552 118.954 178.937 120.226 178.932C121.479 178.937 122.29 178.552 122.295 177.916C122.29 177.28 121.479 176.896 120.226 176.901C118.954 176.896 118.142 177.28 118.138 177.916ZM132.11 175.98V176.606H128.589V179.577H127.858V176.606H124.383V175.98H132.11ZM125.257 173.341C125.261 172.197 126.453 171.485 128.228 171.481C129.998 171.485 131.199 172.197 131.199 173.341C131.199 174.466 129.998 175.178 128.228 175.173C126.453 175.178 125.261 174.466 125.257 173.341ZM126.026 173.341C126.016 174.091 126.913 174.575 128.228 174.575C129.542 174.575 130.435 174.091 130.439 173.341C130.435 172.577 129.542 172.088 128.228 172.088C126.913 172.088 126.016 172.577 126.026 173.341ZM142.922 175.505V176.122H135.233V175.505H138.707V174.49H136.258V171.338H136.999V172.316H141.175V171.338H141.916V174.49H139.448V175.505H142.922ZM136.087 177.556V176.958H141.972V179.577H141.223V177.556H136.087ZM136.999 173.892H141.175V172.885H136.999V173.892ZM147.867 171.927C147.872 173.118 149.419 174.143 150.943 174.357L150.639 174.964C149.329 174.746 148.029 174.02 147.487 172.985C146.946 174.029 145.651 174.746 144.336 174.964L144.032 174.357C145.556 174.143 147.098 173.137 147.098 171.927V171.443H147.867V171.927ZM143.634 176.521V175.894H151.322V176.521H147.829V179.577H147.098V176.521H143.634ZM157.359 172.734C157.359 173.911 158.214 175.021 159.448 175.467L159.03 176.046C158.104 175.681 157.364 174.95 157.003 174.029C156.647 175.05 155.879 175.857 154.882 176.255L154.483 175.648C155.75 175.183 156.624 174.001 156.628 172.705V171.661H157.359V172.734ZM156.011 179.397V176.749H156.761V178.771H161.659V179.397H156.011ZM158.84 173.759V173.132H160.72V171.148H161.469V177.47H160.72V173.759H158.84ZM166.529 171.756V172.382H163.966V173.436H166.434V174.025H163.966V175.192C165.195 175.187 165.964 175.14 166.87 174.964L166.946 175.581C165.955 175.776 165.157 175.814 163.786 175.819H163.254V171.756H166.529ZM164.355 177.309V176.701H170.041V179.577H169.31V177.309H164.355ZM167.45 176.208V171.31H168.142V173.351H169.329V171.148H170.041V176.265H169.329V173.958H168.142V176.208H167.45ZM178.233 171.139V179.596H177.483V171.139H178.233ZM171.588 174.736C171.593 172.942 172.485 171.799 173.743 171.794C174.996 171.799 175.902 172.942 175.898 174.736C175.902 176.535 174.996 177.674 173.743 177.67C172.485 177.674 171.593 176.535 171.588 174.736ZM172.31 174.736C172.31 176.108 172.898 177.01 173.743 177.005C174.592 177.01 175.176 176.108 175.176 174.736C175.176 173.365 174.592 172.463 173.743 172.458C172.898 172.463 172.31 173.365 172.31 174.736ZM183.88 171.281V172.088H188.057V171.281H188.797V174.053H183.14V171.281H183.88ZM182.115 175.372V174.755H189.804V175.372H186.32V176.198H188.816V178.068H183.805V178.894H189.073V179.483H183.064V177.518H188.086V176.768H183.045V176.198H185.58V175.372H182.115ZM183.88 173.474H188.057V172.658H183.88V173.474ZM197.046 171.139V174.575H198.413V175.202H197.046V179.577H196.306V171.139H197.046ZM190.572 177.385C192.751 176.303 193.937 174.675 194.108 172.677H190.962V172.05H194.863C194.858 174.437 193.738 176.616 190.99 177.973L190.572 177.385ZM205.513 171.139V173.303H206.785V173.939H205.513V176.046H204.773V171.139H205.513ZM198.935 172.629V172.012H201.08V171.063H201.821V172.012H203.966V172.629H198.935ZM199.419 174.499C199.414 173.597 200.226 173.023 201.451 173.018C202.661 173.023 203.472 173.597 203.482 174.499C203.472 175.401 202.661 175.985 201.451 175.98C200.226 175.985 199.414 175.401 199.419 174.499ZM200.131 174.499C200.126 175.05 200.653 175.41 201.451 175.41C202.238 175.41 202.77 175.05 202.779 174.499C202.77 173.953 202.238 173.588 201.451 173.597C200.653 173.588 200.126 173.953 200.131 174.499ZM200.179 179.464V176.417H200.919V177.318H204.773V176.417H205.513V179.464H200.179ZM200.919 178.866H204.773V177.907H200.919V178.866ZM214.274 171.139V179.577H213.534V171.139H214.274ZM207.867 177.404V171.974H208.598V176.758C209.889 176.749 211.218 176.649 212.632 176.35L212.737 176.986C211.237 177.299 209.903 177.404 208.551 177.404H207.867ZM222.248 171.139V174.48H223.662V175.107H222.248V179.596H221.508V171.139H222.248ZM216.087 177.48V171.965H220.027V172.582H216.828V176.853C218.356 176.848 219.433 176.782 220.691 176.549L220.786 177.195C219.462 177.432 218.356 177.48 216.752 177.48H216.087ZM225.01 178.866C224.678 178.861 224.393 178.586 224.403 178.249C224.393 177.916 224.678 177.641 225.01 177.641C225.347 177.641 225.622 177.916 225.618 178.249C225.622 178.586 225.347 178.861 225.01 178.866Z" fill="#8F898C"/>
<g clip-path="url(#clip2_5339_17650)">
<rect x="60.3682" y="196.689" width="222.264" height="81.648" rx="5.184" fill="white"/>
<path d="M75.4766 257.805V258.381H74.6704V260.902C75.0336 260.875 75.3924 260.844 75.7335 260.8L75.7689 261.331C74.2318 261.566 72.4422 261.593 71.1621 261.588L71.0735 261.004C71.388 261.004 71.7291 261.004 72.0923 260.999V258.381H71.295V257.805H75.4766ZM72.3315 263.644C72.3271 262.744 73.3238 262.231 74.9716 262.235C76.6194 262.231 77.6117 262.744 77.6117 263.644C77.6117 264.543 76.6194 265.061 74.9716 265.061C73.3238 265.061 72.3271 264.543 72.3315 263.644ZM72.7656 260.986C73.1687 260.977 73.5851 260.964 73.9971 260.942V258.381H72.7656V260.986ZM73.0225 263.644C73.0181 264.193 73.7579 264.512 74.9716 264.512C76.1809 264.512 76.9207 264.193 76.9207 263.644C76.9207 263.103 76.1809 262.776 74.9716 262.776C73.7579 262.776 73.0181 263.103 73.0225 263.644ZM75.5563 260.605V260.029H76.8852V259.196H75.5563V258.62H76.8852V257.203H77.5851V262.067H76.8852V260.605H75.5563ZM84.9916 257.203V260.41H86.2673V260.995H84.9916V265.079H84.3005V257.203H84.9916ZM78.9495 263.032C80.9827 262.022 82.0901 260.503 82.2496 258.638H79.3127V258.053H82.9539C82.9495 260.282 81.9041 262.315 79.3393 263.582L78.9495 263.032ZM91.4146 257.575C92.5663 257.575 93.3681 258.195 93.3725 259.134C93.3681 259.949 92.7346 260.534 91.7867 260.654V261.424C92.522 261.385 93.2706 261.318 93.9572 261.216L94.0104 261.739C92.3404 262.036 90.4534 262.062 89.0934 262.058L89.0048 261.482C89.6161 261.486 90.3338 261.482 91.0868 261.455V260.658C90.1123 260.552 89.4611 259.963 89.4655 259.134C89.4611 258.195 90.2629 257.575 91.4146 257.575ZM90.1211 259.134C90.1123 259.732 90.6483 260.14 91.4146 260.144C92.1854 260.14 92.7125 259.732 92.7169 259.134C92.7125 258.523 92.1854 258.115 91.4146 258.115C90.6483 258.115 90.1123 258.523 90.1211 259.134ZM90.1566 264.902V262.713H90.8565V264.317H95.4456V264.902H90.1566ZM94.4622 263.236V257.212H95.1621V259.878H96.3404V260.472H95.1621V263.236H94.4622ZM104.066 263.52V264.104H96.8543V263.52H98.8831V262.022H97.7579V259.595H102.471V258.364H97.7402V257.788H103.153V260.171H98.4489V261.447H103.339V262.022H102.108V263.52H104.066ZM99.5652 263.52H101.426V262.022H99.5652V263.52ZM106.927 257.495C108.106 257.5 108.961 258.217 108.965 259.241C108.961 260.268 108.106 260.977 106.927 260.977C105.736 260.977 104.876 260.268 104.881 259.241C104.876 258.217 105.736 257.5 106.927 257.495ZM105.563 259.241C105.554 259.932 106.134 260.41 106.927 260.41C107.707 260.41 108.292 259.932 108.292 259.241C108.292 258.558 107.707 258.076 106.927 258.08C106.134 258.076 105.554 258.558 105.563 259.241ZM106.077 262.191V261.633H111.198V263.529H106.777V264.414H111.481V264.973H106.095V263.006H110.507V262.191H106.077ZM110.507 261.252V257.203H111.198V261.252H110.507ZM113.368 264.414C113.058 264.41 112.792 264.153 112.801 263.839C112.792 263.529 113.058 263.272 113.368 263.272C113.683 263.272 113.94 263.529 113.935 263.839C113.94 264.153 113.683 264.41 113.368 264.414ZM112.801 260.277C112.792 259.967 113.058 259.71 113.368 259.71C113.683 259.71 113.94 259.967 113.935 260.277C113.94 260.592 113.683 260.849 113.368 260.853C113.058 260.849 112.792 260.592 112.801 260.277ZM117.399 264.361L117.39 263.777L119.579 261.473C120.336 260.667 120.699 260.233 120.704 259.639C120.699 258.979 120.15 258.554 119.428 258.55C118.662 258.554 118.183 259.037 118.179 259.754H117.426C117.417 258.62 118.294 257.859 119.455 257.859C120.62 257.859 121.443 258.643 121.448 259.639C121.443 260.357 121.111 260.915 119.977 262.084L118.507 263.599V263.653H121.563V264.361H117.399ZM124.823 264.45C123.401 264.45 122.577 263.254 122.582 261.154C122.577 259.072 123.41 257.859 124.823 257.859C126.232 257.859 127.065 259.072 127.065 261.154C127.065 263.254 126.245 264.45 124.823 264.45ZM123.353 261.154C123.357 262.815 123.893 263.741 124.823 263.741C125.749 263.741 126.29 262.815 126.285 261.154C126.29 259.493 125.745 258.554 124.823 258.55C123.902 258.554 123.357 259.493 123.353 261.154ZM128.128 264.361L128.119 263.777L130.307 261.473C131.065 260.667 131.428 260.233 131.432 259.639C131.428 258.979 130.879 258.554 130.157 258.55C129.39 258.554 128.912 259.037 128.907 259.754H128.154C128.146 258.62 129.023 257.859 130.183 257.859C131.348 257.859 132.172 258.643 132.177 259.639C132.172 260.357 131.84 260.915 130.706 262.084L129.235 263.599V263.653H132.292V264.361H128.128ZM133.151 263.05V262.395L136.039 257.947H137.023V262.35H137.917V263.05H137.023V264.361H136.261V263.05H133.151ZM134.01 262.35H136.261V258.957H136.181L134.01 262.297V262.35ZM139.229 264.414C138.919 264.41 138.653 264.153 138.662 263.839C138.653 263.529 138.919 263.272 139.229 263.272C139.543 263.272 139.8 263.529 139.796 263.839C139.8 264.153 139.543 264.41 139.229 264.414ZM142.852 264.45C141.43 264.45 140.606 263.254 140.611 261.154C140.606 259.072 141.439 257.859 142.852 257.859C144.261 257.859 145.094 259.072 145.094 261.154C145.094 263.254 144.274 264.45 142.852 264.45ZM141.381 261.154C141.386 262.815 141.922 263.741 142.852 263.741C143.778 263.741 144.318 262.815 144.314 261.154C144.318 259.493 143.774 258.554 142.852 258.55C141.931 258.554 141.386 259.493 141.381 261.154ZM148.247 264.45C147.091 264.45 146.214 263.737 146.166 262.749H146.936C146.994 263.32 147.552 263.746 148.247 263.75C149.08 263.746 149.683 263.139 149.683 262.333C149.683 261.5 149.058 260.884 148.194 260.88C147.654 260.871 147.233 261.039 146.998 261.455H146.228L146.679 257.947H150.152V258.656H147.344L147.105 260.534H147.167C147.455 260.313 147.884 260.162 148.336 260.162C149.559 260.162 150.458 261.066 150.462 262.315C150.458 263.555 149.528 264.45 148.247 264.45ZM151.88 264.414C151.57 264.41 151.304 264.153 151.313 263.839C151.304 263.529 151.57 263.272 151.88 263.272C152.194 263.272 152.451 263.529 152.447 263.839C152.451 264.153 152.194 264.41 151.88 264.414ZM153.634 264.361L153.625 263.777L155.813 261.473C156.571 260.667 156.934 260.233 156.939 259.639C156.934 258.979 156.385 258.554 155.663 258.55C154.896 258.554 154.418 259.037 154.414 259.754H153.661C153.652 258.62 154.529 257.859 155.689 257.859C156.854 257.859 157.678 258.643 157.683 259.639C157.678 260.357 157.346 260.915 156.212 262.084L154.741 263.599V263.653H157.798V264.361H153.634ZM158.657 263.05V262.395L161.545 257.947H162.529V262.35H163.424V263.05H162.529V264.361H161.767V263.05H158.657ZM159.517 262.35H161.767V258.957H161.687L159.517 262.297V262.35Z" fill="#131214"/>
<rect x="60.3682" y="243.346" width="222" height="1" fill="#F4F6F7"/>
<path d="M79.4038 214.935V215.856H71.0406V214.935H74.6451V213.153H71.9619V208.414H73.0858V209.913H77.3282V208.414H78.4521V213.153H75.7588V214.935H79.4038ZM73.0858 212.241H77.3282V210.814H73.0858V212.241ZM84.6283 208.637V209.558H81.5807V213.821C83.0134 213.811 84.0208 213.75 85.1548 213.537L85.2763 214.449C83.9904 214.702 82.8818 214.752 81.1757 214.752H80.4467V208.637H84.6283ZM84.1423 211.948V211.026H86.5622V207.807H87.6861V216.97H86.5622V211.948H84.1423ZM96.3227 208.019V208.607C96.3176 209.26 96.3176 210.11 96.1202 211.229L94.9963 211.158C95.0571 210.819 95.1026 210.51 95.1279 210.227L89.8123 210.459L89.6908 209.579L95.1887 209.447C95.1938 209.25 95.1988 209.067 95.1988 208.9H89.9338V208.019H96.3227ZM88.9821 212.535V211.644H92.1816V210.702H93.3054V211.644H97.2846V212.535H88.9821ZM89.9439 213.953V213.102H96.2619V215.36H91.0577V215.957H96.5151V216.818H89.9541V214.56H95.1583V213.953H89.9439ZM105.547 207.807V216.97H104.433V207.807H105.547ZM98.4186 209.518V208.607H102.732V212.039H99.5829V213.882C101.026 213.872 102.266 213.796 103.694 213.558L103.795 214.479C102.241 214.747 100.874 214.808 99.2286 214.803H98.4287V211.148H101.588V209.518H98.4186ZM116.968 207.817V214.428H115.834V207.817H116.968ZM109.505 210.702C109.505 209.371 110.584 208.419 111.976 208.414C113.368 208.419 114.441 209.371 114.436 210.702C114.441 212.054 113.368 213.001 111.976 213.001C110.584 213.001 109.505 212.054 109.505 210.702ZM110.609 210.702C110.604 211.512 111.191 212.019 111.976 212.019C112.74 212.019 113.333 211.512 113.333 210.702C113.333 209.913 112.74 209.396 111.976 209.396C111.191 209.396 110.604 209.913 110.609 210.702ZM110.913 216.777V213.76H112.047V215.866H117.221V216.777H110.913ZM121.574 210.004C121.564 211.639 122.384 213.289 123.802 213.973L123.113 214.874C122.121 214.373 121.407 213.406 121.018 212.241C120.618 213.487 119.868 214.52 118.82 215.046L118.132 214.145C119.605 213.446 120.446 211.695 120.451 210.004V208.546H121.574V210.004ZM124.349 216.96V207.807H125.473V211.391H126.88V212.353H125.473V216.96H124.349ZM132.378 208.445V209.356H131.568V211.953C131.902 211.928 132.236 211.897 132.55 211.857V211.037H133.805V210.247H132.55V209.346H133.805V207.807H134.929V213.416H133.805V211.938H132.575L132.621 212.687C130.874 212.976 128.854 213.006 127.396 213.011L127.275 212.079C127.594 212.079 127.943 212.079 128.308 212.074V209.356H127.508V208.445H132.378ZM128.723 215.269C128.713 214.191 129.892 213.578 131.831 213.578C133.785 213.578 134.955 214.191 134.96 215.269C134.955 216.322 133.785 216.95 131.831 216.95C129.892 216.95 128.713 216.322 128.723 215.269ZM129.401 212.059C129.755 212.049 130.12 212.034 130.484 212.019V209.356H129.401V212.059ZM129.836 215.269C129.831 215.8 130.55 216.079 131.831 216.079C133.117 216.079 133.836 215.8 133.836 215.269C133.836 214.727 133.117 214.439 131.831 214.439C130.55 214.439 129.831 214.727 129.836 215.269ZM143.394 207.807V211.381H144.751V212.322H143.394V216.939H142.27V207.807H143.394ZM136.175 214.439C138.402 213.325 139.607 211.776 139.83 209.69H136.671V208.758H140.974C140.969 211.447 139.855 213.811 136.813 215.309L136.175 214.439Z" fill="#131214"/>
<rect x="257.037" y="212.564" width="14.904" height="14.904" rx="7.452" fill="#C90000"/>
<rect x="257.037" y="212.564" width="14.904" height="14.904" rx="7.452" stroke="#C90000" stroke-width="0.648"/>
<circle cx="264.489" cy="220.016" r="2.592" fill="white"/>
<path d="M74.6438 230.205C76.3891 230.205 77.3769 230.635 77.3813 231.437C77.3769 232.234 76.3891 232.646 74.6438 232.642C72.8764 232.646 71.8885 232.234 71.8885 231.437C71.8885 230.635 72.8764 230.205 74.6438 230.205ZM71.0292 229.771V229.107H74.2274V228.557C72.8232 228.495 72.0347 228.114 72.0391 227.441C72.0347 226.684 72.9782 226.298 74.6438 226.298C76.3182 226.298 77.2529 226.684 77.2485 227.441C77.2529 228.11 76.4777 228.495 75.0691 228.557V229.107H78.2673V229.771H71.0292ZM71.4013 226.006V225.359H74.2274V224.624H75.0691V225.359H77.8598V226.006H71.4013ZM72.7479 231.437C72.7479 231.827 73.4079 232.026 74.6438 232.021C75.8708 232.026 76.5308 231.827 76.5308 231.437C76.5308 231.038 75.8708 230.83 74.6438 230.825C73.4079 230.83 72.7479 231.038 72.7479 231.437ZM72.9339 227.441C72.9295 227.787 73.5364 227.977 74.6438 227.982C75.7601 227.977 76.3537 227.787 76.3537 227.441C76.3537 227.065 75.7601 226.879 74.6438 226.874C73.5364 226.879 72.9295 227.065 72.9339 227.441ZM85.4522 224.721V228.761H84.6106V224.721H85.4522ZM78.9938 228.238C80.9783 227.822 82.0148 226.932 82.1433 225.767H79.4101V225.076H83.0691C83.0646 227.158 81.7047 228.394 79.3038 228.921L78.9938 228.238ZM80.2341 229.78V229.116H85.4522V231.109H81.0934V231.915H85.718V232.58H80.2606V230.48H84.6106V229.78H80.2341ZM93.9572 228.584V229.257H86.7103V228.584H89.9262V227.742H87.6139V225.085H93.0624V225.749H88.4467V227.069H93.1156V227.742H90.7413V228.584H93.9572ZM87.5696 231.215C87.5696 230.294 88.6017 229.776 90.3249 229.771C92.0348 229.776 93.058 230.294 93.0624 231.215C93.058 232.137 92.0348 232.655 90.3249 232.659C88.6017 232.655 87.5696 232.137 87.5696 231.215ZM88.4201 231.215C88.4157 231.725 89.1112 232.004 90.3249 231.995C91.5209 232.004 92.2208 231.725 92.2208 231.215C92.2208 230.715 91.5209 230.427 90.3249 230.427C89.1112 230.427 88.4157 230.715 88.4201 231.215Z" fill="#8F898C"/>
<line x1="99.5969" y1="224.842" x2="99.5969" y2="231.97" stroke="#8F898C" stroke-width="0.648"/>
<path d="M110.675 224.721V228.805H109.842V224.721H110.675ZM104.128 228.097C105.368 227.685 106.125 226.644 106.13 225.545V224.934H106.989V225.545C106.985 226.608 107.747 227.574 108.965 227.955L108.548 228.611C107.623 228.309 106.927 227.685 106.568 226.879C106.209 227.747 105.501 228.438 104.553 228.761L104.128 228.097ZM105.465 229.851V229.186H110.683V231.171H106.307V231.906H110.949V232.58H105.492V230.533H109.851V229.851H105.465ZM119.197 229.275V229.957H115.955V232.65H115.131V229.957H111.933V229.275H119.197ZM112.845 228.265V225.147H118.285V228.265H112.845ZM113.669 227.609H117.443V225.82H113.669V227.609ZM126.019 224.721V226.608H127.171V227.308H126.019V229.204H125.177V224.721H126.019ZM120.136 228.797V225.244H123.662V225.926H120.969V228.114C122.515 228.114 123.383 228.052 124.38 227.858L124.478 228.531C123.406 228.757 122.466 228.797 120.765 228.797H120.136ZM120.951 232.553V229.594H126.019V232.553H120.951ZM121.775 231.88H125.186V230.267H121.775V231.88ZM133.868 224.721V226.732H135.011V227.423H133.868V229.408H133.018V224.721H133.868ZM127.959 228.832V225.306H131.503V225.988H128.792V228.15C130.356 228.141 131.237 228.097 132.238 227.893L132.318 228.575C131.255 228.792 130.307 228.832 128.588 228.832H127.959ZM128.633 231.1C128.633 230.13 129.66 229.563 131.299 229.559C132.92 229.563 133.93 230.13 133.93 231.1C133.93 232.079 132.92 232.646 131.299 232.642C129.66 232.646 128.633 232.079 128.633 231.1ZM129.465 231.1C129.461 231.649 130.152 231.973 131.299 231.968C132.424 231.973 133.12 231.649 133.124 231.1C133.12 230.551 132.424 230.236 131.299 230.241C130.152 230.236 129.461 230.551 129.465 231.1ZM138.227 227.06C138.223 228.314 139.051 229.714 140.256 230.285L139.778 230.941C138.887 230.515 138.179 229.621 137.82 228.584C137.456 229.714 136.712 230.693 135.809 231.144L135.313 230.48C136.517 229.9 137.39 228.402 137.394 227.06V226.219H135.605V225.519H139.955V226.219H138.227V227.06ZM140.805 232.659V224.721H141.647V227.866H142.923V228.575H141.647V232.659H140.805Z" fill="#8F898C"/>
</g>
<rect x="60.6922" y="197.013" width="221.616" height="81" rx="4.86" stroke="#7A7A7A" stroke-width="0.648"/>
<g clip-path="url(#clip3_5339_17650)">
<rect x="60.3682" y="291.297" width="222.264" height="81.648" rx="5.184" fill="white"/>
<rect x="60.3682" y="337.953" width="222" height="1" fill="#F4F6F7"/>
<path d="M76.3461 303.275V304.186H75.4044V308.368C75.8145 308.337 76.2144 308.302 76.5992 308.256L76.6599 309.066C74.802 309.385 72.6758 309.421 71.1013 309.421L70.9899 308.489C71.3291 308.484 71.6987 308.484 72.0834 308.479V304.186H71.2532V303.275H76.3461ZM73.1871 308.459C73.5617 308.454 73.9414 308.439 74.3211 308.423V304.186H73.1871V308.459ZM76.0626 306.697V305.786H77.6016V302.414H78.7153V311.567H77.6016V306.697H76.0626ZM84.7296 303.67C84.7296 305.082 86.1116 306.505 88.0303 306.839L87.5241 307.78C85.9901 307.461 84.7346 306.53 84.1373 305.3C83.5348 306.52 82.2793 307.456 80.7504 307.78L80.2543 306.839C82.1426 306.495 83.5298 305.077 83.5348 303.67V302.991H84.7296V303.67ZM80.0012 310.403V309.471H88.3644V310.403H80.0012ZM96.4037 307.213V308.104H89.9844V303.133H96.3227V304.044H91.1286V305.148H96.1101V306.029H91.1286V307.213H96.4037ZM88.9618 310.453V309.532H97.3251V310.453H88.9618ZM102.651 303.67C102.651 305.082 104.033 306.505 105.952 306.839L105.445 307.78C103.911 307.461 102.656 306.53 102.059 305.3C101.456 306.52 100.201 307.456 98.6717 307.78L98.1756 306.839C100.064 306.495 101.451 305.077 101.456 303.67V302.991H102.651V303.67ZM97.9224 310.403V309.471H106.286V310.403H97.9224ZM111.055 303.214V303.913C111.05 304.637 111.05 305.517 110.822 306.697C111.044 306.672 111.262 306.646 111.47 306.616L111.53 307.467C110.953 307.573 110.305 307.649 109.657 307.699V310.828H108.574V307.765C107.951 307.791 107.364 307.801 106.883 307.801L106.751 306.859C107.556 306.859 108.665 306.849 109.738 306.783C109.819 306.403 109.87 306.054 109.905 305.735L107.237 305.948L107.106 305.057L109.976 304.915C109.986 304.632 109.991 304.368 109.991 304.125H107.349V303.214H111.055ZM110.396 309.127V308.266H111.966V302.586H113.019V311.101H111.966V309.127H110.396ZM113.778 311.567V302.414H114.841V311.567H113.778ZM118.345 303.082C119.58 303.082 120.496 304.115 120.658 305.786H122.405V302.414H123.518V311.577H122.405V306.697H120.668C120.547 308.464 119.615 309.552 118.345 309.552C116.968 309.552 115.991 308.302 115.996 306.312C115.991 304.338 116.968 303.082 118.345 303.082ZM117.079 306.312C117.074 307.72 117.59 308.535 118.345 308.54C119.104 308.535 119.615 307.72 119.62 306.312C119.615 304.915 119.104 304.095 118.345 304.095C117.59 304.095 117.074 304.915 117.079 306.312ZM134.889 302.424V309.036H133.755V302.424H134.889ZM127.427 305.31C127.427 303.978 128.505 303.027 129.897 303.022C131.289 303.027 132.363 303.978 132.358 305.31C132.363 306.662 131.289 307.608 129.897 307.608C128.505 307.608 127.427 306.662 127.427 305.31ZM128.53 305.31C128.525 306.12 129.113 306.626 129.897 306.626C130.662 306.626 131.254 306.12 131.254 305.31C131.254 304.52 130.662 304.004 129.897 304.004C129.113 304.004 128.525 304.52 128.53 305.31ZM128.834 311.385V308.368H129.968V310.474H135.142V311.385H128.834ZM139.496 304.611C139.486 306.246 140.306 307.897 141.723 308.58L141.035 309.481C140.042 308.98 139.329 308.013 138.939 306.849C138.539 308.094 137.79 309.127 136.742 309.654L136.053 308.752C137.526 308.054 138.367 306.302 138.372 304.611V303.153H139.496V304.611ZM142.27 311.567V302.414H143.394V305.998H144.801V306.96H143.394V311.567H142.27ZM150.299 303.052V303.963H149.489V306.56C149.823 306.535 150.157 306.505 150.471 306.464V305.644H151.727V304.854H150.471V303.953H151.727V302.414H152.851V308.023H151.727V306.545H150.496L150.542 307.294C148.795 307.583 146.776 307.613 145.318 307.618L145.196 306.687C145.515 306.687 145.864 306.687 146.229 306.682V303.963H145.429V303.052H150.299ZM146.644 309.876C146.634 308.798 147.813 308.185 149.752 308.185C151.706 308.185 152.876 308.798 152.881 309.876C152.876 310.929 151.706 311.557 149.752 311.557C147.813 311.557 146.634 310.929 146.644 309.876ZM147.322 306.667C147.677 306.657 148.041 306.641 148.406 306.626V303.963H147.322V306.667ZM147.758 309.876C147.753 310.408 148.471 310.686 149.752 310.686C151.038 310.686 151.757 310.408 151.757 309.876C151.757 309.335 151.038 309.046 149.752 309.046C148.471 309.046 147.753 309.335 147.758 309.876ZM161.315 302.414V305.988H162.672V306.93H161.315V311.547H160.191V302.414H161.315ZM154.096 309.046C156.323 307.932 157.528 306.383 157.751 304.297H154.592V303.366H158.895C158.89 306.054 157.776 308.418 154.734 309.917L154.096 309.046Z" fill="#131214"/>
<path d="M74.1034 323.546V324.919C74.8298 324.879 75.5652 324.817 76.2562 324.715L76.3182 325.335C74.5242 325.668 72.5973 325.681 71.1798 325.681L71.0735 324.99C71.7113 324.985 72.4688 324.981 73.2617 324.954V323.546H74.1034ZM71.2861 323.165C72.4688 322.824 73.2086 321.995 73.2529 321.021H71.4987V320.339H73.2617V319.391H74.1034V320.339H75.8841V321.021H74.1034C74.1477 321.956 74.9007 322.757 76.0879 323.076L75.6981 323.732C74.7501 323.462 74.0414 322.886 73.6826 322.133C73.337 322.926 72.6372 323.532 71.6848 323.803L71.2861 323.165ZM76.7523 327.284V319.329H77.594V327.284H76.7523ZM81.6516 320.888C81.6516 321.712 82.4489 322.456 83.6626 322.722L83.2817 323.369C82.3382 323.147 81.6161 322.642 81.2529 321.973C80.8941 322.709 80.1721 323.267 79.1975 323.519L78.8254 322.864C80.0392 322.558 80.8188 321.774 80.8188 320.888V320.755H79.0912V320.082H80.8188V319.293H81.6604V320.082H83.3791V320.755H81.6516V320.888ZM80.2872 324.485V323.829H85.4788V325.787H81.1466V326.531H85.7623V327.187H80.3049V325.167H84.646V324.485H80.2872ZM83.1488 321.942V321.269H84.646V319.329H85.4788V323.484H84.646V321.942H83.1488ZM93.3105 319.329V327.267H92.46V319.329H93.3105ZM86.79 325.14C88.8985 324.135 89.9307 322.704 90.0946 320.853H87.171V320.179H90.9451C90.9451 322.505 89.9572 324.516 87.233 325.823L86.79 325.14Z" fill="#8F898C"/>
<line x1="99.5969" y1="319.449" x2="99.5969" y2="326.577" stroke="#8F898C" stroke-width="0.648"/>
<path d="M108.371 319.798V320.489H105.403V321.358H108.15V322.013H105.403V322.934C106.989 322.934 107.915 322.903 108.991 322.722L109.08 323.395C107.933 323.59 106.945 323.612 105.208 323.608H104.553V319.798H108.371ZM105.465 327.169V324.432H110.683V327.169H105.465ZM106.298 326.487H109.86V325.087H106.298V326.487ZM109.842 324.06V319.338H110.683V324.06H109.842ZM114.714 320.791C114.71 321.8 115.414 322.722 116.619 323.103L116.221 323.758C115.317 323.47 114.657 322.872 114.307 322.119C113.961 322.988 113.266 323.674 112.314 324.006L111.879 323.333C113.12 322.926 113.868 321.902 113.873 320.799V320.578H112.128V319.896H116.424V320.578H114.714V320.791ZM112.951 325.761C112.951 324.83 113.966 324.286 115.618 324.29C117.253 324.286 118.249 324.83 118.249 325.761C118.249 326.704 117.253 327.253 115.618 327.249C113.966 327.253 112.951 326.704 112.951 325.761ZM113.793 325.761C113.789 326.292 114.471 326.589 115.618 326.585C116.757 326.589 117.43 326.292 117.425 325.761C117.43 325.242 116.757 324.95 115.618 324.954C114.471 324.95 113.789 325.242 113.793 325.761ZM117.337 324.095V319.329H118.178V321.296H119.33V321.987H118.178V324.095H117.337ZM121.536 323.856V324.848H125.284V323.856H126.108V327.169H120.703V323.856H121.536ZM119.782 323.209V322.527H125.093C125.284 321.619 125.293 320.946 125.293 320.365H120.695V319.674H126.125V320.277C126.13 320.879 126.13 321.566 125.922 322.527H127.047V323.209H119.782ZM121.536 326.478H125.284V325.504H121.536V326.478Z" fill="#8F898C"/>
<rect x="257.037" y="307.174" width="14.904" height="14.904" rx="7.452" stroke="#DADDDE" stroke-width="0.648"/>
</g>
<rect x="60.6922" y="291.621" width="221.616" height="81" rx="4.86" stroke="#E6E9EB" stroke-width="0.648"/>
<rect width="243" height="34.992" transform="translate(50 47)" fill="white"/>
<path d="M86.0002 61.4924C87.5224 61.5032 89.0393 62.4122 89.0446 65.2577C89.0446 67.9417 87.829 69.4962 85.9141 69.4962C84.4134 69.4962 83.3753 68.5603 83.2032 67.2694H84.5909C84.7308 67.888 85.2095 68.2806 85.9141 68.2806C87.0437 68.2806 87.6784 67.2855 87.6892 65.6127H87.6031C87.2104 66.2904 86.4574 66.6938 85.6021 66.6885C84.209 66.6938 83.1332 65.6342 83.1278 64.1604C83.1278 62.6381 84.2736 61.4817 86.0002 61.4924ZM84.4941 64.1281C84.4941 64.9672 85.118 65.6234 85.9894 65.6234C86.8554 65.6234 87.5224 64.9242 87.517 64.1173C87.517 63.3266 86.8823 62.6274 86.0109 62.622C85.1342 62.6274 84.4833 63.2944 84.4941 64.1281ZM91.0671 68.4205C90.6045 68.4205 90.2226 68.0439 90.228 67.5814C90.2226 67.1295 90.6045 66.7584 91.0671 66.753C91.5136 66.7584 91.8955 67.1295 91.8955 67.5814C91.8955 68.0439 91.5136 68.4205 91.0671 68.4205ZM90.228 63.4073C90.2226 62.9555 90.6045 62.5844 91.0671 62.579C91.5136 62.5844 91.8955 62.9555 91.8955 63.4073C91.8955 63.8699 91.5136 64.2464 91.0671 64.2464C90.6045 64.2464 90.2226 63.8699 90.228 63.4073ZM93.0681 67.9364V66.8176L96.4353 61.6H98.178V66.7853H99.2V67.9364H98.178V69.3887H96.8441V67.9364H93.0681ZM94.4989 66.7853H96.8656V63.1922H96.7795L94.4989 66.7315V66.7853ZM103.374 61.6V69.3887H101.965V62.9663H101.922L100.104 64.1281V62.8479L102.029 61.6H103.374Z" fill="#131214"/>
<rect opacity="0.35" x="256.994" y="61.7322" width="15.552" height="7.776" rx="2.4624" stroke="#131214" stroke-width="0.648"/>
<path opacity="0.4" d="M273.518 64.5059V67.1468C274.04 66.9231 274.379 66.4028 274.379 65.8263C274.379 65.2498 274.04 64.7295 273.518 64.5059Z" fill="#131214"/>
<rect x="257.966" y="62.7051" width="13.608" height="5.832" rx="1.62" fill="#131214"/>
<path fill-rule="evenodd" clip-rule="evenodd" d="M246.477 63.4204C248.089 63.4205 249.639 64.018 250.807 65.0894C250.895 65.1722 251.035 65.1711 251.122 65.0871L251.963 64.2684C252.007 64.2258 252.031 64.168 252.031 64.108C252.03 64.0479 252.005 63.9905 251.961 63.9484C248.895 61.1136 244.059 61.1136 240.993 63.9484C240.948 63.9905 240.923 64.0479 240.923 64.1079C240.922 64.168 240.947 64.2257 240.991 64.2684L241.832 65.0871C241.918 65.1713 242.059 65.1723 242.147 65.0894C243.315 64.0179 244.865 63.4204 246.477 63.4204ZM246.475 66.1552C247.354 66.1551 248.203 66.4867 248.855 67.0855C248.943 67.1705 249.082 67.1687 249.168 67.0814L250.002 66.2265C250.046 66.1816 250.07 66.1208 250.069 66.0576C250.069 65.9944 250.043 65.9341 249.998 65.8901C248.013 64.0169 244.938 64.0169 242.953 65.8901C242.908 65.9341 242.883 65.9944 242.882 66.0576C242.881 66.1209 242.906 66.1817 242.95 66.2265L243.784 67.0814C243.87 67.1687 244.009 67.1705 244.097 67.0855C244.748 66.4871 245.596 66.1555 246.475 66.1552ZM248.111 67.9654C248.112 68.0336 248.088 68.0995 248.044 68.1473L246.634 69.738C246.593 69.7847 246.536 69.811 246.477 69.811C246.418 69.811 246.362 69.7847 246.321 69.738L244.91 68.1473C244.866 68.0994 244.843 68.0336 244.844 67.9653C244.845 67.8971 244.872 67.8324 244.917 67.7866C245.818 66.9352 247.137 66.9352 248.038 67.7866C248.083 67.8324 248.109 67.8971 248.111 67.9654Z" fill="#131214"/>
<path fill-rule="evenodd" clip-rule="evenodd" d="M236.064 62.4967C236.064 62.0864 235.754 61.7539 235.372 61.7539H234.681C234.3 61.7539 233.99 62.0864 233.99 62.4967V68.9339C233.99 69.3441 234.3 69.6766 234.681 69.6766H235.372C235.754 69.6766 236.064 69.3441 236.064 68.9339V62.4967ZM231.246 63.3384H231.938C232.319 63.3384 232.629 63.679 232.629 64.099V68.916C232.629 69.3361 232.319 69.6766 231.938 69.6766H231.246C230.865 69.6766 230.555 69.3361 230.555 68.916V64.099C230.555 63.679 230.865 63.3384 231.246 63.3384ZM228.439 65.055H227.748C227.366 65.055 227.057 65.3999 227.057 65.8253V68.9064C227.057 69.3318 227.366 69.6766 227.748 69.6766H228.439C228.821 69.6766 229.131 69.3318 229.131 68.9064V65.8253C229.131 65.3999 228.821 65.055 228.439 65.055ZM225.004 66.6396H224.313C223.932 66.6396 223.622 66.9795 223.622 67.3988V68.9174C223.622 69.3367 223.932 69.6766 224.313 69.6766H225.004C225.386 69.6766 225.696 69.3367 225.696 68.9174V67.3988C225.696 66.9795 225.386 66.6396 225.004 66.6396Z" fill="#131214"/>
<rect width="243" height="41.472" transform="translate(50 81.9922)" fill="white"/>
<path d="M120.557 96.9478V105.212H119.139V96.9478H120.557ZM111.229 100.555C111.229 98.8905 112.577 97.7009 114.317 97.6945C116.058 97.7009 117.399 98.8905 117.393 100.555C117.399 102.244 116.058 103.428 114.317 103.428C112.577 103.428 111.229 102.244 111.229 100.555ZM112.609 100.555C112.602 101.567 113.337 102.2 114.317 102.2C115.273 102.2 116.013 101.567 116.013 100.555C116.013 99.5677 115.273 98.9222 114.317 98.9222C113.337 98.9222 112.602 99.5677 112.609 100.555ZM112.988 108.149V104.377H114.406V107.01H120.873V108.149H112.988ZM126.315 99.6816C126.303 101.726 127.328 103.789 129.1 104.643L128.239 105.769C126.999 105.143 126.107 103.934 125.619 102.479C125.119 104.035 124.183 105.326 122.873 105.984L122.012 104.858C123.854 103.985 124.904 101.795 124.911 99.6816V97.8591H126.315V99.6816ZM129.783 108.376V96.9352H131.188V101.415H132.947V102.618H131.188V108.376H129.783ZM139.82 97.7325V98.8716H138.807V102.118C139.225 102.086 139.643 102.048 140.035 101.998V100.973H141.604V99.9853H140.035V98.8589H141.604V96.9352H143.009V103.947H141.604V102.099H140.067L140.123 103.035C137.94 103.396 135.415 103.434 133.593 103.44L133.441 102.276C133.84 102.276 134.276 102.276 134.732 102.27V98.8716H133.732V97.7325H139.82ZM135.251 106.263C135.238 104.915 136.713 104.149 139.136 104.149C141.579 104.149 143.041 104.915 143.047 106.263C143.041 107.579 141.579 108.364 139.136 108.364C136.713 108.364 135.238 107.579 135.251 106.263ZM136.099 102.251C136.542 102.238 136.997 102.219 137.453 102.2V98.8716H136.099V102.251ZM136.643 106.263C136.637 106.927 137.535 107.275 139.136 107.275C140.744 107.275 141.642 106.927 141.642 106.263C141.642 105.586 140.744 105.225 139.136 105.225C137.535 105.225 136.637 105.586 136.643 106.263ZM153.59 96.9352V101.403H155.286V102.58H153.59V108.351H152.185V96.9352H153.59ZM144.566 105.225C147.35 103.833 148.856 101.896 149.135 99.2892H145.186V98.1248H150.565C150.559 101.485 149.166 104.44 145.363 106.313L144.566 105.225ZM165.006 97.6439V102.403H159.488V97.6439H165.006ZM160.171 107.263C162.367 107.073 163.772 106.098 163.898 105.187H160.639V104.124H163.93V103.124H165.347V104.124H168.651V105.187H165.385C165.512 106.073 166.891 107.041 169.081 107.263L168.6 108.338C166.746 108.142 165.341 107.415 164.645 106.465C163.943 107.427 162.519 108.136 160.652 108.338L160.171 107.263ZM160.88 101.302H163.613V98.7577H160.88V101.302ZM167.018 103.453V96.9352H168.41V103.453H167.018ZM183.61 103.808V104.959H179.079V108.389H177.687V104.959H173.182V103.808H183.61ZM173.751 101.998C176.036 101.719 177.535 100.549 177.675 99.4031H174.143V98.2894H177.687V96.9478H179.079V98.2894H182.636V99.4031H179.105C179.238 100.536 180.731 101.719 183.015 101.998L182.497 103.111C180.604 102.871 179.136 102.042 178.396 100.941C177.649 102.055 176.162 102.871 174.257 103.111L173.751 101.998ZM188.496 99.6436C188.489 101.004 189.445 102.327 191.255 102.884L190.571 103.985C189.274 103.599 188.331 102.77 187.812 101.719C187.306 102.852 186.363 103.744 185.028 104.175L184.344 103.073C186.148 102.51 187.091 101.112 187.091 99.6436V99.4664H184.699V98.3527H187.091V97.0111H188.508V98.3527H190.888V99.4664H188.496V99.6436ZM186.458 108.149V104.706H187.863V107.01H194.254V108.149H186.458ZM190.508 101.479V100.352H192.558V96.9478H193.963V105.44H192.558V101.479H190.508ZM199.81 99.6816C199.804 101.808 200.823 103.896 202.645 104.693L201.797 105.82C200.506 105.187 199.595 103.972 199.108 102.472C198.608 104.054 197.671 105.371 196.355 106.035L195.469 104.896C197.336 104.023 198.374 101.82 198.38 99.6816V97.8591H199.81V99.6816ZM201.38 101.77V100.631H203.784V96.9352H205.177V108.389H203.784V101.77H201.38ZM214.023 98.9602C214.017 100.479 214.928 101.96 216.706 102.567L215.934 103.668C214.7 103.206 213.821 102.314 213.334 101.188C212.846 102.447 211.91 103.434 210.568 103.934L209.821 102.82C211.663 102.2 212.599 100.618 212.606 98.9475V97.6439H214.023V98.9602ZM211.897 108.149V104.516H213.327V107.01H219.693V108.149H211.897ZM215.757 100.618V99.4664H218.035V96.9478H219.44V105.44H218.035V100.618H215.757ZM225.983 97.7325V98.8589H222.845V99.9727H225.87V101.048H222.845V102.251C224.237 102.238 225.211 102.181 226.325 101.972L226.477 103.111C225.129 103.365 224.028 103.409 222.25 103.403H221.49V97.7325H225.983ZM223.009 105.554V104.415H230.843V108.376H229.439V105.554H223.009ZM226.996 103.82V97.163H228.312V99.8081H229.502V96.9478H230.843V103.909H229.502V100.935H228.312V103.82H226.996Z" fill="#131214"/>
<path d="M68.7924 107.913L63.8802 103.34C63.5178 103.002 63.5178 102.455 63.8802 102.118L68.7924 97.5449" stroke="#131214" stroke-width="0.972" stroke-linecap="round"/>
</g>
<rect x="48.5" y="45.5" width="246" height="529.176" rx="27.5" stroke="black" stroke-width="3"/>
</g>
<defs>
<clipPath id="clip0_5339_17650">
<rect width="343" height="343" rx="24" fill="white"/>
</clipPath>
<clipPath id="clip1_5339_17650">
<rect x="50" y="47" width="243" height="526.176" rx="26" fill="white"/>
</clipPath>
<clipPath id="clip2_5339_17650">
<rect x="60.3682" y="196.689" width="222.264" height="81.648" rx="5.184" fill="white"/>
</clipPath>
<clipPath id="clip3_5339_17650">
<rect x="60.3682" y="291.297" width="222.264" height="81.648" rx="5.184" fill="white"/>
</clipPath>
</defs>
</svg>
