<svg width="343" height="343" viewBox="0 0 343 343" fill="none" xmlns="http://www.w3.org/2000/svg">
<g clip-path="url(#clip0_5309_17484)">
<rect width="343" height="343" rx="24" fill="#F7F7FB"/>
<g clip-path="url(#clip1_5309_17484)">
<rect x="50" y="52" width="243" height="526.176" rx="26" fill="white"/>
<path d="M70.0956 155.804V156.841H66.0177V159.927H64.7648V156.841H60.7097V155.804H70.0956ZM61.2223 154.175C63.2783 153.925 64.6281 152.871 64.7534 151.84H61.5754V150.838H64.7648V149.63H66.0177V150.838H69.2185V151.84H66.0405C66.1601 152.86 67.5042 153.925 69.5602 154.175L69.0932 155.178C67.3903 154.961 66.069 154.215 65.4026 153.224C64.7306 154.226 63.3922 154.961 61.6779 155.178L61.2223 154.175ZM78.855 149.619V153.64H80.3813V154.699H78.855V159.893H77.5906V149.619H78.855ZM70.7334 157.08C73.2394 155.827 74.5949 154.084 74.8455 151.738H71.2916V150.69H76.1326C76.1269 153.714 74.8739 156.374 71.4511 158.059L70.7334 157.08ZM88.9357 149.619V153.72H90.519V154.768H88.9357V159.916H87.6827V149.619H88.9357ZM80.8142 152.216V151.202H83.2517V149.767H84.5161V151.202H86.8854V152.216H80.8142ZM81.2926 155.314C81.2812 153.89 82.3861 152.882 83.8896 152.888C85.3704 152.882 86.4696 153.89 86.4753 155.314C86.4696 156.732 85.3704 157.729 83.8896 157.729C82.3861 157.729 81.2812 156.732 81.2926 155.314ZM82.5 155.314C82.4943 156.152 83.0809 156.687 83.8896 156.681C84.6813 156.687 85.2565 156.152 85.2679 155.314C85.2565 154.477 84.6813 153.925 83.8896 153.925C83.0809 153.925 82.4943 154.477 82.5 155.314ZM99.5062 149.619V154.87H98.2532V149.619H99.5062ZM90.9404 153.868C92.6091 153.338 93.4862 152.017 93.4805 150.667V149.87H94.7904V150.667C94.7848 151.977 95.6561 153.201 97.285 153.697L96.6699 154.676C95.4739 154.306 94.6196 153.543 94.1526 152.563C93.6856 153.628 92.8085 154.466 91.5783 154.859L90.9404 153.868ZM92.6946 156.328V155.348H99.5289V158.025H93.9589V158.823H99.8365V159.825H92.7174V157.08H98.2646V156.328H92.6946ZM105.27 158.902H103.687L106.591 150.656H108.414L111.33 158.902H109.746L109.057 156.863H105.953L105.27 158.902ZM106.352 155.667H108.659L107.537 152.341H107.468L106.352 155.667ZM114.348 159.016C112.896 159.011 111.797 157.849 111.797 155.815C111.797 153.754 112.924 152.638 114.36 152.638C115.447 152.638 115.903 153.292 116.125 153.731H116.182V150.656H117.629V158.902H116.205V157.923H116.125C115.892 158.378 115.419 159.011 114.348 159.016ZM113.277 155.804C113.277 156.972 113.79 157.82 114.747 157.82C115.687 157.82 116.216 157.012 116.216 155.804C116.216 154.602 115.692 153.828 114.747 153.822C113.779 153.828 113.277 154.654 113.277 155.804ZM119.098 158.902V152.717H120.488V153.765H120.567C120.824 153.059 121.445 152.638 122.265 152.638C123.102 152.638 123.706 153.065 123.939 153.765H124.007C124.275 153.082 124.964 152.638 125.864 152.638C126.997 152.638 127.795 153.367 127.789 154.745V158.902H126.342V154.973C126.342 154.204 125.875 153.856 125.283 153.856C124.571 153.856 124.155 154.34 124.155 155.041V158.902H122.743V154.916C122.737 154.272 122.316 153.856 121.695 153.856C121.069 153.856 120.556 154.375 120.556 155.143V158.902H119.098ZM129.179 158.902V152.717H130.637V158.902H129.179ZM129.076 151.043C129.076 150.61 129.458 150.257 129.919 150.257C130.38 150.257 130.762 150.61 130.762 151.043C130.762 151.481 130.38 151.834 129.919 151.84C129.458 151.834 129.076 151.481 129.076 151.043ZM133.484 155.28V158.902H132.026V152.717H133.416V153.765H133.496C133.775 153.076 134.407 152.638 135.33 152.638C136.611 152.638 137.454 153.48 137.448 154.961V158.902H136.002V155.189C136.002 154.357 135.552 153.862 134.794 153.868C134.025 153.862 133.484 154.38 133.484 155.28ZM146.606 150.633C146.601 153.742 145.752 156.413 141.959 158.299L141.264 157.342C143.047 156.465 144.112 155.434 144.71 154.215L141.503 154.517L141.344 153.423L145.091 153.19C145.222 152.706 145.308 152.199 145.348 151.658H141.879V150.633H146.606ZM148.053 159.893V149.619H149.317V153.651H150.844V154.688H149.317V159.893H148.053ZM159.694 154.449V155.462H152.473V150.519H159.614V151.544H153.726V154.449H159.694ZM151.334 158.606V157.558H160.742V158.606H151.334ZM164.752 150.337C166.386 150.331 167.577 151.362 167.588 152.82C167.577 154.283 166.386 155.309 164.752 155.314C163.134 155.309 161.921 154.283 161.927 152.82C161.921 151.362 163.134 150.331 164.752 150.337ZM161.46 156.738C163.316 156.738 165.885 156.715 168.112 156.396L168.214 157.319C165.908 157.758 163.436 157.775 161.619 157.775L161.46 156.738ZM163.18 152.82C163.174 153.68 163.852 154.209 164.752 154.209C165.663 154.209 166.341 153.68 166.346 152.82C166.341 151.965 165.669 151.43 164.752 151.43C163.852 151.43 163.174 151.965 163.18 152.82ZM168.727 159.927V149.619H169.991V159.927H168.727ZM182.886 149.619V155.736H181.621V153.218H179.867V152.182H181.621V149.619H182.886ZM174.229 154.711C175.886 154.141 176.757 152.757 176.757 151.396V151.316H174.616V150.291H180.175V151.316H178.045V151.385C178.045 152.638 178.876 153.902 180.471 154.437L179.833 155.44C178.688 155.052 177.879 154.266 177.424 153.298C176.974 154.392 176.114 155.28 174.889 155.713L174.229 154.711ZM175.903 157.957C175.892 156.721 177.23 155.998 179.4 155.998C181.581 155.998 182.914 156.721 182.92 157.957C182.914 159.193 181.581 159.91 179.4 159.916C177.23 159.91 175.892 159.193 175.903 157.957ZM177.156 157.957C177.15 158.595 177.97 158.942 179.4 158.937C180.841 158.942 181.655 158.595 181.655 157.957C181.655 157.313 180.841 156.966 179.4 156.966C177.97 156.966 177.15 157.313 177.156 157.957ZM193.752 157.638V158.675H184.344V157.638H188.399V155.633H185.38V150.302H186.644V151.988H191.417V150.302H192.681V155.633H189.652V157.638H193.752ZM186.644 154.608H191.417V153.002H186.644V154.608ZM203.822 154.289V155.246H194.413V154.289H203.822ZM195.506 156.75V155.861H202.682V158.208H196.782V158.925H202.99V159.802H195.518V157.387H201.429V156.75H195.506ZM195.575 150.724V149.847H202.66V152.17H196.862V152.843H202.842V153.708H195.609V151.35H201.395V150.724H195.575ZM69.2868 167.619V173.143H68.0111V167.619H69.2868ZM60.8919 170.489C60.8919 169.06 62.0766 168.069 63.6713 168.075C65.2603 168.069 66.4449 169.06 66.4392 170.489C66.4449 171.896 65.2603 172.887 63.6713 172.881C62.0766 172.887 60.8919 171.896 60.8919 170.489ZM62.1335 170.489C62.1278 171.315 62.7714 171.839 63.6713 171.845C64.554 171.839 65.1976 171.315 65.1976 170.489C65.1976 169.664 64.554 169.128 63.6713 169.134C62.7714 169.128 62.1278 169.664 62.1335 170.489ZM62.4752 177.791V173.622H63.7282V174.681H68.0225V173.622H69.2868V177.791H62.4752ZM63.7282 176.766H68.0225V175.672H63.7282V176.766ZM75.7112 168.234V171.332H72.4648V172.597C74.1222 172.597 75.0619 172.551 76.1554 172.346L76.2807 173.371C75.0505 173.582 73.9855 173.61 71.9636 173.61H71.2119V170.387H74.4468V169.236H71.1891V168.234H75.7112ZM72.3737 175.467V174.453H79.4131V177.916H78.1487V175.467H72.3737ZM76.3262 172.266V171.253H78.1487V170.102H76.3262V169.088H78.1487V167.63H79.4131V173.964H78.1487V172.266H76.3262ZM85.8944 169.259V170.273H80.8483V169.259H82.7619V167.915H84.0149V169.259H85.8944ZM81.1445 173.212C81.1331 171.811 82.0842 170.814 83.3884 170.82C84.6984 170.814 85.6324 171.811 85.6324 173.212C85.6324 174.641 84.6984 175.638 83.3884 175.638C82.0842 175.638 81.1331 174.641 81.1445 173.212ZM82.2608 173.212C82.2551 174.043 82.7221 174.562 83.3884 174.556C84.0491 174.562 84.5161 174.043 84.5161 173.212C84.5161 172.403 84.0491 171.868 83.3884 171.868C82.7221 171.868 82.2551 172.403 82.2608 173.212ZM86.3272 177.449V167.835H87.5118V171.856H88.5142V167.619H89.7216V177.916H88.5142V172.881H87.5118V177.449H86.3272ZM103.106 173.36V174.385H99.0164V177.905H97.7634V174.385H93.7197V173.36H103.106ZM94.2095 171.674C96.2314 171.418 97.5868 170.33 97.678 169.202H94.5854V168.2H102.24V169.202H99.1474C99.2328 170.33 100.577 171.418 102.616 171.674L102.16 172.665C100.406 172.414 99.0392 171.611 98.4127 170.501C97.7805 171.611 96.425 172.414 94.6879 172.665L94.2095 171.674ZM107.013 170.319C107.018 171.982 107.588 173.713 108.983 174.59L108.288 175.558C107.36 175 106.756 174.043 106.415 172.921C106.044 174.157 105.384 175.205 104.416 175.797L103.63 174.852C105.127 173.946 105.788 172.13 105.794 170.376V168.53H107.013V170.319ZM107.878 172.209V171.161H109.348V167.801H110.544V177.415H109.348V172.209H107.878ZM111.466 177.916V167.619H112.685V177.916H111.466ZM123.29 175.627V176.663H113.881V175.627H116.057V173.024C115.237 172.551 114.741 171.811 114.747 170.899C114.741 169.259 116.347 168.177 118.563 168.177C120.79 168.177 122.407 169.259 122.401 170.899C122.407 171.799 121.923 172.523 121.126 172.995V175.627H123.29ZM115.988 170.899C115.983 171.953 117.025 172.625 118.563 172.619C120.095 172.625 121.16 171.953 121.16 170.899C121.16 169.829 120.095 169.174 118.563 169.18C117.025 169.174 115.983 169.829 115.988 170.899ZM117.31 175.627H119.838V173.479C119.445 173.565 119.018 173.61 118.563 173.61C118.118 173.61 117.697 173.565 117.31 173.485V175.627ZM125.215 176.993C124.725 176.993 124.321 176.595 124.326 176.105C124.321 175.627 124.725 175.234 125.215 175.228C125.688 175.234 126.092 175.627 126.092 176.105C126.092 176.595 125.688 176.993 125.215 176.993Z" fill="#131214"/>
<path d="M68.2959 206.436V215.589H67.172V206.436H68.2959ZM60.7122 213.047C61.4412 213.042 62.2664 213.042 63.1321 213.017V212.176C62.1044 212.014 61.4311 211.387 61.4311 210.516C61.4311 209.483 62.3474 208.8 63.6789 208.795C65.0255 208.8 65.957 209.483 65.957 210.516C65.957 211.382 65.2837 212.004 64.256 212.171V212.976C65.0609 212.941 65.8709 212.875 66.6354 212.774L66.7164 213.614C64.7065 213.953 62.5195 213.979 60.8742 213.979L60.7122 213.047ZM60.9046 208.38V207.489H63.1321V206.466H64.256V207.489H66.4734V208.38H60.9046ZM62.5044 210.516C62.4942 211.042 62.9853 211.351 63.6789 211.346C64.3927 211.351 64.8787 211.042 64.8736 210.516C64.8787 209.984 64.3927 209.66 63.6789 209.655C62.9853 209.66 62.4942 209.984 62.5044 210.516ZM72.9027 208.633C72.8926 210.268 73.7127 211.918 75.1302 212.602L74.4417 213.503C73.4495 213.002 72.7357 212.035 72.3459 210.87C71.9459 212.116 71.1967 213.148 70.1487 213.675L69.4602 212.774C70.9334 212.075 71.7738 210.324 71.7789 208.633V207.175H72.9027V208.633ZM75.677 215.589V206.436H76.8009V210.02H78.2082V210.982H76.8009V215.589H75.677ZM86.2576 206.436V211.822H85.1337V210.556H83.291V211.265H78.9879V207.124H83.291V207.833H85.1337V206.436H86.2576ZM80.051 213.827C80.0409 212.713 81.2305 212.06 83.1594 212.065C85.0983 212.06 86.2829 212.713 86.288 213.827C86.2829 214.941 85.0983 215.579 83.1594 215.579C81.2305 215.579 80.0409 214.941 80.051 213.827ZM80.1117 210.364H82.1772V208.015H80.1117V210.364ZM81.1647 213.827C81.1597 214.394 81.8887 214.708 83.1594 214.708C84.4402 214.708 85.1641 214.394 85.1641 213.827C85.1641 213.235 84.4402 212.931 83.1594 212.926C81.8887 212.931 81.1597 213.235 81.1647 213.827ZM83.291 209.645H85.1337V208.724H83.291V209.645Z" fill="#131214"/>
<rect x="60.692" y="228.787" width="221.616" height="30.456" rx="4.86" stroke="#131214" stroke-width="0.648"/>
<path d="M78.431 244.448V245.218H72.113V240.368H78.3399V241.148H73.085V242.373H78.1475V243.132H73.085V244.448H78.431ZM71.0701 247.547V246.757H79.3726V247.547H71.0701ZM87.7662 239.629V245.279H86.855V242.788H85.7412V245.208H84.8401V239.791H85.7412V241.998H86.855V239.629H87.7662ZM80.4155 241.036V240.267H83.858V242.879H81.3672V244.074C82.4911 244.064 83.3467 244.013 84.344 243.81L84.4452 244.6C83.3011 244.808 82.3595 244.843 81.0331 244.843H80.4357V242.16H82.9366V241.036H80.4155ZM81.6001 246.494V245.714H87.7662V248.691H86.8145V246.494H81.6001ZM93.6185 240.54C93.6134 243.213 92.7427 245.592 89.5179 247.233L88.9812 246.504C90.5709 245.694 91.553 244.717 92.1048 243.562L89.1635 243.841L89.0116 243.011L92.3984 242.798C92.5402 242.332 92.6262 241.836 92.6617 241.32H89.4774V240.54H93.6185ZM93.5982 244.003V243.213H95.5929V239.619H96.5446V248.691H95.5929V244.003H93.5982ZM105.222 239.862V240.439C105.222 241.082 105.222 241.922 105.019 243.021L104.067 242.96C104.138 242.58 104.184 242.241 104.214 241.932L98.8126 242.19L98.6911 241.421L104.26 241.269C104.265 241.031 104.27 240.819 104.27 240.621H98.924V239.862H105.222ZM97.9621 244.256V243.497H101.232V242.474H102.204V243.497H106.214V244.256H97.9621ZM98.9442 245.663V244.924H105.181V247.081H99.896V247.81H105.434V248.549H98.9544V246.382H104.229V245.663H98.9442ZM114.446 239.619V248.711H113.484V239.619H114.446ZM107.419 241.218V240.439H111.671V243.75H108.411V245.734C109.884 245.729 111.165 245.658 112.684 245.41L112.775 246.2C111.17 246.468 109.803 246.529 108.198 246.534H107.429V242.98H110.689V241.218H107.419ZM120.227 239.467V248.863H119.255V239.467H120.227Z" fill="#131214"/>
<path d="M68.2959 276.422V285.575H67.172V276.422H68.2959ZM60.7122 283.034C61.4412 283.029 62.2664 283.029 63.1321 283.003V282.163C62.1044 282.001 61.4311 281.373 61.4311 280.502C61.4311 279.47 62.3474 278.786 63.6789 278.781C65.0255 278.786 65.957 279.47 65.957 280.502C65.957 281.368 65.2837 281.991 64.256 282.158V282.963C65.0609 282.927 65.8709 282.861 66.6354 282.76L66.7164 283.601C64.7065 283.94 62.5195 283.965 60.8742 283.965L60.7122 283.034ZM60.9046 278.366V277.475H63.1321V276.452H64.256V277.475H66.4734V278.366H60.9046ZM62.5044 280.502C62.4942 281.029 62.9853 281.338 63.6789 281.333C64.3927 281.338 64.8787 281.029 64.8736 280.502C64.8787 279.971 64.3927 279.647 63.6789 279.642C62.9853 279.647 62.4942 279.971 62.5044 280.502ZM72.9027 278.619C72.8926 280.254 73.7127 281.905 75.1302 282.588L74.4417 283.489C73.4495 282.988 72.7357 282.021 72.3459 280.857C71.9459 282.102 71.1967 283.135 70.1487 283.661L69.4602 282.76C70.9334 282.062 71.7738 280.31 71.7789 278.619V277.161H72.9027V278.619ZM75.677 285.575V276.422H76.8009V280.006H78.2082V280.968H76.8009V285.575H75.677ZM89.4166 283.53V284.441H81.0534V283.53H84.6376V281.414H85.7514V283.53H89.4166ZM81.2964 280.705C83.21 280.396 84.5819 279.024 84.587 277.647V276.979H85.7817V277.647C85.7817 279.029 87.1638 280.396 89.0926 280.705L88.6066 281.636C87.0625 281.343 85.7919 280.457 85.1844 279.257C84.5819 280.452 83.3264 281.348 81.7824 281.636L81.2964 280.705ZM97.871 276.422V285.575H96.7876V280.877H95.8055V285.15H94.7525V276.665H95.8055V279.966H96.7876V276.422H97.871ZM89.9431 282.882C91.8922 281.758 92.7174 280.31 92.8794 278.477H90.3684V277.576H93.9729C93.9729 280.052 93.1932 282.178 90.5911 283.661L89.9431 282.882Z" fill="#131214"/>
<path d="M103.916 281.464H103.227L103.288 279.895L101.951 280.735L101.607 280.138L103.004 279.409L101.607 278.67L101.951 278.072L103.288 278.913L103.227 277.343H103.916L103.855 278.913L105.191 278.072L105.536 278.67L104.148 279.409L105.536 280.138L105.191 280.735L103.855 279.895L103.916 281.464Z" fill="#FF5226"/>
<rect x="60.692" y="300.07" width="221.616" height="92.664" rx="4.86" stroke="#E6E9EB" stroke-width="0.648"/>
<path d="M79.3119 315.215V315.883H71.1005V315.215H79.3119ZM72.0927 318.293C72.0877 317.26 73.2571 316.673 75.2011 316.673C77.1299 316.673 78.2892 317.26 78.2994 318.293C78.2892 319.336 77.1299 319.913 75.2011 319.913C73.2571 319.913 72.0877 319.336 72.0927 318.293ZM72.1434 314.355V311.297H78.2892V311.965H72.923V313.707H78.35V314.355H72.1434ZM72.9027 318.293C72.8926 318.926 73.7583 319.285 75.2011 319.285C76.6287 319.285 77.4944 318.926 77.4995 318.293C77.4944 317.665 76.6287 317.301 75.2011 317.291C73.7583 317.301 72.8926 317.665 72.9027 318.293ZM88.2927 315.894V316.552H80.051V315.894H83.777V314.942H81.1242V312.745H86.4297V311.813H81.0939V311.165H87.2296V313.342H81.914V314.304H87.422V314.942H84.5566V315.894H88.2927ZM80.9724 317.888V317.24H87.2802V319.852H86.4804V317.888H80.9724ZM96.0586 310.902V313.089H97.4255V313.747H96.0586V315.883H95.2689V310.902H96.0586ZM89.042 312.39V311.752H91.3302V310.841H92.12V311.752H94.4082V312.39H89.042ZM89.5584 314.274C89.5533 313.362 90.4139 312.8 91.7251 312.795C93.0312 312.8 93.8817 313.362 93.8919 314.274C93.8817 315.19 93.0312 315.747 91.7251 315.752C90.4139 315.747 89.5533 315.19 89.5584 314.274ZM90.3177 316.947V316.349H96.0586V318.344H91.1176V319.225H96.3927V319.832H90.338V317.757H95.2689V316.947H90.3177ZM90.3177 314.274C90.3127 314.815 90.8696 315.154 91.7251 315.154C92.5756 315.154 93.1325 314.815 93.1426 314.274C93.1325 313.737 92.5756 313.388 91.7251 313.383C90.8696 313.388 90.3127 313.737 90.3177 314.274ZM107.966 310.932V319.933H107.176V310.932H107.966ZM100.635 317.534C101.405 317.529 102.285 317.524 103.197 317.493V316.511C102.113 316.4 101.415 315.782 101.425 314.881C101.415 313.863 102.28 313.205 103.581 313.21C104.883 313.205 105.763 313.863 105.758 314.881C105.763 315.772 105.065 316.39 103.997 316.511V317.463C104.867 317.422 105.748 317.362 106.578 317.25L106.639 317.858C104.629 318.182 102.427 318.212 100.757 318.212L100.635 317.534ZM100.827 312.694V312.046H103.197V310.942H103.997V312.046H106.346V312.694H100.827ZM102.164 314.881C102.159 315.504 102.746 315.914 103.581 315.904C104.422 315.914 105.004 315.504 104.999 314.881C105.004 314.253 104.422 313.828 103.581 313.828C102.746 313.828 102.159 314.253 102.164 314.881ZM112.562 313.352C112.562 314.937 113.61 316.572 114.891 317.2L114.405 317.838C113.413 317.321 112.583 316.253 112.183 315.003C111.783 316.329 110.932 317.468 109.92 318.01L109.413 317.372C110.73 316.724 111.773 314.997 111.783 313.352V311.712H112.562V313.352ZM115.721 319.933V310.932H116.511V314.587H118.02V315.276H116.511V319.933H115.721ZM126.221 310.932V319.933H125.451V310.932H126.221ZM118.617 314.82C118.622 312.907 119.382 311.697 120.551 311.692C121.644 311.697 122.384 312.75 122.485 314.446H123.649V311.125H124.409V319.478H123.649V315.104H122.49C122.414 316.855 121.66 317.954 120.551 317.949C119.382 317.954 118.622 316.734 118.617 314.82ZM119.366 314.82C119.356 316.278 119.822 317.2 120.551 317.19C121.285 317.2 121.751 316.278 121.746 314.82C121.751 313.357 121.285 312.441 120.551 312.441C119.822 312.441 119.356 313.357 119.366 314.82ZM137.763 310.932V319.933H137.004V315.215H135.678V319.468H134.949V311.135H135.678V314.557H137.004V310.932H137.763ZM130.403 317.706V312.036H133.774V312.694H131.192V317.028C132.433 317.022 133.288 316.977 134.291 316.774L134.361 317.443C133.278 317.665 132.362 317.701 130.98 317.706H130.403ZM146.066 310.942V313.909H147.423V314.577H146.066V317.686H145.276V310.942H146.066ZM139.049 312.694V312.046H141.338V310.942H142.127V312.046H144.416V312.694H139.049ZM139.566 314.871C139.561 313.848 140.431 313.19 141.732 313.19C143.018 313.19 143.889 313.848 143.899 314.871C143.889 315.883 143.018 316.536 141.732 316.531C140.431 316.536 139.561 315.883 139.566 314.871ZM140.325 314.871C140.32 315.504 140.882 315.914 141.732 315.904C142.573 315.914 143.14 315.504 143.15 314.871C143.14 314.228 142.573 313.813 141.732 313.818C140.882 313.813 140.32 314.228 140.325 314.871ZM140.436 319.741V317.149H141.216V319.073H146.481V319.741H140.436ZM158.834 318.101V318.759H150.592V318.101H154.277V315.894H155.057V318.101H158.834ZM150.916 315.337C152.49 315.068 154.242 313.752 154.247 312.238V311.55H155.077V312.238C155.082 313.742 156.859 315.068 158.429 315.337L158.074 315.995C156.702 315.711 155.254 314.785 154.672 313.489C154.08 314.78 152.647 315.711 151.27 315.995L150.916 315.337ZM167.237 310.932V319.933H166.458V315.225H165.212V319.488H164.453V311.175H165.212V314.567H166.458V310.932H167.237ZM159.563 317.443C161.653 316.273 162.514 314.628 162.651 312.765H159.907V312.107H163.43C163.42 314.395 162.615 316.557 160.028 318L159.563 317.443ZM175.671 311.327V311.904C175.671 312.512 175.671 313.291 175.469 314.304H176.755V314.942H168.513V314.304H174.669C174.877 313.302 174.887 312.567 174.882 311.975H169.556V311.327H175.671ZM169.495 316.491V315.853H175.702V318.121H170.305V319.184H175.935V319.832H169.505V317.493H174.912V316.491H169.495ZM181.574 311.094C183.574 311.094 184.749 311.646 184.754 312.643C184.749 313.666 183.574 314.218 181.574 314.223C179.565 314.218 178.385 313.666 178.385 312.643C178.385 311.646 179.565 311.094 181.574 311.094ZM177.474 315.478V314.83H185.675V315.478H177.474ZM178.466 316.866V316.258H184.622V318.273H179.276V319.204H184.895V319.832H178.486V317.686H183.842V316.866H178.466ZM179.215 312.643C179.205 313.271 180.081 313.615 181.574 313.615C183.068 313.615 183.939 313.271 183.944 312.643C183.939 312.051 183.068 311.697 181.574 311.692C180.081 311.697 179.205 312.051 179.215 312.643ZM192.084 312.603C192.089 313.803 192.97 314.896 194.301 315.357L193.896 315.975C192.869 315.61 192.084 314.876 191.699 313.944C191.315 314.967 190.489 315.762 189.431 316.147L189.006 315.529C190.353 315.053 191.294 313.894 191.304 312.603V312.218H189.249V311.57H194.109V312.218H192.084V312.603ZM190.181 317.483V316.835H196.073V319.933H195.284V317.483H190.181ZM195.284 316.359V310.932H196.073V313.312H197.43V313.99H196.073V316.359H195.284ZM201.095 312.35C201.085 313.636 202.002 314.765 203.323 315.215L202.877 315.833C201.885 315.463 201.105 314.729 200.716 313.782C200.331 314.861 199.511 315.696 198.422 316.106L197.987 315.458C199.374 314.972 200.295 313.777 200.306 312.38V311.449H201.095V312.35ZM199.455 318.232C199.45 317.149 200.599 316.526 202.472 316.531C204.34 316.526 205.49 317.149 205.49 318.232C205.49 319.306 204.34 319.913 202.472 319.913C200.599 319.913 199.45 319.306 199.455 318.232ZM200.245 318.232C200.24 318.885 201.09 319.28 202.472 319.275C203.849 319.28 204.7 318.885 204.7 318.232C204.7 317.559 203.849 317.159 202.472 317.159C201.09 317.159 200.24 317.559 200.245 318.232ZM202.655 313.524V312.866H204.659V310.932H205.459V316.268H204.659V313.524H202.655ZM211.453 312.492V313.14H206.937V312.492H208.811V311.206H209.6V312.492H211.453ZM207.261 315.792C207.261 314.598 208.077 313.752 209.195 313.747C210.329 313.752 211.139 314.598 211.149 315.792C211.139 317.002 210.329 317.853 209.195 317.858C208.077 317.853 207.261 317.002 207.261 315.792ZM207.97 315.792C207.97 316.592 208.482 317.164 209.195 317.159C209.914 317.164 210.441 316.592 210.441 315.792C210.441 315.003 209.914 314.425 209.195 314.415C208.482 314.425 207.97 315.003 207.97 315.792ZM211.919 319.488V311.155H212.668V314.729H213.863V310.932H214.622V319.933H213.863V315.387H212.668V319.488H211.919ZM223.067 312.208C223.062 313.413 224.666 314.436 226.236 314.668L225.942 315.296C224.54 315.058 223.168 314.309 222.621 313.226C222.074 314.309 220.702 315.058 219.32 315.296L219.006 314.668C220.571 314.436 222.171 313.413 222.176 312.208V312.147H219.29V311.499H225.942V312.147H223.067V312.208ZM218.52 316.724V316.066H226.722V316.724H222.996V319.933H222.216V316.724H218.52ZM230.154 313.494C230.154 314.927 230.853 316.471 232.047 317.179L231.592 317.797C230.721 317.271 230.098 316.309 229.785 315.21C229.455 316.41 228.787 317.443 227.886 317.989L227.38 317.392C228.625 316.663 229.385 315.068 229.385 313.524V311.783H230.154V313.494ZM231.055 314.841V314.162H232.584V311.125H233.333V319.478H232.584V314.841H231.055ZM234.427 319.933V310.932H235.196V319.933H234.427ZM244.683 318.111V318.779H236.442V318.111H238.487V315.686C237.717 315.286 237.252 314.638 237.252 313.818C237.252 312.426 238.619 311.509 240.542 311.499C242.466 311.509 243.833 312.426 243.833 313.818C243.833 314.623 243.382 315.261 242.638 315.661V318.111H244.683ZM238.021 313.818C238.016 314.825 239.064 315.499 240.542 315.499C242.005 315.499 243.063 314.825 243.063 313.818C243.063 312.81 242.005 312.147 240.542 312.157C239.064 312.147 238.016 312.81 238.021 313.818ZM239.267 318.111H241.838V315.969C241.449 316.071 241.013 316.126 240.542 316.126C240.082 316.126 239.651 316.076 239.267 315.975V318.111ZM246.354 319.174C246 319.169 245.696 318.875 245.706 318.516C245.696 318.162 246 317.868 246.354 317.868C246.714 317.868 247.007 318.162 247.002 318.516C247.007 318.875 246.714 319.169 246.354 319.174Z" fill="#898D8F"/>
<g clip-path="url(#clip2_5309_17484)">
<rect x="50" y="52" width="243" height="526.176" rx="25.92" fill="white"/>
<path d="M67.2897 164.63C69.4995 164.63 70.8948 165.331 70.9005 166.521C70.8948 167.706 69.4995 168.406 67.2897 168.4C65.1027 168.406 63.7017 167.706 63.7017 166.521C63.7017 165.331 65.1027 164.63 67.2897 164.63ZM62.6993 163.787V162.91H66.424V160.997H67.4834V162.91H71.9827V163.787H62.6993ZM63.7814 159.584V158.718H70.8208V159.573C70.8265 160.387 70.8265 161.23 70.536 162.284L69.4767 162.17C69.7501 161.128 69.7501 160.376 69.7501 159.584H63.7814ZM64.7838 166.521C64.7724 167.182 65.7463 167.563 67.2897 167.569C68.8502 167.563 69.8184 167.182 69.8298 166.521C69.8184 165.849 68.8502 165.456 67.2897 165.45C65.7463 165.456 64.7724 165.849 64.7838 166.521ZM81.5052 158.217V168.423H80.4687V163.127H79.2043V167.933H78.1905V158.491H79.2043V162.25H80.4687V158.217H81.5052ZM72.7344 165.507C75.0012 164.22 75.9523 162.483 76.1231 160.404H73.1673V159.516H77.1768C77.1711 162.198 76.2826 164.613 73.3609 166.259L72.7344 165.507ZM94.2058 158.217V163.468H93.1237V160.849H90.9708V159.971H93.1237V158.217H94.2058ZM85.6628 162.648C87.2575 162.141 88.2086 160.871 88.2143 159.436V158.548H89.285V159.436C89.285 160.735 90.219 161.942 91.7568 162.432L91.1872 163.275C90.0653 162.887 89.2167 162.119 88.7667 161.145C88.3225 162.244 87.4511 163.098 86.2437 163.514L85.6628 162.648ZM87.5309 164.801V163.947H94.2058V166.487H88.613V167.432H94.5589V168.298H87.5536V165.667H93.135V164.801H87.5309ZM104.286 158.217V164.288H103.204V161.703H101.302V160.814H103.204V158.217H104.286ZM95.7777 163.366C97.361 162.813 98.3349 161.435 98.3292 160.028V159.801H96.1194V158.924H101.621V159.801H99.4341V160.017C99.4284 161.31 100.351 162.569 101.894 163.092L101.336 163.947C100.192 163.554 99.3486 162.734 98.9044 161.726C98.4602 162.865 97.566 163.782 96.3472 164.232L95.7777 163.366ZM97.4179 166.498C97.4122 165.285 98.7221 164.579 100.869 164.573C103.005 164.579 104.315 165.285 104.321 166.498C104.315 167.711 103.005 168.418 100.869 168.423C98.7221 168.418 97.4122 167.711 97.4179 166.498ZM98.4886 166.498C98.4829 167.187 99.3714 167.58 100.869 167.569C102.356 167.58 103.244 167.187 103.25 166.498C103.244 165.803 102.356 165.41 100.869 165.416C99.3714 165.41 98.4829 165.803 98.4886 166.498Z" fill="#131214"/>
<rect x="246.344" y="153.088" width="36" height="21" rx="10.5" fill="#131214"/>
<path d="M263.192 163.457C263.192 158.446 267.254 154.385 272.264 154.385C277.274 154.385 281.336 158.446 281.336 163.457C281.336 168.467 277.274 172.529 272.264 172.529C267.254 172.529 263.192 168.467 263.192 163.457Z" fill="white"/>
<path d="M64.2345 186.064L62.4538 179.65H63.4814L64.7306 184.612H64.7838L66.0861 179.65H67.0961L68.3984 184.612H68.4516L69.7007 179.65H70.7284L68.9477 186.064H67.9643L66.6177 181.272H66.5645L65.2179 186.064H64.2345ZM73.0053 186.162C71.6409 186.162 70.7506 185.17 70.755 183.681C70.7506 182.184 71.6409 181.192 73.0053 181.192C74.3608 181.192 75.2467 182.184 75.2467 183.681C75.2467 185.17 74.3608 186.162 73.0053 186.162ZM71.7029 183.681C71.7029 184.598 72.1238 185.373 73.0053 185.373C73.8735 185.373 74.2899 184.598 74.2899 183.681C74.2899 182.76 73.8735 181.976 73.0053 181.971C72.1238 181.976 71.7029 182.76 71.7029 183.681ZM76.1769 186.064V181.254H77.0894V182.016H77.1426C77.3198 181.502 77.8026 181.179 78.3652 181.183C78.4804 181.179 78.6664 181.192 78.7639 181.201V182.104C78.6841 182.087 78.4627 182.047 78.2677 182.051C77.6122 182.047 77.1249 182.503 77.1249 183.132V186.064H76.1769ZM79.4726 186.064V179.65H80.4206V183.283H80.5003L82.4051 181.254H83.5391L81.5944 183.318L83.672 186.064H82.5114L80.8768 183.903L80.4206 184.355V186.064H79.4726ZM84.2833 187.872V181.254H85.2046V182.033H85.2844C85.4527 181.732 85.7761 181.192 86.6664 181.192C87.8314 181.192 88.6864 182.104 88.6864 183.672C88.6864 185.223 87.8403 186.157 86.6753 186.162C85.8026 186.157 85.4571 185.626 85.2844 185.311H85.2312V187.872H84.2833ZM85.2135 183.655C85.2135 184.665 85.6565 185.351 86.4627 185.356C87.2954 185.351 87.7296 184.62 87.7296 183.655C87.7296 182.707 87.3087 181.994 86.4627 181.998C85.6476 181.994 85.2135 182.654 85.2135 183.655ZM90.5734 179.65V186.064H89.6255V179.65H90.5734ZM91.5037 184.709C91.4992 183.61 92.4339 183.327 93.3021 183.265C93.621 183.247 94.3431 183.207 94.5646 183.198L94.5601 182.813C94.5646 182.268 94.2279 181.954 93.5856 181.954C93.0275 181.954 92.6908 182.211 92.5934 182.565H91.6543C91.7384 181.768 92.4826 181.192 93.621 181.192C94.3874 181.192 95.5037 181.471 95.5081 182.866V186.064H94.5867V185.409H94.5513C94.3652 185.768 93.9223 186.171 93.1249 186.171C92.2124 186.171 91.4992 185.648 91.5037 184.709ZM92.425 184.718C92.425 185.179 92.806 185.413 93.3375 185.418C94.1083 185.413 94.569 184.899 94.569 184.328L94.5646 183.889C94.3475 183.903 93.6609 183.951 93.435 183.965C92.8148 184.009 92.425 184.244 92.425 184.718ZM98.6886 186.162C97.2844 186.162 96.4339 185.13 96.4383 183.681C96.4339 182.215 97.3154 181.192 98.6709 181.192C99.7694 181.192 100.562 181.839 100.664 182.813H99.7429C99.6454 182.361 99.2866 181.985 98.6886 181.98C97.909 181.985 97.3863 182.631 97.3863 183.655C97.3863 184.709 97.8957 185.36 98.6886 185.356C99.2246 185.36 99.6233 185.059 99.7429 184.541H100.664C100.562 185.475 99.8226 186.162 98.6886 186.162ZM103.632 186.162C102.215 186.162 101.342 185.183 101.346 183.69C101.342 182.211 102.228 181.192 103.57 181.192C104.664 181.192 105.705 181.87 105.705 183.61V183.947H102.286C102.312 184.864 102.853 185.382 103.641 185.382C104.177 185.382 104.527 185.152 104.686 184.86H105.643C105.431 185.639 104.691 186.162 103.632 186.162ZM102.29 183.238H104.775C104.775 182.507 104.301 181.967 103.579 181.971C102.822 181.967 102.33 182.561 102.29 183.238ZM113.28 181.741C113.125 180.913 112.438 180.452 111.623 180.456C110.516 180.452 109.696 181.303 109.692 182.857C109.696 184.421 110.52 185.263 111.623 185.258C112.429 185.263 113.112 184.811 113.28 183.991L114.263 184C114.06 185.267 113.028 186.153 111.614 186.153C109.944 186.153 108.726 184.908 108.726 182.857C108.726 180.806 109.953 179.562 111.614 179.562C112.97 179.562 114.046 180.363 114.263 181.741H113.28ZM115.016 184.709C115.012 183.61 115.947 183.327 116.815 183.265C117.134 183.247 117.856 183.207 118.077 183.198L118.073 182.813C118.077 182.268 117.741 181.954 117.098 181.954C116.54 181.954 116.204 182.211 116.106 182.565H115.167C115.251 181.768 115.995 181.192 117.134 181.192C117.9 181.192 119.016 181.471 119.021 182.866V186.064H118.099V185.409H118.064C117.878 185.768 117.435 186.171 116.638 186.171C115.725 186.171 115.012 185.648 115.016 184.709ZM115.938 184.718C115.938 185.179 116.319 185.413 116.85 185.418C117.621 185.413 118.082 184.899 118.082 184.328L118.077 183.889C117.86 183.903 117.174 183.951 116.948 183.965C116.328 184.009 115.938 184.244 115.938 184.718ZM120.164 186.064V181.254H121.076V182.016H121.129C121.307 181.502 121.789 181.179 122.352 181.183C122.467 181.179 122.653 181.192 122.751 181.201V182.104C122.671 182.087 122.449 182.047 122.255 182.051C121.599 182.047 121.112 182.503 121.112 183.132V186.064H120.164ZM125.098 186.162C123.938 186.157 123.087 185.223 123.087 183.672C123.087 182.104 123.951 181.192 125.107 181.192C126.002 181.192 126.325 181.732 126.498 182.033H126.542V179.65H127.49V186.064H126.569V185.311H126.498C126.321 185.626 125.975 186.157 125.098 186.162ZM124.053 183.655C124.049 184.62 124.483 185.351 125.311 185.356C126.117 185.351 126.569 184.665 126.569 183.655C126.569 182.654 126.126 181.994 125.311 181.998C124.474 181.994 124.049 182.707 124.053 183.655ZM135.694 182.521V183.167H128.43V182.521H135.694ZM129.289 184.328V183.726H134.799V185.471H130.139V186.126H135.047V186.72H129.298V184.913H133.967V184.328H129.289ZM129.342 179.677V179.083H134.782V180.802H130.193V181.404H134.915V181.998H129.36V180.244H133.94V179.677H129.342ZM142.073 183.867C143.792 183.867 144.877 184.412 144.881 185.338C144.877 186.259 143.792 186.804 142.073 186.8C140.372 186.804 139.282 186.259 139.282 185.338C139.282 184.412 140.372 183.867 142.073 183.867ZM138.503 183.212V182.53H141.4V181.041H142.224V182.53H145.723V183.212H138.503ZM139.344 179.943V179.269H144.819V179.934C144.824 180.567 144.824 181.223 144.598 182.042L143.774 181.954C143.987 181.143 143.987 180.558 143.987 179.943H139.344ZM140.124 185.338C140.115 185.852 140.873 186.149 142.073 186.153C143.287 186.149 144.04 185.852 144.049 185.338C144.04 184.815 143.287 184.51 142.073 184.505C140.873 184.51 140.115 184.815 140.124 185.338ZM153.129 178.88V186.817H152.323V182.698H151.34V186.437H150.551V179.092H151.34V182.016H152.323V178.88H153.129ZM146.308 184.55C148.071 183.548 148.811 182.197 148.943 180.581H146.644V179.889H149.763C149.758 181.976 149.067 183.854 146.795 185.134L146.308 184.55ZM160.412 178.853V180.713H161.572V181.404H160.412V183.221H159.57V178.853H160.412ZM154.184 180.217V179.553H156.133V178.809H156.974V179.553H158.915V180.217H154.184ZM154.618 181.821C154.613 181.019 155.384 180.518 156.549 180.518C157.714 180.518 158.472 181.019 158.472 181.821C158.472 182.627 157.714 183.119 156.549 183.114C155.384 183.119 154.613 182.627 154.618 181.821ZM155.282 184.222V183.593H160.412V185.435H156.124V186.1H160.687V186.738H155.3V184.842H159.579V184.222H155.282ZM155.433 181.821C155.424 182.25 155.863 182.503 156.549 182.503C157.231 182.503 157.674 182.25 157.683 181.821C157.674 181.391 157.231 181.125 156.549 181.121C155.863 181.125 155.424 181.391 155.433 181.821ZM164.939 181.218C164.935 182.547 165.807 183.92 167.03 184.443L166.569 185.099C165.634 184.687 164.89 183.81 164.523 182.751C164.155 183.885 163.411 184.851 162.485 185.303L161.998 184.638C163.194 184.076 164.08 182.587 164.089 181.218V180.377H162.272V179.677H166.746V180.377H164.939V181.218ZM167.747 186.817V178.88H168.589V186.817H167.747ZM172.443 179.447C173.696 179.442 174.6 180.217 174.605 181.334C174.6 182.45 173.696 183.225 172.443 183.229C171.194 183.225 170.277 182.45 170.281 181.334C170.277 180.217 171.194 179.442 172.443 179.447ZM169.9 184.425C171.344 184.425 173.347 184.412 175.083 184.16L175.145 184.771C173.351 185.117 171.424 185.125 170.007 185.125L169.9 184.425ZM171.114 181.334C171.105 182.038 171.672 182.494 172.443 182.494C173.214 182.494 173.781 182.038 173.781 181.334C173.781 180.638 173.214 180.173 172.443 180.173C171.672 180.173 171.105 180.638 171.114 181.334ZM175.579 186.835V178.88H176.421V186.835H175.579ZM182.064 179.473C182.791 179.478 183.384 179.889 183.734 180.607H185.697V178.88H186.529V186.835H185.697V183.788H183.792C183.451 184.585 182.831 185.05 182.064 185.046C180.881 185.05 180.044 183.969 180.053 182.255C180.044 180.558 180.881 179.478 182.064 179.473ZM180.85 182.255C180.855 183.517 181.347 184.293 182.064 184.293C182.782 184.293 183.273 183.517 183.278 182.255C183.273 181.01 182.782 180.231 182.064 180.226C181.347 180.231 180.855 181.01 180.85 182.255ZM183.973 181.298C184.035 181.59 184.075 181.909 184.075 182.255C184.075 182.556 184.049 182.835 183.996 183.097H185.697V181.298H183.973ZM195.008 183.548V184.213H191.765V186.817H190.941V184.213H187.743V183.548H195.008ZM188.647 182.645V179.198H189.479V180.235H193.254V179.198H194.095V182.645H188.647ZM189.479 181.971H193.254V180.908H189.479V181.971ZM202.848 182.521V183.167H195.584V182.521H202.848ZM196.443 184.328V183.726H201.953V185.471H197.293V186.126H202.202V186.72H196.452V184.913H201.121V184.328H196.443ZM196.496 179.677V179.083H201.936V180.802H197.347V181.404H202.069V181.998H196.514V180.244H201.094V179.677H196.496ZM69.2223 191.88V195.964H68.3807V193.926H66.7063V193.244H68.3807V191.88H69.2223ZM62.5778 195.326C63.8181 194.932 64.5579 193.944 64.5623 192.827V192.136H65.3951V192.827C65.3951 193.837 66.1215 194.777 67.3176 195.157L66.8746 195.813C66.0019 195.512 65.3419 194.914 64.992 194.156C64.6465 195.011 63.9687 195.676 63.0296 195.999L62.5778 195.326ZM64.0307 197V196.336H69.2223V198.311H64.8724V199.047H69.497V199.72H64.0484V197.674H68.3895V197H64.0307ZM77.0629 191.88V196.602H76.2212V194.59H74.7417V193.899H76.2212V191.88H77.0629ZM70.4449 195.884C71.6764 195.454 72.4338 194.382 72.4294 193.288V193.111H70.7107V192.429H74.9898V193.111H73.2888V193.279C73.2843 194.285 74.002 195.264 75.2024 195.671L74.7683 196.336C73.8779 196.03 73.2223 195.392 72.8768 194.608C72.5313 195.494 71.8358 196.207 70.8879 196.557L70.4449 195.884ZM71.7207 198.32C71.7162 197.377 72.7351 196.827 74.4051 196.823C76.0662 196.827 77.085 197.377 77.0894 198.32C77.085 199.264 76.0662 199.813 74.4051 199.817C72.7351 199.813 71.7162 199.264 71.7207 198.32ZM72.5534 198.32C72.549 198.856 73.2401 199.162 74.4051 199.153C75.5612 199.162 76.2522 198.856 76.2567 198.32C76.2522 197.78 75.5612 197.474 74.4051 197.479C73.2401 197.474 72.549 197.78 72.5534 198.32ZM84.4693 191.88V195.095H85.7451V195.795H84.4693V199.817H83.6365V191.88H84.4693ZM78.2412 193.811V193.12H80.1991V191.986H81.0407V193.12H82.9455V193.811H78.2412ZM78.6487 196.238C78.6487 195.157 79.4815 194.396 80.6243 194.396C81.7628 194.396 82.5956 195.157 82.6 196.238C82.5956 197.328 81.7628 198.085 80.6243 198.09C79.4815 198.085 78.6487 197.328 78.6487 196.238ZM79.4549 196.238C79.4505 196.929 79.9466 197.39 80.6243 197.381C81.2977 197.39 81.7893 196.929 81.7938 196.238C81.7893 195.561 81.2977 195.091 80.6243 195.087C79.9466 195.091 79.4505 195.561 79.4549 196.238ZM92.5491 194.201V194.874H87.0828V192.163H87.9156V194.201H92.5491ZM86.1172 196.548V195.875H93.3818V196.548H86.1172ZM87.0208 199.631V197.301H87.8624V198.94H92.6022V199.631H87.0208ZM102.782 191.88V199.817H101.931V191.88H102.782ZM96.2611 197.691C98.3697 196.686 99.4018 195.255 99.5657 193.403H96.6421V192.73H100.416C100.416 195.056 99.4284 197.067 96.7041 198.373L96.2611 197.691ZM110.436 194.023V194.706H104.988V192.021H105.82V194.023H110.436ZM104.022 196.238V195.547H111.269V196.238H104.022ZM104.881 198.329C104.881 197.403 105.913 196.881 107.637 196.885C109.346 196.881 110.37 197.403 110.374 198.329C110.37 199.259 109.346 199.782 107.637 199.782C105.913 199.782 104.881 199.259 104.881 198.329ZM105.732 198.329C105.727 198.839 106.423 199.131 107.637 199.135C108.833 199.131 109.532 198.839 109.532 198.329C109.532 197.815 108.833 197.545 107.637 197.541C106.423 197.545 105.727 197.815 105.732 198.329ZM118.445 191.88V196.141H117.603V191.88H118.445ZM112.022 194.085C112.026 192.996 112.921 192.238 114.139 192.243C115.353 192.238 116.248 192.996 116.248 194.085C116.248 195.171 115.353 195.928 114.139 195.919C112.921 195.928 112.026 195.171 112.022 194.085ZM112.846 194.085C112.841 194.772 113.386 195.228 114.139 195.228C114.884 195.228 115.424 194.772 115.424 194.085C115.424 193.408 114.884 192.947 114.139 192.951C113.386 192.947 112.841 193.408 112.846 194.085ZM113.253 199.72V196.522H114.077V197.417H117.612V196.522H118.445V199.72H113.253ZM114.077 199.029H117.612V198.081H114.077V199.029ZM126.294 191.88V199.817H125.453V191.88H126.294ZM120.19 197.798V192.65H121.023V197.071C122.184 197.067 123.402 196.965 124.673 196.708L124.788 197.417C123.384 197.705 122.108 197.802 120.855 197.798H120.19ZM133.727 191.88V194.954H135.003V195.645H133.727V199.835H132.886V191.88H133.727ZM127.88 197.86V192.641H131.592V193.324H128.722V197.16C130.055 197.155 131.052 197.098 132.186 196.894L132.292 197.603C131.047 197.824 129.993 197.864 128.518 197.86H127.88ZM136.288 199.126C135.942 199.122 135.654 198.843 135.659 198.497C135.654 198.152 135.942 197.868 136.288 197.868C136.629 197.868 136.912 198.152 136.917 198.497C136.912 198.843 136.629 199.122 136.288 199.126Z" fill="#898D8F"/>
<path d="M71.1967 224.996V232.514H70.1146V229.86H67.5802C67.1018 230.435 66.3614 230.783 65.5128 230.783C63.975 230.783 62.8303 229.706 62.836 228.208C62.8303 226.699 63.975 225.623 65.5128 225.611C66.3557 225.617 67.0904 225.964 67.5688 226.534H70.1146V224.996H71.1967ZM63.8725 228.208C63.8668 229.171 64.556 229.832 65.5128 229.826C66.4297 229.832 67.1302 229.171 67.1302 228.208C67.1302 227.246 66.4297 226.585 65.5128 226.58C64.556 226.585 63.8668 227.246 63.8725 228.208ZM64.5674 234.974V231.728H65.6495V234.097H71.4701V234.974H64.5674ZM68.0472 227.411C68.1269 227.662 68.1668 227.924 68.1668 228.208C68.1668 228.482 68.1269 228.744 68.0529 228.983H70.1146V227.411H68.0472ZM81.2774 224.985V230.179H80.1953V229.199H77.6096V228.356H80.1953V227.252H77.7349C77.1027 228.835 75.5593 229.883 73.304 230.407L72.9281 229.518C75.3771 228.977 76.6984 227.838 76.8749 226.34H73.4634V225.452H78.0652C78.0652 225.782 78.0368 226.095 77.9798 226.397H80.1953V224.985H81.2774ZM74.6025 231.466V230.612H81.2774V233.198H75.696V234.223H81.5849V235.088H74.6253V232.377H80.1953V231.466H74.6025ZM95.0373 233.015V233.915H85.697V233.015H87.9295V230.35C87.0923 229.889 86.5797 229.16 86.5854 228.243C86.5797 226.637 88.1573 225.583 90.3443 225.577C92.537 225.583 94.1146 226.637 94.1146 228.243C94.1146 229.142 93.6248 229.866 92.8047 230.327V233.015H95.0373ZM87.6334 228.243C87.6334 229.336 88.744 230.048 90.3443 230.054C91.9333 230.048 93.061 229.336 93.0667 228.243C93.061 227.143 91.9333 226.443 90.3443 226.443C88.744 226.443 87.6334 227.143 87.6334 228.243ZM89.0002 233.015H91.7112V230.749C91.2955 230.845 90.8341 230.897 90.3443 230.897C89.8659 230.897 89.4103 230.845 89.0002 230.749V233.015ZM99.3543 227.16C99.3543 228.362 100.34 229.484 101.894 229.917L101.382 230.76C100.197 230.424 99.3088 229.695 98.8417 228.749C98.3975 229.803 97.509 230.64 96.2902 231.022L95.7777 230.19C97.3268 229.695 98.2836 228.476 98.2836 227.16V227.035H96.0624V226.169H98.2836V224.939H99.3657V226.169H101.575V227.035H99.3543V227.16ZM97.4179 233.277C97.4122 232.081 98.7278 231.403 100.869 231.398C103.005 231.403 104.315 232.081 104.321 233.277C104.315 234.479 103.005 235.174 100.869 235.168C98.7278 235.174 97.4122 234.479 97.4179 233.277ZM98.4886 233.277C98.4829 233.938 99.3714 234.331 100.869 234.337C102.367 234.331 103.244 233.938 103.25 233.277C103.244 232.617 102.367 232.241 100.869 232.241C99.3714 232.241 98.4829 232.617 98.4886 233.277ZM101.257 228.732V227.844H103.204V224.985H104.286V231.17H103.204V228.732H101.257ZM117.215 224.985V230.236H116.133V227.616H113.98V226.739H116.133V224.985H117.215ZM108.672 229.416C110.267 228.909 111.218 227.639 111.223 226.204V225.315H112.294V226.204C112.294 227.502 113.228 228.71 114.766 229.199L114.196 230.042C113.074 229.655 112.226 228.886 111.776 227.912C111.332 229.011 110.46 229.866 109.253 230.282L108.672 229.416ZM110.54 231.569V230.714H117.215V233.254H111.622V234.2H117.568V235.066H110.563V232.434H116.144V231.569H110.54ZM127.296 224.985V231.056H126.213V228.47H124.311V227.582H126.213V224.985H127.296ZM118.787 230.133C120.37 229.581 121.344 228.203 121.338 226.796V226.568H119.128V225.691H124.63V226.568H122.443V226.785C122.437 228.077 123.36 229.336 124.903 229.86L124.345 230.714C123.201 230.321 122.358 229.501 121.913 228.493C121.469 229.632 120.575 230.549 119.356 230.999L118.787 230.133ZM120.427 233.266C120.421 232.053 121.731 231.347 123.878 231.341C126.014 231.347 127.324 232.053 127.33 233.266C127.324 234.479 126.014 235.185 123.878 235.191C121.731 235.185 120.421 234.479 120.427 233.266ZM121.498 233.266C121.492 233.955 122.38 234.348 123.878 234.337C125.365 234.348 126.253 233.955 126.259 233.266C126.253 232.571 125.365 232.178 123.878 232.184C122.38 232.178 121.492 232.571 121.498 233.266Z" fill="#131214"/>
<rect x="246.344" y="219.855" width="36" height="21" rx="10.5" fill="#E6E9EB"/>
<rect x="247.64" y="221.152" width="18.144" height="18.144" rx="9.072" fill="white"/>
<path d="M69.3729 245.656V250.245H68.5756V245.656H69.3729ZM62.941 249.687V246.223H66.0418V247.561H67.0252V245.807H67.8225V250.148H67.0252V248.261H66.0418V249.687H62.941ZM63.7295 249.049H65.2622V246.879H63.7295V249.049ZM64.075 253.488V250.608H69.3729V253.488H64.075ZM64.8989 252.805H68.549V251.273H64.8989V252.805ZM77.0629 245.647V253.603H76.2301V249.235H74.4759V251.636H70.755V246.258H71.6055V248.287H73.652V246.258H74.4759V248.544H76.2301V245.647H77.0629ZM71.6055 250.945H73.652V248.952H71.6055V250.945ZM87.1183 245.656V251.503H86.2766V249.439H84.3054C83.9333 249.886 83.3575 250.157 82.6974 250.157C81.5014 250.157 80.6111 249.319 80.6155 248.154C80.6111 246.98 81.5014 246.143 82.6974 246.134C83.353 246.139 83.9245 246.409 84.2966 246.852H86.2766V245.656H87.1183ZM81.4217 248.154C81.4173 248.903 81.9532 249.417 82.6974 249.412C83.4106 249.417 83.9555 248.903 83.9555 248.154C83.9555 247.406 83.4106 246.892 82.6974 246.887C81.9532 246.892 81.4173 247.406 81.4217 248.154ZM81.9621 253.417V250.892H82.8037V252.735H87.3309V253.417H81.9621ZM84.6686 247.534C84.7307 247.729 84.7617 247.933 84.7617 248.154C84.7617 248.367 84.7307 248.571 84.6731 248.757H86.2766V247.534H84.6686ZM94.9588 245.647V249.687H94.1172V248.925H92.1061V248.269H94.1172V247.41H92.2035C91.7118 248.642 90.5114 249.457 88.7572 249.864L88.4649 249.173C90.3697 248.752 91.3973 247.866 91.5347 246.701H88.8813V246.01H92.4605C92.4605 246.267 92.4383 246.511 92.394 246.746H94.1172V245.647H94.9588ZM89.7672 250.688V250.024H94.9588V252.035H90.6177V252.832H95.198V253.505H89.7849V251.397H94.1172V250.688H89.7672ZM105.661 251.893V252.593H98.3962V251.893H100.133V249.82C99.4815 249.461 99.0828 248.894 99.0873 248.181C99.0828 246.932 100.31 246.112 102.011 246.108C103.716 246.112 104.943 246.932 104.943 248.181C104.943 248.881 104.562 249.443 103.924 249.802V251.893H105.661ZM99.9023 248.181C99.9023 249.031 100.766 249.585 102.011 249.59C103.247 249.585 104.124 249.031 104.128 248.181C104.124 247.326 103.247 246.781 102.011 246.781C100.766 246.781 99.9023 247.326 99.9023 248.181ZM100.965 251.893H103.074V250.13C102.751 250.205 102.392 250.245 102.011 250.245C101.639 250.245 101.284 250.205 100.965 250.13V251.893ZM109.019 247.339C109.019 248.274 109.785 249.147 110.994 249.483L110.596 250.139C109.674 249.877 108.983 249.31 108.62 248.575C108.274 249.395 107.583 250.046 106.635 250.343L106.237 249.696C107.442 249.31 108.186 248.362 108.186 247.339V247.242H106.458V246.568H108.186V245.612H109.027V246.568H110.746V247.242H109.019V247.339ZM107.513 252.097C107.508 251.166 108.531 250.639 110.197 250.635C111.858 250.639 112.877 251.166 112.881 252.097C112.877 253.031 111.858 253.572 110.197 253.567C108.531 253.572 107.508 253.031 107.513 252.097ZM108.345 252.097C108.341 252.611 109.032 252.916 110.197 252.921C111.362 252.916 112.044 252.611 112.049 252.097C112.044 251.583 111.362 251.291 110.197 251.291C109.032 251.291 108.341 251.583 108.345 252.097ZM110.498 248.562V247.871H112.013V245.647H112.855V250.458H112.013V248.562H110.498ZM117.692 245.78C119.482 245.776 120.523 246.258 120.527 247.144C120.523 248.035 119.482 248.518 117.692 248.518C115.902 248.518 114.853 248.035 114.857 247.144C114.853 246.258 115.902 245.776 117.692 245.78ZM114.077 249.678V249.005H121.315V249.678H114.077ZM114.946 250.918V250.289H120.403V252.15H115.778V252.859H120.624V253.505H114.954V251.539H119.57V250.918H114.946ZM115.734 247.144C115.73 247.636 116.43 247.889 117.692 247.889C118.963 247.889 119.663 247.636 119.659 247.144C119.663 246.675 118.963 246.4 117.692 246.4C116.43 246.4 115.73 246.675 115.734 247.144ZM130.37 245.647V247.525H131.521V248.225H130.37V250.281H129.528V245.647H130.37ZM124.443 249.82V246.099H125.267V247.251H127.349V246.099H128.181V249.82H124.443ZM125.267 249.155H127.349V247.915H125.267V249.155ZM125.311 253.47V250.697H130.432V251.37H126.153V252.805H130.573V253.47H125.311ZM135.588 245.78C137.377 245.776 138.418 246.258 138.423 247.144C138.418 248.035 137.377 248.518 135.588 248.518C133.798 248.518 132.748 248.035 132.753 247.144C132.748 246.258 133.798 245.776 135.588 245.78ZM131.973 249.678V249.005H139.211V249.678H131.973ZM132.841 250.918V250.289H138.299V252.15H133.674V252.859H138.52V253.505H132.85V251.539H137.466V250.918H132.841ZM133.63 247.144C133.626 247.636 134.325 247.889 135.588 247.889C136.859 247.889 137.559 247.636 137.555 247.144C137.559 246.675 136.859 246.4 135.588 246.4C134.325 246.4 133.626 246.675 133.63 247.144ZM142.737 247.986C142.733 249.315 143.606 250.688 144.828 251.211L144.368 251.866C143.433 251.454 142.689 250.577 142.321 249.519C141.953 250.653 141.209 251.618 140.283 252.07L139.796 251.406C140.992 250.843 141.878 249.355 141.887 247.986V247.144H140.071V246.444H144.545V247.144H142.737V247.986ZM145.546 253.585V245.647H146.387V253.585H145.546ZM150.241 246.214C151.495 246.21 152.399 246.985 152.403 248.101C152.399 249.217 151.495 249.993 150.241 249.997C148.992 249.993 148.075 249.217 148.08 248.101C148.075 246.985 148.992 246.21 150.241 246.214ZM147.699 251.193C149.143 251.193 151.145 251.18 152.881 250.927L152.943 251.539C151.149 251.884 149.222 251.893 147.805 251.893L147.699 251.193ZM148.912 248.101C148.904 248.805 149.471 249.262 150.241 249.262C151.012 249.262 151.579 248.805 151.579 248.101C151.579 247.406 151.012 246.941 150.241 246.941C149.471 246.941 148.904 247.406 148.912 248.101ZM153.378 253.603V245.647H154.219V253.603H153.378ZM159.863 246.241C160.589 246.245 161.183 246.657 161.533 247.375H163.495V245.647H164.328V253.603H163.495V250.555H161.59C161.249 251.353 160.629 251.818 159.863 251.813C158.68 251.818 157.843 250.737 157.852 249.023C157.843 247.326 158.68 246.245 159.863 246.241ZM158.649 249.023C158.653 250.285 159.145 251.06 159.863 251.06C160.58 251.06 161.072 250.285 161.076 249.023C161.072 247.778 160.58 246.998 159.863 246.994C159.145 246.998 158.653 247.778 158.649 249.023ZM161.772 248.066C161.834 248.358 161.874 248.677 161.874 249.023C161.874 249.324 161.847 249.603 161.794 249.864H163.495V248.066H161.772ZM172.806 250.316V250.98H169.564V253.585H168.74V250.98H165.541V250.316H172.806ZM166.445 249.412V245.966H167.278V247.003H171.052V245.966H171.894V249.412H166.445ZM167.278 248.739H171.052V247.676H167.278V248.739ZM180.647 249.288V249.935H173.382V249.288H180.647ZM174.241 251.096V250.493H179.752V252.238H175.092V252.894H180V253.488H174.25V251.68H178.919V251.096H174.241ZM174.295 246.444V245.851H179.734V247.57H175.145V248.172H179.867V248.766H174.312V247.011H178.893V246.444H174.295ZM190.064 245.647V249.731H189.223V247.694H187.548V247.011H189.223V245.647H190.064ZM183.42 249.093C184.66 248.699 185.4 247.711 185.404 246.595V245.904H186.237V246.595C186.237 247.605 186.963 248.544 188.159 248.925L187.716 249.581C186.844 249.279 186.184 248.681 185.834 247.924C185.488 248.779 184.811 249.443 183.871 249.767L183.42 249.093ZM184.873 250.768V250.103H190.064V252.079H185.714V252.814H190.339V253.488H184.89V251.441H189.231V250.768H184.873ZM197.905 245.647V250.369H197.063V248.358H195.584V247.667H197.063V245.647H197.905ZM191.287 249.652C192.518 249.222 193.276 248.15 193.271 247.056V246.879H191.553V246.196H195.832V246.879H194.131V247.047C194.126 248.052 194.844 249.031 196.044 249.439L195.61 250.103C194.72 249.798 194.064 249.16 193.719 248.376C193.373 249.262 192.678 249.975 191.73 250.325L191.287 249.652ZM192.563 252.088C192.558 251.144 193.577 250.595 195.247 250.591C196.908 250.595 197.927 251.144 197.931 252.088C197.927 253.031 196.908 253.581 195.247 253.585C193.577 253.581 192.558 253.031 192.563 252.088ZM193.395 252.088C193.391 252.624 194.082 252.929 195.247 252.921C196.403 252.929 197.094 252.624 197.099 252.088C197.094 251.547 196.403 251.242 195.247 251.246C194.082 251.242 193.391 251.547 193.395 252.088ZM66.5291 259.958V260.64H62.5867V259.958H64.1459V258.877H64.9787V259.958H66.5291ZM62.8436 262.944C62.8391 261.876 63.5656 261.119 64.5623 261.119C65.5678 261.119 66.2854 261.876 66.2899 262.944C66.2854 264.029 65.5678 264.791 64.5623 264.787C63.5656 264.791 62.8391 264.029 62.8436 262.944ZM63.5878 262.944C63.5833 263.617 63.9909 264.069 64.5623 264.069C65.1337 264.069 65.5457 263.617 65.5457 262.944C65.5457 262.284 65.1337 261.823 64.5623 261.819C63.9909 261.823 63.5833 262.284 63.5878 262.944ZM66.8923 266.213V258.824H67.6897V261.952H68.6022V258.647H69.3995V266.585H68.6022V262.643H67.6897V266.213H66.8923ZM77.683 263.121V263.803H74.4582V266.576H73.6343V263.803H70.4449V263.121H77.683ZM70.8524 261.854C72.332 261.65 73.5634 260.769 73.59 259.79H71.1182V259.117H77.0009V259.79H74.5468C74.5601 260.769 75.7827 261.65 77.2844 261.854L76.9743 262.519C75.6719 262.315 74.5468 261.673 74.064 260.769C73.5767 261.673 72.456 262.315 71.1714 262.519L70.8524 261.854ZM84.7085 260.968V261.642H79.2423V258.931H80.0751V260.968H84.7085ZM78.2766 263.316V262.643H85.5413V263.316H78.2766ZM79.1803 266.399V264.069H80.0219V265.708H84.7617V266.399H79.1803ZM94.9411 258.647V266.585H94.0906V258.647H94.9411ZM88.4206 264.459C90.5291 263.453 91.5612 262.023 91.7251 260.171H88.8015V259.498H92.5756C92.5756 261.823 91.5878 263.834 88.8636 265.141L88.4206 264.459ZM102.596 260.791V261.473H97.1471V258.789H97.9799V260.791H102.596ZM96.1814 263.006V262.315H103.428V263.006H96.1814ZM97.0408 265.097C97.0408 264.171 98.0729 263.648 99.796 263.653C101.506 263.648 102.529 264.171 102.534 265.097C102.529 266.027 101.506 266.55 99.796 266.55C98.0729 266.55 97.0408 266.027 97.0408 265.097ZM97.8913 265.097C97.8868 265.606 98.5823 265.898 99.796 265.903C100.992 265.898 101.692 265.606 101.692 265.097C101.692 264.583 100.992 264.313 99.796 264.308C98.5823 264.313 97.8868 264.583 97.8913 265.097ZM110.604 258.647V262.908H109.763V258.647H110.604ZM104.181 260.853C104.186 259.763 105.081 259.006 106.299 259.01C107.513 259.006 108.407 259.763 108.407 260.853C108.407 261.938 107.513 262.696 106.299 262.687C105.081 262.696 104.186 261.938 104.181 260.853ZM105.005 260.853C105.001 261.54 105.546 261.996 106.299 261.996C107.043 261.996 107.583 261.54 107.583 260.853C107.583 260.175 107.043 259.715 106.299 259.719C105.546 259.715 105.001 260.175 105.005 260.853ZM105.413 266.488V263.289H106.237V264.184H109.772V263.289H110.604V266.488H105.413ZM106.237 265.797H109.772V264.849H106.237V265.797ZM118.454 258.647V266.585H117.612V258.647H118.454ZM112.35 264.565V259.418H113.183V263.839C114.343 263.834 115.561 263.732 116.833 263.475L116.948 264.184C115.544 264.472 114.268 264.57 113.014 264.565H112.35ZM125.887 258.647V261.721H127.163V262.412H125.887V266.603H125.045V258.647H125.887ZM120.04 264.627V259.409H123.752V260.091H120.881V263.927C122.215 263.923 123.211 263.865 124.345 263.661L124.452 264.37C123.207 264.592 122.153 264.632 120.678 264.627H120.04ZM128.447 265.894C128.102 265.89 127.814 265.611 127.818 265.265C127.814 264.92 128.102 264.636 128.447 264.636C128.788 264.636 129.072 264.92 129.076 265.265C129.072 265.611 128.788 265.89 128.447 265.894Z" fill="#898D8F"/>
<path d="M85.9998 66.4924C87.5221 66.5032 89.0389 67.4122 89.0443 70.2577C89.0443 72.9417 87.8287 74.4962 85.9138 74.4962C84.4131 74.4962 83.3749 73.5603 83.2028 72.2694H84.5906C84.7304 72.888 85.2091 73.2806 85.9138 73.2806C87.0434 73.2806 87.6781 72.2855 87.6888 70.6127H87.6028C87.2101 71.2904 86.4571 71.6938 85.6018 71.6885C84.2087 71.6938 83.1329 70.6342 83.1275 69.1604C83.1275 67.6381 84.2732 66.4817 85.9998 66.4924ZM84.4938 69.1281C84.4938 69.9672 85.1177 70.6234 85.9891 70.6234C86.8551 70.6234 87.5221 69.9242 87.5167 69.1173C87.5167 68.3266 86.882 67.6274 86.0106 67.622C85.1338 67.6274 84.483 68.2944 84.4938 69.1281ZM91.0668 73.4205C90.6042 73.4205 90.2223 73.0439 90.2277 72.5814C90.2223 72.1295 90.6042 71.7584 91.0668 71.753C91.5132 71.7584 91.8951 72.1295 91.8951 72.5814C91.8951 73.0439 91.5132 73.4205 91.0668 73.4205ZM90.2277 68.4073C90.2223 67.9555 90.6042 67.5844 91.0668 67.579C91.5132 67.5844 91.8951 67.9555 91.8951 68.4073C91.8951 68.8699 91.5132 69.2464 91.0668 69.2464C90.6042 69.2464 90.2223 68.8699 90.2277 68.4073ZM93.0677 72.9364V71.8176L96.4349 66.6H98.1777V71.7853H99.1997V72.9364H98.1777V74.3887H96.8437V72.9364H93.0677ZM94.4985 71.7853H96.8652V68.1922H96.7792L94.4985 71.7315V71.7853ZM103.374 66.6V74.3887H101.964V67.9663H101.921L100.103 69.1281V67.8479L102.029 66.6H103.374Z" fill="#131214"/>
<rect opacity="0.35" x="256.994" y="66.7322" width="15.552" height="7.776" rx="2.4624" stroke="#131214" stroke-width="0.648"/>
<path opacity="0.4" d="M273.518 69.5059V72.1468C274.039 71.9231 274.379 71.4028 274.379 70.8263C274.379 70.2498 274.039 69.7295 273.518 69.5059Z" fill="#131214"/>
<rect x="257.966" y="67.7051" width="13.608" height="5.832" rx="1.62" fill="#131214"/>
<path fill-rule="evenodd" clip-rule="evenodd" d="M246.477 68.4204C248.089 68.4205 249.639 69.018 250.807 70.0894C250.895 70.1722 251.035 70.1711 251.122 70.0871L251.963 69.2684C252.007 69.2258 252.031 69.168 252.031 69.108C252.03 69.0479 252.005 68.9905 251.961 68.9484C248.895 66.1136 244.059 66.1136 240.993 68.9484C240.949 68.9905 240.923 69.0479 240.923 69.1079C240.923 69.168 240.947 69.2257 240.991 69.2684L241.832 70.0871C241.918 70.1713 242.059 70.1723 242.147 70.0894C243.315 69.0179 244.865 68.4204 246.477 68.4204ZM246.475 71.1552C247.355 71.1551 248.203 71.4867 248.855 72.0855C248.943 72.1705 249.082 72.1687 249.168 72.0814L250.002 71.2265C250.046 71.1816 250.07 71.1208 250.07 71.0576C250.069 70.9944 250.043 70.9341 249.999 70.8901C248.013 69.0169 244.939 69.0169 242.953 70.8901C242.908 70.9341 242.883 70.9944 242.882 71.0576C242.882 71.1209 242.906 71.1817 242.95 71.2265L243.784 72.0814C243.87 72.1687 244.009 72.1705 244.097 72.0855C244.749 71.4871 245.596 71.1555 246.475 71.1552ZM248.111 72.9654C248.112 73.0336 248.088 73.0995 248.045 73.1473L246.634 74.738C246.593 74.7847 246.536 74.811 246.477 74.811C246.419 74.811 246.362 74.7847 246.321 74.738L244.91 73.1473C244.867 73.0994 244.843 73.0336 244.844 72.9653C244.845 72.8971 244.872 72.8324 244.917 72.7866C245.818 71.9352 247.137 71.9352 248.038 72.7866C248.083 72.8324 248.11 72.8971 248.111 72.9654Z" fill="#131214"/>
<path fill-rule="evenodd" clip-rule="evenodd" d="M236.064 67.4967C236.064 67.0864 235.754 66.7539 235.372 66.7539H234.681C234.299 66.7539 233.99 67.0864 233.99 67.4967V73.9339C233.99 74.3441 234.299 74.6766 234.681 74.6766H235.372C235.754 74.6766 236.064 74.3441 236.064 73.9339V67.4967ZM231.246 68.3384H231.937C232.319 68.3384 232.629 68.679 232.629 69.099V73.916C232.629 74.3361 232.319 74.6766 231.937 74.6766H231.246C230.865 74.6766 230.555 74.3361 230.555 73.916V69.099C230.555 68.679 230.865 68.3384 231.246 68.3384ZM228.439 70.055H227.748C227.366 70.055 227.057 70.3999 227.057 70.8253V73.9064C227.057 74.3318 227.366 74.6766 227.748 74.6766H228.439C228.821 74.6766 229.13 74.3318 229.13 73.9064V70.8253C229.13 70.3999 228.821 70.055 228.439 70.055ZM225.004 71.6396H224.313C223.931 71.6396 223.622 71.9795 223.622 72.3988V73.9174C223.622 74.3367 223.931 74.6766 224.313 74.6766H225.004C225.386 74.6766 225.696 74.3367 225.696 73.9174V72.3988C225.696 71.9795 225.386 71.6396 225.004 71.6396Z" fill="#131214"/>
<rect width="243" height="41.472" transform="translate(50 86.9922)" fill="white"/>
<path d="M124.536 112.514H122.777L126.005 103.351H128.03L131.27 112.514H129.51L128.745 110.248H125.296L124.536 112.514ZM125.739 108.919H128.302L127.055 105.224H126.979L125.739 108.919ZM134.624 112.64C133.01 112.634 131.789 111.343 131.789 109.084C131.789 106.793 133.041 105.553 134.636 105.553C135.845 105.553 136.351 106.28 136.598 106.768H136.661V103.351H138.269V112.514H136.686V111.425H136.598C136.338 111.931 135.813 112.634 134.624 112.64ZM133.434 109.071C133.434 110.368 134.003 111.311 135.066 111.311C136.111 111.311 136.699 110.413 136.699 109.071C136.699 107.736 136.117 106.875 135.066 106.869C133.991 106.875 133.434 107.793 133.434 109.071ZM139.901 112.514V105.641H141.445V106.806H141.534C141.819 106.021 142.508 105.553 143.42 105.553C144.35 105.553 145.021 106.027 145.28 106.806H145.356C145.653 106.046 146.419 105.553 147.419 105.553C148.678 105.553 149.564 106.363 149.558 107.894V112.514H147.951V108.147C147.951 107.293 147.432 106.907 146.774 106.907C145.983 106.907 145.521 107.445 145.521 108.223V112.514H143.951V108.084C143.945 107.369 143.477 106.907 142.787 106.907C142.091 106.907 141.521 107.483 141.521 108.337V112.514H139.901ZM151.102 112.514V105.641H152.722V112.514H151.102ZM150.988 103.781C150.988 103.3 151.412 102.908 151.925 102.908C152.437 102.908 152.861 103.3 152.861 103.781C152.861 104.268 152.437 104.66 151.925 104.667C151.412 104.66 150.988 104.268 150.988 103.781ZM155.886 108.489V112.514H154.266V105.641H155.81V106.806H155.899C156.209 106.04 156.911 105.553 157.936 105.553C159.36 105.553 160.297 106.489 160.29 108.135V112.514H158.683V108.388C158.683 107.464 158.183 106.913 157.341 106.92C156.487 106.913 155.886 107.489 155.886 108.489ZM171.162 106.439C170.966 105.338 170.086 104.705 168.973 104.705C167.473 104.705 166.41 105.856 166.416 107.932C166.41 110.039 167.479 111.159 168.973 111.159C170.061 111.159 170.941 110.552 171.162 109.476H172.82C172.567 111.235 171.118 112.64 168.947 112.64C166.53 112.64 164.752 110.887 164.758 107.932C164.752 104.971 166.549 103.224 168.947 103.224C170.972 103.224 172.535 104.401 172.82 106.439H171.162ZM173.845 110.577C173.845 109.033 175.13 108.584 176.402 108.502C176.883 108.464 177.864 108.419 178.167 108.407L178.161 107.856C178.161 107.173 177.724 106.78 176.921 106.78C176.199 106.78 175.756 107.109 175.63 107.603H174.073C174.187 106.432 175.237 105.553 176.959 105.553C178.262 105.553 179.768 106.091 179.768 107.919V112.514H178.224V111.564H178.174C177.87 112.147 177.231 112.653 176.149 112.653C174.839 112.653 173.845 111.938 173.845 110.577ZM175.402 110.565C175.402 111.159 175.889 111.463 176.566 111.463C177.547 111.463 178.174 110.818 178.174 110.046L178.167 109.482C177.876 109.495 176.978 109.552 176.655 109.577C175.889 109.641 175.402 109.963 175.402 110.565ZM181.287 112.514V105.641H182.856V106.78H182.932C183.179 105.989 183.837 105.54 184.628 105.54C184.806 105.54 185.059 105.559 185.211 105.578V107.071C185.065 107.021 184.73 106.977 184.464 106.97C183.565 106.977 182.907 107.597 182.907 108.464V112.514H181.287ZM188.501 112.64C186.888 112.634 185.666 111.343 185.666 109.084C185.666 106.793 186.919 105.553 188.514 105.553C189.723 105.553 190.229 106.28 190.476 106.768H190.539V103.351H192.146V112.514H190.564V111.425H190.476C190.216 111.931 189.691 112.634 188.501 112.64ZM187.311 109.071C187.311 110.368 187.881 111.311 188.944 111.311C189.988 111.311 190.577 110.413 190.577 109.071C190.577 107.736 189.995 106.875 188.944 106.869C187.868 106.875 187.311 107.793 187.311 109.071ZM206.891 109.071V110.223H202.36V113.653H200.968V110.223H196.462V109.071H206.891ZM197.032 107.261C199.316 106.983 200.816 105.812 200.955 104.667H197.424V103.553H200.968V102.211H202.36V103.553H205.916V104.667H202.385C202.518 105.8 204.011 106.983 206.296 107.261L205.777 108.375C203.885 108.135 202.417 107.306 201.676 106.205C200.93 107.318 199.443 108.135 197.538 108.375L197.032 107.261ZM216.623 102.199V106.666H218.319V107.844H216.623V113.615H215.219V102.199H216.623ZM207.599 110.489C210.384 109.096 211.89 107.16 212.168 104.553H208.22V103.389H213.599C213.592 106.749 212.2 109.704 208.397 111.577L207.599 110.489Z" fill="#131214"/>
<path d="M68.792 113.177L63.8798 108.604C63.5174 108.266 63.5174 107.719 63.8798 107.382L68.792 102.809" stroke="#131214" stroke-width="0.972" stroke-linecap="round"/>
</g>
<rect x="48.5" y="50.5" width="246" height="529.176" rx="27.42" stroke="#0C0C0C" stroke-width="3"/>
<rect width="243" height="34.992" transform="translate(50 52)" fill="white"/>
<path d="M85.9998 66.4924C87.5221 66.5032 89.0389 67.4122 89.0443 70.2577C89.0443 72.9417 87.8287 74.4962 85.9138 74.4962C84.4131 74.4962 83.3749 73.5603 83.2028 72.2694H84.5906C84.7304 72.888 85.2091 73.2806 85.9138 73.2806C87.0434 73.2806 87.6781 72.2855 87.6888 70.6127H87.6028C87.2101 71.2904 86.4571 71.6938 85.6018 71.6885C84.2087 71.6938 83.1329 70.6342 83.1275 69.1604C83.1275 67.6381 84.2732 66.4817 85.9998 66.4924ZM84.4938 69.1281C84.4938 69.9672 85.1177 70.6234 85.9891 70.6234C86.8551 70.6234 87.5221 69.9242 87.5167 69.1173C87.5167 68.3266 86.882 67.6274 86.0106 67.622C85.1338 67.6274 84.483 68.2944 84.4938 69.1281ZM91.0668 73.4205C90.6042 73.4205 90.2223 73.0439 90.2277 72.5814C90.2223 72.1295 90.6042 71.7584 91.0668 71.753C91.5132 71.7584 91.8951 72.1295 91.8951 72.5814C91.8951 73.0439 91.5132 73.4205 91.0668 73.4205ZM90.2277 68.4073C90.2223 67.9555 90.6042 67.5844 91.0668 67.579C91.5132 67.5844 91.8951 67.9555 91.8951 68.4073C91.8951 68.8699 91.5132 69.2464 91.0668 69.2464C90.6042 69.2464 90.2223 68.8699 90.2277 68.4073ZM93.0677 72.9364V71.8176L96.4349 66.6H98.1777V71.7853H99.1997V72.9364H98.1777V74.3887H96.8437V72.9364H93.0677ZM94.4985 71.7853H96.8652V68.1922H96.7792L94.4985 71.7315V71.7853ZM103.374 66.6V74.3887H101.964V67.9663H101.921L100.103 69.1281V67.8479L102.029 66.6H103.374Z" fill="#131214"/>
<rect opacity="0.35" x="256.994" y="66.7322" width="15.552" height="7.776" rx="2.4624" stroke="#131214" stroke-width="0.648"/>
<path opacity="0.4" d="M273.518 69.5059V72.1468C274.039 71.9231 274.379 71.4028 274.379 70.8263C274.379 70.2498 274.039 69.7295 273.518 69.5059Z" fill="#131214"/>
<rect x="257.966" y="67.7051" width="13.608" height="5.832" rx="1.62" fill="#131214"/>
<path fill-rule="evenodd" clip-rule="evenodd" d="M246.477 68.4204C248.089 68.4205 249.639 69.018 250.807 70.0894C250.895 70.1722 251.035 70.1711 251.122 70.0871L251.963 69.2684C252.007 69.2258 252.031 69.168 252.031 69.108C252.03 69.0479 252.005 68.9905 251.961 68.9484C248.895 66.1136 244.059 66.1136 240.993 68.9484C240.949 68.9905 240.923 69.0479 240.923 69.1079C240.923 69.168 240.947 69.2257 240.991 69.2684L241.832 70.0871C241.918 70.1713 242.059 70.1723 242.147 70.0894C243.315 69.0179 244.865 68.4204 246.477 68.4204ZM246.475 71.1552C247.355 71.1551 248.203 71.4867 248.855 72.0855C248.943 72.1705 249.082 72.1687 249.168 72.0814L250.002 71.2265C250.046 71.1816 250.07 71.1208 250.07 71.0576C250.069 70.9944 250.043 70.9341 249.999 70.8901C248.013 69.0169 244.939 69.0169 242.953 70.8901C242.908 70.9341 242.883 70.9944 242.882 71.0576C242.882 71.1209 242.906 71.1817 242.95 71.2265L243.784 72.0814C243.87 72.1687 244.009 72.1705 244.097 72.0855C244.749 71.4871 245.596 71.1555 246.475 71.1552ZM248.111 72.9654C248.112 73.0336 248.088 73.0995 248.045 73.1473L246.634 74.738C246.593 74.7847 246.536 74.811 246.477 74.811C246.419 74.811 246.362 74.7847 246.321 74.738L244.91 73.1473C244.867 73.0994 244.843 73.0336 244.844 72.9653C244.845 72.8971 244.872 72.8324 244.917 72.7866C245.818 71.9352 247.137 71.9352 248.038 72.7866C248.083 72.8324 248.11 72.8971 248.111 72.9654Z" fill="#131214"/>
<path fill-rule="evenodd" clip-rule="evenodd" d="M236.064 67.4967C236.064 67.0864 235.754 66.7539 235.372 66.7539H234.681C234.299 66.7539 233.99 67.0864 233.99 67.4967V73.9339C233.99 74.3441 234.299 74.6766 234.681 74.6766H235.372C235.754 74.6766 236.064 74.3441 236.064 73.9339V67.4967ZM231.246 68.3384H231.937C232.319 68.3384 232.629 68.679 232.629 69.099V73.916C232.629 74.3361 232.319 74.6766 231.937 74.6766H231.246C230.865 74.6766 230.555 74.3361 230.555 73.916V69.099C230.555 68.679 230.865 68.3384 231.246 68.3384ZM228.439 70.055H227.748C227.366 70.055 227.057 70.3999 227.057 70.8253V73.9064C227.057 74.3318 227.366 74.6766 227.748 74.6766H228.439C228.821 74.6766 229.13 74.3318 229.13 73.9064V70.8253C229.13 70.3999 228.821 70.055 228.439 70.055ZM225.004 71.6396H224.313C223.931 71.6396 223.622 71.9795 223.622 72.3988V73.9174C223.622 74.3367 223.931 74.6766 224.313 74.6766H225.004C225.386 74.6766 225.696 74.3367 225.696 73.9174V72.3988C225.696 71.9795 225.386 71.6396 225.004 71.6396Z" fill="#131214"/>
<rect width="243" height="41.472" transform="translate(50 86.9922)" fill="white"/>
<path d="M124.536 112.514H122.777L126.005 103.351H128.03L131.27 112.514H129.51L128.745 110.248H125.296L124.536 112.514ZM125.739 108.919H128.302L127.055 105.224H126.979L125.739 108.919ZM134.624 112.64C133.01 112.634 131.789 111.343 131.789 109.084C131.789 106.793 133.041 105.553 134.636 105.553C135.845 105.553 136.351 106.28 136.598 106.768H136.661V103.351H138.269V112.514H136.686V111.425H136.598C136.338 111.931 135.813 112.634 134.624 112.64ZM133.434 109.071C133.434 110.368 134.003 111.311 135.066 111.311C136.111 111.311 136.699 110.413 136.699 109.071C136.699 107.736 136.117 106.875 135.066 106.869C133.991 106.875 133.434 107.793 133.434 109.071ZM139.901 112.514V105.641H141.445V106.806H141.534C141.819 106.021 142.508 105.553 143.42 105.553C144.35 105.553 145.021 106.027 145.28 106.806H145.356C145.653 106.046 146.419 105.553 147.419 105.553C148.678 105.553 149.564 106.363 149.558 107.894V112.514H147.951V108.147C147.951 107.293 147.432 106.907 146.774 106.907C145.983 106.907 145.521 107.445 145.521 108.223V112.514H143.951V108.084C143.945 107.369 143.477 106.907 142.787 106.907C142.091 106.907 141.521 107.483 141.521 108.337V112.514H139.901ZM151.102 112.514V105.641H152.722V112.514H151.102ZM150.988 103.781C150.988 103.3 151.412 102.908 151.925 102.908C152.437 102.908 152.861 103.3 152.861 103.781C152.861 104.268 152.437 104.66 151.925 104.667C151.412 104.66 150.988 104.268 150.988 103.781ZM155.886 108.489V112.514H154.266V105.641H155.81V106.806H155.899C156.209 106.04 156.911 105.553 157.936 105.553C159.36 105.553 160.297 106.489 160.29 108.135V112.514H158.683V108.388C158.683 107.464 158.183 106.913 157.341 106.92C156.487 106.913 155.886 107.489 155.886 108.489ZM171.162 106.439C170.966 105.338 170.086 104.705 168.973 104.705C167.473 104.705 166.41 105.856 166.416 107.932C166.41 110.039 167.479 111.159 168.973 111.159C170.061 111.159 170.941 110.552 171.162 109.476H172.82C172.567 111.235 171.118 112.64 168.947 112.64C166.53 112.64 164.752 110.887 164.758 107.932C164.752 104.971 166.549 103.224 168.947 103.224C170.972 103.224 172.535 104.401 172.82 106.439H171.162ZM173.845 110.577C173.845 109.033 175.13 108.584 176.402 108.502C176.883 108.464 177.864 108.419 178.167 108.407L178.161 107.856C178.161 107.173 177.724 106.78 176.921 106.78C176.199 106.78 175.756 107.109 175.63 107.603H174.073C174.187 106.432 175.237 105.553 176.959 105.553C178.262 105.553 179.768 106.091 179.768 107.919V112.514H178.224V111.564H178.174C177.87 112.147 177.231 112.653 176.149 112.653C174.839 112.653 173.845 111.938 173.845 110.577ZM175.402 110.565C175.402 111.159 175.889 111.463 176.566 111.463C177.547 111.463 178.174 110.818 178.174 110.046L178.167 109.482C177.876 109.495 176.978 109.552 176.655 109.577C175.889 109.641 175.402 109.963 175.402 110.565ZM181.287 112.514V105.641H182.856V106.78H182.932C183.179 105.989 183.837 105.54 184.628 105.54C184.806 105.54 185.059 105.559 185.211 105.578V107.071C185.065 107.021 184.73 106.977 184.464 106.97C183.565 106.977 182.907 107.597 182.907 108.464V112.514H181.287ZM188.501 112.64C186.888 112.634 185.666 111.343 185.666 109.084C185.666 106.793 186.919 105.553 188.514 105.553C189.723 105.553 190.229 106.28 190.476 106.768H190.539V103.351H192.146V112.514H190.564V111.425H190.476C190.216 111.931 189.691 112.634 188.501 112.64ZM187.311 109.071C187.311 110.368 187.881 111.311 188.944 111.311C189.988 111.311 190.577 110.413 190.577 109.071C190.577 107.736 189.995 106.875 188.944 106.869C187.868 106.875 187.311 107.793 187.311 109.071ZM206.891 109.071V110.223H202.36V113.653H200.968V110.223H196.462V109.071H206.891ZM197.032 107.261C199.316 106.983 200.816 105.812 200.955 104.667H197.424V103.553H200.968V102.211H202.36V103.553H205.916V104.667H202.385C202.518 105.8 204.011 106.983 206.296 107.261L205.777 108.375C203.885 108.135 202.417 107.306 201.676 106.205C200.93 107.318 199.443 108.135 197.538 108.375L197.032 107.261ZM216.623 102.199V106.666H218.319V107.844H216.623V113.615H215.219V102.199H216.623ZM207.599 110.489C210.384 109.096 211.89 107.16 212.168 104.553H208.22V103.389H213.599C213.592 106.749 212.2 109.704 208.397 111.577L207.599 110.489Z" fill="#131214"/>
<path d="M68.792 113.177L63.8798 108.604C63.5174 108.266 63.5174 107.719 63.8798 107.382L68.792 102.809" stroke="#131214" stroke-width="0.972" stroke-linecap="round"/>
</g>
<rect x="48.5" y="50.5" width="246" height="529.176" rx="27.5" stroke="#0C0C0C" stroke-width="3"/>
</g>
<defs>
<clipPath id="clip0_5309_17484">
<rect width="343" height="343" rx="24" fill="white"/>
</clipPath>
<clipPath id="clip1_5309_17484">
<rect x="50" y="52" width="243" height="526.176" rx="26" fill="white"/>
</clipPath>
<clipPath id="clip2_5309_17484">
<rect x="50" y="52" width="243" height="526.176" rx="25.92" fill="white"/>
</clipPath>
</defs>
</svg>
