<svg width="343" height="343" viewBox="0 0 343 343" fill="none" xmlns="http://www.w3.org/2000/svg">
<g clip-path="url(#clip0_5320_18378)">
<rect width="343" height="343" rx="24" fill="#F7F7FB"/>
<g clip-path="url(#clip1_5320_18378)">
<rect x="50" y="-221" width="243" height="526.176" rx="26" fill="white"/>
<path d="M62.8613 10.581V19.7441H61.216V10.581H62.8613ZM66.1139 15.7195V19.7441H64.4939V12.8718H66.038V14.0362H66.1266C66.4367 13.2705 67.1391 12.7832 68.1643 12.7832C69.5881 12.7832 70.5247 13.7198 70.5183 15.3651V19.7441H68.911V15.6182C68.911 14.6943 68.4111 14.1438 67.5694 14.1501C66.7151 14.1438 66.1139 14.7196 66.1139 15.7195ZM75.5429 12.8718V14.1121H74.1254V19.7441H72.5054V14.1121H71.4802V12.8718H72.5054V12.2137C72.5054 10.8784 73.3343 10.1507 74.6569 10.1507C75.0303 10.1507 75.3783 10.1887 75.6821 10.252V11.5302C75.4163 11.4923 75.2201 11.4859 75.0999 11.4796C74.4481 11.4859 74.119 11.7391 74.1254 12.3655V12.8718H75.5429ZM79.4283 19.8834C77.4223 19.8834 76.1377 18.4595 76.1377 16.3396C76.1377 14.2007 77.4223 12.7832 79.4283 12.7832C81.4407 12.7832 82.7253 14.2007 82.7189 16.3396C82.7253 18.4595 81.4407 19.8834 79.4283 19.8834ZM77.7704 16.327C77.7704 17.5863 78.3209 18.5924 79.441 18.5924C80.5421 18.5924 81.0926 17.5863 81.0863 16.327C81.0926 15.0677 80.5421 14.0552 79.441 14.0615C78.3209 14.0552 77.7704 15.0677 77.7704 16.327Z" fill="black"/>
<path d="M63.3376 42.8331C63.3376 42.8331 66.848 45.4251 68.144 45.4251C69.44 45.4251 72.9504 42.8331 72.9504 42.8331M62.96 47.3691C62.96 48.4427 63.8303 49.3131 64.904 49.3131H71.384C72.4576 49.3131 73.328 48.4428 73.328 47.3691V43.4811C73.328 42.4075 72.4576 41.5371 71.384 41.5371H64.904C63.8304 41.5371 62.96 42.4075 62.96 43.4811L62.96 47.3691Z" stroke="#131214" stroke-width="0.972" stroke-linecap="round"/>
<path d="M84.8604 45.3555C84.7389 44.8999 84.3896 44.6012 83.7466 44.5962C83.0683 44.6012 82.5873 44.9657 82.5823 45.4264C82.5873 45.7909 82.8809 46.039 83.5239 46.1959L84.344 46.3984C85.3261 46.6313 85.8071 47.1223 85.8121 47.8868C85.8071 48.8385 85.0325 49.5422 83.6555 49.5372C82.4203 49.5422 81.6862 48.9904 81.5394 47.988H82.4506C82.5519 48.5247 82.9417 48.7828 83.6353 48.7778C84.4199 48.7828 84.911 48.4538 84.911 47.9374C84.911 47.5476 84.6326 47.2945 84.0099 47.1477L83.1796 46.9553C82.2228 46.7325 81.7115 46.2111 81.7115 45.477C81.7115 44.5354 82.5367 43.857 83.7466 43.857C84.8857 43.857 85.5995 44.4645 85.7109 45.3555H84.8604ZM90.419 47.1679V43.9279H91.2796V49.4258H90.419V48.4943H90.3583C90.1001 49.0512 89.5533 49.4967 88.7281 49.4967C87.6853 49.4967 86.9411 48.8183 86.9461 47.421V43.9279H87.8169V47.3603C87.8169 48.15 88.3079 48.6613 89.0116 48.6563C89.6343 48.6613 90.4139 48.1956 90.419 47.1679ZM92.5149 49.4258V48.7677L95.6131 44.7885V44.7278H92.6161V43.9279H96.737V44.6164L93.7299 48.5652V48.6259H96.8383V49.4258H92.5149ZM97.9925 49.4258V43.9279H98.8633V49.4258H97.9925ZM97.8204 42.4395C97.8153 42.1155 98.0938 41.8573 98.4279 41.8624C98.762 41.8573 99.0404 42.1155 99.0455 42.4395C99.0404 42.7585 98.762 43.0167 98.4279 43.0167C98.0938 43.0167 97.8153 42.7585 97.8204 42.4395ZM100.25 49.4258V42.0953H101.121V46.3579H101.222L103.602 43.9279H104.675L102.356 46.282L104.847 49.4258H103.744L101.703 46.8338L101.121 47.3755V49.4258H100.25ZM105.607 49.4258V43.9279H106.477V49.4258H105.607ZM105.434 42.4395C105.429 42.1155 105.708 41.8573 106.042 41.8624C106.376 41.8573 106.654 42.1155 106.66 42.4395C106.654 42.7585 106.376 43.0167 106.042 43.0167C105.708 43.0167 105.429 42.7585 105.434 42.4395ZM107.864 49.4258V43.9279H108.705V44.7885H108.776C109.003 44.2013 109.535 43.857 110.254 43.857C110.973 43.857 111.464 44.2013 111.722 44.7885H111.783C112.061 44.2215 112.643 43.857 113.433 43.857C114.41 43.857 115.114 44.4544 115.114 45.7504V49.4258H114.243V45.7605C114.238 44.9505 113.732 44.6367 113.129 44.6367C112.365 44.6367 111.93 45.153 111.925 45.8517V49.4258H111.044V45.6694C111.049 45.0518 110.603 44.6367 109.97 44.6367C109.312 44.6367 108.735 45.1935 108.735 45.9934V49.4258H107.864ZM120.136 48.4639C119.118 48.4588 118.384 47.6438 118.384 46.3275C118.384 45.0214 119.134 44.2063 120.146 44.2013C120.875 44.2063 121.174 44.6721 121.3 44.8999H121.351V44.2823H122.12V47.2388C122.136 47.6337 122.298 47.8311 122.627 47.826C123.254 47.8311 123.675 47.097 123.68 46.044C123.69 44.1355 122.308 42.8901 120.369 42.885C118.364 42.8952 117.073 44.4443 117.068 46.3275C117.068 48.388 118.192 49.8004 120.328 49.7802C121.037 49.77 121.503 49.7245 122.12 49.5574V50.2459C121.589 50.3877 120.997 50.4788 120.328 50.4788C117.853 50.4788 116.334 48.8942 116.339 46.3275C116.329 43.933 118.01 42.1864 120.369 42.1864C122.789 42.1864 124.419 43.8317 124.409 46.0137C124.414 47.5881 123.604 48.5044 122.576 48.5044C121.938 48.5044 121.457 48.145 121.417 47.6742H121.351C121.234 47.902 120.926 48.4588 120.136 48.4639ZM119.174 46.3174C119.169 47.1072 119.564 47.7197 120.268 47.7248C120.991 47.7197 121.356 47.1578 121.361 46.3174C121.356 45.4973 120.997 44.9455 120.268 44.9404C119.559 44.9455 119.169 45.5428 119.174 46.3174ZM128.033 43.9279V44.6569H126.879V47.8463C126.874 48.55 127.228 48.6664 127.598 48.6664C127.755 48.6664 127.988 48.6512 128.114 48.6462V49.4562C127.978 49.4764 127.765 49.4967 127.507 49.4967C126.773 49.4967 126.003 49.041 125.998 48.069V44.6569H125.168V43.9279H125.998V42.6117H126.879V43.9279H128.033ZM129.157 49.4258V43.9279H129.998V44.7683H130.058C130.256 44.2114 130.828 43.8418 131.476 43.8368C131.608 43.8418 131.83 43.8469 131.932 43.857V44.7379C131.866 44.7227 131.633 44.6772 131.405 44.6772C130.615 44.6772 130.028 45.2239 130.028 45.963V49.4258H129.157ZM132.509 47.8665C132.509 46.606 133.622 46.3174 134.574 46.2465C134.929 46.2212 135.814 46.1706 136.063 46.1655V45.72C136.063 45.0214 135.647 44.6164 134.817 44.6164C134.124 44.6164 133.703 44.9353 133.582 45.3555H132.671C132.782 44.4696 133.643 43.857 134.858 43.857C135.577 43.857 136.928 44.0697 136.923 45.801V49.4258H136.063V48.6765H136.022C135.84 49.0461 135.339 49.5523 134.382 49.5574C133.339 49.5523 132.509 48.9398 132.509 47.8665ZM133.379 47.907C133.384 48.4892 133.865 48.7828 134.534 48.7778C135.516 48.7828 136.063 48.1247 136.063 47.4312V46.8793C135.804 46.8945 134.939 46.9603 134.675 46.9755C133.886 47.0262 133.384 47.3046 133.379 47.907ZM140.568 49.5372C139.009 49.5422 138.057 48.3525 138.057 46.7022C138.057 45.0315 139.054 43.857 140.548 43.857C141.717 43.857 142.598 44.5506 142.735 45.5884H141.864C141.738 45.0872 141.302 44.6265 140.568 44.6265C139.586 44.6265 138.933 45.4365 138.928 46.6718C138.933 47.9425 139.571 48.7575 140.568 48.7575C141.216 48.7575 141.712 48.4082 141.864 47.8058H142.735C142.598 48.7879 141.788 49.5422 140.568 49.5372ZM143.808 49.4258V42.0953H144.679V46.3579H144.78L147.16 43.9279H148.233L145.914 46.282L148.405 49.4258H147.301L145.261 46.8338L144.679 47.3755V49.4258H143.808ZM151.24 49.5372C149.65 49.5422 148.668 48.4082 148.668 46.7224C148.668 45.0315 149.665 43.857 151.159 43.857C152.313 43.857 153.533 44.5658 153.528 46.6009V46.9654H149.539C149.584 48.1298 150.263 48.7677 151.24 48.7677C151.898 48.7677 152.313 48.4791 152.516 48.1399H153.447C153.189 48.9752 152.374 49.5422 151.24 49.5372ZM149.544 46.2263H152.647C152.642 45.31 152.065 44.6265 151.159 44.6265C150.207 44.6265 149.605 45.3758 149.544 46.2263ZM154.662 49.4258V43.9279H155.503V44.7683H155.563C155.761 44.2114 156.333 43.8418 156.981 43.8368C157.112 43.8418 157.335 43.8469 157.436 43.857V44.7379C157.371 44.7227 157.138 44.6772 156.91 44.6772C156.12 44.6772 155.533 45.2239 155.533 45.963V49.4258H154.662ZM161.041 45.8922V46.692H157.831V45.8922H161.041ZM164.625 49.5372C163.066 49.5422 162.114 48.3525 162.114 46.7022C162.114 45.0315 163.111 43.857 164.605 43.857C165.774 43.857 166.655 44.5506 166.792 45.5884H165.921C165.795 45.0872 165.359 44.6265 164.625 44.6265C163.643 44.6265 162.99 45.4365 162.985 46.6718C162.99 47.9425 163.628 48.7575 164.625 48.7575C165.273 48.7575 165.769 48.4082 165.921 47.8058H166.792C166.655 48.7879 165.845 49.5422 164.625 49.5372ZM170.113 49.5372C168.614 49.5422 167.602 48.4082 167.602 46.7022C167.602 44.986 168.614 43.857 170.113 43.857C171.606 43.857 172.609 44.986 172.604 46.7022C172.609 48.4082 171.606 49.5422 170.113 49.5372ZM168.473 46.7022C168.478 47.8007 168.994 48.7677 170.113 48.7677C171.222 48.7677 171.733 47.8007 171.733 46.7022C171.733 45.6087 171.222 44.6265 170.113 44.6265C168.994 44.6265 168.478 45.6087 168.473 46.7022ZM174.619 42.0953V49.4258H173.748V42.0953H174.619ZM176.876 42.0953V49.4258H176.006V42.0953H176.876ZM178.82 51.4913C178.633 51.4862 178.446 51.4812 178.334 51.471V50.6914C178.426 50.7015 178.623 50.7066 178.76 50.7117C179.114 50.7066 179.413 50.6863 179.701 49.8814L179.863 49.4663L177.828 43.9279H178.78L180.278 48.2918H180.339L181.838 43.9279H182.789L180.461 50.2155C180.137 51.0812 179.6 51.4862 178.82 51.4913ZM184.025 49.4865C183.67 49.4815 183.367 49.1878 183.377 48.8284C183.367 48.474 183.67 48.1804 184.025 48.1804C184.384 48.1804 184.678 48.474 184.673 48.8284C184.678 49.1878 184.384 49.4815 184.025 49.4865ZM188.287 49.5372C186.728 49.5422 185.776 48.3525 185.776 46.7022C185.776 45.0315 186.774 43.857 188.267 43.857C189.436 43.857 190.317 44.5506 190.454 45.5884H189.583C189.457 45.0872 189.021 44.6265 188.287 44.6265C187.305 44.6265 186.652 45.4365 186.647 46.6718C186.652 47.9425 187.29 48.7575 188.287 48.7575C188.935 48.7575 189.431 48.4082 189.583 47.8058H190.454C190.317 48.7879 189.507 49.5422 188.287 49.5372ZM193.775 49.5372C192.277 49.5422 191.264 48.4082 191.264 46.7022C191.264 44.986 192.277 43.857 193.775 43.857C195.268 43.857 196.271 44.986 196.266 46.7022C196.271 48.4082 195.268 49.5422 193.775 49.5372ZM192.135 46.7022C192.14 47.8007 192.656 48.7677 193.775 48.7677C194.884 48.7677 195.395 47.8007 195.395 46.7022C195.395 45.6087 194.884 44.6265 193.775 44.6265C192.656 44.6265 192.14 45.6087 192.135 46.7022ZM197.41 49.4258V43.9279H198.25V44.7885H198.321C198.549 44.2013 199.081 43.857 199.799 43.857C200.518 43.857 201.009 44.2013 201.268 44.7885H201.328C201.607 44.2215 202.189 43.857 202.979 43.857C203.956 43.857 204.659 44.4544 204.659 45.7504V49.4258H203.789V45.7605C203.784 44.9505 203.277 44.6367 202.675 44.6367C201.91 44.6367 201.475 45.153 201.47 45.8517V49.4258H200.589V45.6694C200.594 45.0518 200.149 44.6367 199.516 44.6367C198.858 44.6367 198.281 45.1935 198.281 45.9934V49.4258H197.41Z" fill="#131214"/>
<path d="M65.7708 72.2131H65.7764M67.9995 69.4023H64.365C63.589 69.4023 62.96 70.0314 62.96 70.8074V74.4415C62.96 74.8143 63.1082 75.1719 63.372 75.4355L67.0941 79.1538C67.9172 79.9761 69.2511 79.9758 70.0738 79.1531L72.7128 76.5141C73.5358 75.6911 73.5358 74.3567 72.7128 73.5336L68.993 69.8139C68.7295 69.5504 68.3722 69.4023 67.9995 69.4023Z" stroke="#131214" stroke-width="0.972" stroke-linecap="round" stroke-linejoin="round"/>
<path d="M84.5263 78.5859L84.8604 76.5609H83.0176L82.6835 78.5859H81.9444L82.2785 76.5609H81.1951L81.3166 75.8319H82.3949L82.6987 74.0094H81.6305L81.7419 73.2804H82.8151L83.1493 71.2554H83.8884L83.5543 73.2804H85.397L85.7311 71.2554H86.4703L86.1361 73.2804H87.2296L87.1081 74.0094H86.0197L85.7159 75.8319H86.7943L86.6728 76.5609H85.5995L85.2654 78.5859H84.5263ZM83.1341 75.8319H84.9768L85.2806 74.0094H83.4378L83.1341 75.8319ZM90.6013 71.2554V78.5859H89.6799V72.2072H89.6394L87.8574 73.3918V72.4704L89.6799 71.2554H90.6013ZM92.5554 78.5859L92.5453 77.9177L95.0461 75.2852C95.9118 74.3638 96.3269 73.8677 96.332 73.1893C96.3269 72.435 95.6992 71.949 94.874 71.9439C93.9982 71.949 93.4514 72.5008 93.4464 73.3209H92.5858C92.5756 72.0249 93.578 71.1542 94.9044 71.1542C96.2358 71.1542 97.1774 72.0502 97.1825 73.1893C97.1774 74.0094 96.7978 74.6473 95.5018 75.9838L93.821 77.7152V77.7759H97.3141V78.5859H92.5554ZM101.172 78.6872C99.7138 78.6872 98.6658 77.9076 98.6203 76.7432H99.5416C99.5923 77.4418 100.286 77.8772 101.162 77.8772C102.129 77.8772 102.827 77.3557 102.832 76.5913C102.827 75.7914 102.189 75.2295 101.05 75.2244H100.453V74.4246H101.05C101.941 74.4246 102.564 73.9234 102.559 73.1691C102.564 72.435 102.027 71.949 101.192 71.9439C100.407 71.949 99.6935 72.3793 99.653 73.0982H98.7721C98.8177 71.9338 99.9011 71.1542 101.202 71.1542C102.599 71.1542 103.45 72.0705 103.44 73.1184C103.45 73.9537 102.964 74.5612 102.194 74.7789V74.8296C103.151 74.9764 103.728 75.6598 103.723 76.5913C103.728 77.7962 102.635 78.6872 101.172 78.6872ZM104.857 77.0874V76.3382L108.158 71.2554H109.282V76.2876H110.305V77.0874H109.282V78.5859H108.411V77.0874H104.857ZM105.839 76.2876H108.411V72.4097H108.32L105.839 76.2268V76.2876ZM113.899 78.6872C112.578 78.6872 111.575 77.8721 111.52 76.7432H112.4C112.466 77.3962 113.104 77.8822 113.899 77.8873C114.851 77.8822 115.539 77.1887 115.539 76.2673C115.539 75.3156 114.825 74.6119 113.838 74.6068C113.221 74.5967 112.74 74.7891 112.471 75.2649H111.59L112.107 71.2554H116.076V72.0654H112.866L112.593 74.2119H112.664C112.993 73.9588 113.484 73.7867 114 73.7867C115.397 73.7867 116.425 74.8194 116.43 76.2471C116.425 77.6646 115.362 78.6872 113.899 78.6872ZM120.247 78.6872C118.977 78.672 117.574 77.9177 117.574 75.2042C117.574 72.6071 118.637 71.1542 120.359 71.1542C121.65 71.1542 122.551 71.949 122.738 73.0982H121.837C121.67 72.4502 121.174 71.9642 120.359 71.9642C119.154 71.9642 118.43 72.9919 118.435 74.7587H118.526C118.946 74.1461 119.62 73.7867 120.409 73.7867C121.71 73.7867 122.799 74.7992 122.799 76.2167C122.799 77.5987 121.791 78.7024 120.247 78.6872ZM118.556 76.2369C118.561 77.0976 119.265 77.8822 120.247 77.8873C121.194 77.8822 121.913 77.1381 121.918 76.2268C121.913 75.3257 121.224 74.5916 120.268 74.5866C119.306 74.5916 118.567 75.3712 118.556 76.2369ZM124.287 78.5859L127.649 72.1161V72.0654H123.771V71.2554H128.59V72.1059L125.239 78.5859H124.287ZM132.083 78.6872C130.539 78.6872 129.476 77.8316 129.481 76.6419C129.476 75.6952 130.134 74.9106 130.97 74.7789V74.7384C130.241 74.5714 129.76 73.8981 129.765 73.0982C129.76 71.9794 130.742 71.1542 132.083 71.1542C133.42 71.1542 134.402 71.9794 134.412 73.0982C134.402 73.8981 133.916 74.5714 133.197 74.7384V74.7789C134.027 74.9106 134.686 75.6952 134.696 76.6419C134.686 77.8316 133.612 78.6872 132.083 78.6872ZM130.393 76.5913C130.377 77.3608 131.03 77.8822 132.083 77.8873C133.131 77.8822 133.784 77.3608 133.784 76.5913C133.784 75.7813 133.071 75.1839 132.083 75.1839C131.101 75.1839 130.377 75.7813 130.393 76.5913ZM130.646 73.1691C130.651 73.9082 131.243 74.4094 132.083 74.4144C132.919 74.4094 133.521 73.9082 133.521 73.1691C133.521 72.435 132.939 71.9389 132.083 71.9439C131.213 71.9389 130.651 72.435 130.646 73.1691ZM138.361 71.1542C139.621 71.1694 141.024 71.9287 141.024 74.6271C141.024 77.2342 139.956 78.6872 138.239 78.6872C136.948 78.6872 136.042 77.8974 135.86 76.7331H136.761C136.923 77.3912 137.424 77.8772 138.239 77.8772C139.434 77.8772 140.163 76.8444 140.173 75.0624H140.072C139.652 75.6699 138.979 76.0344 138.199 76.0344C136.888 76.0344 135.799 75.027 135.799 73.6146C135.799 72.2477 136.802 71.139 138.361 71.1542ZM136.69 73.6044C136.685 74.5106 137.374 75.2346 138.331 75.2346C139.287 75.2346 140.032 74.4448 140.032 73.5842C140.032 72.7438 139.328 71.9541 138.361 71.9541C137.404 71.9541 136.68 72.6982 136.69 73.6044Z" fill="#131214"/>
<rect width="243" height="20.736" transform="translate(50 285.088)" fill="white"/>
<path fill-rule="evenodd" clip-rule="evenodd" d="M126.64 299.284C126.64 298.389 127.365 297.664 128.26 297.664H215.092C215.987 297.664 216.712 298.389 216.712 299.284C216.712 300.179 215.987 300.904 215.092 300.904H128.26C127.365 300.904 126.64 300.179 126.64 299.284Z" fill="#131214"/>
<rect x="60.368" y="244.264" width="222.264" height="31.104" rx="3.888" fill="#FFF6F6"/>
<path d="M148.152 256.263V257.043H147.281V259.787C147.666 259.756 148.035 259.721 148.395 259.675L148.435 260.404C146.689 260.678 144.654 260.708 143.201 260.708L143.079 259.908C143.418 259.908 143.793 259.908 144.183 259.903V257.043H143.332V256.263H148.152ZM144.527 263.017C144.522 261.958 145.676 261.356 147.595 261.356C149.509 261.356 150.658 261.958 150.663 263.017C150.658 264.054 149.509 264.662 147.595 264.657C145.676 264.662 144.522 264.054 144.527 263.017ZM145.114 259.888C145.524 259.878 145.94 259.863 146.36 259.842V257.043H145.114V259.888ZM145.479 263.017C145.474 263.589 146.253 263.913 147.595 263.918C148.926 263.913 149.706 263.589 149.711 263.017C149.706 262.429 148.926 262.1 147.595 262.105C146.253 262.1 145.474 262.429 145.479 263.017ZM148.283 259.604V258.835H149.671V257.954H148.283V257.185H149.671V255.605H150.632V261.184H149.671V259.604H148.283ZM159.097 255.605V259.22H160.504V260.02H159.097V264.667H158.135V255.605H159.097ZM152.04 262.247C154.313 261.113 155.548 259.473 155.746 257.357H152.495V256.557H156.728C156.718 259.179 155.563 261.523 152.576 262.996L152.04 262.247ZM171.308 255.605V264.677H170.386V255.605H171.308ZM163.39 262.176C164.676 261.402 165.329 259.751 165.334 258.136V257.407H163.663V256.628H167.815V257.407H166.255V258.136C166.255 259.685 166.883 261.24 168.159 261.974L167.582 262.682C166.716 262.166 166.124 261.24 165.805 260.146C165.481 261.331 164.863 262.343 163.977 262.895L163.39 262.176ZM167.146 259.604V258.815H168.554V255.797H169.465V264.221H168.554V259.604H167.146ZM180.744 259.584V260.303H177.089V261.062H179.711V263.108H174.426V263.857H179.965V264.586H173.485V262.439H178.76V261.761H173.474V261.062H176.137V260.303H172.492V259.584H180.744ZM172.897 258.501C174.634 258.405 175.859 257.873 176.056 257.104H173.312V256.364H176.137V255.565H177.089V256.364H179.924V257.104H177.165C177.357 257.873 178.583 258.405 180.339 258.501L180.046 259.23C178.466 259.113 177.18 258.653 176.613 257.858C176.046 258.653 174.76 259.113 173.171 259.23L172.897 258.501ZM192.277 262.743V263.543H183.974V262.743H185.959V260.374C185.214 259.964 184.759 259.316 184.764 258.501C184.759 257.073 186.161 256.137 188.105 256.132C190.054 256.137 191.456 257.073 191.456 258.501C191.456 259.301 191.021 259.944 190.292 260.354V262.743H192.277ZM185.695 258.501C185.695 259.473 186.683 260.106 188.105 260.111C189.518 260.106 190.52 259.473 190.525 258.501C190.52 257.524 189.518 256.901 188.105 256.901C186.683 256.901 185.695 257.524 185.695 258.501ZM186.91 262.743H189.32V260.728C188.951 260.814 188.54 260.86 188.105 260.86C187.68 260.86 187.275 260.814 186.91 260.728V262.743ZM196.114 257.539C196.114 258.607 196.99 259.604 198.372 259.989L197.916 260.738C196.863 260.44 196.073 259.792 195.658 258.951C195.263 259.888 194.474 260.632 193.39 260.971L192.935 260.232C194.312 259.792 195.162 258.708 195.162 257.539V257.428H193.188V256.658H195.162V255.565H196.124V256.658H198.088V257.428H196.114V257.539ZM194.393 262.976C194.388 261.913 195.557 261.31 197.461 261.305C199.359 261.31 200.523 261.913 200.528 262.976C200.523 264.044 199.359 264.662 197.461 264.657C195.557 264.662 194.388 264.044 194.393 262.976ZM195.344 262.976C195.339 263.563 196.129 263.913 197.461 263.918C198.792 263.913 199.572 263.563 199.577 262.976C199.572 262.389 198.792 262.055 197.461 262.055C196.129 262.055 195.339 262.389 195.344 262.976ZM197.805 258.936V258.146H199.536V255.605H200.498V261.103H199.536V258.936H197.805Z" fill="#C90000"/>
<rect x="60.368" y="204.088" width="222.264" height="31.104" rx="3.888" fill="#E0EDFF"/>
<path d="M148.152 216.087V216.867H147.281V219.611C147.666 219.58 148.035 219.545 148.395 219.499L148.435 220.228C146.689 220.502 144.654 220.532 143.201 220.532L143.079 219.732C143.418 219.732 143.793 219.732 144.183 219.727V216.867H143.332V216.087H148.152ZM144.527 222.841C144.522 221.783 145.676 221.18 147.595 221.18C149.509 221.18 150.658 221.783 150.663 222.841C150.658 223.879 149.509 224.486 147.595 224.481C145.676 224.486 144.522 223.879 144.527 222.841ZM145.114 219.712C145.524 219.702 145.939 219.687 146.36 219.667V216.867H145.114V219.712ZM145.479 222.841C145.474 223.413 146.253 223.737 147.595 223.742C148.926 223.737 149.706 223.413 149.711 222.841C149.706 222.253 148.926 221.924 147.595 221.929C146.253 221.924 145.474 222.253 145.479 222.841ZM148.283 219.429V218.659H149.671V217.778H148.283V217.009H149.671V215.429H150.632V221.008H149.671V219.429H148.283ZM159.097 215.429V219.044H160.504V219.844H159.097V224.491H158.135V215.429H159.097ZM152.04 222.071C154.313 220.937 155.548 219.297 155.746 217.181H152.495V216.381H156.728C156.718 219.003 155.563 221.347 152.576 222.82L152.04 222.071ZM166.691 217.059C166.686 218.219 167.491 219.317 168.878 219.783L168.392 220.532C167.364 220.178 166.61 219.469 166.215 218.578C165.82 219.555 165.03 220.33 163.967 220.704L163.451 219.955C164.868 219.474 165.724 218.3 165.729 217.049V216.806H163.734V216.027H168.645V216.806H166.691V217.059ZM164.656 222.122V221.342H170.65V224.501H169.688V222.122H164.656ZM169.688 220.897V215.429H170.65V217.758H171.966V218.568H170.65V220.897H169.688ZM175.702 216.786C175.697 218.057 176.522 219.191 177.899 219.641L177.373 220.39C176.375 220.026 175.641 219.327 175.246 218.416C174.856 219.454 174.067 220.269 172.968 220.664L172.452 219.894C173.9 219.398 174.74 218.188 174.75 216.826V215.935H175.702V216.786ZM173.94 222.77C173.935 221.671 175.099 221.033 177.008 221.038C178.906 221.033 180.071 221.671 180.076 222.77C180.071 223.863 178.906 224.486 177.008 224.481C175.099 224.486 173.935 223.863 173.94 222.77ZM174.892 222.77C174.887 223.372 175.677 223.727 177.008 223.722C178.329 223.727 179.119 223.372 179.124 222.77C179.119 222.147 178.329 221.788 177.008 221.788C175.677 221.788 174.887 222.147 174.892 222.77ZM177.17 218.062V217.272H179.084V215.429H180.046V220.785H179.084V218.062H177.17ZM192.277 222.567V223.367H183.974V222.567H185.959V220.198C185.214 219.788 184.759 219.14 184.764 218.325C184.759 216.897 186.161 215.961 188.105 215.956C190.054 215.961 191.456 216.897 191.456 218.325C191.456 219.125 191.021 219.768 190.292 220.178V222.567H192.277ZM185.695 218.325C185.695 219.297 186.682 219.93 188.105 219.935C189.517 219.93 190.52 219.297 190.525 218.325C190.52 217.348 189.517 216.725 188.105 216.725C186.682 216.725 185.695 217.348 185.695 218.325ZM186.91 222.567H189.32V220.552C188.95 220.639 188.54 220.684 188.105 220.684C187.68 220.684 187.275 220.639 186.91 220.552V222.567ZM196.114 217.363C196.114 218.431 196.99 219.429 198.372 219.813L197.916 220.563C196.863 220.264 196.073 219.616 195.658 218.776C195.263 219.712 194.474 220.456 193.39 220.795L192.935 220.056C194.312 219.616 195.162 218.533 195.162 217.363V217.252H193.188V216.482H195.162V215.389H196.124V216.482H198.088V217.252H196.114V217.363ZM194.393 222.8C194.388 221.737 195.557 221.135 197.461 221.13C199.359 221.135 200.523 221.737 200.528 222.8C200.523 223.868 199.359 224.486 197.461 224.481C195.557 224.486 194.388 223.868 194.393 222.8ZM195.344 222.8C195.339 223.387 196.129 223.737 197.461 223.742C198.792 223.737 199.572 223.387 199.577 222.8C199.572 222.213 198.792 221.879 197.461 221.879C196.129 221.879 195.339 222.213 195.344 222.8ZM197.805 218.76V217.971H199.536V215.429H200.498V220.927H199.536V218.76H197.805Z" fill="#0038FF"/>
</g>
<rect x="48.5" y="-222.5" width="246" height="529.176" rx="27.5" stroke="#0C0C0C" stroke-width="3"/>
</g>
<defs>
<clipPath id="clip0_5320_18378">
<rect width="343" height="343" rx="24" fill="white"/>
</clipPath>
<clipPath id="clip1_5320_18378">
<rect x="50" y="-221" width="243" height="526.176" rx="26" fill="white"/>
</clipPath>
</defs>
</svg>
