<svg width="343" height="343" viewBox="0 0 343 343" fill="none" xmlns="http://www.w3.org/2000/svg">
<g clip-path="url(#clip0_5345_14726)">
<rect width="343" height="343" rx="24" fill="#F7F7FB"/>
<g clip-path="url(#clip1_5345_14726)">
<rect x="50" y="46" width="243" height="526.176" rx="26" fill="white"/>
<path d="M61.0516 145.775V144.705L63.9676 141.891C64.7991 141.06 65.232 140.57 65.232 139.875C65.232 139.106 64.6226 138.622 63.8195 138.622C62.9709 138.622 62.4242 139.152 62.4299 139.989H61.0174C61.0117 138.428 62.185 137.415 63.8309 137.415C65.5167 137.415 66.6501 138.423 66.6558 139.807C66.6501 140.735 66.2059 141.487 64.5827 143.019L63.1133 144.477V144.534H66.7811V145.775H61.0516Z" fill="#04B014"/>
<path d="M71.4512 137.141L68.7972 147.017H67.5215L70.1869 137.141H71.4512ZM75.2557 145.889C73.4959 145.889 72.2372 144.932 72.203 143.543H73.6952C73.7351 144.203 74.3957 144.642 75.2557 144.636C76.1613 144.642 76.8162 144.141 76.8162 143.406C76.8162 142.666 76.1784 142.136 75.1076 142.13H74.3672V140.991H75.1076C75.9847 140.991 76.5941 140.502 76.5884 139.784C76.5941 139.089 76.0701 138.622 75.2671 138.622C74.4925 138.622 73.8262 139.055 73.7977 139.75H72.3739C72.4081 138.366 73.6667 137.415 75.2785 137.415C76.9529 137.415 78.035 138.44 78.0236 139.704C78.035 140.627 77.4199 141.293 76.5201 141.481V141.549C77.6819 141.703 78.3426 142.449 78.3312 143.486C78.3426 144.881 77.0383 145.889 75.2557 145.889Z" fill="#131214"/>
<path d="M69.9363 163.375V164.488H62.1021V159.869H69.8097V160.995H63.5449V163.375H69.9363ZM60.7352 166.893V165.754H71.1893V166.893H66.633V170.652H65.2408V166.893H60.7352ZM80.9093 159.236V163.704H82.6052V164.881H80.9093V170.652H79.5044V159.236H80.9093ZM71.8854 167.526C74.6697 166.134 76.1758 164.197 76.4543 161.59H72.5055V160.426H77.8844C77.8781 163.786 76.4859 166.741 72.6827 168.614L71.8854 167.526ZM87.4652 162.489C87.4652 164.362 88.5663 166.336 90.4141 167.108L89.6421 168.222C88.2879 167.633 87.3007 166.437 86.7754 164.982C86.2502 166.551 85.244 167.868 83.9088 168.5L83.0988 167.399C84.9023 166.564 86.0287 164.431 86.035 162.489V161.527H83.5164V160.362H89.9711V161.527H87.4652V162.489ZM91.2494 170.677V159.236H92.6669V170.677H91.2494ZM106.943 159.236V170.69H105.526V159.236H106.943ZM97.7927 164.109C97.7864 161.641 99.0457 160.071 100.78 160.071C102.494 160.071 103.76 161.641 103.766 164.109C103.76 166.596 102.494 168.159 100.78 168.159C99.0457 168.159 97.7864 166.596 97.7927 164.109ZM99.1469 164.109C99.1469 165.868 99.8114 166.887 100.78 166.893C101.741 166.887 102.4 165.868 102.4 164.109C102.4 162.362 101.741 161.337 100.78 161.337C99.8114 161.337 99.1469 162.362 99.1469 164.109ZM112.676 161.058C112.676 162.495 113.607 163.855 115.372 164.412L114.613 165.513C113.379 165.096 112.493 164.26 111.993 163.197C111.499 164.412 110.576 165.368 109.259 165.83L108.5 164.729C110.341 164.09 111.265 162.565 111.272 160.932V159.843H112.676V161.058ZM110.057 168.488C110.057 167.133 111.544 166.33 113.929 166.336C116.296 166.33 117.758 167.133 117.764 168.488C117.758 169.874 116.296 170.665 113.929 170.665C111.544 170.665 110.057 169.874 110.057 168.488ZM111.461 168.488C111.461 169.196 112.36 169.551 113.929 169.551C115.492 169.551 116.372 169.196 116.372 168.488C116.372 167.817 115.492 167.437 113.929 167.437C112.36 167.437 111.461 167.817 111.461 168.488ZM116.246 166.083V159.236H117.65V162.02H119.245V163.185H117.65V166.083H116.246ZM123.536 160.033C125.352 160.027 126.674 161.172 126.687 162.792C126.674 164.419 125.352 165.558 123.536 165.564C121.738 165.558 120.39 164.419 120.397 162.792C120.39 161.172 121.738 160.027 123.536 160.033ZM119.878 167.146C121.941 167.146 124.795 167.121 127.269 166.766L127.383 167.792C124.82 168.279 122.074 168.298 120.055 168.298L119.878 167.146ZM121.789 162.792C121.783 163.748 122.536 164.336 123.536 164.336C124.548 164.336 125.301 163.748 125.307 162.792C125.301 161.843 124.554 161.248 123.536 161.248C122.536 161.248 121.783 161.843 121.789 162.792ZM127.953 170.69V159.236H129.357V170.69H127.953ZM140.027 159.932C140.02 162.881 138.078 164.95 134.749 165.88L134.179 164.779C136.742 164.083 138.261 162.742 138.521 161.071H134.8V159.932H140.027ZM136.154 170.525V166.146H143.684V170.525H136.154ZM137.533 169.412H142.292V167.26H137.533V169.412ZM140.077 163.197V162.046H142.279V159.249H143.684V165.691H142.279V163.197H140.077ZM148.873 161.312C148.88 162.59 149.588 163.855 151.088 164.45L150.329 165.526C149.323 165.121 148.614 164.374 148.209 163.463C147.785 164.488 147.038 165.362 145.95 165.83L145.203 164.741C146.779 164.052 147.513 162.603 147.519 161.312V159.919H148.873V161.312ZM147.253 167.842V166.716H155.088V170.677H153.683V167.842H147.253ZM151.291 166.108V159.438H152.607V162.096H153.746V159.249H155.088V166.172H153.746V163.261H152.607V166.108H151.291ZM165.529 159.249V162.615H167.136V163.792H165.529V167.665H164.124V159.249H165.529ZM156.935 161.109V159.957H162.162V163.438H158.353V164.843C160.289 164.836 161.631 164.754 163.188 164.476L163.339 165.627C161.637 165.925 160.144 165.982 157.885 165.982H156.948V162.375H160.783V161.109H156.935ZM158.252 170.449V166.994H159.682V169.31H165.997V170.449H158.252ZM172.908 159.413C175.515 159.419 177.027 160.109 177.033 161.375C177.027 162.653 175.515 163.343 172.908 163.349C170.307 163.343 168.782 162.653 168.782 161.375C168.782 160.109 170.307 159.419 172.908 159.413ZM167.706 165.083V163.957H178.135V165.083H167.706ZM168.933 166.893V165.855H176.831V168.652H170.326V169.5H177.147V170.576H168.946V167.652H175.451V166.893H168.933ZM170.262 161.375C170.256 162.008 171.167 162.299 172.908 162.299C174.673 162.299 175.578 162.008 175.578 161.375C175.578 160.786 174.673 160.451 172.908 160.451C171.167 160.451 170.256 160.786 170.262 161.375ZM185.475 162.716C185.475 164.463 186.19 166.26 187.817 167.108L187.019 168.146C185.956 167.589 185.235 166.589 184.823 165.393C184.418 166.684 183.697 167.792 182.628 168.399L181.818 167.361C183.419 166.431 184.14 164.526 184.146 162.716V162.4H182.147V161.248H184.146V159.641H185.475V161.248H187.45V162.4H185.475V162.716ZM188.057 170.12V159.438H189.386V163.716H190.563V159.236H191.905V170.677H190.563V164.881H189.386V170.12H188.057ZM202.84 159.249V170.665H201.409V168.045H198.979V166.982H201.409V159.249H202.84ZM193.132 165.121C195.284 165.115 198.144 165.108 200.625 164.767L200.713 165.805C199.663 165.982 198.581 166.096 197.524 166.165V170.323H196.106V166.235C195.107 166.273 194.157 166.273 193.309 166.273L193.132 165.121ZM193.955 162.058C193.955 160.698 195.17 159.742 196.891 159.742C198.574 159.742 199.802 160.698 199.802 162.058C199.802 163.45 198.574 164.355 196.891 164.362C195.17 164.355 193.955 163.45 193.955 162.058ZM195.284 162.058C195.277 162.824 195.929 163.286 196.891 163.286C197.802 163.286 198.461 162.824 198.461 162.058C198.461 161.312 197.809 160.818 196.891 160.818C195.929 160.818 195.277 161.312 195.284 162.058ZM214.812 165.615V166.754H210.269V170.665H208.877V166.754H204.384V165.615H214.812ZM204.928 163.742C207.174 163.457 208.68 162.248 208.782 160.995H205.345V159.881H213.85V160.995H210.414C210.509 162.248 212.003 163.457 214.268 163.742L213.762 164.843C211.813 164.564 210.294 163.672 209.598 162.438C208.896 163.672 207.389 164.564 205.459 164.843L204.928 163.742ZM219.153 162.235C219.16 164.083 219.793 166.007 221.343 166.982L220.571 168.057C219.539 167.437 218.869 166.374 218.489 165.127C218.078 166.501 217.344 167.665 216.268 168.323L215.395 167.273C217.059 166.266 217.793 164.248 217.799 162.299V160.248H219.153V162.235ZM220.115 164.336V163.172H221.748V159.438H223.077V170.12H221.748V164.336H220.115ZM224.102 170.677V159.236H225.456V170.677H224.102ZM237.239 168.133V169.285H226.785V168.133H229.203V165.241C228.291 164.716 227.741 163.893 227.747 162.881C227.741 161.058 229.525 159.856 231.987 159.856C234.461 159.856 236.258 161.058 236.252 162.881C236.258 163.881 235.721 164.684 234.835 165.21V168.133H237.239ZM229.127 162.881C229.12 164.052 230.278 164.798 231.987 164.792C233.689 164.798 234.873 164.052 234.873 162.881C234.873 161.691 233.689 160.964 231.987 160.97C230.278 160.964 229.12 161.691 229.127 162.881ZM230.595 168.133H233.404V165.748C232.968 165.843 232.493 165.893 231.987 165.893C231.493 165.893 231.025 165.843 230.595 165.754V168.133ZM239.378 169.652C238.834 169.652 238.385 169.209 238.391 168.665C238.385 168.133 238.834 167.697 239.378 167.69C239.903 167.697 240.353 168.133 240.353 168.665C240.353 169.209 239.903 169.652 239.378 169.652Z" fill="#131214"/>
<path d="M68.215 197.964V207.057H67.2532V197.964H68.215ZM61.0162 201.822C61.0162 199.883 61.9932 198.648 63.3652 198.643C64.7118 198.648 65.704 199.883 65.704 201.822C65.704 203.781 64.7118 205.016 63.3652 205.011C61.9932 205.016 61.0162 203.781 61.0162 201.822ZM61.9477 201.822C61.9426 203.265 62.5197 204.151 63.3652 204.151C64.1954 204.151 64.7725 203.265 64.7725 201.822C64.7725 200.399 64.1954 199.508 63.3652 199.503C62.5197 199.508 61.9426 200.399 61.9477 201.822ZM77.9553 202.612V203.381H69.6528V202.612H77.9553ZM70.6957 198.926V198.167H76.9124V200.405H71.6677V201.184H77.0947V201.923H70.7159V199.696H75.9505V198.926H70.6957ZM70.7564 206.925V204.12H76.9225V206.925H70.7564ZM71.7082 206.145H75.9708V204.89H71.7082V206.145ZM85.9439 198.542V202.268H81.6307V198.542H85.9439ZM82.228 206.267C83.8784 206.105 85.1694 205.28 85.2352 204.465H82.5925V203.736H85.2554V202.885H86.2072V203.736H88.8802V204.465H86.2274C86.2932 205.254 87.5538 206.085 89.2042 206.267L88.8802 207.006C87.4576 206.834 86.2831 206.226 85.7364 205.427C85.1795 206.237 83.9898 206.834 82.5622 207.006L82.228 206.267ZM82.5723 201.518H84.9922V199.311H82.5723V201.518ZM87.7158 203.148V197.964H88.6675V203.148H87.7158ZM100.19 197.964V207.036H99.2178V197.964H100.19ZM92.7378 204.606C95.1475 203.457 96.3271 201.822 96.5144 199.706H93.1732V198.936H97.4864C97.4864 201.594 96.3575 203.893 93.244 205.386L92.7378 204.606ZM104.118 198.38C105.313 198.369 106.239 199.063 106.437 200.081H108.209V197.964H109.171V202.835H108.209V200.87H106.442C106.255 201.913 105.323 202.612 104.118 202.612C102.731 202.612 101.734 201.736 101.739 200.486C101.734 199.25 102.731 198.369 104.118 198.38ZM102.66 200.486C102.655 201.26 103.263 201.802 104.118 201.802C104.959 201.802 105.556 201.26 105.556 200.486C105.556 199.706 104.959 199.174 104.118 199.179C103.263 199.174 102.655 199.706 102.66 200.486ZM103.258 206.925V203.27H104.209V204.323H108.209V203.27H109.171V206.925H103.258ZM104.209 206.135H108.209V205.082H104.209V206.135ZM118.131 197.964V203.321H117.169V201.974H115.195V202.713H110.983V198.643H115.195V199.392H117.169V197.964H118.131ZM111.935 201.944H114.253V199.412H111.935V201.944ZM112.026 205.305C112.021 204.206 113.185 203.569 115.094 203.574C116.992 203.569 118.157 204.206 118.162 205.305C118.157 206.399 116.992 207.021 115.094 207.016C113.185 207.021 112.021 206.399 112.026 205.305ZM112.978 205.305C112.973 205.913 113.762 206.272 115.094 206.277C116.415 206.272 117.205 205.913 117.21 205.305C117.205 204.667 116.415 204.318 115.094 204.313C113.762 204.318 112.973 204.667 112.978 205.305ZM115.195 201.194H117.169V200.162H115.195V201.194Z" fill="#131214"/>
<rect x="60.6922" y="213.98" width="221.616" height="30.456" rx="4.86" stroke="#E6E9EB" stroke-width="0.648"/>
<path d="M75.8495 225.43C75.8495 227.703 74.1788 229.323 71.5261 230.026L71.2021 229.399C73.4245 228.811 74.8319 227.617 75.004 226.078H71.678V225.43H75.8495ZM72.6803 233.722V230.371H78.5326V233.722H72.6803ZM73.46 233.074H77.753V231.009H73.46V233.074ZM77.7428 229.935V224.853H78.5326V229.935H77.7428ZM83.1597 226.26C83.1496 227.546 84.0659 228.675 85.3872 229.125L84.9417 229.743C83.9495 229.373 83.1698 228.639 82.78 227.693C82.3953 228.771 81.5751 229.606 80.4867 230.016L80.0513 229.368C81.4385 228.882 82.3598 227.688 82.37 226.29V225.359H83.1597V226.26ZM81.5195 232.143C81.5144 231.059 82.6636 230.436 84.5367 230.442C86.4048 230.436 87.554 231.059 87.554 232.143C87.554 233.216 86.4048 233.823 84.5367 233.823C82.6636 233.823 81.5144 233.216 81.5195 232.143ZM82.3092 232.143C82.3041 232.796 83.1546 233.191 84.5367 233.185C85.9137 233.191 86.7642 232.796 86.7642 232.143C86.7642 231.469 85.9137 231.069 84.5367 231.069C83.1546 231.069 82.3041 231.469 82.3092 232.143ZM84.719 227.434V226.776H86.7237V224.842H87.5236V230.178H86.7237V227.434H84.719ZM96.7981 226.179V226.837H89.4271V226.179H92.7278V224.994H93.5075V226.179H96.7981ZM89.0221 232.791V232.132H92.7278V230.867C91.123 230.781 90.1561 230.158 90.1662 229.146C90.1561 228.077 91.285 227.445 93.1227 227.455C94.9351 227.445 96.0843 228.077 96.0792 229.146C96.0843 230.158 95.0971 230.781 93.5075 230.867V232.132H97.2638V232.791H89.0221ZM90.9661 229.146C90.956 229.829 91.7811 230.224 93.1227 230.229C94.4491 230.224 95.2743 229.829 95.2692 229.146C95.2743 228.477 94.4491 228.082 93.1227 228.082C91.7811 228.082 90.956 228.477 90.9661 229.146Z" fill="#131214"/>
<path d="M68.4378 257.223V264.037H67.5265V260.928H66.4938V263.854H65.5927V257.385H66.4938V260.128H67.5265V257.223H68.4378ZM60.6517 259.055V258.286H62.4843V257.293H63.436V258.286H65.2383V259.055H60.6517ZM61.006 261.131C61.006 260.134 61.816 259.465 62.95 259.47C64.0992 259.465 64.9143 260.134 64.9143 261.131C64.9143 262.133 64.0992 262.807 62.95 262.801C61.816 262.807 61.006 262.133 61.006 261.131ZM61.8667 261.131C61.8667 261.693 62.3071 262.072 62.95 262.062C63.6031 262.072 64.0486 261.693 64.0435 261.131C64.0486 260.559 63.6031 260.194 62.95 260.199C62.3071 260.194 61.8667 260.559 61.8667 261.131ZM62.4235 266.092V263.429H63.3753V265.312H68.701V266.092H62.4235ZM77.0137 261.516V262.305H70.6957V258.022H76.9327V258.812H71.6474V261.516H77.0137ZM69.6629 265.09V264.29H77.9654V265.09H69.6629ZM86.116 257.597V258.387H84.7998V260.29H86.0755V261.05H83.2304V262.072H86.8957V262.842H78.6235V262.072H82.2787V261.05H79.4234V260.29H80.7093V258.387H79.3829V257.597H86.116ZM79.6664 266.092V263.571H80.6384V265.312H85.9642V266.092H79.6664ZM81.661 260.29H83.8379V258.387H81.661V260.29ZM97.6788 257.223V263.925H96.7169V260.503H94.7324V262.417H90.5508V257.82H91.5127V259.359H93.7807V257.82H94.7324V259.723H96.7169V257.223H97.6788ZM91.5127 261.637H93.7807V260.098H91.5127V261.637ZM91.7557 266.092V263.267H92.7277V265.312H97.8813V266.092H91.7557ZM106.933 258.488V259.268H99.4709V258.488H102.731V257.344H103.683V258.488H106.933ZM99.076 265.262V264.482H102.731V263.282C101.142 263.181 100.175 262.553 100.18 261.546C100.175 260.452 101.334 259.81 103.207 259.815C105.055 259.81 106.229 260.452 106.224 261.546C106.229 262.553 105.252 263.181 103.683 263.282V264.482H107.379V265.262H99.076ZM101.162 261.546C101.152 262.179 101.911 262.523 103.207 262.528C104.483 262.523 105.247 262.179 105.242 261.546C105.247 260.918 104.483 260.574 103.207 260.574C101.911 260.574 101.152 260.918 101.162 261.546Z" fill="#131214"/>
<rect x="60.6922" y="273.228" width="221.616" height="30.456" rx="4.86" stroke="#E6E9EB" stroke-width="0.648"/>
<path d="M78.7452 284.101V290.854H77.9858V287.685H76.8113V290.672H76.052V284.273H76.8113V287.027H77.9858V284.101H78.7452ZM71.0502 285.862V285.214H72.974V284.171H73.7637V285.214H75.6672V285.862H71.0502ZM71.4451 287.968C71.44 286.981 72.2348 286.328 73.3688 286.338C74.5028 286.328 75.2976 286.981 75.3027 287.968C75.2976 288.956 74.5028 289.609 73.3688 289.609C72.2348 289.609 71.44 288.956 71.4451 287.968ZM72.1538 287.968C72.1538 288.571 72.65 288.991 73.3688 288.981C74.0877 288.991 74.5838 288.571 74.5838 287.968C74.5838 287.351 74.0877 286.946 73.3688 286.946C72.65 286.946 72.1538 287.351 72.1538 287.968ZM72.8423 292.899V290.257H73.6321V292.231H79.0186V292.899H72.8423ZM87.3312 288.424V289.082H81.1145V284.931H87.2401V285.589H81.9042V288.424H87.3312ZM80.0615 291.866V291.198H88.3032V291.866H80.0615ZM96.4437 284.506V285.164H95.0566V287.229H96.4133V287.867H93.5176V288.971H97.2233V289.619H89.0221V288.971H92.7278V287.867H89.822V287.229H91.1787V285.164H89.7916V284.506H96.4437ZM90.0852 292.899V290.408H90.8851V292.231H96.3121V292.899H90.0852ZM91.9685 287.229H94.2668V285.164H91.9685V287.229ZM108.047 284.101V290.763H107.247V287.3H105.121V289.224H101.04V284.698H101.83V286.298H104.341V284.698H105.121V286.632H107.247V284.101H108.047ZM101.83 288.566H104.341V286.925H101.83V288.566ZM102.225 292.899V290.105H103.025V292.231H108.249V292.899H102.225ZM117.321 285.427V286.085H109.95V285.427H113.251V284.242H114.031V285.427H117.321ZM109.545 292.039V291.38H113.251V290.115C111.646 290.029 110.679 289.406 110.69 288.394C110.679 287.325 111.808 286.693 113.646 286.703C115.458 286.693 116.608 287.325 116.603 288.394C116.608 289.406 115.62 290.029 114.031 290.115V291.38H117.787V292.039H109.545ZM111.489 288.394C111.479 289.077 112.305 289.472 113.646 289.477C114.972 289.472 115.798 289.077 115.793 288.394C115.798 287.725 114.972 287.33 113.646 287.33C112.305 287.33 111.479 287.725 111.489 288.394ZM126.738 288.272V288.9H118.496V288.272H126.738ZM119.488 290.216V289.619H125.705V291.532H120.298V292.393H125.999V292.97H119.498V290.986H124.915V290.216H119.488ZM119.539 284.941V284.364H125.675V286.227H120.359V287.017H125.837V287.594H119.569V285.68H124.875V284.941H119.539ZM137.501 284.09V288.92H136.711V284.09H137.501ZM130.281 286.601C130.276 285.371 131.274 284.526 132.641 284.536C134.007 284.526 134.995 285.371 135 286.601C134.995 287.827 134.007 288.672 132.641 288.667C131.274 288.672 130.276 287.827 130.281 286.601ZM131.061 286.601C131.051 287.422 131.714 288.004 132.641 288.009C133.557 288.004 134.22 287.422 134.22 286.601C134.22 285.776 133.557 285.199 132.641 285.204C131.714 285.199 131.051 285.776 131.061 286.601ZM131.669 292.97V289.376H132.458V290.469H136.711V289.376H137.501V292.97H131.669ZM132.458 292.322H136.711V291.107H132.458V292.322ZM143.302 284.647V287.168H140.204V288.566C141.895 288.571 142.771 288.535 143.829 288.343L143.91 289.001C142.791 289.183 141.875 289.214 140.052 289.214H139.414V286.561H142.512V285.285H139.394V284.647H143.302ZM140.427 290.763V290.115H146.492V293.112H145.692V290.763H140.427ZM143.9 287.958V287.3H145.692V286.085H143.9V285.437H145.692V284.101H146.492V289.629H145.692V287.958H143.9ZM152.486 285.65V286.298H147.97V285.65H149.843V284.364H150.633V285.65H152.486ZM148.294 288.95C148.294 287.756 149.109 286.91 150.228 286.905C151.362 286.91 152.172 287.756 152.182 288.95C152.172 290.16 151.362 291.011 150.228 291.016C149.109 291.011 148.294 290.16 148.294 288.95ZM149.003 288.95C149.003 289.75 149.514 290.322 150.228 290.317C150.947 290.322 151.473 289.75 151.473 288.95C151.473 288.161 150.947 287.584 150.228 287.573C149.514 287.584 149.003 288.161 149.003 288.95ZM152.951 292.646V284.313H153.701V287.887H154.895V284.09H155.655V293.092H154.895V288.545H153.701V292.646H152.951ZM164.099 285.366C164.094 286.571 165.699 287.594 167.268 287.827L166.974 288.454C165.572 288.216 164.2 287.467 163.653 286.384C163.107 287.467 161.735 288.216 160.353 288.454L160.039 287.827C161.603 287.594 163.203 286.571 163.208 285.366V285.305H160.322V284.657H166.974V285.305H164.099V285.366ZM159.553 289.882V289.224H167.754V289.882H164.028V293.092H163.248V289.882H159.553ZM171.186 286.652C171.186 288.085 171.885 289.629 173.08 290.338L172.624 290.955C171.753 290.429 171.131 289.467 170.817 288.368C170.488 289.568 169.82 290.601 168.918 291.148L168.412 290.55C169.658 289.821 170.417 288.227 170.417 286.682V284.941H171.186V286.652ZM172.088 287.999V287.32H173.616V284.283H174.366V292.636H173.616V287.999H172.088ZM175.459 293.092V284.09H176.229V293.092H175.459ZM185.716 291.269V291.937H177.474V291.269H179.519V288.844C178.75 288.444 178.284 287.796 178.284 286.976C178.284 285.584 179.651 284.668 181.575 284.657C183.498 284.668 184.865 285.584 184.865 286.976C184.865 287.781 184.415 288.419 183.671 288.819V291.269H185.716ZM179.054 286.976C179.049 287.984 180.096 288.657 181.575 288.657C183.038 288.657 184.096 287.984 184.096 286.976C184.096 285.969 183.038 285.305 181.575 285.316C180.096 285.305 179.049 285.969 179.054 286.976ZM180.299 291.269H182.871V289.128C182.481 289.229 182.046 289.285 181.575 289.285C181.114 289.285 180.684 289.234 180.299 289.133V291.269ZM187.386 292.332C187.032 292.327 186.728 292.034 186.738 291.674C186.728 291.32 187.032 291.026 187.386 291.026C187.746 291.026 188.04 291.32 188.034 291.674C188.04 292.034 187.746 292.327 187.386 292.332Z" fill="#898D8F"/>
<path d="M68.215 316.46V325.553H67.2532V316.46H68.215ZM61.0162 320.318C61.0162 318.379 61.9932 317.144 63.3652 317.139C64.7118 317.144 65.704 318.379 65.704 320.318C65.704 322.277 64.7118 323.513 63.3652 323.507C61.9932 323.513 61.0162 322.277 61.0162 320.318ZM61.9477 320.318C61.9426 321.761 62.5197 322.647 63.3652 322.647C64.1954 322.647 64.7725 321.761 64.7725 320.318C64.7725 318.896 64.1954 318.005 63.3652 317.999C62.5197 318.005 61.9426 318.896 61.9477 320.318ZM73.4902 317.483V319.842H74.7052V316.633H75.6265V325.087H74.7052V320.632H73.4902V323.143H69.9667V317.483H73.4902ZM70.8779 322.373H72.589V318.242H70.8779V322.373ZM76.5479 325.533V316.46H77.4693V325.533H76.5479ZM81.1953 316.764C82.5622 316.774 83.5696 317.61 83.5747 318.799C83.5696 319.994 82.5622 320.824 81.1953 320.824C79.8132 320.824 78.8109 319.994 78.8058 318.799C78.8109 317.61 79.8132 316.774 81.1953 316.764ZM79.7474 318.799C79.7424 319.549 80.36 320.045 81.1953 320.045C82.0255 320.045 82.6432 319.549 82.6432 318.799C82.6432 318.06 82.0255 317.564 81.1953 317.574C80.36 317.564 79.7424 318.06 79.7474 318.799ZM80.1828 322.262V321.493H86.1464V323.781H81.1447V324.652H86.4502V325.421H80.2132V323.062H85.1947V322.262H80.1828ZM85.1845 321.077V316.46H86.1464V321.077H85.1845Z" fill="#131214"/>
<rect x="60.6922" y="332.476" width="221.616" height="30.456" rx="4.86" stroke="#E6E9EB" stroke-width="0.648"/>
<rect width="243" height="34.992" transform="translate(50 46)" fill="white"/>
<path d="M86.0002 60.4924C87.5224 60.5032 89.0393 61.4122 89.0446 64.2577C89.0446 66.9417 87.829 68.4962 85.9141 68.4962C84.4134 68.4962 83.3753 67.5603 83.2032 66.2694H84.5909C84.7308 66.888 85.2095 67.2806 85.9141 67.2806C87.0437 67.2806 87.6784 66.2855 87.6892 64.6127H87.6031C87.2104 65.2904 86.4574 65.6938 85.6021 65.6885C84.209 65.6938 83.1332 64.6342 83.1278 63.1604C83.1278 61.6381 84.2736 60.4817 86.0002 60.4924ZM84.4941 63.1281C84.4941 63.9672 85.118 64.6234 85.9894 64.6234C86.8554 64.6234 87.5224 63.9242 87.517 63.1173C87.517 62.3266 86.8823 61.6274 86.0109 61.622C85.1342 61.6274 84.4833 62.2944 84.4941 63.1281ZM91.0671 67.4205C90.6045 67.4205 90.2226 67.0439 90.228 66.5814C90.2226 66.1295 90.6045 65.7584 91.0671 65.753C91.5136 65.7584 91.8955 66.1295 91.8955 66.5814C91.8955 67.0439 91.5136 67.4205 91.0671 67.4205ZM90.228 62.4073C90.2226 61.9555 90.6045 61.5844 91.0671 61.579C91.5136 61.5844 91.8955 61.9555 91.8955 62.4073C91.8955 62.8699 91.5136 63.2464 91.0671 63.2464C90.6045 63.2464 90.2226 62.8699 90.228 62.4073ZM93.0681 66.9364V65.8176L96.4353 60.6H98.178V65.7853H99.2V66.9364H98.178V68.3887H96.8441V66.9364H93.0681ZM94.4989 65.7853H96.8656V62.1922H96.7795L94.4989 65.7315V65.7853ZM103.374 60.6V68.3887H101.965V61.9663H101.922L100.104 63.1281V61.8479L102.029 60.6H103.374Z" fill="#131214"/>
<rect opacity="0.35" x="256.994" y="60.7322" width="15.552" height="7.776" rx="2.4624" stroke="#131214" stroke-width="0.648"/>
<path opacity="0.4" d="M273.518 63.5059V66.1468C274.04 65.9231 274.379 65.4028 274.379 64.8263C274.379 64.2498 274.04 63.7295 273.518 63.5059Z" fill="#131214"/>
<rect x="257.966" y="61.7051" width="13.608" height="5.832" rx="1.62" fill="#131214"/>
<path fill-rule="evenodd" clip-rule="evenodd" d="M246.477 62.4204C248.089 62.4205 249.639 63.018 250.807 64.0894C250.895 64.1722 251.035 64.1711 251.122 64.0871L251.963 63.2684C252.007 63.2258 252.031 63.168 252.031 63.108C252.03 63.0479 252.005 62.9905 251.961 62.9484C248.895 60.1136 244.059 60.1136 240.993 62.9484C240.948 62.9905 240.923 63.0479 240.923 63.1079C240.922 63.168 240.947 63.2257 240.991 63.2684L241.832 64.0871C241.918 64.1713 242.059 64.1723 242.147 64.0894C243.315 63.0179 244.865 62.4204 246.477 62.4204ZM246.475 65.1552C247.354 65.1551 248.203 65.4867 248.855 66.0855C248.943 66.1705 249.082 66.1687 249.168 66.0814L250.002 65.2265C250.046 65.1816 250.07 65.1208 250.069 65.0576C250.069 64.9944 250.043 64.9341 249.998 64.8901C248.013 63.0169 244.938 63.0169 242.953 64.8901C242.908 64.9341 242.883 64.9944 242.882 65.0576C242.881 65.1209 242.906 65.1817 242.95 65.2265L243.784 66.0814C243.87 66.1687 244.009 66.1705 244.097 66.0855C244.748 65.4871 245.596 65.1555 246.475 65.1552ZM248.111 66.9654C248.112 67.0336 248.088 67.0995 248.044 67.1473L246.634 68.738C246.593 68.7847 246.536 68.811 246.477 68.811C246.418 68.811 246.362 68.7847 246.321 68.738L244.91 67.1473C244.866 67.0994 244.843 67.0336 244.844 66.9653C244.845 66.8971 244.872 66.8324 244.917 66.7866C245.818 65.9352 247.137 65.9352 248.038 66.7866C248.083 66.8324 248.109 66.8971 248.111 66.9654Z" fill="#131214"/>
<path fill-rule="evenodd" clip-rule="evenodd" d="M236.064 61.4967C236.064 61.0864 235.754 60.7539 235.372 60.7539H234.681C234.3 60.7539 233.99 61.0864 233.99 61.4967V67.9339C233.99 68.3441 234.3 68.6766 234.681 68.6766H235.372C235.754 68.6766 236.064 68.3441 236.064 67.9339V61.4967ZM231.246 62.3384H231.938C232.319 62.3384 232.629 62.679 232.629 63.099V67.916C232.629 68.3361 232.319 68.6766 231.938 68.6766H231.246C230.865 68.6766 230.555 68.3361 230.555 67.916V63.099C230.555 62.679 230.865 62.3384 231.246 62.3384ZM228.439 64.055H227.748C227.366 64.055 227.057 64.3999 227.057 64.8253V67.9064C227.057 68.3318 227.366 68.6766 227.748 68.6766H228.439C228.821 68.6766 229.131 68.3318 229.131 67.9064V64.8253C229.131 64.3999 228.821 64.055 228.439 64.055ZM225.004 65.6396H224.313C223.932 65.6396 223.622 65.9795 223.622 66.3988V67.9174C223.622 68.3367 223.932 68.6766 224.313 68.6766H225.004C225.386 68.6766 225.696 68.3367 225.696 67.9174V66.3988C225.696 65.9795 225.386 65.6396 225.004 65.6396Z" fill="#131214"/>
<rect width="243" height="41.472" transform="translate(50 80.9922)" fill="white"/>
<path d="M166.762 95.9809C166.756 98.9298 164.813 100.999 161.485 101.929L160.915 100.828C163.478 100.132 164.997 98.7905 165.256 97.1199H161.535V95.9809H166.762ZM162.889 106.574V102.195H170.42V106.574H162.889ZM164.269 105.46H169.028V103.309H164.269V105.46ZM166.813 99.2462V98.0945H169.015V95.2974H170.42V101.739H169.015V99.2462H166.813ZM175.609 97.3604C175.615 98.6387 176.324 99.9043 177.824 100.499L177.064 101.575C176.058 101.17 175.349 100.423 174.944 99.512C174.52 100.537 173.774 101.41 172.685 101.879L171.939 100.79C173.514 100.1 174.248 98.6513 174.255 97.3604V95.9682H175.609V97.3604ZM173.989 103.891V102.765H181.823V106.726H180.418V103.891H173.989ZM178.026 102.157V95.4873H179.342V98.1451H180.482V95.2974H181.823V102.22H180.482V99.3095H179.342V102.157H178.026Z" fill="#131214"/>
<path d="M68.7924 106.913L63.8802 102.34C63.5178 102.002 63.5178 101.455 63.8802 101.118L68.7924 96.5449" stroke="#131214" stroke-width="0.972" stroke-linecap="round"/>
</g>
<rect x="48.5" y="44.5" width="246" height="529.176" rx="27.5" stroke="black" stroke-width="3"/>
</g>
<defs>
<clipPath id="clip0_5345_14726">
<rect width="343" height="343" rx="24" fill="white"/>
</clipPath>
<clipPath id="clip1_5345_14726">
<rect x="50" y="46" width="243" height="526.176" rx="26" fill="white"/>
</clipPath>
</defs>
</svg>
