<svg width="343" height="343" viewBox="0 0 343 343" fill="none" xmlns="http://www.w3.org/2000/svg">
<g clip-path="url(#clip0_5345_15149)">
<rect width="343" height="343" rx="24" fill="#F7F7FB"/>
<g clip-path="url(#clip1_5345_15149)">
<rect x="50" y="-218" width="243" height="526.176" rx="26" fill="white"/>
<path d="M62.8614 13.581V22.7441H61.2161V13.581H62.8614ZM66.1141 18.7195V22.7441H64.4941V15.8718H66.0382V17.0362H66.1268C66.4368 16.2705 67.1393 15.7832 68.1644 15.7832C69.5882 15.7832 70.5248 16.7198 70.5185 18.3651V22.7441H68.9111V18.6182C68.9111 17.6943 68.4112 17.1438 67.5696 17.1501C66.7153 17.1438 66.1141 17.7196 66.1141 18.7195ZM75.543 15.8718V17.1121H74.1255V22.7441H72.5055V17.1121H71.4804V15.8718H72.5055V15.2137C72.5055 13.8784 73.3345 13.1507 74.6571 13.1507C75.0304 13.1507 75.3785 13.1887 75.6822 13.252V14.5302C75.4164 14.4923 75.2203 14.4859 75.1 14.4796C74.4482 14.4859 74.1192 14.7391 74.1255 15.3655V15.8718H75.543ZM79.4285 22.8834C77.4225 22.8834 76.1379 21.4595 76.1379 19.3396C76.1379 17.2007 77.4225 15.7832 79.4285 15.7832C81.4408 15.7832 82.7254 17.2007 82.7191 19.3396C82.7254 21.4595 81.4408 22.8834 79.4285 22.8834ZM77.7705 19.327C77.7705 20.5863 78.3211 21.5924 79.4411 21.5924C80.5422 21.5924 81.0928 20.5863 81.0864 19.327C81.0928 18.0677 80.5422 17.0552 79.4411 17.0615C78.3211 17.0552 77.7705 18.0677 77.7705 19.327Z" fill="black"/>
<path d="M63.338 45.8331C63.338 45.8331 66.8484 48.4251 68.1444 48.4251C69.4404 48.4251 72.9509 45.8331 72.9509 45.8331M62.9604 50.3691C62.9604 51.4427 63.8308 52.3131 64.9044 52.3131H71.3845C72.4581 52.3131 73.3285 51.4428 73.3285 50.3691V46.4811C73.3285 45.4075 72.4581 44.5371 71.3845 44.5371H64.9045C63.8308 44.5371 62.9605 45.4075 62.9605 46.4811L62.9604 50.3691Z" stroke="#131214" stroke-width="0.972" stroke-linecap="round"/>
<path d="M84.8604 48.3555C84.7389 47.8999 84.3896 47.6012 83.7466 47.5962C83.0683 47.6012 82.5873 47.9657 82.5823 48.4264C82.5873 48.7909 82.8809 49.039 83.5239 49.1959L84.344 49.3984C85.3261 49.6313 85.8071 50.1223 85.8121 50.8868C85.8071 51.8385 85.0325 52.5422 83.6555 52.5372C82.4203 52.5422 81.6862 51.9904 81.5394 50.988H82.4506C82.5519 51.5247 82.9417 51.7828 83.6353 51.7778C84.4199 51.7828 84.911 51.4538 84.911 50.9374C84.911 50.5476 84.6326 50.2945 84.0099 50.1477L83.1796 49.9553C82.2228 49.7325 81.7115 49.2111 81.7115 48.477C81.7115 47.5354 82.5367 46.857 83.7466 46.857C84.8857 46.857 85.5995 47.4645 85.7109 48.3555H84.8604ZM90.419 50.1679V46.9279H91.2796V52.4258H90.419V51.4943H90.3583C90.1001 52.0512 89.5533 52.4967 88.7281 52.4967C87.6853 52.4967 86.9411 51.8183 86.9461 50.421V46.9279H87.8169V50.3603C87.8169 51.15 88.3079 51.6613 89.0116 51.6563C89.6343 51.6613 90.4139 51.1956 90.419 50.1679ZM92.5149 52.4258V51.7677L95.6131 47.7885V47.7278H92.6161V46.9279H96.737V47.6164L93.7299 51.5652V51.6259H96.8383V52.4258H92.5149ZM97.9925 52.4258V46.9279H98.8633V52.4258H97.9925ZM97.8204 45.4395C97.8153 45.1155 98.0938 44.8573 98.4279 44.8624C98.762 44.8573 99.0404 45.1155 99.0455 45.4395C99.0404 45.7585 98.762 46.0167 98.4279 46.0167C98.0938 46.0167 97.8153 45.7585 97.8204 45.4395ZM100.25 52.4258V45.0953H101.121V49.3579H101.222L103.602 46.9279H104.675L102.356 49.282L104.847 52.4258H103.744L101.703 49.8338L101.121 50.3755V52.4258H100.25ZM105.607 52.4258V46.9279H106.477V52.4258H105.607ZM105.434 45.4395C105.429 45.1155 105.708 44.8573 106.042 44.8624C106.376 44.8573 106.654 45.1155 106.66 45.4395C106.654 45.7585 106.376 46.0167 106.042 46.0167C105.708 46.0167 105.429 45.7585 105.434 45.4395ZM107.864 52.4258V46.9279H108.705V47.7885H108.776C109.003 47.2013 109.535 46.857 110.254 46.857C110.973 46.857 111.464 47.2013 111.722 47.7885H111.783C112.061 47.2215 112.643 46.857 113.433 46.857C114.41 46.857 115.114 47.4544 115.114 48.7504V52.4258H114.243V48.7605C114.238 47.9505 113.732 47.6367 113.129 47.6367C112.365 47.6367 111.93 48.153 111.925 48.8517V52.4258H111.044V48.6694C111.049 48.0518 110.603 47.6367 109.97 47.6367C109.312 47.6367 108.735 48.1935 108.735 48.9934V52.4258H107.864ZM120.136 51.4639C119.118 51.4588 118.384 50.6438 118.384 49.3275C118.384 48.0214 119.134 47.2063 120.146 47.2013C120.875 47.2063 121.174 47.6721 121.3 47.8999H121.351V47.2823H122.12V50.2388C122.136 50.6337 122.298 50.8311 122.627 50.826C123.254 50.8311 123.675 50.097 123.68 49.044C123.69 47.1355 122.308 45.8901 120.369 45.885C118.364 45.8952 117.073 47.4443 117.068 49.3275C117.068 51.388 118.192 52.8004 120.328 52.7802C121.037 52.77 121.503 52.7245 122.12 52.5574V53.2459C121.589 53.3877 120.997 53.4788 120.328 53.4788C117.853 53.4788 116.334 51.8942 116.339 49.3275C116.329 46.933 118.01 45.1864 120.369 45.1864C122.789 45.1864 124.419 46.8317 124.409 49.0137C124.414 50.5881 123.604 51.5044 122.576 51.5044C121.938 51.5044 121.457 51.145 121.417 50.6742H121.351C121.234 50.902 120.926 51.4588 120.136 51.4639ZM119.174 49.3174C119.169 50.1072 119.564 50.7197 120.268 50.7248C120.991 50.7197 121.356 50.1578 121.361 49.3174C121.356 48.4973 120.997 47.9455 120.268 47.9404C119.559 47.9455 119.169 48.5428 119.174 49.3174ZM128.033 46.9279V47.6569H126.879V50.8463C126.874 51.55 127.228 51.6664 127.598 51.6664C127.755 51.6664 127.988 51.6512 128.114 51.6462V52.4562C127.978 52.4764 127.765 52.4967 127.507 52.4967C126.773 52.4967 126.003 52.041 125.998 51.069V47.6569H125.168V46.9279H125.998V45.6117H126.879V46.9279H128.033ZM129.157 52.4258V46.9279H129.998V47.7683H130.058C130.256 47.2114 130.828 46.8418 131.476 46.8368C131.608 46.8418 131.83 46.8469 131.932 46.857V47.7379C131.866 47.7227 131.633 47.6772 131.405 47.6772C130.615 47.6772 130.028 48.2239 130.028 48.963V52.4258H129.157ZM132.509 50.8665C132.509 49.606 133.622 49.3174 134.574 49.2465C134.929 49.2212 135.814 49.1706 136.063 49.1655V48.72C136.063 48.0214 135.647 47.6164 134.817 47.6164C134.124 47.6164 133.703 47.9353 133.582 48.3555H132.671C132.782 47.4696 133.643 46.857 134.858 46.857C135.577 46.857 136.928 47.0697 136.923 48.801V52.4258H136.063V51.6765H136.022C135.84 52.0461 135.339 52.5523 134.382 52.5574C133.339 52.5523 132.509 51.9398 132.509 50.8665ZM133.379 50.907C133.384 51.4892 133.865 51.7828 134.534 51.7778C135.516 51.7828 136.063 51.1247 136.063 50.4312V49.8793C135.804 49.8945 134.939 49.9603 134.675 49.9755C133.886 50.0262 133.384 50.3046 133.379 50.907ZM140.568 52.5372C139.009 52.5422 138.057 51.3525 138.057 49.7022C138.057 48.0315 139.054 46.857 140.548 46.857C141.717 46.857 142.598 47.5506 142.735 48.5884H141.864C141.738 48.0872 141.302 47.6265 140.568 47.6265C139.586 47.6265 138.933 48.4365 138.928 49.6718C138.933 50.9425 139.571 51.7575 140.568 51.7575C141.216 51.7575 141.712 51.4082 141.864 50.8058H142.735C142.598 51.7879 141.788 52.5422 140.568 52.5372ZM143.808 52.4258V45.0953H144.679V49.3579H144.78L147.16 46.9279H148.233L145.914 49.282L148.405 52.4258H147.301L145.261 49.8338L144.679 50.3755V52.4258H143.808ZM151.24 52.5372C149.65 52.5422 148.668 51.4082 148.668 49.7224C148.668 48.0315 149.665 46.857 151.159 46.857C152.313 46.857 153.533 47.5658 153.528 49.6009V49.9654H149.539C149.584 51.1298 150.263 51.7677 151.24 51.7677C151.898 51.7677 152.313 51.4791 152.516 51.1399H153.447C153.189 51.9752 152.374 52.5422 151.24 52.5372ZM149.544 49.2263H152.647C152.642 48.31 152.065 47.6265 151.159 47.6265C150.207 47.6265 149.605 48.3758 149.544 49.2263ZM154.662 52.4258V46.9279H155.503V47.7683H155.563C155.761 47.2114 156.333 46.8418 156.981 46.8368C157.112 46.8418 157.335 46.8469 157.436 46.857V47.7379C157.371 47.7227 157.138 47.6772 156.91 47.6772C156.12 47.6772 155.533 48.2239 155.533 48.963V52.4258H154.662ZM161.041 48.8922V49.692H157.831V48.8922H161.041ZM164.625 52.5372C163.066 52.5422 162.114 51.3525 162.114 49.7022C162.114 48.0315 163.111 46.857 164.605 46.857C165.774 46.857 166.655 47.5506 166.792 48.5884H165.921C165.795 48.0872 165.359 47.6265 164.625 47.6265C163.643 47.6265 162.99 48.4365 162.985 49.6718C162.99 50.9425 163.628 51.7575 164.625 51.7575C165.273 51.7575 165.769 51.4082 165.921 50.8058H166.792C166.655 51.7879 165.845 52.5422 164.625 52.5372ZM170.113 52.5372C168.614 52.5422 167.602 51.4082 167.602 49.7022C167.602 47.986 168.614 46.857 170.113 46.857C171.606 46.857 172.609 47.986 172.604 49.7022C172.609 51.4082 171.606 52.5422 170.113 52.5372ZM168.473 49.7022C168.478 50.8007 168.994 51.7677 170.113 51.7677C171.222 51.7677 171.733 50.8007 171.733 49.7022C171.733 48.6087 171.222 47.6265 170.113 47.6265C168.994 47.6265 168.478 48.6087 168.473 49.7022ZM174.619 45.0953V52.4258H173.748V45.0953H174.619ZM176.876 45.0953V52.4258H176.006V45.0953H176.876ZM178.82 54.4913C178.633 54.4862 178.446 54.4812 178.334 54.471V53.6914C178.426 53.7015 178.623 53.7066 178.76 53.7117C179.114 53.7066 179.413 53.6863 179.701 52.8814L179.863 52.4663L177.828 46.9279H178.78L180.278 51.2918H180.339L181.838 46.9279H182.789L180.461 53.2155C180.137 54.0812 179.6 54.4862 178.82 54.4913ZM184.025 52.4865C183.67 52.4815 183.367 52.1878 183.377 51.8284C183.367 51.474 183.67 51.1804 184.025 51.1804C184.384 51.1804 184.678 51.474 184.673 51.8284C184.678 52.1878 184.384 52.4815 184.025 52.4865ZM188.287 52.5372C186.728 52.5422 185.776 51.3525 185.776 49.7022C185.776 48.0315 186.774 46.857 188.267 46.857C189.436 46.857 190.317 47.5506 190.454 48.5884H189.583C189.457 48.0872 189.021 47.6265 188.287 47.6265C187.305 47.6265 186.652 48.4365 186.647 49.6718C186.652 50.9425 187.29 51.7575 188.287 51.7575C188.935 51.7575 189.431 51.4082 189.583 50.8058H190.454C190.317 51.7879 189.507 52.5422 188.287 52.5372ZM193.775 52.5372C192.277 52.5422 191.264 51.4082 191.264 49.7022C191.264 47.986 192.277 46.857 193.775 46.857C195.268 46.857 196.271 47.986 196.266 49.7022C196.271 51.4082 195.268 52.5422 193.775 52.5372ZM192.135 49.7022C192.14 50.8007 192.656 51.7677 193.775 51.7677C194.884 51.7677 195.395 50.8007 195.395 49.7022C195.395 48.6087 194.884 47.6265 193.775 47.6265C192.656 47.6265 192.14 48.6087 192.135 49.7022ZM197.41 52.4258V46.9279H198.25V47.7885H198.321C198.549 47.2013 199.081 46.857 199.799 46.857C200.518 46.857 201.009 47.2013 201.268 47.7885H201.328C201.607 47.2215 202.189 46.857 202.979 46.857C203.956 46.857 204.659 47.4544 204.659 48.7504V52.4258H203.789V48.7605C203.784 47.9505 203.277 47.6367 202.675 47.6367C201.91 47.6367 201.475 48.153 201.47 48.8517V52.4258H200.589V48.6694C200.594 48.0518 200.149 47.6367 199.516 47.6367C198.858 47.6367 198.281 48.1935 198.281 48.9934V52.4258H197.41Z" fill="#131214"/>
<path d="M65.7712 75.2131H65.7768M68 72.4023H64.3655C63.5895 72.4023 62.9604 73.0314 62.9604 73.8074V77.4415C62.9604 77.8143 63.1087 78.1719 63.3725 78.4355L67.0945 82.1538C67.9177 82.9761 69.2515 82.9758 70.0743 82.1531L72.7132 79.5141C73.5363 78.6911 73.5363 77.3567 72.7132 76.5336L68.9935 72.8139C68.73 72.5504 68.3726 72.4023 68 72.4023Z" stroke="#131214" stroke-width="0.972" stroke-linecap="round" stroke-linejoin="round"/>
<path d="M84.5263 81.5859L84.8604 79.5609H83.0176L82.6835 81.5859H81.9444L82.2785 79.5609H81.1951L81.3166 78.8319H82.3949L82.6987 77.0094H81.6305L81.7419 76.2804H82.8151L83.1493 74.2554H83.8884L83.5543 76.2804H85.397L85.7311 74.2554H86.4703L86.1361 76.2804H87.2296L87.1081 77.0094H86.0197L85.7159 78.8319H86.7943L86.6728 79.5609H85.5995L85.2654 81.5859H84.5263ZM83.1341 78.8319H84.9768L85.2806 77.0094H83.4378L83.1341 78.8319ZM90.6013 74.2554V81.5859H89.6799V75.2072H89.6394L87.8574 76.3918V75.4704L89.6799 74.2554H90.6013ZM92.5554 81.5859L92.5453 80.9177L95.0461 78.2852C95.9118 77.3638 96.3269 76.8677 96.332 76.1893C96.3269 75.435 95.6992 74.949 94.874 74.9439C93.9982 74.949 93.4514 75.5008 93.4464 76.3209H92.5858C92.5756 75.0249 93.578 74.1542 94.9044 74.1542C96.2358 74.1542 97.1774 75.0502 97.1825 76.1893C97.1774 77.0094 96.7978 77.6473 95.5018 78.9838L93.821 80.7152V80.7759H97.3141V81.5859H92.5554ZM101.172 81.6872C99.7138 81.6872 98.6658 80.9076 98.6203 79.7432H99.5416C99.5923 80.4418 100.286 80.8772 101.162 80.8772C102.129 80.8772 102.827 80.3557 102.832 79.5913C102.827 78.7914 102.189 78.2295 101.05 78.2244H100.453V77.4246H101.05C101.941 77.4246 102.564 76.9234 102.559 76.1691C102.564 75.435 102.027 74.949 101.192 74.9439C100.407 74.949 99.6935 75.3793 99.653 76.0982H98.7721C98.8177 74.9338 99.9011 74.1542 101.202 74.1542C102.599 74.1542 103.45 75.0705 103.44 76.1184C103.45 76.9537 102.964 77.5612 102.194 77.7789V77.8296C103.151 77.9764 103.728 78.6598 103.723 79.5913C103.728 80.7962 102.635 81.6872 101.172 81.6872ZM104.857 80.0874V79.3382L108.158 74.2554H109.282V79.2876H110.305V80.0874H109.282V81.5859H108.411V80.0874H104.857ZM105.839 79.2876H108.411V75.4097H108.32L105.839 79.2268V79.2876ZM113.899 81.6872C112.578 81.6872 111.575 80.8721 111.52 79.7432H112.4C112.466 80.3962 113.104 80.8822 113.899 80.8873C114.851 80.8822 115.539 80.1887 115.539 79.2673C115.539 78.3156 114.825 77.6119 113.838 77.6068C113.221 77.5967 112.74 77.7891 112.471 78.2649H111.59L112.107 74.2554H116.076V75.0654H112.866L112.593 77.2119H112.664C112.993 76.9588 113.484 76.7867 114 76.7867C115.397 76.7867 116.425 77.8194 116.43 79.2471C116.425 80.6646 115.362 81.6872 113.899 81.6872ZM120.247 81.6872C118.977 81.672 117.574 80.9177 117.574 78.2042C117.574 75.6071 118.637 74.1542 120.359 74.1542C121.65 74.1542 122.551 74.949 122.738 76.0982H121.837C121.67 75.4502 121.174 74.9642 120.359 74.9642C119.154 74.9642 118.43 75.9919 118.435 77.7587H118.526C118.946 77.1461 119.62 76.7867 120.409 76.7867C121.71 76.7867 122.799 77.7992 122.799 79.2167C122.799 80.5987 121.791 81.7024 120.247 81.6872ZM118.556 79.2369C118.561 80.0976 119.265 80.8822 120.247 80.8873C121.194 80.8822 121.913 80.1381 121.918 79.2268C121.913 78.3257 121.224 77.5916 120.268 77.5866C119.306 77.5916 118.567 78.3712 118.556 79.2369ZM124.287 81.5859L127.649 75.1161V75.0654H123.771V74.2554H128.59V75.1059L125.239 81.5859H124.287ZM132.083 81.6872C130.539 81.6872 129.476 80.8316 129.481 79.6419C129.476 78.6952 130.134 77.9106 130.97 77.7789V77.7384C130.241 77.5714 129.76 76.8981 129.765 76.0982C129.76 74.9794 130.742 74.1542 132.083 74.1542C133.42 74.1542 134.402 74.9794 134.412 76.0982C134.402 76.8981 133.916 77.5714 133.197 77.7384V77.7789C134.027 77.9106 134.686 78.6952 134.696 79.6419C134.686 80.8316 133.612 81.6872 132.083 81.6872ZM130.393 79.5913C130.377 80.3608 131.03 80.8822 132.083 80.8873C133.131 80.8822 133.784 80.3608 133.784 79.5913C133.784 78.7813 133.071 78.1839 132.083 78.1839C131.101 78.1839 130.377 78.7813 130.393 79.5913ZM130.646 76.1691C130.651 76.9082 131.243 77.4094 132.083 77.4144C132.919 77.4094 133.521 76.9082 133.521 76.1691C133.521 75.435 132.939 74.9389 132.083 74.9439C131.213 74.9389 130.651 75.435 130.646 76.1691ZM138.361 74.1542C139.621 74.1694 141.024 74.9287 141.024 77.6271C141.024 80.2342 139.956 81.6872 138.239 81.6872C136.948 81.6872 136.042 80.8974 135.86 79.7331H136.761C136.923 80.3912 137.424 80.8772 138.239 80.8772C139.434 80.8772 140.163 79.8444 140.173 78.0624H140.072C139.652 78.6699 138.979 79.0344 138.199 79.0344C136.888 79.0344 135.799 78.027 135.799 76.6146C135.799 75.2477 136.802 74.139 138.361 74.1542ZM136.69 76.6044C136.685 77.5106 137.374 78.2346 138.331 78.2346C139.287 78.2346 140.032 77.4448 140.032 76.5842C140.032 75.7438 139.328 74.9541 138.361 74.9541C137.404 74.9541 136.68 75.6982 136.69 76.6044Z" fill="#131214"/>
<rect width="243" height="20.736" transform="translate(50 288.088)" fill="white"/>
<path fill-rule="evenodd" clip-rule="evenodd" d="M126.64 302.284C126.64 301.389 127.365 300.664 128.26 300.664H215.092C215.987 300.664 216.712 301.389 216.712 302.284C216.712 303.179 215.987 303.904 215.092 303.904H128.26C127.365 303.904 126.64 303.179 126.64 302.284Z" fill="#131214"/>
<rect x="60.3687" y="247.264" width="222.264" height="31.104" rx="3.888" fill="#FFF6F6"/>
<path d="M148.153 259.263V260.043H147.282V262.787C147.667 262.756 148.036 262.721 148.396 262.675L148.436 263.404C146.69 263.678 144.654 263.708 143.202 263.708L143.08 262.908C143.419 262.908 143.794 262.908 144.184 262.903V260.043H143.333V259.263H148.153ZM144.528 266.017C144.523 264.958 145.677 264.356 147.596 264.356C149.509 264.356 150.659 264.958 150.664 266.017C150.659 267.054 149.509 267.662 147.596 267.657C145.677 267.662 144.523 267.054 144.528 266.017ZM145.115 262.888C145.525 262.878 145.94 262.863 146.361 262.842V260.043H145.115V262.888ZM145.48 266.017C145.475 266.589 146.254 266.913 147.596 266.918C148.927 266.913 149.707 266.589 149.712 266.017C149.707 265.429 148.927 265.1 147.596 265.105C146.254 265.1 145.475 265.429 145.48 266.017ZM148.284 262.604V261.835H149.671V260.954H148.284V260.185H149.671V258.605H150.633V264.184H149.671V262.604H148.284ZM159.098 258.605V262.22H160.505V263.02H159.098V267.667H158.136V258.605H159.098ZM152.041 265.247C154.314 264.113 155.549 262.473 155.746 260.357H152.496V259.557H156.729C156.718 262.179 155.564 264.523 152.577 265.996L152.041 265.247ZM171.309 258.605V267.677H170.387V258.605H171.309ZM163.391 265.176C164.677 264.402 165.33 262.751 165.335 261.136V260.407H163.664V259.628H167.815V260.407H166.256V261.136C166.256 262.685 166.884 264.24 168.16 264.974L167.583 265.682C166.717 265.166 166.125 264.24 165.806 263.146C165.482 264.331 164.864 265.343 163.978 265.895L163.391 265.176ZM167.147 262.604V261.815H168.555V258.797H169.466V267.221H168.555V262.604H167.147ZM180.745 262.584V263.303H177.09V264.062H179.712V266.108H174.427V266.857H179.965V267.586H173.485V265.439H178.761V264.761H173.475V264.062H176.138V263.303H172.493V262.584H180.745ZM172.898 261.501C174.635 261.405 175.86 260.873 176.057 260.104H173.313V259.364H176.138V258.565H177.09V259.364H179.925V260.104H177.166C177.358 260.873 178.583 261.405 180.34 261.501L180.046 262.23C178.467 262.113 177.181 261.653 176.614 260.858C176.047 261.653 174.761 262.113 173.172 262.23L172.898 261.501ZM192.277 265.743V266.543H183.975V265.743H185.959V263.374C185.215 262.964 184.76 262.316 184.765 261.501C184.76 260.073 186.162 259.137 188.106 259.132C190.055 259.137 191.457 260.073 191.457 261.501C191.457 262.301 191.022 262.944 190.293 263.354V265.743H192.277ZM185.696 261.501C185.696 262.473 186.683 263.106 188.106 263.111C189.518 263.106 190.521 262.473 190.526 261.501C190.521 260.524 189.518 259.901 188.106 259.901C186.683 259.901 185.696 260.524 185.696 261.501ZM186.911 265.743H189.321V263.728C188.951 263.814 188.541 263.86 188.106 263.86C187.681 263.86 187.276 263.814 186.911 263.728V265.743ZM196.115 260.539C196.115 261.607 196.991 262.604 198.373 262.989L197.917 263.738C196.864 263.44 196.074 262.792 195.659 261.951C195.264 262.888 194.475 263.632 193.391 263.971L192.936 263.232C194.313 262.792 195.163 261.708 195.163 260.539V260.428H193.189V259.658H195.163V258.565H196.125V259.658H198.089V260.428H196.115V260.539ZM194.394 265.976C194.388 264.913 195.558 264.31 197.461 264.305C199.36 264.31 200.524 264.913 200.529 265.976C200.524 267.044 199.36 267.662 197.461 267.657C195.558 267.662 194.388 267.044 194.394 265.976ZM195.345 265.976C195.34 266.563 196.13 266.913 197.461 266.918C198.793 266.913 199.572 266.563 199.578 265.976C199.572 265.389 198.793 265.055 197.461 265.055C196.13 265.055 195.34 265.389 195.345 265.976ZM197.806 261.936V261.146H199.537V258.605H200.499V264.103H199.537V261.936H197.806Z" fill="#C90000"/>
<rect x="60.3687" y="207.088" width="222.264" height="31.104" rx="3.888" fill="#E0EDFF"/>
<path d="M148.153 219.087V219.867H147.282V222.611C147.667 222.58 148.036 222.545 148.396 222.499L148.436 223.228C146.69 223.502 144.654 223.532 143.202 223.532L143.08 222.732C143.419 222.732 143.794 222.732 144.184 222.727V219.867H143.333V219.087H148.153ZM144.528 225.841C144.523 224.783 145.677 224.18 147.596 224.18C149.509 224.18 150.659 224.783 150.664 225.841C150.659 226.879 149.509 227.486 147.596 227.481C145.677 227.486 144.523 226.879 144.528 225.841ZM145.115 222.712C145.525 222.702 145.94 222.687 146.361 222.667V219.867H145.115V222.712ZM145.48 225.841C145.475 226.413 146.254 226.737 147.596 226.742C148.927 226.737 149.707 226.413 149.712 225.841C149.707 225.253 148.927 224.924 147.596 224.929C146.254 224.924 145.475 225.253 145.48 225.841ZM148.284 222.429V221.659H149.671V220.778H148.284V220.009H149.671V218.429H150.633V224.008H149.671V222.429H148.284ZM159.098 218.429V222.044H160.505V222.844H159.098V227.491H158.136V218.429H159.098ZM152.041 225.071C154.314 223.937 155.549 222.297 155.746 220.181H152.496V219.381H156.729C156.718 222.003 155.564 224.347 152.577 225.82L152.041 225.071ZM166.692 220.059C166.686 221.219 167.491 222.317 168.879 222.783L168.393 223.532C167.365 223.178 166.611 222.469 166.216 221.578C165.821 222.555 165.031 223.33 163.968 223.704L163.452 222.955C164.869 222.474 165.725 221.3 165.73 220.049V219.806H163.735V219.027H168.646V219.806H166.692V220.059ZM164.656 225.122V224.342H170.65V227.501H169.689V225.122H164.656ZM169.689 223.897V218.429H170.65V220.758H171.967V221.568H170.65V223.897H169.689ZM175.703 219.786C175.698 221.057 176.523 222.191 177.9 222.641L177.373 223.39C176.376 223.026 175.642 222.327 175.247 221.416C174.857 222.454 174.068 223.269 172.969 223.664L172.453 222.894C173.901 222.398 174.741 221.188 174.751 219.826V218.935H175.703V219.786ZM173.941 225.77C173.936 224.671 175.1 224.033 177.009 224.038C178.907 224.033 180.072 224.671 180.077 225.77C180.072 226.863 178.907 227.486 177.009 227.481C175.1 227.486 173.936 226.863 173.941 225.77ZM174.893 225.77C174.888 226.372 175.677 226.727 177.009 226.722C178.33 226.727 179.12 226.372 179.125 225.77C179.12 225.147 178.33 224.788 177.009 224.788C175.677 224.788 174.888 225.147 174.893 225.77ZM177.171 221.062V220.272H179.085V218.429H180.046V223.785H179.085V221.062H177.171ZM192.277 225.567V226.367H183.975V225.567H185.959V223.198C185.215 222.788 184.76 222.14 184.765 221.325C184.76 219.897 186.162 218.961 188.106 218.956C190.055 218.961 191.457 219.897 191.457 221.325C191.457 222.125 191.022 222.768 190.293 223.178V225.567H192.277ZM185.696 221.325C185.696 222.297 186.683 222.93 188.106 222.935C189.518 222.93 190.521 222.297 190.526 221.325C190.521 220.348 189.518 219.725 188.106 219.725C186.683 219.725 185.696 220.348 185.696 221.325ZM186.911 225.567H189.321V223.552C188.951 223.639 188.541 223.684 188.106 223.684C187.681 223.684 187.276 223.639 186.911 223.552V225.567ZM196.115 220.363C196.115 221.431 196.991 222.429 198.373 222.813L197.917 223.563C196.864 223.264 196.074 222.616 195.659 221.776C195.264 222.712 194.475 223.456 193.391 223.795L192.936 223.056C194.313 222.616 195.163 221.533 195.163 220.363V220.252H193.189V219.482H195.163V218.389H196.125V219.482H198.089V220.252H196.115V220.363ZM194.394 225.8C194.388 224.737 195.558 224.135 197.461 224.13C199.36 224.135 200.524 224.737 200.529 225.8C200.524 226.868 199.36 227.486 197.461 227.481C195.558 227.486 194.388 226.868 194.394 225.8ZM195.345 225.8C195.34 226.387 196.13 226.737 197.461 226.742C198.793 226.737 199.572 226.387 199.578 225.8C199.572 225.213 198.793 224.879 197.461 224.879C196.13 224.879 195.34 225.213 195.345 225.8ZM197.806 221.76V220.971H199.537V218.429H200.499V223.927H199.537V221.76H197.806Z" fill="#0038FF"/>
</g>
<rect x="48.5" y="-219.5" width="246" height="529.176" rx="27.5" stroke="black" stroke-width="3"/>
</g>
<defs>
<clipPath id="clip0_5345_15149">
<rect width="343" height="343" rx="24" fill="white"/>
</clipPath>
<clipPath id="clip1_5345_15149">
<rect x="50" y="-218" width="243" height="526.176" rx="26" fill="white"/>
</clipPath>
</defs>
</svg>
