<svg width="343" height="343" viewBox="0 0 343 343" fill="none" xmlns="http://www.w3.org/2000/svg">
<g clip-path="url(#clip0_5318_18147)">
<rect width="343" height="343" rx="24" fill="#F7F7FB"/>
<g clip-path="url(#clip1_5318_18147)">
<rect x="50" y="52" width="243" height="526.176" rx="26" fill="white"/>
<path d="M70.0956 155.804V156.841H66.0177V159.927H64.7648V156.841H60.7097V155.804H70.0956ZM61.2223 154.175C63.2783 153.925 64.6281 152.871 64.7534 151.84H61.5754V150.838H64.7648V149.63H66.0177V150.838H69.2185V151.84H66.0405C66.1601 152.86 67.5042 153.925 69.5602 154.175L69.0932 155.178C67.3903 154.961 66.069 154.215 65.4026 153.224C64.7306 154.226 63.3922 154.961 61.6779 155.178L61.2223 154.175ZM78.855 149.619V153.64H80.3813V154.699H78.855V159.893H77.5906V149.619H78.855ZM70.7334 157.08C73.2394 155.827 74.5949 154.084 74.8455 151.738H71.2916V150.69H76.1326C76.1269 153.714 74.8739 156.374 71.4511 158.059L70.7334 157.08ZM88.9357 149.619V153.72H90.519V154.768H88.9357V159.916H87.6827V149.619H88.9357ZM80.8142 152.216V151.202H83.2517V149.767H84.5161V151.202H86.8854V152.216H80.8142ZM81.2926 155.314C81.2812 153.89 82.3861 152.882 83.8896 152.888C85.3704 152.882 86.4696 153.89 86.4753 155.314C86.4696 156.732 85.3704 157.729 83.8896 157.729C82.3861 157.729 81.2812 156.732 81.2926 155.314ZM82.5 155.314C82.4943 156.152 83.0809 156.687 83.8896 156.681C84.6813 156.687 85.2565 156.152 85.2679 155.314C85.2565 154.477 84.6813 153.925 83.8896 153.925C83.0809 153.925 82.4943 154.477 82.5 155.314ZM99.5062 149.619V154.87H98.2532V149.619H99.5062ZM90.9404 153.868C92.6091 153.338 93.4862 152.017 93.4805 150.667V149.87H94.7904V150.667C94.7848 151.977 95.6561 153.201 97.285 153.697L96.6699 154.676C95.4739 154.306 94.6196 153.543 94.1526 152.563C93.6856 153.628 92.8085 154.466 91.5783 154.859L90.9404 153.868ZM92.6946 156.328V155.348H99.5289V158.025H93.9589V158.823H99.8365V159.825H92.7174V157.08H98.2646V156.328H92.6946ZM105.27 158.902H103.687L106.591 150.656H108.414L111.33 158.902H109.746L109.057 156.863H105.953L105.27 158.902ZM106.352 155.667H108.659L107.537 152.341H107.468L106.352 155.667ZM114.348 159.016C112.896 159.011 111.797 157.849 111.797 155.815C111.797 153.754 112.924 152.638 114.36 152.638C115.447 152.638 115.903 153.292 116.125 153.731H116.182V150.656H117.629V158.902H116.205V157.923H116.125C115.892 158.378 115.419 159.011 114.348 159.016ZM113.277 155.804C113.277 156.972 113.79 157.82 114.747 157.82C115.687 157.82 116.216 157.012 116.216 155.804C116.216 154.602 115.692 153.828 114.747 153.822C113.779 153.828 113.277 154.654 113.277 155.804ZM119.098 158.902V152.717H120.488V153.765H120.567C120.824 153.059 121.445 152.638 122.265 152.638C123.102 152.638 123.706 153.065 123.939 153.765H124.007C124.275 153.082 124.964 152.638 125.864 152.638C126.997 152.638 127.795 153.367 127.789 154.745V158.902H126.342V154.973C126.342 154.204 125.875 153.856 125.283 153.856C124.571 153.856 124.155 154.34 124.155 155.041V158.902H122.743V154.916C122.737 154.272 122.316 153.856 121.695 153.856C121.069 153.856 120.556 154.375 120.556 155.143V158.902H119.098ZM129.179 158.902V152.717H130.637V158.902H129.179ZM129.076 151.043C129.076 150.61 129.458 150.257 129.919 150.257C130.38 150.257 130.762 150.61 130.762 151.043C130.762 151.481 130.38 151.834 129.919 151.84C129.458 151.834 129.076 151.481 129.076 151.043ZM133.484 155.28V158.902H132.026V152.717H133.416V153.765H133.496C133.775 153.076 134.407 152.638 135.33 152.638C136.611 152.638 137.454 153.48 137.448 154.961V158.902H136.002V155.189C136.002 154.357 135.552 153.862 134.794 153.868C134.025 153.862 133.484 154.38 133.484 155.28ZM146.606 150.633C146.601 153.742 145.752 156.413 141.959 158.299L141.264 157.342C143.047 156.465 144.112 155.434 144.71 154.215L141.503 154.517L141.344 153.423L145.091 153.19C145.222 152.706 145.308 152.199 145.348 151.658H141.879V150.633H146.606ZM148.053 159.893V149.619H149.317V153.651H150.844V154.688H149.317V159.893H148.053ZM159.694 154.449V155.462H152.473V150.519H159.614V151.544H153.726V154.449H159.694ZM151.334 158.606V157.558H160.742V158.606H151.334ZM164.752 150.337C166.386 150.331 167.577 151.362 167.588 152.82C167.577 154.283 166.386 155.309 164.752 155.314C163.134 155.309 161.921 154.283 161.927 152.82C161.921 151.362 163.134 150.331 164.752 150.337ZM161.46 156.738C163.316 156.738 165.885 156.715 168.112 156.396L168.214 157.319C165.908 157.758 163.436 157.775 161.619 157.775L161.46 156.738ZM163.18 152.82C163.174 153.68 163.852 154.209 164.752 154.209C165.663 154.209 166.341 153.68 166.346 152.82C166.341 151.965 165.669 151.43 164.752 151.43C163.852 151.43 163.174 151.965 163.18 152.82ZM168.727 159.927V149.619H169.991V159.927H168.727ZM182.886 149.619V155.736H181.621V153.218H179.867V152.182H181.621V149.619H182.886ZM174.229 154.711C175.886 154.141 176.757 152.757 176.757 151.396V151.316H174.616V150.291H180.175V151.316H178.045V151.385C178.045 152.638 178.876 153.902 180.471 154.437L179.833 155.44C178.688 155.052 177.879 154.266 177.424 153.298C176.974 154.392 176.114 155.28 174.889 155.713L174.229 154.711ZM175.903 157.957C175.892 156.721 177.23 155.998 179.4 155.998C181.581 155.998 182.914 156.721 182.92 157.957C182.914 159.193 181.581 159.91 179.4 159.916C177.23 159.91 175.892 159.193 175.903 157.957ZM177.156 157.957C177.15 158.595 177.97 158.942 179.4 158.937C180.841 158.942 181.655 158.595 181.655 157.957C181.655 157.313 180.841 156.966 179.4 156.966C177.97 156.966 177.15 157.313 177.156 157.957ZM193.752 157.638V158.675H184.344V157.638H188.399V155.633H185.38V150.302H186.644V151.988H191.417V150.302H192.681V155.633H189.652V157.638H193.752ZM186.644 154.608H191.417V153.002H186.644V154.608ZM203.822 154.289V155.246H194.413V154.289H203.822ZM195.506 156.75V155.861H202.682V158.208H196.782V158.925H202.99V159.802H195.518V157.387H201.429V156.75H195.506ZM195.575 150.724V149.847H202.66V152.17H196.862V152.843H202.842V153.708H195.609V151.35H201.395V150.724H195.575ZM69.2868 167.619V173.143H68.0111V167.619H69.2868ZM60.8919 170.489C60.8919 169.06 62.0766 168.069 63.6713 168.075C65.2603 168.069 66.4449 169.06 66.4392 170.489C66.4449 171.896 65.2603 172.887 63.6713 172.881C62.0766 172.887 60.8919 171.896 60.8919 170.489ZM62.1335 170.489C62.1278 171.315 62.7714 171.839 63.6713 171.845C64.554 171.839 65.1976 171.315 65.1976 170.489C65.1976 169.664 64.554 169.128 63.6713 169.134C62.7714 169.128 62.1278 169.664 62.1335 170.489ZM62.4752 177.791V173.622H63.7282V174.681H68.0225V173.622H69.2868V177.791H62.4752ZM63.7282 176.766H68.0225V175.672H63.7282V176.766ZM75.7112 168.234V171.332H72.4648V172.597C74.1222 172.597 75.0619 172.551 76.1554 172.346L76.2807 173.371C75.0505 173.582 73.9855 173.61 71.9636 173.61H71.2119V170.387H74.4468V169.236H71.1891V168.234H75.7112ZM72.3737 175.467V174.453H79.4131V177.916H78.1487V175.467H72.3737ZM76.3262 172.266V171.253H78.1487V170.102H76.3262V169.088H78.1487V167.63H79.4131V173.964H78.1487V172.266H76.3262ZM85.8944 169.259V170.273H80.8483V169.259H82.7619V167.915H84.0149V169.259H85.8944ZM81.1445 173.212C81.1331 171.811 82.0842 170.814 83.3884 170.82C84.6984 170.814 85.6324 171.811 85.6324 173.212C85.6324 174.641 84.6984 175.638 83.3884 175.638C82.0842 175.638 81.1331 174.641 81.1445 173.212ZM82.2608 173.212C82.2551 174.043 82.7221 174.562 83.3884 174.556C84.0491 174.562 84.5161 174.043 84.5161 173.212C84.5161 172.403 84.0491 171.868 83.3884 171.868C82.7221 171.868 82.2551 172.403 82.2608 173.212ZM86.3272 177.449V167.835H87.5118V171.856H88.5142V167.619H89.7216V177.916H88.5142V172.881H87.5118V177.449H86.3272ZM103.106 173.36V174.385H99.0164V177.905H97.7634V174.385H93.7197V173.36H103.106ZM94.2095 171.674C96.2314 171.418 97.5868 170.33 97.678 169.202H94.5854V168.2H102.24V169.202H99.1474C99.2328 170.33 100.577 171.418 102.616 171.674L102.16 172.665C100.406 172.414 99.0392 171.611 98.4127 170.501C97.7805 171.611 96.425 172.414 94.6879 172.665L94.2095 171.674ZM107.013 170.319C107.018 171.982 107.588 173.713 108.983 174.59L108.288 175.558C107.36 175 106.756 174.043 106.415 172.921C106.044 174.157 105.384 175.205 104.416 175.797L103.63 174.852C105.127 173.946 105.788 172.13 105.794 170.376V168.53H107.013V170.319ZM107.878 172.209V171.161H109.348V167.801H110.544V177.415H109.348V172.209H107.878ZM111.466 177.916V167.619H112.685V177.916H111.466ZM123.29 175.627V176.663H113.881V175.627H116.057V173.024C115.237 172.551 114.741 171.811 114.747 170.899C114.741 169.259 116.347 168.177 118.563 168.177C120.79 168.177 122.407 169.259 122.401 170.899C122.407 171.799 121.923 172.523 121.126 172.995V175.627H123.29ZM115.988 170.899C115.983 171.953 117.025 172.625 118.563 172.619C120.095 172.625 121.16 171.953 121.16 170.899C121.16 169.829 120.095 169.174 118.563 169.18C117.025 169.174 115.983 169.829 115.988 170.899ZM117.31 175.627H119.838V173.479C119.445 173.565 119.018 173.61 118.563 173.61C118.118 173.61 117.697 173.565 117.31 173.485V175.627ZM125.215 176.993C124.725 176.993 124.321 176.595 124.326 176.105C124.321 175.627 124.725 175.234 125.215 175.228C125.688 175.234 126.092 175.627 126.092 176.105C126.092 176.595 125.688 176.993 125.215 176.993Z" fill="#131214"/>
<path d="M68.2959 206.436V215.589H67.172V206.436H68.2959ZM60.7122 213.047C61.4412 213.042 62.2664 213.042 63.1321 213.017V212.176C62.1044 212.014 61.4311 211.387 61.4311 210.516C61.4311 209.483 62.3474 208.8 63.6789 208.795C65.0255 208.8 65.957 209.483 65.957 210.516C65.957 211.382 65.2837 212.004 64.256 212.171V212.976C65.0609 212.941 65.8709 212.875 66.6354 212.774L66.7164 213.614C64.7065 213.953 62.5195 213.979 60.8742 213.979L60.7122 213.047ZM60.9046 208.38V207.489H63.1321V206.466H64.256V207.489H66.4734V208.38H60.9046ZM62.5044 210.516C62.4942 211.042 62.9853 211.351 63.6789 211.346C64.3927 211.351 64.8787 211.042 64.8736 210.516C64.8787 209.984 64.3927 209.66 63.6789 209.655C62.9853 209.66 62.4942 209.984 62.5044 210.516ZM72.9027 208.633C72.8926 210.268 73.7127 211.918 75.1302 212.602L74.4417 213.503C73.4495 213.002 72.7357 212.035 72.3459 210.87C71.9459 212.116 71.1967 213.148 70.1487 213.675L69.4602 212.774C70.9334 212.075 71.7738 210.324 71.7789 208.633V207.175H72.9027V208.633ZM75.677 215.589V206.436H76.8009V210.02H78.2082V210.982H76.8009V215.589H75.677ZM86.2576 206.436V211.822H85.1337V210.556H83.291V211.265H78.9879V207.124H83.291V207.833H85.1337V206.436H86.2576ZM80.051 213.827C80.0409 212.713 81.2305 212.06 83.1594 212.065C85.0983 212.06 86.2829 212.713 86.288 213.827C86.2829 214.941 85.0983 215.579 83.1594 215.579C81.2305 215.579 80.0409 214.941 80.051 213.827ZM80.1117 210.364H82.1772V208.015H80.1117V210.364ZM81.1647 213.827C81.1597 214.394 81.8887 214.708 83.1594 214.708C84.4402 214.708 85.1641 214.394 85.1641 213.827C85.1641 213.235 84.4402 212.931 83.1594 212.926C81.8887 212.931 81.1597 213.235 81.1647 213.827ZM83.291 209.645H85.1337V208.724H83.291V209.645Z" fill="#131214"/>
<rect x="60.692" y="228.787" width="221.616" height="30.456" rx="4.86" stroke="#131214" stroke-width="0.648"/>
<path d="M78.431 244.448V245.218H72.113V240.368H78.3398V241.148H73.085V242.373H78.1475V243.132H73.085V244.448H78.431ZM71.0701 247.547V246.757H79.3726V247.547H71.0701ZM87.7662 239.629V245.279H86.855V242.788H85.7412V245.208H84.8401V239.791H85.7412V241.998H86.855V239.629H87.7662ZM80.4155 241.036V240.267H83.858V242.879H81.3672V244.074C82.4911 244.064 83.3466 244.013 84.344 243.81L84.4452 244.6C83.3011 244.808 82.3595 244.843 81.0331 244.843H80.4357V242.16H82.9366V241.036H80.4155ZM81.6001 246.494V245.714H87.7662V248.691H86.8145V246.494H81.6001ZM93.6185 240.54C93.6134 243.213 92.7426 245.592 89.5178 247.233L88.9812 246.504C90.5708 245.694 91.553 244.717 92.1048 243.562L89.1635 243.841L89.0116 243.011L92.3984 242.798C92.5401 242.332 92.6262 241.836 92.6616 241.32H89.4773V240.54H93.6185ZM93.5982 244.003V243.213H95.5928V239.619H96.5446V248.691H95.5928V244.003H93.5982ZM105.222 239.862V240.439C105.222 241.082 105.222 241.922 105.019 243.021L104.067 242.96C104.138 242.58 104.184 242.241 104.214 241.932L98.8126 242.19L98.6911 241.421L104.26 241.269C104.265 241.031 104.27 240.819 104.27 240.621H98.924V239.862H105.222ZM97.9621 244.256V243.497H101.232V242.474H102.204V243.497H106.214V244.256H97.9621ZM98.9442 245.663V244.924H105.181V247.081H99.896V247.81H105.434V248.549H98.9543V246.382H104.229V245.663H98.9442ZM114.446 239.619V248.711H113.484V239.619H114.446ZM107.419 241.218V240.439H111.671V243.75H108.411V245.734C109.884 245.729 111.165 245.658 112.684 245.41L112.775 246.2C111.17 246.468 109.803 246.529 108.198 246.534H107.429V242.98H110.689V241.218H107.419ZM120.227 239.467V248.863H119.255V239.467H120.227Z" fill="#131214"/>
<path d="M68.2959 276.422V285.575H67.172V276.422H68.2959ZM60.7122 283.034C61.4412 283.029 62.2664 283.029 63.1321 283.003V282.163C62.1044 282.001 61.4311 281.373 61.4311 280.502C61.4311 279.47 62.3474 278.786 63.6789 278.781C65.0255 278.786 65.957 279.47 65.957 280.502C65.957 281.368 65.2837 281.991 64.256 282.158V282.963C65.0609 282.927 65.8709 282.861 66.6354 282.76L66.7164 283.601C64.7065 283.94 62.5195 283.965 60.8742 283.965L60.7122 283.034ZM60.9046 278.366V277.475H63.1321V276.452H64.256V277.475H66.4734V278.366H60.9046ZM62.5044 280.502C62.4942 281.029 62.9853 281.338 63.6789 281.333C64.3927 281.338 64.8787 281.029 64.8736 280.502C64.8787 279.971 64.3927 279.647 63.6789 279.642C62.9853 279.647 62.4942 279.971 62.5044 280.502ZM72.9027 278.619C72.8926 280.254 73.7127 281.905 75.1302 282.588L74.4417 283.489C73.4495 282.988 72.7357 282.021 72.3459 280.857C71.9459 282.102 71.1967 283.135 70.1487 283.661L69.4602 282.76C70.9334 282.062 71.7738 280.31 71.7789 278.619V277.161H72.9027V278.619ZM75.677 285.575V276.422H76.8009V280.006H78.2082V280.968H76.8009V285.575H75.677ZM89.4166 283.53V284.441H81.0534V283.53H84.6376V281.414H85.7514V283.53H89.4166ZM81.2964 280.705C83.21 280.396 84.5819 279.024 84.587 277.647V276.979H85.7817V277.647C85.7817 279.029 87.1638 280.396 89.0926 280.705L88.6066 281.636C87.0625 281.343 85.7919 280.457 85.1844 279.257C84.5819 280.452 83.3264 281.348 81.7824 281.636L81.2964 280.705ZM97.871 276.422V285.575H96.7876V280.877H95.8055V285.15H94.7525V276.665H95.8055V279.966H96.7876V276.422H97.871ZM89.9431 282.882C91.8922 281.758 92.7174 280.31 92.8794 278.477H90.3684V277.576H93.9729C93.9729 280.052 93.1932 282.178 90.5911 283.661L89.9431 282.882Z" fill="#131214"/>
<path d="M103.916 281.464H103.227L103.288 279.895L101.951 280.735L101.607 280.138L103.004 279.409L101.607 278.67L101.951 278.072L103.288 278.913L103.227 277.343H103.916L103.855 278.913L105.191 278.072L105.536 278.67L104.148 279.409L105.536 280.138L105.191 280.735L103.855 279.895L103.916 281.464Z" fill="#FF5226"/>
<rect x="60.692" y="300.07" width="221.616" height="92.664" rx="4.86" stroke="#E6E9EB" stroke-width="0.648"/>
<path d="M79.3118 315.215V315.883H71.1005V315.215H79.3118ZM72.0927 318.293C72.0876 317.26 73.2571 316.673 75.2011 316.673C77.1299 316.673 78.2892 317.26 78.2993 318.293C78.2892 319.336 77.1299 319.913 75.2011 319.913C73.2571 319.913 72.0876 319.336 72.0927 318.293ZM72.1433 314.355V311.297H78.2892V311.965H72.923V313.707H78.35V314.355H72.1433ZM72.9027 318.293C72.8926 318.926 73.7583 319.285 75.2011 319.285C76.6287 319.285 77.4944 318.926 77.4995 318.293C77.4944 317.665 76.6287 317.301 75.2011 317.291C73.7583 317.301 72.8926 317.665 72.9027 318.293ZM88.2927 315.894V316.552H80.051V315.894H83.777V314.942H81.1242V312.745H86.4297V311.813H81.0938V311.165H87.2296V313.342H81.914V314.304H87.422V314.942H84.5566V315.894H88.2927ZM80.9723 317.888V317.24H87.2802V319.852H86.4803V317.888H80.9723ZM96.0586 310.902V313.089H97.4255V313.747H96.0586V315.883H95.2688V310.902H96.0586ZM89.042 312.39V311.752H91.3302V310.841H92.12V311.752H94.4082V312.39H89.042ZM89.5583 314.274C89.5533 313.362 90.4139 312.8 91.7251 312.795C93.0312 312.8 93.8817 313.362 93.8918 314.274C93.8817 315.19 93.0312 315.747 91.7251 315.752C90.4139 315.747 89.5533 315.19 89.5583 314.274ZM90.3177 316.947V316.349H96.0586V318.344H91.1176V319.225H96.3927V319.832H90.338V317.757H95.2688V316.947H90.3177ZM90.3177 314.274C90.3126 314.815 90.8695 315.154 91.7251 315.154C92.5756 315.154 93.1325 314.815 93.1426 314.274C93.1325 313.737 92.5756 313.388 91.7251 313.383C90.8695 313.388 90.3126 313.737 90.3177 314.274ZM107.966 310.932V319.933H107.176V310.932H107.966ZM100.635 317.534C101.405 317.529 102.285 317.524 103.197 317.493V316.511C102.113 316.4 101.415 315.782 101.425 314.881C101.415 313.863 102.28 313.205 103.581 313.21C104.883 313.205 105.763 313.863 105.758 314.881C105.763 315.772 105.065 316.39 103.997 316.511V317.463C104.867 317.422 105.748 317.362 106.578 317.25L106.639 317.858C104.629 318.182 102.427 318.212 100.757 318.212L100.635 317.534ZM100.827 312.694V312.046H103.197V310.942H103.997V312.046H106.346V312.694H100.827ZM102.164 314.881C102.159 315.504 102.746 315.914 103.581 315.904C104.422 315.914 105.004 315.504 104.999 314.881C105.004 314.253 104.422 313.828 103.581 313.828C102.746 313.828 102.159 314.253 102.164 314.881ZM112.562 313.352C112.562 314.937 113.61 316.572 114.891 317.2L114.405 317.838C113.413 317.321 112.583 316.253 112.183 315.003C111.783 316.329 110.932 317.468 109.92 318.01L109.413 317.372C110.73 316.724 111.773 314.997 111.783 313.352V311.712H112.562V313.352ZM115.721 319.933V310.932H116.511V314.587H118.02V315.276H116.511V319.933H115.721ZM126.221 310.932V319.933H125.451V310.932H126.221ZM118.617 314.82C118.622 312.907 119.382 311.697 120.551 311.692C121.644 311.697 122.384 312.75 122.485 314.446H123.649V311.125H124.409V319.478H123.649V315.104H122.49C122.414 316.855 121.66 317.954 120.551 317.949C119.382 317.954 118.622 316.734 118.617 314.82ZM119.366 314.82C119.356 316.278 119.822 317.2 120.551 317.19C121.285 317.2 121.751 316.278 121.746 314.82C121.751 313.357 121.285 312.441 120.551 312.441C119.822 312.441 119.356 313.357 119.366 314.82ZM137.763 310.932V319.933H137.004V315.215H135.678V319.468H134.949V311.135H135.678V314.557H137.004V310.932H137.763ZM130.403 317.706V312.036H133.774V312.694H131.192V317.028C132.433 317.022 133.288 316.977 134.291 316.774L134.361 317.443C133.278 317.665 132.362 317.701 130.98 317.706H130.403ZM146.066 310.942V313.909H147.423V314.577H146.066V317.686H145.276V310.942H146.066ZM139.049 312.694V312.046H141.338V310.942H142.127V312.046H144.416V312.694H139.049ZM139.566 314.871C139.561 313.848 140.431 313.19 141.732 313.19C143.018 313.19 143.889 313.848 143.899 314.871C143.889 315.883 143.018 316.536 141.732 316.531C140.431 316.536 139.561 315.883 139.566 314.871ZM140.325 314.871C140.32 315.504 140.882 315.914 141.732 315.904C142.573 315.914 143.14 315.504 143.15 314.871C143.14 314.228 142.573 313.813 141.732 313.818C140.882 313.813 140.32 314.228 140.325 314.871ZM140.436 319.741V317.149H141.216V319.073H146.481V319.741H140.436ZM158.834 318.101V318.759H150.592V318.101H154.277V315.894H155.057V318.101H158.834ZM150.916 315.337C152.49 315.068 154.242 313.752 154.247 312.238V311.55H155.077V312.238C155.082 313.742 156.859 315.068 158.429 315.337L158.074 315.995C156.702 315.711 155.254 314.785 154.672 313.489C154.08 314.78 152.647 315.711 151.27 315.995L150.916 315.337ZM167.237 310.932V319.933H166.458V315.225H165.212V319.488H164.453V311.175H165.212V314.567H166.458V310.932H167.237ZM159.563 317.443C161.653 316.273 162.514 314.628 162.651 312.765H159.907V312.107H163.43C163.42 314.395 162.615 316.557 160.028 318L159.563 317.443ZM175.671 311.327V311.904C175.671 312.512 175.671 313.291 175.469 314.304H176.755V314.942H168.513V314.304H174.669C174.877 313.302 174.887 312.567 174.882 311.975H169.556V311.327H175.671ZM169.495 316.491V315.853H175.702V318.121H170.305V319.184H175.935V319.832H169.505V317.493H174.912V316.491H169.495ZM181.574 311.094C183.574 311.094 184.749 311.646 184.754 312.643C184.749 313.666 183.574 314.218 181.574 314.223C179.565 314.218 178.385 313.666 178.385 312.643C178.385 311.646 179.565 311.094 181.574 311.094ZM177.474 315.478V314.83H185.675V315.478H177.474ZM178.466 316.866V316.258H184.622V318.273H179.276V319.204H184.895V319.832H178.486V317.686H183.842V316.866H178.466ZM179.215 312.643C179.205 313.271 180.081 313.615 181.574 313.615C183.068 313.615 183.939 313.271 183.944 312.643C183.939 312.051 183.068 311.697 181.574 311.692C180.081 311.697 179.205 312.051 179.215 312.643ZM192.084 312.603C192.089 313.803 192.97 314.896 194.301 315.357L193.896 315.975C192.869 315.61 192.084 314.876 191.699 313.944C191.315 314.967 190.489 315.762 189.431 316.147L189.006 315.529C190.353 315.053 191.294 313.894 191.304 312.603V312.218H189.249V311.57H194.109V312.218H192.084V312.603ZM190.181 317.483V316.835H196.073V319.933H195.284V317.483H190.181ZM195.284 316.359V310.932H196.073V313.312H197.43V313.99H196.073V316.359H195.284ZM201.095 312.35C201.085 313.636 202.002 314.765 203.323 315.215L202.877 315.833C201.885 315.463 201.105 314.729 200.716 313.782C200.331 314.861 199.511 315.696 198.422 316.106L197.987 315.458C199.374 314.972 200.295 313.777 200.306 312.38V311.449H201.095V312.35ZM199.455 318.232C199.45 317.149 200.599 316.526 202.472 316.531C204.34 316.526 205.49 317.149 205.49 318.232C205.49 319.306 204.34 319.913 202.472 319.913C200.599 319.913 199.45 319.306 199.455 318.232ZM200.245 318.232C200.24 318.885 201.09 319.28 202.472 319.275C203.849 319.28 204.7 318.885 204.7 318.232C204.7 317.559 203.849 317.159 202.472 317.159C201.09 317.159 200.24 317.559 200.245 318.232ZM202.655 313.524V312.866H204.659V310.932H205.459V316.268H204.659V313.524H202.655ZM211.453 312.492V313.14H206.937V312.492H208.811V311.206H209.6V312.492H211.453ZM207.261 315.792C207.261 314.598 208.077 313.752 209.195 313.747C210.329 313.752 211.139 314.598 211.149 315.792C211.139 317.002 210.329 317.853 209.195 317.858C208.077 317.853 207.261 317.002 207.261 315.792ZM207.97 315.792C207.97 316.592 208.482 317.164 209.195 317.159C209.914 317.164 210.441 316.592 210.441 315.792C210.441 315.003 209.914 314.425 209.195 314.415C208.482 314.425 207.97 315.003 207.97 315.792ZM211.919 319.488V311.155H212.668V314.729H213.863V310.932H214.622V319.933H213.863V315.387H212.668V319.488H211.919ZM223.067 312.208C223.062 313.413 224.666 314.436 226.236 314.668L225.942 315.296C224.54 315.058 223.168 314.309 222.621 313.226C222.074 314.309 220.702 315.058 219.32 315.296L219.006 314.668C220.571 314.436 222.171 313.413 222.176 312.208V312.147H219.29V311.499H225.942V312.147H223.067V312.208ZM218.52 316.724V316.066H226.722V316.724H222.996V319.933H222.216V316.724H218.52ZM230.154 313.494C230.154 314.927 230.853 316.471 232.047 317.179L231.592 317.797C230.721 317.271 230.098 316.309 229.785 315.21C229.455 316.41 228.787 317.443 227.886 317.989L227.38 317.392C228.625 316.663 229.385 315.068 229.385 313.524V311.783H230.154V313.494ZM231.055 314.841V314.162H232.584V311.125H233.333V319.478H232.584V314.841H231.055ZM234.427 319.933V310.932H235.196V319.933H234.427ZM244.683 318.111V318.779H236.442V318.111H238.487V315.686C237.717 315.286 237.252 314.638 237.252 313.818C237.252 312.426 238.619 311.509 240.542 311.499C242.466 311.509 243.833 312.426 243.833 313.818C243.833 314.623 243.382 315.261 242.638 315.661V318.111H244.683ZM238.021 313.818C238.016 314.825 239.064 315.499 240.542 315.499C242.005 315.499 243.063 314.825 243.063 313.818C243.063 312.81 242.005 312.147 240.542 312.157C239.064 312.147 238.016 312.81 238.021 313.818ZM239.267 318.111H241.838V315.969C241.449 316.071 241.013 316.126 240.542 316.126C240.082 316.126 239.651 316.076 239.267 315.975V318.111ZM246.354 319.174C246 319.169 245.696 318.875 245.706 318.516C245.696 318.162 246 317.868 246.354 317.868C246.714 317.868 247.007 318.162 247.002 318.516C247.007 318.875 246.714 319.169 246.354 319.174Z" fill="#898D8F"/>
<g clip-path="url(#clip2_5318_18147)">
<rect x="50" y="52" width="242.919" height="526" rx="25.9113" fill="white"/>
<path d="M68.9729 166.269V167.271H61.9245V163.115H68.8591V164.129H63.2226V166.269H68.9729ZM60.6947 169.435V168.41H70.1002V169.435H66.001V172.817H64.7484V169.435H60.6947ZM78.8453 162.546V166.565H80.3711V167.624H78.8453V172.817H77.5814V162.546H78.8453ZM70.7265 170.004C73.2316 168.752 74.5866 167.01 74.8371 164.664H71.2845V163.616H76.1239C76.1182 166.639 74.8656 169.298 71.4439 170.984L70.7265 170.004ZM84.7437 165.472C84.7437 167.158 85.7343 168.934 87.3968 169.629L86.7022 170.631C85.4838 170.101 84.5956 169.025 84.1231 167.716C83.6505 169.127 82.7453 170.312 81.544 170.881L80.8152 169.89C82.4378 169.139 83.4513 167.22 83.457 165.472V164.607H81.191V163.559H86.9983V164.607H84.7437V165.472ZM88.1483 172.84V162.546H89.4236V172.84H88.1483ZM102.268 162.546V172.851H100.993V162.546H102.268ZM94.0353 166.93C94.0296 164.709 95.1626 163.297 96.7226 163.297C98.2655 163.297 99.4042 164.709 99.4099 166.93C99.4042 169.167 98.2655 170.574 96.7226 170.574C95.1626 170.574 94.0296 169.167 94.0353 166.93ZM95.2537 166.93C95.2537 168.513 95.8515 169.429 96.7226 169.435C97.588 169.429 98.1801 168.513 98.1801 166.93C98.1801 165.358 97.588 164.436 96.7226 164.436C95.8515 164.436 95.2537 165.358 95.2537 166.93ZM107.426 164.186C107.426 165.478 108.263 166.702 109.852 167.203L109.168 168.194C108.058 167.818 107.261 167.066 106.811 166.11C106.367 167.203 105.536 168.063 104.352 168.478L103.669 167.488C105.325 166.913 106.157 165.541 106.162 164.072V163.092H107.426V164.186ZM105.069 170.87C105.069 169.651 106.407 168.928 108.553 168.934C110.683 168.928 111.998 169.651 112.004 170.87C111.998 172.117 110.683 172.828 108.553 172.828C106.407 172.828 105.069 172.117 105.069 170.87ZM106.333 170.87C106.333 171.507 107.142 171.826 108.553 171.826C109.96 171.826 110.751 171.507 110.751 170.87C110.751 170.266 109.96 169.925 108.553 169.925C107.142 169.925 106.333 170.266 106.333 170.87ZM110.637 168.706V162.546H111.901V165.051H113.336V166.099H111.901V168.706H110.637ZM117.196 163.263C118.83 163.258 120.02 164.288 120.031 165.746C120.02 167.209 118.83 168.234 117.196 168.239C115.579 168.234 114.366 167.209 114.372 165.746C114.366 164.288 115.579 163.258 117.196 163.263ZM113.905 169.663C115.761 169.663 118.329 169.64 120.555 169.321L120.658 170.243C118.352 170.682 115.881 170.699 114.065 170.699L113.905 169.663ZM115.625 165.746C115.619 166.605 116.297 167.135 117.196 167.135C118.107 167.135 118.785 166.605 118.79 165.746C118.785 164.892 118.113 164.356 117.196 164.356C116.297 164.356 115.619 164.892 115.625 165.746ZM121.17 172.851V162.546H122.434V172.851H121.17ZM132.033 163.172C132.027 165.825 130.28 167.687 127.285 168.524L126.772 167.533C129.078 166.907 130.445 165.7 130.678 164.197H127.33V163.172H132.033ZM128.549 172.703V168.763H135.324V172.703H128.549ZM129.79 171.701H134.071V169.765H129.79V171.701ZM132.079 166.11V165.074H134.06V162.557H135.324V168.353H134.06V166.11H132.079ZM139.992 164.413C139.998 165.563 140.636 166.702 141.985 167.237L141.302 168.205C140.397 167.841 139.759 167.169 139.395 166.349C139.013 167.271 138.341 168.057 137.362 168.478L136.69 167.499C138.108 166.879 138.768 165.575 138.774 164.413V163.161H139.992V164.413ZM138.535 170.289V169.276H145.583V172.84H144.319V170.289H138.535ZM142.167 168.729V162.728H143.352V165.119H144.376V162.557H145.583V168.786H144.376V166.167H143.352V168.729H142.167ZM154.978 162.557V165.586H156.424V166.645H154.978V170.13H153.714V162.557H154.978ZM147.246 164.231V163.195H151.949V166.326H148.521V167.59C150.263 167.585 151.47 167.511 152.871 167.26L153.008 168.296C151.476 168.564 150.132 168.615 148.1 168.615H147.257V165.37H150.707V164.231H147.246ZM148.43 172.635V169.526H149.717V171.61H155.399V172.635H148.43ZM161.616 162.705C163.962 162.711 165.322 163.332 165.328 164.47C165.322 165.62 163.962 166.241 161.616 166.247C159.276 166.241 157.904 165.62 157.904 164.47C157.904 163.332 159.276 162.711 161.616 162.705ZM156.936 167.807V166.793H166.319V167.807H156.936ZM158.041 169.435V168.501H165.146V171.018H159.293V171.781H165.431V172.749H158.052V170.118H163.905V169.435H158.041ZM159.236 164.47C159.231 165.04 160.05 165.302 161.616 165.302C163.205 165.302 164.019 165.04 164.019 164.47C164.019 163.941 163.205 163.639 161.616 163.639C160.05 163.639 159.231 163.941 159.236 164.47ZM172.923 165.677C172.923 167.249 173.567 168.866 175.03 169.629L174.312 170.562C173.356 170.061 172.707 169.162 172.337 168.086C171.972 169.247 171.323 170.243 170.361 170.79L169.632 169.856C171.073 169.019 171.722 167.306 171.728 165.677V165.393H169.928V164.356H171.728V162.91H172.923V164.356H174.699V165.393H172.923V165.677ZM175.246 172.339V162.728H176.442V166.577H177.501V162.546H178.708V172.84H177.501V167.624H176.442V172.339H175.246ZM188.546 162.557V172.828H187.259V170.471H185.073V169.515H187.259V162.557H188.546ZM179.812 167.841C181.748 167.835 184.321 167.829 186.553 167.522L186.633 168.456C185.688 168.615 184.714 168.718 183.763 168.78V172.521H182.488V168.843C181.589 168.877 180.735 168.877 179.972 168.877L179.812 167.841ZM180.552 165.085C180.552 163.861 181.645 163.001 183.194 163.001C184.708 163.001 185.813 163.861 185.813 165.085C185.813 166.338 184.708 167.152 183.194 167.158C181.645 167.152 180.552 166.338 180.552 165.085ZM181.748 165.085C181.742 165.774 182.329 166.19 183.194 166.19C184.014 166.19 184.606 165.774 184.606 165.085C184.606 164.413 184.02 163.969 183.194 163.969C182.329 163.969 181.742 164.413 181.748 165.085ZM199.318 168.285V169.31H195.23V172.828H193.977V169.31H189.935V168.285H199.318ZM190.425 166.6C192.446 166.343 193.801 165.256 193.892 164.129H190.8V163.127H198.452V164.129H195.361C195.446 165.256 196.79 166.343 198.828 166.6L198.373 167.59C196.619 167.34 195.253 166.537 194.626 165.427C193.994 166.537 192.639 167.34 190.903 167.59L190.425 166.6ZM203.223 165.245C203.229 166.907 203.798 168.638 205.193 169.515L204.499 170.483C203.571 169.925 202.967 168.968 202.626 167.846C202.256 169.082 201.595 170.13 200.627 170.722L199.842 169.777C201.339 168.871 201.999 167.055 202.005 165.302V163.457H203.223V165.245ZM204.089 167.135V166.087H205.558V162.728H206.753V172.339H205.558V167.135H204.089ZM207.676 172.84V162.546H208.894V172.84H207.676ZM219.495 170.551V171.587H210.09V170.551H212.265V167.949C211.445 167.476 210.949 166.736 210.955 165.825C210.949 164.186 212.555 163.104 214.77 163.104C216.996 163.104 218.613 164.186 218.607 165.825C218.613 166.725 218.129 167.448 217.332 167.92V170.551H219.495ZM212.196 165.825C212.191 166.879 213.232 167.55 214.77 167.545C216.301 167.55 217.366 166.879 217.366 165.825C217.366 164.755 216.301 164.1 214.77 164.106C213.232 164.1 212.191 164.755 212.196 165.825ZM213.517 170.551H216.045V168.404C215.652 168.49 215.225 168.535 214.77 168.535C214.326 168.535 213.904 168.49 213.517 168.41V170.551ZM221.42 171.917C220.93 171.917 220.526 171.519 220.531 171.029C220.526 170.551 220.93 170.158 221.42 170.152C221.892 170.158 222.296 170.551 222.296 171.029C222.296 171.519 221.892 171.917 221.42 171.917Z" fill="#131214"/>
<path d="M68.2088 199.19V208.279H67.2472V199.19H68.2088ZM61.0123 203.046C61.0123 201.108 61.989 199.873 63.3605 199.868C64.7067 199.873 65.6986 201.108 65.6986 203.046C65.6986 205.005 64.7067 206.24 63.3605 206.234C61.989 206.24 61.0123 205.005 61.0123 203.046ZM61.9435 203.046C61.9384 204.488 62.5153 205.374 63.3605 205.374C64.1905 205.374 64.7674 204.488 64.7674 203.046C64.7674 201.624 64.1905 200.733 63.3605 200.728C62.5153 200.733 61.9384 201.624 61.9435 203.046ZM77.9457 203.836V204.605H69.646V203.836H77.9457ZM70.6885 200.151V199.392H76.9032V201.629H71.6602V202.408H77.0854V203.147H70.7088V200.921H75.9417V200.151H70.6885ZM70.7493 208.147V205.344H76.9133V208.147H70.7493ZM71.7007 207.368H75.9619V206.113H71.7007V207.368ZM85.9317 199.767V203.491H81.6199V199.767H85.9317ZM82.2171 207.49C83.8669 207.328 85.1574 206.503 85.2232 205.688H82.5814V204.959H85.2434V204.109H86.1949V204.959H88.867V205.688H86.2151C86.2809 206.477 87.541 207.307 89.1909 207.49L88.867 208.228C87.4449 208.056 86.2708 207.449 85.7242 206.649C85.1675 207.459 83.9782 208.056 82.5511 208.228L82.2171 207.49ZM82.5612 202.742H84.9803V200.536H82.5612V202.742ZM87.703 204.372V199.19H88.6544V204.372H87.703ZM100.173 199.19V208.259H99.2011V199.19H100.173ZM92.7233 205.83C95.1322 204.681 96.3114 203.046 96.4987 200.931H93.1585V200.161H97.4703C97.4703 202.818 96.3418 205.116 93.2294 206.609L92.7233 205.83ZM104.1 199.605C105.294 199.595 106.22 200.288 106.418 201.305H108.189V199.19H109.151V204.058H108.189V202.095H106.423C106.236 203.137 105.304 203.836 104.1 203.836C102.713 203.836 101.716 202.96 101.721 201.71C101.716 200.475 102.713 199.595 104.1 199.605ZM102.642 201.71C102.637 202.484 103.245 203.026 104.1 203.026C104.94 203.026 105.537 202.484 105.537 201.71C105.537 200.931 104.94 200.399 104.1 200.404C103.245 200.399 102.637 200.931 102.642 201.71ZM103.24 208.147V204.494H104.191V205.546H108.189V204.494H109.151V208.147H103.24ZM104.191 207.358H108.189V206.305H104.191V207.358ZM118.108 199.19V204.544H117.147V203.198H115.173V203.937H110.962V199.868H115.173V200.617H117.147V199.19H118.108ZM111.914 203.168H114.232V200.637H111.914V203.168ZM112.005 206.528C112 205.43 113.164 204.792 115.072 204.797C116.97 204.792 118.134 205.43 118.139 206.528C118.134 207.621 116.97 208.244 115.072 208.239C113.164 208.244 112 207.621 112.005 206.528ZM112.956 206.528C112.951 207.135 113.741 207.495 115.072 207.5C116.393 207.495 117.182 207.135 117.187 206.528C117.182 205.89 116.393 205.541 115.072 205.536C113.741 205.541 112.951 205.89 112.956 206.528ZM115.173 202.419H117.147V201.386H115.173V202.419Z" fill="#131214"/>
<rect x="60.6884" y="215.201" width="221.542" height="30.4458" rx="4.85838" stroke="#E6E9EB" stroke-width="0.647783"/>
<path d="M75.8405 226.651C75.8405 228.923 74.1704 230.543 71.5186 231.246L71.1947 230.619C73.4164 230.032 74.8233 228.837 74.9953 227.299H71.6704V226.651H75.8405ZM72.6724 234.941V231.59H78.5227V234.941H72.6724ZM73.4518 234.293H77.7433V232.228H73.4518V234.293ZM77.7332 231.155V226.074H78.5227V231.155H77.7332ZM87.3386 230.932V231.58H81.1138V226.843H87.2374V227.511H81.9236V228.847H87.0451V229.485H81.9236V230.932H87.3386ZM80.0511 233.888V233.23H88.2901V233.888H80.0511ZM96.6505 226.074V231.692H95.8914V229.141H94.6262V231.611H93.8873V226.246H94.6262V228.483H95.8914V226.074H96.6505ZM89.4034 227.37V226.722H92.8144V229.242H90.1929V230.578C91.3772 230.573 92.2881 230.522 93.3509 230.295L93.442 230.963C92.2729 231.18 91.3164 231.231 90.0107 231.226H89.4237V228.635H92.0553V227.37H89.4034ZM90.5877 232.795V232.147H96.6505V235.062H95.8712V232.795H90.5877Z" fill="#131214"/>
<path d="M68.2088 258.422V267.511H67.2472V258.422H68.2088ZM61.0123 262.279C61.0123 260.34 61.989 259.105 63.3605 259.1C64.7067 259.105 65.6986 260.34 65.6986 262.279C65.6986 264.237 64.7067 265.472 63.3605 265.467C61.989 265.472 61.0123 264.237 61.0123 262.279ZM61.9435 262.279C61.9384 263.721 62.5153 264.607 63.3605 264.607C64.1905 264.607 64.7674 263.721 64.7674 262.279C64.7674 260.856 64.1905 259.966 63.3605 259.961C62.5153 259.966 61.9384 260.856 61.9435 262.279ZM73.4821 259.445V261.803H74.6967V258.594H75.6178V267.046H74.6967V262.592H73.4821V265.102H69.9598V259.445H73.4821ZM70.8707 264.333H72.5813V260.204H70.8707V264.333ZM76.5388 267.491V258.422H77.4599V267.491H76.5388ZM81.1847 258.726C82.5511 258.736 83.5582 259.571 83.5632 260.76C83.5582 261.955 82.5511 262.785 81.1847 262.785C79.8031 262.785 78.801 261.955 78.796 260.76C78.801 259.571 79.8031 258.736 81.1847 258.726ZM79.7373 260.76C79.7322 261.509 80.3496 262.005 81.1847 262.005C82.0146 262.005 82.632 261.509 82.632 260.76C82.632 260.021 82.0146 259.525 81.1847 259.536C80.3496 259.525 79.7322 260.021 79.7373 260.76ZM80.1725 264.222V263.453H86.1341V265.74H81.134V266.611H86.4378V267.38H80.2029V265.022H85.1827V264.222H80.1725ZM85.1726 263.038V258.422H86.1341V263.038H85.1726Z" fill="#131214"/>
<rect x="60.6884" y="274.433" width="221.542" height="30.4458" rx="4.85838" stroke="#E6E9EB" stroke-width="0.647783"/>
<path d="M74.4842 289.406C74.3627 288.95 74.0135 288.652 73.3708 288.647C72.6927 288.652 72.2119 289.016 72.2068 289.477C72.2119 289.841 72.5054 290.089 73.1481 290.246L73.968 290.448C74.9498 290.681 75.4306 291.172 75.4356 291.936C75.4306 292.888 74.6563 293.591 73.2797 293.586C72.0449 293.591 71.3111 293.039 71.1643 292.037H72.0752C72.1765 292.574 72.5661 292.832 73.2595 292.827C74.0439 292.832 74.5348 292.503 74.5348 291.987C74.5348 291.597 74.2564 291.344 73.634 291.197L72.804 291.005C71.8475 290.782 71.3364 290.261 71.3364 289.527C71.3364 288.586 72.1613 287.908 73.3708 287.908C74.5095 287.908 75.2231 288.515 75.3344 289.406H74.4842ZM80.041 291.217V287.979H80.9013V293.475H80.041V292.543H79.9802C79.7221 293.1 79.1756 293.545 78.3506 293.545C77.3081 293.545 76.5642 292.867 76.5692 291.471V287.979H77.4397V291.41C77.4397 292.199 77.9306 292.71 78.634 292.705C79.2565 292.71 80.0359 292.245 80.041 291.217ZM82.1361 293.475V292.817L85.2333 288.839V288.778H82.2373V287.979H86.3568V288.667L83.3507 292.614V292.675H86.4581V293.475H82.1361ZM87.6119 293.475V287.979H88.4824V293.475H87.6119ZM87.4399 286.491C87.4348 286.167 87.7131 285.909 88.0471 285.914C88.3812 285.909 88.6595 286.167 88.6646 286.491C88.6595 286.81 88.3812 287.068 88.0471 287.068C87.7131 287.068 87.4348 286.81 87.4399 286.491ZM89.869 293.475V286.147H90.7395V290.408H90.8407L93.2193 287.979H94.2922L91.9743 290.332L94.4643 293.475H93.361L91.3215 290.883L90.7395 291.425V293.475H89.869ZM95.2234 293.475V287.979H96.0938V293.475H95.2234ZM95.0513 286.491C95.0462 286.167 95.3246 285.909 95.6586 285.914C95.9926 285.909 96.271 286.167 96.276 286.491C96.271 286.81 95.9926 287.068 95.6586 287.068C95.3246 287.068 95.0462 286.81 95.0513 286.491ZM97.4805 293.475V287.979H98.3206V288.839H98.3914C98.6192 288.252 99.1506 287.908 99.8692 287.908C100.588 287.908 101.079 288.252 101.337 288.839H101.398C101.676 288.272 102.258 287.908 103.047 287.908C104.024 287.908 104.728 288.505 104.728 289.8V293.475H103.857V289.811C103.852 289.001 103.346 288.687 102.744 288.687C101.98 288.687 101.544 289.203 101.539 289.902V293.475H100.659V289.719C100.664 289.102 100.218 288.687 99.5858 288.687C98.9279 288.687 98.351 289.244 98.351 290.043V293.475H97.4805ZM109.748 292.513C108.731 292.508 107.997 291.693 107.997 290.377C107.997 289.072 108.746 288.257 109.758 288.252C110.487 288.257 110.785 288.723 110.912 288.95H110.962V288.333H111.732V291.288C111.747 291.683 111.909 291.88 112.238 291.875C112.865 291.88 113.285 291.147 113.29 290.094C113.301 288.186 111.919 286.941 109.981 286.936C107.977 286.946 106.686 288.495 106.681 290.377C106.681 292.437 107.805 293.849 109.94 293.829C110.649 293.819 111.114 293.773 111.732 293.606V294.294C111.2 294.436 110.608 294.527 109.94 294.527C107.465 294.527 105.947 292.943 105.952 290.377C105.942 287.984 107.622 286.238 109.981 286.238C112.4 286.238 114.029 287.882 114.019 290.064C114.024 291.638 113.215 292.554 112.187 292.554C111.55 292.554 111.069 292.194 111.028 291.724H110.962C110.846 291.951 110.537 292.508 109.748 292.513ZM108.786 290.367C108.781 291.157 109.176 291.769 109.879 291.774C110.603 291.769 110.968 291.207 110.973 290.367C110.968 289.547 110.608 288.996 109.879 288.991C109.171 288.996 108.781 289.593 108.786 290.367ZM117.643 287.979V288.707H116.489V291.896C116.484 292.599 116.838 292.715 117.208 292.715C117.364 292.715 117.597 292.7 117.724 292.695V293.505C117.587 293.525 117.375 293.545 117.116 293.545C116.383 293.545 115.613 293.09 115.608 292.118V288.707H114.778V287.979H115.608V286.663H116.489V287.979H117.643ZM118.766 293.475V287.979H119.606V288.819H119.667C119.864 288.262 120.436 287.893 121.084 287.887C121.216 287.893 121.438 287.898 121.54 287.908V288.788C121.474 288.773 121.241 288.728 121.013 288.728C120.224 288.728 119.637 289.274 119.637 290.013V293.475H118.766ZM122.117 291.916C122.117 290.656 123.23 290.367 124.181 290.296C124.536 290.271 125.421 290.221 125.669 290.215V289.77C125.669 289.072 125.254 288.667 124.424 288.667C123.731 288.667 123.311 288.986 123.189 289.406H122.278C122.39 288.52 123.25 287.908 124.465 287.908C125.183 287.908 126.535 288.12 126.53 289.851V293.475H125.669V292.726H125.629C125.447 293.095 124.945 293.601 123.989 293.606C122.946 293.601 122.117 292.989 122.117 291.916ZM122.987 291.956C122.992 292.538 123.473 292.832 124.141 292.827C125.123 292.832 125.669 292.174 125.669 291.481V290.929C125.411 290.944 124.546 291.01 124.283 291.025C123.493 291.076 122.992 291.354 122.987 291.956ZM130.173 293.586C128.615 293.591 127.663 292.402 127.663 290.752C127.663 289.082 128.66 287.908 130.153 287.908C131.322 287.908 132.203 288.601 132.339 289.639H131.469C131.342 289.137 130.907 288.677 130.173 288.677C129.192 288.677 128.539 289.487 128.534 290.722C128.539 291.992 129.176 292.807 130.173 292.807C130.821 292.807 131.317 292.457 131.469 291.855H132.339C132.203 292.837 131.393 293.591 130.173 293.586ZM133.412 293.475V286.147H134.283V290.408H134.384L136.762 287.979H137.835L135.518 290.332L138.007 293.475H136.904L134.865 290.883L134.283 291.425V293.475H133.412ZM140.841 293.586C139.252 293.591 138.271 292.457 138.271 290.772C138.271 289.082 139.268 287.908 140.761 287.908C141.914 287.908 143.134 288.616 143.129 290.651V291.015H139.141C139.187 292.179 139.865 292.817 140.841 292.817C141.499 292.817 141.914 292.528 142.117 292.189H143.048C142.79 293.024 141.975 293.591 140.841 293.586ZM139.146 290.276H142.248C142.243 289.36 141.666 288.677 140.761 288.677C139.809 288.677 139.207 289.426 139.146 290.276ZM144.263 293.475V287.979H145.103V288.819H145.163C145.361 288.262 145.933 287.893 146.58 287.887C146.712 287.893 146.935 287.898 147.036 287.908V288.788C146.97 288.773 146.737 288.728 146.51 288.728C145.72 288.728 145.133 289.274 145.133 290.013V293.475H144.263ZM150.639 289.942V290.742H147.431V289.942H150.639ZM154.222 293.586C152.664 293.591 151.712 292.402 151.712 290.752C151.712 289.082 152.709 287.908 154.202 287.908C155.371 287.908 156.252 288.601 156.388 289.639H155.518C155.391 289.137 154.956 288.677 154.222 288.677C153.24 288.677 152.588 289.487 152.583 290.722C152.588 291.992 153.225 292.807 154.222 292.807C154.87 292.807 155.366 292.457 155.518 291.855H156.388C156.252 292.837 155.442 293.591 154.222 293.586ZM159.708 293.586C158.21 293.591 157.198 292.457 157.198 290.752C157.198 289.036 158.21 287.908 159.708 287.908C161.201 287.908 162.203 289.036 162.198 290.752C162.203 292.457 161.201 293.591 159.708 293.586ZM158.068 290.752C158.074 291.85 158.59 292.817 159.708 292.817C160.816 292.817 161.328 291.85 161.328 290.752C161.328 289.659 160.816 288.677 159.708 288.677C158.59 288.677 158.074 289.659 158.068 290.752ZM164.212 286.147V293.475H163.342V286.147H164.212ZM166.469 286.147V293.475H165.599V286.147H166.469ZM168.413 295.539C168.226 295.534 168.038 295.529 167.927 295.519V294.74C168.018 294.75 168.215 294.755 168.352 294.76C168.706 294.755 169.005 294.735 169.293 293.93L169.455 293.515L167.421 287.979H168.372L169.87 292.341H169.931L171.429 287.979H172.38L170.052 294.264C169.729 295.129 169.192 295.534 168.413 295.539ZM173.615 293.535C173.261 293.53 172.957 293.237 172.967 292.877C172.957 292.523 173.261 292.23 173.615 292.23C173.975 292.23 174.268 292.523 174.263 292.877C174.268 293.237 173.975 293.53 173.615 293.535ZM177.876 293.586C176.318 293.591 175.366 292.402 175.366 290.752C175.366 289.082 176.363 287.908 177.856 287.908C179.025 287.908 179.906 288.601 180.043 289.639H179.172C179.046 289.137 178.61 288.677 177.876 288.677C176.895 288.677 176.242 289.487 176.237 290.722C176.242 291.992 176.88 292.807 177.876 292.807C178.524 292.807 179.02 292.457 179.172 291.855H180.043C179.906 292.837 179.096 293.591 177.876 293.586ZM183.362 293.586C181.864 293.591 180.852 292.457 180.852 290.752C180.852 289.036 181.864 287.908 183.362 287.908C184.855 287.908 185.857 289.036 185.852 290.752C185.857 292.457 184.855 293.591 183.362 293.586ZM181.723 290.752C181.728 291.85 182.244 292.817 183.362 292.817C184.471 292.817 184.982 291.85 184.982 290.752C184.982 289.659 184.471 288.677 183.362 288.677C182.244 288.677 181.728 289.659 181.723 290.752ZM186.996 293.475V287.979H187.836V288.839H187.907C188.135 288.252 188.666 287.908 189.385 287.908C190.103 287.908 190.594 288.252 190.852 288.839H190.913C191.191 288.272 191.773 287.908 192.563 287.908C193.54 287.908 194.243 288.505 194.243 289.8V293.475H193.373V289.811C193.368 289.001 192.862 288.687 192.259 288.687C191.495 288.687 191.06 289.203 191.055 289.902V293.475H190.174V289.719C190.179 289.102 189.734 288.687 189.101 288.687C188.443 288.687 187.867 289.244 187.867 290.043V293.475H186.996Z" fill="#131214"/>
<path d="M64.0285 319.96C64.0184 321.615 65.0204 323.285 66.4273 323.908L65.8504 324.667C64.8079 324.171 63.983 323.154 63.5579 321.914C63.1378 323.245 62.3028 324.338 61.2147 324.869L60.6277 324.06C62.0548 323.427 63.0569 321.691 63.0569 319.96V318.412H64.0285V319.96ZM67.2472 326.742V317.653H68.2088V326.742H67.2472ZM77.1866 317.653V326.742H76.2251V317.653H77.1866ZM70.1622 319.252V318.473H74.4133V321.782H71.1541V323.766C72.6268 323.761 73.9072 323.69 75.4255 323.442L75.5166 324.232C73.9123 324.5 72.5459 324.561 70.9416 324.566H70.1723V321.013H73.4315V319.252H70.1622ZM86.1645 317.653V322.238H85.2131V320.396H83.4468C83.2495 321.408 82.3233 322.086 81.1239 322.086C79.7524 322.086 78.7403 321.231 78.7453 320.001C78.7403 318.791 79.7524 317.946 81.1239 317.946C82.3233 317.946 83.2444 318.609 83.4418 319.606H85.2131V317.653H86.1645ZM79.6664 320.001C79.6614 320.78 80.2737 321.296 81.1239 321.296C81.9488 321.296 82.5612 320.78 82.5612 320.001C82.5612 319.252 81.9488 318.731 81.1239 318.736C80.2737 318.731 79.6614 319.252 79.6664 320.001ZM80.2332 323.463V322.714H86.1645V324.971H81.215V325.841H86.4884V326.61H80.2535V324.252H85.2131V323.463H80.2332ZM97.6626 323.28V326.61H91.7213V323.28H97.6626ZM90.6382 322.359V318.179H91.5897V321.539C92.9004 321.534 94.0948 321.443 95.3853 321.185L95.4966 321.995C94.0847 322.283 92.8043 322.359 91.3468 322.359H90.6382ZM92.6727 325.831H96.7213V324.05H92.6727V325.831ZM94.2112 320.082V319.303H96.7011V317.653H97.6626V322.865H96.7011V320.082H94.2112ZM106.62 317.653V326.742H105.669V321.752H103.665V324.495H99.4137V318.351H100.385V320.669H102.723V318.351H103.665V320.962H105.669V317.653H106.62ZM100.385 323.705H102.723V321.428H100.385V323.705Z" fill="#131214"/>
<rect x="60.6884" y="333.664" width="221.542" height="30.4458" rx="4.85838" stroke="#E6E9EB" stroke-width="0.647783"/>
<path d="M60.9718 150.746V149.795L63.5629 147.295C64.3018 146.556 64.6864 146.121 64.6864 145.503C64.6864 144.82 64.1449 144.39 63.4314 144.39C62.6773 144.39 62.1915 144.86 62.1965 145.604H60.9414C60.9364 144.218 61.9789 143.317 63.4415 143.317C64.9395 143.317 65.9466 144.213 65.9516 145.442C65.9466 146.267 65.5518 146.935 64.1095 148.297L62.8038 149.592V149.643H66.063V150.746H60.9718Z" fill="#04B014"/>
<path d="M70.2128 143.074L67.8545 151.849H66.7209L69.0893 143.074H70.2128ZM70.7999 149.38V148.327L73.9679 143.418H75.6076V148.297H76.5692V149.38H75.6076V150.746H74.3526V149.38H70.7999ZM72.1461 148.297H74.3728V144.916H74.2918L72.1461 148.246V148.297Z" fill="#131214"/>
<rect width="242.919" height="34.9803" transform="translate(50 52)" fill="white"/>
<path d="M85.9917 66.497C87.5134 66.5078 89.0297 67.4165 89.0351 70.261C89.0351 72.9442 87.8199 74.4982 85.9056 74.4982C84.4054 74.4982 83.3677 73.5626 83.1956 72.272H84.5829C84.7227 72.8904 85.2012 73.2829 85.9056 73.2829C87.0348 73.2829 87.6693 72.2882 87.6801 70.6159H87.5941C87.2015 71.2934 86.4487 71.6967 85.5938 71.6913C84.2011 71.6967 83.1257 70.6374 83.1203 69.1641C83.1203 67.6424 84.2656 66.4863 85.9917 66.497ZM84.4861 69.1318C84.4861 69.9706 85.1098 70.6266 85.9809 70.6266C86.8466 70.6266 87.5134 69.9276 87.508 69.1211C87.508 68.3306 86.8735 67.6316 86.0024 67.6262C85.126 67.6316 84.4753 68.2984 84.4861 69.1318ZM91.0569 73.4227C90.5945 73.4227 90.2127 73.0463 90.2181 72.5839C90.2127 72.1322 90.5945 71.7612 91.0569 71.7558C91.5032 71.7612 91.885 72.1322 91.885 72.5839C91.885 73.0463 91.5032 73.4227 91.0569 73.4227ZM90.2181 68.4113C90.2127 67.9596 90.5945 67.5886 91.0569 67.5832C91.5032 67.5886 91.885 67.9596 91.885 68.4113C91.885 68.8737 91.5032 69.2501 91.0569 69.2501C90.5945 69.2501 90.2127 68.8737 90.2181 68.4113ZM93.0572 72.9388V71.8204L96.4233 66.6046H98.1655V71.7881H99.1871V72.9388H98.1655V74.3906H96.8319V72.9388H93.0572ZM94.4875 71.7881H96.8534V68.1962H96.7674L94.4875 71.7343V71.7881ZM103.36 66.6046V74.3906H101.951V67.9704H101.908L100.09 69.1318V67.8521L102.015 66.6046H103.36Z" fill="#131214"/>
<rect opacity="0.35" x="256.925" y="66.7321" width="15.5468" height="7.7734" rx="2.46158" stroke="#131214" stroke-width="0.647783"/>
<path opacity="0.4" d="M273.443 69.5059V72.1459C273.965 71.9223 274.304 71.4021 274.304 70.8259C274.304 70.2496 273.965 69.7295 273.443 69.5059Z" fill="#131214"/>
<rect x="257.896" y="67.7031" width="13.6034" height="5.83005" rx="1.61946" fill="#131214"/>
<path fill-rule="evenodd" clip-rule="evenodd" d="M246.412 68.4199C248.023 68.4199 249.572 69.0173 250.74 70.0884C250.828 70.171 250.968 70.17 251.055 70.086L251.895 69.2676C251.939 69.225 251.964 69.1673 251.963 69.1072C251.963 69.0472 251.938 68.9898 251.893 68.9477C248.829 66.1138 243.994 66.1138 240.929 68.9477C240.885 68.9897 240.86 69.0471 240.859 69.1072C240.859 69.1672 240.883 69.2249 240.927 69.2676L241.768 70.086C241.854 70.1701 241.995 70.1712 242.083 70.0884C243.251 69.0172 244.8 68.4199 246.412 68.4199ZM246.409 71.1537C247.289 71.1537 248.136 71.4851 248.788 72.0838C248.876 72.1687 249.015 72.1669 249.101 72.0796L249.935 71.225C249.979 71.1802 250.003 71.1194 250.003 71.0562C250.002 70.993 249.976 70.9327 249.932 70.8888C247.947 69.0161 244.873 69.0161 242.889 70.8888C242.844 70.9327 242.818 70.993 242.818 71.0562C242.817 71.1194 242.842 71.1802 242.886 71.225L243.719 72.0796C243.805 72.1669 243.944 72.1687 244.032 72.0838C244.683 71.4855 245.531 71.1541 246.409 71.1537ZM248.045 72.9633C248.046 73.0316 248.022 73.0974 247.978 73.1452L246.568 74.7353C246.527 74.782 246.471 74.8083 246.412 74.8083C246.353 74.8083 246.297 74.782 246.255 74.7353L244.845 73.1452C244.802 73.0973 244.778 73.0315 244.779 72.9633C244.78 72.895 244.807 72.8304 244.852 72.7847C245.752 71.9335 247.071 71.9335 247.972 72.7847C248.017 72.8304 248.043 72.8951 248.045 72.9633Z" fill="#131214"/>
<path fill-rule="evenodd" clip-rule="evenodd" d="M236.001 67.4984C236.001 67.0883 235.692 66.7559 235.31 66.7559H234.619C234.238 66.7559 233.928 67.0883 233.928 67.4984V73.9334C233.928 74.3435 234.238 74.6759 234.619 74.6759H235.31C235.692 74.6759 236.001 74.3435 236.001 73.9334V67.4984ZM231.186 68.3399H231.877C232.258 68.3399 232.568 68.6803 232.568 69.1002V73.9156C232.568 74.3355 232.258 74.6759 231.877 74.6759H231.186C230.804 74.6759 230.495 74.3355 230.495 73.9156V69.1002C230.495 68.6803 230.804 68.3399 231.186 68.3399ZM228.38 70.0559H227.689C227.307 70.0559 226.998 70.4006 226.998 70.8259V73.9059C226.998 74.3312 227.307 74.6759 227.689 74.6759H228.38C228.761 74.6759 229.071 74.3312 229.071 73.9059V70.8259C229.071 70.4006 228.761 70.0559 228.38 70.0559ZM224.946 71.6399H224.255C223.873 71.6399 223.564 71.9797 223.564 72.3989V73.9169C223.564 74.3361 223.873 74.6759 224.255 74.6759H224.946C225.327 74.6759 225.637 74.3361 225.637 73.9169V72.3989C225.637 71.9797 225.327 71.6399 224.946 71.6399Z" fill="#131214"/>
<rect width="242.919" height="41.4581" transform="translate(50 86.9824)" fill="white"/>
<path d="M166.727 101.968C166.721 104.916 164.778 106.985 161.451 107.915L160.882 106.814C163.444 106.118 164.962 104.777 165.221 103.107H161.502V101.968H166.727ZM162.855 112.558V108.181H170.383V112.558H162.855ZM164.234 111.445H168.992V109.294H164.234V111.445ZM166.777 105.233V104.081H168.979V101.285H170.383V107.725H168.979V105.233H166.777ZM175.571 103.348C175.577 104.625 176.285 105.891 177.785 106.485L177.026 107.561C176.02 107.156 175.311 106.409 174.906 105.498C174.483 106.523 173.736 107.396 172.648 107.864L171.902 106.776C173.477 106.087 174.211 104.638 174.217 103.348V101.956H175.571V103.348ZM173.951 109.876V108.75H181.783V112.71H180.378V109.876H173.951ZM177.987 108.143V101.475H179.303V104.132H180.442V101.285H181.783V108.206H180.442V105.296H179.303V108.143H177.987Z" fill="#131214"/>
<path d="M68.7857 112.89L63.8752 108.318C63.5129 107.981 63.5129 107.434 63.8752 107.097L68.7857 102.525" stroke="#131214" stroke-width="0.971675" stroke-linecap="round"/>
</g>
<rect x="48.5127" y="50.5127" width="245.893" height="528.974" rx="27.3986" stroke="#0C0C0C" stroke-width="2.97451"/>
<rect width="243" height="34.992" transform="translate(50 52)" fill="white"/>
<path d="M85.9999 66.4924C87.5221 66.5032 89.039 67.4122 89.0443 70.2577C89.0443 72.9417 87.8287 74.4962 85.9138 74.4962C84.4131 74.4962 83.375 73.5603 83.2028 72.2694H84.5906C84.7305 72.888 85.2092 73.2806 85.9138 73.2806C87.0434 73.2806 87.6781 72.2855 87.6889 70.6127H87.6028C87.2101 71.2904 86.4571 71.6938 85.6018 71.6885C84.2087 71.6938 83.1329 70.6342 83.1275 69.1604C83.1275 67.6381 84.2732 66.4817 85.9999 66.4924ZM84.4938 69.1281C84.4938 69.9672 85.1177 70.6234 85.9891 70.6234C86.8551 70.6234 87.5221 69.9242 87.5167 69.1173C87.5167 68.3266 86.882 67.6274 86.0106 67.622C85.1339 67.6274 84.483 68.2944 84.4938 69.1281ZM91.0668 73.4205C90.6042 73.4205 90.2223 73.0439 90.2277 72.5814C90.2223 72.1295 90.6042 71.7584 91.0668 71.753C91.5133 71.7584 91.8952 72.1295 91.8952 72.5814C91.8952 73.0439 91.5133 73.4205 91.0668 73.4205ZM90.2277 68.4073C90.2223 67.9555 90.6042 67.5844 91.0668 67.579C91.5133 67.5844 91.8952 67.9555 91.8952 68.4073C91.8952 68.8699 91.5133 69.2464 91.0668 69.2464C90.6042 69.2464 90.2223 68.8699 90.2277 68.4073ZM93.0678 72.9364V71.8176L96.435 66.6H98.1777V71.7853H99.1997V72.9364H98.1777V74.3887H96.8438V72.9364H93.0678ZM94.4986 71.7853H96.8653V68.1922H96.7792L94.4986 71.7315V71.7853ZM103.374 66.6V74.3887H101.964V67.9663H101.921L100.103 69.1281V67.8479L102.029 66.6H103.374Z" fill="#131214"/>
<rect opacity="0.35" x="256.994" y="66.7322" width="15.552" height="7.776" rx="2.4624" stroke="#131214" stroke-width="0.648"/>
<path opacity="0.4" d="M273.518 69.5059V72.1468C274.039 71.9231 274.379 71.4028 274.379 70.8263C274.379 70.2498 274.039 69.7295 273.518 69.5059Z" fill="#131214"/>
<rect x="257.966" y="67.7051" width="13.608" height="5.832" rx="1.62" fill="#131214"/>
<path fill-rule="evenodd" clip-rule="evenodd" d="M246.477 68.4204C248.089 68.4205 249.639 69.018 250.807 70.0894C250.895 70.1722 251.035 70.1711 251.122 70.0871L251.963 69.2684C252.007 69.2258 252.031 69.168 252.031 69.108C252.03 69.0479 252.005 68.9905 251.961 68.9484C248.895 66.1136 244.059 66.1136 240.993 68.9484C240.949 68.9905 240.923 69.0479 240.923 69.1079C240.923 69.168 240.947 69.2257 240.991 69.2684L241.832 70.0871C241.918 70.1713 242.059 70.1723 242.147 70.0894C243.315 69.0179 244.865 68.4204 246.477 68.4204ZM246.475 71.1552C247.355 71.1551 248.203 71.4867 248.855 72.0855C248.943 72.1705 249.082 72.1687 249.168 72.0814L250.002 71.2265C250.046 71.1816 250.07 71.1208 250.07 71.0576C250.069 70.9944 250.043 70.9341 249.999 70.8901C248.013 69.0169 244.939 69.0169 242.953 70.8901C242.908 70.9341 242.883 70.9944 242.882 71.0576C242.882 71.1209 242.906 71.1817 242.95 71.2265L243.784 72.0814C243.87 72.1687 244.009 72.1705 244.097 72.0855C244.749 71.4871 245.596 71.1555 246.475 71.1552ZM248.111 72.9654C248.112 73.0336 248.088 73.0995 248.045 73.1473L246.634 74.738C246.593 74.7847 246.536 74.811 246.477 74.811C246.419 74.811 246.362 74.7847 246.321 74.738L244.91 73.1473C244.867 73.0994 244.843 73.0336 244.844 72.9653C244.845 72.8971 244.872 72.8324 244.917 72.7866C245.818 71.9352 247.137 71.9352 248.038 72.7866C248.083 72.8324 248.11 72.8971 248.111 72.9654Z" fill="#131214"/>
<path fill-rule="evenodd" clip-rule="evenodd" d="M236.064 67.4967C236.064 67.0864 235.754 66.7539 235.372 66.7539H234.681C234.299 66.7539 233.99 67.0864 233.99 67.4967V73.9339C233.99 74.3441 234.299 74.6766 234.681 74.6766H235.372C235.754 74.6766 236.064 74.3441 236.064 73.9339V67.4967ZM231.246 68.3384H231.937C232.319 68.3384 232.629 68.679 232.629 69.099V73.916C232.629 74.3361 232.319 74.6766 231.937 74.6766H231.246C230.865 74.6766 230.555 74.3361 230.555 73.916V69.099C230.555 68.679 230.865 68.3384 231.246 68.3384ZM228.439 70.055H227.748C227.366 70.055 227.057 70.3999 227.057 70.8253V73.9064C227.057 74.3318 227.366 74.6766 227.748 74.6766H228.439C228.821 74.6766 229.13 74.3318 229.13 73.9064V70.8253C229.13 70.3999 228.821 70.055 228.439 70.055ZM225.004 71.6396H224.313C223.931 71.6396 223.622 71.9795 223.622 72.3988V73.9174C223.622 74.3367 223.931 74.6766 224.313 74.6766H225.004C225.386 74.6766 225.696 74.3367 225.696 73.9174V72.3988C225.696 71.9795 225.386 71.6396 225.004 71.6396Z" fill="#131214"/>
<rect width="243" height="41.472" transform="translate(50 86.9922)" fill="white"/>
<path d="M124.537 112.514H122.777L126.005 103.351H128.03L131.27 112.514H129.51L128.745 110.248H125.296L124.537 112.514ZM125.739 108.919H128.302L127.055 105.224H126.979L125.739 108.919ZM134.624 112.64C133.01 112.634 131.789 111.343 131.789 109.084C131.789 106.793 133.042 105.553 134.636 105.553C135.845 105.553 136.351 106.28 136.598 106.768H136.661V103.351H138.269V112.514H136.687V111.425H136.598C136.338 111.931 135.813 112.634 134.624 112.64ZM133.434 109.071C133.434 110.368 134.003 111.311 135.067 111.311C136.111 111.311 136.699 110.413 136.699 109.071C136.699 107.736 136.117 106.875 135.067 106.869C133.991 106.875 133.434 107.793 133.434 109.071ZM139.901 112.514V105.641H141.445V106.806H141.534C141.819 106.021 142.508 105.553 143.42 105.553C144.35 105.553 145.021 106.027 145.28 106.806H145.356C145.653 106.046 146.419 105.553 147.419 105.553C148.678 105.553 149.564 106.363 149.558 107.894V112.514H147.951V108.147C147.951 107.293 147.432 106.907 146.774 106.907C145.983 106.907 145.521 107.445 145.521 108.223V112.514H143.951V108.084C143.945 107.369 143.477 106.907 142.787 106.907C142.091 106.907 141.521 107.483 141.521 108.337V112.514H139.901ZM151.102 112.514V105.641H152.722V112.514H151.102ZM150.988 103.781C150.988 103.3 151.412 102.908 151.925 102.908C152.437 102.908 152.861 103.3 152.861 103.781C152.861 104.268 152.437 104.66 151.925 104.667C151.412 104.66 150.988 104.268 150.988 103.781ZM155.886 108.489V112.514H154.266V105.641H155.81V106.806H155.899C156.209 106.04 156.911 105.553 157.936 105.553C159.36 105.553 160.297 106.489 160.29 108.135V112.514H158.683V108.388C158.683 107.464 158.183 106.913 157.342 106.92C156.487 106.913 155.886 107.489 155.886 108.489ZM171.162 106.439C170.966 105.338 170.086 104.705 168.973 104.705C167.473 104.705 166.41 105.856 166.416 107.932C166.41 110.039 167.479 111.159 168.973 111.159C170.061 111.159 170.941 110.552 171.162 109.476H172.82C172.567 111.235 171.118 112.64 168.947 112.64C166.53 112.64 164.752 110.887 164.758 107.932C164.752 104.971 166.549 103.224 168.947 103.224C170.972 103.224 172.535 104.401 172.82 106.439H171.162ZM173.845 110.577C173.845 109.033 175.13 108.584 176.402 108.502C176.883 108.464 177.864 108.419 178.167 108.407L178.161 107.856C178.161 107.173 177.724 106.78 176.921 106.78C176.199 106.78 175.756 107.109 175.63 107.603H174.073C174.187 106.432 175.237 105.553 176.959 105.553C178.262 105.553 179.768 106.091 179.768 107.919V112.514H178.224V111.564H178.174C177.87 112.147 177.231 112.653 176.149 112.653C174.839 112.653 173.845 111.938 173.845 110.577ZM175.402 110.565C175.402 111.159 175.889 111.463 176.566 111.463C177.547 111.463 178.174 110.818 178.174 110.046L178.167 109.482C177.876 109.495 176.978 109.552 176.655 109.577C175.889 109.641 175.402 109.963 175.402 110.565ZM181.287 112.514V105.641H182.857V106.78H182.932C183.179 105.989 183.837 105.54 184.628 105.54C184.806 105.54 185.059 105.559 185.211 105.578V107.071C185.065 107.021 184.73 106.977 184.464 106.97C183.565 106.977 182.907 107.597 182.907 108.464V112.514H181.287ZM188.501 112.64C186.888 112.634 185.666 111.343 185.666 109.084C185.666 106.793 186.919 105.553 188.514 105.553C189.723 105.553 190.229 106.28 190.476 106.768H190.539V103.351H192.146V112.514H190.564V111.425H190.476C190.216 111.931 189.691 112.634 188.501 112.64ZM187.312 109.071C187.312 110.368 187.881 111.311 188.944 111.311C189.988 111.311 190.577 110.413 190.577 109.071C190.577 107.736 189.995 106.875 188.944 106.869C187.868 106.875 187.312 107.793 187.312 109.071ZM206.891 109.071V110.223H202.36V113.653H200.968V110.223H196.462V109.071H206.891ZM197.032 107.261C199.316 106.983 200.816 105.812 200.955 104.667H197.424V103.553H200.968V102.211H202.36V103.553H205.916V104.667H202.385C202.518 105.8 204.011 106.983 206.296 107.261L205.777 108.375C203.885 108.135 202.417 107.306 201.676 106.205C200.93 107.318 199.443 108.135 197.538 108.375L197.032 107.261ZM216.623 102.199V106.666H218.319V107.844H216.623V113.615H215.219V102.199H216.623ZM207.599 110.489C210.384 109.096 211.89 107.16 212.168 104.553H208.22V103.389H213.599C213.592 106.749 212.2 109.704 208.397 111.577L207.599 110.489Z" fill="#131214"/>
<path d="M68.792 113.177L63.8798 108.604C63.5174 108.266 63.5174 107.719 63.8798 107.382L68.792 102.809" stroke="#131214" stroke-width="0.972" stroke-linecap="round"/>
</g>
<rect x="48.5" y="50.5" width="246" height="529.176" rx="27.5" stroke="#0C0C0C" stroke-width="3"/>
</g>
<defs>
<clipPath id="clip0_5318_18147">
<rect width="343" height="343" rx="24" fill="white"/>
</clipPath>
<clipPath id="clip1_5318_18147">
<rect x="50" y="52" width="243" height="526.176" rx="26" fill="white"/>
</clipPath>
<clipPath id="clip2_5318_18147">
<rect x="50" y="52" width="242.919" height="526" rx="25.9113" fill="white"/>
</clipPath>
</defs>
</svg>
