<svg width="343" height="343" viewBox="0 0 343 343" fill="none" xmlns="http://www.w3.org/2000/svg">
<g clip-path="url(#clip0_5328_20261)">
<rect width="343" height="343" rx="24" fill="#F7F7FB"/>
<g clip-path="url(#clip1_5328_20261)">
<rect x="50" y="41" width="243" height="526.176" rx="26" fill="white"/>
<rect x="50" y="102.559" width="243" height="9.072" fill="#70737C" fill-opacity="0.08"/>
<rect x="60.368" y="-20.4648" width="222.264" height="103.032" rx="10.368" fill="#F4F6F7"/>
<path d="M109.095 32.3903V38.1578H108.253V32.3903H109.095ZM102.672 34.8887C102.676 33.7414 103.589 32.9263 104.789 32.9219C105.985 32.9263 106.897 33.7414 106.897 34.8887C106.897 36.0537 105.985 36.8643 104.789 36.8643C103.589 36.8643 102.676 36.0537 102.672 34.8887ZM103.495 34.8887C103.491 35.6373 104.049 36.129 104.789 36.129C105.515 36.129 106.074 35.6373 106.074 34.8887C106.074 34.1578 105.515 33.6572 104.789 33.6572C104.049 33.6572 103.491 34.1578 103.495 34.8887ZM103.903 40.1511V37.573H104.754V39.469H109.334V40.1511H103.903ZM113.108 34.4014C113.099 35.8056 113.919 37.2453 115.101 37.8211L114.579 38.4944C113.715 38.0426 113.046 37.1567 112.696 36.098C112.342 37.2231 111.646 38.1755 110.742 38.645L110.22 37.9629C111.438 37.3781 112.262 35.8543 112.266 34.4014V33.0459H113.108V34.4014ZM115.695 40.3195V32.3815H116.536V35.5443H117.812V36.2619H116.536V40.3195H115.695ZM122.641 32.9573V33.6395H121.879V36.0404C122.215 36.0138 122.539 35.9828 122.853 35.9429L122.889 36.5808C121.36 36.82 119.58 36.8466 118.308 36.8466L118.202 36.1467C118.499 36.1467 118.827 36.1467 119.168 36.1423V33.6395H118.424V32.9573H122.641ZM119.469 38.8665C119.465 37.9407 120.474 37.4136 122.153 37.4136C123.828 37.4136 124.833 37.9407 124.838 38.8665C124.833 39.7746 123.828 40.3062 122.153 40.3017C120.474 40.3062 119.465 39.7746 119.469 38.8665ZM119.983 36.129C120.342 36.1201 120.705 36.1068 121.072 36.0891V33.6395H119.983V36.129ZM120.302 38.8665C120.297 39.3671 120.979 39.6506 122.153 39.655C123.318 39.6506 124.001 39.3671 124.005 38.8665C124.001 38.3527 123.318 38.0647 122.153 38.0692C120.979 38.0647 120.297 38.3527 120.302 38.8665ZM122.756 35.8809V35.2076H123.969V34.4368H122.756V33.7635H123.969V32.3815H124.811V37.263H123.969V35.8809H122.756ZM132.218 32.3815V35.5443H133.449V36.2441H132.218V40.3106H131.376V32.3815H132.218ZM126.043 38.1932C128.032 37.201 129.112 35.7657 129.285 33.9141H126.441V33.2142H130.144C130.136 35.5088 129.126 37.5598 126.512 38.8488L126.043 38.1932ZM138.862 33.8078C138.858 34.8222 139.562 35.7835 140.776 36.191L140.35 36.8466C139.451 36.5365 138.791 35.9163 138.446 35.1367C138.1 35.9916 137.409 36.6694 136.479 36.9972L136.027 36.3416C137.267 35.9208 138.016 34.8931 138.02 33.799V33.5863H136.275V32.9042H140.572V33.5863H138.862V33.8078ZM137.081 38.2375V37.5553H142.326V40.3195H141.484V38.2375H137.081ZM141.484 37.1655V32.3815H142.326V34.4191H143.478V35.1279H142.326V37.1655H141.484ZM146.747 33.5686C146.743 34.6805 147.465 35.6727 148.669 36.067L148.209 36.7225C147.336 36.4036 146.694 35.7923 146.348 34.995C146.007 35.9031 145.316 36.6162 144.355 36.9618L143.903 36.2884C145.17 35.8543 145.905 34.7956 145.914 33.604V32.8244H146.747V33.5686ZM145.205 38.8045C145.201 37.8433 146.22 37.2851 147.89 37.2895C149.551 37.2851 150.57 37.8433 150.574 38.8045C150.57 39.7613 149.551 40.3062 147.89 40.3017C146.22 40.3062 145.201 39.7613 145.205 38.8045ZM146.038 38.8045C146.034 39.3316 146.725 39.6417 147.89 39.6373C149.046 39.6417 149.737 39.3316 149.741 38.8045C149.737 38.2596 149.046 37.9451 147.89 37.9451C146.725 37.9451 146.034 38.2596 146.038 38.8045ZM148.032 34.6849V33.9939H149.706V32.3815H150.548V37.0681H149.706V34.6849H148.032ZM159.008 36.5276V37.201H151.77V36.5276H159.008ZM152.55 34.2331C152.545 33.2364 153.657 32.6428 155.385 32.6472C157.104 32.6428 158.215 33.2364 158.22 34.2331C158.215 35.2342 157.104 35.841 155.385 35.8455C153.657 35.841 152.545 35.2342 152.55 34.2331ZM152.683 40.1511V37.8477H153.533V39.469H158.193V40.1511H152.683ZM153.418 34.2331C153.414 34.8222 154.167 35.1544 155.385 35.1544C156.599 35.1544 157.356 34.8222 157.352 34.2331C157.356 33.6661 156.599 33.3205 155.385 33.3205C154.167 33.3205 153.414 33.6661 153.418 34.2331ZM162.189 39.5664V33.1522H164.475C165.967 33.1522 166.698 34.047 166.698 35.2342C166.698 36.4169 165.963 37.3161 164.475 37.3161H163.163V39.5664H162.189ZM163.163 36.4833H164.377C165.321 36.4878 165.715 35.9562 165.715 35.2342C165.715 34.5077 165.321 33.9894 164.377 33.985H163.163V36.4833ZM172.067 35.243C171.912 34.4147 171.225 33.954 170.41 33.9584C169.303 33.954 168.483 34.8045 168.479 36.3593C168.483 37.923 169.307 38.7646 170.41 38.7602C171.217 38.7646 171.899 38.3128 172.067 37.4933L173.05 37.5022C172.847 38.7691 171.815 39.655 170.401 39.655C168.731 39.655 167.513 38.4103 167.513 36.3593C167.513 34.3084 168.74 33.0636 170.401 33.0636C171.757 33.0636 172.833 33.8654 173.05 35.243H172.067ZM180.572 32.3815V40.3195H179.766V32.3815H180.572ZM173.83 35.81C173.83 34.0913 174.503 33.0149 175.54 33.0193C176.506 33.0149 177.157 33.9318 177.254 35.4202H178.153V32.5321H178.96V39.9296H178.153V36.1024H177.259C177.183 37.6528 176.523 38.614 175.54 38.6096C174.503 38.614 173.83 37.5332 173.83 35.81ZM174.61 35.81C174.61 37.0725 174.968 37.8167 175.54 37.8123C176.125 37.8167 176.488 37.0725 176.488 35.81C176.488 34.5431 176.125 33.8034 175.54 33.8078C174.968 33.8034 174.61 34.5431 174.61 35.81ZM184.444 34.4014C184.444 35.8543 185.259 37.3028 186.472 37.8477L185.959 38.521C185.059 38.0692 184.377 37.1744 184.027 36.0891C183.677 37.232 182.986 38.1976 182.069 38.6716L181.538 37.9894C182.769 37.4003 183.589 35.872 183.593 34.4014V33.0459H184.444V34.4014ZM185.595 35.7037V35.0215H187.367V32.3815H188.2V40.3372H187.367V35.7037H185.595ZM193.445 33.0813V36.7846H189.733V33.0813H193.445ZM190.557 36.1201H192.621V33.7635H190.557V36.1201ZM190.627 40.1511V37.6351H191.469V39.469H195.996V40.1511H190.627ZM194.818 38.1932V32.3726H195.66V34.7469H196.811V35.4557H195.66V38.1932H194.818ZM205.662 32.3815V35.5443H206.893V36.2441H205.662V40.3106H204.82V32.3815H205.662ZM199.487 38.1932C201.476 37.201 202.557 35.7657 202.729 33.9141H199.885V33.2142H203.589C203.58 35.5088 202.57 37.5598 199.956 38.8488L199.487 38.1932ZM213.733 34.5254V35.2076H208.284V32.5232H209.117V34.5254H213.733ZM207.318 36.7403V36.0492H214.565V36.7403H207.318ZM208.178 38.8311C208.178 37.9053 209.21 37.3826 210.933 37.387C212.643 37.3826 213.666 37.9053 213.671 38.8311C213.666 39.7613 212.643 40.284 210.933 40.284C209.21 40.284 208.178 39.7613 208.178 38.8311ZM209.028 38.8311C209.024 39.3405 209.719 39.6329 210.933 39.6373C212.129 39.6329 212.829 39.3405 212.829 38.8311C212.829 38.3172 212.129 38.047 210.933 38.0426C209.719 38.047 209.024 38.3172 209.028 38.8311ZM221.396 32.3815V34.3748H222.548V35.0836H221.396V37.006H220.554V32.3815H221.396ZM215.168 33.8344V33.1611H217.117V32.3106H217.959V33.1611H219.899V33.8344H215.168ZM215.602 35.5531C215.598 34.707 216.377 34.1578 217.533 34.1622C218.676 34.1578 219.456 34.707 219.456 35.5531C219.456 36.3992 218.676 36.9529 217.533 36.944C216.377 36.9529 215.598 36.3992 215.602 35.5531ZM216.32 40.222V37.3338H217.152V38.1046H220.554V37.3338H221.396V40.222H216.32ZM216.417 35.5531C216.408 36.0271 216.86 36.3194 217.533 36.3239C218.207 36.3194 218.658 36.0271 218.667 35.5531C218.658 35.088 218.207 34.7868 217.533 34.7912C216.86 34.7868 216.408 35.088 216.417 35.5531ZM217.152 39.5487H220.554V38.7602H217.152V39.5487ZM229.591 32.3815V40.3195H228.749V32.3815H229.591ZM223.487 38.2995V33.1522H224.32V37.573C225.48 37.5686 226.698 37.4667 227.97 37.2098L228.085 37.9186C226.681 38.2065 225.405 38.3039 224.151 38.2995H223.487ZM237.024 32.3815V35.4557H238.3V36.1467H237.024V40.3372H236.182V32.3815H237.024ZM231.177 38.3615V33.1434H234.889V33.8255H232.018V37.6616C233.352 37.6572 234.348 37.5996 235.482 37.3959L235.589 38.1046C234.344 38.3261 233.29 38.366 231.815 38.3615H231.177ZM239.584 39.6284C239.239 39.624 238.951 39.3449 238.955 38.9994C238.951 38.6539 239.239 38.3704 239.584 38.3704C239.925 38.3704 240.209 38.6539 240.213 38.9994C240.209 39.3449 239.925 39.624 239.584 39.6284ZM117.449 52.5664V46.1522H119.735C121.228 46.1522 121.958 47.047 121.958 48.2342C121.958 49.4169 121.223 50.3161 119.735 50.3161H118.424V52.5664H117.449ZM118.424 49.4833H119.637C120.581 49.4878 120.975 48.9562 120.975 48.2342C120.975 47.5077 120.581 46.9894 119.637 46.985H118.424V49.4833ZM127.327 48.243C127.172 47.4147 126.486 46.954 125.671 46.9584C124.563 46.954 123.744 47.8045 123.739 49.3593C123.744 50.923 124.568 51.7646 125.671 51.7602C126.477 51.7646 127.159 51.3128 127.327 50.4933L128.311 50.5022C128.107 51.7691 127.075 52.655 125.662 52.655C123.992 52.655 122.773 51.4103 122.773 49.3593C122.773 47.3084 124.001 46.0636 125.662 46.0636C127.017 46.0636 128.094 46.8654 128.311 48.243H127.327ZM136.266 51.6628V52.3715H129.002V51.6628H132.2V50.2718H129.888V47.7469H134.548V46.6306H129.87V45.9396H135.38V48.4202H130.72V49.5808H135.566V50.2718H133.033V51.6628H136.266ZM146.322 51.6628V52.3715H139.057V51.6628H142.255V50.2718H139.943V47.7469H144.603V46.6306H139.925V45.9396H145.436V48.4202H140.776V49.5808H145.622V50.2718H143.088V51.6628H146.322ZM153.188 46.1877V47.0382C153.188 48.0658 153.188 49.1777 152.895 50.8743L152.036 50.7945C152.355 49.2043 152.355 48.0393 152.355 47.0382V46.8787H147.677V46.1877H153.188ZM146.898 52.1943V51.4944H154.136V52.1943H146.898ZM161.321 45.3903V51.1578H160.479V45.3903H161.321ZM154.898 47.8887C154.902 46.7414 155.815 45.9263 157.015 45.9219C158.211 45.9263 159.124 46.7414 159.124 47.8887C159.124 49.0537 158.211 49.8643 157.015 49.8643C155.815 49.8643 154.902 49.0537 154.898 47.8887ZM155.722 47.8887C155.717 48.6373 156.275 49.129 157.015 49.129C157.741 49.129 158.3 48.6373 158.3 47.8887C158.3 47.1578 157.741 46.6572 157.015 46.6572C156.275 46.6572 155.717 47.1578 155.722 47.8887ZM156.129 53.1511V50.573H156.98V52.469H161.56V53.1511H156.129ZM171.624 46.2585V46.9496H165.166V46.2585H167.992V45.346H168.825V46.2585H171.624ZM164.794 51.2109V50.5199H172.058V51.2109H168.825V53.3283H167.992V51.2109H164.794ZM165.768 48.6949C165.764 47.8266 166.756 47.3527 168.408 47.3571C170.056 47.3527 171.048 47.8266 171.048 48.6949C171.048 49.5409 170.056 50.0193 168.408 50.0238C166.756 50.0193 165.764 49.5409 165.768 48.6949ZM166.636 48.6949C166.636 49.1378 167.27 49.3903 168.408 49.3859C169.542 49.3903 170.176 49.1378 170.18 48.6949C170.176 48.2386 169.542 47.9861 168.408 47.9861C167.27 47.9861 166.636 48.2386 166.636 48.6949ZM177.79 47.0382C177.79 48.0658 178.548 49.0315 179.775 49.4213L179.341 50.0769C178.428 49.7757 177.741 49.1511 177.378 48.3582C177.024 49.222 176.315 49.9042 175.372 50.2364L174.937 49.5719C176.173 49.1511 176.935 48.1234 176.94 47.0382V46.6926H175.159V46.0105H179.536V46.6926H177.79V47.0382ZM176.24 53.1511V50.6351H177.09V52.469H181.671V53.1511H176.24ZM180.59 51.1843V45.3903H181.431V51.1843H180.59ZM189.458 45.3815V50.387H188.661V48.1722H187.739V50.1124H186.951V45.5321H187.739V47.4811H188.661V45.3815H189.458ZM182.645 46.9496V46.2851H184.249V45.4435H185.081V46.2851H186.658V46.9496H182.645ZM182.955 48.686C182.955 47.8621 183.664 47.3217 184.656 47.3217C185.671 47.3217 186.375 47.8621 186.375 48.686C186.375 49.5099 185.671 50.0503 184.656 50.0503C183.664 50.0503 182.955 49.5099 182.955 48.686ZM183.708 48.686C183.708 49.1378 184.094 49.4346 184.656 49.439C185.228 49.4346 185.617 49.1378 185.613 48.686C185.617 48.2342 185.228 47.9374 184.656 47.9418C184.094 47.9374 183.708 48.2342 183.708 48.686ZM184.116 51.9108C184.107 51.0116 185.117 50.5022 186.8 50.5022C188.488 50.5022 189.498 51.0116 189.502 51.9108C189.498 52.8012 188.488 53.3062 186.8 53.3017C185.117 53.3062 184.107 52.8012 184.116 51.9108ZM184.949 51.9108C184.94 52.3892 185.622 52.6639 186.8 52.655C187.983 52.6639 188.656 52.3892 188.661 51.9108C188.656 51.4103 187.983 51.1445 186.8 51.1489C185.622 51.1445 184.94 51.4103 184.949 51.9108ZM194.455 46.6926V47.3748H190.512V46.6926H192.072V45.6118H192.904V46.6926H194.455ZM190.769 49.6783C190.765 48.6107 191.491 47.8532 192.488 47.8532C193.493 47.8532 194.211 48.6107 194.215 49.6783C194.211 50.7635 193.493 51.5254 192.488 51.521C191.491 51.5254 190.765 50.7635 190.769 49.6783ZM191.513 49.6783C191.509 50.3516 191.916 50.8034 192.488 50.8034C193.059 50.8034 193.471 50.3516 193.471 49.6783C193.471 49.0182 193.059 48.5575 192.488 48.5531C191.916 48.5575 191.509 49.0182 191.513 49.6783ZM194.818 52.9474V45.5586H195.615V48.686H196.528V45.3815H197.325V53.3195H196.528V49.377H195.615V52.9474H194.818ZM207.823 49.8554V50.5376H204.599V53.3106H203.775V50.5376H200.585V49.8554H207.823ZM200.993 48.5885C202.472 48.3848 203.704 47.5033 203.73 46.5243H201.259V45.851H207.141V46.5243H204.687C204.701 47.5033 205.923 48.3848 207.425 48.5885L207.115 49.253C205.812 49.0492 204.687 48.4069 204.204 47.5033C203.717 48.4069 202.596 49.0492 201.312 49.253L200.993 48.5885ZM210.845 47.552C210.845 48.8189 211.376 50.1699 212.439 50.8211L211.97 51.4678C211.225 51.0204 210.725 50.2275 210.45 49.3106C210.162 50.3161 209.613 51.1755 208.842 51.645L208.32 51.016C209.44 50.3427 210.034 48.9385 210.029 47.5874V46.1079H210.845V47.552ZM211.58 48.872V48.1722H212.811V45.5321H213.609V52.9296H212.811V48.872H211.58ZM214.45 53.3195V45.3815H215.256V53.3195H214.45ZM223.531 51.6273V52.3272H216.266V51.6273H218.003V49.5542C217.352 49.1954 216.953 48.6284 216.957 47.9152C216.953 46.6661 218.18 45.8466 219.881 45.8421C221.587 45.8466 222.814 46.6661 222.814 47.9152C222.814 48.6151 222.433 49.1777 221.795 49.5365V51.6273H223.531ZM217.773 47.9152C217.773 48.7657 218.636 49.3194 219.881 49.3239C221.117 49.3194 221.994 48.7657 221.998 47.9152C221.994 47.0603 221.117 46.5155 219.881 46.5155C218.636 46.5155 217.773 47.0603 217.773 47.9152ZM218.836 51.6273H220.944V49.8643C220.621 49.9396 220.262 49.9795 219.881 49.9795C219.509 49.9795 219.155 49.9396 218.836 49.8643V51.6273ZM225.011 52.6284C224.665 52.624 224.377 52.3449 224.382 51.9994C224.377 51.6539 224.665 51.3704 225.011 51.3704C225.352 51.3704 225.635 51.6539 225.64 51.9994C225.635 52.3449 225.352 52.624 225.011 52.6284Z" fill="#8F898C"/>
<path d="M71.1764 139.63V140.781H66.6455V144.211H65.2533V140.781H60.7477V139.63H71.1764ZM61.3172 137.82C63.6017 137.541 65.1014 136.371 65.2406 135.225H61.7095V134.112H65.2533V132.77H66.6455V134.112H70.2019V135.225H66.6708C66.8037 136.358 68.2971 137.541 70.5816 137.82L70.0627 138.934C68.1706 138.693 66.7024 137.864 65.962 136.763C65.2153 137.877 63.7282 138.693 61.8234 138.934L61.3172 137.82ZM76.0617 135.466C76.0554 136.826 77.0109 138.149 78.8208 138.706L78.1374 139.807C76.8401 139.421 75.8972 138.592 75.3783 137.541C74.872 138.674 73.9292 139.566 72.5939 139.997L71.9105 138.896C73.714 138.333 74.6569 136.934 74.6569 135.466V135.289H72.2649V134.175H74.6569V132.833H76.0744V134.175H78.4538V135.289H76.0617V135.466ZM74.0241 143.971V140.528H75.4289V142.832H81.8203V143.971H74.0241ZM78.0741 137.301V136.175H80.1244V132.77H81.5292V141.262H80.1244V137.301H78.0741ZM87.3764 135.504C87.3701 137.63 88.3889 139.718 90.2114 140.516L89.3634 141.642C88.0725 141.009 87.1613 139.794 86.674 138.295C86.1741 139.877 85.2375 141.193 83.9213 141.857L83.0353 140.718C84.9021 139.845 85.9399 137.643 85.9463 135.504V133.681H87.3764V135.504ZM88.9458 137.592V136.453H91.3505V132.757H92.7427V144.211H91.3505V137.592H88.9458ZM101.526 134.744C101.526 136.156 102.431 137.541 104.235 138.136L103.526 139.225C102.241 138.794 101.336 137.94 100.836 136.871C100.33 138.041 99.3809 138.972 98.0456 139.427L97.2989 138.339C99.1404 137.725 100.109 136.244 100.109 134.744V134.605H97.6913V133.479H103.905V134.605H101.526V134.744ZM98.8303 141.313V140.187H106.449V144.199H105.045V141.313H98.8303ZM105.045 139.655V132.757H106.449V135.618H108.044V136.795H106.449V139.655H105.045ZM112.815 134.403C112.809 135.959 113.72 137.383 115.511 137.946L114.752 139.048C113.505 138.605 112.632 137.769 112.145 136.687C111.638 137.934 110.683 138.915 109.297 139.402L108.55 138.263C110.442 137.643 111.392 136.118 111.398 134.466V133.378H112.815V134.403ZM110.449 141.996C110.436 140.604 111.923 139.788 114.334 139.794C116.758 139.788 118.239 140.604 118.245 141.996C118.239 143.389 116.758 144.186 114.334 144.186C111.923 144.186 110.436 143.389 110.449 141.996ZM111.841 141.996C111.835 142.693 112.746 143.079 114.334 143.085C115.935 143.079 116.84 142.693 116.84 141.996C116.84 141.275 115.935 140.889 114.334 140.883C112.746 140.889 111.835 141.275 111.841 141.996ZM114.524 136.124V134.972H116.802V132.757H118.207V139.491H116.802V136.124H114.524ZM125.029 132.935C127.636 132.941 129.148 133.631 129.155 134.896C129.148 136.175 127.636 136.864 125.029 136.871C122.428 136.864 120.903 136.175 120.903 134.896C120.903 133.631 122.428 132.941 125.029 132.935ZM119.827 138.605V137.478H130.256V138.605H119.827ZM121.055 140.414V139.377H128.952V142.174H122.447V143.022H129.269V144.097H121.067V141.174H127.573V140.414H121.055ZM122.384 134.896C122.377 135.529 123.289 135.82 125.029 135.82C126.794 135.82 127.699 135.529 127.699 134.896C127.699 134.308 126.794 133.972 125.029 133.972C123.289 133.972 122.377 134.308 122.384 134.896ZM138.444 135.086C138.444 136.51 139.419 137.902 141.241 138.465L140.52 139.566C139.223 139.149 138.28 138.288 137.755 137.2C137.242 138.383 136.268 139.326 134.913 139.794L134.192 138.681C136.033 138.073 137.014 136.592 137.027 135.086V134.757H134.559V133.631H140.849V134.757H138.444V135.086ZM136.065 143.971V140.313H137.483V142.832H143.95V143.971H136.065ZM142.216 141.073V132.77H143.633V141.073H142.216ZM155.087 132.757V139.946H153.746V136.833H152.632V139.566H151.316V132.985H152.632V135.694H153.746V132.757H155.087ZM145.241 135.099V133.998H147.405V132.859H148.797V133.998H150.936V135.099H145.241ZM145.646 137.541C145.633 136.352 146.671 135.561 148.101 135.567C149.557 135.561 150.582 136.352 150.594 137.541C150.582 138.731 149.557 139.516 148.101 139.516C146.671 139.516 145.633 138.731 145.646 137.541ZM146.899 137.541C146.899 138.13 147.386 138.503 148.101 138.503C148.823 138.503 149.316 138.13 149.316 137.541C149.316 136.953 148.823 136.58 148.101 136.58C147.386 136.58 146.899 136.953 146.899 137.541ZM147.304 142.148C147.297 140.832 148.778 140.092 151.227 140.085C153.67 140.092 155.144 140.832 155.151 142.148C155.144 143.439 153.67 144.186 151.227 144.186C148.778 144.186 147.297 143.439 147.304 142.148ZM148.709 142.148C148.702 142.775 149.595 143.117 151.227 143.11C152.854 143.117 153.727 142.775 153.733 142.148C153.727 141.484 152.854 141.149 151.227 141.161C149.595 141.149 148.702 141.484 148.709 142.148ZM162.086 134.58V135.706H156.48V134.58H158.606V133.086H159.998V134.58H162.086ZM156.809 138.972C156.796 137.415 157.853 136.308 159.302 136.314C160.757 136.308 161.795 137.415 161.795 138.972C161.795 140.56 160.757 141.667 159.302 141.667C157.853 141.667 156.796 140.56 156.809 138.972ZM158.049 138.972C158.043 139.896 158.561 140.471 159.302 140.465C160.036 140.471 160.555 139.896 160.555 138.972C160.555 138.073 160.036 137.478 159.302 137.478C158.561 137.478 158.043 138.073 158.049 138.972ZM162.567 143.68V132.998H163.883V137.466H164.997V132.757H166.339V144.199H164.997V138.605H163.883V143.68H162.567ZM181.21 139.136V140.275H176.666V144.186H175.274V140.275H170.781V139.136H181.21ZM171.325 137.263C173.572 136.978 175.078 135.77 175.179 134.517H171.743V133.403H180.248V134.517H176.812C176.907 135.77 178.4 136.978 180.666 137.263L180.159 138.364C178.21 138.086 176.692 137.193 175.995 135.959C175.293 137.193 173.787 138.086 171.857 138.364L171.325 137.263ZM185.551 135.757C185.557 137.605 186.19 139.529 187.74 140.503L186.968 141.579C185.937 140.959 185.266 139.896 184.886 138.649C184.475 140.022 183.741 141.186 182.665 141.845L181.792 140.794C183.456 139.788 184.19 137.769 184.197 135.82V133.77H185.551V135.757ZM186.513 137.858V136.694H188.145V132.96H189.474V143.642H188.145V137.858H186.513ZM190.5 144.199V132.757H191.854V144.199H190.5ZM203.637 141.655V142.806H193.183V141.655H195.6V138.763C194.689 138.238 194.138 137.415 194.145 136.402C194.138 134.58 195.923 133.378 198.384 133.378C200.859 133.378 202.656 134.58 202.65 136.402C202.656 137.402 202.118 138.206 201.232 138.731V141.655H203.637ZM195.524 136.402C195.518 137.573 196.676 138.32 198.384 138.314C200.087 138.32 201.27 137.573 201.27 136.402C201.27 135.213 200.087 134.485 198.384 134.491C196.676 134.485 195.518 135.213 195.524 136.402ZM196.992 141.655H199.802V139.269C199.365 139.364 198.891 139.415 198.384 139.415C197.891 139.415 197.423 139.364 196.992 139.275V141.655Z" fill="#131214"/>
<path d="M63.5687 168.237C64.9014 168.231 65.9494 169 66.2057 170.128H68.068V167.781H69.3324V173.306H68.068V171.153H66.2171C65.9722 172.309 64.9128 173.089 63.5687 173.089C61.9911 173.089 60.8464 172.075 60.8464 170.652C60.8464 169.245 61.9911 168.231 63.5687 168.237ZM62.0538 170.652C62.0538 171.477 62.6803 172.024 63.5687 172.018C64.4344 172.024 65.0552 171.477 65.0609 170.652C65.0552 169.826 64.4344 169.29 63.5687 169.296C62.6803 169.29 62.0538 169.826 62.0538 170.652ZM62.5436 177.953V173.784H63.7966V174.877H68.068V173.784H69.3324V177.953H62.5436ZM63.7966 176.928H68.068V175.857H63.7966V176.928ZM80.1877 173.613V174.638H76.087V178.067H74.8341V174.638H70.779V173.613H80.1877ZM71.9295 172.406V168.305H79.0372V172.406H71.9295ZM73.171 171.415H77.7729V169.319H73.171V171.415ZM92.2617 174.353V178.078H90.9974V175.356H85.2451V174.353H92.2617ZM83.7757 170.845C83.7757 169.387 84.9433 168.339 86.4981 168.351C87.3467 168.345 88.0871 168.664 88.5712 169.205H90.9974V167.781H92.2617V173.864H90.9974V172.497H88.5826C88.0928 173.044 87.3524 173.374 86.4981 173.374C84.9433 173.374 83.7757 172.326 83.7757 170.845ZM84.9831 170.845C84.9831 171.739 85.6153 172.297 86.4981 172.303C87.341 172.297 87.9845 171.739 87.9902 170.845C87.9845 169.985 87.341 169.416 86.4981 169.421C85.6153 169.416 84.9831 169.985 84.9831 170.845ZM89.1179 171.472H90.9974V170.241H89.1236C89.1692 170.435 89.1977 170.634 89.1977 170.845C89.1977 171.062 89.1692 171.272 89.1179 171.472ZM103.288 169.25V170.298H101.841V171.415H103.288V172.474H101.841V174.012H100.577V167.792H101.841V169.25H103.288ZM94.107 169.421V168.419H98.8113V171.381H95.3828V172.463C97.1255 172.451 98.3329 172.389 99.734 172.155L99.8707 173.169C98.3386 173.448 96.9945 173.505 94.9613 173.499H94.1184V170.424H97.5698V169.421H94.107ZM94.9955 176.153C94.9898 174.94 96.3225 174.211 98.481 174.205C100.605 174.211 101.938 174.94 101.944 176.153C101.938 177.361 100.605 178.055 98.481 178.055C96.3225 178.055 94.9898 177.361 94.9955 176.153ZM96.2371 176.153C96.2314 176.768 97.0401 177.104 98.481 177.099C99.8991 177.104 100.691 176.768 100.691 176.153C100.691 175.532 99.8991 175.196 98.481 175.196C97.0401 175.196 96.2314 175.532 96.2371 176.153ZM112.321 168.499V169.524H111.409V172.446C111.785 172.417 112.161 172.383 112.514 172.337V171.415H113.927V170.526H112.514V169.512H113.927V167.781H115.191V174.092H113.927V172.428H112.543L112.594 173.271C110.629 173.596 108.357 173.63 106.716 173.636L106.58 172.588C106.939 172.588 107.332 172.588 107.742 172.582V169.524H106.842V168.499H112.321ZM108.209 176.176C108.197 174.963 109.524 174.274 111.706 174.274C113.904 174.274 115.22 174.963 115.225 176.176C115.22 177.361 113.904 178.067 111.706 178.067C109.524 178.067 108.197 177.361 108.209 176.176ZM108.972 172.565C109.37 172.554 109.781 172.537 110.191 172.52V169.524H108.972V172.565ZM109.462 176.176C109.456 176.774 110.265 177.087 111.706 177.087C113.152 177.087 113.961 176.774 113.961 176.176C113.961 175.567 113.152 175.242 111.706 175.242C110.265 175.242 109.456 175.567 109.462 176.176ZM124.714 167.781V171.802H126.24V172.861H124.714V178.055H123.449V167.781H124.714ZM116.592 175.242C119.098 173.989 120.454 172.246 120.704 169.9H117.15V168.852H121.991C121.986 171.876 120.733 174.536 117.31 176.222L116.592 175.242Z" fill="#131214"/>
<rect x="60.368" y="190.432" width="222.912" height="0.648" fill="#E6E9EB"/>
<path d="M64.2516 207.553C64.2462 208.876 65.0207 210.086 66.543 210.565L65.8975 211.501C64.8379 211.124 64.0956 210.414 63.6814 209.495C63.2511 210.554 62.4389 211.388 61.2609 211.802L60.6262 210.834C62.2345 210.307 63.0413 209.01 63.0467 207.607V206.681H64.2516V207.553ZM62.2398 214.007C62.2291 212.824 63.4931 212.13 65.5425 212.136C67.6026 212.13 68.8613 212.824 68.8667 214.007C68.8613 215.191 67.6026 215.869 65.5425 215.869C63.4931 215.869 62.2291 215.191 62.2398 214.007ZM63.4232 214.007C63.4178 214.599 64.1924 214.927 65.5425 214.933C66.9034 214.927 67.6725 214.599 67.6725 214.007C67.6725 213.394 66.9034 213.066 65.5425 213.061C64.1924 213.066 63.4178 213.394 63.4232 214.007ZM65.7039 209.016V208.037H67.6403V206.154H68.8344V211.877H67.6403V209.016H65.7039ZM78.2905 206.154V211.114H77.1071V206.154H78.2905ZM70.2006 210.167C71.7766 209.667 72.605 208.419 72.5996 207.144V206.391H73.8368V207.144C73.8314 208.381 74.6544 209.538 76.1927 210.006L75.6118 210.931C74.4822 210.581 73.6754 209.86 73.2343 208.935C72.7933 209.941 71.9649 210.732 70.8031 211.103L70.2006 210.167ZM71.8573 212.491V211.565H78.312V214.094H73.0514V214.847H78.6025V215.793H71.8788V213.201H77.1179V212.491H71.8573ZM83.2929 207.553C83.2875 208.876 84.0621 210.086 85.5843 210.565L84.9388 211.501C83.8792 211.124 83.1369 210.414 82.7227 209.495C82.2924 210.554 81.4802 211.388 80.3022 211.802L79.6675 210.834C81.2758 210.307 82.0826 209.01 82.088 207.607V206.681H83.2929V207.553ZM81.2812 214.007C81.2704 212.824 82.5345 212.13 84.5838 212.136C86.6439 212.13 87.9026 212.824 87.908 214.007C87.9026 215.191 86.6439 215.869 84.5838 215.869C82.5345 215.869 81.2704 215.191 81.2812 214.007ZM82.4645 214.007C82.4591 214.599 83.2337 214.927 84.5838 214.933C85.9447 214.927 86.7139 214.599 86.7139 214.007C86.7139 213.394 85.9447 213.066 84.5838 213.061C83.2337 213.066 82.4591 213.394 82.4645 214.007ZM84.7452 209.016V208.037H86.6816V206.154H87.8757V211.877H86.6816V209.016H84.7452Z" fill="#131214"/>
<path d="M213.323 206.618C213.445 206.372 213.795 206.372 213.916 206.618L215.185 209.188C215.282 209.383 215.468 209.519 215.683 209.55L218.521 209.965C218.792 210.005 218.9 210.338 218.704 210.529L216.651 212.528C216.495 212.68 216.424 212.899 216.46 213.114L216.945 215.938C216.991 216.208 216.708 216.414 216.465 216.287L213.928 214.953C213.735 214.851 213.505 214.851 213.312 214.953L210.775 216.287C210.532 216.414 210.249 216.208 210.295 215.938L210.779 213.114C210.816 212.899 210.745 212.68 210.589 212.528L208.536 210.529C208.34 210.338 208.448 210.005 208.719 209.965L211.557 209.55C211.772 209.519 211.958 209.383 212.055 209.188L213.323 206.618Z" fill="#FFAA00" stroke="#FFAA00" stroke-width="0.972" stroke-linecap="round" stroke-linejoin="round"/>
<path d="M228.875 206.618C228.997 206.372 229.347 206.372 229.468 206.618L230.737 209.188C230.834 209.383 231.02 209.519 231.235 209.55L234.073 209.965C234.344 210.005 234.452 210.338 234.256 210.529L232.203 212.528C232.047 212.68 231.976 212.899 232.012 213.114L232.497 215.938C232.543 216.208 232.26 216.414 232.017 216.287L229.48 214.953C229.287 214.851 229.057 214.851 228.864 214.953L226.327 216.287C226.084 216.414 225.801 216.208 225.847 215.938L226.331 213.114C226.368 212.899 226.297 212.68 226.141 212.528L224.088 210.529C223.892 210.338 224 210.005 224.271 209.965L227.109 209.55C227.324 209.519 227.51 209.383 227.607 209.188L228.875 206.618Z" fill="#FFAA00" stroke="#FFAA00" stroke-width="0.972" stroke-linecap="round" stroke-linejoin="round"/>
<path d="M244.427 206.618C244.549 206.372 244.899 206.372 245.02 206.618L246.289 209.188C246.386 209.383 246.572 209.519 246.787 209.55L249.625 209.965C249.896 210.005 250.004 210.338 249.808 210.529L247.755 212.528C247.599 212.68 247.528 212.899 247.564 213.114L248.049 215.938C248.095 216.208 247.812 216.414 247.569 216.287L245.032 214.953C244.839 214.851 244.609 214.851 244.416 214.953L241.879 216.287C241.636 216.414 241.353 216.208 241.399 215.938L241.883 213.114C241.92 212.899 241.849 212.68 241.693 212.528L239.64 210.529C239.444 210.338 239.552 210.005 239.823 209.965L242.661 209.55C242.876 209.519 243.062 209.383 243.159 209.188L244.427 206.618Z" fill="#FFAA00" stroke="#FFAA00" stroke-width="0.972" stroke-linecap="round" stroke-linejoin="round"/>
<path d="M259.979 206.618C260.101 206.372 260.451 206.372 260.572 206.618L261.841 209.188C261.938 209.383 262.124 209.519 262.339 209.55L265.177 209.965C265.448 210.005 265.556 210.338 265.36 210.529L263.307 212.528C263.151 212.68 263.08 212.899 263.116 213.114L263.601 215.938C263.647 216.208 263.364 216.414 263.121 216.287L260.584 214.953C260.391 214.851 260.161 214.851 259.968 214.953L257.431 216.287C257.188 216.414 256.905 216.208 256.951 215.938L257.435 213.114C257.472 212.899 257.401 212.68 257.245 212.528L255.192 210.529C254.996 210.338 255.104 210.005 255.375 209.965L258.213 209.55C258.428 209.519 258.614 209.383 258.711 209.188L259.979 206.618Z" fill="#FFAA00" stroke="#FFAA00" stroke-width="0.972" stroke-linecap="round" stroke-linejoin="round"/>
<path d="M275.531 206.618C275.653 206.372 276.003 206.372 276.124 206.618L277.393 209.188C277.49 209.383 277.676 209.519 277.891 209.55L280.729 209.965C281 210.005 281.108 210.338 280.912 210.529L278.859 212.528C278.703 212.68 278.632 212.899 278.668 213.114L279.153 215.938C279.199 216.208 278.916 216.414 278.673 216.287L276.136 214.953C275.943 214.851 275.713 214.851 275.52 214.953L272.983 216.287C272.74 216.414 272.457 216.208 272.503 215.938L272.987 213.114C273.024 212.899 272.953 212.68 272.797 212.528L270.744 210.529C270.548 210.338 270.656 210.005 270.927 209.965L273.765 209.55C273.98 209.519 274.166 209.383 274.263 209.188L275.531 206.618Z" fill="#DCDBDC" stroke="#DCDBDC" stroke-width="0.972" stroke-linecap="round" stroke-linejoin="round"/>
<path d="M67.0037 227.316V227.945C67.0081 228.618 67.0081 229.402 66.8043 230.452H67.925V231.143H60.6603V230.452H65.9582C66.1664 229.42 66.1709 228.667 66.1709 227.998H61.5729V227.316H67.0037ZM61.6083 234.616V231.967H62.4411V233.925H67.2429V234.616H61.6083ZM71.9826 227.732V228.406H69.6083V229.823H71.8497V230.488H69.6083V232.162C70.6847 232.153 71.3935 232.118 72.2307 231.976L72.3016 232.667C71.3713 232.835 70.6006 232.871 69.3337 232.871H68.8021V227.732H71.9826ZM72.7622 234.394V226.997H73.5684V230H74.5253V226.846H75.3315V234.784H74.5253V230.682H73.5684V234.394H72.7622ZM77.7678 233.42L77.059 235.865H76.306L76.7755 233.42H77.7678ZM83.0746 227.21C84.12 227.201 84.9306 227.808 85.1034 228.698H86.6537V226.846H87.4954V231.108H86.6537V229.389H85.1078C84.9439 230.301 84.1288 230.913 83.0746 230.913C81.8608 230.913 80.9882 230.146 80.9926 229.052C80.9882 227.971 81.8608 227.201 83.0746 227.21ZM81.7988 229.052C81.7944 229.73 82.3259 230.204 83.0746 230.204C83.8099 230.204 84.3326 229.73 84.3326 229.052C84.3326 228.37 83.8099 227.905 83.0746 227.909C82.3259 227.905 81.7944 228.37 81.7988 229.052ZM82.3215 234.687V231.489H83.1543V232.41H86.6537V231.489H87.4954V234.687H82.3215ZM83.1543 233.996H86.6537V233.074H83.1543V233.996ZM95.9738 231.4V232.082H92.7313V234.775H91.9074V232.082H88.7091V231.4H95.9738ZM89.6216 230.39V227.272H95.0613V230.39H89.6216ZM90.4456 229.734H94.2197V227.945H90.4456V229.734ZM99.4998 228.113C99.4998 229.101 100.271 230.014 101.493 230.372L101.068 231.028C100.142 230.744 99.4423 230.142 99.079 229.362C98.7246 230.2 98.0159 230.855 97.0635 231.17L96.6383 230.505C97.8741 230.129 98.6449 229.154 98.6493 228.113V228.025H96.8686V227.342H101.245V228.025H99.4998V228.113ZM97.9494 234.687V231.515H98.7734V232.401H102.308V231.515H103.141V234.687H97.9494ZM98.7734 234.005H102.308V233.066H98.7734V234.005ZM102.299 231.143V226.846H103.141V231.143H102.299ZM111.637 230.523V231.205H108.43V231.967C109.883 232.047 110.747 232.534 110.751 233.367C110.747 234.266 109.719 234.771 108.014 234.767C106.286 234.771 105.258 234.266 105.258 233.367C105.258 232.534 106.122 232.042 107.597 231.967V231.205H104.399V230.523H111.637ZM104.78 229.442C106.206 229.296 107.332 228.649 107.447 227.883H105.064V227.21H110.99V227.883H108.581C108.696 228.654 109.812 229.296 111.265 229.442L110.964 230.107C109.586 229.947 108.448 229.367 108.018 228.525C107.58 229.367 106.45 229.947 105.072 230.107L104.78 229.442ZM106.109 233.367C106.105 233.85 106.8 234.129 108.014 234.12C109.21 234.129 109.91 233.85 109.91 233.367C109.91 232.875 109.21 232.609 108.014 232.605C106.8 232.609 106.105 232.875 106.109 233.367ZM118.672 230.505V231.179H116.271V233.119H119.504V233.81H112.24V233.119H115.438V231.179H113.143V227.458H118.601V228.14H113.985V230.505H118.672ZM121.507 233.42L120.798 235.865H120.045L120.514 233.42H121.507ZM127.38 229.185C127.376 230.439 128.204 231.839 129.409 232.41L128.931 233.066C128.04 232.64 127.332 231.746 126.973 230.709C126.61 231.839 125.865 232.818 124.962 233.269L124.466 232.605C125.67 232.025 126.543 230.527 126.548 229.185V228.344H124.758V227.644H129.108V228.344H127.38V229.185ZM129.958 234.784V226.846H130.8V229.991H132.076V230.7H130.8V234.784H129.958ZM139.048 226.846V234.802H138.206V226.846H139.048ZM132.9 228.246V227.564H136.621V230.461H133.768V232.197C135.057 232.193 136.178 232.131 137.507 231.914L137.586 232.605C136.182 232.84 134.986 232.893 133.582 232.897H132.909V229.788H135.761V228.246H132.9ZM146.871 226.846V234.802H146.029V226.846H146.871ZM140.74 232.897V227.511H141.582V229.548H143.717V227.511H144.55V232.897H140.74ZM141.582 232.206H143.717V230.213H141.582V232.206ZM151.752 226.979C153.493 226.984 154.583 227.542 154.587 228.494C154.583 229.429 153.493 229.983 151.752 229.983C150.016 229.983 148.913 229.429 148.917 228.494C148.913 227.542 150.016 226.984 151.752 226.979ZM148.138 231.205V230.523H155.376V231.205H152.169V232.038H154.49V234.687H149.006V232.038H151.336V231.205H148.138ZM149.786 228.494C149.781 229.026 150.53 229.327 151.752 229.327C152.966 229.327 153.724 229.026 153.719 228.494C153.724 227.945 152.966 227.635 151.752 227.635C150.53 227.635 149.781 227.945 149.786 228.494ZM149.839 234.005H153.675V232.711H149.839V234.005ZM159.434 227.413V228.68H161.551V227.413H162.384V231.365H158.61V227.413H159.434ZM159.434 230.691H161.551V229.336H159.434V230.691ZM159.54 234.616V232.109H160.39V233.934H164.971V234.616H159.54ZM163.934 232.702V226.855H164.776V232.702H163.934ZM172.466 230.505V231.179H170.065V233.119H173.298V233.81H166.034V233.119H169.232V231.179H166.937V227.458H172.395V228.14H167.779V230.505H172.466Z" fill="#898D8F"/>
<path d="M63.6921 257.571C63.6921 258.598 64.3161 259.615 65.5425 260.034L65.0046 260.938C64.1117 260.61 63.4985 259.996 63.1489 259.249C62.81 260.066 62.1914 260.739 61.2716 261.099L60.7122 260.217C61.944 259.733 62.5518 258.673 62.5626 257.571V257.495H60.9597V256.559H62.5626V255.494H63.6921V256.559H65.2735V257.495H63.6921V257.571ZM62.3474 262.756V261.788H69.0065V265.112H67.8124V262.756H62.3474ZM65.8007 261.303V255.559H66.9302V257.893H67.8662V255.397H69.0065V261.347H67.8662V258.861H66.9302V261.303H65.8007ZM78.312 255.397V260.905H77.1071V255.397H78.312ZM70.3835 258.184C70.3835 256.812 71.5023 255.865 73.0084 255.86C74.5091 255.865 75.6279 256.812 75.6226 258.184C75.6279 259.523 74.5091 260.486 73.0084 260.486C71.5023 260.486 70.3835 259.523 70.3835 258.184ZM71.5561 258.184C71.5507 258.969 72.1585 259.48 73.0084 259.475C73.8421 259.48 74.45 258.969 74.45 258.184C74.45 257.377 73.8421 256.871 73.0084 256.871C72.1585 256.871 71.5507 257.377 71.5561 258.184ZM71.8573 264.993V261.379H78.312V264.993H71.8573ZM73.0407 264.025H77.1394V262.325H73.0407V264.025ZM87.4024 255.387V257.603H88.7578V258.582H87.4024V260.852H86.2082V255.387H87.4024ZM79.6567 260.077C81.9105 259.502 83.1907 258.35 83.4005 256.947H80.1193V255.978H84.7022C84.6968 258.506 83.0401 260.255 80.1301 261.035L79.6567 260.077ZM81.109 264.983V261.239H87.4024V264.983H81.109ZM82.3032 264.036H86.219V262.218H82.3032V264.036Z" fill="#131214"/>
<path d="M213.323 255.85C213.445 255.605 213.795 255.605 213.916 255.85L215.185 258.421C215.282 258.616 215.468 258.751 215.683 258.783L218.521 259.197C218.792 259.237 218.9 259.57 218.704 259.761L216.651 261.761C216.495 261.913 216.424 262.132 216.46 262.346L216.945 265.171C216.991 265.441 216.708 265.647 216.465 265.519L213.928 264.185C213.735 264.084 213.505 264.084 213.312 264.185L210.775 265.519C210.532 265.647 210.249 265.441 210.295 265.171L210.779 262.346C210.816 262.132 210.745 261.913 210.589 261.761L208.536 259.761C208.34 259.57 208.448 259.237 208.719 259.197L211.557 258.783C211.772 258.751 211.958 258.616 212.055 258.421L213.323 255.85Z" fill="#FFAA00" stroke="#FFAA00" stroke-width="0.972" stroke-linecap="round" stroke-linejoin="round"/>
<path d="M228.875 255.85C228.997 255.605 229.347 255.605 229.468 255.85L230.737 258.421C230.834 258.616 231.02 258.751 231.235 258.783L234.073 259.197C234.344 259.237 234.452 259.57 234.256 259.761L232.203 261.761C232.047 261.913 231.976 262.132 232.012 262.346L232.497 265.171C232.543 265.441 232.26 265.647 232.017 265.519L229.48 264.185C229.287 264.084 229.057 264.084 228.864 264.185L226.327 265.519C226.084 265.647 225.801 265.441 225.847 265.171L226.331 262.346C226.368 262.132 226.297 261.913 226.141 261.761L224.088 259.761C223.892 259.57 224 259.237 224.271 259.197L227.109 258.783C227.324 258.751 227.51 258.616 227.607 258.421L228.875 255.85Z" fill="#FFAA00" stroke="#FFAA00" stroke-width="0.972" stroke-linecap="round" stroke-linejoin="round"/>
<path d="M244.427 255.85C244.549 255.605 244.899 255.605 245.02 255.85L246.289 258.421C246.386 258.616 246.571 258.751 246.787 258.783L249.625 259.197C249.896 259.237 250.004 259.57 249.808 259.761L247.755 261.761C247.599 261.913 247.528 262.132 247.564 262.346L248.049 265.171C248.095 265.441 247.812 265.647 247.569 265.519L245.032 264.185C244.839 264.084 244.609 264.084 244.416 264.185L241.879 265.519C241.636 265.647 241.353 265.441 241.399 265.171L241.883 262.346C241.92 262.132 241.849 261.913 241.693 261.761L239.64 259.761C239.444 259.57 239.552 259.237 239.823 259.197L242.661 258.783C242.876 258.751 243.062 258.616 243.159 258.421L244.427 255.85Z" fill="#FFAA00" stroke="#FFAA00" stroke-width="0.972" stroke-linecap="round" stroke-linejoin="round"/>
<path d="M259.979 255.85C260.101 255.605 260.451 255.605 260.572 255.85L261.841 258.421C261.938 258.616 262.124 258.751 262.339 258.783L265.177 259.197C265.448 259.237 265.556 259.57 265.36 259.761L263.307 261.761C263.151 261.913 263.08 262.132 263.116 262.346L263.601 265.171C263.647 265.441 263.364 265.647 263.121 265.519L260.584 264.185C260.391 264.084 260.161 264.084 259.968 264.185L257.431 265.519C257.188 265.647 256.905 265.441 256.951 265.171L257.435 262.346C257.472 262.132 257.401 261.913 257.245 261.761L255.192 259.761C254.996 259.57 255.104 259.237 255.375 259.197L258.213 258.783C258.428 258.751 258.614 258.616 258.711 258.421L259.979 255.85Z" fill="#DCDBDC" stroke="#DCDBDC" stroke-width="0.972" stroke-linecap="round" stroke-linejoin="round"/>
<path d="M275.531 255.85C275.653 255.605 276.003 255.605 276.124 255.85L277.393 258.421C277.49 258.616 277.676 258.751 277.891 258.783L280.729 259.197C281 259.237 281.108 259.57 280.912 259.761L278.859 261.761C278.703 261.913 278.632 262.132 278.668 262.346L279.153 265.171C279.199 265.441 278.916 265.647 278.673 265.519L276.136 264.185C275.943 264.084 275.713 264.084 275.52 264.185L272.983 265.519C272.74 265.647 272.457 265.441 272.503 265.171L272.987 262.346C273.024 262.132 272.953 261.913 272.797 261.761L270.744 259.761C270.548 259.57 270.656 259.237 270.927 259.197L273.765 258.783C273.98 258.751 274.166 258.616 274.263 258.421L275.531 255.85Z" fill="#DCDBDC" stroke="#DCDBDC" stroke-width="0.972" stroke-linecap="round" stroke-linejoin="round"/>
<path d="M62.8575 276.442C63.9029 276.433 64.7135 277.04 64.8863 277.93H66.4367V276.079H67.2783V280.34H66.4367V278.621H64.8907C64.7268 279.534 63.9117 280.145 62.8575 280.145C61.6437 280.145 60.7711 279.379 60.7755 278.285C60.7711 277.204 61.6437 276.433 62.8575 276.442ZM61.5817 278.285C61.5773 278.962 62.1088 279.436 62.8575 279.436C63.5928 279.436 64.1155 278.962 64.1155 278.285C64.1155 277.603 63.5928 277.137 62.8575 277.142C62.1088 277.137 61.5773 277.603 61.5817 278.285ZM62.1044 283.919V280.721H62.9372V281.642H66.4367V280.721H67.2783V283.919H62.1044ZM62.9372 283.228H66.4367V282.307H62.9372V283.228ZM75.7567 280.632V281.315H72.5142V284.008H71.6903V281.315H68.492V280.632H75.7567ZM69.4045 279.622V276.504H74.8442V279.622H69.4045ZM70.2285 278.967H74.0026V277.177H70.2285V278.967ZM80.966 276.433C82.1266 276.433 82.9417 277.071 82.9505 278.019C82.9417 278.825 82.3304 279.414 81.409 279.56V280.269C82.1089 280.229 82.8176 280.163 83.4732 280.065L83.5352 280.686C81.8697 280.987 80.0004 281.018 78.636 281.013L78.5474 280.331C79.141 280.336 79.8365 280.331 80.5674 280.305V279.569C79.6194 279.436 78.986 278.838 78.9904 278.019C78.986 277.071 79.801 276.433 80.966 276.433ZM79.6726 283.848V281.625H80.5142V283.157H85.0856V283.848H79.6726ZM79.7789 278.019C79.77 278.581 80.2661 278.949 80.966 278.949C81.6703 278.949 82.1532 278.581 82.1532 278.019C82.1532 277.443 81.6703 277.08 80.966 277.08C80.2661 277.08 79.77 277.443 79.7789 278.019ZM83.9605 282.156V276.088H84.8021V278.71H85.9361V279.419H84.8021V282.156H83.9605ZM89.2141 277.266C89.2097 278.378 89.9317 279.37 91.1366 279.764L90.6759 280.42C89.8033 280.101 89.1609 279.49 88.8154 278.692C88.4743 279.6 87.7833 280.314 86.8221 280.659L86.3702 279.986C87.6371 279.552 88.3725 278.493 88.3813 277.301V276.522H89.2141V277.266ZM87.6726 282.502C87.6681 281.541 88.687 280.982 90.357 280.987C92.0181 280.982 93.0369 281.541 93.0414 282.502C93.0369 283.459 92.0181 284.003 90.357 283.999C88.687 284.003 87.6681 283.459 87.6726 282.502ZM88.5054 282.502C88.5009 283.029 89.192 283.339 90.357 283.335C91.5131 283.339 92.2041 283.029 92.2086 282.502C92.2041 281.957 91.5131 281.642 90.357 281.642C89.192 281.642 88.5009 281.957 88.5054 282.502ZM90.4987 278.382V277.691H92.1731V276.079H93.0148V280.765H92.1731V278.382H90.4987ZM100.669 279.738V280.411H98.2684V282.351H101.502V283.042H94.2374V282.351H97.4356V280.411H95.141V276.69H100.598V277.372H95.9827V279.738H100.669ZM103.504 282.652L102.796 285.098H102.042L102.512 282.652H103.504ZM108.864 276.345C110.06 276.353 110.942 277.084 110.946 278.125C110.942 279.171 110.06 279.897 108.864 279.897C107.655 279.897 106.778 279.171 106.773 278.125C106.778 277.084 107.655 276.353 108.864 276.345ZM107.597 278.125C107.593 278.781 108.133 279.215 108.864 279.215C109.591 279.215 110.131 278.781 110.131 278.125C110.131 277.479 109.591 277.044 108.864 277.053C108.133 277.044 107.593 277.479 107.597 278.125ZM107.978 281.155V280.482H113.196V282.484H108.82V283.246H113.462V283.919H108.005V281.855H112.364V281.155H107.978ZM112.355 280.119V276.079H113.196V280.119H112.355ZM121.072 276.079V280.801H120.231V278.79H118.751V278.099H120.231V276.079H121.072ZM114.454 280.083C115.686 279.653 116.443 278.581 116.439 277.487V277.31H114.72V276.628H118.999V277.31H117.298V277.479C117.294 278.484 118.012 279.463 119.212 279.871L118.778 280.535C117.887 280.229 117.232 279.591 116.886 278.807C116.541 279.693 115.845 280.407 114.897 280.756L114.454 280.083ZM115.73 282.519C115.726 281.576 116.745 281.027 118.415 281.022C120.076 281.027 121.095 281.576 121.099 282.519C121.095 283.463 120.076 284.012 118.415 284.017C116.745 284.012 115.726 283.463 115.73 282.519ZM116.563 282.519C116.559 283.055 117.25 283.361 118.415 283.352C119.571 283.361 120.262 283.055 120.266 282.519C120.262 281.979 119.571 281.673 118.415 281.678C117.25 281.673 116.559 281.979 116.563 282.519ZM125.024 276.548L122.959 284.229H122.118L124.182 276.548H125.024ZM132.678 279.879V280.553H129.471V281.403H131.792V283.919H126.308V281.403H128.638V280.553H125.44V279.879H132.678ZM126.105 277.009V276.327H131.996V277.009H130.844V278.524H131.961V279.206H126.14V278.524H127.265V277.009H126.105ZM127.141 283.237H130.977V282.068H127.141V283.237ZM128.098 278.524H130.003V277.009H128.098V278.524ZM139.854 276.079V280.181H139.022V276.079H139.854ZM133.369 279.552C134.601 279.171 135.367 278.214 135.371 277.186H133.591V276.504H137.967V277.186H136.222C136.222 278.156 136.979 279.051 138.215 279.401L137.808 280.048C136.869 279.769 136.169 279.171 135.81 278.409C135.46 279.25 134.734 279.91 133.759 280.216L133.369 279.552ZM134.645 281.191V280.544H139.863V282.511H135.487V283.281H140.129V283.937H134.672V281.899H139.03V281.191H134.645ZM143.85 276.548L141.786 284.229H140.944L143.008 276.548H143.85ZM146.463 276.442C147.509 276.433 148.319 277.04 148.492 277.93H150.043V276.079H150.884V280.34H150.043V278.621H148.497C148.333 279.534 147.518 280.145 146.463 280.145C145.25 280.145 144.377 279.379 144.381 278.285C144.377 277.204 145.25 276.433 146.463 276.442ZM145.188 278.285C145.183 278.962 145.715 279.436 146.463 279.436C147.199 279.436 147.721 278.962 147.721 278.285C147.721 277.603 147.199 277.137 146.463 277.142C145.715 277.137 145.183 277.603 145.188 278.285ZM145.71 283.919V280.721H146.543V281.642H150.043V280.721H150.884V283.919H145.71ZM146.543 283.228H150.043V282.307H146.543V283.228ZM159.363 280.632V281.315H156.12V284.008H155.296V281.315H152.098V280.632H159.363ZM153.01 279.622V276.504H158.45V279.622H153.01ZM153.834 278.967H157.608V277.177H153.834V278.967ZM166.583 276.681V277.124C166.574 277.656 166.574 278.444 166.379 279.472L165.546 279.392C165.719 278.515 165.746 277.873 165.755 277.372H162.579V276.681H166.583ZM162.1 280.154C162.587 280.154 163.141 280.15 163.721 280.136V278.462H164.554V280.11C165.405 280.074 166.282 280.012 167.079 279.897L167.132 280.508C165.476 280.801 163.58 280.832 162.18 280.836L162.1 280.154ZM163.305 283.848V281.501H164.147V283.166H168.7V283.848H163.305ZM167.584 282.041V276.079H168.443V278.604H169.533V279.312H168.443V282.041H167.584ZM176.594 276.079V284.034H175.752V276.079H176.594ZM170.446 277.479V276.796H174.167V279.693H171.314V281.43C172.603 281.425 173.724 281.363 175.053 281.146L175.132 281.837C173.728 282.072 172.532 282.125 171.128 282.13H170.455V279.02H173.307V277.479H170.446Z" fill="#898D8F"/>
<path d="M65.9298 305.189V306.157H62.4442V307.061H65.6501V307.997H62.4442V308.955C64.2623 308.955 65.3704 308.922 66.6505 308.707L66.7689 309.643C65.3757 309.885 64.1547 309.912 62.057 309.901H61.2286V305.189H65.9298ZM62.3367 314.226V310.837H68.7913V314.226H62.3367ZM63.52 313.258H67.6187V311.762H63.52V313.258ZM67.5865 310.407V304.63H68.7913V310.407H67.5865ZM78.4196 304.63V314.333H77.204V312.107H75.1385V311.203H77.204V304.63H78.4196ZM70.1683 309.621C71.9972 309.616 74.4284 309.611 76.537 309.32L76.6123 310.202C75.7194 310.353 74.7996 310.45 73.9013 310.509V314.043H72.6964V310.568C71.8466 310.6 71.0397 310.6 70.319 310.6L70.1683 309.621ZM70.8676 307.018C70.8676 305.862 71.9004 305.049 73.3634 305.049C74.7942 305.049 75.8377 305.862 75.8377 307.018C75.8377 308.201 74.7942 308.971 73.3634 308.976C71.9004 308.971 70.8676 308.201 70.8676 307.018ZM71.9972 307.018C71.9918 307.669 72.5458 308.062 73.3634 308.062C74.138 308.062 74.6974 307.669 74.6974 307.018C74.6974 306.383 74.1434 305.964 73.3634 305.964C72.5458 305.964 71.9918 306.383 71.9972 307.018ZM87.6175 305.523V306.685C87.6175 308.099 87.6175 309.433 87.1872 311.493L85.9931 311.386C86.1921 310.536 86.2997 309.788 86.3642 309.1L80.6357 309.396L80.4743 308.427L86.418 308.201C86.4395 307.68 86.4449 307.179 86.4449 306.685V306.491H80.7648V305.523H87.6175ZM79.732 313.107V312.128H88.5965V313.107H79.732Z" fill="#131214"/>
<path d="M213.323 305.083C213.445 304.837 213.795 304.837 213.916 305.083L215.185 307.653C215.282 307.848 215.468 307.983 215.683 308.015L218.521 308.43C218.792 308.469 218.9 308.803 218.704 308.994L216.651 310.993C216.495 311.145 216.424 311.364 216.46 311.579L216.945 314.403C216.991 314.673 216.708 314.879 216.465 314.752L213.928 313.417C213.735 313.316 213.505 313.316 213.312 313.417L210.775 314.752C210.532 314.879 210.249 314.673 210.295 314.403L210.779 311.579C210.816 311.364 210.745 311.145 210.589 310.993L208.536 308.994C208.34 308.803 208.448 308.469 208.719 308.43L211.557 308.015C211.772 307.983 211.958 307.848 212.055 307.653L213.323 305.083Z" fill="#FFAA00" stroke="#FFAA00" stroke-width="0.972" stroke-linecap="round" stroke-linejoin="round"/>
<path d="M228.875 305.083C228.997 304.837 229.347 304.837 229.468 305.083L230.737 307.653C230.834 307.848 231.02 307.983 231.235 308.015L234.073 308.43C234.344 308.469 234.452 308.803 234.256 308.994L232.203 310.993C232.047 311.145 231.976 311.364 232.012 311.579L232.497 314.403C232.543 314.673 232.26 314.879 232.017 314.752L229.48 313.417C229.287 313.316 229.057 313.316 228.864 313.417L226.327 314.752C226.084 314.879 225.801 314.673 225.847 314.403L226.331 311.579C226.368 311.364 226.297 311.145 226.141 310.993L224.088 308.994C223.892 308.803 224 308.469 224.271 308.43L227.109 308.015C227.324 307.983 227.51 307.848 227.607 307.653L228.875 305.083Z" fill="#FFAA00" stroke="#FFAA00" stroke-width="0.972" stroke-linecap="round" stroke-linejoin="round"/>
<path d="M244.427 305.083C244.549 304.837 244.899 304.837 245.02 305.083L246.289 307.653C246.386 307.848 246.571 307.983 246.787 308.015L249.625 308.43C249.896 308.469 250.004 308.803 249.808 308.994L247.755 310.993C247.599 311.145 247.528 311.364 247.564 311.579L248.049 314.403C248.095 314.673 247.812 314.879 247.569 314.752L245.032 313.417C244.839 313.316 244.609 313.316 244.416 313.417L241.879 314.752C241.636 314.879 241.353 314.673 241.399 314.403L241.883 311.579C241.92 311.364 241.849 311.145 241.693 310.993L239.64 308.994C239.444 308.803 239.552 308.469 239.823 308.43L242.661 308.015C242.876 307.983 243.062 307.848 243.159 307.653L244.427 305.083Z" fill="#FFAA00" stroke="#FFAA00" stroke-width="0.972" stroke-linecap="round" stroke-linejoin="round"/>
<path d="M259.979 305.083C260.101 304.837 260.451 304.837 260.572 305.083L261.841 307.653C261.938 307.848 262.124 307.983 262.339 308.015L265.177 308.43C265.448 308.469 265.556 308.803 265.36 308.994L263.307 310.993C263.151 311.145 263.08 311.364 263.116 311.579L263.601 314.403C263.647 314.673 263.364 314.879 263.121 314.752L260.584 313.417C260.391 313.316 260.161 313.316 259.968 313.417L257.431 314.752C257.188 314.879 256.905 314.673 256.951 314.403L257.435 311.579C257.472 311.364 257.401 311.145 257.245 310.993L255.192 308.994C254.996 308.803 255.104 308.469 255.375 308.43L258.213 308.015C258.428 307.983 258.614 307.848 258.711 307.653L259.979 305.083Z" fill="#FFAA00" stroke="#FFAA00" stroke-width="0.972" stroke-linecap="round" stroke-linejoin="round"/>
<path d="M275.531 305.083C275.653 304.837 276.003 304.837 276.124 305.083L277.393 307.653C277.49 307.848 277.676 307.983 277.891 308.015L280.729 308.43C281 308.469 281.108 308.803 280.912 308.994L278.859 310.993C278.703 311.145 278.632 311.364 278.668 311.579L279.153 314.403C279.199 314.673 278.916 314.879 278.673 314.752L276.136 313.417C275.943 313.316 275.713 313.316 275.52 313.417L272.983 314.752C272.74 314.879 272.457 314.673 272.503 314.403L272.987 311.579C273.024 311.364 272.953 311.145 272.797 310.993L270.744 308.994C270.548 308.803 270.656 308.469 270.927 308.43L273.765 308.015C273.98 307.983 274.166 307.848 274.263 307.653L275.531 305.083Z" fill="#DCDBDC" stroke="#DCDBDC" stroke-width="0.972" stroke-linecap="round" stroke-linejoin="round"/>
<path d="M67.9073 329.174V329.847H60.6603V329.174H63.8763V328.332H61.564V325.674H67.0125V326.339H62.3968V327.659H67.0657V328.332H64.6914V329.174H67.9073ZM61.5197 331.805C61.5197 330.884 62.5518 330.365 64.275 330.361C65.9848 330.365 67.0081 330.884 67.0125 331.805C67.0081 332.726 65.9848 333.245 64.275 333.249C62.5518 333.245 61.5197 332.726 61.5197 331.805ZM62.3702 331.805C62.3658 332.314 63.0612 332.594 64.275 332.585C65.471 332.594 66.1709 332.314 66.1709 331.805C66.1709 331.305 65.471 331.017 64.275 331.017C63.0612 331.017 62.3658 331.305 62.3702 331.805ZM75.7656 331.592V332.301H68.5009V331.592H70.4854V330.193H69.3868V327.668H74.0469V326.56H69.3691V325.869H74.8796V328.35H70.2196V329.502H75.0657V330.193H73.8608V331.592H75.7656ZM71.3004 331.592H73.0369V330.193H71.3004V331.592ZM79.0701 325.781L77.0059 333.462H76.1642L78.2285 325.781H79.0701ZM83.5618 326.011V326.702H80.6737V328.235H83.4024V328.908H80.6737V330.689C81.9981 330.68 82.9815 330.631 84.1288 330.441L84.2086 331.123C82.9815 331.327 81.9273 331.367 80.461 331.371H79.8232V326.011H83.5618ZM84.8287 333.249V325.311H85.6704V328.439H86.9461V329.147H85.6704V333.249H84.8287ZM93.9096 325.32V331.087H93.0679V325.32H93.9096ZM87.4865 327.818C87.491 326.671 88.4035 325.856 89.6039 325.852C90.7999 325.856 91.7124 326.671 91.7124 327.818C91.7124 328.983 90.7999 329.794 89.6039 329.794C88.4035 329.794 87.491 328.983 87.4865 327.818ZM88.3104 327.818C88.306 328.567 88.8642 329.059 89.6039 329.059C90.3304 329.059 90.8885 328.567 90.8885 327.818C90.8885 327.087 90.3304 326.587 89.6039 326.587C88.8642 326.587 88.306 327.087 88.3104 327.818ZM88.718 333.081V330.503H89.5685V332.399H94.1488V333.081H88.718ZM98.4456 326.046V327.942H99.9605V326.046H100.74V331.291H97.6482V326.046H98.4456ZM98.4456 330.609H99.9605V328.607H98.4456V330.609ZM101.626 332.859V325.462H102.423V328.421H103.407V325.311H104.213V333.249H103.407V329.112H102.423V332.859H101.626ZM111.832 325.311V333.267H110.999V329.945H109.449V329.245H110.999V327.774H109.493V327.083H110.999V325.311H111.832ZM105.498 326.693V326.011H109.015V328.908H106.357V330.733C107.478 330.729 108.426 330.675 109.555 330.512L109.626 331.203C108.386 331.398 107.371 331.433 106.118 331.433H105.515V328.244H108.191V326.693H105.498ZM114.49 331.885L113.781 334.33H113.028L113.498 331.885H114.49ZM124.164 325.311V333.249H123.323V325.311H124.164ZM117.644 331.034C119.146 331.039 121.112 331.039 122.835 330.813L122.897 331.433C121.108 331.739 119.225 331.747 117.759 331.743L117.644 331.034ZM117.812 327.021V326.348H119.814V325.4H120.665V326.348H122.658V327.021H117.812ZM118.326 328.926C118.317 328.004 119.106 327.42 120.24 327.42C121.378 327.42 122.158 328.004 122.162 328.926C122.158 329.816 121.378 330.419 120.24 330.414C119.106 330.419 118.317 329.816 118.326 328.926ZM119.114 328.926C119.106 329.435 119.571 329.763 120.24 329.767C120.904 329.763 121.36 329.435 121.365 328.926C121.36 328.407 120.904 328.071 120.24 328.066C119.571 328.071 119.106 328.407 119.114 328.926ZM127.868 326.835C127.868 327.703 128.421 328.58 129.453 328.97L129.01 329.617C128.271 329.333 127.752 328.793 127.469 328.142C127.177 328.877 126.636 329.515 125.865 329.847L125.405 329.192C126.477 328.726 127.052 327.716 127.052 326.835V325.807H127.868V326.835ZM126.866 331.796C126.858 330.893 127.89 330.357 129.551 330.352C131.208 330.357 132.249 330.893 132.253 331.796C132.249 332.7 131.208 333.236 129.551 333.231C127.89 333.236 126.858 332.7 126.866 331.796ZM127.699 331.796C127.69 332.301 128.395 332.594 129.551 332.585C130.703 332.594 131.407 332.301 131.411 331.796C131.407 331.287 130.703 330.994 129.551 330.999C128.395 330.994 127.69 331.287 127.699 331.796ZM129.701 329.953V325.462H130.481V327.384H131.411V325.32H132.209V330.202H131.411V328.075H130.481V329.953H129.701ZM139.686 325.816V329.076H135.912V325.816H139.686ZM136.435 332.576C137.879 332.434 139.008 331.712 139.066 330.999H136.754V330.361H139.084V329.617H139.916V330.361H142.255V330.999H139.934C139.992 331.69 141.095 332.416 142.539 332.576L142.255 333.223C141.01 333.072 139.983 332.54 139.504 331.841C139.017 332.549 137.976 333.072 136.727 333.223L136.435 332.576ZM136.736 328.421H138.853V326.489H136.736V328.421ZM141.236 329.847V325.311H142.069V329.847H141.236ZM152.125 325.311V333.267H151.283V325.311H152.125ZM145.826 328.687C145.826 326.99 146.68 325.909 147.881 325.905C149.059 325.909 149.927 326.99 149.927 328.687C149.927 330.401 149.059 331.482 147.881 331.477C146.68 331.482 145.826 330.401 145.826 328.687ZM146.641 328.687C146.636 329.949 147.141 330.724 147.881 330.724C148.607 330.724 149.112 329.949 149.112 328.687C149.112 327.442 148.607 326.662 147.881 326.658C147.141 326.662 146.636 327.442 146.641 328.687ZM157.467 326.011V326.702H154.579V328.235H157.307V328.908H154.579V330.689C155.903 330.68 156.886 330.631 158.034 330.441L158.113 331.123C156.886 331.327 155.832 331.367 154.366 331.371H153.728V326.011H157.467ZM158.734 333.249V325.311H159.575V328.439H160.851V329.147H159.575V333.249H158.734ZM167.85 325.311V330.033H167.008V328.022H165.529V327.331H167.008V325.311H167.85ZM161.232 329.316C162.463 328.886 163.221 327.814 163.216 326.72V326.543H161.498V325.86H165.777V326.543H164.076V326.711C164.071 327.716 164.789 328.695 165.989 329.103L165.555 329.767C164.665 329.462 164.009 328.824 163.664 328.04C163.318 328.926 162.623 329.639 161.675 329.989L161.232 329.316ZM162.508 331.752C162.503 330.808 163.522 330.259 165.192 330.255C166.853 330.259 167.872 330.808 167.876 331.752C167.872 332.695 166.853 333.245 165.192 333.249C163.522 333.245 162.503 332.695 162.508 331.752ZM163.34 331.752C163.336 332.288 164.027 332.594 165.192 332.585C166.348 332.594 167.039 332.288 167.044 331.752C167.039 331.211 166.348 330.906 165.192 330.91C164.027 330.906 163.336 331.211 163.34 331.752ZM175.655 325.32V331.132H174.813V325.32H175.655ZM169.117 329.342C170.362 328.881 171.097 327.739 171.101 326.543V325.754H171.961V326.543C171.956 327.703 172.692 328.766 173.919 329.192L173.484 329.865C172.568 329.524 171.89 328.85 171.535 327.991C171.185 328.912 170.499 329.648 169.569 330.007L169.117 329.342ZM170.463 333.081V330.582H171.314V332.399H175.894V333.081H170.463Z" fill="#898D8F"/>
<rect width="243" height="34.992" transform="translate(50 41)" fill="white"/>
<path d="M85.9998 55.4924C87.5221 55.5032 89.0389 56.4122 89.0443 59.2577C89.0443 61.9417 87.8287 63.4962 85.9138 63.4962C84.4131 63.4962 83.3749 62.5603 83.2028 61.2694H84.5906C84.7304 61.888 85.2091 62.2806 85.9138 62.2806C87.0434 62.2806 87.6781 61.2855 87.6888 59.6127H87.6028C87.2101 60.2904 86.4571 60.6938 85.6018 60.6885C84.2087 60.6938 83.1329 59.6342 83.1275 58.1604C83.1275 56.6381 84.2732 55.4817 85.9998 55.4924ZM84.4938 58.1281C84.4938 58.9672 85.1177 59.6234 85.9891 59.6234C86.8551 59.6234 87.5221 58.9242 87.5167 58.1173C87.5167 57.3266 86.882 56.6274 86.0106 56.622C85.1338 56.6274 84.483 57.2944 84.4938 58.1281ZM91.0668 62.4205C90.6042 62.4205 90.2223 62.0439 90.2277 61.5814C90.2223 61.1295 90.6042 60.7584 91.0668 60.753C91.5132 60.7584 91.8951 61.1295 91.8951 61.5814C91.8951 62.0439 91.5132 62.4205 91.0668 62.4205ZM90.2277 57.4073C90.2223 56.9555 90.6042 56.5844 91.0668 56.579C91.5132 56.5844 91.8951 56.9555 91.8951 57.4073C91.8951 57.8699 91.5132 58.2464 91.0668 58.2464C90.6042 58.2464 90.2223 57.8699 90.2277 57.4073ZM93.0677 61.9364V60.8176L96.4349 55.6H98.1777V60.7853H99.1997V61.9364H98.1777V63.3887H96.8437V61.9364H93.0677ZM94.4985 60.7853H96.8652V57.1922H96.7792L94.4985 60.7315V60.7853ZM103.374 55.6V63.3887H101.964V56.9663H101.921L100.103 58.1281V56.8479L102.029 55.6H103.374Z" fill="#131214"/>
<rect opacity="0.35" x="256.994" y="55.7322" width="15.552" height="7.776" rx="2.4624" stroke="#131214" stroke-width="0.648"/>
<path opacity="0.4" d="M273.518 58.5059V61.1468C274.039 60.9231 274.379 60.4028 274.379 59.8263C274.379 59.2498 274.039 58.7295 273.518 58.5059Z" fill="#131214"/>
<rect x="257.966" y="56.7051" width="13.608" height="5.832" rx="1.62" fill="#131214"/>
<path fill-rule="evenodd" clip-rule="evenodd" d="M246.477 57.4204C248.089 57.4205 249.639 58.018 250.807 59.0894C250.895 59.1722 251.035 59.1711 251.122 59.0871L251.963 58.2684C252.007 58.2258 252.031 58.168 252.031 58.108C252.03 58.0479 252.005 57.9905 251.961 57.9484C248.895 55.1136 244.059 55.1136 240.993 57.9484C240.949 57.9905 240.923 58.0479 240.923 58.1079C240.923 58.168 240.947 58.2257 240.991 58.2684L241.832 59.0871C241.918 59.1713 242.059 59.1723 242.147 59.0894C243.315 58.0179 244.865 57.4204 246.477 57.4204ZM246.475 60.1552C247.355 60.1551 248.203 60.4867 248.855 61.0855C248.943 61.1705 249.082 61.1687 249.168 61.0814L250.002 60.2265C250.046 60.1816 250.07 60.1208 250.07 60.0576C250.069 59.9944 250.043 59.9341 249.999 59.8901C248.013 58.0169 244.939 58.0169 242.953 59.8901C242.908 59.9341 242.883 59.9944 242.882 60.0576C242.882 60.1209 242.906 60.1817 242.95 60.2265L243.784 61.0814C243.87 61.1687 244.009 61.1705 244.097 61.0855C244.749 60.4871 245.596 60.1555 246.475 60.1552ZM248.111 61.9654C248.112 62.0336 248.088 62.0995 248.045 62.1473L246.634 63.738C246.593 63.7847 246.536 63.811 246.477 63.811C246.419 63.811 246.362 63.7847 246.321 63.738L244.91 62.1473C244.867 62.0994 244.843 62.0336 244.844 61.9653C244.845 61.8971 244.872 61.8324 244.917 61.7866C245.818 60.9352 247.137 60.9352 248.038 61.7866C248.083 61.8324 248.11 61.8971 248.111 61.9654Z" fill="#131214"/>
<path fill-rule="evenodd" clip-rule="evenodd" d="M236.064 56.4967C236.064 56.0864 235.754 55.7539 235.372 55.7539H234.681C234.299 55.7539 233.99 56.0864 233.99 56.4967V62.9339C233.99 63.3441 234.299 63.6766 234.681 63.6766H235.372C235.754 63.6766 236.064 63.3441 236.064 62.9339V56.4967ZM231.246 57.3384H231.937C232.319 57.3384 232.629 57.679 232.629 58.099V62.916C232.629 63.3361 232.319 63.6766 231.937 63.6766H231.246C230.865 63.6766 230.555 63.3361 230.555 62.916V58.099C230.555 57.679 230.865 57.3384 231.246 57.3384ZM228.439 59.055H227.748C227.366 59.055 227.057 59.3999 227.057 59.8253V62.9064C227.057 63.3318 227.366 63.6766 227.748 63.6766H228.439C228.821 63.6766 229.13 63.3318 229.13 62.9064V59.8253C229.13 59.3999 228.821 59.055 228.439 59.055ZM225.004 60.6396H224.313C223.931 60.6396 223.622 60.9795 223.622 61.3988V62.9174C223.622 63.3367 223.931 63.6766 224.313 63.6766H225.004C225.386 63.6766 225.696 63.3367 225.696 62.9174V61.3988C225.696 60.9795 225.386 60.6396 225.004 60.6396Z" fill="#131214"/>
<rect width="243" height="41.472" transform="translate(50 75.9922)" fill="white"/>
<path d="M153.723 92.9202C153.723 94.3314 154.628 95.7173 156.431 96.3121L155.722 97.4005C154.438 96.9702 153.533 96.1159 153.033 95.0465C152.527 96.2172 151.577 97.1474 150.242 97.603L149.496 96.5146C151.337 95.9008 152.305 94.42 152.305 92.9202V92.781H149.888V91.6546H156.102V92.781H153.723V92.9202ZM151.027 99.4888V98.3624H158.646V102.374H157.241V99.4888H151.027ZM157.241 97.8309V90.9332H158.646V93.7935H160.241V94.9705H158.646V97.8309H157.241ZM165.012 92.5785C165.006 94.1352 165.917 95.5591 167.708 96.1223L166.949 97.2234C165.702 96.7804 164.829 95.9451 164.341 94.863C163.835 96.1096 162.88 97.0905 161.494 97.5777L160.747 96.4387C162.639 95.8185 163.588 94.2934 163.595 92.6418V91.5534H165.012V92.5785ZM162.645 100.172C162.633 98.7801 164.12 97.9638 166.531 97.9701C168.955 97.9638 170.435 98.7801 170.442 100.172C170.435 101.564 168.955 102.362 166.531 102.362C164.12 102.362 162.633 101.564 162.645 100.172ZM164.038 100.172C164.031 100.868 164.942 101.254 166.531 101.261C168.132 101.254 169.037 100.868 169.037 100.172C169.037 99.4509 168.132 99.0648 166.531 99.0585C164.942 99.0648 164.031 99.4509 164.038 100.172ZM166.721 94.2998V93.148H168.999V90.9332H170.404V97.6663H168.999V94.2998H166.721ZM180.984 90.9332V95.4895H182.744V96.6538H180.984V102.374H179.592V90.9332H180.984ZM171.96 93.8188V92.6924H174.669V91.0977H176.074V92.6924H178.706V93.8188H171.96ZM172.492 97.2613C172.479 95.6793 173.707 94.5592 175.378 94.5655C177.023 94.5592 178.244 95.6793 178.251 97.2613C178.244 98.837 177.023 99.9445 175.378 99.9445C173.707 99.9445 172.479 98.837 172.492 97.2613ZM173.834 97.2613C173.827 98.1916 174.479 98.7864 175.378 98.7801C176.257 98.7864 176.896 98.1916 176.909 97.2613C176.896 96.3311 176.257 95.7173 175.378 95.7173C174.479 95.7173 173.827 96.3311 173.834 97.2613ZM192.78 90.9332V102.374H191.362V90.9332H192.78ZM183.3 99.223C186.3 97.7992 187.679 95.8628 187.933 93.262H183.883V92.1482H189.363C189.363 95.5527 188.04 98.4447 184.034 100.349L183.3 99.223Z" fill="#131214"/>
<path d="M68.792 101.911L63.8799 97.3379C63.5174 97.0005 63.5174 96.4534 63.8799 96.116L68.792 91.543" stroke="#131214" stroke-width="0.972" stroke-linecap="round"/>
</g>
<rect x="48.5" y="39.5" width="246" height="529.176" rx="27.5" stroke="black" stroke-width="3"/>
</g>
<defs>
<clipPath id="clip0_5328_20261">
<rect width="343" height="343" rx="24" fill="white"/>
</clipPath>
<clipPath id="clip1_5328_20261">
<rect x="50" y="41" width="243" height="526.176" rx="26" fill="white"/>
</clipPath>
</defs>
</svg>
