<svg width="343" height="343" viewBox="0 0 343 343" fill="none" xmlns="http://www.w3.org/2000/svg">
<g clip-path="url(#clip0_5307_16841)">
<rect width="343" height="343" rx="24" fill="#F7F7FB"/>
<g clip-path="url(#clip1_5307_16841)">
<rect x="50" y="-232" width="243" height="526.176" rx="26" fill="white"/>
<path d="M164.048 30.4409L170.52 33.6769C171.341 34.0873 172.307 34.0873 173.128 33.6769L179.6 30.4409M164.048 26.5529L170.52 29.7889C171.341 30.1993 172.307 30.1993 173.128 29.7889L179.6 26.5529M164.048 22.6649L170.52 19.4289C171.341 19.0185 172.307 19.0185 173.128 19.4289L179.6 22.6649L173.128 25.9009C172.307 26.3113 171.341 26.3113 170.52 25.9009L164.048 22.6649Z" stroke="#B6B6B6" stroke-width="1.34585" stroke-linecap="round" stroke-linejoin="round"/>
<path d="M129.622 53.4004L127.332 45.1536L128.654 45.1536L130.26 51.5323L130.328 51.5323L132.002 45.1536L133.301 45.1536L134.975 51.5323L135.044 51.5323L136.65 45.1536L137.971 45.1536L135.682 53.4004L134.417 53.4004L132.686 47.2381L132.618 47.2381L130.886 53.4004L129.622 53.4004ZM140.899 53.5257C139.144 53.5257 138 52.2499 138.005 50.3363C138 48.4113 139.144 47.1355 140.899 47.1355C142.641 47.1355 143.78 48.4113 143.78 50.3363C143.78 52.2499 142.641 53.5257 140.899 53.5257ZM139.224 50.3363C139.224 51.5152 139.765 52.5119 140.899 52.5119C142.015 52.5119 142.55 51.5152 142.55 50.3363C142.55 49.1517 142.015 48.1436 140.899 48.1379C139.765 48.1436 139.224 49.1517 139.224 50.3363ZM144.976 53.4004L144.976 47.2153L146.15 47.2153L146.15 48.1949L146.218 48.1949C146.446 47.5342 147.067 47.1185 147.79 47.1242C147.938 47.1185 148.177 47.1355 148.302 47.1469L148.302 48.3088C148.2 48.286 147.915 48.2347 147.665 48.2404C146.822 48.2347 146.195 48.8214 146.195 49.6301L146.195 53.4004L144.976 53.4004ZM149.214 53.4004L149.214 45.1536L150.432 45.1536L150.432 49.8237L150.535 49.8237L152.984 47.2153L154.442 47.2153L151.942 49.8693L154.613 53.4004L153.121 53.4004L151.019 50.6211L150.432 51.202L150.432 53.4004L149.214 53.4004ZM155.399 55.7241L155.399 47.2153L156.583 47.2153L156.583 48.2177L156.686 48.2177C156.902 47.8304 157.318 47.1355 158.463 47.1355C159.961 47.1355 161.06 48.3088 161.06 50.3249C161.06 52.3183 159.972 53.52 158.474 53.5257C157.352 53.52 156.908 52.8366 156.686 52.4322L156.618 52.4322L156.618 55.7241L155.399 55.7241ZM156.595 50.3021C156.595 51.6007 157.164 52.4834 158.201 52.4891C159.272 52.4834 159.83 51.5437 159.83 50.3021C159.83 49.0833 159.289 48.1664 158.201 48.1721C157.153 48.1664 156.595 49.015 156.595 50.3021ZM163.486 45.1536L163.486 53.4004L162.267 53.4004L162.267 45.1536L163.486 45.1536ZM164.682 51.6576C164.676 50.2452 165.878 49.8807 166.994 49.801C167.404 49.7782 168.333 49.7269 168.618 49.7155L168.612 49.22C168.618 48.5195 168.185 48.1151 167.359 48.1151C166.641 48.1151 166.208 48.4455 166.083 48.9011L164.876 48.9011C164.984 47.8759 165.941 47.1355 167.404 47.1355C168.39 47.1355 169.825 47.4944 169.831 49.2884L169.831 53.4004L168.646 53.4004L168.646 52.5575L168.601 52.5575C168.361 53.0188 167.792 53.5371 166.767 53.5371C165.593 53.5371 164.676 52.865 164.682 51.6576ZM165.867 51.669C165.867 52.2613 166.357 52.5632 167.04 52.5689C168.031 52.5632 168.623 51.9025 168.623 51.1678L168.618 50.604C168.339 50.6211 167.456 50.6837 167.165 50.7008C166.368 50.7578 165.867 51.0596 165.867 51.669ZM173.92 53.5257C172.115 53.5257 171.021 52.1987 171.027 50.3363C171.021 48.4512 172.154 47.1355 173.897 47.1355C175.31 47.1355 176.329 47.9671 176.46 49.22L175.275 49.22C175.15 48.6391 174.689 48.155 173.92 48.1493C172.918 48.155 172.246 48.9865 172.246 50.3021C172.246 51.6576 172.9 52.4948 173.92 52.4891C174.609 52.4948 175.122 52.1076 175.275 51.4412L176.46 51.4412C176.329 52.6429 175.378 53.5257 173.92 53.5257ZM180.276 53.5257C178.453 53.5257 177.331 52.267 177.337 50.3477C177.331 48.4455 178.47 47.1355 180.196 47.1355C181.603 47.1355 182.941 48.0069 182.941 50.2452L182.941 50.678L178.545 50.678C178.579 51.857 179.274 52.5233 180.287 52.5233C180.976 52.5233 181.426 52.2272 181.631 51.8513L182.862 51.8513C182.588 52.8536 181.637 53.5257 180.276 53.5257ZM178.55 49.7668L181.745 49.7668C181.745 48.8271 181.136 48.1322 180.208 48.1379C179.234 48.1322 178.601 48.8954 178.55 49.7668ZM191.94 45.1991C191.929 48.212 191.006 50.8831 187.281 52.717L186.689 51.9082C188.534 51.0027 189.633 49.9035 190.237 48.6106L186.905 48.9239L186.746 47.9898L190.573 47.7336C190.727 47.2096 190.812 46.6571 190.852 46.0762L187.281 46.0762L187.281 45.1991L191.94 45.1991ZM193.5 54.3572L193.5 44.1626L194.583 44.1626L194.583 48.2404L196.166 48.2404L196.166 49.1289L194.583 49.1289L194.583 54.3572L193.5 54.3572ZM204.982 49.0036L204.982 49.8921L197.874 49.8921L197.874 45.0738L204.891 45.0738L204.891 45.9623L198.945 45.9623L198.945 49.0036L204.982 49.0036ZM196.713 53.0245L196.713 52.1246L206.053 52.1246L206.053 53.0245L196.713 53.0245ZM216.122 48.8441L216.122 49.6757L206.782 49.6757L206.782 48.8441L216.122 48.8441ZM207.887 51.1678L207.887 50.3933L214.972 50.3933L214.972 52.6372L208.98 52.6372L208.98 53.4801L215.291 53.4801L215.291 54.2433L207.898 54.2433L207.898 51.9196L213.901 51.9196L213.901 51.1678L207.887 51.1678ZM207.955 45.1877L207.955 44.4246L214.949 44.4246L214.949 46.6344L209.049 46.6344L209.049 47.4089L215.12 47.4089L215.12 48.1721L207.978 48.1721L207.978 45.9167L213.867 45.9167L213.867 45.1877L207.955 45.1877ZM149.84 67.3135L149.84 68.202L145.717 68.202L145.717 71.38L144.646 71.38L144.646 68.202L140.534 68.202L140.534 67.3135L149.84 67.3135ZM141.081 65.7416C143.017 65.4967 144.578 64.4146 144.646 63.2699L141.411 63.2699L141.411 62.3928L144.646 62.3928L144.646 61.1626L145.717 61.1626L145.717 62.3928L148.952 62.3928L148.952 63.2699L145.728 63.2699C145.785 64.4032 147.329 65.4967 149.271 65.7416L148.883 66.6073C147.243 66.3795 145.848 65.6106 145.187 64.5684C144.526 65.622 143.125 66.3795 141.479 66.6073L141.081 65.7416ZM158.565 61.1626L158.565 65.229L160.149 65.229L160.149 66.1289L158.565 66.1289L158.565 71.3572L157.483 71.3572L157.483 61.1626L158.565 61.1626ZM150.626 68.6348C153.183 67.3591 154.573 65.5138 154.795 63.1332L151.139 63.1332L151.139 62.2333L155.9 62.2333C155.889 65.1835 154.59 67.8204 151.23 69.4777L150.626 68.6348ZM165.741 62.8484L165.741 63.7255L160.673 63.7255L160.673 62.8484L162.677 62.8484L162.677 61.4587L163.748 61.4587L163.748 62.8484L165.741 62.8484ZM161.003 66.687C160.997 65.3145 161.931 64.3406 163.213 64.3406C164.506 64.3406 165.428 65.3145 165.434 66.687C165.428 68.0824 164.506 69.062 163.213 69.0563C161.931 69.062 160.997 68.0824 161.003 66.687ZM161.96 66.687C161.954 67.5527 162.478 68.1337 163.213 68.1337C163.947 68.1337 164.477 67.5527 164.477 66.687C164.477 65.8384 163.947 65.2461 163.213 65.2404C162.478 65.2461 161.954 65.8384 161.96 66.687ZM166.208 70.8902L166.208 61.3904L167.234 61.3904L167.234 65.4113L168.407 65.4113L168.407 61.1626L169.432 61.1626L169.432 71.3686L168.407 71.3686L168.407 66.2998L167.234 66.2998L167.234 70.8902L166.208 70.8902ZM182.93 66.9149L182.93 67.7919L178.784 67.7919L178.784 71.3572L177.724 71.3572L177.724 67.7919L173.624 67.7919L173.624 66.9149L182.93 66.9149ZM174.148 65.286C176.05 65.024 177.633 63.8906 177.667 62.632L174.489 62.632L174.489 61.7663L182.053 61.7663L182.053 62.632L178.898 62.632C178.915 63.8906 180.487 65.024 182.417 65.286L182.019 66.1403C180.344 65.8783 178.898 65.0525 178.277 63.8906C177.65 65.0525 176.209 65.8783 174.558 66.1403L174.148 65.286ZM186.814 63.9533C186.814 65.5822 187.498 67.3192 188.864 68.1564L188.261 68.988C187.304 68.4127 186.66 67.3933 186.307 66.2143C185.937 67.5072 185.231 68.6121 184.24 69.2158L183.568 68.407C185.009 67.5413 185.772 65.7359 185.766 63.9989L185.766 62.0966L186.814 62.0966L186.814 63.9533ZM187.76 65.6505L187.76 64.7506L189.343 64.7506L189.343 61.3562L190.368 61.3562L190.368 70.8674L189.343 70.8674L189.343 65.6505L187.76 65.6505ZM191.45 71.3686L191.45 61.1626L192.487 61.1626L192.487 71.3686L191.45 71.3686ZM203.126 69.193L203.126 70.0928L193.785 70.0928L193.785 69.193L196.018 69.193L196.018 66.5276C195.181 66.0663 194.668 65.3373 194.674 64.4203C194.668 62.8142 196.246 61.7606 198.433 61.7549C200.625 61.7606 202.203 62.8142 202.203 64.4203C202.203 65.3202 201.713 66.0435 200.893 66.5048L200.893 69.193L203.126 69.193ZM195.722 64.4203C195.722 65.5138 196.832 66.2257 198.433 66.2314C200.022 66.2257 201.149 65.5138 201.155 64.4203C201.149 63.3211 200.022 62.6206 198.433 62.6206C196.832 62.6206 195.722 63.3211 195.722 64.4203ZM197.088 69.193L199.799 69.193L199.799 66.9262C199.384 67.0231 198.922 67.0743 198.433 67.0743C197.954 67.0743 197.499 67.0231 197.088 66.9262L197.088 69.193Z" fill="#B6B6B6"/>
<rect width="243" height="44.064" transform="translate(50 236.502)" fill="white"/>
<g filter="url(#filter0_d_5307_16841)">
<rect width="60.75" height="36.288" transform="translate(50 237.15)" fill="white"/>
<path d="M80.726 250.943C80.726 251.137 80.5689 251.294 80.375 251.294C80.1812 251.294 80.024 251.137 80.024 250.943C80.024 250.749 80.1812 250.592 80.375 250.592C80.5689 250.592 80.726 250.749 80.726 250.943Z" fill="#C4C4C4"/>
<path d="M76.865 256.91H83.885M76.6619 248.033L76.0148 247.71C75.4974 247.451 74.9067 247.894 75.0102 248.463L75.8486 253.075C76.0307 254.076 76.9029 254.804 77.9207 254.804H82.8294C83.8472 254.804 84.7194 254.076 84.9015 253.075L85.7399 248.463C85.8434 247.894 85.2527 247.451 84.7353 247.71L84.0882 248.033C83.5476 248.304 82.8948 248.198 82.4675 247.77L80.8714 246.174C80.5973 245.9 80.1528 245.9 79.8787 246.174L78.2826 247.77C77.8553 248.198 77.2025 248.304 76.6619 248.033ZM80.726 250.943C80.726 251.137 80.5689 251.294 80.375 251.294C80.1812 251.294 80.024 251.137 80.024 250.943C80.024 250.749 80.1812 250.592 80.375 250.592C80.5689 250.592 80.726 250.749 80.726 250.943Z" stroke="#C4C4C4" stroke-width="0.972" stroke-linecap="round" stroke-linejoin="round"/>
<path d="M75.5087 262.567C75.3125 261.979 74.8664 261.605 74.2114 261.605C73.4014 261.605 72.7591 262.245 72.7559 263.428C72.7591 264.608 73.4014 265.247 74.2494 265.25C75.0214 265.247 75.5561 264.735 75.5656 263.922H74.3696V263.422H76.1225V263.915C76.1225 265.051 75.341 265.782 74.2494 265.782C73.0249 265.782 72.2022 264.877 72.2054 263.428C72.2022 261.979 73.0344 261.074 74.2114 261.074C75.1796 261.074 75.9263 261.681 76.0972 262.567H75.5087ZM79.0777 264.308V262.283H79.6156V265.719H79.0777V265.137H79.0398C78.8784 265.485 78.5367 265.763 78.0209 265.763C77.3691 265.763 76.904 265.339 76.9072 264.466V262.283H77.4514V264.428C77.4514 264.921 77.7583 265.241 78.1981 265.238C78.5873 265.241 79.0746 264.95 79.0777 264.308ZM80.4889 265.719V262.283H81.0331V265.719H80.4889ZM80.3813 261.352C80.3782 261.15 80.5522 260.988 80.761 260.992C80.9698 260.988 81.1439 261.15 81.147 261.352C81.1439 261.552 80.9698 261.713 80.761 261.713C80.5522 261.713 80.3782 261.552 80.3813 261.352ZM83.1973 265.788C82.3399 265.792 81.7355 265.102 81.7355 264.01C81.7355 262.922 82.3399 262.238 83.2037 262.238C83.8713 262.238 84.0801 262.643 84.1972 262.827H84.2352V261.137H84.7857V265.719H84.2541V265.194H84.1972C84.077 265.383 83.8523 265.792 83.1973 265.788ZM82.2861 263.997C82.2861 264.728 82.6215 265.301 83.2733 265.301C83.9029 265.301 84.251 264.77 84.2541 263.997C84.251 263.235 83.9124 262.726 83.2733 262.726C82.612 262.726 82.2861 263.279 82.2861 263.997ZM87.1714 265.788C86.1779 265.792 85.5641 265.083 85.5641 264.029C85.5641 262.972 86.1874 262.238 87.1208 262.238C87.8422 262.238 88.6047 262.681 88.6016 263.953V264.181H86.1083C86.1368 264.909 86.5607 265.307 87.1714 265.307C87.5827 265.307 87.8422 265.127 87.9687 264.915H88.5509C88.3896 265.437 87.8802 265.792 87.1714 265.788ZM86.1114 263.719H88.051C88.0479 263.146 87.6871 262.719 87.1208 262.719C86.5259 262.719 86.1494 263.187 86.1114 263.719Z" fill="#C4C4C4"/>
<rect width="60.75" height="36.288" transform="translate(110.75 237.15)" fill="white"/>
<path d="M131.837 249.19V247.084C131.837 246.308 131.208 245.68 130.433 245.68H128.327M124.115 245.68H122.009C121.234 245.68 120.605 246.308 120.605 247.084V249.19M120.605 253.402V255.508C120.605 256.283 121.234 256.912 122.009 256.912H124.115M128.327 256.912H130.433C131.208 256.912 131.837 256.283 131.837 255.508V253.402M122.711 254.104C125.051 252.232 127.391 252.232 129.731 254.104M128.327 250.594C128.327 251.757 127.384 252.7 126.221 252.7C125.058 252.7 124.115 251.757 124.115 250.594C124.115 249.431 125.058 248.488 126.221 248.488C127.384 248.488 128.327 249.431 128.327 250.594Z" stroke="#C3C3C3" stroke-width="0.972" stroke-linecap="round" stroke-linejoin="round"/>
<path d="M118.422 261.643V261.137H121.877V261.643H120.44V265.719H119.864V261.643H118.422ZM122.206 265.719V262.283H122.731V262.808H122.769C122.892 262.46 123.25 262.229 123.655 262.226C123.737 262.229 123.876 262.232 123.94 262.238V262.789C123.899 262.779 123.753 262.751 123.611 262.751C123.117 262.751 122.75 263.093 122.75 263.555V265.719H122.206ZM124.3 264.744C124.3 263.956 124.996 263.776 125.591 263.732C125.813 263.716 126.366 263.684 126.522 263.681V263.403C126.522 262.966 126.262 262.713 125.743 262.713C125.31 262.713 125.047 262.912 124.971 263.175H124.402C124.471 262.621 125.009 262.238 125.768 262.238C126.218 262.238 127.063 262.371 127.059 263.453V265.719H126.522V265.25H126.496C126.382 265.481 126.069 265.798 125.471 265.801C124.819 265.798 124.3 265.415 124.3 264.744ZM124.845 264.77C124.848 265.133 125.148 265.317 125.566 265.314C126.18 265.317 126.522 264.906 126.522 264.472V264.127C126.36 264.137 125.819 264.178 125.655 264.187C125.161 264.219 124.848 264.393 124.845 264.77ZM129.338 265.788C128.363 265.792 127.768 265.048 127.768 264.016C127.768 262.972 128.391 262.238 129.325 262.238C130.056 262.238 130.606 262.672 130.692 263.32H130.148C130.068 263.007 129.796 262.719 129.338 262.719C128.724 262.719 128.316 263.225 128.312 263.997C128.316 264.792 128.714 265.301 129.338 265.301C129.743 265.301 130.053 265.083 130.148 264.706H130.692C130.606 265.32 130.1 265.792 129.338 265.788ZM131.363 265.719V261.137H131.907V263.801H131.97L133.457 262.283H134.128L132.679 263.754L134.236 265.719H133.546L132.271 264.099L131.907 264.437V265.719H131.363Z" fill="#C4C4C4"/>
<rect width="60.75" height="36.288" transform="translate(171.5 237.15)" fill="white"/>
<path d="M211.197 251.998H213.74C214.113 251.998 214.47 252.146 214.733 252.409L215.315 252.99C215.578 253.254 215.935 253.402 216.308 253.402H217.25C217.623 253.402 217.98 253.254 218.243 252.99L218.825 252.409C219.088 252.146 219.445 251.998 219.818 251.998H222.361M211.163 251.555L211.163 254.806C211.163 255.969 212.106 256.912 213.269 256.912H220.289C221.452 256.912 222.395 255.969 222.395 254.806V251.555C222.395 251.383 222.374 251.211 222.332 251.044L221.39 247.275C221.155 246.337 220.313 245.68 219.347 245.68H214.211C213.245 245.68 212.403 246.337 212.168 247.275L211.226 251.044C211.184 251.211 211.163 251.383 211.163 251.555Z" stroke="#C4C4C4" stroke-width="0.972"/>
<path d="M209.919 261.137V265.719H209.35V261.137H209.919ZM211.406 263.656V265.719H210.862V262.283H211.387V262.82H211.432C211.593 262.469 211.916 262.238 212.438 262.238C213.134 262.238 213.599 262.662 213.596 263.536V265.719H213.052V263.574C213.052 263.042 212.761 262.726 212.273 262.726C211.773 262.726 211.406 263.061 211.406 263.656ZM214.539 265.719V261.137H215.083V262.827H215.127C215.244 262.643 215.45 262.238 216.121 262.238C216.981 262.238 217.586 262.922 217.589 264.01C217.586 265.102 216.981 265.792 216.127 265.788C215.469 265.792 215.244 265.383 215.127 265.194H215.064V265.719H214.539ZM215.07 263.997C215.07 264.77 215.418 265.301 216.045 265.301C216.7 265.301 217.035 264.728 217.038 263.997C217.035 263.279 216.709 262.726 216.045 262.726C215.412 262.726 215.07 263.235 215.07 263.997ZM219.703 265.788C218.766 265.792 218.133 265.083 218.133 264.016C218.133 262.944 218.766 262.238 219.703 262.238C220.636 262.238 221.262 262.944 221.259 264.016C221.262 265.083 220.636 265.792 219.703 265.788ZM218.677 264.016C218.681 264.703 219.003 265.307 219.703 265.307C220.395 265.307 220.715 264.703 220.715 264.016C220.715 263.333 220.395 262.719 219.703 262.719C219.003 262.719 218.681 263.333 218.677 264.016ZM222.24 262.283L223.05 263.681L223.866 262.283H224.493L223.385 263.997L224.493 265.719H223.873L223.05 264.39L222.24 265.719H221.614L222.696 263.997L221.614 262.283H222.24Z" fill="#C4C4C4"/>
<rect width="60.75" height="36.288" transform="translate(232.25 237.15)" fill="white"/>
<path d="M265.395 247.67L265.638 248.091V248.091L265.395 247.67ZM267.313 248.184L267.734 247.941V247.941L267.313 248.184ZM267.664 248.792L267.243 249.035H267.243L267.664 248.792ZM267.15 250.71L267.393 251.13L267.15 250.71ZM267.15 251.882L266.907 252.303L267.15 251.882ZM267.664 253.8L268.085 254.043L267.664 253.8ZM267.313 254.408L266.892 254.165V254.165L267.313 254.408ZM265.395 254.922L265.638 254.501L265.395 254.922ZM259.854 254.922L259.611 254.501H259.611L259.854 254.922ZM257.936 254.408L258.357 254.165H258.357L257.936 254.408ZM257.585 253.8L257.165 254.043H257.165L257.585 253.8ZM258.099 251.882L257.856 251.461H257.856L258.099 251.882ZM258.099 250.71L257.856 251.13H257.856L258.099 250.71ZM257.585 248.792L257.165 248.549H257.165L257.585 248.792ZM257.936 248.184L258.357 248.427L257.936 248.184ZM259.854 247.67L259.611 248.091L259.854 247.67ZM262.273 245.194C261.23 245.194 260.383 246.04 260.383 247.084H261.355C261.355 246.577 261.766 246.166 262.273 246.166V245.194ZM262.975 245.194H262.273V246.166H262.975V245.194ZM264.865 247.084C264.865 246.04 264.019 245.194 262.975 245.194V246.166C263.482 246.166 263.893 246.577 263.893 247.084H264.865ZM267.734 247.941C267.212 247.037 266.056 246.727 265.152 247.249L265.638 248.091C266.077 247.837 266.638 247.988 266.892 248.427L267.734 247.941ZM268.085 248.549L267.734 247.941L266.892 248.427L267.243 249.035L268.085 248.549ZM267.393 251.13C268.297 250.609 268.606 249.453 268.085 248.549L267.243 249.035C267.496 249.474 267.346 250.035 266.907 250.289L267.393 251.13ZM268.085 254.043C268.606 253.139 268.297 251.983 267.393 251.461L266.907 252.303C267.346 252.556 267.496 253.118 267.243 253.557L268.085 254.043ZM267.734 254.651L268.085 254.043L267.243 253.557L266.892 254.165L267.734 254.651ZM265.152 255.342C266.056 255.864 267.212 255.555 267.734 254.651L266.892 254.165C266.638 254.604 266.077 254.754 265.638 254.501L265.152 255.342ZM262.975 257.398C264.019 257.398 264.865 256.552 264.865 255.508H263.893C263.893 256.015 263.482 256.426 262.975 256.426V257.398ZM262.273 257.398H262.975V256.426H262.273V257.398ZM260.383 255.508C260.383 256.552 261.23 257.398 262.273 257.398V256.426C261.766 256.426 261.355 256.015 261.355 255.508H260.383ZM257.516 254.651C258.037 255.555 259.193 255.864 260.097 255.342L259.611 254.501C259.172 254.754 258.611 254.604 258.357 254.165L257.516 254.651ZM257.165 254.043L257.516 254.651L258.357 254.165L258.006 253.557L257.165 254.043ZM257.856 251.461C256.952 251.983 256.643 253.139 257.165 254.043L258.006 253.557C257.753 253.118 257.903 252.556 258.342 252.303L257.856 251.461ZM257.165 248.549C256.643 249.453 256.952 250.609 257.856 251.13L258.342 250.289C257.903 250.035 257.753 249.474 258.006 249.035L257.165 248.549ZM257.516 247.941L257.165 248.549L258.006 249.035L258.357 248.427L257.516 247.941ZM260.097 247.249C259.193 246.727 258.037 247.037 257.516 247.941L258.357 248.427C258.611 247.988 259.172 247.837 259.611 248.091L260.097 247.249ZM259.611 248.091C260.387 248.538 261.355 247.979 261.355 247.084H260.383C260.383 247.231 260.224 247.322 260.097 247.249L259.611 248.091ZM258.342 252.303C259.118 251.855 259.118 250.736 258.342 250.289L257.856 251.13C257.984 251.204 257.984 251.387 257.856 251.461L258.342 252.303ZM261.355 255.508C261.355 254.613 260.387 254.053 259.611 254.501L260.097 255.342C260.224 255.269 260.383 255.361 260.383 255.508H261.355ZM265.638 254.501C264.863 254.053 263.893 254.613 263.893 255.508H264.865C264.865 255.361 265.024 255.269 265.152 255.342L265.638 254.501ZM266.907 250.289C266.132 250.736 266.132 251.855 266.907 252.303L267.393 251.461C267.266 251.387 267.266 251.204 267.393 251.13L266.907 250.289ZM263.893 247.084C263.893 247.979 264.863 248.538 265.638 248.091L265.152 247.249C265.024 247.322 264.865 247.231 264.865 247.084H263.893ZM263.67 251.296C263.67 251.873 263.202 252.341 262.625 252.341V253.313C263.739 253.313 264.642 252.41 264.642 251.296H263.67ZM262.625 252.341C262.047 252.341 261.579 251.873 261.579 251.296H260.607C260.607 252.41 261.51 253.313 262.625 253.313V252.341ZM261.579 251.296C261.579 250.718 262.047 250.25 262.625 250.25V249.278C261.51 249.278 260.607 250.181 260.607 251.296H261.579ZM262.625 250.25C263.202 250.25 263.67 250.718 263.67 251.296H264.642C264.642 250.181 263.739 249.278 262.625 249.278V250.25Z" fill="#C4C4C4"/>
<path d="M255.284 262.289C255.237 261.84 254.819 261.58 254.272 261.58C253.664 261.58 253.269 261.897 253.266 262.333C253.269 262.814 253.804 262.994 254.152 263.08L254.607 263.206C255.098 263.333 255.905 263.615 255.905 264.472C255.905 265.219 255.303 265.798 254.24 265.801C253.253 265.798 252.642 265.288 252.589 264.529H253.171C253.218 265.042 253.696 265.285 254.24 265.282C254.873 265.285 255.348 264.959 255.348 264.459C255.348 264.013 254.924 263.842 254.443 263.706L253.88 263.555C253.161 263.346 252.712 262.979 252.715 262.359C252.712 261.583 253.402 261.074 254.291 261.074C255.18 261.074 255.819 261.593 255.841 262.289H255.284ZM258.094 265.788C257.101 265.792 256.487 265.083 256.487 264.029C256.487 262.972 257.11 262.238 258.043 262.238C258.765 262.238 259.527 262.681 259.524 263.953V264.181H257.031C257.059 264.909 257.483 265.307 258.094 265.307C258.505 265.307 258.765 265.127 258.891 264.915H259.474C259.312 265.437 258.803 265.792 258.094 265.788ZM257.034 263.719H258.974C258.971 263.146 258.61 262.719 258.043 262.719C257.449 262.719 257.072 263.187 257.034 263.719ZM261.733 262.283V262.738H261.011V264.732C261.008 265.171 261.23 265.244 261.461 265.244C261.559 265.244 261.704 265.235 261.783 265.231V265.738C261.698 265.75 261.565 265.763 261.404 265.763C260.945 265.763 260.464 265.478 260.461 264.871V262.738H259.942V262.283H260.461V261.46H261.011V262.283H261.733ZM263.935 262.283V262.738H263.214V264.732C263.21 265.171 263.432 265.244 263.663 265.244C263.761 265.244 263.906 265.235 263.986 265.231V265.738C263.9 265.75 263.767 265.763 263.606 265.763C263.147 265.763 262.666 265.478 262.663 264.871V262.738H262.144V262.283H262.663V261.46H263.214V262.283H263.935ZM264.637 265.719V262.283H265.182V265.719H264.637ZM264.53 261.352C264.527 261.15 264.701 260.988 264.909 260.992C265.118 260.988 265.292 261.15 265.295 261.352C265.292 261.552 265.118 261.713 264.909 261.713C264.701 261.713 264.527 261.552 264.53 261.352ZM266.593 263.656V265.719H266.049V262.283H266.574V262.82H266.618C266.779 262.469 267.102 262.238 267.624 262.238C268.32 262.238 268.785 262.662 268.782 263.536V265.719H268.238V263.574C268.238 263.042 267.947 262.726 267.46 262.726C266.96 262.726 266.593 263.061 266.593 263.656ZM271.048 267.079C270.216 267.079 269.652 266.715 269.592 266.079H270.162C270.235 266.431 270.56 266.605 271.048 266.605C271.636 266.605 271.997 266.348 271.997 265.782V265.086H271.953C271.836 265.276 271.617 265.665 270.953 265.668C270.118 265.665 269.491 265.035 269.491 263.953C269.491 262.896 270.095 262.238 270.959 262.238C271.627 262.238 271.842 262.643 271.965 262.827H272.01V262.283H272.541V265.814C272.538 266.7 271.886 267.079 271.048 267.079ZM270.042 263.972C270.042 264.684 270.377 265.181 271.029 265.181C271.658 265.181 272.006 264.728 272.01 263.972C272.006 263.235 271.668 262.726 271.029 262.726C270.367 262.726 270.042 263.279 270.042 263.972Z" fill="#C4C4C4"/>
</g>
<rect width="243" height="20.736" transform="translate(50 273.441)" fill="white"/>
<path fill-rule="evenodd" clip-rule="evenodd" d="M126.64 287.638C126.64 286.743 127.365 286.018 128.26 286.018H215.092C215.987 286.018 216.712 286.743 216.712 287.638C216.712 288.532 215.987 289.258 215.092 289.258H128.26C127.365 289.258 126.64 288.532 126.64 287.638Z" fill="#131214"/>
<g filter="url(#filter1_d_5307_16841)">
<circle cx="171.176" cy="240.174" r="23.112" fill="#C90000" stroke="#ECECEC" stroke-width="1.296"/>
<path d="M170.96 233.031V246.891M164.03 239.961H177.89" stroke="white" stroke-width="1.944" stroke-linecap="round" stroke-linejoin="round"/>
</g>
</g>
<rect x="48.5" y="-233.5" width="246" height="529.176" rx="27.5" stroke="#0C0C0C" stroke-width="3"/>
</g>
<defs>
<filter id="filter0_d_5307_16841" x="46.112" y="230.67" width="255.96" height="56.376" filterUnits="userSpaceOnUse" color-interpolation-filters="sRGB">
<feFlood flood-opacity="0" result="BackgroundImageFix"/>
<feColorMatrix in="SourceAlpha" type="matrix" values="0 0 0 0 0 0 0 0 0 0 0 0 0 0 0 0 0 0 127 0" result="hardAlpha"/>
<feOffset dx="2.592"/>
<feGaussianBlur stdDeviation="3.24"/>
<feComposite in2="hardAlpha" operator="out"/>
<feColorMatrix type="matrix" values="0 0 0 0 0 0 0 0 0 0 0 0 0 0 0 0 0 0 0.09 0"/>
<feBlend mode="normal" in2="BackgroundImageFix" result="effect1_dropShadow_5307_16841"/>
<feBlend mode="normal" in="SourceGraphic" in2="effect1_dropShadow_5307_16841" result="shape"/>
</filter>
<filter id="filter1_d_5307_16841" x="140.936" y="209.934" width="60.48" height="60.4795" filterUnits="userSpaceOnUse" color-interpolation-filters="sRGB">
<feFlood flood-opacity="0" result="BackgroundImageFix"/>
<feColorMatrix in="SourceAlpha" type="matrix" values="0 0 0 0 0 0 0 0 0 0 0 0 0 0 0 0 0 0 127 0" result="hardAlpha"/>
<feOffset/>
<feGaussianBlur stdDeviation="3.24"/>
<feComposite in2="hardAlpha" operator="out"/>
<feColorMatrix type="matrix" values="0 0 0 0 0 0 0 0 0 0 0 0 0 0 0 0 0 0 0.08 0"/>
<feBlend mode="normal" in2="BackgroundImageFix" result="effect1_dropShadow_5307_16841"/>
<feBlend mode="normal" in="SourceGraphic" in2="effect1_dropShadow_5307_16841" result="shape"/>
</filter>
<clipPath id="clip0_5307_16841">
<rect width="343" height="343" rx="24" fill="white"/>
</clipPath>
<clipPath id="clip1_5307_16841">
<rect x="50" y="-232" width="243" height="526.176" rx="26" fill="white"/>
</clipPath>
</defs>
</svg>
