<svg width="343" height="343" viewBox="0 0 343 343" fill="none" xmlns="http://www.w3.org/2000/svg">
<g clip-path="url(#clip0_5336_15305)">
<rect width="343" height="343" rx="24" fill="#F7F7FB"/>
<g clip-path="url(#clip1_5336_15305)">
<rect x="50" y="51" width="243" height="526.176" rx="26" fill="#F7F7FB"/>
<rect width="243" height="41.472" transform="translate(50 85.9922)" fill="white"/>
<path d="M157.965 101.436V110.6H156.32V101.436H157.965ZM161.218 106.575V110.6H159.598V103.727H161.142V104.892H161.231C161.541 104.126 162.243 103.639 163.268 103.639C164.692 103.639 165.629 104.575 165.623 106.221V110.6H164.015V106.474C164.015 105.55 163.515 104.999 162.674 105.006C161.819 104.999 161.218 105.575 161.218 106.575ZM167.243 110.6V101.436H168.863V104.854H168.926C169.173 104.366 169.673 103.639 170.888 103.639C172.476 103.639 173.729 104.879 173.735 107.17C173.729 109.429 172.514 110.72 170.9 110.726C169.71 110.72 169.179 110.017 168.926 109.511H168.825V110.6H167.243ZM168.825 107.157C168.825 108.499 169.413 109.397 170.445 109.397C171.52 109.397 172.084 108.454 172.09 107.157C172.084 105.879 171.533 104.961 170.445 104.955C169.4 104.961 168.825 105.822 168.825 107.157ZM178 110.739C175.994 110.739 174.71 109.315 174.71 107.195C174.71 105.056 175.994 103.639 178 103.639C180.013 103.639 181.297 105.056 181.291 107.195C181.297 109.315 180.013 110.739 178 110.739ZM176.342 107.182C176.342 108.442 176.893 109.448 178.013 109.448C179.114 109.448 179.665 108.442 179.658 107.182C179.665 105.923 179.114 104.911 178.013 104.917C176.893 104.911 176.342 105.923 176.342 107.182ZM183.594 103.727L184.987 106.271L186.404 103.727H188.113L186.037 107.157L188.151 110.6H186.455L184.987 108.119L183.556 110.6H181.835L183.936 107.157L181.886 103.727H183.594Z" fill="#131214"/>
<path d="M253.472 112.562L250.34 109.43M252.032 105.362C252.032 108.543 249.453 111.122 246.272 111.122C243.091 111.122 240.512 108.543 240.512 105.362C240.512 102.18 243.091 99.6016 246.272 99.6016C249.453 99.6016 252.032 102.18 252.032 105.362Z" stroke="#131214" stroke-width="0.972" stroke-linecap="round" stroke-linejoin="round"/>
<path d="M274.026 111.916C273.912 112.112 273.749 112.275 273.552 112.389C273.355 112.502 273.132 112.562 272.905 112.562C272.678 112.562 272.455 112.502 272.258 112.389C272.061 112.275 271.897 112.112 271.784 111.916M276.792 103.49C276.792 102.459 276.384 101.47 275.654 100.741C274.925 100.011 273.936 99.6016 272.905 99.6016C271.873 99.6016 270.884 100.011 270.155 100.741C269.426 101.47 269.016 102.459 269.016 103.49C269.016 106.892 265.987 107.47 267.072 108.917C268.157 110.363 277.602 110.537 278.817 108.917C279.874 107.507 276.792 106.892 276.792 103.49Z" stroke="#131214" stroke-width="0.972" stroke-linecap="round" stroke-linejoin="round"/>
<path opacity="0.7" d="M66.3386 99.6025V112.562H68.0904V99.6025H66.3386Z" fill="#D03233"/>
<path d="M77.3851 99.6016H69.2122V112.562H77.3851V99.6016Z" fill="#C80000"/>
<path opacity="0.5" d="M63.3534 99.6025V112.562H65.1051V99.6025H63.3534Z" fill="#DF6564"/>
<path opacity="0.5" d="M60.3679 99.6025V112.562H62.1197V99.6025H60.3679Z" fill="#E79894"/>
<rect width="243" height="41.472" transform="translate(50 127.463)" fill="white"/>
<path d="M60.368 148.2C60.368 142.116 65.3001 137.184 71.384 137.184H271.616C277.7 137.184 282.632 142.116 282.632 148.2C282.632 154.284 277.7 159.216 271.616 159.216H71.384C65.3001 159.216 60.368 154.284 60.368 148.2Z" fill="#F4F6F7"/>
<path d="M94.2704 151.312H93.3819L95.3563 145.815H96.3207L98.3027 151.312H97.4142L96.913 149.862H94.7716L94.2704 151.312ZM95.0108 149.163H96.67L95.8575 146.817H95.8195L95.0108 149.163ZM100.406 151.396C99.4114 151.392 98.6824 150.591 98.6824 149.262C98.6824 147.918 99.4228 147.136 100.414 147.136C101.181 147.136 101.458 147.599 101.606 147.857H101.644V145.815H102.456V151.312H101.667V150.667H101.606C101.454 150.937 101.158 151.392 100.406 151.396ZM99.5101 149.247C99.5063 150.075 99.8784 150.701 100.588 150.705C101.279 150.701 101.667 150.113 101.667 149.247C101.667 148.389 101.287 147.823 100.588 147.827C99.8708 147.823 99.5063 148.434 99.5101 149.247ZM103.512 151.312V147.189H104.294V147.865H104.34C104.514 147.406 104.921 147.136 105.464 147.136C106.014 147.136 106.398 147.406 106.572 147.865H106.618C106.811 147.421 107.26 147.136 107.856 147.136C108.6 147.136 109.128 147.603 109.131 148.548V151.312H108.319V148.624C108.319 148.066 107.97 147.835 107.544 147.835C107.024 147.835 106.724 148.191 106.724 148.685V151.312H105.919V148.579C105.919 148.127 105.612 147.835 105.167 147.835C104.712 147.835 104.325 148.214 104.325 148.769V151.312H103.512ZM110.111 151.312V147.189H110.923V151.312H110.111ZM110.005 146.073C110.008 145.807 110.24 145.594 110.521 145.594C110.798 145.594 111.03 145.807 111.03 146.073C111.03 146.339 110.798 146.555 110.521 146.551C110.24 146.555 110.008 146.339 110.005 146.073ZM112.723 148.867V151.312H111.911V147.189H112.693V147.865H112.738C112.932 147.421 113.338 147.136 113.953 147.136C114.8 147.136 115.362 147.671 115.358 148.693V151.312H114.553V148.791C114.55 148.191 114.227 147.835 113.68 147.835C113.122 147.835 112.723 148.21 112.723 148.867ZM116.345 151.312V147.189H117.158V151.312H116.345ZM116.239 146.073C116.243 145.807 116.475 145.594 116.755 145.594C117.033 145.594 117.264 145.807 117.264 146.073C117.264 146.339 117.033 146.555 116.755 146.551C116.475 146.555 116.243 146.339 116.239 146.073ZM120.461 148.313C120.385 147.986 120.127 147.774 119.679 147.774C119.216 147.774 118.886 148.013 118.889 148.328C118.886 148.571 119.079 148.746 119.535 148.852L120.188 149.004C120.947 149.175 121.316 149.536 121.319 150.12C121.316 150.864 120.685 151.396 119.634 151.396C118.643 151.396 118.058 150.956 117.955 150.189H118.783C118.855 150.561 119.136 150.747 119.626 150.743C120.15 150.747 120.488 150.527 120.492 150.181C120.488 149.915 120.29 149.744 119.854 149.642L119.208 149.505C118.464 149.342 118.077 148.943 118.077 148.374C118.077 147.641 118.715 147.136 119.671 147.136C120.59 147.136 121.164 147.603 121.243 148.313H120.461ZM124.038 147.189V147.835H123.195V150.098C123.199 150.565 123.427 150.648 123.689 150.652C123.806 150.652 123.985 150.64 124.099 150.629V151.335C123.989 151.35 123.814 151.366 123.59 151.366C122.956 151.366 122.382 151.016 122.39 150.265V147.835H121.783V147.189H122.39V146.202H123.195V147.189H124.038ZM124.828 151.312V147.189H125.61V147.842H125.655C125.807 147.402 126.221 147.125 126.703 147.128C126.802 147.125 126.961 147.136 127.045 147.144V147.918C126.977 147.903 126.787 147.869 126.62 147.873C126.058 147.869 125.64 148.26 125.64 148.799V151.312H124.828ZM127.417 150.151C127.413 149.209 128.214 148.966 128.959 148.913C129.232 148.898 129.851 148.864 130.041 148.856L130.037 148.526C130.041 148.059 129.752 147.789 129.202 147.789C128.723 147.789 128.435 148.009 128.351 148.313H127.546C127.618 147.63 128.256 147.136 129.232 147.136C129.889 147.136 130.846 147.375 130.849 148.571V151.312H130.06V150.751H130.029C129.87 151.058 129.49 151.404 128.807 151.404C128.025 151.404 127.413 150.956 127.417 150.151ZM128.207 150.158C128.207 150.553 128.533 150.754 128.989 150.758C129.65 150.754 130.045 150.314 130.045 149.824L130.041 149.448C129.855 149.46 129.266 149.501 129.073 149.513C128.541 149.551 128.207 149.752 128.207 150.158ZM133.758 147.189V147.835H132.915V150.098C132.919 150.565 133.147 150.648 133.409 150.652C133.526 150.652 133.705 150.64 133.819 150.629V151.335C133.709 151.35 133.534 151.366 133.31 151.366C132.676 151.366 132.102 151.016 132.11 150.265V147.835H131.503V147.189H132.11V146.202H132.915V147.189H133.758ZM136.249 151.396C135.079 151.396 134.316 150.546 134.32 149.27C134.316 147.986 135.079 147.136 136.249 147.136C137.41 147.136 138.17 147.986 138.17 149.27C138.17 150.546 137.41 151.396 136.249 151.396ZM135.132 149.27C135.132 150.056 135.493 150.72 136.249 150.72C136.993 150.72 137.35 150.056 137.35 149.27C137.35 148.48 136.993 147.808 136.249 147.804C135.493 147.808 135.132 148.48 135.132 149.27ZM138.967 151.312V147.189H139.749V147.842H139.795C139.947 147.402 140.361 147.125 140.843 147.128C140.942 147.125 141.101 147.136 141.185 147.144V147.918C141.116 147.903 140.926 147.869 140.759 147.873C140.197 147.869 139.78 148.26 139.78 148.799V151.312H138.967Z" fill="#6E7375"/>
<g filter="url(#filter0_dd_5336_15305)">
<path d="M171.5 148.2C171.5 142.832 175.852 138.48 181.22 138.48H271.616C276.984 138.48 281.336 142.832 281.336 148.2C281.336 153.569 276.984 157.92 271.616 157.92H181.22C175.852 157.92 171.5 153.569 171.5 148.2Z" fill="#312C2C"/>
<path d="M198.945 151.312H197.889L199.826 145.815H201.041L202.985 151.312H201.929L201.47 149.953H199.4L198.945 151.312ZM199.666 149.156H201.204L200.456 146.939H200.41L199.666 149.156ZM203.592 152.862V147.189H204.541V147.865H204.602C204.75 147.573 205.054 147.136 205.787 147.136C206.736 147.136 207.484 147.88 207.488 149.255C207.484 150.61 206.759 151.385 205.787 151.388C205.077 151.385 204.754 150.963 204.602 150.659H204.564V152.862H203.592ZM204.541 149.247C204.545 150.052 204.894 150.591 205.521 150.591C206.163 150.591 206.5 150.025 206.5 149.247C206.5 148.48 206.17 147.929 205.521 147.926C204.887 147.929 204.545 148.446 204.541 149.247ZM208.247 152.862V147.189H209.196V147.865H209.257C209.405 147.573 209.709 147.136 210.442 147.136C211.391 147.136 212.139 147.88 212.143 149.255C212.139 150.61 211.414 151.385 210.442 151.388C209.732 151.385 209.409 150.963 209.257 150.659H209.219V152.862H208.247ZM209.196 149.247C209.2 150.052 209.549 150.591 210.176 150.591C210.817 150.591 211.155 150.025 211.155 149.247C211.155 148.48 210.825 147.929 210.176 147.926C209.542 147.929 209.2 148.446 209.196 149.247ZM213.874 145.815V151.312H212.902V145.815H213.874ZM214.8 151.312V147.189H215.772V151.312H214.8ZM214.732 146.073C214.732 145.784 214.986 145.549 215.294 145.549C215.602 145.549 215.856 145.784 215.856 146.073C215.856 146.365 215.602 146.601 215.294 146.604C214.986 146.601 214.732 146.365 214.732 146.073ZM218.499 151.396C217.268 151.396 216.524 150.515 216.524 149.27C216.524 148.005 217.291 147.136 218.499 147.136C219.497 147.136 220.2 147.721 220.268 148.609H219.341C219.266 148.214 218.977 147.914 218.506 147.911C217.906 147.914 217.504 148.415 217.504 149.247C217.504 150.098 217.899 150.602 218.506 150.606C218.935 150.602 219.254 150.352 219.341 149.908H220.268C220.196 150.777 219.535 151.396 218.499 151.396ZM220.807 150.151C220.807 149.224 221.578 148.955 222.341 148.905C222.63 148.883 223.218 148.856 223.4 148.848L223.397 148.518C223.397 148.108 223.135 147.873 222.652 147.873C222.22 147.873 221.954 148.07 221.878 148.366H220.944C221.012 147.664 221.642 147.136 222.675 147.136C223.457 147.136 224.361 147.459 224.361 148.556V151.312H223.435V150.743H223.404C223.222 151.092 222.838 151.396 222.189 151.396C221.403 151.396 220.807 150.967 220.807 150.151ZM221.741 150.143C221.741 150.5 222.033 150.682 222.44 150.682C223.028 150.682 223.404 150.295 223.404 149.832L223.4 149.494C223.226 149.501 222.687 149.536 222.493 149.551C222.033 149.589 221.741 149.782 221.741 150.143ZM226.244 148.898V151.312H225.272V147.189H226.199V147.888H226.252C226.438 147.428 226.859 147.136 227.474 147.136C228.329 147.136 228.891 147.698 228.887 148.685V151.312H227.922V148.837C227.922 148.283 227.622 147.952 227.117 147.956C226.605 147.952 226.244 148.298 226.244 148.898ZM231.871 147.189V147.933H231.059V150.075C231.059 150.47 231.256 150.549 231.499 150.553C231.613 150.557 231.803 150.546 231.924 150.538V151.328C231.81 151.347 231.624 151.369 231.378 151.366C230.649 151.369 230.087 151.009 230.094 150.234V147.933H229.502V147.189H230.094V146.202H231.059V147.189H231.871ZM236.701 145.556L234.931 152.14H234.081L235.858 145.556H236.701ZM242.13 147.326C242.081 146.851 241.682 146.578 241.09 146.582C240.463 146.578 240.091 146.882 240.088 147.295C240.084 147.759 240.574 147.948 241.029 148.055L241.546 148.191C242.366 148.381 243.155 148.814 243.155 149.771C243.155 150.735 242.392 151.396 241.075 151.396C239.795 151.396 238.983 150.781 238.941 149.695H239.913C239.959 150.268 240.441 150.549 241.067 150.553C241.716 150.549 242.164 150.234 242.168 149.763C242.164 149.331 241.77 149.148 241.174 148.996L240.551 148.837C239.647 148.602 239.085 148.146 239.085 147.356C239.085 146.384 239.947 145.739 241.105 145.739C242.271 145.739 243.064 146.396 243.08 147.326H242.13ZM245.988 147.189V147.933H245.175V150.075C245.175 150.47 245.373 150.549 245.616 150.553C245.73 150.557 245.92 150.546 246.041 150.538V151.328C245.927 151.347 245.741 151.369 245.494 151.366C244.765 151.369 244.203 151.009 244.211 150.234V147.933H243.619V147.189H244.211V146.202H245.175V147.189H245.988ZM246.542 150.151C246.542 149.224 247.313 148.955 248.076 148.905C248.365 148.883 248.953 148.856 249.136 148.848L249.132 148.518C249.132 148.108 248.87 147.873 248.388 147.873C247.955 147.873 247.689 148.07 247.613 148.366H246.679C246.747 147.664 247.378 147.136 248.41 147.136C249.193 147.136 250.096 147.459 250.096 148.556V151.312H249.17V150.743H249.139C248.957 151.092 248.574 151.396 247.924 151.396C247.138 151.396 246.542 150.967 246.542 150.151ZM247.476 150.143C247.476 150.5 247.769 150.682 248.175 150.682C248.763 150.682 249.139 150.295 249.139 149.832L249.136 149.494C248.961 149.501 248.422 149.536 248.228 149.551C247.769 149.589 247.476 149.782 247.476 150.143ZM253.096 147.189V147.933H252.245V151.312H251.273V147.933H250.658V147.189H251.273V146.794C251.273 145.993 251.771 145.556 252.564 145.556C252.788 145.556 252.997 145.579 253.179 145.617V146.384C253.02 146.361 252.902 146.358 252.83 146.354C252.439 146.358 252.241 146.509 252.245 146.885V147.189H253.096ZM255.875 147.189V147.933H255.025V151.312H254.053V147.933H253.437V147.189H254.053V146.794C254.053 145.993 254.55 145.556 255.343 145.556C255.567 145.556 255.776 145.579 255.959 145.617V146.384C255.799 146.361 255.681 146.358 255.609 146.354C255.218 146.358 255.021 146.509 255.025 146.885V147.189H255.875Z" fill="white"/>
</g>
<rect x="60.368" y="179.303" width="222.264" height="100.648" rx="3.24" fill="white"/>
<path d="M79.6436 197.164V207.472H78.3678V197.164H79.6436ZM71.4081 201.549C71.4024 199.328 72.5358 197.916 74.0963 197.916C75.6397 197.916 76.7788 199.328 76.7845 201.549C76.7788 203.788 75.6397 205.194 74.0963 205.194C72.5358 205.194 71.4024 203.788 71.4081 201.549ZM72.6269 201.549C72.6269 203.133 73.2249 204.05 74.0963 204.055C74.962 204.05 75.5543 203.133 75.5543 201.549C75.5543 199.977 74.962 199.055 74.0963 199.055C73.2249 199.055 72.6269 199.977 72.6269 201.549ZM90.5444 202.483V203.497H81.1585V202.483H90.5444ZM82.1267 199.579C82.1267 198.274 83.5904 197.489 85.8401 197.494C88.084 197.489 89.5477 198.274 89.5534 199.579C89.5477 200.889 88.084 201.686 85.8401 201.686C83.5904 201.686 82.1267 200.889 82.1267 199.579ZM82.3203 207.256V204.26H83.5847V206.231H89.4851V207.256H82.3203ZM83.448 199.579C83.4366 200.279 84.3422 200.655 85.8401 200.649C87.3436 200.655 88.2435 200.279 88.2435 199.579C88.2435 198.901 87.3436 198.508 85.8401 198.508C84.3422 198.508 83.4366 198.901 83.448 199.579ZM100.625 202.905V203.93H96.5358V207.45H95.2829V203.93H91.2392V202.905H100.625ZM91.729 201.219C93.7508 200.963 95.1063 199.875 95.1975 198.747H92.1049V197.745H99.7594V198.747H96.6668C96.7523 199.875 98.0964 200.963 100.135 201.219L99.6797 202.21C97.9255 201.959 96.5586 201.156 95.9321 200.046C95.3 201.156 93.9445 201.959 92.2074 202.21L91.729 201.219Z" fill="#131214"/>
<rect x="229.304" y="192.264" width="42.96" height="20.368" rx="2.592" fill="#FDF3E2"/>
<path d="M238.63 200.1C238.626 201.042 239.28 201.935 240.407 202.313L240.013 202.922C239.178 202.634 238.565 202.058 238.244 201.334C237.923 202.128 237.281 202.757 236.418 203.062L235.998 202.453C237.15 202.062 237.845 201.108 237.849 200.092V199.894H236.228V199.261H240.218V199.894H238.63V200.1ZM236.977 204.213V203.58H241.847V206.147H241.066V204.213H236.977ZM241.066 203.218V198.776H241.847V200.668H242.916V201.326H241.847V203.218H241.066ZM245.952 199.878C245.948 200.91 246.618 201.832 247.737 202.198L247.309 202.807C246.499 202.51 245.903 201.943 245.582 201.202C245.265 202.046 244.623 202.708 243.731 203.029L243.311 202.403C244.488 202 245.171 201.017 245.179 199.911V199.187H245.952V199.878ZM244.521 204.74C244.517 203.847 245.463 203.329 247.013 203.333C248.556 203.329 249.502 203.847 249.506 204.74C249.502 205.628 248.556 206.134 247.013 206.13C245.463 206.134 244.517 205.628 244.521 204.74ZM245.294 204.74C245.29 205.229 245.932 205.517 247.013 205.513C248.087 205.517 248.729 205.229 248.733 204.74C248.729 204.234 248.087 203.942 247.013 203.942C245.932 203.942 245.29 204.234 245.294 204.74ZM247.145 200.914V200.273H248.7V198.776H249.481V203.127H248.7V200.914H247.145ZM257.362 204.575V205.225H250.617V204.575H252.229V202.65C251.624 202.317 251.254 201.791 251.258 201.128C251.254 199.968 252.393 199.207 253.973 199.203C255.557 199.207 256.696 199.968 256.696 201.128C256.696 201.778 256.342 202.301 255.75 202.634V204.575H257.362ZM252.015 201.128C252.015 201.918 252.817 202.432 253.973 202.436C255.121 202.432 255.935 201.918 255.939 201.128C255.935 200.334 255.121 199.829 253.973 199.829C252.817 199.829 252.015 200.334 252.015 201.128ZM253.002 204.575H254.96V202.938C254.66 203.008 254.327 203.045 253.973 203.045C253.627 203.045 253.298 203.008 253.002 202.938V204.575ZM260.48 200.347C260.48 201.215 261.192 202.025 262.315 202.338L261.945 202.946C261.089 202.704 260.447 202.177 260.11 201.494C259.789 202.255 259.147 202.86 258.267 203.136L257.897 202.535C259.016 202.177 259.707 201.297 259.707 200.347V200.256H258.103V199.631H259.707V198.743H260.488V199.631H262.084V200.256H260.48V200.347ZM259.082 204.764C259.078 203.901 260.028 203.411 261.574 203.407C263.117 203.411 264.063 203.901 264.067 204.764C264.063 205.632 263.117 206.134 261.574 206.13C260.028 206.134 259.078 205.632 259.082 204.764ZM259.855 204.764C259.851 205.242 260.493 205.525 261.574 205.53C262.656 205.525 263.29 205.242 263.294 204.764C263.29 204.287 262.656 204.016 261.574 204.016C260.493 204.016 259.851 204.287 259.855 204.764ZM261.854 201.482V200.84H263.261V198.776H264.042V203.243H263.261V201.482H261.854Z" fill="#EE772F"/>
<path d="M78.0356 222.442V230.899H77.2857V222.442H78.0356ZM71.391 226.039C71.3958 224.245 72.2881 223.101 73.5458 223.097C74.7987 223.101 75.7052 224.245 75.7005 226.039C75.7052 227.838 74.7987 228.977 73.5458 228.972C72.2881 228.977 71.3958 227.838 71.391 226.039ZM72.1125 226.039C72.1125 227.411 72.701 228.313 73.5458 228.308C74.3953 228.313 74.9791 227.411 74.9791 226.039C74.9791 224.668 74.3953 223.766 73.5458 223.761C72.701 223.766 72.1125 224.668 72.1125 226.039ZM87.1671 226.893V227.501H79.4784V226.893H87.1671ZM80.3327 224.416C80.3327 223.358 81.4907 222.736 83.3227 222.745C85.1357 222.736 86.2985 223.358 86.3033 224.416C86.2985 225.465 85.1357 226.096 83.3227 226.096C81.4907 226.096 80.3327 225.465 80.3327 224.416ZM80.4751 230.7V228.241H81.225V230.073H86.3128V230.7H80.4751ZM81.1016 224.416C81.0968 225.085 81.9606 225.489 83.3227 225.489C84.6754 225.489 85.5391 225.085 85.5439 224.416C85.5391 223.756 84.6754 223.343 83.3227 223.343C81.9606 223.343 81.0968 223.756 81.1016 224.416ZM92.141 223.638C92.1362 224.767 93.6407 225.726 95.112 225.944L94.8367 226.533C93.5221 226.31 92.2359 225.607 91.7233 224.592C91.2107 225.607 89.9245 226.31 88.6289 226.533L88.3346 225.944C89.8011 225.726 91.3009 224.767 91.3057 223.638V223.581H88.6004V222.973H94.8367V223.581H92.141V223.638ZM87.879 227.871V227.254H95.5676V227.871H92.0745V230.88H91.3436V227.871H87.879ZM103.237 222.442V227.235H102.506V222.442H103.237ZM96.8111 226.59V222.945H97.561V225.954C98.9564 225.944 100.205 225.849 101.548 225.565L101.662 226.191C100.233 226.481 98.9516 226.58 97.4946 226.59H96.8111ZM97.7603 230.766V227.624H103.237V230.766H97.7603ZM98.4912 230.159H102.506V228.222H98.4912V230.159ZM111.638 222.442V230.899H110.888V222.442H111.638ZM104.993 226.039C104.998 224.245 105.89 223.101 107.148 223.097C108.401 223.101 109.308 224.245 109.303 226.039C109.308 227.838 108.401 228.977 107.148 228.972C105.89 228.977 104.998 227.838 104.993 226.039ZM105.715 226.039C105.715 227.411 106.303 228.313 107.148 228.308C107.998 228.313 108.581 227.411 108.581 226.039C108.581 224.668 107.998 223.766 107.148 223.761C106.303 223.766 105.715 224.668 105.715 226.039ZM122.487 222.451V228.621H121.747V222.451H122.487ZM115.72 225.109C115.715 223.894 116.669 223.044 117.931 223.04C119.194 223.044 120.138 223.894 120.143 225.109C120.138 226.338 119.194 227.192 117.931 227.188C116.669 227.192 115.715 226.338 115.72 225.109ZM116.45 225.109C116.441 225.949 117.077 226.533 117.931 226.533C118.771 226.533 119.412 225.949 119.412 225.109C119.412 224.283 118.771 223.695 117.931 223.695C117.077 223.695 116.441 224.283 116.45 225.109ZM117.039 230.7V227.995H117.779V230.073H122.753V230.7H117.039ZM126.749 224.71C126.749 226.196 127.732 227.729 128.933 228.317L128.477 228.915C127.547 228.431 126.768 227.43 126.394 226.258C126.019 227.501 125.221 228.569 124.272 229.077L123.797 228.479C125.031 227.871 126.009 226.253 126.019 224.71V223.173H126.749V224.71ZM129.711 230.88V222.442H130.451V225.868H131.866V226.514H130.451V230.88H129.711ZM137.058 223.087V223.704H136.194V226.405C136.583 226.376 136.968 226.343 137.333 226.295L137.371 226.865C135.724 227.117 133.807 227.145 132.435 227.14L132.34 226.514C132.677 226.514 133.043 226.514 133.432 226.509V223.704H132.578V223.087H137.058ZM133.688 229.342C133.684 228.379 134.751 227.828 136.517 227.833C138.282 227.828 139.346 228.379 139.346 229.342C139.346 230.306 138.282 230.861 136.517 230.861C134.751 230.861 133.684 230.306 133.688 229.342ZM134.153 226.495C134.585 226.485 135.031 226.471 135.473 226.447V223.704H134.153V226.495ZM134.429 229.342C134.424 229.931 135.217 230.273 136.517 230.273C137.813 230.273 138.605 229.931 138.605 229.342C138.605 228.763 137.813 228.412 136.517 228.412C135.217 228.412 134.424 228.763 134.429 229.342ZM137.143 226.087V225.47H138.567V224.577H137.143V223.96H138.567V222.442H139.317V227.653H138.567V226.087H137.143ZM147.253 222.442V225.878H148.619V226.504H147.253V230.88H146.512V222.442H147.253ZM140.779 228.688C142.957 227.605 144.144 225.977 144.315 223.979H141.168V223.353H145.069C145.065 225.74 143.945 227.919 141.197 229.276L140.779 228.688ZM155.966 222.992V226.428H152.008V222.992H155.966ZM152.616 230.273C154.068 230.111 155.463 229.29 155.463 228.45H152.967V227.871H155.473V227.045H156.213V227.871H158.738V228.45H156.232C156.227 229.271 157.585 230.092 159.032 230.273L158.776 230.852C157.509 230.676 156.351 230.078 155.848 229.3C155.34 230.097 154.153 230.676 152.881 230.852L152.616 230.273ZM152.739 225.84H155.236V223.6H152.739V225.84ZM157.789 227.292V222.442H158.52V227.292H157.789ZM170.091 227.548V228.175H166.607V230.899H165.876V228.175H162.402V227.548H170.091ZM162.886 226.295C164.391 226.091 165.872 225.171 165.876 224.112V224.103H163.152V223.495H165.876V222.442H166.607V223.495H169.35V224.103H166.617V224.112C166.617 225.166 168.088 226.091 169.597 226.295L169.322 226.893C168.017 226.694 166.788 226.039 166.251 225.123C165.715 226.049 164.467 226.694 163.162 226.893L162.886 226.295ZM173.679 224.463C173.684 225.588 174.571 226.566 175.824 226.96L175.454 227.558C174.481 227.24 173.707 226.571 173.328 225.702C172.962 226.632 172.193 227.354 171.201 227.7L170.831 227.121C172.079 226.704 172.943 225.655 172.948 224.463V224.188H171.04V223.581H172.948V222.499H173.698V223.581H175.587V224.188H173.679V224.463ZM172.378 230.7V228.184H173.128V230.073H178.036V230.7H172.378ZM175.293 225.669V225.052H177.049V222.451H177.798V228.754H177.049V225.669H175.293ZM182.174 224.71C182.17 226.239 183.152 227.776 184.377 228.336L183.93 228.944C182.972 228.45 182.179 227.444 181.804 226.243C181.429 227.506 180.637 228.588 179.678 229.096L179.194 228.498C180.433 227.89 181.41 226.267 181.415 224.71V223.173H182.174V224.71ZM183.456 225.935V225.327H185.459V222.442H186.199V230.899H185.459V225.935H183.456ZM192.901 224.008C192.905 225.133 193.731 226.158 194.979 226.59L194.6 227.169C193.636 226.827 192.901 226.139 192.54 225.266C192.179 226.224 191.406 226.969 190.414 227.33L190.015 226.751C191.277 226.305 192.16 225.218 192.17 224.008V223.647H190.243V223.04H194.799V223.647H192.901V224.008ZM191.116 228.583V227.976H196.64V230.88H195.9V228.583H191.116ZM195.9 227.529V222.442H196.64V224.672H197.912V225.308H196.64V227.529H195.9ZM201.349 223.771C201.339 224.976 202.198 226.034 203.437 226.457L203.019 227.036C202.089 226.689 201.358 226.001 200.993 225.114C200.632 226.125 199.863 226.908 198.843 227.292L198.434 226.685C199.735 226.229 200.599 225.109 200.608 223.799V222.926H201.349V223.771ZM199.811 229.286C199.806 228.27 200.883 227.686 202.64 227.691C204.391 227.686 205.468 228.27 205.468 229.286C205.468 230.292 204.391 230.861 202.64 230.861C200.883 230.861 199.806 230.292 199.811 229.286ZM200.551 229.286C200.546 229.898 201.344 230.268 202.64 230.263C203.93 230.268 204.728 229.898 204.728 229.286C204.728 228.654 203.93 228.279 202.64 228.279C201.344 228.279 200.546 228.654 200.551 229.286ZM202.81 224.872V224.255H204.69V222.442H205.44V227.444H204.69V224.872H202.81ZM210.689 222.594C212.564 222.594 213.665 223.111 213.669 224.046C213.665 225.005 212.564 225.522 210.689 225.527C208.805 225.522 207.699 225.005 207.699 224.046C207.699 223.111 208.805 222.594 210.689 222.594ZM206.845 226.704V226.096H214.533V226.704H206.845ZM207.775 228.004V227.435H213.546V229.323H208.534V230.197H213.802V230.785H207.794V228.773H212.815V228.004H207.775ZM208.477 224.046C208.468 224.634 209.289 224.957 210.689 224.957C212.089 224.957 212.905 224.634 212.91 224.046C212.905 223.491 212.089 223.158 210.689 223.154C209.289 223.158 208.468 223.491 208.477 224.046ZM225.411 229.172V229.798H217.685V229.172H219.602V226.898C218.881 226.523 218.444 225.916 218.444 225.147C218.444 223.842 219.725 222.983 221.529 222.973C223.332 222.983 224.614 223.842 224.614 225.147C224.614 225.902 224.192 226.5 223.494 226.874V229.172H225.411ZM219.165 225.147C219.161 226.091 220.143 226.723 221.529 226.723C222.901 226.723 223.893 226.091 223.893 225.147C223.893 224.202 222.901 223.581 221.529 223.59C220.143 223.581 219.161 224.202 219.165 225.147ZM220.333 229.172H222.744V227.164C222.379 227.259 221.97 227.311 221.529 227.311C221.097 227.311 220.694 227.264 220.333 227.169V229.172ZM228.961 224.255C228.966 225.304 229.873 226.253 231.116 226.618L230.755 227.197C229.778 226.903 228.999 226.267 228.615 225.436C228.254 226.357 227.481 227.083 226.474 227.416L226.114 226.846C227.352 226.428 228.226 225.398 228.23 224.255V224.074H226.323V223.476H228.23V222.404H228.98V223.476H230.869V224.074H228.961V224.255ZM227.452 229.323C227.447 228.341 228.525 227.781 230.281 227.786C232.032 227.781 233.109 228.341 233.109 229.323C233.109 230.301 232.032 230.861 230.281 230.861C228.525 230.861 227.447 230.301 227.452 229.323ZM228.192 229.323C228.188 229.912 228.985 230.273 230.281 230.273C231.576 230.273 232.369 229.912 232.369 229.323C232.369 228.721 231.576 228.374 230.281 228.365C228.985 228.374 228.188 228.721 228.192 229.323ZM230.603 225.479V224.862H232.331V222.442H233.081V227.558H232.331V225.479H230.603ZM241.016 222.442V225.925H242.431V226.542H241.016V230.88H240.276V222.442H241.016ZM234.438 224.416V223.799H236.612V222.546H237.352V223.799H239.46V224.416H234.438ZM234.922 227.055C234.918 225.916 235.791 225.118 236.992 225.118C238.183 225.118 239.052 225.916 239.061 227.055C239.052 228.199 238.183 228.991 236.992 228.991C235.791 228.991 234.918 228.199 234.922 227.055ZM235.634 227.055C235.63 227.824 236.204 228.365 236.992 228.355C237.77 228.365 238.34 227.824 238.349 227.055C238.34 226.291 237.77 225.74 236.992 225.745C236.204 225.74 235.63 226.291 235.634 227.055ZM245.791 228.108C245.786 228.863 246.19 229.66 246.996 230.116C247.803 229.618 248.216 228.754 248.221 228.108V227.529H248.952V228.108C248.947 228.977 249.578 229.855 250.679 230.216L250.29 230.785C249.455 230.482 248.866 229.888 248.577 229.181C248.311 229.869 247.799 230.519 247.006 230.852C246.199 230.543 245.677 229.921 245.421 229.21C245.117 229.888 244.538 230.477 243.731 230.785L243.361 230.216C244.429 229.836 245.07 228.925 245.079 228.108V227.529H245.791V228.108ZM243.029 224.9C243.029 223.733 243.95 222.907 245.212 222.907C245.919 222.907 246.527 223.177 246.916 223.628H249.132V222.442H249.882V227.264H249.132V226.144H246.94C246.55 226.609 245.933 226.884 245.212 226.884C243.95 226.884 243.029 226.072 243.029 224.9ZM243.75 224.9C243.741 225.693 244.362 226.253 245.212 226.258C246.043 226.253 246.664 225.693 246.664 224.9C246.664 224.112 246.043 223.538 245.212 223.543C244.362 223.538 243.741 224.112 243.75 224.9ZM247.272 224.236C247.343 224.44 247.386 224.663 247.386 224.9C247.386 225.123 247.348 225.332 247.286 225.527H249.132V224.236H247.272ZM255.131 222.992C256.892 222.997 258.216 223.918 258.216 225.308C258.216 226.713 256.892 227.634 255.131 227.624C253.371 227.634 252.046 226.713 252.046 225.308C252.046 223.918 253.371 222.997 255.131 222.992ZM251.287 229.76V229.134H259.014V229.76H251.287ZM252.758 225.308C252.749 226.333 253.769 227.017 255.131 227.017C256.484 227.017 257.495 226.333 257.495 225.308C257.495 224.297 256.484 223.595 255.131 223.6C253.769 223.595 252.749 224.297 252.758 225.308ZM266.645 222.442V230.88H265.905V222.442H266.645ZM260.238 228.706V223.277H260.969V228.061C262.26 228.052 263.589 227.952 265.003 227.653L265.108 228.289C263.608 228.602 262.274 228.706 260.922 228.706H260.238ZM73.935 239.008C73.9397 240.133 74.7655 241.158 76.0137 241.59L75.6341 242.169C74.6706 241.827 73.935 241.139 73.5742 240.266C73.2135 241.224 72.4399 241.969 71.448 242.33L71.0493 241.751C72.3118 241.305 73.1946 240.218 73.2041 239.008V238.647H71.2771V238.04H75.8334V238.647H73.935V239.008ZM72.1504 243.583V242.976H77.6749V245.88H76.9345V243.583H72.1504ZM76.9345 242.529V237.442H77.6749V239.672H78.9468V240.308H77.6749V242.529H76.9345ZM82.383 238.771C82.3735 239.976 83.2325 241.034 84.4713 241.457L84.0536 242.036C83.1234 241.689 82.3925 241.001 82.027 240.114C81.6663 241.125 80.8975 241.908 79.8771 242.292L79.4689 241.685C80.7693 241.229 81.6331 240.109 81.6426 238.799V237.926H82.383V238.771ZM80.8453 244.286C80.8405 243.27 81.9179 242.686 83.6739 242.691C85.4252 242.686 86.5026 243.27 86.5026 244.286C86.5026 245.292 85.4252 245.861 83.6739 245.861C81.9179 245.861 80.8405 245.292 80.8453 244.286ZM81.5857 244.286C81.5809 244.898 82.3783 245.268 83.6739 245.263C84.9649 245.268 85.7622 244.898 85.7622 244.286C85.7622 243.654 84.9649 243.279 83.6739 243.279C82.3783 243.279 81.5809 243.654 81.5857 244.286ZM83.8448 239.872V239.255H85.7242V237.442H86.4741V242.444H85.7242V239.872H83.8448ZM91.7233 237.594C93.598 237.594 94.6991 238.111 94.7039 239.046C94.6991 240.005 93.598 240.522 91.7233 240.527C89.8391 240.522 88.7333 240.005 88.7333 239.046C88.7333 238.111 89.8391 237.594 91.7233 237.594ZM87.879 241.704V241.096H95.5676V241.704H87.879ZM88.8092 243.004V242.435H94.5805V244.323H89.5686V245.197H94.8367V245.785H88.8282V243.773H93.8496V243.004H88.8092ZM89.5116 239.046C89.5021 239.634 90.3232 239.957 91.7233 239.957C93.1234 239.957 93.9397 239.634 93.9445 239.046C93.9397 238.491 93.1234 238.158 91.7233 238.154C90.3232 238.158 89.5021 238.491 89.5116 239.046ZM101.757 239.255C101.761 240.394 102.658 241.419 103.921 241.818L103.541 242.416C102.559 242.079 101.78 241.386 101.396 240.498C101.03 241.457 100.238 242.216 99.2316 242.586L98.8424 241.988C100.11 241.547 101.002 240.451 101.007 239.255V238.761H99.0323V238.154H103.702V238.761H101.757V239.255ZM100.238 245.7V243.052H100.978V245.073H105.952V245.7H100.238ZM104.946 243.64V237.451H105.686V243.64H104.946ZM114.286 237.442V242.786H113.574V240.365H112.445V242.482H111.742V237.613H112.445V239.748H113.574V237.442H114.286ZM107.072 239.055V238.457H108.876V237.508H109.616V238.457H111.401V239.055H107.072ZM107.442 240.954C107.438 240.071 108.183 239.506 109.246 239.511C110.314 239.506 111.054 240.071 111.059 240.954C111.054 241.822 110.314 242.387 109.246 242.387C108.183 242.387 107.438 241.822 107.442 240.954ZM108.107 240.954C108.107 241.471 108.572 241.827 109.246 241.827C109.92 241.827 110.385 241.471 110.385 240.954C110.385 240.417 109.92 240.061 109.246 240.061C108.572 240.061 108.107 240.417 108.107 240.954ZM108.667 244.409C108.657 243.46 109.716 242.928 111.496 242.928C113.271 242.928 114.329 243.46 114.334 244.409C114.329 245.334 113.271 245.861 111.496 245.861C109.716 245.861 108.657 245.334 108.667 244.409ZM109.407 244.409C109.398 244.955 110.181 245.287 111.496 245.282C112.805 245.287 113.584 244.955 113.593 244.409C113.584 243.83 112.805 243.507 111.496 243.517C110.181 243.507 109.398 243.83 109.407 244.409ZM119.735 238.903V239.511H115.501V238.903H117.257V237.698H117.998V238.903H119.735ZM115.805 241.998C115.805 240.878 116.569 240.085 117.618 240.08C118.681 240.085 119.44 240.878 119.45 241.998C119.44 243.132 118.681 243.93 117.618 243.934C116.569 243.93 115.805 243.132 115.805 241.998ZM116.469 241.998C116.469 242.748 116.949 243.284 117.618 243.279C118.292 243.284 118.786 242.748 118.786 241.998C118.786 241.258 118.292 240.716 117.618 240.707C116.949 240.716 116.469 241.258 116.469 241.998ZM120.171 245.463V237.65H120.874V241.001H121.994V237.442H122.706V245.88H121.994V241.618H120.874V245.463H120.171ZM130.622 238.638C130.618 239.767 132.122 240.726 133.593 240.944L133.318 241.533C132.003 241.31 130.717 240.607 130.205 239.592C129.692 240.607 128.406 241.31 127.11 241.533L126.816 240.944C128.282 240.726 129.782 239.767 129.787 238.638V238.581H127.082V237.973H133.318V238.581H130.622V238.638ZM126.36 242.871V242.254H134.049V242.871H130.556V245.88H129.825V242.871H126.36ZM137.267 239.843C137.267 241.186 137.922 242.634 139.042 243.298L138.615 243.877C137.798 243.384 137.215 242.482 136.92 241.452C136.612 242.577 135.985 243.545 135.141 244.058L134.666 243.498C135.833 242.814 136.545 241.319 136.545 239.872V238.239H137.267V239.843ZM138.112 241.106V240.47H139.545V237.622H140.247V245.453H139.545V241.106H138.112ZM141.273 245.88V237.442H141.994V245.88H141.273ZM150.888 244.172V244.798H143.161V244.172H145.079V241.898C144.357 241.523 143.921 240.916 143.921 240.147C143.921 238.842 145.202 237.983 147.006 237.973C148.809 237.983 150.091 238.842 150.091 240.147C150.091 240.902 149.668 241.5 148.971 241.874V244.172H150.888ZM144.642 240.147C144.638 241.091 145.62 241.723 147.006 241.723C148.377 241.723 149.369 241.091 149.369 240.147C149.369 239.202 148.377 238.581 147.006 238.59C145.62 238.581 144.638 239.202 144.642 240.147ZM145.81 244.172H148.221V242.164C147.855 242.259 147.447 242.311 147.006 242.311C146.574 242.311 146.17 242.264 145.81 242.169V244.172ZM152.454 245.168C152.122 245.164 151.837 244.888 151.847 244.551C151.837 244.219 152.122 243.944 152.454 243.944C152.791 243.944 153.067 244.219 153.062 244.551C153.067 244.888 152.791 245.164 152.454 245.168Z" fill="#131214"/>
<path d="M73.7394 256.984V263.398H72.756V257.959H72.7206L71.1879 258.96V258.03L72.7826 256.984H73.7394ZM77.6021 263.487C76.1182 263.487 75.2455 262.291 75.2455 260.191C75.2455 258.105 76.127 256.896 77.6021 256.896C79.0728 256.896 79.9543 258.105 79.9587 260.191C79.9543 262.291 79.086 263.487 77.6021 263.487ZM76.22 260.191C76.2156 261.79 76.7339 262.645 77.6021 262.645C78.4659 262.645 78.9842 261.79 78.9842 260.191C78.9842 258.597 78.4615 257.724 77.6021 257.72C76.7383 257.724 76.22 258.597 76.22 260.191ZM81.5977 262.575C81.2522 262.57 80.9642 262.291 80.9687 261.946C80.9642 261.6 81.2522 261.316 81.5977 261.316C81.9388 261.316 82.2223 261.6 82.2267 261.946C82.2223 262.291 81.9388 262.57 81.5977 262.575ZM80.9687 258.446C80.9642 258.101 81.2522 257.817 81.5977 257.817C81.9388 257.817 82.2223 258.101 82.2267 258.446C82.2223 258.792 81.9388 259.071 81.5977 259.075C81.2522 259.071 80.9642 258.792 80.9687 258.446ZM85.797 256.984V263.398H84.8136V257.959H84.7782L83.2455 258.96V258.03L84.8402 256.984H85.797ZM89.8635 256.984V263.398H88.8801V257.959H88.8446L87.312 258.96V258.03L88.9067 256.984H89.8635ZM94.3463 263.398H93.3098L95.6132 256.984H96.7383L99.0506 263.398H98.0141L97.4294 261.706H94.931L94.3463 263.398ZM95.2101 260.891H97.1459L96.1979 258.154H96.1536L95.2101 260.891ZM99.8657 256.984H101.053L103.082 261.954H103.161L105.19 256.984H106.377V263.398H105.447V258.765H105.385L103.507 263.39H102.736L100.849 258.756H100.796V263.398H99.8657V256.984Z" fill="#A5A5A5"/>
<rect x="60.368" y="286.432" width="222.264" height="100.648" rx="3.24" fill="white"/>
<path d="M71.4993 313.574V305.327H72.98V309.12H73.0939L76.3175 305.327H78.1286L74.9392 309.029L78.1628 313.574H76.3744L73.9027 310.032L72.98 311.114V313.574H71.4993ZM79.074 313.574V305.327H84.439V306.569H80.5548V308.824H84.1542V310.066H80.5548V312.321H84.4618V313.574H79.074ZM86.9563 305.327L89.0978 311.831H89.1889L91.3417 305.327H92.9706L90.0546 313.574H88.2321L85.3275 305.327H86.9563ZM95.431 305.327V313.574H93.9502V305.327H95.431ZM96.6042 306.569V305.327H103.177V306.569H100.636V313.574H99.1557V306.569H96.6042Z" fill="#131214"/>
<rect x="229.304" y="299.391" width="42.96" height="20.368" rx="2.592" fill="#FCECEE"/>
<path d="M238.63 307.227C238.626 308.169 239.28 309.061 240.407 309.44L240.013 310.049C239.178 309.761 238.565 309.185 238.244 308.461C237.923 309.255 237.281 309.884 236.418 310.189L235.998 309.58C237.15 309.189 237.845 308.235 237.849 307.219V307.021H236.228V306.388H240.218V307.021H238.63V307.227ZM236.977 311.34V310.707H241.847V313.273H241.066V311.34H236.977ZM241.066 310.345V305.902H241.847V307.795H242.916V308.453H241.847V310.345H241.066ZM245.952 307.005C245.948 308.037 246.618 308.959 247.737 309.325L247.309 309.933C246.499 309.637 245.903 309.07 245.582 308.329C245.265 309.173 244.623 309.835 243.731 310.156L243.311 309.53C244.488 309.127 245.171 308.144 245.179 307.038V306.314H245.952V307.005ZM244.521 311.867C244.517 310.974 245.463 310.456 247.013 310.46C248.556 310.456 249.502 310.974 249.506 311.867C249.502 312.755 248.556 313.261 247.013 313.257C245.463 313.261 244.517 312.755 244.521 311.867ZM245.294 311.867C245.29 312.356 245.932 312.644 247.013 312.64C248.087 312.644 248.729 312.356 248.733 311.867C248.729 311.361 248.087 311.069 247.013 311.069C245.932 311.069 245.29 311.361 245.294 311.867ZM247.145 308.041V307.4H248.7V305.902H249.481V310.254H248.7V308.041H247.145ZM252.854 306.232C253.932 306.232 254.689 306.824 254.697 307.704C254.689 308.453 254.121 309 253.266 309.136V309.794C253.915 309.757 254.574 309.695 255.182 309.604L255.24 310.18C253.693 310.46 251.957 310.489 250.691 310.485L250.608 309.851C251.16 309.855 251.805 309.851 252.484 309.827V309.144C251.604 309.02 251.016 308.465 251.02 307.704C251.016 306.824 251.772 306.232 252.854 306.232ZM251.653 313.117V311.052H252.435V312.476H256.68V313.117H251.653ZM251.752 307.704C251.744 308.226 252.204 308.568 252.854 308.568C253.508 308.568 253.957 308.226 253.957 307.704C253.957 307.169 253.508 306.832 252.854 306.832C252.204 306.832 251.744 307.169 251.752 307.704ZM255.635 311.546V305.911H256.416V308.346H257.469V309.004H256.416V311.546H255.635ZM264.643 311.735V312.393H257.897V311.735H259.74V310.435H258.72V308.091H263.047V307.062H258.703V306.421H263.82V308.724H259.493V309.794H263.993V310.435H262.874V311.735H264.643ZM260.497 311.735H262.109V310.435H260.497V311.735Z" fill="#DC0000"/>
<path d="M74.7987 330.577C74.794 331.374 74.7038 332.167 74.4618 332.912H75.8144V329.798H76.5263V337.582H75.8144V333.529H74.2197C73.7451 334.568 72.9193 335.508 71.5619 336.253L71.1348 335.721C72.4352 335.014 73.2088 334.127 73.6359 333.13L71.2297 333.377L71.1158 332.712L73.8448 332.542C73.9682 332.105 74.0394 331.659 74.0678 331.194H71.5239V330.577H74.7987ZM77.5894 338.009V329.571H78.3014V338.009H77.5894ZM80.6649 330.102V331.45H83.1519V330.102H83.8923V334.117H79.9245V330.102H80.6649ZM80.4561 337.392C81.9558 337.131 83.3132 336.253 83.3132 335.038V334.829H84.0916V335.038C84.0821 336.253 85.4395 337.131 86.9392 337.392L86.6545 337.971C85.3683 337.743 84.196 337.093 83.7024 336.101C83.1993 337.093 82.0223 337.743 80.7503 337.971L80.4561 337.392ZM80.6649 333.519H83.1519V332.048H80.6649V333.519ZM85.7053 335.313V329.571H86.4457V335.313H85.7053ZM93.5173 334.022V335.579C94.3337 335.536 95.1595 335.47 95.9378 335.351L95.9948 335.902C94.0631 336.253 91.9891 336.267 90.4703 336.263L90.3659 335.646C91.0731 335.641 91.9084 335.636 92.7864 335.608V334.022H93.5173ZM90.6222 333.728C91.8704 333.358 92.7485 332.432 92.7674 331.298H90.831V330.681H92.7864V329.637H93.5173V330.681H95.5012V331.298H93.5173C93.5411 332.385 94.4428 333.277 95.691 333.633L95.3398 334.222C94.3289 333.918 93.5316 333.268 93.1519 332.413C92.7864 333.315 91.9986 333.989 90.9829 334.298L90.6222 333.728ZM96.4979 338.028V329.571H97.2383V338.028H96.4979ZM105.487 330.425V331.27C105.477 332.304 105.477 333.462 105.174 335.161L104.414 335.076C104.732 333.462 104.732 332.281 104.737 331.27V331.042H99.5354V330.425H105.487ZM98.719 336.813V336.196H101.738V333.178H102.468V336.196H106.408V336.813H98.719ZM111.799 330.226V330.672C111.795 331.227 111.795 332.067 111.581 333.168L110.831 333.111C111.035 332.105 111.054 331.388 111.064 330.852H107.594V330.226H111.799ZM107.072 333.956C107.618 333.956 108.235 333.951 108.885 333.932V332.095H109.626V333.908C110.561 333.871 111.529 333.804 112.407 333.681L112.454 334.231C110.684 334.535 108.653 334.568 107.148 334.573L107.072 333.956ZM108.373 337.829V335.351H109.122V337.202H114.011V337.829H108.373ZM112.976 335.921V329.571H113.736V332.323H114.97V332.959H113.736V335.921H112.976ZM122.487 329.571V338.028H121.747V329.571H122.487ZM115.995 330.975V330.358H119.925V333.358H116.773V335.351C118.173 335.356 119.422 335.29 120.931 335.048L121.007 335.674C119.455 335.916 118.173 335.978 116.716 335.978H116.014V332.75H119.175V330.975H115.995ZM126.778 332.162C126.768 333.515 127.746 335.005 128.971 335.589L128.544 336.177C127.594 335.712 126.792 334.715 126.413 333.572C126.023 334.81 125.179 335.902 124.234 336.386L123.778 335.797C124.993 335.204 126.038 333.6 126.047 332.162V331.061H124.082V330.444H128.676V331.061H126.778V332.162ZM129.711 338.009V329.571H130.451V332.988H131.866V333.624H130.451V338.009H129.711ZM138.852 329.571V333.007H140.219V333.633H138.852V338.009H138.112V329.571H138.852ZM132.378 335.816C134.557 334.734 135.743 333.106 135.914 331.108H132.768V330.482H136.669C136.664 332.869 135.544 335.048 132.796 336.405L132.378 335.816ZM150.85 334.677V335.304H147.367V338.028H146.636V335.304H143.161V334.677H150.85ZM143.646 333.424C145.15 333.22 146.631 332.3 146.636 331.241V331.232H143.911V330.624H146.636V329.571H147.367V330.624H150.11V331.232H147.376V331.241C147.376 332.295 148.847 333.22 150.357 333.424L150.081 334.022C148.776 333.823 147.547 333.168 147.011 332.252C146.474 333.178 145.226 333.823 143.921 334.022L143.646 333.424ZM154.438 331.592C154.443 332.717 155.33 333.695 156.583 334.089L156.213 334.687C155.24 334.369 154.467 333.7 154.087 332.831C153.722 333.761 152.953 334.483 151.961 334.829L151.591 334.25C152.839 333.833 153.703 332.784 153.707 331.592V331.317H151.799V330.71H153.707V329.628H154.457V330.71H156.346V331.317H154.438V331.592ZM153.138 337.829V335.313H153.888V337.202H158.795V337.829H153.138ZM156.052 332.798V332.181H157.808V329.58H158.558V335.883H157.808V332.798H156.052ZM162.934 331.839C162.929 333.367 163.911 334.905 165.136 335.465L164.69 336.073C163.731 335.579 162.938 334.573 162.563 333.372C162.189 334.635 161.396 335.717 160.437 336.225L159.953 335.627C161.192 335.019 162.17 333.396 162.174 331.839V330.301H162.934V331.839ZM164.215 333.064V332.456H166.218V329.571H166.958V338.028H166.218V333.064H164.215ZM173.66 331.137C173.665 332.262 174.49 333.287 175.739 333.719L175.359 334.298C174.396 333.956 173.66 333.268 173.299 332.394C172.938 333.353 172.165 334.098 171.173 334.459L170.774 333.88C172.037 333.434 172.919 332.347 172.929 331.137V330.776H171.002V330.169H175.558V330.776H173.66V331.137ZM171.875 335.712V335.104H177.4V338.009H176.659V335.712H171.875ZM176.659 334.658V329.571H177.4V331.801H178.672V332.437H177.4V334.658H176.659ZM182.108 330.899C182.098 332.105 182.957 333.163 184.196 333.586L183.779 334.165C182.848 333.818 182.117 333.13 181.752 332.243C181.391 333.254 180.622 334.037 179.602 334.421L179.194 333.814C180.494 333.358 181.358 332.238 181.368 330.928V330.055H182.108V330.899ZM180.57 336.414C180.565 335.399 181.643 334.815 183.399 334.82C185.15 334.815 186.228 335.399 186.228 336.414C186.228 337.421 185.15 337.99 183.399 337.99C181.643 337.99 180.565 337.421 180.57 336.414ZM181.311 336.414C181.306 337.027 182.103 337.397 183.399 337.392C184.69 337.397 185.487 337.027 185.487 336.414C185.487 335.783 184.69 335.408 183.399 335.408C182.103 335.408 181.306 335.783 181.311 336.414ZM183.57 332.001V331.384H185.449V329.571H186.199V334.573H185.449V332.001H183.57ZM191.448 329.722C193.323 329.722 194.424 330.24 194.429 331.175C194.424 332.133 193.323 332.651 191.448 332.656C189.564 332.651 188.458 332.133 188.458 331.175C188.458 330.24 189.564 329.722 191.448 329.722ZM187.604 333.833V333.225H195.293V333.833H187.604ZM188.534 335.133V334.563H194.305V336.452H189.293V337.326H194.562V337.914H188.553V335.902H193.574V335.133H188.534ZM189.237 331.175C189.227 331.763 190.048 332.086 191.448 332.086C192.848 332.086 193.665 331.763 193.669 331.175C193.665 330.619 192.848 330.287 191.448 330.282C190.048 330.287 189.227 330.619 189.237 331.175ZM201.016 329.969C202.25 329.969 203.109 330.634 203.114 331.64C203.109 332.513 202.431 333.14 201.415 333.268V334.094C202.203 334.051 203.005 333.98 203.741 333.871L203.798 334.431C202.008 334.749 199.986 334.777 198.529 334.772L198.434 334.155C199.089 334.16 199.858 334.155 200.665 334.127V333.273C199.621 333.159 198.923 332.527 198.928 331.64C198.923 330.634 199.782 329.969 201.016 329.969ZM199.63 331.64C199.621 332.281 200.195 332.717 201.016 332.722C201.842 332.717 202.407 332.281 202.412 331.64C202.407 330.985 201.842 330.548 201.016 330.548C200.195 330.548 199.621 330.985 199.63 331.64ZM199.668 337.819V335.475H200.418V337.193H205.335V337.819H199.668ZM204.282 336.035V329.58H205.032V332.437H206.294V333.073H205.032V336.035H204.282ZM214.571 336.338V336.965H206.845V336.338H209.018V334.734H207.813V332.133H212.863V330.814H207.794V330.197H213.593V332.75H208.553V334.117H213.793V334.734H212.473V336.338H214.571ZM209.749 336.338H211.743V334.734H209.749V336.338ZM221.776 329.571V333.054H223.19V333.671H221.776V338.009H221.035V329.571H221.776ZM215.198 331.545V330.928H217.371V329.675H218.112V330.928H220.219V331.545H215.198ZM215.682 334.184C215.677 333.045 216.55 332.247 217.751 332.247C218.942 332.247 219.811 333.045 219.82 334.184C219.811 335.328 218.942 336.12 217.751 336.12C216.55 336.12 215.677 335.328 215.682 334.184ZM216.394 334.184C216.389 334.953 216.963 335.494 217.751 335.484C218.529 335.494 219.099 334.953 219.108 334.184C219.099 333.42 218.529 332.869 217.751 332.874C216.963 332.869 216.389 333.42 216.394 334.184ZM226.55 335.237C226.546 335.992 226.949 336.789 227.756 337.245C228.563 336.747 228.976 335.883 228.98 335.237V334.658H229.711V335.237C229.706 336.106 230.338 336.984 231.439 337.345L231.05 337.914C230.214 337.61 229.626 337.017 229.336 336.31C229.071 336.998 228.558 337.648 227.765 337.981C226.958 337.672 226.436 337.05 226.18 336.338C225.876 337.017 225.297 337.606 224.491 337.914L224.12 337.345C225.188 336.965 225.829 336.054 225.838 335.237V334.658H226.55V335.237ZM223.788 332.029C223.788 330.861 224.709 330.036 225.971 330.036C226.678 330.036 227.286 330.306 227.675 330.757H229.892V329.571H230.641V334.393H229.892V333.273H227.699C227.31 333.738 226.693 334.013 225.971 334.013C224.709 334.013 223.788 333.201 223.788 332.029ZM224.51 332.029C224.5 332.822 225.122 333.382 225.971 333.386C226.802 333.382 227.424 332.822 227.424 332.029C227.424 331.241 226.802 330.667 225.971 330.672C225.122 330.667 224.5 331.241 224.51 332.029ZM228.031 331.365C228.102 331.569 228.145 331.792 228.145 332.029C228.145 332.252 228.107 332.461 228.045 332.656H229.892V331.365H228.031ZM235.891 330.121C237.651 330.126 238.976 331.047 238.976 332.437C238.976 333.842 237.651 334.763 235.891 334.753C234.13 334.763 232.806 333.842 232.806 332.437C232.806 331.047 234.13 330.126 235.891 330.121ZM232.046 336.889V336.263H239.773V336.889H232.046ZM233.518 332.437C233.508 333.462 234.529 334.146 235.891 334.146C237.243 334.146 238.254 333.462 238.254 332.437C238.254 331.426 237.243 330.724 235.891 330.729C234.529 330.724 233.508 331.426 233.518 332.437ZM247.405 329.571V338.009H246.664V329.571H247.405ZM240.997 335.835V330.406H241.728V335.19C243.019 335.18 244.348 335.081 245.763 334.782L245.867 335.418C244.367 335.731 243.034 335.835 241.681 335.835H240.997ZM257.875 329.58V332.133H259.137V332.76H257.875V335.237H257.125V329.58H257.875ZM251.249 334.374C251.923 334.374 252.711 334.374 253.537 334.35V333.728C252.554 333.638 251.918 333.187 251.923 332.485C251.918 331.716 252.711 331.241 253.897 331.241C255.093 331.241 255.872 331.716 255.881 332.485C255.872 333.182 255.255 333.633 254.277 333.728V334.321C255.065 334.283 255.862 334.217 256.603 334.108L256.669 334.649C254.837 334.972 252.82 334.986 251.334 334.981L251.249 334.374ZM251.458 330.918V330.349H253.537V329.504H254.277V330.349H256.346V330.918H251.458ZM252.284 336.253V335.655H257.875V338.009H257.125V336.253H252.284ZM252.635 332.485C252.63 332.926 253.119 333.225 253.897 333.216C254.676 333.225 255.169 332.926 255.169 332.485C255.169 332.039 254.676 331.763 253.897 331.773C253.119 331.763 252.63 332.039 252.635 332.485ZM266.655 329.58V335.75H265.914V329.58H266.655ZM259.887 332.238C259.882 331.023 260.836 330.173 262.099 330.169C263.361 330.173 264.305 331.023 264.31 332.238C264.305 333.467 263.361 334.321 262.099 334.317C260.836 334.321 259.882 333.467 259.887 332.238ZM260.618 332.238C260.608 333.078 261.244 333.662 262.099 333.662C262.939 333.662 263.579 333.078 263.579 332.238C263.579 331.412 262.939 330.824 262.099 330.824C261.244 330.824 260.608 331.412 260.618 332.238ZM261.206 337.829V335.123H261.947V337.202H266.921V337.829H261.206ZM75.2923 346.032V346.64H71.0588V346.032H72.8149V344.827H73.5553V346.032H75.2923ZM71.3626 349.127C71.3626 348.007 72.1267 347.214 73.1756 347.209C74.2387 347.214 74.9981 348.007 75.0076 349.127C74.9981 350.261 74.2387 351.058 73.1756 351.063C72.1267 351.058 71.3626 350.261 71.3626 349.127ZM72.027 349.127C72.027 349.877 72.5064 350.413 73.1756 350.408C73.8495 350.413 74.3431 349.877 74.3431 349.127C74.3431 348.386 73.8495 347.845 73.1756 347.836C72.5064 347.845 72.027 348.386 72.027 349.127ZM75.729 352.591V344.779H76.4314V348.13H77.5515V344.571H78.2634V353.009H77.5515V348.747H76.4314V352.591H75.729ZM89.6445 351.31V351.927H81.9179V351.31H85.392V349.488H82.8291V345.169H83.579V346.697H87.9644V345.169H88.6953V349.488H86.1229V351.31H89.6445ZM83.579 348.88H87.9644V347.304H83.579V348.88ZM92.8244 346.972C92.8244 348.315 93.4794 349.763 94.5994 350.427L94.1723 351.006C93.356 350.513 92.7722 349.611 92.4779 348.581C92.1694 349.706 91.543 350.674 90.6982 351.187L90.2235 350.627C91.3911 349.943 92.103 348.448 92.103 347.001V345.368H92.8244V346.972ZM93.6692 348.235V347.599H95.1025V344.751H95.8049V352.582H95.1025V348.235H93.6692ZM96.8301 353.009V344.571H97.5515V353.009H96.8301ZM106.446 351.301V351.927H98.719V351.301H100.636V349.027C99.9151 348.652 99.4784 348.045 99.4784 347.276C99.4784 345.971 100.76 345.112 102.563 345.102C104.367 345.112 105.648 345.971 105.648 347.276C105.648 348.03 105.226 348.628 104.528 349.003V351.301H106.446ZM100.2 347.276C100.195 348.22 101.178 348.852 102.563 348.852C103.935 348.852 104.927 348.22 104.927 347.276C104.927 346.331 103.935 345.71 102.563 345.719C101.178 345.71 100.195 346.331 100.2 347.276ZM101.367 351.301H103.778V349.293C103.413 349.388 103.005 349.44 102.563 349.44C102.131 349.44 101.728 349.393 101.367 349.298V351.301ZM108.012 352.297C107.68 352.292 107.395 352.017 107.404 351.68C107.395 351.348 107.68 351.073 108.012 351.073C108.349 351.073 108.624 351.348 108.619 351.68C108.624 352.017 108.349 352.292 108.012 352.297Z" fill="#131214"/>
<rect width="243" height="34.992" transform="translate(50 51)" fill="white"/>
<path d="M85.9998 65.4924C87.522 65.5032 89.0389 66.4122 89.0443 69.2577C89.0443 71.9417 87.8286 73.4962 85.9138 73.4962C84.413 73.4962 83.3749 72.5603 83.2028 71.2694H84.5905C84.7304 71.888 85.2091 72.2806 85.9138 72.2806C87.0433 72.2806 87.678 71.2855 87.6888 69.6127H87.6027C87.2101 70.2904 86.457 70.6938 85.6018 70.6885C84.2086 70.6938 83.1329 69.6342 83.1275 68.1604C83.1275 66.6381 84.2732 65.4817 85.9998 65.4924ZM84.4937 68.1281C84.4937 68.9672 85.1177 69.6234 85.9891 69.6234C86.8551 69.6234 87.522 68.9242 87.5167 68.1173C87.5167 67.3266 86.882 66.6274 86.0106 66.622C85.1338 66.6274 84.483 67.2944 84.4937 68.1281ZM91.0667 72.4205C90.6042 72.4205 90.2223 72.0439 90.2276 71.5814C90.2223 71.1295 90.6042 70.7584 91.0667 70.753C91.5132 70.7584 91.8951 71.1295 91.8951 71.5814C91.8951 72.0439 91.5132 72.4205 91.0667 72.4205ZM90.2276 67.4073C90.2223 66.9555 90.6042 66.5844 91.0667 66.579C91.5132 66.5844 91.8951 66.9555 91.8951 67.4073C91.8951 67.8699 91.5132 68.2464 91.0667 68.2464C90.6042 68.2464 90.2223 67.8699 90.2276 67.4073ZM93.0677 71.9364V70.8176L96.4349 65.6H98.1777V70.7853H99.1997V71.9364H98.1777V73.3887H96.8437V71.9364H93.0677ZM94.4985 70.7853H96.8652V67.1922H96.7791L94.4985 70.7315V70.7853ZM103.374 65.6V73.3887H101.964V66.9663H101.921L100.103 68.1281V66.8479L102.029 65.6H103.374Z" fill="#131214"/>
<rect opacity="0.35" x="256.994" y="65.7322" width="15.552" height="7.776" rx="2.4624" stroke="#131214" stroke-width="0.648"/>
<path opacity="0.4" d="M273.518 68.5059V71.1468C274.039 70.9231 274.379 70.4028 274.379 69.8263C274.379 69.2498 274.039 68.7295 273.518 68.5059Z" fill="#131214"/>
<rect x="257.966" y="66.7051" width="13.608" height="5.832" rx="1.62" fill="#131214"/>
<path fill-rule="evenodd" clip-rule="evenodd" d="M246.477 67.4204C248.089 67.4205 249.639 68.018 250.807 69.0894C250.895 69.1722 251.035 69.1711 251.122 69.0871L251.963 68.2684C252.007 68.2258 252.031 68.168 252.031 68.108C252.03 68.0479 252.005 67.9905 251.961 67.9484C248.895 65.1136 244.059 65.1136 240.993 67.9484C240.949 67.9905 240.923 68.0479 240.923 68.1079C240.923 68.168 240.947 68.2257 240.991 68.2684L241.832 69.0871C241.918 69.1713 242.059 69.1723 242.147 69.0894C243.315 68.0179 244.865 67.4204 246.477 67.4204ZM246.475 70.1552C247.355 70.1551 248.203 70.4867 248.855 71.0855C248.943 71.1705 249.082 71.1687 249.168 71.0814L250.002 70.2265C250.046 70.1816 250.07 70.1208 250.07 70.0576C250.069 69.9944 250.043 69.9341 249.999 69.8901C248.013 68.0169 244.939 68.0169 242.953 69.8901C242.908 69.9341 242.883 69.9944 242.882 70.0576C242.882 70.1209 242.906 70.1817 242.95 70.2265L243.784 71.0814C243.87 71.1687 244.009 71.1705 244.097 71.0855C244.749 70.4871 245.596 70.1555 246.475 70.1552ZM248.111 71.9654C248.112 72.0336 248.088 72.0995 248.044 72.1473L246.634 73.738C246.593 73.7847 246.536 73.811 246.477 73.811C246.419 73.811 246.362 73.7847 246.321 73.738L244.91 72.1473C244.867 72.0994 244.843 72.0336 244.844 71.9653C244.845 71.8971 244.872 71.8324 244.917 71.7866C245.818 70.9352 247.137 70.9352 248.038 71.7866C248.083 71.8324 248.11 71.8971 248.111 71.9654Z" fill="#131214"/>
<path fill-rule="evenodd" clip-rule="evenodd" d="M236.064 66.4967C236.064 66.0864 235.754 65.7539 235.372 65.7539H234.681C234.299 65.7539 233.99 66.0864 233.99 66.4967V72.9339C233.99 73.3441 234.299 73.6766 234.681 73.6766H235.372C235.754 73.6766 236.064 73.3441 236.064 72.9339V66.4967ZM231.246 67.3384H231.937C232.319 67.3384 232.629 67.679 232.629 68.099V72.916C232.629 73.3361 232.319 73.6766 231.937 73.6766H231.246C230.865 73.6766 230.555 73.3361 230.555 72.916V68.099C230.555 67.679 230.865 67.3384 231.246 67.3384ZM228.439 69.055H227.748C227.366 69.055 227.057 69.3999 227.057 69.8253V72.9064C227.057 73.3318 227.366 73.6766 227.748 73.6766H228.439C228.821 73.6766 229.13 73.3318 229.13 72.9064V69.8253C229.13 69.3999 228.821 69.055 228.439 69.055ZM225.004 70.6396H224.313C223.931 70.6396 223.622 70.9795 223.622 71.3988V72.9174C223.622 73.3367 223.931 73.6766 224.313 73.6766H225.004C225.386 73.6766 225.696 73.3367 225.696 72.9174V71.3988C225.696 70.9795 225.386 70.6396 225.004 70.6396Z" fill="#131214"/>
</g>
<rect x="48.5" y="49.5" width="246" height="529.176" rx="27.5" stroke="black" stroke-width="3"/>
</g>
<defs>
<filter id="filter0_dd_5336_15305" x="166.316" y="133.944" width="120.204" height="29.8075" filterUnits="userSpaceOnUse" color-interpolation-filters="sRGB">
<feFlood flood-opacity="0" result="BackgroundImageFix"/>
<feColorMatrix in="SourceAlpha" type="matrix" values="0 0 0 0 0 0 0 0 0 0 0 0 0 0 0 0 0 0 127 0" result="hardAlpha"/>
<feOffset dy="0.648"/>
<feGaussianBlur stdDeviation="2.592"/>
<feColorMatrix type="matrix" values="0 0 0 0 0.0784314 0 0 0 0 0.0784314 0 0 0 0 0.0784314 0 0 0 0.08 0"/>
<feBlend mode="normal" in2="BackgroundImageFix" result="effect1_dropShadow_5336_15305"/>
<feColorMatrix in="SourceAlpha" type="matrix" values="0 0 0 0 0 0 0 0 0 0 0 0 0 0 0 0 0 0 127 0" result="hardAlpha"/>
<feOffset/>
<feGaussianBlur stdDeviation="0.324"/>
<feColorMatrix type="matrix" values="0 0 0 0 0.0784314 0 0 0 0 0.0784314 0 0 0 0 0.0784314 0 0 0 0.12 0"/>
<feBlend mode="normal" in2="effect1_dropShadow_5336_15305" result="effect2_dropShadow_5336_15305"/>
<feBlend mode="normal" in="SourceGraphic" in2="effect2_dropShadow_5336_15305" result="shape"/>
</filter>
<clipPath id="clip0_5336_15305">
<rect width="343" height="343" rx="24" fill="white"/>
</clipPath>
<clipPath id="clip1_5336_15305">
<rect x="50" y="51" width="243" height="526.176" rx="26" fill="white"/>
</clipPath>
</defs>
</svg>
