<svg width="343" height="343" viewBox="0 0 343 343" fill="none" xmlns="http://www.w3.org/2000/svg">
<g clip-path="url(#clip0_5340_14990)">
<rect width="343" height="343" rx="24" fill="#F7F7FB"/>
<g clip-path="url(#clip1_5340_14990)">
<rect x="50" y="46" width="243" height="526.176" rx="26" fill="white"/>
<rect x="60.3687" y="33.041" width="107.568" height="65.448" rx="6.48" fill="#F4F6F7"/>
<path d="M106.341 53.9178V54.4569C106.344 55.034 106.344 55.7061 106.17 56.606H107.13V57.1983H100.903V56.606H105.444C105.623 55.7213 105.627 55.0758 105.627 54.5025H101.686V53.9178H106.341ZM101.716 60.175V57.9045H102.43V59.5827H106.546V60.175H101.716ZM113.843 57.4185V58.0032H111.064V60.3117H110.358V58.0032H107.616V57.4185H113.843ZM108.398 56.5528V53.8798H113.061V56.5528H108.398ZM109.105 55.9909H112.34V54.4569H109.105V55.9909ZM120.002 53.5153V60.3193H119.273V53.5153H120.002ZM114.413 58.4968C116.22 57.6349 117.105 56.4085 117.245 54.8214H114.739V54.2443H117.974C117.974 56.2377 117.127 57.9614 114.792 59.0815L114.413 58.4968ZM126.411 53.5153V55.5276H127.398V56.1275H126.411V58.4588H125.682V53.5153H126.411ZM121.057 57.1375C122.652 56.6591 123.639 55.7517 123.78 54.6316H121.346V54.0317H124.566C124.566 55.8162 123.351 57.1109 121.361 57.7146L121.057 57.1375ZM122.09 60.175V57.95H122.819V59.5903H126.692V60.175H122.09Z" fill="#828282"/>
<path d="M92.5135 75.8574V74.8462L95.2675 72.189C96.0528 71.4037 96.4616 70.9411 96.4616 70.2849C96.4616 69.5587 95.8861 69.1015 95.1277 69.1015C94.3262 69.1015 93.8098 69.6018 93.8152 70.3925H92.4813C92.4759 68.9186 93.5839 67.9612 95.1384 67.9612C96.7306 67.9612 97.801 68.9133 97.8064 70.2203C97.801 71.0971 97.3814 71.8071 95.8484 73.254L94.4607 74.631V74.6848H97.9247V75.8574H92.5135ZM106.972 67.1006V74.2653H105.778V71.0272H103.239V70.0805H105.778V69.1983H103.239V68.2516H105.778V67.1006H106.972ZM99.3878 72.9421V67.746H100.571V71.9523C101.808 71.9362 102.981 71.8609 104.283 71.6296L104.401 72.5978C102.906 72.8829 101.593 72.9367 100.152 72.9421H99.3878ZM100.582 76.6212V73.6306H101.787V75.653H107.219V76.6212H100.582ZM114.201 75.965C112.679 75.9542 111.162 75.0506 111.168 72.1783C111.168 69.5157 112.378 67.9612 114.287 67.9612C115.788 67.9612 116.821 68.9025 116.998 70.1665H115.611C115.471 69.5695 114.997 69.1714 114.287 69.1768C113.158 69.1714 112.528 70.1719 112.523 71.8125H112.598C112.996 71.1401 113.744 70.7421 114.599 70.7475C115.998 70.7421 117.079 71.8017 117.074 73.2755C117.079 74.8247 115.923 75.9758 114.201 75.965ZM112.674 73.3186C112.684 74.1308 113.319 74.8301 114.201 74.8354C115.067 74.8301 115.713 74.1631 115.718 73.3078C115.713 72.4795 115.089 71.8125 114.223 71.8125C113.346 71.8125 112.684 72.5064 112.674 73.3186ZM126.282 67.0898V76.8149H125.131V71.8232H124.088V76.363H122.969V67.348H124.088V70.855H125.131V67.0898H126.282ZM117.859 73.9533C119.93 72.7592 120.807 71.2208 120.979 69.2736H118.311V68.3162H122.141C122.141 70.9465 121.312 73.2056 118.547 74.7816L117.859 73.9533ZM135.609 67.1006V72.7699H134.404V72.3719H132.586V71.6404H134.404V67.1006H135.609ZM127.444 70.6076C129.321 70.6076 131.672 70.5915 133.759 70.3817L133.824 71.1347C132.936 71.2531 132.022 71.3338 131.123 71.3768V72.7807H129.94V71.4252C129.106 71.4467 128.305 71.4521 127.573 71.4467L127.444 70.6076ZM128.133 68.7142C128.133 67.8321 129.106 67.2566 130.585 67.2512C132.032 67.2566 133.011 67.8321 133.017 68.7142C133.011 69.6179 132.032 70.1665 130.585 70.1665C129.106 70.1665 128.133 69.6179 128.133 68.7142ZM128.864 73.8887V73.0711H135.609V75.255H130.08V75.8789H135.868V76.7288H128.907V74.4697H134.426V73.8887H128.864ZM129.273 68.7142C129.262 69.123 129.768 69.3758 130.585 69.3705C131.387 69.3758 131.898 69.123 131.898 68.7142C131.898 68.3054 131.387 68.0419 130.585 68.0473C129.768 68.0419 129.262 68.3054 129.273 68.7142Z" fill="#131214"/>
<rect x="175.064" y="33.041" width="107.568" height="65.448" rx="6.48" fill="#F4F6F7"/>
<path d="M220.955 56.1883V56.7806H219.9V60.3117H219.178V53.5153H219.9V56.1883H220.955ZM214.857 58.6031V54.176H215.571V58.0032C216.52 57.9994 217.511 57.9197 218.594 57.6995L218.677 58.307C217.511 58.5386 216.441 58.6069 215.419 58.6031H214.857ZM223.537 54.0013C224.612 53.9975 225.386 54.662 225.39 55.6188C225.386 56.5756 224.612 57.24 223.537 57.2438C222.466 57.24 221.68 56.5756 221.684 55.6188C221.68 54.662 222.466 53.9975 223.537 54.0013ZM221.358 58.269C222.595 58.269 224.312 58.2576 225.8 58.0412L225.853 58.5651C224.315 58.8613 222.664 58.8689 221.449 58.8689L221.358 58.269ZM222.398 55.6188C222.39 56.2225 222.876 56.6135 223.537 56.6135C224.198 56.6135 224.684 56.2225 224.684 55.6188C224.684 55.0227 224.198 54.624 223.537 54.624C222.876 54.624 222.39 55.0227 222.398 55.6188ZM226.225 60.3345V53.5153H226.947V60.3345H226.225ZM232.46 54.7379C232.46 55.6112 233.109 56.4503 234.161 56.7806L233.789 57.3425C233.006 57.0844 232.414 56.549 232.107 55.8656C231.799 56.6022 231.195 57.1869 230.387 57.4716L230.015 56.9173C231.074 56.549 231.727 55.6605 231.731 54.7379V54.548H230.204V53.9633H233.956V54.548H232.46V54.7379ZM230.971 58.55V57.9652H235.581V60.3193H234.859V58.55H230.971ZM234.859 57.6235V53.5153H235.581V57.6235H234.859ZM238.163 57.3957V58.2462H241.375V57.3957H242.081V60.2358H237.449V57.3957H238.163ZM236.659 56.8414V56.2566H241.212C241.375 55.4783 241.382 54.9012 241.382 54.4038H237.441V53.8115H242.096V54.3278C242.1 54.8442 242.1 55.4327 241.922 56.2566H242.886V56.8414H236.659ZM238.163 59.6435H241.375V58.8081H238.163V59.6435Z" fill="#828282"/>
<path d="M220.542 68.101V68.7895C220.542 69.6555 220.542 70.8819 220.273 72.5548L219.09 72.458C219.326 70.9841 219.353 69.8922 219.359 69.0585H215.54V68.101H220.542ZM215.023 73.8134C215.599 73.8081 216.239 73.8027 216.906 73.7865V70.8766H218.089V73.7489C219.079 73.7059 220.096 73.6359 221.026 73.523L221.091 74.4159C219.084 74.744 216.858 74.7816 215.142 74.7709L215.023 73.8134ZM221.532 76.8149V67.0898H222.737V71.0487H224.146V72.0599H222.737V76.8149H221.532ZM228.116 68.8433C228.116 70.0321 228.885 71.1509 230.407 71.6188L229.837 72.5548C228.745 72.2105 227.97 71.5166 227.545 70.6399C227.115 71.6619 226.297 72.4741 225.125 72.8668L224.522 71.9201C226.088 71.4091 226.911 70.145 226.911 68.8541V68.7358H224.856V67.7675H230.138V68.7358H228.116V68.8433ZM225.846 74.943C225.846 73.7812 227.104 73.1034 229.138 73.1034C231.155 73.1034 232.392 73.7812 232.397 74.943C232.392 76.1156 231.155 76.8041 229.138 76.8041C227.104 76.8041 225.846 76.1156 225.846 74.943ZM227.04 74.943C227.04 75.5454 227.804 75.8628 229.138 75.8682C230.466 75.8628 231.214 75.5454 231.214 74.943C231.214 74.3513 230.466 74.0394 229.138 74.0394C227.804 74.0394 227.04 74.3513 227.04 74.943ZM231.106 72.8883V67.0898H232.3V69.4243H233.656V70.4032H232.3V72.8883H231.106ZM236.421 72.6301V73.7489H240.734V72.6301H241.918V76.6965H235.248V72.6301H236.421ZM234.151 71.9093V70.9519H240.53C240.734 69.9245 240.756 69.1499 240.756 68.4668H235.248V67.5094H241.95V68.2624C241.955 69.0047 241.955 69.8115 241.713 70.9519H243.037V71.9093H234.151ZM236.421 75.7283H240.734V74.6741H236.421V75.7283Z" fill="#131214"/>
<path d="M69.2875 128.378V135.817H68.0118V128.378H69.2875ZM60.8926 131.625C60.8926 130.127 62.1057 129.056 63.6719 129.05C65.2381 129.056 66.4456 130.127 66.4399 131.625C66.4456 133.145 65.2381 134.21 63.6719 134.21C62.1057 134.21 60.8926 133.145 60.8926 131.625ZM62.1342 131.625C62.1285 132.536 62.7892 133.106 63.6719 133.106C64.5319 133.106 65.1983 132.536 65.1983 131.625C65.1983 130.736 64.5319 130.155 63.6719 130.155C62.7892 130.155 62.1285 130.736 62.1342 131.625ZM62.4759 138.459V135.065H63.7517V137.434H69.5723V138.459H62.4759ZM74.4702 130.839C74.4589 132.678 75.3815 134.535 76.9762 135.304L76.2016 136.318C75.0853 135.754 74.2823 134.666 73.8438 133.356C73.3938 134.757 72.5509 135.919 71.372 136.511L70.5974 135.498C72.2548 134.712 73.2002 132.741 73.2059 130.839V129.199H74.4702V130.839ZM77.5913 138.664V128.367H78.8556V132.399H80.4389V133.481H78.8556V138.664H77.5913ZM89.392 129.085V130.11H88.4807V133.031C88.8566 133.003 89.2325 132.969 89.5856 132.923V132.001H90.998V131.112H89.5856V130.098H90.998V128.367H92.2624V134.677H90.998V133.014H89.6141L89.6653 133.857C87.7005 134.182 85.428 134.216 83.7878 134.222L83.6511 133.174C84.0099 133.174 84.4029 133.174 84.8129 133.168V130.11H83.9131V129.085H89.392ZM85.2799 136.762C85.2686 135.549 86.5956 134.86 88.7769 134.86C90.9753 134.86 92.2909 135.549 92.2966 136.762C92.2909 137.947 90.9753 138.653 88.7769 138.653C86.5956 138.653 85.2686 137.947 85.2799 136.762ZM86.0431 133.151C86.4418 133.14 86.8519 133.123 87.2619 133.106V130.11H86.0431V133.151ZM86.5329 136.762C86.5272 137.36 87.336 137.673 88.7769 137.673C90.2235 137.673 91.0322 137.36 91.0322 136.762C91.0322 136.153 90.2235 135.828 88.7769 135.828C87.336 135.828 86.5272 136.153 86.5329 136.762ZM101.785 128.367V132.388H103.311V133.447H101.785V138.641H100.521V128.367H101.785ZM93.6634 135.828C96.1694 134.575 97.5249 132.832 97.7755 130.486H94.2216V129.438H99.0626C99.0569 132.462 97.8039 135.122 94.3811 136.807L93.6634 135.828Z" fill="#131214"/>
<path d="M67.1904 148.276V154.035H66.4993V148.276H67.1904ZM60.8736 150.757C60.8692 149.623 61.7596 148.83 62.9379 148.826C64.1162 148.83 64.9977 149.623 65.0021 150.757C64.9977 151.904 64.1162 152.702 62.9379 152.697C61.7596 152.702 60.8692 151.904 60.8736 150.757ZM61.5558 150.757C61.5469 151.541 62.1405 152.086 62.9379 152.086C63.7219 152.086 64.3199 151.541 64.3199 150.757C64.3199 149.986 63.7219 149.437 62.9379 149.437C62.1405 149.437 61.5469 149.986 61.5558 150.757ZM62.1051 155.975V153.45H62.7961V155.39H67.4384V155.975H62.1051ZM71.1682 150.385C71.1682 151.771 72.0852 153.202 73.2059 153.751L72.7806 154.31C71.9124 153.858 71.1859 152.923 70.836 151.829C70.4861 152.989 69.7419 153.986 68.8559 154.46L68.413 153.902C69.5647 153.335 70.4772 151.824 70.4861 150.385V148.95H71.1682V150.385ZM73.9324 156.143V148.267H74.6234V151.466H75.9434V152.068H74.6234V156.143H73.9324ZM83.0664 148.87V149.446H82.2602V151.966C82.6234 151.94 82.9822 151.909 83.3233 151.864L83.3587 152.396C81.8216 152.631 80.032 152.657 78.7519 152.653L78.6633 152.068C78.9778 152.068 79.3189 152.068 79.6821 152.064V149.446H78.8847V148.87H83.0664ZM79.9213 154.708C79.9169 153.809 80.9135 153.295 82.5614 153.3C84.2092 153.295 85.2015 153.809 85.2015 154.708C85.2015 155.607 84.2092 156.126 82.5614 156.126C80.9135 156.126 79.9169 155.607 79.9213 154.708ZM80.3554 152.05C80.7585 152.042 81.1749 152.028 81.5869 152.006V149.446H80.3554V152.05ZM80.6123 154.708C80.6079 155.257 81.3477 155.576 82.5614 155.576C83.7707 155.576 84.5104 155.257 84.5104 154.708C84.5104 154.168 83.7707 153.84 82.5614 153.84C81.3477 153.84 80.6079 154.168 80.6123 154.708ZM83.1461 151.669V151.094H84.475V150.261H83.1461V149.685H84.475V148.267H85.1749V153.131H84.475V151.669H83.1461ZM92.5813 148.267V151.475H93.8571V152.059H92.5813V156.143H91.8903V148.267H92.5813ZM86.5392 154.097C88.5725 153.087 89.6799 151.568 89.8394 149.703H86.9025V149.118H90.5437C90.5393 151.346 89.4938 153.379 86.9291 154.646L86.5392 154.097ZM100.697 150.659V151.218H95.3012V148.56H95.9922V150.659H100.697ZM94.3178 152.857V152.29H101.529V152.857H94.3178ZM95.2569 155.948V153.663H95.9479V155.373H100.741V155.948H95.2569ZM110.947 148.276V154.035H110.256V148.276H110.947ZM104.63 150.757C104.626 149.623 105.516 148.83 106.694 148.826C107.873 148.83 108.754 149.623 108.759 150.757C108.754 151.904 107.873 152.702 106.694 152.697C105.516 152.702 104.626 151.904 104.63 150.757ZM105.312 150.757C105.303 151.541 105.897 152.086 106.694 152.086C107.478 152.086 108.076 151.541 108.076 150.757C108.076 149.986 107.478 149.437 106.694 149.437C105.897 149.437 105.303 149.986 105.312 150.757ZM105.862 155.975V153.45H106.553V155.39H111.195V155.975H105.862ZM114.925 150.385C114.925 151.771 115.842 153.202 116.962 153.751L116.537 154.31C115.669 153.858 114.942 152.923 114.592 151.829C114.243 152.989 113.498 153.986 112.612 154.46L112.169 153.902C113.321 153.335 114.234 151.824 114.243 150.385V148.95H114.925V150.385ZM117.689 156.143V148.267H118.38V151.466H119.7V152.068H118.38V156.143H117.689ZM128.559 148.267V150.199H129.746V150.783H128.559V152.741H127.868V148.267H128.559ZM122.774 152.272V148.808H126.265V149.375H123.465V151.696C125.047 151.705 125.946 151.643 127 151.439L127.089 152.006C125.981 152.232 125.042 152.276 123.385 152.272H122.774ZM123.589 156.037V153.149H128.559V156.037H123.589ZM124.271 155.47H127.868V153.716H124.271V155.47ZM136.409 148.267V150.323H137.587V150.908H136.409V152.972H135.709V148.267H136.409ZM130.606 152.325V148.87H134.105V149.446H131.288V151.758C132.883 151.749 133.8 151.7 134.858 151.483L134.929 152.059C133.826 152.281 132.883 152.325 131.217 152.325H130.606ZM131.261 154.62C131.266 153.676 132.267 153.127 133.875 153.122C135.483 153.127 136.471 153.676 136.471 154.62C136.471 155.576 135.483 156.126 133.875 156.126C132.267 156.126 131.266 155.576 131.261 154.62ZM131.944 154.62C131.948 155.204 132.688 155.563 133.875 155.568C135.053 155.563 135.802 155.204 135.797 154.62C135.802 154.039 135.053 153.689 133.875 153.698C132.688 153.689 131.948 154.039 131.944 154.62ZM140.75 150.686C140.741 151.948 141.653 153.339 142.796 153.884L142.398 154.434C141.512 153.999 140.763 153.069 140.409 152.002C140.045 153.158 139.257 154.177 138.375 154.628L137.95 154.079C139.084 153.525 140.059 152.028 140.068 150.686V149.658H138.234V149.082H142.522V149.658H140.75V150.686ZM143.487 156.143V148.267H144.178V151.457H145.498V152.05H144.178V156.143H143.487ZM149.901 148.985V152.609H146.26V148.985H149.901ZM146.942 152.05H149.228V149.552H146.942V152.05ZM147.155 155.975V153.494H147.837V155.39H152.444V155.975H147.155ZM151.39 154.044V148.267H152.081V150.668H153.268V151.253H152.081V154.044H151.39ZM162.189 148.276V150.659H163.368V151.244H162.189V153.556H161.49V148.276H162.189ZM156.006 152.75C156.635 152.75 157.37 152.75 158.141 152.728V152.148C157.224 152.064 156.63 151.643 156.635 150.987C156.63 150.27 157.37 149.827 158.477 149.827C159.594 149.827 160.32 150.27 160.329 150.987C160.32 151.638 159.744 152.059 158.832 152.148V152.702C159.567 152.666 160.311 152.604 161.002 152.502L161.064 153.007C159.354 153.308 157.472 153.322 156.085 153.317L156.006 152.75ZM156.201 149.525V148.994H158.141V148.205H158.832V148.994H160.763V149.525H156.201ZM156.971 154.504V153.946H162.189V156.143H161.49V154.504H156.971ZM157.299 150.987C157.295 151.399 157.751 151.678 158.477 151.669C159.204 151.678 159.665 151.399 159.665 150.987C159.665 150.571 159.204 150.314 158.477 150.323C157.751 150.314 157.295 150.571 157.299 150.987ZM170.384 148.276V154.035H169.693V148.276H170.384ZM164.068 150.757C164.063 149.623 164.954 148.83 166.132 148.826C167.31 148.83 168.192 149.623 168.196 150.757C168.192 151.904 167.31 152.702 166.132 152.697C164.954 152.702 164.063 151.904 164.068 150.757ZM164.75 150.757C164.741 151.541 165.335 152.086 166.132 152.086C166.916 152.086 167.514 151.541 167.514 150.757C167.514 149.986 166.916 149.437 166.132 149.437C165.335 149.437 164.741 149.986 164.75 150.757ZM165.299 155.975V153.45H165.99V155.39H170.632V155.975H165.299ZM178.216 148.267V156.161H177.516V148.267H178.216ZM172.014 151.625C172.019 149.951 172.852 148.883 174.026 148.879C175.195 148.883 176.041 149.951 176.037 151.625C176.041 153.304 175.195 154.367 174.026 154.363C172.852 154.367 172.019 153.304 172.014 151.625ZM172.688 151.625C172.688 152.905 173.237 153.747 174.026 153.743C174.818 153.747 175.363 152.905 175.363 151.625C175.363 150.345 174.818 149.503 174.026 149.499C173.237 149.503 172.688 150.345 172.688 151.625ZM187.935 148.267V151.475H189.211V152.059H187.935V156.143H187.244V148.267H187.935ZM181.893 154.097C183.926 153.087 185.033 151.568 185.193 149.703H182.256V149.118H185.897C185.893 151.346 184.847 153.379 182.283 154.646L181.893 154.097ZM196.041 150.473V151.049H190.663V148.427H191.355V150.473H196.041ZM189.68 152.546V151.971H196.865V152.546H189.68ZM190.548 154.682C190.544 153.765 191.567 153.251 193.268 153.255C194.956 153.251 195.97 153.765 195.979 154.682C195.97 155.594 194.956 156.108 193.268 156.108C191.567 156.108 190.544 155.594 190.548 154.682ZM191.257 154.682C191.248 155.231 192.006 155.563 193.268 155.568C194.517 155.563 195.275 155.231 195.279 154.682C195.275 154.123 194.517 153.809 193.268 153.805C192.006 153.809 191.248 154.123 191.257 154.682ZM203.678 148.267V150.287H204.865V150.881H203.678V152.848H202.987V148.267H203.678ZM197.538 149.658V149.082H199.541V148.197H200.232V149.082H202.234V149.658H197.538ZM197.99 151.404C197.986 150.562 198.743 150.026 199.886 150.022C201.016 150.026 201.773 150.562 201.782 151.404C201.773 152.245 201.016 152.79 199.886 152.786C198.743 152.79 197.986 152.245 197.99 151.404ZM198.655 151.404C198.65 151.917 199.142 152.254 199.886 152.254C200.621 152.254 201.118 151.917 201.126 151.404C201.118 150.894 200.621 150.553 199.886 150.562C199.142 150.553 198.65 150.894 198.655 151.404ZM198.699 156.037V153.193H199.39V154.035H202.987V153.193H203.678V156.037H198.699ZM199.39 155.479H202.987V154.584H199.39V155.479ZM211.855 148.267V156.143H211.164V148.267H211.855ZM205.875 154.115V149.047H206.557V153.512C207.762 153.503 209.002 153.41 210.322 153.131L210.42 153.725C209.02 154.017 207.775 154.115 206.513 154.115H205.875ZM219.297 148.267V151.386H220.617V151.971H219.297V156.161H218.606V148.267H219.297ZM213.547 154.185V149.038H217.224V149.614H214.238V153.601C215.665 153.596 216.67 153.534 217.844 153.317L217.933 153.92C216.697 154.141 215.665 154.185 214.167 154.185H213.547ZM221.875 155.479C221.565 155.475 221.299 155.218 221.308 154.903C221.299 154.593 221.565 154.336 221.875 154.336C222.19 154.336 222.446 154.593 222.442 154.903C222.446 155.218 222.19 155.475 221.875 155.479Z" fill="#8F898C"/>
<rect width="222.264" height="81.648" transform="translate(60.3687 169.387)" fill="white"/>
<g clip-path="url(#clip2_5340_14990)">
<rect x="60.3687" y="169.387" width="222.264" height="81.648" rx="5.184" fill="#0A69FA" fill-opacity="0.05"/>
<path d="M75.4771 230.503V231.079H74.6709V233.599C75.0341 233.572 75.3929 233.541 75.734 233.497L75.7694 234.029C74.2323 234.263 72.4427 234.29 71.1626 234.286L71.074 233.701C71.3885 233.701 71.7296 233.701 72.0928 233.696V231.079H71.2954V230.503H75.4771ZM72.332 236.341C72.3276 235.442 73.3242 234.928 74.9721 234.932C76.6199 234.928 77.6122 235.442 77.6122 236.341C77.6122 237.24 76.6199 237.758 74.9721 237.758C73.3242 237.758 72.3276 237.24 72.332 236.341ZM72.7661 233.683C73.1692 233.674 73.5856 233.661 73.9976 233.639V231.079H72.7661V233.683ZM73.023 236.341C73.0186 236.89 73.7584 237.209 74.9721 237.209C76.1814 237.209 76.9211 236.89 76.9211 236.341C76.9211 235.801 76.1814 235.473 74.9721 235.473C73.7584 235.473 73.0186 235.801 73.023 236.341ZM75.5568 233.302V232.726H76.8857V231.894H75.5568V231.318H76.8857V229.9H77.5856V234.764H76.8857V233.302H75.5568ZM84.992 229.9V233.107H86.2678V233.692H84.992V237.776H84.301V229.9H84.992ZM78.9499 235.73C80.9832 234.72 82.0906 233.2 82.2501 231.335H79.3132V230.751H82.9544C82.95 232.979 81.9045 235.012 79.3398 236.279L78.9499 235.73ZM91.4151 230.272C92.5668 230.272 93.3686 230.892 93.373 231.832C93.3686 232.647 92.7351 233.231 91.7872 233.351V234.122C92.5225 234.082 93.2711 234.015 93.9577 233.914L94.0109 234.436C92.3409 234.733 90.4538 234.76 89.0939 234.755L89.0053 234.179C89.6166 234.184 90.3342 234.179 91.0873 234.153V233.355C90.1128 233.249 89.4616 232.66 89.466 231.832C89.4616 230.892 90.2634 230.272 91.4151 230.272ZM90.1216 231.832C90.1128 232.43 90.6487 232.837 91.4151 232.842C92.1859 232.837 92.713 232.43 92.7174 231.832C92.713 231.22 92.1859 230.813 91.4151 230.813C90.6487 230.813 90.1128 231.22 90.1216 231.832ZM90.1571 237.599V235.411H90.8569V237.014H95.4461V237.599H90.1571ZM94.4627 235.933V229.909H95.1626V232.576H96.3409V233.169H95.1626V235.933H94.4627ZM104.066 236.217V236.802H96.8547V236.217H98.8835V234.72H97.7584V232.292H102.472V231.061H97.7407V230.485H103.154V232.868H98.4494V234.144H103.34V234.72H102.108V236.217H104.066ZM99.5657 236.217H101.426V234.72H99.5657V236.217ZM106.928 230.193C108.106 230.197 108.961 230.915 108.966 231.938C108.961 232.966 108.106 233.674 106.928 233.674C105.736 233.674 104.877 232.966 104.881 231.938C104.877 230.915 105.736 230.197 106.928 230.193ZM105.564 231.938C105.555 232.629 106.135 233.107 106.928 233.107C107.707 233.107 108.292 232.629 108.292 231.938C108.292 231.256 107.707 230.773 106.928 230.777C106.135 230.773 105.555 231.256 105.564 231.938ZM106.077 234.888V234.33H111.198V236.226H106.777V237.112H111.482V237.67H106.095V235.703H110.507V234.888H106.077ZM110.507 233.949V229.9H111.198V233.949H110.507ZM113.369 237.112C113.059 237.107 112.793 236.85 112.802 236.536C112.793 236.226 113.059 235.969 113.369 235.969C113.683 235.969 113.94 236.226 113.936 236.536C113.94 236.85 113.683 237.107 113.369 237.112ZM112.802 232.974C112.793 232.664 113.059 232.407 113.369 232.407C113.683 232.407 113.94 232.664 113.936 232.974C113.94 233.289 113.683 233.546 113.369 233.55C113.059 233.546 112.793 233.289 112.802 232.974ZM117.4 237.059L117.391 236.474L119.579 234.17C120.337 233.364 120.7 232.93 120.704 232.337C120.7 231.677 120.15 231.251 119.428 231.247C118.662 231.251 118.184 231.734 118.179 232.452H117.426C117.417 231.318 118.294 230.556 119.455 230.556C120.62 230.556 121.444 231.34 121.448 232.337C121.444 233.054 121.112 233.612 119.978 234.782L118.507 236.297V236.35H121.564V237.059H117.4ZM124.824 237.147C123.402 237.147 122.578 235.951 122.582 233.852C122.578 231.77 123.411 230.556 124.824 230.556C126.232 230.556 127.065 231.77 127.065 233.852C127.065 235.951 126.246 237.147 124.824 237.147ZM123.353 233.852C123.358 235.513 123.894 236.438 124.824 236.438C125.75 236.438 126.29 235.513 126.286 233.852C126.29 232.19 125.745 231.251 124.824 231.247C123.902 231.251 123.358 232.19 123.353 233.852ZM128.128 237.059L128.119 236.474L130.308 234.17C131.065 233.364 131.428 232.93 131.433 232.337C131.428 231.677 130.879 231.251 130.157 231.247C129.391 231.251 128.912 231.734 128.908 232.452H128.155C128.146 231.318 129.023 230.556 130.184 230.556C131.349 230.556 132.173 231.34 132.177 232.337C132.173 233.054 131.84 233.612 130.706 234.782L129.236 236.297V236.35H132.292V237.059H128.128ZM133.152 235.747V235.092L136.04 230.644H137.023V235.048H137.918V235.747H137.023V237.059H136.261V235.747H133.152ZM134.011 235.048H136.261V231.654H136.182L134.011 234.994V235.048ZM139.229 237.112C138.919 237.107 138.653 236.85 138.662 236.536C138.653 236.226 138.919 235.969 139.229 235.969C139.544 235.969 139.801 236.226 139.796 236.536C139.801 236.85 139.544 237.107 139.229 237.112ZM142.853 237.147C141.431 237.147 140.607 235.951 140.611 233.852C140.607 231.77 141.44 230.556 142.853 230.556C144.261 230.556 145.094 231.77 145.094 233.852C145.094 235.951 144.275 237.147 142.853 237.147ZM141.382 233.852C141.386 235.513 141.922 236.438 142.853 236.438C143.778 236.438 144.319 235.513 144.314 233.852C144.319 232.19 143.774 231.251 142.853 231.247C141.931 231.251 141.386 232.19 141.382 233.852ZM148.248 237.147C147.092 237.147 146.215 236.434 146.166 235.446H146.937C146.994 236.018 147.553 236.443 148.248 236.447C149.081 236.443 149.683 235.836 149.683 235.03C149.683 234.197 149.059 233.581 148.195 233.577C147.654 233.568 147.234 233.736 146.999 234.153H146.228L146.68 230.644H150.153V231.353H147.344L147.105 233.231H147.167C147.455 233.01 147.885 232.859 148.337 232.859C149.559 232.859 150.458 233.763 150.463 235.012C150.458 236.252 149.528 237.147 148.248 237.147ZM151.88 237.112C151.57 237.107 151.304 236.85 151.313 236.536C151.304 236.226 151.57 235.969 151.88 235.969C152.195 235.969 152.452 236.226 152.447 236.536C152.452 236.85 152.195 237.107 151.88 237.112ZM153.634 237.059L153.626 236.474L155.814 234.17C156.571 233.364 156.935 232.93 156.939 232.337C156.935 231.677 156.385 231.251 155.663 231.247C154.897 231.251 154.419 231.734 154.414 232.452H153.661C153.652 231.318 154.529 230.556 155.69 230.556C156.855 230.556 157.679 231.34 157.683 232.337C157.679 233.054 157.347 233.612 156.213 234.782L154.742 236.297V236.35H157.798V237.059H153.634ZM158.658 235.747V235.092L161.546 230.644H162.529V235.048H163.424V235.747H162.529V237.059H161.767V235.747H158.658ZM159.517 235.048H161.767V231.654H161.688L159.517 234.994V235.048Z" fill="#131214"/>
<path d="M79.4043 187.63V188.551H71.0411V187.63H74.6456V185.848H71.9624V181.11H73.0863V182.608H77.3287V181.11H78.4526V185.848H75.7593V187.63H79.4043ZM73.0863 184.937H77.3287V183.509H73.0863V184.937ZM84.6288 181.332V182.254H81.5812V186.516C83.0139 186.506 84.0213 186.445 85.1553 186.233L85.2768 187.144C83.9909 187.397 82.8822 187.448 81.1762 187.448H80.4472V181.332H84.6288ZM84.1428 184.643V183.722H86.5627V180.502H87.6866V189.665H86.5627V184.643H84.1428ZM96.3232 180.715V181.302C96.3181 181.955 96.3181 182.805 96.1207 183.924L94.9968 183.853C95.0576 183.514 95.1031 183.205 95.1284 182.922L89.8128 183.155L89.6913 182.274L95.1892 182.142C95.1942 181.945 95.1993 181.763 95.1993 181.596H89.9343V180.715H96.3232ZM88.9826 185.23V184.339H92.1821V183.398H93.3059V184.339H97.2851V185.23H88.9826ZM89.9444 186.648V185.797H96.2624V188.055H91.0582V188.653H96.5156V189.513H89.9546V187.255H95.1588V186.648H89.9444ZM105.547 180.502V189.665H104.433V180.502H105.547ZM98.4191 182.213V181.302H102.732V184.734H99.5834V186.577C101.026 186.567 102.267 186.491 103.694 186.253L103.795 187.174C102.241 187.443 100.874 187.503 99.2291 187.498H98.4292V183.843H101.588V182.213H98.4191ZM116.968 180.512V187.124H115.834V180.512H116.968ZM109.506 183.398C109.506 182.066 110.584 181.115 111.976 181.11C113.369 181.115 114.442 182.066 114.437 183.398C114.442 184.749 113.369 185.696 111.976 185.696C110.584 185.696 109.506 184.749 109.506 183.398ZM110.61 183.398C110.604 184.208 111.192 184.714 111.976 184.714C112.741 184.714 113.333 184.208 113.333 183.398C113.333 182.608 112.741 182.092 111.976 182.092C111.192 182.092 110.604 182.608 110.61 183.398ZM110.913 189.473V186.456H112.047V188.562H117.221V189.473H110.913ZM121.575 182.699C121.565 184.334 122.385 185.985 123.802 186.668L123.114 187.569C122.122 187.068 121.408 186.101 121.018 184.937C120.618 186.182 119.869 187.215 118.821 187.741L118.132 186.84C119.606 186.142 120.446 184.39 120.451 182.699V181.241H121.575V182.699ZM124.349 189.655V180.502H125.473V184.086H126.88V185.048H125.473V189.655H124.349ZM132.378 181.14V182.051H131.568V184.648C131.902 184.623 132.237 184.593 132.55 184.552V183.732H133.806V182.942H132.55V182.041H133.806V180.502H134.93V186.111H133.806V184.633H132.576L132.621 185.382C130.875 185.671 128.855 185.701 127.397 185.706L127.275 184.775C127.594 184.775 127.944 184.775 128.308 184.77V182.051H127.508V181.14H132.378ZM128.723 187.964C128.713 186.886 129.893 186.273 131.832 186.273C133.786 186.273 134.955 186.886 134.96 187.964C134.955 189.017 133.786 189.645 131.832 189.645C129.893 189.645 128.713 189.017 128.723 187.964ZM129.402 184.755C129.756 184.744 130.12 184.729 130.485 184.714V182.051H129.402V184.755ZM129.837 187.964C129.832 188.496 130.551 188.774 131.832 188.774C133.117 188.774 133.836 188.496 133.836 187.964C133.836 187.422 133.117 187.134 131.832 187.134C130.551 187.134 129.832 187.422 129.837 187.964ZM143.394 180.502V184.076H144.751V185.018H143.394V189.635H142.27V180.502H143.394ZM136.175 187.134C138.403 186.02 139.608 184.471 139.83 182.385H136.671V181.454H140.974C140.969 184.142 139.856 186.506 136.813 188.005L136.175 187.134Z" fill="#131214"/>
<path d="M74.6443 202.901C76.3719 202.896 77.3464 203.317 77.3553 204.114C77.3464 204.894 76.3719 205.301 74.6443 205.301C72.899 205.301 71.92 204.894 71.9245 204.114C71.92 203.317 72.899 202.896 74.6443 202.901ZM71.0562 202.404V201.846H74.2988V201.231C72.8813 201.177 72.0839 200.796 72.0839 200.119C72.0839 199.37 73.0097 198.989 74.6443 198.985C76.2744 198.989 77.1958 199.37 77.1958 200.119C77.1958 200.796 76.4029 201.177 74.9898 201.231V201.846H78.2323V202.404H71.0562ZM71.4283 198.666V198.108H74.2988V197.337H74.9898V198.108H77.8159V198.666H71.4283ZM72.6332 204.114C72.6376 204.544 73.3641 204.783 74.6443 204.779C75.92 204.783 76.6465 204.544 76.6465 204.114C76.6465 203.667 75.92 203.423 74.6443 203.423C73.3641 203.423 72.6376 203.667 72.6332 204.114ZM72.8281 200.119C72.8237 200.509 73.4881 200.734 74.6443 200.739C75.8004 200.734 76.456 200.509 76.4605 200.119C76.456 199.702 75.8004 199.476 74.6443 199.481C73.4881 199.476 72.8237 199.702 72.8281 200.119ZM85.3996 197.443V201.474H84.7085V197.443H85.3996ZM79.0297 201.058C81.0053 200.619 82.157 199.676 82.2811 198.409H79.4284V197.833H83.043C83.0385 199.844 81.6166 201.098 79.2866 201.643L79.0297 201.058ZM80.2789 202.404V201.846H85.3996V203.751H80.9876V204.69H85.6831V205.248H80.2966V203.22H84.7085V202.404H80.2789ZM93.9223 201.341V201.899H86.7373V201.341H89.9887V200.42H87.6499V197.815H93.0275V198.373H88.332V199.853H93.0806V200.42H90.662V201.341H93.9223ZM87.6056 203.893C87.6011 202.994 88.6244 202.48 90.3254 202.475C92.0131 202.48 93.0275 202.994 93.0364 203.893C93.0275 204.801 92.0131 205.31 90.3254 205.319C88.6244 205.31 87.6011 204.801 87.6056 203.893ZM88.3143 203.893C88.3054 204.447 89.0629 204.765 90.3254 204.761C91.5746 204.765 92.332 204.447 92.3365 203.893C92.332 203.348 91.5746 203.025 90.3254 203.025C89.0629 203.025 88.3054 203.348 88.3143 203.893Z" fill="#131214"/>
<line x1="99.5974" y1="197.537" x2="99.5974" y2="204.665" stroke="#131214" stroke-width="0.648"/>
<path d="M110.622 197.443V201.527H109.94V197.443H110.622ZM104.181 200.898C105.368 200.486 106.21 199.432 106.21 198.276V197.674H106.919V198.276C106.91 199.388 107.76 200.371 108.93 200.757L108.584 201.297C107.658 200.983 106.928 200.322 106.573 199.472C106.219 200.389 105.479 201.111 104.544 201.448L104.181 200.898ZM105.51 202.484V201.926H110.631V203.813H106.21V204.664H110.914V205.231H105.528V203.273H109.94V202.484H105.51ZM119.171 202.023V202.599H115.884V205.319H115.202V202.599H111.96V202.023H119.171ZM112.89 200.952V197.886H118.232V200.952H112.89ZM113.572 200.402H117.541V198.453H113.572V200.402ZM125.966 197.443V199.375H127.154V199.959H125.966V201.917H125.275V197.443H125.966ZM120.181 201.448V197.984H123.672V198.551H120.872V200.872C122.454 200.881 123.353 200.819 124.407 200.615L124.496 201.182C123.388 201.408 122.449 201.452 120.793 201.448H120.181ZM120.996 205.213V202.325H125.966V205.213H120.996ZM121.678 204.646H125.275V202.892H121.678V204.646ZM133.816 197.443V199.499H134.994V200.083H133.816V202.148H133.116V197.443H133.816ZM128.013 201.501V198.046H131.512V198.621H128.695V200.934C130.29 200.925 131.207 200.876 132.265 200.659L132.336 201.235C131.233 201.456 130.29 201.501 128.624 201.501H128.013ZM128.668 203.795C128.673 202.852 129.674 202.303 131.282 202.298C132.89 202.303 133.878 202.852 133.878 203.795C133.878 204.752 132.89 205.301 131.282 205.301C129.674 205.301 128.673 204.752 128.668 203.795ZM129.351 203.795C129.355 204.38 130.095 204.739 131.282 204.743C132.46 204.739 133.209 204.38 133.204 203.795C133.209 203.215 132.46 202.865 131.282 202.874C130.095 202.865 129.355 203.215 129.351 203.795ZM138.157 199.862C138.148 201.124 139.061 202.515 140.203 203.06L139.805 203.609C138.919 203.175 138.17 202.245 137.816 201.177C137.453 202.334 136.664 203.352 135.783 203.804L135.357 203.255C136.491 202.701 137.466 201.204 137.475 199.862V198.834H135.641V198.258H139.929V198.834H138.157V199.862ZM140.894 205.319V197.443H141.585V200.633H142.906V201.226H141.585V205.319H140.894Z" fill="#131214"/>
</g>
<rect x="60.6927" y="169.711" width="221.616" height="81" rx="4.86" stroke="#0A69FA" stroke-width="0.648"/>
<path d="M70.0962 287.48V288.516H66.0184V291.603H64.7654V288.516H60.7104V287.48H70.0962ZM61.2229 285.851C63.279 285.6 64.6287 284.547 64.754 283.516H61.5761V282.514H64.7654V281.306H66.0184V282.514H69.2192V283.516H66.0412C66.1608 284.535 67.5049 285.6 69.5609 285.851L69.0939 286.853C67.391 286.637 66.0697 285.891 65.4033 284.9C64.7313 285.902 63.3929 286.637 61.6786 286.853L61.2229 285.851ZM74.493 283.732C74.4873 284.957 75.3473 286.147 76.9762 286.648L76.3611 287.639C75.1936 287.292 74.3449 286.546 73.8779 285.6C73.4223 286.62 72.5737 287.423 71.372 287.81L70.7569 286.819C72.3801 286.312 73.2287 285.054 73.2287 283.732V283.573H71.0758V282.571H73.2287V281.363H74.5044V282.571H76.6459V283.573H74.493V283.732ZM72.6591 291.387V288.289H73.9235V290.362H79.6758V291.387H72.6591ZM76.3041 285.384V284.37H78.1494V281.306H79.4138V288.949H78.1494V285.384H76.3041ZM84.6762 283.767C84.6705 285.68 85.5875 287.56 87.2277 288.277L86.4646 289.291C85.3027 288.721 84.4826 287.628 84.0441 286.278C83.5941 287.702 82.7512 288.887 81.5666 289.485L80.7693 288.459C82.4494 287.674 83.3834 285.692 83.3891 283.767V282.126H84.6762V283.767ZM86.0887 285.646V284.621H88.2529V281.295H89.5059V291.603H88.2529V285.646H86.0887Z" fill="#131214"/>
<g clip-path="url(#clip3_5340_14990)">
<rect x="60.3687" y="305.539" width="222.264" height="81.648" rx="5.184" fill="white"/>
<path d="M74.6456 321.555V323.038C75.4404 322.993 76.2402 322.922 76.9946 322.81L77.0857 323.641C75.0354 324.02 72.8382 324.041 71.2233 324.035L71.0816 323.124C71.7954 323.119 72.6357 323.114 73.5217 323.089V321.555H74.6456ZM71.2942 320.998C72.6712 320.618 73.4306 319.712 73.4964 318.689H71.5676V317.778H73.5217V316.735H74.6456V317.778H76.6199V318.689H74.6607C74.7215 319.667 75.4961 320.542 76.8731 320.897L76.3567 321.778C75.2733 321.484 74.4987 320.851 74.0836 320.041C73.6837 320.892 72.9192 321.555 71.8308 321.848L71.2942 320.998ZM77.5413 325.818V316.654H78.6652V325.818H77.5413ZM87.2208 316.654V318.943H88.4966V319.864H87.2208V322.162H86.0969V316.654H87.2208ZM80.3156 321.626V317.231H81.4293V318.527H83.5657V317.231H84.6794V321.626H80.3156ZM81.1256 323.489V322.588H87.2208V325.807H86.0969V323.489H81.1256ZM81.4293 320.735H83.5657V319.408H81.4293V320.735ZM92.2327 318.851C92.2226 320.487 93.0427 322.137 94.4602 322.82L93.7717 323.722C92.7794 323.22 92.0656 322.253 91.6758 321.089C91.2759 322.334 90.5266 323.367 89.4787 323.894L88.7902 322.993C90.2634 322.294 91.1037 320.542 91.1088 318.851V317.393H92.2327V318.851ZM95.0069 325.807V316.654H96.1308V320.239H97.5382V321.2H96.1308V325.807H95.0069ZM108.726 322.152V323.074H105.102V325.818H103.988V323.074H100.383V322.152H108.726ZM100.839 320.704C102.666 320.482 103.866 319.545 103.978 318.629H101.153V317.738H103.988V316.664H105.102V317.738H107.947V318.629H105.122C105.228 319.535 106.423 320.482 108.25 320.704L107.835 321.595C106.322 321.403 105.147 320.74 104.555 319.859C103.957 320.75 102.768 321.403 101.244 321.595L100.839 320.704ZM112.635 318.821C112.629 319.91 113.394 320.968 114.842 321.413L114.295 322.294C113.257 321.985 112.503 321.322 112.088 320.482C111.683 321.388 110.928 322.102 109.86 322.446L109.314 321.565C110.756 321.114 111.511 319.996 111.511 318.821V318.679H109.597V317.788H111.511V316.715H112.645V317.788H114.548V318.679H112.635V318.821ZM111.004 325.625V322.871H112.128V324.714H117.241V325.625H111.004ZM114.244 320.289V319.388H115.885V316.664H117.009V323.458H115.885V320.289H114.244ZM121.686 318.851C121.681 320.552 122.496 322.223 123.954 322.861L123.276 323.762C122.243 323.256 121.514 322.284 121.124 321.084C120.724 322.35 119.975 323.403 118.922 323.934L118.213 323.023C119.707 322.324 120.537 320.563 120.542 318.851V317.393H121.686V318.851ZM122.942 320.522V319.611H124.866V316.654H125.979V325.818H124.866V320.522H122.942Z" fill="#131214"/>
<path d="M75.4505 334.171V334.614C75.4416 335.146 75.4416 335.934 75.2467 336.962L74.4139 336.882C74.5867 336.005 74.6133 335.363 74.6221 334.862H71.4461V334.171H75.4505ZM70.9676 337.644C71.4549 337.644 72.0086 337.64 72.5889 337.627V335.952H73.4217V337.6C74.2722 337.565 75.1493 337.503 75.9466 337.387L75.9998 337.999C74.3431 338.291 72.4472 338.322 71.0474 338.326L70.9676 337.644ZM72.1725 341.339V338.991H73.0142V340.656H77.5679V341.339H72.1725ZM76.4516 339.531V333.569H77.311V336.094H78.4007V336.803H77.311V339.531H76.4516ZM85.6919 333.569V341.507H84.8946V333.569H85.6919ZM78.8259 339.212C80.5136 338.211 81.3198 336.878 81.466 335.243H79.2157V334.552H82.2988C82.2988 334.96 82.2678 335.354 82.2058 335.74H83.2733V333.773H84.0707V341.117H83.2733V338.415H81.9178V337.724H83.2733V336.431H82.0507C81.6653 337.764 80.8193 338.924 79.322 339.815L78.8259 339.212ZM87.6144 340.816C87.2689 340.811 86.981 340.532 86.9854 340.187C86.981 339.841 87.2689 339.558 87.6144 339.558C87.9555 339.558 88.239 339.841 88.2434 340.187C88.239 340.532 87.9555 340.811 87.6144 340.816ZM86.9854 336.687C86.981 336.342 87.2689 336.058 87.6144 336.058C87.9555 336.058 88.239 336.342 88.2434 336.687C88.239 337.033 87.9555 337.312 87.6144 337.316C87.2689 337.312 86.981 337.033 86.9854 336.687ZM94.1172 335.022C94.1216 336.098 94.8348 337.135 96.0308 337.556L95.5701 338.211C94.7063 337.879 94.0552 337.223 93.7141 336.404C93.373 337.316 92.6953 338.039 91.7606 338.397L91.3088 337.733C92.5447 337.294 93.28 336.191 93.2844 334.995V334.056H94.1172V335.022ZM92.7529 341.339V338.831H93.6034V340.656H98.1128V341.339H92.7529ZM95.4195 336.076V335.385H97.0939V333.578H97.9356V339.496H97.0939V336.076H95.4195ZM105.741 333.578V338.096H104.899V333.578H105.741ZM99.3176 335.855C99.3221 334.734 100.217 333.972 101.435 333.976C102.649 333.972 103.544 334.734 103.544 335.855C103.544 336.944 102.649 337.715 101.435 337.715C100.217 337.715 99.3221 336.944 99.3176 335.855ZM100.142 335.855C100.137 336.537 100.682 337.006 101.435 337.006C102.179 337.006 102.72 336.537 102.72 335.855C102.72 335.15 102.179 334.681 101.435 334.685C100.682 334.681 100.137 335.15 100.142 335.855ZM100.523 341.409V338.495H105.741V341.409H100.523ZM101.355 340.727H104.917V339.168H101.355V340.727ZM109.727 334.039L107.663 341.72H106.822L108.886 334.039H109.727ZM112.881 334.836C112.877 335.877 113.612 336.847 114.795 337.237L114.343 337.901C113.475 337.596 112.824 336.975 112.478 336.191C112.133 337.082 111.459 337.782 110.534 338.123L110.082 337.449C111.322 337.011 112.04 335.952 112.049 334.765V333.985H112.881V334.836ZM111.154 340.019C111.154 339.088 112.168 338.543 113.82 338.548C115.451 338.543 116.452 339.088 116.452 340.019C116.452 340.958 115.451 341.494 113.82 341.489C112.168 341.494 111.154 340.958 111.154 340.019ZM111.995 340.019C111.991 340.541 112.673 340.825 113.82 340.834C114.959 340.825 115.632 340.541 115.628 340.019C115.632 339.514 114.959 339.212 113.82 339.212C112.673 339.212 111.991 339.514 111.995 340.019ZM115.539 338.362V333.569H116.381V335.562H117.533V336.271H116.381V338.362H115.539ZM120.74 335.589C120.731 336.993 121.55 338.433 122.733 339.009L122.21 339.682C121.346 339.23 120.678 338.344 120.328 337.285C119.973 338.411 119.278 339.363 118.374 339.833L117.851 339.15C119.07 338.566 119.894 337.042 119.898 335.589V334.233H120.74V335.589ZM123.327 341.507V333.569H124.168V336.732H125.444V337.449H124.168V341.507H123.327Z" fill="#8F898C"/>
</g>
<rect x="60.6927" y="305.863" width="221.616" height="81" rx="4.86" stroke="#7A7A7A" stroke-width="0.648"/>
<rect width="243" height="34.992" transform="translate(50 46)" fill="white"/>
<path d="M86.0002 60.4924C87.5224 60.5032 89.0393 61.4122 89.0446 64.2577C89.0446 66.9417 87.829 68.4962 85.9141 68.4962C84.4134 68.4962 83.3753 67.5603 83.2032 66.2694H84.5909C84.7308 66.888 85.2095 67.2806 85.9141 67.2806C87.0437 67.2806 87.6784 66.2855 87.6892 64.6127H87.6031C87.2104 65.2904 86.4574 65.6938 85.6021 65.6885C84.209 65.6938 83.1332 64.6342 83.1278 63.1604C83.1278 61.6381 84.2736 60.4817 86.0002 60.4924ZM84.4941 63.1281C84.4941 63.9672 85.118 64.6234 85.9894 64.6234C86.8554 64.6234 87.5224 63.9242 87.517 63.1173C87.517 62.3266 86.8823 61.6274 86.0109 61.622C85.1342 61.6274 84.4833 62.2944 84.4941 63.1281ZM91.0671 67.4205C90.6045 67.4205 90.2226 67.0439 90.228 66.5814C90.2226 66.1295 90.6045 65.7584 91.0671 65.753C91.5136 65.7584 91.8955 66.1295 91.8955 66.5814C91.8955 67.0439 91.5136 67.4205 91.0671 67.4205ZM90.228 62.4073C90.2226 61.9555 90.6045 61.5844 91.0671 61.579C91.5136 61.5844 91.8955 61.9555 91.8955 62.4073C91.8955 62.8699 91.5136 63.2464 91.0671 63.2464C90.6045 63.2464 90.2226 62.8699 90.228 62.4073ZM93.0681 66.9364V65.8176L96.4353 60.6H98.178V65.7853H99.2V66.9364H98.178V68.3887H96.8441V66.9364H93.0681ZM94.4989 65.7853H96.8656V62.1922H96.7795L94.4989 65.7315V65.7853ZM103.374 60.6V68.3887H101.965V61.9663H101.922L100.104 63.1281V61.8479L102.029 60.6H103.374Z" fill="#131214"/>
<rect opacity="0.35" x="256.994" y="60.7322" width="15.552" height="7.776" rx="2.4624" stroke="#131214" stroke-width="0.648"/>
<path opacity="0.4" d="M273.518 63.5059V66.1468C274.04 65.9231 274.379 65.4028 274.379 64.8263C274.379 64.2498 274.04 63.7295 273.518 63.5059Z" fill="#131214"/>
<rect x="257.966" y="61.7051" width="13.608" height="5.832" rx="1.62" fill="#131214"/>
<path fill-rule="evenodd" clip-rule="evenodd" d="M246.477 62.4204C248.089 62.4205 249.639 63.018 250.807 64.0894C250.895 64.1722 251.035 64.1711 251.122 64.0871L251.963 63.2684C252.007 63.2258 252.031 63.168 252.031 63.108C252.03 63.0479 252.005 62.9905 251.961 62.9484C248.895 60.1136 244.059 60.1136 240.993 62.9484C240.948 62.9905 240.923 63.0479 240.923 63.1079C240.922 63.168 240.947 63.2257 240.991 63.2684L241.832 64.0871C241.918 64.1713 242.059 64.1723 242.147 64.0894C243.315 63.0179 244.865 62.4204 246.477 62.4204ZM246.475 65.1552C247.354 65.1551 248.203 65.4867 248.855 66.0855C248.943 66.1705 249.082 66.1687 249.168 66.0814L250.002 65.2265C250.046 65.1816 250.07 65.1208 250.069 65.0576C250.069 64.9944 250.043 64.9341 249.998 64.8901C248.013 63.0169 244.938 63.0169 242.953 64.8901C242.908 64.9341 242.883 64.9944 242.882 65.0576C242.881 65.1209 242.906 65.1817 242.95 65.2265L243.784 66.0814C243.87 66.1687 244.009 66.1705 244.097 66.0855C244.748 65.4871 245.596 65.1555 246.475 65.1552ZM248.111 66.9654C248.112 67.0336 248.088 67.0995 248.044 67.1473L246.634 68.738C246.593 68.7847 246.536 68.811 246.477 68.811C246.418 68.811 246.362 68.7847 246.321 68.738L244.91 67.1473C244.866 67.0994 244.843 67.0336 244.844 66.9653C244.845 66.8971 244.872 66.8324 244.917 66.7866C245.818 65.9352 247.137 65.9352 248.038 66.7866C248.083 66.8324 248.109 66.8971 248.111 66.9654Z" fill="#131214"/>
<path fill-rule="evenodd" clip-rule="evenodd" d="M236.064 61.4967C236.064 61.0864 235.754 60.7539 235.372 60.7539H234.681C234.3 60.7539 233.99 61.0864 233.99 61.4967V67.9339C233.99 68.3441 234.3 68.6766 234.681 68.6766H235.372C235.754 68.6766 236.064 68.3441 236.064 67.9339V61.4967ZM231.246 62.3384H231.938C232.319 62.3384 232.629 62.679 232.629 63.099V67.916C232.629 68.3361 232.319 68.6766 231.938 68.6766H231.246C230.865 68.6766 230.555 68.3361 230.555 67.916V63.099C230.555 62.679 230.865 62.3384 231.246 62.3384ZM228.439 64.055H227.748C227.366 64.055 227.057 64.3999 227.057 64.8253V67.9064C227.057 68.3318 227.366 68.6766 227.748 68.6766H228.439C228.821 68.6766 229.131 68.3318 229.131 67.9064V64.8253C229.131 64.3999 228.821 64.055 228.439 64.055ZM225.004 65.6396H224.313C223.932 65.6396 223.622 65.9795 223.622 66.3988V67.9174C223.622 68.3367 223.932 68.6766 224.313 68.6766H225.004C225.386 68.6766 225.696 68.3367 225.696 67.9174V66.3988C225.696 65.9795 225.386 65.6396 225.004 65.6396Z" fill="#131214"/>
<rect width="243" height="41.472" transform="translate(50 80.9922)" fill="white"/>
<path d="M171.334 95.9352V107.376H169.992V95.9352H171.334ZM161.285 104.124C162.936 103.118 163.664 101.055 163.664 99.0613V98.3019H161.677V97.1628H166.866V98.3019H165.018V99.0613C165.018 100.991 165.708 102.928 167.347 103.871L166.512 104.908C165.455 104.282 164.752 103.194 164.354 101.89C163.949 103.301 163.221 104.503 162.145 105.174L161.285 104.124ZM166.031 101.061V99.9219H167.676V96.1503H169.005V106.82H167.676V101.061H166.031ZM183.091 100.884V101.922H178.586V102.757H181.813V105.44H175.308V106.225H182.129V107.275H173.928V104.478H180.433V103.769H173.915V102.757H177.193V101.922H172.713V100.884H183.091ZM173.169 99.4536C175.428 99.3397 176.757 98.7322 177.048 97.9222H173.713V96.8717H177.193V95.9098H178.586V96.8717H182.091V97.9222H178.731C179.01 98.7322 180.338 99.3397 182.623 99.4536L182.205 100.504C180.149 100.378 178.611 99.8206 177.89 98.8967C177.168 99.8206 175.637 100.378 173.561 100.504L173.169 99.4536Z" fill="#131214"/>
<path d="M68.7924 106.913L63.8802 102.34C63.5178 102.002 63.5178 101.455 63.8802 101.118L68.7924 96.5449" stroke="#131214" stroke-width="0.972" stroke-linecap="round"/>
<rect x="233.708" y="91.6853" width="48.904" height="20.016" rx="3.564" stroke="#E6E9EB" stroke-width="0.648"/>
<path d="M248.059 98.0084V101.083H249.335V101.774H248.059V105.964H247.217V98.0084H248.059ZM242.212 103.988V98.7703H245.924V99.4525H243.053V103.289C244.387 103.284 245.383 103.227 246.517 103.023L246.624 103.732C245.379 103.953 244.325 103.993 242.85 103.988H242.212ZM252.63 100.028C252.621 101.477 253.498 102.939 254.73 103.484L254.225 104.148C253.312 103.714 252.59 102.823 252.218 101.738C251.851 102.903 251.12 103.86 250.167 104.325L249.654 103.616C250.903 103.063 251.78 101.543 251.78 100.028V98.6729H252.63V100.028ZM255.448 105.964V98.0084H256.289V105.964H255.448ZM262.57 99.4613C262.575 100.538 263.288 101.574 264.484 101.995L264.023 102.651C263.16 102.318 262.508 101.663 262.167 100.843C261.826 101.756 261.149 102.478 260.214 102.837L259.762 102.172C260.998 101.734 261.733 100.631 261.738 99.4348V98.4957H262.57V99.4613ZM261.206 105.778V103.271H262.057V105.096H266.566V105.778H261.206ZM263.873 100.516V99.8246H265.547V98.0173H266.389V103.935H265.547V100.516H263.873ZM271.04 98.5754V99.2576H268.745V100.144H270.951V100.79H268.745V101.756C269.809 101.747 270.504 101.707 271.324 101.552L271.403 102.243C270.473 102.416 269.716 102.451 268.453 102.447H267.939V98.5754H271.04ZM268.985 103.9V103.218H274.38V105.946H273.547V103.9H268.985ZM271.82 102.775V98.159H272.608V100.037H273.583V98.0173H274.38V102.837H273.583V100.719H272.608V102.775H271.82Z" fill="#707070"/>
</g>
<rect x="48.5" y="44.5" width="246" height="529.176" rx="27.5" stroke="black" stroke-width="3"/>
</g>
<defs>
<clipPath id="clip0_5340_14990">
<rect width="343" height="343" rx="24" fill="white"/>
</clipPath>
<clipPath id="clip1_5340_14990">
<rect x="50" y="46" width="243" height="526.176" rx="26" fill="white"/>
</clipPath>
<clipPath id="clip2_5340_14990">
<rect x="60.3687" y="169.387" width="222.264" height="81.648" rx="5.184" fill="white"/>
</clipPath>
<clipPath id="clip3_5340_14990">
<rect x="60.3687" y="305.539" width="222.264" height="81.648" rx="5.184" fill="white"/>
</clipPath>
</defs>
</svg>
