<svg width="343" height="343" viewBox="0 0 343 343" fill="none" xmlns="http://www.w3.org/2000/svg">
<g clip-path="url(#clip0_5308_17151)">
<rect width="343" height="343" rx="24" fill="#F7F7FB"/>
<g clip-path="url(#clip1_5308_17151)">
<rect x="50" y="52" width="243" height="526.176" rx="26" fill="white"/>
<path d="M70.0956 155.804V156.841H66.0177V159.927H64.7648V156.841H60.7097V155.804H70.0956ZM61.2223 154.175C63.2783 153.925 64.6281 152.871 64.7534 151.84H61.5754V150.838H64.7648V149.63H66.0177V150.838H69.2185V151.84H66.0405C66.1601 152.86 67.5042 153.925 69.5602 154.175L69.0932 155.178C67.3903 154.961 66.069 154.215 65.4026 153.224C64.7306 154.226 63.3922 154.961 61.6779 155.178L61.2223 154.175ZM78.855 149.619V153.64H80.3813V154.699H78.855V159.893H77.5906V149.619H78.855ZM70.7334 157.08C73.2394 155.827 74.5949 154.084 74.8455 151.738H71.2916V150.69H76.1326C76.1269 153.714 74.8739 156.374 71.4511 158.059L70.7334 157.08ZM88.9357 149.619V153.72H90.519V154.768H88.9357V159.916H87.6827V149.619H88.9357ZM80.8142 152.216V151.202H83.2517V149.767H84.5161V151.202H86.8854V152.216H80.8142ZM81.2926 155.314C81.2812 153.89 82.3861 152.882 83.8896 152.888C85.3704 152.882 86.4696 153.89 86.4753 155.314C86.4696 156.732 85.3704 157.729 83.8896 157.729C82.3861 157.729 81.2812 156.732 81.2926 155.314ZM82.5 155.314C82.4943 156.152 83.0809 156.687 83.8896 156.681C84.6813 156.687 85.2565 156.152 85.2679 155.314C85.2565 154.477 84.6813 153.925 83.8896 153.925C83.0809 153.925 82.4943 154.477 82.5 155.314ZM99.5062 149.619V154.87H98.2532V149.619H99.5062ZM90.9404 153.868C92.6091 153.338 93.4862 152.017 93.4805 150.667V149.87H94.7904V150.667C94.7848 151.977 95.6561 153.201 97.285 153.697L96.6699 154.676C95.4739 154.306 94.6196 153.543 94.1526 152.563C93.6856 153.628 92.8085 154.466 91.5783 154.859L90.9404 153.868ZM92.6946 156.328V155.348H99.5289V158.025H93.9589V158.823H99.8365V159.825H92.7174V157.08H98.2646V156.328H92.6946ZM105.27 158.902H103.687L106.591 150.656H108.414L111.33 158.902H109.746L109.057 156.863H105.953L105.27 158.902ZM106.352 155.667H108.659L107.537 152.341H107.468L106.352 155.667ZM114.348 159.016C112.896 159.011 111.797 157.849 111.797 155.815C111.797 153.754 112.924 152.638 114.36 152.638C115.447 152.638 115.903 153.292 116.125 153.731H116.182V150.656H117.629V158.902H116.205V157.923H116.125C115.892 158.378 115.419 159.011 114.348 159.016ZM113.277 155.804C113.277 156.972 113.79 157.82 114.747 157.82C115.687 157.82 116.216 157.012 116.216 155.804C116.216 154.602 115.692 153.828 114.747 153.822C113.779 153.828 113.277 154.654 113.277 155.804ZM119.098 158.902V152.717H120.488V153.765H120.567C120.824 153.059 121.445 152.638 122.265 152.638C123.102 152.638 123.706 153.065 123.939 153.765H124.007C124.275 153.082 124.964 152.638 125.864 152.638C126.997 152.638 127.795 153.367 127.789 154.745V158.902H126.342V154.973C126.342 154.204 125.875 153.856 125.283 153.856C124.571 153.856 124.155 154.34 124.155 155.041V158.902H122.743V154.916C122.737 154.272 122.316 153.856 121.695 153.856C121.069 153.856 120.556 154.375 120.556 155.143V158.902H119.098ZM129.179 158.902V152.717H130.637V158.902H129.179ZM129.076 151.043C129.076 150.61 129.458 150.257 129.919 150.257C130.38 150.257 130.762 150.61 130.762 151.043C130.762 151.481 130.38 151.834 129.919 151.84C129.458 151.834 129.076 151.481 129.076 151.043ZM133.484 155.28V158.902H132.026V152.717H133.416V153.765H133.496C133.775 153.076 134.407 152.638 135.33 152.638C136.611 152.638 137.454 153.48 137.448 154.961V158.902H136.002V155.189C136.002 154.357 135.552 153.862 134.794 153.868C134.025 153.862 133.484 154.38 133.484 155.28ZM146.606 150.633C146.601 153.742 145.752 156.413 141.959 158.299L141.264 157.342C143.047 156.465 144.112 155.434 144.71 154.215L141.503 154.517L141.344 153.423L145.091 153.19C145.222 152.706 145.308 152.199 145.348 151.658H141.879V150.633H146.606ZM148.053 159.893V149.619H149.317V153.651H150.844V154.688H149.317V159.893H148.053ZM159.694 154.449V155.462H152.473V150.519H159.614V151.544H153.726V154.449H159.694ZM151.334 158.606V157.558H160.742V158.606H151.334ZM164.752 150.337C166.386 150.331 167.577 151.362 167.588 152.82C167.577 154.283 166.386 155.309 164.752 155.314C163.134 155.309 161.921 154.283 161.927 152.82C161.921 151.362 163.134 150.331 164.752 150.337ZM161.46 156.738C163.316 156.738 165.885 156.715 168.112 156.396L168.214 157.319C165.908 157.758 163.436 157.775 161.619 157.775L161.46 156.738ZM163.18 152.82C163.174 153.68 163.852 154.209 164.752 154.209C165.663 154.209 166.341 153.68 166.346 152.82C166.341 151.965 165.669 151.43 164.752 151.43C163.852 151.43 163.174 151.965 163.18 152.82ZM168.727 159.927V149.619H169.991V159.927H168.727ZM182.886 149.619V155.736H181.621V153.218H179.867V152.182H181.621V149.619H182.886ZM174.229 154.711C175.886 154.141 176.757 152.757 176.757 151.396V151.316H174.616V150.291H180.175V151.316H178.045V151.385C178.045 152.638 178.876 153.902 180.471 154.437L179.833 155.44C178.688 155.052 177.879 154.266 177.424 153.298C176.974 154.392 176.114 155.28 174.889 155.713L174.229 154.711ZM175.903 157.957C175.892 156.721 177.23 155.998 179.4 155.998C181.581 155.998 182.914 156.721 182.92 157.957C182.914 159.193 181.581 159.91 179.4 159.916C177.23 159.91 175.892 159.193 175.903 157.957ZM177.156 157.957C177.15 158.595 177.97 158.942 179.4 158.937C180.841 158.942 181.655 158.595 181.655 157.957C181.655 157.313 180.841 156.966 179.4 156.966C177.97 156.966 177.15 157.313 177.156 157.957ZM193.752 157.638V158.675H184.344V157.638H188.399V155.633H185.38V150.302H186.644V151.988H191.417V150.302H192.681V155.633H189.652V157.638H193.752ZM186.644 154.608H191.417V153.002H186.644V154.608ZM203.822 154.289V155.246H194.413V154.289H203.822ZM195.506 156.75V155.861H202.682V158.208H196.782V158.925H202.99V159.802H195.518V157.387H201.429V156.75H195.506ZM195.575 150.724V149.847H202.66V152.17H196.862V152.843H202.842V153.708H195.609V151.35H201.395V150.724H195.575ZM69.2868 167.619V173.143H68.0111V167.619H69.2868ZM60.8919 170.489C60.8919 169.06 62.0766 168.069 63.6713 168.075C65.2603 168.069 66.4449 169.06 66.4392 170.489C66.4449 171.896 65.2603 172.887 63.6713 172.881C62.0766 172.887 60.8919 171.896 60.8919 170.489ZM62.1335 170.489C62.1278 171.315 62.7714 171.839 63.6713 171.845C64.554 171.839 65.1976 171.315 65.1976 170.489C65.1976 169.664 64.554 169.128 63.6713 169.134C62.7714 169.128 62.1278 169.664 62.1335 170.489ZM62.4752 177.791V173.622H63.7282V174.681H68.0225V173.622H69.2868V177.791H62.4752ZM63.7282 176.766H68.0225V175.672H63.7282V176.766ZM75.7112 168.234V171.332H72.4648V172.597C74.1222 172.597 75.0619 172.551 76.1554 172.346L76.2807 173.371C75.0505 173.582 73.9855 173.61 71.9636 173.61H71.2119V170.387H74.4468V169.236H71.1891V168.234H75.7112ZM72.3737 175.467V174.453H79.4131V177.916H78.1487V175.467H72.3737ZM76.3262 172.266V171.253H78.1487V170.102H76.3262V169.088H78.1487V167.63H79.4131V173.964H78.1487V172.266H76.3262ZM85.8944 169.259V170.273H80.8483V169.259H82.7619V167.915H84.0149V169.259H85.8944ZM81.1445 173.212C81.1331 171.811 82.0842 170.814 83.3884 170.82C84.6984 170.814 85.6324 171.811 85.6324 173.212C85.6324 174.641 84.6984 175.638 83.3884 175.638C82.0842 175.638 81.1331 174.641 81.1445 173.212ZM82.2608 173.212C82.2551 174.043 82.7221 174.562 83.3884 174.556C84.0491 174.562 84.5161 174.043 84.5161 173.212C84.5161 172.403 84.0491 171.868 83.3884 171.868C82.7221 171.868 82.2551 172.403 82.2608 173.212ZM86.3272 177.449V167.835H87.5118V171.856H88.5142V167.619H89.7216V177.916H88.5142V172.881H87.5118V177.449H86.3272ZM103.106 173.36V174.385H99.0164V177.905H97.7634V174.385H93.7197V173.36H103.106ZM94.2095 171.674C96.2314 171.418 97.5868 170.33 97.678 169.202H94.5854V168.2H102.24V169.202H99.1474C99.2328 170.33 100.577 171.418 102.616 171.674L102.16 172.665C100.406 172.414 99.0392 171.611 98.4127 170.501C97.7805 171.611 96.425 172.414 94.6879 172.665L94.2095 171.674ZM107.013 170.319C107.018 171.982 107.588 173.713 108.983 174.59L108.288 175.558C107.36 175 106.756 174.043 106.415 172.921C106.044 174.157 105.384 175.205 104.416 175.797L103.63 174.852C105.127 173.946 105.788 172.13 105.794 170.376V168.53H107.013V170.319ZM107.878 172.209V171.161H109.348V167.801H110.544V177.415H109.348V172.209H107.878ZM111.466 177.916V167.619H112.685V177.916H111.466ZM123.29 175.627V176.663H113.881V175.627H116.057V173.024C115.237 172.551 114.741 171.811 114.747 170.899C114.741 169.259 116.347 168.177 118.563 168.177C120.79 168.177 122.407 169.259 122.401 170.899C122.407 171.799 121.923 172.523 121.126 172.995V175.627H123.29ZM115.988 170.899C115.983 171.953 117.025 172.625 118.563 172.619C120.095 172.625 121.16 171.953 121.16 170.899C121.16 169.829 120.095 169.174 118.563 169.18C117.025 169.174 115.983 169.829 115.988 170.899ZM117.31 175.627H119.838V173.479C119.445 173.565 119.018 173.61 118.563 173.61C118.118 173.61 117.697 173.565 117.31 173.485V175.627ZM125.215 176.993C124.725 176.993 124.321 176.595 124.326 176.105C124.321 175.627 124.725 175.234 125.215 175.228C125.688 175.234 126.092 175.627 126.092 176.105C126.092 176.595 125.688 176.993 125.215 176.993Z" fill="#131214"/>
<path d="M68.2959 206.436V215.589H67.172V206.436H68.2959ZM60.7122 213.047C61.4412 213.042 62.2664 213.042 63.1321 213.017V212.176C62.1044 212.014 61.4311 211.387 61.4311 210.516C61.4311 209.483 62.3474 208.8 63.6789 208.795C65.0255 208.8 65.957 209.483 65.957 210.516C65.957 211.382 65.2837 212.004 64.256 212.171V212.976C65.0609 212.941 65.8709 212.875 66.6354 212.774L66.7164 213.614C64.7065 213.953 62.5195 213.979 60.8742 213.979L60.7122 213.047ZM60.9046 208.38V207.489H63.1321V206.466H64.256V207.489H66.4734V208.38H60.9046ZM62.5044 210.516C62.4942 211.042 62.9853 211.351 63.6789 211.346C64.3927 211.351 64.8787 211.042 64.8736 210.516C64.8787 209.984 64.3927 209.66 63.6789 209.655C62.9853 209.66 62.4942 209.984 62.5044 210.516ZM72.9027 208.633C72.8926 210.268 73.7127 211.918 75.1302 212.602L74.4417 213.503C73.4495 213.002 72.7357 212.035 72.3459 210.87C71.9459 212.116 71.1967 213.148 70.1487 213.675L69.4602 212.774C70.9334 212.075 71.7738 210.324 71.7789 208.633V207.175H72.9027V208.633ZM75.677 215.589V206.436H76.8009V210.02H78.2082V210.982H76.8009V215.589H75.677ZM86.2576 206.436V211.822H85.1337V210.556H83.291V211.265H78.9879V207.124H83.291V207.833H85.1337V206.436H86.2576ZM80.051 213.827C80.0409 212.713 81.2305 212.06 83.1594 212.065C85.0983 212.06 86.2829 212.713 86.288 213.827C86.2829 214.941 85.0983 215.579 83.1594 215.579C81.2305 215.579 80.0409 214.941 80.051 213.827ZM80.1117 210.364H82.1772V208.015H80.1117V210.364ZM81.1647 213.827C81.1597 214.394 81.8887 214.708 83.1594 214.708C84.4402 214.708 85.1641 214.394 85.1641 213.827C85.1641 213.235 84.4402 212.931 83.1594 212.926C81.8887 212.931 81.1597 213.235 81.1647 213.827ZM83.291 209.645H85.1337V208.724H83.291V209.645Z" fill="#131214"/>
<rect x="60.692" y="228.787" width="221.616" height="30.456" rx="4.86" stroke="#131214" stroke-width="0.648"/>
<path d="M78.431 244.448V245.218H72.113V240.368H78.3398V241.148H73.085V242.373H78.1475V243.132H73.085V244.448H78.431ZM71.0701 247.547V246.757H79.3726V247.547H71.0701ZM87.7662 239.629V245.279H86.855V242.788H85.7412V245.208H84.8401V239.791H85.7412V241.998H86.855V239.629H87.7662ZM80.4155 241.036V240.267H83.858V242.879H81.3672V244.074C82.4911 244.064 83.3466 244.013 84.344 243.81L84.4452 244.6C83.3011 244.808 82.3595 244.843 81.0331 244.843H80.4357V242.16H82.9366V241.036H80.4155ZM81.6001 246.494V245.714H87.7662V248.691H86.8145V246.494H81.6001ZM93.6185 240.54C93.6134 243.213 92.7426 245.592 89.5178 247.233L88.9812 246.504C90.5708 245.694 91.553 244.717 92.1048 243.562L89.1635 243.841L89.0116 243.011L92.3984 242.798C92.5401 242.332 92.6262 241.836 92.6616 241.32H89.4773V240.54H93.6185ZM93.5982 244.003V243.213H95.5928V239.619H96.5446V248.691H95.5928V244.003H93.5982ZM105.222 239.862V240.439C105.222 241.082 105.222 241.922 105.019 243.021L104.067 242.96C104.138 242.58 104.184 242.241 104.214 241.932L98.8126 242.19L98.6911 241.421L104.26 241.269C104.265 241.031 104.27 240.819 104.27 240.621H98.924V239.862H105.222ZM97.9621 244.256V243.497H101.232V242.474H102.204V243.497H106.214V244.256H97.9621ZM98.9442 245.663V244.924H105.181V247.081H99.896V247.81H105.434V248.549H98.9543V246.382H104.229V245.663H98.9442ZM114.446 239.619V248.711H113.484V239.619H114.446ZM107.419 241.218V240.439H111.671V243.75H108.411V245.734C109.884 245.729 111.165 245.658 112.684 245.41L112.775 246.2C111.17 246.468 109.803 246.529 108.198 246.534H107.429V242.98H110.689V241.218H107.419ZM120.227 239.467V248.863H119.255V239.467H120.227Z" fill="#131214"/>
<path d="M68.2959 276.422V285.575H67.172V276.422H68.2959ZM60.7122 283.034C61.4412 283.029 62.2664 283.029 63.1321 283.003V282.163C62.1044 282.001 61.4311 281.373 61.4311 280.502C61.4311 279.47 62.3474 278.786 63.6789 278.781C65.0255 278.786 65.957 279.47 65.957 280.502C65.957 281.368 65.2837 281.991 64.256 282.158V282.963C65.0609 282.927 65.8709 282.861 66.6354 282.76L66.7164 283.601C64.7065 283.94 62.5195 283.965 60.8742 283.965L60.7122 283.034ZM60.9046 278.366V277.475H63.1321V276.452H64.256V277.475H66.4734V278.366H60.9046ZM62.5044 280.502C62.4942 281.029 62.9853 281.338 63.6789 281.333C64.3927 281.338 64.8787 281.029 64.8736 280.502C64.8787 279.971 64.3927 279.647 63.6789 279.642C62.9853 279.647 62.4942 279.971 62.5044 280.502ZM72.9027 278.619C72.8926 280.254 73.7127 281.905 75.1302 282.588L74.4417 283.489C73.4495 282.988 72.7357 282.021 72.3459 280.857C71.9459 282.102 71.1967 283.135 70.1487 283.661L69.4602 282.76C70.9334 282.062 71.7738 280.31 71.7789 278.619V277.161H72.9027V278.619ZM75.677 285.575V276.422H76.8009V280.006H78.2082V280.968H76.8009V285.575H75.677ZM89.4166 283.53V284.441H81.0534V283.53H84.6376V281.414H85.7514V283.53H89.4166ZM81.2964 280.705C83.21 280.396 84.5819 279.024 84.587 277.647V276.979H85.7817V277.647C85.7817 279.029 87.1638 280.396 89.0926 280.705L88.6066 281.636C87.0625 281.343 85.7919 280.457 85.1844 279.257C84.5819 280.452 83.3264 281.348 81.7824 281.636L81.2964 280.705ZM97.871 276.422V285.575H96.7876V280.877H95.8055V285.15H94.7525V276.665H95.8055V279.966H96.7876V276.422H97.871ZM89.9431 282.882C91.8922 281.758 92.7174 280.31 92.8794 278.477H90.3684V277.576H93.9729C93.9729 280.052 93.1932 282.178 90.5911 283.661L89.9431 282.882Z" fill="#131214"/>
<path d="M103.916 281.464H103.227L103.288 279.895L101.951 280.735L101.607 280.138L103.004 279.409L101.607 278.67L101.951 278.072L103.288 278.913L103.227 277.343H103.916L103.855 278.913L105.191 278.072L105.536 278.67L104.148 279.409L105.536 280.138L105.191 280.735L103.855 279.895L103.916 281.464Z" fill="#FF5226"/>
<rect x="60.692" y="300.07" width="221.616" height="92.664" rx="4.86" stroke="#E6E9EB" stroke-width="0.648"/>
<path d="M79.3118 315.215V315.883H71.1005V315.215H79.3118ZM72.0927 318.293C72.0876 317.26 73.2571 316.673 75.2011 316.673C77.1299 316.673 78.2892 317.26 78.2993 318.293C78.2892 319.336 77.1299 319.913 75.2011 319.913C73.2571 319.913 72.0876 319.336 72.0927 318.293ZM72.1433 314.355V311.297H78.2892V311.965H72.923V313.707H78.35V314.355H72.1433ZM72.9027 318.293C72.8926 318.926 73.7583 319.285 75.2011 319.285C76.6287 319.285 77.4944 318.926 77.4995 318.293C77.4944 317.665 76.6287 317.301 75.2011 317.291C73.7583 317.301 72.8926 317.665 72.9027 318.293ZM88.2927 315.894V316.552H80.051V315.894H83.777V314.942H81.1242V312.745H86.4297V311.813H81.0938V311.165H87.2296V313.342H81.914V314.304H87.422V314.942H84.5566V315.894H88.2927ZM80.9723 317.888V317.24H87.2802V319.852H86.4803V317.888H80.9723ZM96.0586 310.902V313.089H97.4255V313.747H96.0586V315.883H95.2688V310.902H96.0586ZM89.042 312.39V311.752H91.3302V310.841H92.12V311.752H94.4082V312.39H89.042ZM89.5583 314.274C89.5533 313.362 90.4139 312.8 91.7251 312.795C93.0312 312.8 93.8817 313.362 93.8918 314.274C93.8817 315.19 93.0312 315.747 91.7251 315.752C90.4139 315.747 89.5533 315.19 89.5583 314.274ZM90.3177 316.947V316.349H96.0586V318.344H91.1176V319.225H96.3927V319.832H90.338V317.757H95.2688V316.947H90.3177ZM90.3177 314.274C90.3126 314.815 90.8695 315.154 91.7251 315.154C92.5756 315.154 93.1325 314.815 93.1426 314.274C93.1325 313.737 92.5756 313.388 91.7251 313.383C90.8695 313.388 90.3126 313.737 90.3177 314.274ZM107.966 310.932V319.933H107.176V310.932H107.966ZM100.635 317.534C101.405 317.529 102.285 317.524 103.197 317.493V316.511C102.113 316.4 101.415 315.782 101.425 314.881C101.415 313.863 102.28 313.205 103.581 313.21C104.883 313.205 105.763 313.863 105.758 314.881C105.763 315.772 105.065 316.39 103.997 316.511V317.463C104.867 317.422 105.748 317.362 106.578 317.25L106.639 317.858C104.629 318.182 102.427 318.212 100.757 318.212L100.635 317.534ZM100.827 312.694V312.046H103.197V310.942H103.997V312.046H106.346V312.694H100.827ZM102.164 314.881C102.159 315.504 102.746 315.914 103.581 315.904C104.422 315.914 105.004 315.504 104.999 314.881C105.004 314.253 104.422 313.828 103.581 313.828C102.746 313.828 102.159 314.253 102.164 314.881ZM112.562 313.352C112.562 314.937 113.61 316.572 114.891 317.2L114.405 317.838C113.413 317.321 112.583 316.253 112.183 315.003C111.783 316.329 110.932 317.468 109.92 318.01L109.413 317.372C110.73 316.724 111.773 314.997 111.783 313.352V311.712H112.562V313.352ZM115.721 319.933V310.932H116.511V314.587H118.02V315.276H116.511V319.933H115.721ZM126.221 310.932V319.933H125.451V310.932H126.221ZM118.617 314.82C118.622 312.907 119.382 311.697 120.551 311.692C121.644 311.697 122.384 312.75 122.485 314.446H123.649V311.125H124.409V319.478H123.649V315.104H122.49C122.414 316.855 121.66 317.954 120.551 317.949C119.382 317.954 118.622 316.734 118.617 314.82ZM119.366 314.82C119.356 316.278 119.822 317.2 120.551 317.19C121.285 317.2 121.751 316.278 121.746 314.82C121.751 313.357 121.285 312.441 120.551 312.441C119.822 312.441 119.356 313.357 119.366 314.82ZM137.763 310.932V319.933H137.004V315.215H135.678V319.468H134.949V311.135H135.678V314.557H137.004V310.932H137.763ZM130.403 317.706V312.036H133.774V312.694H131.192V317.028C132.433 317.022 133.288 316.977 134.291 316.774L134.361 317.443C133.278 317.665 132.362 317.701 130.98 317.706H130.403ZM146.066 310.942V313.909H147.423V314.577H146.066V317.686H145.276V310.942H146.066ZM139.049 312.694V312.046H141.338V310.942H142.127V312.046H144.416V312.694H139.049ZM139.566 314.871C139.561 313.848 140.431 313.19 141.732 313.19C143.018 313.19 143.889 313.848 143.899 314.871C143.889 315.883 143.018 316.536 141.732 316.531C140.431 316.536 139.561 315.883 139.566 314.871ZM140.325 314.871C140.32 315.504 140.882 315.914 141.732 315.904C142.573 315.914 143.14 315.504 143.15 314.871C143.14 314.228 142.573 313.813 141.732 313.818C140.882 313.813 140.32 314.228 140.325 314.871ZM140.436 319.741V317.149H141.216V319.073H146.481V319.741H140.436ZM158.834 318.101V318.759H150.592V318.101H154.277V315.894H155.057V318.101H158.834ZM150.916 315.337C152.49 315.068 154.242 313.752 154.247 312.238V311.55H155.077V312.238C155.082 313.742 156.859 315.068 158.429 315.337L158.074 315.995C156.702 315.711 155.254 314.785 154.672 313.489C154.08 314.78 152.647 315.711 151.27 315.995L150.916 315.337ZM167.237 310.932V319.933H166.458V315.225H165.212V319.488H164.453V311.175H165.212V314.567H166.458V310.932H167.237ZM159.563 317.443C161.653 316.273 162.514 314.628 162.651 312.765H159.907V312.107H163.43C163.42 314.395 162.615 316.557 160.028 318L159.563 317.443ZM175.671 311.327V311.904C175.671 312.512 175.671 313.291 175.469 314.304H176.755V314.942H168.513V314.304H174.669C174.877 313.302 174.887 312.567 174.882 311.975H169.556V311.327H175.671ZM169.495 316.491V315.853H175.702V318.121H170.305V319.184H175.935V319.832H169.505V317.493H174.912V316.491H169.495ZM181.574 311.094C183.574 311.094 184.749 311.646 184.754 312.643C184.749 313.666 183.574 314.218 181.574 314.223C179.565 314.218 178.385 313.666 178.385 312.643C178.385 311.646 179.565 311.094 181.574 311.094ZM177.474 315.478V314.83H185.675V315.478H177.474ZM178.466 316.866V316.258H184.622V318.273H179.276V319.204H184.895V319.832H178.486V317.686H183.842V316.866H178.466ZM179.215 312.643C179.205 313.271 180.081 313.615 181.574 313.615C183.068 313.615 183.939 313.271 183.944 312.643C183.939 312.051 183.068 311.697 181.574 311.692C180.081 311.697 179.205 312.051 179.215 312.643ZM192.084 312.603C192.089 313.803 192.97 314.896 194.301 315.357L193.896 315.975C192.869 315.61 192.084 314.876 191.699 313.944C191.315 314.967 190.489 315.762 189.431 316.147L189.006 315.529C190.353 315.053 191.294 313.894 191.304 312.603V312.218H189.249V311.57H194.109V312.218H192.084V312.603ZM190.181 317.483V316.835H196.073V319.933H195.284V317.483H190.181ZM195.284 316.359V310.932H196.073V313.312H197.43V313.99H196.073V316.359H195.284ZM201.095 312.35C201.085 313.636 202.002 314.765 203.323 315.215L202.877 315.833C201.885 315.463 201.105 314.729 200.716 313.782C200.331 314.861 199.511 315.696 198.422 316.106L197.987 315.458C199.374 314.972 200.295 313.777 200.306 312.38V311.449H201.095V312.35ZM199.455 318.232C199.45 317.149 200.599 316.526 202.472 316.531C204.34 316.526 205.49 317.149 205.49 318.232C205.49 319.306 204.34 319.913 202.472 319.913C200.599 319.913 199.45 319.306 199.455 318.232ZM200.245 318.232C200.24 318.885 201.09 319.28 202.472 319.275C203.849 319.28 204.7 318.885 204.7 318.232C204.7 317.559 203.849 317.159 202.472 317.159C201.09 317.159 200.24 317.559 200.245 318.232ZM202.655 313.524V312.866H204.659V310.932H205.459V316.268H204.659V313.524H202.655ZM211.453 312.492V313.14H206.937V312.492H208.811V311.206H209.6V312.492H211.453ZM207.261 315.792C207.261 314.598 208.077 313.752 209.195 313.747C210.329 313.752 211.139 314.598 211.149 315.792C211.139 317.002 210.329 317.853 209.195 317.858C208.077 317.853 207.261 317.002 207.261 315.792ZM207.97 315.792C207.97 316.592 208.482 317.164 209.195 317.159C209.914 317.164 210.441 316.592 210.441 315.792C210.441 315.003 209.914 314.425 209.195 314.415C208.482 314.425 207.97 315.003 207.97 315.792ZM211.919 319.488V311.155H212.668V314.729H213.863V310.932H214.622V319.933H213.863V315.387H212.668V319.488H211.919ZM223.067 312.208C223.062 313.413 224.666 314.436 226.236 314.668L225.942 315.296C224.54 315.058 223.168 314.309 222.621 313.226C222.074 314.309 220.702 315.058 219.32 315.296L219.006 314.668C220.571 314.436 222.171 313.413 222.176 312.208V312.147H219.29V311.499H225.942V312.147H223.067V312.208ZM218.52 316.724V316.066H226.722V316.724H222.996V319.933H222.216V316.724H218.52ZM230.154 313.494C230.154 314.927 230.853 316.471 232.047 317.179L231.592 317.797C230.721 317.271 230.098 316.309 229.785 315.21C229.455 316.41 228.787 317.443 227.886 317.989L227.38 317.392C228.625 316.663 229.385 315.068 229.385 313.524V311.783H230.154V313.494ZM231.055 314.841V314.162H232.584V311.125H233.333V319.478H232.584V314.841H231.055ZM234.427 319.933V310.932H235.196V319.933H234.427ZM244.683 318.111V318.779H236.442V318.111H238.487V315.686C237.717 315.286 237.252 314.638 237.252 313.818C237.252 312.426 238.619 311.509 240.542 311.499C242.466 311.509 243.833 312.426 243.833 313.818C243.833 314.623 243.382 315.261 242.638 315.661V318.111H244.683ZM238.021 313.818C238.016 314.825 239.064 315.499 240.542 315.499C242.005 315.499 243.063 314.825 243.063 313.818C243.063 312.81 242.005 312.147 240.542 312.157C239.064 312.147 238.016 312.81 238.021 313.818ZM239.267 318.111H241.838V315.969C241.449 316.071 241.013 316.126 240.542 316.126C240.082 316.126 239.651 316.076 239.267 315.975V318.111ZM246.354 319.174C246 319.169 245.696 318.875 245.706 318.516C245.696 318.162 246 317.868 246.354 317.868C246.714 317.868 247.007 318.162 247.002 318.516C247.007 318.875 246.714 319.169 246.354 319.174Z" fill="#898D8F"/>
<rect width="243" height="34.992" transform="translate(50 52)" fill="white"/>
<path d="M85.9999 66.4924C87.5221 66.5032 89.039 67.4122 89.0443 70.2577C89.0443 72.9417 87.8287 74.4962 85.9138 74.4962C84.4131 74.4962 83.375 73.5603 83.2028 72.2694H84.5906C84.7305 72.888 85.2092 73.2806 85.9138 73.2806C87.0434 73.2806 87.6781 72.2855 87.6889 70.6127H87.6028C87.2101 71.2904 86.4571 71.6938 85.6018 71.6885C84.2087 71.6938 83.1329 70.6342 83.1275 69.1604C83.1275 67.6381 84.2732 66.4817 85.9999 66.4924ZM84.4938 69.1281C84.4938 69.9672 85.1177 70.6234 85.9891 70.6234C86.8551 70.6234 87.5221 69.9242 87.5167 69.1173C87.5167 68.3266 86.882 67.6274 86.0106 67.622C85.1339 67.6274 84.483 68.2944 84.4938 69.1281ZM91.0668 73.4205C90.6042 73.4205 90.2223 73.0439 90.2277 72.5814C90.2223 72.1295 90.6042 71.7584 91.0668 71.753C91.5133 71.7584 91.8952 72.1295 91.8952 72.5814C91.8952 73.0439 91.5133 73.4205 91.0668 73.4205ZM90.2277 68.4073C90.2223 67.9555 90.6042 67.5844 91.0668 67.579C91.5133 67.5844 91.8952 67.9555 91.8952 68.4073C91.8952 68.8699 91.5133 69.2464 91.0668 69.2464C90.6042 69.2464 90.2223 68.8699 90.2277 68.4073ZM93.0678 72.9364V71.8176L96.435 66.6H98.1777V71.7853H99.1997V72.9364H98.1777V74.3887H96.8438V72.9364H93.0678ZM94.4986 71.7853H96.8653V68.1922H96.7792L94.4986 71.7315V71.7853ZM103.374 66.6V74.3887H101.964V67.9663H101.921L100.103 69.1281V67.8479L102.029 66.6H103.374Z" fill="#131214"/>
<rect opacity="0.35" x="256.994" y="66.7322" width="15.552" height="7.776" rx="2.4624" stroke="#131214" stroke-width="0.648"/>
<path opacity="0.4" d="M273.518 69.5059V72.1468C274.039 71.9231 274.379 71.4028 274.379 70.8263C274.379 70.2498 274.039 69.7295 273.518 69.5059Z" fill="#131214"/>
<rect x="257.966" y="67.7051" width="13.608" height="5.832" rx="1.62" fill="#131214"/>
<path fill-rule="evenodd" clip-rule="evenodd" d="M246.477 68.4204C248.089 68.4205 249.639 69.018 250.807 70.0894C250.895 70.1722 251.035 70.1711 251.122 70.0871L251.963 69.2684C252.007 69.2258 252.031 69.168 252.031 69.108C252.03 69.0479 252.005 68.9905 251.961 68.9484C248.895 66.1136 244.059 66.1136 240.993 68.9484C240.949 68.9905 240.923 69.0479 240.923 69.1079C240.923 69.168 240.947 69.2257 240.991 69.2684L241.832 70.0871C241.918 70.1713 242.059 70.1723 242.147 70.0894C243.315 69.0179 244.865 68.4204 246.477 68.4204ZM246.475 71.1552C247.355 71.1551 248.203 71.4867 248.855 72.0855C248.943 72.1705 249.082 72.1687 249.168 72.0814L250.002 71.2265C250.046 71.1816 250.07 71.1208 250.07 71.0576C250.069 70.9944 250.043 70.9341 249.999 70.8901C248.013 69.0169 244.939 69.0169 242.953 70.8901C242.908 70.9341 242.883 70.9944 242.882 71.0576C242.882 71.1209 242.906 71.1817 242.95 71.2265L243.784 72.0814C243.87 72.1687 244.009 72.1705 244.097 72.0855C244.749 71.4871 245.596 71.1555 246.475 71.1552ZM248.111 72.9654C248.112 73.0336 248.088 73.0995 248.045 73.1473L246.634 74.738C246.593 74.7847 246.536 74.811 246.477 74.811C246.419 74.811 246.362 74.7847 246.321 74.738L244.91 73.1473C244.867 73.0994 244.843 73.0336 244.844 72.9653C244.845 72.8971 244.872 72.8324 244.917 72.7866C245.818 71.9352 247.137 71.9352 248.038 72.7866C248.083 72.8324 248.11 72.8971 248.111 72.9654Z" fill="#131214"/>
<path fill-rule="evenodd" clip-rule="evenodd" d="M236.064 67.4967C236.064 67.0864 235.754 66.7539 235.372 66.7539H234.681C234.299 66.7539 233.99 67.0864 233.99 67.4967V73.9339C233.99 74.3441 234.299 74.6766 234.681 74.6766H235.372C235.754 74.6766 236.064 74.3441 236.064 73.9339V67.4967ZM231.246 68.3384H231.937C232.319 68.3384 232.629 68.679 232.629 69.099V73.916C232.629 74.3361 232.319 74.6766 231.937 74.6766H231.246C230.865 74.6766 230.555 74.3361 230.555 73.916V69.099C230.555 68.679 230.865 68.3384 231.246 68.3384ZM228.439 70.055H227.748C227.366 70.055 227.057 70.3999 227.057 70.8253V73.9064C227.057 74.3318 227.366 74.6766 227.748 74.6766H228.439C228.821 74.6766 229.13 74.3318 229.13 73.9064V70.8253C229.13 70.3999 228.821 70.055 228.439 70.055ZM225.004 71.6396H224.313C223.931 71.6396 223.622 71.9795 223.622 72.3988V73.9174C223.622 74.3367 223.931 74.6766 224.313 74.6766H225.004C225.386 74.6766 225.696 74.3367 225.696 73.9174V72.3988C225.696 71.9795 225.386 71.6396 225.004 71.6396Z" fill="#131214"/>
<rect width="243" height="41.472" transform="translate(50 86.9922)" fill="white"/>
<path d="M124.537 112.514H122.777L126.005 103.351H128.03L131.27 112.514H129.51L128.745 110.248H125.296L124.537 112.514ZM125.739 108.919H128.302L127.055 105.224H126.979L125.739 108.919ZM134.624 112.64C133.01 112.634 131.789 111.343 131.789 109.084C131.789 106.793 133.042 105.553 134.636 105.553C135.845 105.553 136.351 106.28 136.598 106.768H136.661V103.351H138.269V112.514H136.687V111.425H136.598C136.338 111.931 135.813 112.634 134.624 112.64ZM133.434 109.071C133.434 110.368 134.003 111.311 135.067 111.311C136.111 111.311 136.699 110.413 136.699 109.071C136.699 107.736 136.117 106.875 135.067 106.869C133.991 106.875 133.434 107.793 133.434 109.071ZM139.901 112.514V105.641H141.445V106.806H141.534C141.819 106.021 142.508 105.553 143.42 105.553C144.35 105.553 145.021 106.027 145.28 106.806H145.356C145.653 106.046 146.419 105.553 147.419 105.553C148.678 105.553 149.564 106.363 149.558 107.894V112.514H147.951V108.147C147.951 107.293 147.432 106.907 146.774 106.907C145.983 106.907 145.521 107.445 145.521 108.223V112.514H143.951V108.084C143.945 107.369 143.477 106.907 142.787 106.907C142.091 106.907 141.521 107.483 141.521 108.337V112.514H139.901ZM151.102 112.514V105.641H152.722V112.514H151.102ZM150.988 103.781C150.988 103.3 151.412 102.908 151.925 102.908C152.437 102.908 152.861 103.3 152.861 103.781C152.861 104.268 152.437 104.66 151.925 104.667C151.412 104.66 150.988 104.268 150.988 103.781ZM155.886 108.489V112.514H154.266V105.641H155.81V106.806H155.899C156.209 106.04 156.911 105.553 157.936 105.553C159.36 105.553 160.297 106.489 160.29 108.135V112.514H158.683V108.388C158.683 107.464 158.183 106.913 157.342 106.92C156.487 106.913 155.886 107.489 155.886 108.489ZM171.162 106.439C170.966 105.338 170.086 104.705 168.973 104.705C167.473 104.705 166.41 105.856 166.416 107.932C166.41 110.039 167.479 111.159 168.973 111.159C170.061 111.159 170.941 110.552 171.162 109.476H172.82C172.567 111.235 171.118 112.64 168.947 112.64C166.53 112.64 164.752 110.887 164.758 107.932C164.752 104.971 166.549 103.224 168.947 103.224C170.972 103.224 172.535 104.401 172.82 106.439H171.162ZM173.845 110.577C173.845 109.033 175.13 108.584 176.402 108.502C176.883 108.464 177.864 108.419 178.167 108.407L178.161 107.856C178.161 107.173 177.724 106.78 176.921 106.78C176.199 106.78 175.756 107.109 175.63 107.603H174.073C174.187 106.432 175.237 105.553 176.959 105.553C178.262 105.553 179.768 106.091 179.768 107.919V112.514H178.224V111.564H178.174C177.87 112.147 177.231 112.653 176.149 112.653C174.839 112.653 173.845 111.938 173.845 110.577ZM175.402 110.565C175.402 111.159 175.889 111.463 176.566 111.463C177.547 111.463 178.174 110.818 178.174 110.046L178.167 109.482C177.876 109.495 176.978 109.552 176.655 109.577C175.889 109.641 175.402 109.963 175.402 110.565ZM181.287 112.514V105.641H182.857V106.78H182.932C183.179 105.989 183.837 105.54 184.628 105.54C184.806 105.54 185.059 105.559 185.211 105.578V107.071C185.065 107.021 184.73 106.977 184.464 106.97C183.565 106.977 182.907 107.597 182.907 108.464V112.514H181.287ZM188.501 112.64C186.888 112.634 185.666 111.343 185.666 109.084C185.666 106.793 186.919 105.553 188.514 105.553C189.723 105.553 190.229 106.28 190.476 106.768H190.539V103.351H192.146V112.514H190.564V111.425H190.476C190.216 111.931 189.691 112.634 188.501 112.64ZM187.312 109.071C187.312 110.368 187.881 111.311 188.944 111.311C189.988 111.311 190.577 110.413 190.577 109.071C190.577 107.736 189.995 106.875 188.944 106.869C187.868 106.875 187.312 107.793 187.312 109.071ZM206.891 109.071V110.223H202.36V113.653H200.968V110.223H196.462V109.071H206.891ZM197.032 107.261C199.316 106.983 200.816 105.812 200.955 104.667H197.424V103.553H200.968V102.211H202.36V103.553H205.916V104.667H202.385C202.518 105.8 204.011 106.983 206.296 107.261L205.777 108.375C203.885 108.135 202.417 107.306 201.676 106.205C200.93 107.318 199.443 108.135 197.538 108.375L197.032 107.261ZM216.623 102.199V106.666H218.319V107.844H216.623V113.615H215.219V102.199H216.623ZM207.599 110.489C210.384 109.096 211.89 107.16 212.168 104.553H208.22V103.389H213.599C213.592 106.749 212.2 109.704 208.397 111.577L207.599 110.489Z" fill="#131214"/>
<path d="M68.792 113.177L63.8798 108.604C63.5174 108.266 63.5174 107.719 63.8798 107.382L68.792 102.809" stroke="#131214" stroke-width="0.972" stroke-linecap="round"/>
</g>
<rect x="48.5" y="50.5" width="246" height="529.176" rx="27.5" stroke="#0C0C0C" stroke-width="3"/>
</g>
<defs>
<clipPath id="clip0_5308_17151">
<rect width="343" height="343" rx="24" fill="white"/>
</clipPath>
<clipPath id="clip1_5308_17151">
<rect x="50" y="52" width="243" height="526.176" rx="26" fill="white"/>
</clipPath>
</defs>
</svg>
