<svg width="343" height="343" viewBox="0 0 343 343" fill="none" xmlns="http://www.w3.org/2000/svg">
<g clip-path="url(#clip0_5339_15243)">
<rect width="343" height="343" rx="24" fill="#F7F7FB"/>
<g clip-path="url(#clip1_5339_15243)">
<rect x="59" y="57" width="225" height="487.2" rx="26" fill="white"/>
<rect x="59" y="114" width="225" height="8.4" fill="#70737C" fill-opacity="0.08"/>
<rect x="68.6001" y="0.199219" width="205.8" height="95.4" rx="9.6" fill="#F4F6F7"/>
<path d="M113.717 48.8047V54.1449H112.938V48.8047H113.717ZM107.77 51.118C107.774 50.0557 108.619 49.301 109.731 49.2969C110.838 49.301 111.683 50.0557 111.683 51.118C111.683 52.1967 110.838 52.9473 109.731 52.9473C108.619 52.9473 107.774 52.1967 107.77 51.118ZM108.533 51.118C108.529 51.8111 109.046 52.2664 109.731 52.2664C110.403 52.2664 110.92 51.8111 110.92 51.118C110.92 50.4412 110.403 49.9777 109.731 49.9777C109.046 49.9777 108.529 50.4412 108.533 51.118ZM108.91 55.9906V53.6035H109.698V55.359H113.939V55.9906H108.91ZM117.433 50.6668C117.425 51.967 118.184 53.3 119.279 53.8332L118.795 54.4566C117.995 54.0383 117.376 53.218 117.052 52.2377C116.724 53.2795 116.08 54.1613 115.243 54.5961L114.759 53.9645C115.887 53.423 116.65 52.0121 116.654 50.6668V49.4117H117.433V50.6668ZM119.829 56.1465V48.7965H120.608V51.725H121.789V52.3895H120.608V56.1465H119.829ZM126.26 49.3297V49.9613H125.554V52.1844C125.866 52.1598 126.166 52.1311 126.457 52.0941L126.49 52.6848C125.075 52.9062 123.426 52.9309 122.249 52.9309L122.15 52.2828C122.425 52.2828 122.728 52.2828 123.044 52.2787V49.9613H122.355V49.3297H126.26ZM123.323 54.8012C123.319 53.9439 124.254 53.4559 125.809 53.4559C127.359 53.4559 128.29 53.9439 128.294 54.8012C128.29 55.642 127.359 56.1342 125.809 56.1301C124.254 56.1342 123.319 55.642 123.323 54.8012ZM123.799 52.2664C124.131 52.2582 124.467 52.2459 124.808 52.2295V49.9613H123.799V52.2664ZM124.094 54.8012C124.09 55.2646 124.722 55.5271 125.809 55.5313C126.887 55.5271 127.519 55.2646 127.523 54.8012C127.519 54.3254 126.887 54.0588 125.809 54.0629C124.722 54.0588 124.09 54.3254 124.094 54.8012ZM126.366 52.0367V51.4133H127.49V50.6996H126.366V50.0762H127.49V48.7965H128.27V53.3164H127.49V52.0367H126.366ZM135.127 48.7965V51.725H136.268V52.373H135.127V56.1383H134.348V48.7965H135.127ZM129.41 54.1777C131.251 53.259 132.252 51.9301 132.412 50.2156H129.779V49.5676H133.208C133.2 51.6922 132.265 53.5912 129.845 54.7848L129.41 54.1777ZM141.28 50.1172C141.276 51.0564 141.928 51.9465 143.052 52.3238L142.658 52.9309C141.825 52.6437 141.214 52.0695 140.894 51.3477C140.574 52.1393 139.934 52.7668 139.073 53.0703L138.655 52.4633C139.803 52.0736 140.496 51.1221 140.5 50.109V49.9121H138.884V49.2805H142.863V49.9121H141.28V50.1172ZM139.631 54.2187V53.5871H144.487V56.1465H143.708V54.2187H139.631ZM143.708 53.2262V48.7965H144.487V50.6832H145.554V51.3395H144.487V53.2262H143.708ZM148.581 49.8957C148.576 50.9252 149.245 51.8439 150.361 52.209L149.934 52.816C149.126 52.5207 148.531 51.9547 148.211 51.2164C147.896 52.0572 147.256 52.7176 146.366 53.0375L145.947 52.4141C147.12 52.0121 147.801 51.0318 147.809 49.9285V49.2066H148.581V49.8957ZM147.153 54.7437C147.149 53.8537 148.092 53.3369 149.639 53.341C151.177 53.3369 152.12 53.8537 152.124 54.7437C152.12 55.6297 151.177 56.1342 149.639 56.1301C148.092 56.1342 147.149 55.6297 147.153 54.7437ZM147.924 54.7437C147.92 55.2318 148.56 55.5189 149.639 55.5148C150.709 55.5189 151.349 55.2318 151.353 54.7437C151.349 54.2393 150.709 53.948 149.639 53.948C148.56 53.948 147.92 54.2393 147.924 54.7437ZM149.77 50.9293V50.2895H151.32V48.7965H152.1V53.1359H151.32V50.9293H149.77ZM159.934 52.6355V53.259H153.232V52.6355H159.934ZM153.954 50.5109C153.95 49.5881 154.979 49.0385 156.579 49.0426C158.17 49.0385 159.2 49.5881 159.204 50.5109C159.2 51.4379 158.17 51.9998 156.579 52.0039C154.979 51.9998 153.95 51.4379 153.954 50.5109ZM154.077 55.9906V53.8578H154.864V55.359H159.179V55.9906H154.077ZM154.758 50.5109C154.753 51.0564 155.451 51.3641 156.579 51.3641C157.702 51.3641 158.404 51.0564 158.4 50.5109C158.404 49.9859 157.702 49.666 156.579 49.666C155.451 49.666 154.753 49.9859 154.758 50.5109ZM162.879 55.4492V49.5102H164.995C166.377 49.5102 167.054 50.3387 167.054 51.4379C167.054 52.533 166.373 53.3656 164.995 53.3656H163.781V55.4492H162.879ZM163.781 52.5945H164.905C165.778 52.5986 166.143 52.1064 166.143 51.4379C166.143 50.7652 165.778 50.2854 164.905 50.2812H163.781V52.5945ZM172.025 51.4461C171.882 50.6791 171.246 50.2525 170.491 50.2566C169.466 50.2525 168.707 51.04 168.703 52.4797C168.707 53.9275 169.47 54.7068 170.491 54.7027C171.238 54.7068 171.869 54.2885 172.025 53.5297L172.936 53.5379C172.747 54.7109 171.791 55.5313 170.483 55.5313C168.937 55.5313 167.809 54.3787 167.809 52.4797C167.809 50.5807 168.945 49.4281 170.483 49.4281C171.738 49.4281 172.735 50.1705 172.936 51.4461H172.025ZM179.9 48.7965V56.1465H179.154V48.7965H179.9ZM173.658 51.9711C173.658 50.3797 174.281 49.383 175.241 49.3871C176.135 49.383 176.738 50.232 176.828 51.6102H177.661V48.9359H178.407V55.7855H177.661V52.2418H176.832C176.762 53.6773 176.151 54.5674 175.241 54.5633C174.281 54.5674 173.658 53.5666 173.658 51.9711ZM174.379 51.9711C174.379 53.14 174.712 53.8291 175.241 53.825C175.782 53.8291 176.118 53.14 176.118 51.9711C176.118 50.798 175.782 50.1131 175.241 50.1172C174.712 50.1131 174.379 50.798 174.379 51.9711ZM183.485 50.6668C183.485 52.0121 184.24 53.3533 185.363 53.8578L184.888 54.4812C184.055 54.0629 183.423 53.2344 183.099 52.2295C182.775 53.2877 182.135 54.1818 181.286 54.6207L180.794 53.9891C181.934 53.4436 182.693 52.0285 182.697 50.6668V49.4117H183.485V50.6668ZM184.551 51.8727V51.241H186.192V48.7965H186.963V56.1629H186.192V51.8727H184.551ZM191.819 49.4445V52.8734H188.382V49.4445H191.819ZM189.145 52.2582H191.056V50.0762H189.145V52.2582ZM189.211 55.9906V53.6609H189.99V55.359H194.182V55.9906H189.211ZM193.091 54.1777V48.7883H193.87V50.9867H194.936V51.643H193.87V54.1777H193.091ZM203.131 48.7965V51.725H204.272V52.373H203.131V56.1383H202.352V48.7965H203.131ZM197.414 54.1777C199.255 53.259 200.256 51.9301 200.416 50.2156H197.783V49.5676H201.212C201.204 51.6922 200.268 53.5912 197.849 54.7848L197.414 54.1777ZM210.604 50.7816V51.4133H205.559V48.9277H206.331V50.7816H210.604ZM204.665 52.8324V52.1926H211.375V52.8324H204.665ZM205.461 54.7684C205.461 53.9111 206.417 53.4271 208.012 53.4312C209.595 53.4271 210.543 53.9111 210.547 54.7684C210.543 55.6297 209.595 56.1137 208.012 56.1137C206.417 56.1137 205.461 55.6297 205.461 54.7684ZM206.249 54.7684C206.244 55.24 206.888 55.5107 208.012 55.5148C209.12 55.5107 209.768 55.24 209.768 54.7684C209.768 54.2926 209.12 54.0424 208.012 54.0383C206.888 54.0424 206.244 54.2926 206.249 54.7684ZM217.7 48.7965V50.6422H218.766V51.2984H217.7V53.0785H216.921V48.7965H217.7ZM211.933 50.1418V49.5184H213.738V48.7309H214.517V49.5184H216.314V50.1418H211.933ZM212.335 51.7332C212.331 50.9498 213.053 50.4412 214.124 50.4453C215.182 50.4412 215.904 50.9498 215.904 51.7332C215.904 52.5166 215.182 53.0293 214.124 53.0211C213.053 53.0293 212.331 52.5166 212.335 51.7332ZM213 56.0563V53.382H213.771V54.0957H216.921V53.382H217.7V56.0563H213ZM213.09 51.7332C213.082 52.1721 213.5 52.4428 214.124 52.4469C214.747 52.4428 215.165 52.1721 215.174 51.7332C215.165 51.3025 214.747 51.0236 214.124 51.0277C213.5 51.0236 213.082 51.3025 213.09 51.7332ZM213.771 55.4328H216.921V54.7027H213.771V55.4328ZM225.288 48.7965V56.1465H224.509V48.7965H225.288ZM219.636 54.2762V49.5102H220.407V53.6035C221.482 53.5994 222.61 53.5051 223.787 53.2672L223.893 53.9234C222.593 54.19 221.412 54.2803 220.251 54.2762H219.636ZM232.17 48.7965V51.643H233.352V52.2828H232.17V56.1629H231.391V48.7965H232.17ZM226.756 54.3336V49.502H230.193V50.1336H227.536V53.6855C228.77 53.6814 229.693 53.6281 230.743 53.4395L230.841 54.0957C229.689 54.3008 228.713 54.3377 227.347 54.3336H226.756ZM234.541 55.5066C234.221 55.5025 233.955 55.2441 233.959 54.9242C233.955 54.6043 234.221 54.3418 234.541 54.3418C234.857 54.3418 235.119 54.6043 235.124 54.9242C235.119 55.2441 234.857 55.5025 234.541 55.5066ZM121.453 67.4492V61.5102H123.569C124.951 61.5102 125.628 62.3387 125.628 63.4379C125.628 64.533 124.947 65.3656 123.569 65.3656H122.355V67.4492H121.453ZM122.355 64.5945H123.479C124.353 64.5986 124.718 64.1064 124.718 63.4379C124.718 62.7652 124.353 62.2854 123.479 62.2812H122.355V64.5945ZM130.599 63.4461C130.456 62.6791 129.82 62.2525 129.065 62.2566C128.04 62.2525 127.281 63.04 127.277 64.4797C127.281 65.9275 128.044 66.7068 129.065 66.7027C129.812 66.7068 130.443 66.2885 130.599 65.5297L131.51 65.5379C131.321 66.7109 130.366 67.5313 129.057 67.5313C127.511 67.5313 126.383 66.3787 126.383 64.4797C126.383 62.5807 127.519 61.4281 129.057 61.4281C130.312 61.4281 131.309 62.1705 131.51 63.4461H130.599ZM138.876 66.6125V67.2687H132.15V66.6125H135.111V65.3246H132.97V62.9867H137.285V61.9531H132.954V61.3133H138.056V63.6102H133.741V64.6848H138.228V65.3246H135.882V66.6125H138.876ZM148.187 66.6125V67.2687H141.46V66.6125H144.422V65.3246H142.281V62.9867H146.595V61.9531H142.264V61.3133H147.367V63.6102H143.052V64.6848H147.539V65.3246H145.193V66.6125H148.187ZM154.544 61.543V62.3305C154.544 63.282 154.544 64.3115 154.274 65.8824L153.478 65.8086C153.773 64.3361 153.773 63.2574 153.773 62.3305V62.1828H149.442V61.543H154.544ZM148.72 67.1047V66.4566H155.422V67.1047H148.72ZM162.075 60.8047V66.1449H161.295V60.8047H162.075ZM156.127 63.118C156.132 62.0557 156.976 61.301 158.088 61.2969C159.195 61.301 160.04 62.0557 160.04 63.118C160.04 64.1967 159.195 64.9473 158.088 64.9473C156.976 64.9473 156.132 64.1967 156.127 63.118ZM156.89 63.118C156.886 63.8111 157.403 64.2664 158.088 64.2664C158.761 64.2664 159.277 63.8111 159.277 63.118C159.277 62.4412 158.761 61.9777 158.088 61.9777C157.403 61.9777 156.886 62.4412 156.89 63.118ZM157.268 67.9906V65.6035H158.055V67.359H162.296V67.9906H157.268ZM171.615 61.6086V62.2484H165.635V61.6086H168.252V60.7637H169.023V61.6086H171.615ZM165.29 66.1941V65.5543H172.017V66.1941H169.023V68.1547H168.252V66.1941H165.29ZM166.193 63.8645C166.189 63.0605 167.107 62.6217 168.637 62.6258C170.163 62.6217 171.082 63.0605 171.082 63.8645C171.082 64.6479 170.163 65.0908 168.637 65.0949C167.107 65.0908 166.189 64.6479 166.193 63.8645ZM166.997 63.8645C166.997 64.2746 167.583 64.5084 168.637 64.5043C169.687 64.5084 170.274 64.2746 170.278 63.8645C170.274 63.442 169.687 63.2082 168.637 63.2082C167.583 63.2082 166.997 63.442 166.997 63.8645ZM177.324 62.3305C177.324 63.282 178.026 64.1762 179.162 64.5371L178.76 65.1441C177.915 64.8652 177.279 64.2869 176.943 63.5527C176.615 64.3525 175.958 64.9842 175.085 65.2918L174.683 64.6766C175.827 64.2869 176.533 63.3354 176.537 62.3305V62.0105H174.888V61.3789H178.94V62.0105H177.324V62.3305ZM175.889 67.9906V65.6609H176.676V67.359H180.917V67.9906H175.889ZM179.917 66.1695V60.8047H180.696V66.1695H179.917ZM188.128 60.7965V65.4312H187.39V63.3805H186.536V65.177H185.806V60.9359H186.536V62.7406H187.39V60.7965H188.128ZM181.82 62.2484V61.6332H183.304V60.8539H184.075V61.6332H185.536V62.2484H181.82ZM182.107 63.8562C182.107 63.0934 182.763 62.593 183.682 62.593C184.621 62.593 185.273 63.0934 185.273 63.8562C185.273 64.6191 184.621 65.1195 183.682 65.1195C182.763 65.1195 182.107 64.6191 182.107 63.8562ZM182.804 63.8562C182.804 64.2746 183.161 64.5494 183.682 64.5535C184.211 64.5494 184.572 64.2746 184.568 63.8562C184.572 63.4379 184.211 63.1631 183.682 63.1672C183.161 63.1631 182.804 63.4379 182.804 63.8562ZM183.181 66.8422C183.173 66.0096 184.108 65.5379 185.667 65.5379C187.23 65.5379 188.165 66.0096 188.169 66.8422C188.165 67.6666 187.23 68.1342 185.667 68.1301C184.108 68.1342 183.173 67.6666 183.181 66.8422ZM183.952 66.8422C183.944 67.2852 184.576 67.5395 185.667 67.5313C186.762 67.5395 187.385 67.2852 187.39 66.8422C187.385 66.3787 186.762 66.1326 185.667 66.1367C184.576 66.1326 183.944 66.3787 183.952 66.8422ZM192.754 62.0105V62.6422H189.104V62.0105H190.548V61.0098H191.319V62.0105H192.754ZM189.342 64.775C189.338 63.7865 190.01 63.0852 190.933 63.0852C191.864 63.0852 192.529 63.7865 192.533 64.775C192.529 65.7799 191.864 66.4854 190.933 66.4812C190.01 66.4854 189.338 65.7799 189.342 64.775ZM190.031 64.775C190.027 65.3984 190.404 65.8168 190.933 65.8168C191.462 65.8168 191.844 65.3984 191.844 64.775C191.844 64.1639 191.462 63.7373 190.933 63.7332C190.404 63.7373 190.027 64.1639 190.031 64.775ZM193.091 67.802V60.9605H193.829V63.8562H194.674V60.7965H195.412V68.1465H194.674V64.4961H193.829V67.802H193.091ZM205.133 64.9391V65.5707H202.147V68.1383H201.384V65.5707H198.431V64.9391H205.133ZM198.808 63.766C200.178 63.5773 201.318 62.7611 201.343 61.8547H199.054V61.2312H204.501V61.8547H202.229C202.241 62.7611 203.373 63.5773 204.764 63.766L204.477 64.3812C203.271 64.1926 202.229 63.5979 201.782 62.7611C201.331 63.5979 200.293 64.1926 199.104 64.3812L198.808 63.766ZM207.93 62.8062C207.93 63.9793 208.422 65.2303 209.407 65.8332L208.972 66.432C208.283 66.0178 207.819 65.2836 207.565 64.4346C207.299 65.3656 206.79 66.1613 206.076 66.5961L205.592 66.0137C206.63 65.3902 207.18 64.09 207.175 62.8391V61.4691H207.93V62.8062ZM208.611 64.0285V63.3805H209.751V60.9359H210.49V67.7855H209.751V64.0285H208.611ZM211.269 68.1465V60.7965H212.015V68.1465H211.269ZM219.677 66.5797V67.2277H212.95V66.5797H214.558V64.6602C213.955 64.3279 213.586 63.8029 213.59 63.1426C213.586 61.9859 214.722 61.2271 216.297 61.223C217.876 61.2271 219.013 61.9859 219.013 63.1426C219.013 63.7906 218.66 64.3115 218.069 64.6437V66.5797H219.677ZM214.345 63.1426C214.345 63.9301 215.145 64.4428 216.297 64.4469C217.442 64.4428 218.254 63.9301 218.258 63.1426C218.254 62.351 217.442 61.8465 216.297 61.8465C215.145 61.8465 214.345 62.351 214.345 63.1426ZM215.329 66.5797H217.282V64.9473C216.982 65.017 216.65 65.0539 216.297 65.0539C215.953 65.0539 215.625 65.017 215.329 64.9473V66.5797ZM221.047 67.5066C220.727 67.5025 220.46 67.2441 220.465 66.9242C220.46 66.6043 220.727 66.3418 221.047 66.3418C221.363 66.3418 221.625 66.6043 221.629 66.9242C221.625 67.2441 221.363 67.5025 221.047 67.5066Z" fill="#8F898C"/>
<path d="M78.6079 148.213V149.279H74.4126V152.455H73.1235V149.279H68.9517V148.213H78.6079ZM69.479 146.537C71.5942 146.279 72.9829 145.195 73.1118 144.135H69.8423V143.104H73.1235V141.861H74.4126V143.104H77.7056V144.135H74.436C74.5591 145.184 75.9419 146.279 78.0571 146.537L77.5767 147.568C75.8247 147.346 74.4653 146.578 73.7798 145.559C73.0884 146.59 71.7114 147.346 69.9478 147.568L69.479 146.537ZM83.1313 144.357C83.1255 145.617 84.0103 146.842 85.686 147.357L85.0532 148.377C83.8521 148.02 82.979 147.252 82.4985 146.279C82.0298 147.328 81.1567 148.154 79.9204 148.553L79.2876 147.533C80.9575 147.012 81.8306 145.717 81.8306 144.357V144.193H79.6157V143.162H81.8306V141.92H83.1431V143.162H85.3462V144.193H83.1313V144.357ZM81.2446 152.232V149.045H82.5454V151.178H88.4634V152.232H81.2446ZM84.9946 146.057V145.014H86.8931V141.861H88.1938V149.725H86.8931V146.057H84.9946ZM93.6079 144.393C93.6021 146.361 94.5454 148.295 96.2329 149.033L95.4478 150.076C94.2524 149.49 93.4087 148.365 92.9575 146.977C92.4946 148.441 91.6274 149.66 90.4087 150.275L89.5884 149.221C91.3169 148.412 92.2778 146.373 92.2837 144.393V142.705H93.6079V144.393ZM95.061 146.326V145.271H97.2876V141.85H98.5767V152.455H97.2876V146.326H95.061ZM106.709 143.689C106.709 144.996 107.547 146.279 109.217 146.83L108.561 147.838C107.372 147.439 106.534 146.648 106.071 145.658C105.602 146.742 104.723 147.604 103.487 148.025L102.795 147.018C104.5 146.449 105.397 145.078 105.397 143.689V143.561H103.159V142.518H108.913V143.561H106.709V143.689ZM104.213 149.771V148.729H111.268V152.443H109.967V149.771H104.213ZM109.967 148.236V141.85H111.268V144.498H112.745V145.588H111.268V148.236H109.967ZM117.163 143.373C117.157 144.814 118 146.133 119.659 146.654L118.956 147.674C117.801 147.264 116.993 146.49 116.542 145.488C116.073 146.643 115.188 147.551 113.905 148.002L113.213 146.947C114.965 146.373 115.844 144.961 115.85 143.432V142.424H117.163V143.373ZM114.971 150.404C114.959 149.115 116.336 148.359 118.569 148.365C120.813 148.359 122.184 149.115 122.19 150.404C122.184 151.693 120.813 152.432 118.569 152.432C116.336 152.432 114.959 151.693 114.971 150.404ZM116.26 150.404C116.254 151.049 117.098 151.406 118.569 151.412C120.051 151.406 120.889 151.049 120.889 150.404C120.889 149.736 120.051 149.379 118.569 149.373C117.098 149.379 116.254 149.736 116.26 150.404ZM118.745 144.967V143.9H120.854V141.85H122.155V148.084H120.854V144.967H118.745ZM128.471 142.014C130.885 142.02 132.286 142.658 132.292 143.83C132.286 145.014 130.885 145.652 128.471 145.658C126.063 145.652 124.651 145.014 124.651 143.83C124.651 142.658 126.063 142.02 128.471 142.014ZM123.655 147.264V146.221H133.311V147.264H123.655ZM124.792 148.939V147.979H132.104V150.568H126.081V151.354H132.397V152.35H124.803V149.643H130.827V148.939H124.792ZM126.022 143.83C126.016 144.416 126.86 144.686 128.471 144.686C130.106 144.686 130.944 144.416 130.944 143.83C130.944 143.285 130.106 142.975 128.471 142.975C126.86 142.975 126.016 143.285 126.022 143.83ZM140.893 144.006C140.893 145.324 141.795 146.613 143.483 147.135L142.815 148.154C141.614 147.768 140.741 146.971 140.254 145.963C139.78 147.059 138.877 147.932 137.624 148.365L136.956 147.334C138.661 146.771 139.569 145.4 139.581 144.006V143.701H137.295V142.658H143.12V143.701H140.893V144.006ZM138.69 152.232V148.846H140.002V151.178H145.991V152.232H138.69ZM144.385 149.549V141.861H145.698V149.549H144.385ZM156.303 141.85V148.506H155.061V145.623H154.03V148.154H152.811V142.061H154.03V144.568H155.061V141.85H156.303ZM147.186 144.018V142.998H149.19V141.943H150.479V142.998H152.459V144.018H147.186ZM147.561 146.279C147.549 145.178 148.51 144.445 149.834 144.451C151.182 144.445 152.131 145.178 152.143 146.279C152.131 147.381 151.182 148.107 149.834 148.107C148.51 148.107 147.549 147.381 147.561 146.279ZM148.721 146.279C148.721 146.824 149.172 147.17 149.834 147.17C150.502 147.17 150.959 146.824 150.959 146.279C150.959 145.734 150.502 145.389 149.834 145.389C149.172 145.389 148.721 145.734 148.721 146.279ZM149.096 150.545C149.09 149.326 150.461 148.641 152.729 148.635C154.991 148.641 156.356 149.326 156.362 150.545C156.356 151.74 154.991 152.432 152.729 152.432C150.461 152.432 149.09 151.74 149.096 150.545ZM150.397 150.545C150.391 151.125 151.217 151.441 152.729 151.436C154.235 151.441 155.043 151.125 155.049 150.545C155.043 149.93 154.235 149.619 152.729 149.631C151.217 149.619 150.391 149.93 150.397 150.545ZM162.784 143.537V144.58H157.592V143.537H159.561V142.154H160.85V143.537H162.784ZM157.897 147.604C157.885 146.162 158.864 145.137 160.206 145.143C161.553 145.137 162.514 146.162 162.514 147.604C162.514 149.074 161.553 150.1 160.206 150.1C158.864 150.1 157.885 149.074 157.897 147.604ZM159.045 147.604C159.04 148.459 159.52 148.992 160.206 148.986C160.885 148.992 161.366 148.459 161.366 147.604C161.366 146.771 160.885 146.221 160.206 146.221C159.52 146.221 159.04 146.771 159.045 147.604ZM163.229 151.963V142.072H164.448V146.209H165.479V141.85H166.721V152.443H165.479V147.264H164.448V151.963H163.229ZM180.491 147.756V148.811H176.284V152.432H174.995V148.811H170.834V147.756H180.491ZM171.338 146.021C173.418 145.758 174.813 144.639 174.907 143.479H171.725V142.447H179.6V143.479H176.418C176.506 144.639 177.889 145.758 179.987 146.021L179.518 147.041C177.713 146.783 176.307 145.957 175.663 144.814C175.012 145.957 173.618 146.783 171.831 147.041L171.338 146.021ZM184.51 144.627C184.516 146.338 185.102 148.119 186.538 149.021L185.823 150.018C184.868 149.443 184.247 148.459 183.895 147.305C183.514 148.576 182.834 149.654 181.838 150.264L181.03 149.291C182.571 148.359 183.25 146.49 183.256 144.686V142.787H184.51V144.627ZM185.401 146.572V145.494H186.913V142.037H188.143V151.928H186.913V146.572H185.401ZM189.092 152.443V141.85H190.346V152.443H189.092ZM201.256 150.088V151.154H191.577V150.088H193.815V147.41C192.971 146.924 192.461 146.162 192.467 145.225C192.461 143.537 194.114 142.424 196.393 142.424C198.684 142.424 200.348 143.537 200.342 145.225C200.348 146.15 199.85 146.895 199.03 147.381V150.088H201.256ZM193.745 145.225C193.739 146.309 194.811 147 196.393 146.994C197.969 147 199.065 146.309 199.065 145.225C199.065 144.123 197.969 143.449 196.393 143.455C194.811 143.449 193.739 144.123 193.745 145.225ZM195.104 150.088H197.706V147.879C197.301 147.967 196.862 148.014 196.393 148.014C195.936 148.014 195.502 147.967 195.104 147.885V150.088Z" fill="#131214"/>
<path d="M71.5638 174.627C72.7978 174.622 73.7681 175.334 74.0054 176.378H75.7298V174.205H76.9005V179.32H75.7298V177.327H74.0159C73.7892 178.397 72.8083 179.12 71.5638 179.12C70.103 179.12 69.0431 178.181 69.0431 176.863C69.0431 175.56 70.103 174.622 71.5638 174.627ZM70.161 176.863C70.161 177.628 70.7411 178.134 71.5638 178.129C72.3653 178.134 72.9401 177.628 72.9454 176.863C72.9401 176.098 72.3653 175.603 71.5638 175.608C70.7411 175.603 70.161 176.098 70.161 176.863ZM70.6146 183.623V179.763H71.7747V180.776H75.7298V179.763H76.9005V183.623H70.6146ZM71.7747 182.674H75.7298V181.683H71.7747V182.674ZM86.9517 179.605V180.554H83.1548V183.729H81.9946V180.554H78.2399V179.605H86.9517ZM79.3052 178.487V174.69H85.8864V178.487H79.3052ZM80.4548 177.57H84.7157V175.629H80.4548V177.57ZM98.1313 180.291V183.739H96.9606V181.219H91.6345V180.291H98.1313ZM90.2739 177.042C90.2739 175.692 91.355 174.722 92.7946 174.732C93.5804 174.727 94.2659 175.022 94.7142 175.523H96.9606V174.205H98.1313V179.837H96.9606V178.571H94.7247C94.2712 179.078 93.5856 179.384 92.7946 179.384C91.355 179.384 90.2739 178.413 90.2739 177.042ZM91.3919 177.042C91.3919 177.87 91.9772 178.387 92.7946 178.392C93.5751 178.387 94.171 177.87 94.1763 177.042C94.171 176.246 93.5751 175.719 92.7946 175.724C91.9772 175.719 91.3919 176.246 91.3919 177.042ZM95.2204 177.622H96.9606V176.483H95.2257C95.2679 176.662 95.2942 176.847 95.2942 177.042C95.2942 177.243 95.2679 177.438 95.2204 177.622ZM108.341 175.566V176.536H107.001V177.57H108.341V178.55H107.001V179.974H105.831V174.216H107.001V175.566H108.341ZM99.8399 175.724V174.796H104.196V177.538H101.021V178.54C102.635 178.529 103.753 178.471 105.05 178.255L105.177 179.194C103.758 179.452 102.514 179.505 100.631 179.5H99.8505V176.652H103.046V175.724H99.8399ZM100.663 181.957C100.657 180.834 101.891 180.159 103.89 180.154C105.857 180.159 107.091 180.834 107.096 181.957C107.091 183.075 105.857 183.718 103.89 183.718C101.891 183.718 100.657 183.075 100.663 181.957ZM101.812 181.957C101.807 182.527 102.556 182.838 103.89 182.832C105.203 182.838 105.936 182.527 105.936 181.957C105.936 181.382 105.203 181.071 103.89 181.071C102.556 181.071 101.807 181.382 101.812 181.957ZM116.704 174.87V175.819H115.861V178.524C116.209 178.498 116.557 178.466 116.884 178.424V177.57H118.192V176.747H116.884V175.808H118.192V174.205H119.362V180.048H118.192V178.508H116.91L116.958 179.289C115.138 179.589 113.034 179.621 111.515 179.626L111.389 178.656C111.721 178.656 112.085 178.656 112.465 178.651V175.819H111.631V174.87H116.704ZM112.897 181.978C112.886 180.855 114.115 180.217 116.135 180.217C118.17 180.217 119.389 180.855 119.394 181.978C119.389 183.075 118.17 183.729 116.135 183.729C114.115 183.729 112.886 183.075 112.897 181.978ZM113.604 178.635C113.973 178.624 114.352 178.608 114.732 178.593V175.819H113.604V178.635ZM114.057 181.978C114.052 182.532 114.801 182.822 116.135 182.822C117.474 182.822 118.223 182.532 118.223 181.978C118.223 181.414 117.474 181.113 116.135 181.113C114.801 181.113 114.052 181.414 114.057 181.978ZM128.179 174.205V177.928H129.593V178.909H128.179V183.718H127.009V174.205H128.179ZM120.659 181.113C122.98 179.953 124.235 178.339 124.467 176.167H121.176V175.196H125.659C125.653 177.997 124.493 180.459 121.324 182.02L120.659 181.113Z" fill="#131214"/>
<rect x="68.6001" y="195.4" width="206.4" height="0.6" fill="#E6E9EB"/>
<path d="M72.196 211.976C72.191 213.201 72.9082 214.321 74.3177 214.765L73.72 215.631C72.7389 215.283 72.0516 214.625 71.6681 213.774C71.2696 214.755 70.5176 215.527 69.4269 215.91L68.8392 215.014C70.3283 214.526 71.0754 213.325 71.0804 212.025V211.169H72.196V211.976ZM70.3333 217.952C70.3233 216.856 71.4938 216.214 73.3913 216.219C75.2988 216.214 76.4643 216.856 76.4692 217.952C76.4643 219.048 75.2988 219.675 73.3913 219.675C71.4938 219.675 70.3233 219.048 70.3333 217.952ZM71.429 217.952C71.424 218.5 72.1412 218.804 73.3913 218.809C74.6514 218.804 75.3636 218.5 75.3636 217.952C75.3636 217.384 74.6514 217.081 73.3913 217.076C72.1412 217.081 71.424 217.384 71.429 217.952ZM73.5407 213.33V212.424H75.3337V210.681H76.4394V215.98H75.3337V213.33H73.5407ZM85.195 210.681V215.273H84.0993V210.681H85.195ZM77.7044 214.396C79.1637 213.933 79.9307 212.777 79.9257 211.597V210.9H81.0712V211.597C81.0662 212.743 81.8282 213.813 83.2526 214.247L82.7147 215.103C81.6688 214.78 80.9218 214.112 80.5134 213.256C80.105 214.187 79.338 214.919 78.2622 215.263L77.7044 214.396ZM79.2384 216.548V215.691H85.2149V218.032H80.344V218.729H85.4839V219.606H79.2583V217.205H84.1093V216.548H79.2384ZM89.8269 211.976C89.8219 213.201 90.5391 214.321 91.9485 214.765L91.3509 215.631C90.3697 215.283 89.6824 214.625 89.2989 213.774C88.9005 214.755 88.1484 215.527 87.0577 215.91L86.47 215.014C87.9592 214.526 88.7063 213.325 88.7112 212.025V211.169H89.8269V211.976ZM87.9642 217.952C87.9542 216.856 89.1246 216.214 91.0222 216.219C92.9297 216.214 94.0951 216.856 94.1001 217.952C94.0951 219.048 92.9297 219.675 91.0222 219.675C89.1246 219.675 87.9542 219.048 87.9642 217.952ZM89.0599 217.952C89.0549 218.5 89.7721 218.804 91.0222 218.809C92.2822 218.804 92.9944 218.5 92.9944 217.952C92.9944 217.384 92.2822 217.081 91.0222 217.076C89.7721 217.081 89.0549 217.384 89.0599 217.952ZM91.1716 213.33V212.424H92.9646V210.681H94.0702V215.98H92.9646V213.33H91.1716Z" fill="#131214"/>
<path d="M210.225 210.35C210.338 210.123 210.662 210.123 210.775 210.35L211.949 212.73C212.038 212.911 212.211 213.036 212.41 213.065L215.038 213.449C215.289 213.486 215.389 213.795 215.207 213.972L213.306 215.823C213.162 215.964 213.096 216.167 213.13 216.365L213.579 218.98C213.621 219.23 213.359 219.421 213.134 219.303L210.785 218.068C210.607 217.974 210.393 217.974 210.215 218.068L207.866 219.303C207.641 219.421 207.378 219.23 207.421 218.98L207.87 216.365C207.904 216.167 207.838 215.964 207.694 215.823L205.793 213.972C205.611 213.795 205.711 213.486 205.962 213.449L208.59 213.065C208.789 213.036 208.961 212.911 209.051 212.73L210.225 210.35Z" fill="#FFAA00" stroke="#FFAA00" stroke-width="0.9" stroke-linecap="round" stroke-linejoin="round"/>
<path d="M224.625 210.35C224.738 210.123 225.062 210.123 225.174 210.35L226.349 212.73C226.438 212.911 226.611 213.036 226.81 213.065L229.438 213.449C229.689 213.486 229.789 213.795 229.607 213.972L227.706 215.823C227.562 215.964 227.496 216.167 227.53 216.365L227.978 218.98C228.021 219.23 227.759 219.421 227.534 219.303L225.185 218.068C225.006 217.974 224.793 217.974 224.615 218.068L222.266 219.303C222.041 219.421 221.778 219.23 221.821 218.98L222.27 216.365C222.304 216.167 222.238 215.964 222.093 215.823L220.193 213.972C220.011 213.795 220.111 213.486 220.362 213.449L222.99 213.065C223.189 213.036 223.361 212.911 223.45 212.73L224.625 210.35Z" fill="#FFAA00" stroke="#FFAA00" stroke-width="0.9" stroke-linecap="round" stroke-linejoin="round"/>
<path d="M239.025 210.35C239.138 210.123 239.462 210.123 239.575 210.35L240.749 212.73C240.839 212.911 241.011 213.036 241.21 213.065L243.838 213.449C244.089 213.486 244.189 213.795 244.007 213.972L242.106 215.823C241.962 215.964 241.896 216.167 241.93 216.365L242.379 218.98C242.422 219.23 242.159 219.421 241.934 219.303L239.585 218.068C239.407 217.974 239.193 217.974 239.015 218.068L236.666 219.303C236.441 219.421 236.178 219.23 236.221 218.98L236.67 216.365C236.704 216.167 236.638 215.964 236.494 215.823L234.593 213.972C234.411 213.795 234.511 213.486 234.762 213.449L237.39 213.065C237.589 213.036 237.761 212.911 237.851 212.73L239.025 210.35Z" fill="#FFAA00" stroke="#FFAA00" stroke-width="0.9" stroke-linecap="round" stroke-linejoin="round"/>
<path d="M253.425 210.35C253.538 210.123 253.862 210.123 253.974 210.35L255.149 212.73C255.238 212.911 255.411 213.036 255.61 213.065L258.238 213.449C258.489 213.486 258.589 213.795 258.407 213.972L256.506 215.823C256.362 215.964 256.296 216.167 256.33 216.365L256.779 218.98C256.821 219.23 256.559 219.421 256.334 219.303L253.985 218.068C253.806 217.974 253.593 217.974 253.415 218.068L251.066 219.303C250.841 219.421 250.578 219.23 250.621 218.98L251.07 216.365C251.104 216.167 251.038 215.964 250.894 215.823L248.993 213.972C248.811 213.795 248.911 213.486 249.162 213.449L251.79 213.065C251.989 213.036 252.161 212.911 252.25 212.73L253.425 210.35Z" fill="#FFAA00" stroke="#FFAA00" stroke-width="0.9" stroke-linecap="round" stroke-linejoin="round"/>
<path d="M267.825 210.35C267.938 210.123 268.262 210.123 268.374 210.35L269.549 212.73C269.638 212.911 269.811 213.036 270.01 213.065L272.638 213.449C272.889 213.486 272.989 213.795 272.807 213.972L270.906 215.823C270.762 215.964 270.696 216.167 270.73 216.365L271.178 218.98C271.221 219.23 270.959 219.421 270.734 219.303L268.385 218.068C268.206 217.974 267.993 217.974 267.815 218.068L265.465 219.303C265.241 219.421 264.978 219.23 265.021 218.98L265.47 216.365C265.504 216.167 265.438 215.964 265.293 215.823L263.393 213.972C263.211 213.795 263.311 213.486 263.562 213.449L266.19 213.065C266.389 213.036 266.561 212.911 266.65 212.73L267.825 210.35Z" fill="#DCDBDC" stroke="#DCDBDC" stroke-width="0.9" stroke-linecap="round" stroke-linejoin="round"/>
<path d="M74.7442 229.182V229.765C74.7483 230.388 74.7483 231.114 74.5597 232.086H75.5974V232.726H68.8708V232.086H73.7763C73.969 231.131 73.9731 230.433 73.9731 229.814H69.7157V229.182H74.7442ZM69.7485 235.942V233.489H70.5196V235.302H74.9657V235.942H69.7485ZM79.3544 229.568V230.191H77.156V231.504H79.2313V232.119H77.156V233.67C78.1526 233.661 78.8089 233.629 79.5841 233.497L79.6497 234.137C78.7884 234.293 78.0747 234.326 76.9017 234.326H76.4095V229.568H79.3544ZM80.0763 235.737V228.887H80.8228V231.668H81.7087V228.748H82.4552V236.098H81.7087V232.3H80.8228V235.737H80.0763ZM84.711 234.834L84.0548 237.098H83.3575L83.7923 234.834H84.711ZM89.6247 229.084C90.5927 229.076 91.3433 229.638 91.5032 230.462H92.9388V228.748H93.7181V232.693H92.9388V231.102H91.5073C91.3556 231.947 90.6009 232.513 89.6247 232.513C88.5009 232.513 87.6929 231.803 87.697 230.79C87.6929 229.789 88.5009 229.076 89.6247 229.084ZM88.4435 230.79C88.4394 231.418 88.9315 231.857 89.6247 231.857C90.3056 231.857 90.7896 231.418 90.7896 230.79C90.7896 230.159 90.3056 229.728 89.6247 229.732C88.9315 229.728 88.4394 230.159 88.4435 230.79ZM88.9274 236.007V233.046H89.6985V233.899H92.9388V233.046H93.7181V236.007H88.9274ZM89.6985 235.368H92.9388V234.514H89.6985V235.368ZM101.568 232.964V233.596H98.5661V236.089H97.8032V233.596H94.8419V232.964H101.568ZM95.6868 232.029V229.141H100.724V232.029H95.6868ZM96.4497 231.422H99.9442V229.765H96.4497V231.422ZM104.833 229.921C104.833 230.835 105.547 231.68 106.679 232.012L106.285 232.62C105.428 232.357 104.78 231.799 104.444 231.077C104.116 231.853 103.459 232.46 102.577 232.751L102.184 232.136C103.328 231.787 104.042 230.885 104.046 229.921V229.839H102.397V229.207H106.449V229.839H104.833V229.921ZM103.398 236.007V233.071H104.161V233.891H107.434V233.071H108.205V236.007H103.398ZM104.161 235.376H107.434V234.506H104.161V235.376ZM107.425 232.726V228.748H108.205V232.726H107.425ZM116.072 232.152V232.784H113.102V233.489C114.447 233.563 115.247 234.014 115.251 234.785C115.247 235.618 114.296 236.085 112.717 236.081C111.117 236.085 110.165 235.618 110.165 234.785C110.165 234.014 110.965 233.559 112.331 233.489V232.784H109.37V232.152H116.072ZM109.722 231.151C111.043 231.016 112.085 230.417 112.192 229.707H109.985V229.084H115.473V229.707H113.242C113.348 230.421 114.382 231.016 115.727 231.151L115.448 231.766C114.173 231.619 113.118 231.081 112.721 230.302C112.315 231.081 111.269 231.619 109.993 231.766L109.722 231.151ZM110.953 234.785C110.949 235.232 111.593 235.491 112.717 235.482C113.824 235.491 114.472 235.232 114.472 234.785C114.472 234.33 113.824 234.084 112.717 234.08C111.593 234.084 110.949 234.33 110.953 234.785ZM122.585 232.136V232.759H120.362V234.555H123.356V235.195H116.629V234.555H119.591V232.759H117.466V229.314H122.519V229.945H118.245V232.136H122.585ZM125.21 234.834L124.554 237.098H123.856L124.291 234.834H125.21ZM130.649 230.913C130.644 232.074 131.411 233.37 132.527 233.899L132.084 234.506C131.26 234.112 130.603 233.284 130.271 232.324C129.935 233.37 129.246 234.277 128.409 234.695L127.95 234.08C129.065 233.542 129.873 232.156 129.877 230.913V230.134H128.22V229.486H132.248V230.134H130.649V230.913ZM133.036 236.098V228.748H133.815V231.66H134.996V232.316H133.815V236.098H133.036ZM141.452 228.748V236.114H140.673V228.748H141.452ZM135.759 230.044V229.412H139.204V232.095H136.563V233.702C137.757 233.698 138.794 233.641 140.025 233.44L140.099 234.08C138.798 234.297 137.691 234.346 136.391 234.35H135.767V231.471H138.409V230.044H135.759ZM148.695 228.748V236.114H147.916V228.748H148.695ZM143.019 234.35V229.363H143.798V231.25H145.775V229.363H146.546V234.35H143.019ZM143.798 233.711H145.775V231.865H143.798V233.711ZM153.215 228.871C154.827 228.875 155.836 229.392 155.84 230.273C155.836 231.139 154.827 231.652 153.215 231.652C151.608 231.652 150.586 231.139 150.59 230.273C150.586 229.392 151.608 228.875 153.215 228.871ZM149.868 232.784V232.152H156.57V232.784H153.601V233.555H155.75V236.007H150.672V233.555H152.83V232.784H149.868ZM151.394 230.273C151.39 230.766 152.083 231.045 153.215 231.045C154.339 231.045 155.041 230.766 155.036 230.273C155.041 229.765 154.339 229.478 153.215 229.478C152.083 229.478 151.39 229.765 151.394 230.273ZM151.443 235.376H154.995V234.178H151.443V235.376ZM160.327 229.273V230.446H162.288V229.273H163.059V232.931H159.565V229.273H160.327ZM160.327 232.308H162.288V231.053H160.327V232.308ZM160.426 235.942V233.62H161.213V235.31H165.454V235.942H160.426ZM164.495 234.17V228.756H165.274V234.17H164.495ZM172.394 232.136V232.759H170.171V234.555H173.165V235.195H166.439V234.555H169.4V232.759H167.275V229.314H172.329V229.945H168.055V232.136H172.394Z" fill="#898D8F"/>
<path d="M71.678 258.103C71.678 259.054 72.2558 259.996 73.3913 260.384L72.8933 261.221C72.0665 260.917 71.4987 260.349 71.175 259.657C70.8612 260.414 70.2885 261.037 69.4368 261.37L68.9188 260.554C70.0594 260.105 70.6222 259.124 70.6321 258.103V258.033H69.1479V257.167H70.6321V256.181H71.678V257.167H73.1423V258.033H71.678V258.103ZM70.4329 262.904V262.008H76.5987V265.086H75.4931V262.904H70.4329ZM73.6304 261.56V256.24H74.6763V258.402H75.5429V256.091H76.5987V261.599H75.5429V259.298H74.6763V261.56H73.6304ZM85.2149 256.091V261.191H84.0993V256.091H85.2149ZM77.8737 258.671C77.8737 257.401 78.9097 256.524 80.3042 256.519C81.6938 256.524 82.7297 257.401 82.7247 258.671C82.7297 259.911 81.6938 260.803 80.3042 260.803C78.9097 260.803 77.8737 259.911 77.8737 258.671ZM78.9595 258.671C78.9545 259.398 79.5173 259.871 80.3042 259.866C81.0762 259.871 81.639 259.398 81.639 258.671C81.639 257.924 81.0762 257.456 80.3042 257.456C79.5173 257.456 78.9545 257.924 78.9595 258.671ZM79.2384 264.976V261.629H85.2149V264.976H79.2384ZM80.3341 264.08H84.1292V262.506H80.3341V264.08ZM93.6319 256.081V258.133H94.887V259.039H93.6319V261.141H92.5263V256.081H93.6319ZM86.4601 260.424C88.5469 259.891 89.7322 258.825 89.9265 257.525H86.8884V256.629H91.1317C91.1268 258.97 89.5928 260.588 86.8983 261.311L86.4601 260.424ZM87.8048 264.966V261.5H93.6319V264.966H87.8048ZM88.9105 264.09H92.5362V262.406H88.9105V264.09Z" fill="#131214"/>
<path d="M210.225 255.751C210.338 255.523 210.662 255.523 210.775 255.751L211.949 258.131C212.038 258.311 212.211 258.437 212.41 258.466L215.038 258.85C215.289 258.887 215.389 259.195 215.207 259.372L213.306 261.223C213.162 261.364 213.096 261.567 213.13 261.766L213.579 264.381C213.621 264.631 213.359 264.822 213.134 264.703L210.785 263.468C210.607 263.374 210.393 263.374 210.215 263.468L207.866 264.703C207.641 264.822 207.378 264.631 207.421 264.381L207.87 261.766C207.904 261.567 207.838 261.364 207.694 261.223L205.793 259.372C205.611 259.195 205.711 258.887 205.962 258.85L208.59 258.466C208.789 258.437 208.961 258.311 209.051 258.131L210.225 255.751Z" fill="#FFAA00" stroke="#FFAA00" stroke-width="0.9" stroke-linecap="round" stroke-linejoin="round"/>
<path d="M224.625 255.751C224.738 255.523 225.062 255.523 225.174 255.751L226.349 258.131C226.438 258.311 226.611 258.437 226.81 258.466L229.438 258.85C229.689 258.887 229.789 259.195 229.607 259.372L227.706 261.223C227.562 261.364 227.496 261.567 227.53 261.766L227.978 264.381C228.021 264.631 227.759 264.822 227.534 264.703L225.185 263.468C225.006 263.374 224.793 263.374 224.615 263.468L222.266 264.703C222.041 264.822 221.778 264.631 221.821 264.381L222.27 261.766C222.304 261.567 222.238 261.364 222.093 261.223L220.193 259.372C220.011 259.195 220.111 258.887 220.362 258.85L222.99 258.466C223.189 258.437 223.361 258.311 223.45 258.131L224.625 255.751Z" fill="#FFAA00" stroke="#FFAA00" stroke-width="0.9" stroke-linecap="round" stroke-linejoin="round"/>
<path d="M239.025 255.751C239.138 255.523 239.462 255.523 239.575 255.751L240.749 258.131C240.839 258.311 241.011 258.437 241.21 258.466L243.838 258.85C244.089 258.887 244.189 259.195 244.007 259.372L242.106 261.223C241.962 261.364 241.896 261.567 241.93 261.766L242.379 264.381C242.422 264.631 242.159 264.822 241.934 264.703L239.585 263.468C239.407 263.374 239.193 263.374 239.015 263.468L236.666 264.703C236.441 264.822 236.178 264.631 236.221 264.381L236.67 261.766C236.704 261.567 236.638 261.364 236.494 261.223L234.593 259.372C234.411 259.195 234.511 258.887 234.762 258.85L237.39 258.466C237.589 258.437 237.761 258.311 237.851 258.131L239.025 255.751Z" fill="#FFAA00" stroke="#FFAA00" stroke-width="0.9" stroke-linecap="round" stroke-linejoin="round"/>
<path d="M253.425 255.751C253.538 255.523 253.862 255.523 253.974 255.751L255.149 258.131C255.238 258.311 255.411 258.437 255.61 258.466L258.238 258.85C258.489 258.887 258.589 259.195 258.407 259.372L256.506 261.223C256.362 261.364 256.296 261.567 256.33 261.766L256.779 264.381C256.821 264.631 256.559 264.822 256.334 264.703L253.985 263.468C253.806 263.374 253.593 263.374 253.415 263.468L251.066 264.703C250.841 264.822 250.578 264.631 250.621 264.381L251.07 261.766C251.104 261.567 251.038 261.364 250.894 261.223L248.993 259.372C248.811 259.195 248.911 258.887 249.162 258.85L251.79 258.466C251.989 258.437 252.161 258.311 252.25 258.131L253.425 255.751Z" fill="#DCDBDC" stroke="#DCDBDC" stroke-width="0.9" stroke-linecap="round" stroke-linejoin="round"/>
<path d="M267.825 255.751C267.938 255.523 268.262 255.523 268.374 255.751L269.549 258.131C269.638 258.311 269.811 258.437 270.01 258.466L272.638 258.85C272.889 258.887 272.989 259.195 272.807 259.372L270.906 261.223C270.762 261.364 270.696 261.567 270.73 261.766L271.178 264.381C271.221 264.631 270.959 264.822 270.734 264.703L268.385 263.468C268.206 263.374 267.993 263.374 267.815 263.468L265.465 264.703C265.241 264.822 264.978 264.631 265.021 264.381L265.47 261.766C265.504 261.567 265.438 261.364 265.293 261.223L263.393 259.372C263.211 259.195 263.311 258.887 263.562 258.85L266.19 258.466C266.389 258.437 266.561 258.311 266.65 258.131L267.825 255.751Z" fill="#DCDBDC" stroke="#DCDBDC" stroke-width="0.9" stroke-linecap="round" stroke-linejoin="round"/>
<path d="M70.9052 274.484C71.8731 274.476 72.6237 275.038 72.7837 275.862H74.2192V274.148H74.9985V278.094H74.2192V276.502H72.7878C72.636 277.347 71.8813 277.913 70.9052 277.913C69.7813 277.913 68.9733 277.204 68.9774 276.191C68.9733 275.19 69.7813 274.476 70.9052 274.484ZM69.7239 276.191C69.7198 276.818 70.212 277.257 70.9052 277.257C71.586 277.257 72.07 276.818 72.07 276.191C72.07 275.559 71.586 275.128 70.9052 275.132C70.212 275.128 69.7198 275.559 69.7239 276.191ZM70.2079 281.408V278.446H70.979V279.3H74.2192V278.446H74.9985V281.408H70.2079ZM70.979 280.768H74.2192V279.915H70.979V280.768ZM82.8489 278.364V278.996H79.8466V281.49H79.0837V278.996H76.1224V278.364H82.8489ZM76.9673 277.429V274.542H82.004V277.429H76.9673ZM77.7302 276.822H81.2247V275.165H77.7302V276.822ZM87.6724 274.476C88.747 274.476 89.5017 275.067 89.5099 275.945C89.5017 276.691 88.9356 277.237 88.0825 277.372V278.028C88.7306 277.991 89.3868 277.93 89.9938 277.839L90.0513 278.414C88.5091 278.693 86.7782 278.721 85.5149 278.717L85.4329 278.086C85.9825 278.09 86.6265 278.086 87.3032 278.061V277.38C86.4255 277.257 85.839 276.703 85.8431 275.945C85.839 275.067 86.5937 274.476 87.6724 274.476ZM86.4747 281.342V279.283H87.254V280.702H91.4868V281.342H86.4747ZM86.5731 275.945C86.5649 276.465 87.0243 276.806 87.6724 276.806C88.3245 276.806 88.7716 276.465 88.7716 275.945C88.7716 275.411 88.3245 275.075 87.6724 275.075C87.0243 275.075 86.5649 275.411 86.5731 275.945ZM90.445 279.775V274.156H91.2243V276.584H92.2743V277.241H91.2243V279.775H90.445ZM95.3095 275.247C95.3054 276.277 95.9739 277.196 97.0896 277.561L96.663 278.168C95.855 277.872 95.2603 277.306 94.9403 276.568C94.6245 277.409 93.9847 278.069 93.0946 278.389L92.6763 277.766C93.8493 277.364 94.5302 276.383 94.5384 275.28V274.558H95.3095V275.247ZM93.8821 280.095C93.878 279.205 94.8214 278.688 96.3677 278.693C97.9058 278.688 98.8491 279.205 98.8532 280.095C98.8491 280.981 97.9058 281.486 96.3677 281.482C94.8214 281.486 93.878 280.981 93.8821 280.095ZM94.6532 280.095C94.6491 280.583 95.289 280.871 96.3677 280.866C97.4382 280.871 98.078 280.583 98.0821 280.095C98.078 279.591 97.4382 279.3 96.3677 279.3C95.289 279.3 94.6491 279.591 94.6532 280.095ZM96.4989 276.281V275.641H98.0493V274.148H98.8286V278.487H98.0493V276.281H96.4989ZM105.916 277.536V278.159H103.693V279.956H106.687V280.596H99.9606V279.956H102.922V278.159H100.797V274.714H105.85V275.346H101.577V277.536H105.916ZM108.541 280.235L107.885 282.499H107.188L107.622 280.235H108.541ZM113.504 274.394C114.611 274.402 115.428 275.079 115.432 276.043C115.428 277.011 114.611 277.684 113.504 277.684C112.384 277.684 111.572 277.011 111.568 276.043C111.572 275.079 112.384 274.402 113.504 274.394ZM112.331 276.043C112.327 276.65 112.827 277.052 113.504 277.052C114.177 277.052 114.677 276.65 114.677 276.043C114.677 275.444 114.177 275.042 113.504 275.05C112.827 275.042 112.327 275.444 112.331 276.043ZM112.684 278.848V278.225H117.515V280.079H113.463V280.784H117.761V281.408H112.708V279.496H116.744V278.848H112.684ZM116.736 277.889V274.148H117.515V277.889H116.736ZM124.808 274.148V278.52H124.029V276.658H122.659V276.018H124.029V274.148H124.808ZM118.68 277.856C119.82 277.458 120.522 276.465 120.518 275.452V275.288H118.926V274.657H122.888V275.288H121.313V275.444C121.309 276.375 121.974 277.282 123.085 277.659L122.683 278.274C121.859 277.991 121.252 277.401 120.932 276.675C120.612 277.495 119.968 278.155 119.09 278.479L118.68 277.856ZM119.861 280.112C119.857 279.238 120.801 278.729 122.347 278.725C123.885 278.729 124.828 279.238 124.833 280.112C124.828 280.985 123.885 281.494 122.347 281.498C120.801 281.494 119.857 280.985 119.861 280.112ZM120.633 280.112C120.628 280.608 121.268 280.891 122.347 280.883C123.417 280.891 124.057 280.608 124.061 280.112C124.057 279.611 123.417 279.328 122.347 279.332C121.268 279.328 120.628 279.611 120.633 280.112ZM128.467 274.583L126.555 281.695H125.776L127.687 274.583H128.467ZM135.554 277.667V278.291H132.584V279.078H134.734V281.408H129.656V279.078H131.813V278.291H128.852V277.667H135.554ZM129.467 275.009V274.378H134.922V275.009H133.856V276.412H134.89V277.044H129.5V276.412H130.542V275.009H129.467ZM130.427 280.776H133.979V279.693H130.427V280.776ZM131.313 276.412H133.077V275.009H131.313V276.412ZM142.199 274.148V277.946H141.427V274.148H142.199ZM136.194 277.364C137.334 277.011 138.044 276.125 138.048 275.173H136.399V274.542H140.451V275.173H138.835C138.835 276.072 139.537 276.9 140.681 277.224L140.304 277.823C139.434 277.565 138.786 277.011 138.454 276.305C138.13 277.085 137.457 277.696 136.555 277.979L136.194 277.364ZM137.375 278.881V278.282H142.207V280.104H138.154V280.817H142.453V281.424H137.4V279.537H141.436V278.881H137.375ZM145.898 274.583L143.987 281.695H143.208L145.119 274.583H145.898ZM148.318 274.484C149.286 274.476 150.037 275.038 150.197 275.862H151.632V274.148H152.411V278.094H151.632V276.502H150.201C150.049 277.347 149.294 277.913 148.318 277.913C147.194 277.913 146.386 277.204 146.39 276.191C146.386 275.19 147.194 274.476 148.318 274.484ZM147.137 276.191C147.133 276.818 147.625 277.257 148.318 277.257C148.999 277.257 149.483 276.818 149.483 276.191C149.483 275.559 148.999 275.128 148.318 275.132C147.625 275.128 147.133 275.559 147.137 276.191ZM147.621 281.408V278.446H148.392V279.3H151.632V278.446H152.411V281.408H147.621ZM148.392 280.768H151.632V279.915H148.392V280.768ZM160.262 278.364V278.996H157.259V281.49H156.497V278.996H153.535V278.364H160.262ZM154.38 277.429V274.542H159.417V277.429H154.38ZM155.143 276.822H158.638V275.165H155.143V276.822ZM166.947 274.706V275.116C166.939 275.608 166.939 276.338 166.759 277.29L165.988 277.216C166.148 276.404 166.172 275.809 166.18 275.346H163.24V274.706H166.947ZM162.797 277.921C163.248 277.921 163.76 277.917 164.298 277.905V276.355H165.069V277.88C165.856 277.848 166.668 277.79 167.407 277.684L167.456 278.25C165.922 278.52 164.167 278.549 162.87 278.553L162.797 277.921ZM163.912 281.342V279.168H164.692V280.711H168.908V281.342H163.912ZM167.874 279.669V274.148H168.67V276.486H169.679V277.142H168.67V279.669H167.874ZM176.217 274.148V281.514H175.438V274.148H176.217ZM170.524 275.444V274.812H173.969V277.495H171.328V279.103C172.521 279.099 173.559 279.041 174.79 278.84L174.863 279.48C173.563 279.697 172.456 279.747 171.156 279.751H170.532V276.871H173.174V275.444H170.524Z" fill="#898D8F"/>
<path d="M73.7499 302.009V302.906H70.5226V303.743H73.4909V304.609H70.5226V305.496C72.206 305.496 73.2319 305.466 74.4173 305.267L74.5269 306.133C73.2369 306.357 72.1063 306.382 70.164 306.372H69.397V302.009H73.7499ZM70.4229 310.377V307.239H76.3995V310.377H70.4229ZM71.5187 309.48H75.3138V308.096H71.5187V309.48ZM75.2839 306.84V301.491H76.3995V306.84H75.2839ZM85.3146 301.491V310.476H84.189V308.414H82.2765V307.578H84.189V301.491H85.3146ZM77.6745 306.113C79.3679 306.108 81.619 306.103 83.5714 305.834L83.6411 306.651C82.8144 306.791 81.9627 306.88 81.131 306.935V310.207H80.0153V306.99C79.2284 307.02 78.4813 307.02 77.814 307.02L77.6745 306.113ZM78.322 303.703C78.322 302.632 79.2782 301.88 80.6329 301.88C81.9577 301.88 82.9239 302.632 82.9239 303.703C82.9239 304.798 81.9577 305.511 80.6329 305.516C79.2782 305.511 78.322 304.798 78.322 303.703ZM79.3679 303.703C79.3629 304.305 79.8759 304.669 80.6329 304.669C81.3501 304.669 81.8681 304.305 81.8681 303.703C81.8681 303.115 81.3551 302.727 80.6329 302.727C79.8759 302.727 79.3629 303.115 79.3679 303.703ZM93.8312 302.318V303.394C93.8312 304.704 93.8312 305.939 93.4327 307.846L92.3271 307.747C92.5113 306.96 92.6109 306.268 92.6707 305.63L87.3665 305.904L87.2171 305.008L92.7205 304.798C92.7404 304.315 92.7454 303.852 92.7454 303.394V303.215H87.486V302.318H93.8312ZM86.5298 309.341V308.434H94.7376V309.341H86.5298Z" fill="#131214"/>
<path d="M210.225 301.151C210.338 300.924 210.662 300.924 210.775 301.151L211.949 303.531C212.038 303.712 212.211 303.837 212.41 303.866L215.038 304.25C215.289 304.287 215.389 304.595 215.207 304.773L213.306 306.624C213.162 306.765 213.096 306.967 213.13 307.166L213.579 309.781C213.621 310.031 213.359 310.222 213.134 310.104L210.785 308.868C210.607 308.775 210.393 308.775 210.215 308.868L207.866 310.104C207.641 310.222 207.378 310.031 207.421 309.781L207.87 307.166C207.904 306.967 207.838 306.765 207.694 306.624L205.793 304.773C205.611 304.595 205.711 304.287 205.962 304.25L208.59 303.866C208.789 303.837 208.961 303.712 209.051 303.531L210.225 301.151Z" fill="#FFAA00" stroke="#FFAA00" stroke-width="0.9" stroke-linecap="round" stroke-linejoin="round"/>
<path d="M224.625 301.151C224.738 300.924 225.062 300.924 225.174 301.151L226.349 303.531C226.438 303.712 226.611 303.837 226.81 303.866L229.438 304.25C229.689 304.287 229.789 304.595 229.607 304.773L227.706 306.624C227.562 306.765 227.496 306.967 227.53 307.166L227.978 309.781C228.021 310.031 227.759 310.222 227.534 310.104L225.185 308.868C225.006 308.775 224.793 308.775 224.615 308.868L222.266 310.104C222.041 310.222 221.778 310.031 221.821 309.781L222.27 307.166C222.304 306.967 222.238 306.765 222.093 306.624L220.193 304.773C220.011 304.595 220.111 304.287 220.362 304.25L222.99 303.866C223.189 303.837 223.361 303.712 223.45 303.531L224.625 301.151Z" fill="#FFAA00" stroke="#FFAA00" stroke-width="0.9" stroke-linecap="round" stroke-linejoin="round"/>
<path d="M239.025 301.151C239.138 300.924 239.462 300.924 239.575 301.151L240.749 303.531C240.839 303.712 241.011 303.837 241.21 303.866L243.838 304.25C244.089 304.287 244.189 304.595 244.007 304.773L242.106 306.624C241.962 306.765 241.896 306.967 241.93 307.166L242.379 309.781C242.422 310.031 242.159 310.222 241.934 310.104L239.585 308.868C239.407 308.775 239.193 308.775 239.015 308.868L236.666 310.104C236.441 310.222 236.178 310.031 236.221 309.781L236.67 307.166C236.704 306.967 236.638 306.765 236.494 306.624L234.593 304.773C234.411 304.595 234.511 304.287 234.762 304.25L237.39 303.866C237.589 303.837 237.761 303.712 237.851 303.531L239.025 301.151Z" fill="#FFAA00" stroke="#FFAA00" stroke-width="0.9" stroke-linecap="round" stroke-linejoin="round"/>
<path d="M253.425 301.151C253.538 300.924 253.862 300.924 253.974 301.151L255.149 303.531C255.238 303.712 255.411 303.837 255.61 303.866L258.238 304.25C258.489 304.287 258.589 304.595 258.407 304.773L256.506 306.624C256.362 306.765 256.296 306.967 256.33 307.166L256.779 309.781C256.821 310.031 256.559 310.222 256.334 310.104L253.985 308.868C253.806 308.775 253.593 308.775 253.415 308.868L251.066 310.104C250.841 310.222 250.578 310.031 250.621 309.781L251.07 307.166C251.104 306.967 251.038 306.765 250.894 306.624L248.993 304.773C248.811 304.595 248.911 304.287 249.162 304.25L251.79 303.866C251.989 303.837 252.161 303.712 252.25 303.531L253.425 301.151Z" fill="#FFAA00" stroke="#FFAA00" stroke-width="0.9" stroke-linecap="round" stroke-linejoin="round"/>
<path d="M267.825 301.151C267.938 300.924 268.262 300.924 268.374 301.151L269.549 303.531C269.638 303.712 269.811 303.837 270.01 303.866L272.638 304.25C272.889 304.287 272.989 304.595 272.807 304.773L270.906 306.624C270.762 306.765 270.696 306.967 270.73 307.166L271.178 309.781C271.221 310.031 270.959 310.222 270.734 310.104L268.385 308.868C268.206 308.775 267.993 308.775 267.815 308.868L265.465 310.104C265.241 310.222 264.978 310.031 265.021 309.781L265.47 307.166C265.504 306.967 265.438 306.765 265.293 306.624L263.393 304.773C263.211 304.595 263.311 304.287 263.562 304.25L266.19 303.866C266.389 303.837 266.561 303.712 266.65 303.531L267.825 301.151Z" fill="#DCDBDC" stroke="#DCDBDC" stroke-width="0.9" stroke-linecap="round" stroke-linejoin="round"/>
<path d="M75.581 323.125V323.748H68.8708V323.125H71.8485V322.346H69.7075V319.885H74.7524V320.5H70.4786V321.722H74.8017V322.346H72.6032V323.125H75.581ZM69.6665 325.561C69.6665 324.708 70.6222 324.228 72.2177 324.224C73.8009 324.228 74.7483 324.708 74.7524 325.561C74.7483 326.414 73.8009 326.894 72.2177 326.898C70.6222 326.894 69.6665 326.414 69.6665 325.561ZM70.454 325.561C70.4499 326.033 71.0938 326.291 72.2177 326.283C73.3251 326.291 73.9731 326.033 73.9731 325.561C73.9731 325.098 73.3251 324.831 72.2177 324.831C71.0938 324.831 70.4499 325.098 70.454 325.561ZM82.8571 325.364V326.021H76.1306V325.364H77.9681V324.068H76.9509V321.73H81.2657V320.705H76.9345V320.065H82.0368V322.362H77.722V323.429H82.2091V324.068H81.0935V325.364H82.8571ZM78.7228 325.364H80.3306V324.068H78.7228V325.364ZM85.9169 319.983L84.0056 327.095H83.2263L85.1376 319.983H85.9169ZM90.0759 320.196V320.836H87.4017V322.255H89.9282V322.879H87.4017V324.528C88.628 324.52 89.5386 324.474 90.6009 324.298L90.6747 324.93C89.5386 325.118 88.5624 325.155 87.2048 325.159H86.6142V320.196H90.0759ZM91.2489 326.898V319.548H92.0282V322.444H93.2095V323.1H92.0282V326.898H91.2489ZM99.6571 319.557V324.897H98.8778V319.557H99.6571ZM93.7099 321.87C93.714 320.808 94.5589 320.053 95.6704 320.049C96.7778 320.053 97.6228 320.808 97.6228 321.87C97.6228 322.949 96.7778 323.699 95.6704 323.699C94.5589 323.699 93.714 322.949 93.7099 321.87ZM94.4728 321.87C94.4687 322.563 94.9855 323.018 95.6704 323.018C96.3431 323.018 96.8599 322.563 96.8599 321.87C96.8599 321.193 96.3431 320.73 95.6704 320.73C94.9855 320.73 94.4687 321.193 94.4728 321.87ZM94.8501 326.743V324.355H95.6376V326.111H99.8786V326.743H94.8501ZM103.857 320.229V321.985H105.26V320.229H105.982V325.086H103.119V320.229H103.857ZM103.857 324.454H105.26V322.6H103.857V324.454ZM106.802 326.538V319.688H107.54V322.428H108.451V319.548H109.197V326.898H108.451V323.068H107.54V326.538H106.802ZM116.252 319.548V326.915H115.481V323.839H114.045V323.191H115.481V321.829H114.086V321.189H115.481V319.548H116.252ZM110.387 320.828V320.196H113.643V322.879H111.183V324.569C112.22 324.565 113.098 324.515 114.144 324.364L114.209 325.004C113.061 325.184 112.122 325.217 110.961 325.217H110.403V322.264H112.881V320.828H110.387ZM118.713 325.635L118.057 327.899H117.359L117.794 325.635H118.713ZM127.671 319.548V326.898H126.892V319.548H127.671ZM121.633 324.848C123.024 324.852 124.845 324.852 126.44 324.643L126.498 325.217C124.841 325.5 123.098 325.508 121.74 325.504L121.633 324.848ZM121.789 321.132V320.508H123.643V319.63H124.431V320.508H126.276V321.132H121.789ZM122.265 322.895C122.257 322.042 122.987 321.501 124.037 321.501C125.091 321.501 125.813 322.042 125.817 322.895C125.813 323.72 125.091 324.278 124.037 324.273C122.987 324.278 122.257 323.72 122.265 322.895ZM122.995 322.895C122.987 323.367 123.417 323.671 124.037 323.675C124.652 323.671 125.075 323.367 125.079 322.895C125.075 322.415 124.652 322.104 124.037 322.1C123.417 322.104 122.987 322.415 122.995 322.895ZM131.1 320.959C131.1 321.763 131.612 322.575 132.568 322.936L132.158 323.535C131.473 323.273 130.993 322.772 130.731 322.169C130.46 322.85 129.959 323.441 129.246 323.748L128.819 323.141C129.812 322.711 130.345 321.776 130.345 320.959V320.008H131.1V320.959ZM130.173 325.553C130.165 324.716 131.12 324.22 132.658 324.216C134.192 324.22 135.156 324.716 135.16 325.553C135.156 326.39 134.192 326.886 132.658 326.882C131.12 326.886 130.165 326.39 130.173 325.553ZM130.944 325.553C130.936 326.021 131.588 326.291 132.658 326.283C133.725 326.291 134.377 326.021 134.381 325.553C134.377 325.081 133.725 324.811 132.658 324.815C131.588 324.811 130.936 325.081 130.944 325.553ZM132.798 323.847V319.688H133.52V321.468H134.381V319.557H135.119V324.077H134.381V322.108H133.52V323.847H132.798ZM142.043 320.016V323.035H138.548V320.016H142.043ZM139.032 326.275C140.369 326.144 141.415 325.475 141.468 324.815H139.327V324.224H141.485V323.535H142.256V324.224H144.422V324.815H142.272C142.326 325.455 143.347 326.127 144.684 326.275L144.422 326.874C143.269 326.734 142.317 326.242 141.875 325.594C141.423 326.25 140.459 326.734 139.303 326.874L139.032 326.275ZM139.311 322.428H141.272V320.639H139.311V322.428ZM143.478 323.748V319.548H144.249V323.748H143.478ZM153.56 319.548V326.915H152.781V319.548H153.56ZM147.727 322.674C147.727 321.103 148.519 320.102 149.631 320.098C150.722 320.102 151.525 321.103 151.525 322.674C151.525 324.261 150.722 325.262 149.631 325.258C148.519 325.262 147.727 324.261 147.727 322.674ZM148.482 322.674C148.478 323.843 148.946 324.561 149.631 324.561C150.303 324.561 150.771 323.843 150.771 322.674C150.771 321.521 150.303 320.799 149.631 320.795C148.946 320.799 148.478 321.521 148.482 322.674ZM158.506 320.196V320.836H155.832V322.255H158.359V322.879H155.832V324.528C157.059 324.52 157.969 324.474 159.031 324.298L159.105 324.93C157.969 325.118 156.993 325.155 155.635 325.159H155.045V320.196H158.506ZM159.679 326.898V319.548H160.459V322.444H161.64V323.1H160.459V326.898H159.679ZM168.12 319.548V323.921H167.341V322.059H165.971V321.419H167.341V319.548H168.12ZM161.993 323.256C163.133 322.858 163.834 321.866 163.83 320.853V320.689H162.239V320.057H166.201V320.689H164.626V320.845C164.622 321.776 165.286 322.682 166.398 323.059L165.996 323.675C165.171 323.392 164.564 322.801 164.244 322.075C163.925 322.895 163.281 323.556 162.403 323.88L161.993 323.256ZM163.174 325.512C163.17 324.638 164.113 324.13 165.659 324.126C167.198 324.13 168.141 324.638 168.145 325.512C168.141 326.386 167.198 326.894 165.659 326.898C164.113 326.894 163.17 326.386 163.174 325.512ZM163.945 325.512C163.941 326.008 164.581 326.291 165.659 326.283C166.73 326.291 167.37 326.008 167.374 325.512C167.37 325.012 166.73 324.729 165.659 324.733C164.581 324.729 163.941 325.012 163.945 325.512ZM175.347 319.557V324.938H174.568V319.557H175.347ZM169.293 323.281C170.446 322.854 171.127 321.796 171.131 320.689V319.959H171.927V320.689C171.923 321.763 172.603 322.748 173.74 323.141L173.338 323.765C172.489 323.449 171.861 322.826 171.533 322.03C171.209 322.883 170.573 323.564 169.712 323.896L169.293 323.281ZM170.54 326.743V324.429H171.328V326.111H175.569V326.743H170.54Z" fill="#898D8F"/>
<rect width="225" height="32.4" transform="translate(59 57)" fill="white"/>
<path d="M92.1849 70.4914C93.5944 70.5014 94.9989 71.3431 95.0039 73.9777C95.0039 76.463 93.8783 77.9023 92.1052 77.9023C90.7157 77.9023 89.7544 77.0357 89.5951 75.8404H90.88C91.0095 76.4132 91.4528 76.7768 92.1052 76.7768C93.1511 76.7768 93.7388 75.8554 93.7488 74.3064H93.6691C93.3055 74.934 92.6083 75.3075 91.8164 75.3025C90.5264 75.3075 89.5303 74.3264 89.5253 72.9617C89.5253 71.5522 90.5862 70.4814 92.1849 70.4914ZM90.7904 72.9318C90.7904 73.7088 91.3681 74.3164 92.175 74.3164C92.9768 74.3164 93.5944 73.6689 93.5894 72.9219C93.5894 72.1897 93.0017 71.5423 92.1949 71.5373C91.3831 71.5423 90.7804 72.1599 90.7904 72.9318ZM96.8765 76.9062C96.4482 76.9062 96.0946 76.5576 96.0996 76.1293C96.0946 75.7109 96.4482 75.3673 96.8765 75.3623C97.2899 75.3673 97.6435 75.7109 97.6435 76.1293C97.6435 76.5576 97.2899 76.9062 96.8765 76.9062ZM96.0996 72.2645C96.0946 71.8461 96.4482 71.5024 96.8765 71.4975C97.2899 71.5024 97.6435 71.8461 97.6435 72.2645C97.6435 72.6928 97.2899 73.0414 96.8765 73.0414C96.4482 73.0414 96.0946 72.6928 96.0996 72.2645ZM98.7292 76.458V75.4221L101.847 70.591H103.461V75.3922H104.407V76.458H103.461V77.8027H102.226V76.458H98.7292ZM100.054 75.3922H102.245V72.0652H102.166L100.054 75.3424V75.3922ZM108.272 70.591V77.8027H106.967V71.8561H106.927L105.244 72.9318V71.7465L107.027 70.591H108.272Z" fill="#131214"/>
<rect opacity="0.35" x="250.661" y="70.8996" width="14.4" height="7.2" rx="2.28" stroke="#131214" stroke-width="0.6"/>
<path opacity="0.4" d="M265.961 73.4688V75.914C266.444 75.7069 266.758 75.2252 266.758 74.6914C266.758 74.1576 266.444 73.6759 265.961 73.4688Z" fill="#131214"/>
<rect x="251.561" y="71.7988" width="12.6" height="5.4" rx="1.5" fill="#131214"/>
<path fill-rule="evenodd" clip-rule="evenodd" d="M240.923 72.4622C242.416 72.4623 243.851 73.0155 244.932 74.0076C245.014 74.0842 245.144 74.0832 245.224 74.0054L246.003 73.2473C246.043 73.2079 246.066 73.1544 246.066 73.0988C246.065 73.0432 246.042 72.99 246.001 72.951C243.162 70.3262 238.684 70.3262 235.845 72.951C235.804 72.99 235.781 73.0432 235.781 73.0988C235.78 73.1544 235.803 73.2079 235.843 73.2473L236.622 74.0054C236.702 74.0833 236.832 74.0843 236.914 74.0076C237.996 73.0154 239.431 72.4622 240.923 72.4622ZM240.921 74.9944C241.736 74.9943 242.521 75.3013 243.125 75.8558C243.206 75.9345 243.335 75.9328 243.415 75.852L244.187 75.0604C244.228 75.0189 244.25 74.9625 244.25 74.904C244.249 74.8455 244.225 74.7896 244.184 74.749C242.345 73.0145 239.499 73.0145 237.66 74.749C237.619 74.7896 237.595 74.8455 237.595 74.9041C237.594 74.9626 237.617 75.0189 237.657 75.0604L238.43 75.852C238.509 75.9328 238.638 75.9345 238.719 75.8558C239.323 75.3017 240.107 74.9947 240.921 74.9944ZM242.436 76.6705C242.437 76.7337 242.415 76.7946 242.374 76.8389L241.068 78.3118C241.03 78.355 240.978 78.3794 240.924 78.3794C240.869 78.3794 240.817 78.355 240.779 78.3118L239.472 76.8389C239.432 76.7946 239.41 76.7336 239.411 76.6704C239.412 76.6072 239.437 76.5474 239.479 76.505C240.313 75.7167 241.534 75.7167 242.368 76.505C242.41 76.5474 242.435 76.6073 242.436 76.6705Z" fill="#131214"/>
<path fill-rule="evenodd" clip-rule="evenodd" d="M231.281 71.6077C231.281 71.2278 230.994 70.9199 230.641 70.9199H230.001C229.648 70.9199 229.361 71.2278 229.361 71.6077V77.568C229.361 77.9479 229.648 78.2558 230.001 78.2558H230.641C230.994 78.2558 231.281 77.9479 231.281 77.568V71.6077ZM226.821 72.3871H227.461C227.814 72.3871 228.101 72.7024 228.101 73.0913V77.5515C228.101 77.9405 227.814 78.2558 227.461 78.2558H226.821C226.467 78.2558 226.181 77.9405 226.181 77.5515V73.0913C226.181 72.7024 226.467 72.3871 226.821 72.3871ZM224.221 73.9765H223.581C223.228 73.9765 222.941 74.2958 222.941 74.6897V77.5426C222.941 77.9365 223.228 78.2558 223.581 78.2558H224.221C224.575 78.2558 224.861 77.9365 224.861 77.5426V74.6897C224.861 74.2958 224.575 73.9765 224.221 73.9765ZM221.041 75.4437H220.401C220.048 75.4437 219.761 75.7584 219.761 76.1467V77.5528C219.761 77.941 220.048 78.2558 220.401 78.2558H221.041C221.394 78.2558 221.681 77.941 221.681 77.5528V76.1467C221.681 75.7584 221.394 75.4437 221.041 75.4437Z" fill="#131214"/>
<rect width="225" height="38.4" transform="translate(59 89.4004)" fill="white"/>
<path d="M155.206 104.889C155.206 106.195 156.044 107.479 157.714 108.029L157.058 109.037C155.868 108.639 155.031 107.848 154.568 106.857C154.099 107.941 153.22 108.803 151.984 109.225L151.292 108.217C152.997 107.648 153.894 106.277 153.894 104.889V104.76H151.656V103.717H157.409V104.76H155.206V104.889ZM152.71 110.971V109.928H159.765V113.643H158.464V110.971H152.71ZM158.464 109.436V103.049H159.765V105.697H161.241V106.787H159.765V109.436H158.464ZM165.659 104.572C165.654 106.014 166.497 107.332 168.156 107.854L167.452 108.873C166.298 108.463 165.49 107.689 165.038 106.688C164.57 107.842 163.685 108.75 162.402 109.201L161.71 108.146C163.462 107.572 164.341 106.16 164.347 104.631V103.623H165.659V104.572ZM163.468 111.604C163.456 110.314 164.833 109.559 167.066 109.564C169.31 109.559 170.681 110.314 170.687 111.604C170.681 112.893 169.31 113.631 167.066 113.631C164.833 113.631 163.456 112.893 163.468 111.604ZM164.757 111.604C164.751 112.248 165.595 112.605 167.066 112.611C168.548 112.605 169.386 112.248 169.386 111.604C169.386 110.936 168.548 110.578 167.066 110.572C165.595 110.578 164.751 110.936 164.757 111.604ZM167.241 106.166V105.1H169.351V103.049H170.652V109.283H169.351V106.166H167.241ZM180.448 103.049V107.268H182.077V108.346H180.448V113.643H179.159V103.049H180.448ZM172.093 105.721V104.678H174.601V103.201H175.902V104.678H178.339V105.721H172.093ZM172.585 108.908C172.573 107.443 173.71 106.406 175.257 106.412C176.781 106.406 177.911 107.443 177.917 108.908C177.911 110.367 176.781 111.393 175.257 111.393C173.71 111.393 172.573 110.367 172.585 108.908ZM173.827 108.908C173.822 109.77 174.425 110.32 175.257 110.314C176.072 110.32 176.663 109.77 176.675 108.908C176.663 108.047 176.072 107.479 175.257 107.479C174.425 107.479 173.822 108.047 173.827 108.908ZM191.37 103.049V113.643H190.058V103.049H191.37ZM182.593 110.725C185.37 109.406 186.648 107.613 186.882 105.205H183.132V104.174H188.206C188.206 107.326 186.982 110.004 183.273 111.768L182.593 110.725Z" fill="#131214"/>
<path d="M76.3999 113.401L71.8515 109.166C71.516 108.854 71.516 108.348 71.8515 108.035L76.3999 103.801" stroke="#131214" stroke-width="0.9" stroke-linecap="round"/>
</g>
<rect x="57.5" y="55.5" width="228" height="490.2" rx="27.5" stroke="black" stroke-width="3"/>
</g>
<defs>
<clipPath id="clip0_5339_15243">
<rect width="343" height="343" rx="24" fill="white"/>
</clipPath>
<clipPath id="clip1_5339_15243">
<rect x="59" y="57" width="225" height="487.2" rx="26" fill="white"/>
</clipPath>
</defs>
</svg>
