<svg width="343" height="343" viewBox="0 0 343 343" fill="none" xmlns="http://www.w3.org/2000/svg">
<g clip-path="url(#clip0_5328_20968)">
<rect width="343" height="343" rx="24" fill="#F7F7FB"/>
<g clip-path="url(#clip1_5328_20968)">
<rect x="50" y="41" width="243" height="526.176" rx="26" fill="white"/>
<rect x="60.692" y="133.988" width="221.616" height="80.6" rx="4.86" fill="#FFF6F6"/>
<rect x="60.692" y="133.988" width="221.616" height="80.6" rx="4.86" stroke="#FDBFC3" stroke-width="0.648"/>
<path d="M73.4723 147.833C73.4723 149.103 74.2867 150.35 75.9099 150.886L75.272 151.865C74.1158 151.478 73.3014 150.709 72.8515 149.747C72.3959 150.8 71.5416 151.638 70.3399 152.048L69.6678 151.068C71.3251 150.516 72.1965 149.183 72.1965 147.833V147.708H70.0209V146.694H75.6137V147.708H73.4723V147.833ZM71.0461 153.745V152.731H77.9032V156.342H76.6389V153.745H71.0461ZM76.6389 152.253V146.045H77.9032V148.619H79.3384V149.678H77.9032V152.253H76.6389ZM83.6327 147.526C83.627 148.927 84.4471 150.208 86.0589 150.715L85.3755 151.706C84.2535 151.307 83.4675 150.555 83.029 149.582C82.5734 150.704 81.7134 151.586 80.4661 152.025L79.7941 151C81.497 150.442 82.3513 149.069 82.357 147.583V146.603H83.6327V147.526ZM81.5027 154.36C81.4913 153.107 82.8297 152.372 84.9996 152.378C87.1809 152.372 88.5136 153.107 88.5193 154.36C88.5136 155.613 87.1809 156.33 84.9996 156.33C82.8297 156.33 81.4913 155.613 81.5027 154.36ZM82.7556 154.36C82.7499 154.986 83.5701 155.334 84.9996 155.34C86.4405 155.334 87.2549 154.986 87.2549 154.36C87.2549 153.711 86.4405 153.363 84.9996 153.358C83.5701 153.363 82.7499 153.711 82.7556 154.36ZM85.1704 149.075V148.038H87.2208V146.045H88.4851V152.105H87.2208V149.075H85.1704ZM102.12 154.052V155.089H92.711V154.052H94.8866V151.45C94.0665 150.977 93.571 150.237 93.5767 149.325C93.571 147.685 95.1771 146.603 97.3926 146.603C99.6195 146.603 101.237 147.685 101.231 149.325C101.237 150.225 100.753 150.948 99.9555 151.421V154.052H102.12ZM94.8183 149.325C94.8126 150.379 95.8549 151.051 97.3926 151.045C98.9246 151.051 99.9896 150.379 99.9896 149.325C99.9896 148.255 98.9246 147.6 97.3926 147.605C95.8549 147.6 94.8126 148.255 94.8183 149.325ZM96.1396 154.052H98.6683V151.905C98.2754 151.991 97.8482 152.036 97.3926 152.036C96.9484 152.036 96.5269 151.991 96.1396 151.911V154.052ZM106.494 148.243C106.488 149.371 107.371 150.481 108.988 150.92L108.396 151.9C107.211 151.575 106.357 150.886 105.884 149.992C105.434 151 104.58 151.797 103.35 152.162L102.758 151.182C104.369 150.692 105.229 149.485 105.229 148.243V148.186H103.077V147.184H105.229V145.999H106.505V147.184H108.647V148.186H106.494V148.243ZM104.432 154.394C104.421 153.17 105.765 152.48 107.929 152.48C110.105 152.48 111.443 153.17 111.449 154.394C111.443 155.619 110.105 156.33 107.929 156.33C105.765 156.33 104.421 155.619 104.432 154.394ZM105.685 154.394C105.679 155.003 106.499 155.351 107.929 155.351C109.387 155.351 110.184 155.003 110.184 154.394C110.184 153.779 109.387 153.454 107.929 153.449C106.499 153.454 105.679 153.779 105.685 154.394ZM108.339 149.895V148.87H110.15V146.045H111.414V152.275H110.15V149.895H108.339ZM116.563 148.972C116.557 150.561 117.514 152.372 119.137 153.13L118.431 154.132C117.269 153.585 116.409 152.48 115.948 151.193C115.481 152.606 114.581 153.813 113.396 154.383L112.656 153.392C114.296 152.611 115.293 150.686 115.299 148.972V148.106H113.055V147.059H118.716V148.106H116.563V148.972ZM119.673 156.342V146.045H120.937V150.054H122.52V151.114H120.937V156.342H119.673Z" fill="#C90000"/>
<line x1="69.44" y1="166.076" x2="273.56" y2="166.076" stroke="#131214" stroke-opacity="0.1" stroke-width="0.648"/>
<path d="M77.2261 176.292V185.313H76.4262V176.292H77.2261ZM70.1386 180.129C70.1437 178.215 71.0954 176.995 72.437 176.99C73.7735 176.995 74.7404 178.215 74.7354 180.129C74.7404 182.048 73.7735 183.263 72.437 183.258C71.0954 183.263 70.1437 182.048 70.1386 180.129ZM70.9081 180.129C70.9081 181.592 71.5359 182.554 72.437 182.549C73.3432 182.554 73.9659 181.592 73.9659 180.129C73.9659 178.666 73.3432 177.704 72.437 177.699C71.5359 177.704 70.9081 178.666 70.9081 180.129ZM86.9967 180.939V181.597H78.755V180.939H86.9967ZM79.7979 177.152V176.514H85.9336V178.641H80.618V179.542H86.126V180.159H79.8282V178.043H85.1337V177.152H79.7979ZM79.8789 185.171V182.417H85.9336V185.171H79.8789ZM80.6585 184.523H85.154V183.065H80.6585V184.523Z" fill="#131214"/>
<path d="M123.389 176.828C123.384 179.152 121.744 180.787 119.056 181.496L118.671 180.737C120.853 180.17 122.179 179.03 122.357 177.598H119.177V176.828H123.389ZM120.17 185.212V181.779H126.113V185.212H120.17ZM121.121 184.442H125.171V182.549H121.121V184.442ZM125.151 181.374V176.271H126.113V181.374H125.151ZM130.77 177.618C130.765 178.889 131.591 180.023 132.968 180.473L132.441 181.223C131.444 180.858 130.71 180.159 130.315 179.248C129.925 180.286 129.135 181.101 128.037 181.496L127.52 180.726C128.968 180.23 129.809 179.02 129.819 177.659V176.768H130.77V177.618ZM129.009 183.602C129.004 182.503 130.168 181.865 132.077 181.871C133.975 181.865 135.139 182.503 135.144 183.602C135.139 184.695 133.975 185.318 132.077 185.313C130.168 185.318 129.004 184.695 129.009 183.602ZM129.96 183.602C129.955 184.204 130.745 184.559 132.077 184.554C133.398 184.559 134.188 184.204 134.193 183.602C134.188 182.979 133.398 182.62 132.077 182.62C130.745 182.62 129.955 182.979 129.96 183.602ZM132.239 178.894V178.104H134.152V176.261H135.114V181.617H134.152V178.894H132.239ZM144.368 177.537V178.317H136.906V177.537H140.166V176.393H141.118V177.537H144.368ZM136.511 184.311V183.531H140.166V182.331C138.577 182.23 137.61 181.602 137.615 180.595C137.61 179.501 138.769 178.858 140.642 178.863C142.49 178.858 143.665 179.501 143.66 180.595C143.665 181.602 142.688 182.23 141.118 182.331V183.531H144.814V184.311H136.511ZM138.597 180.595C138.587 181.228 139.346 181.572 140.642 181.577C141.918 181.572 142.683 181.228 142.677 180.595C142.683 179.967 141.918 179.623 140.642 179.623C139.346 179.623 138.587 179.967 138.597 180.595Z" fill="#131214"/>
<path d="M77.2666 194.077V200.679H76.4667V197.226H74.6139V196.568H76.4667V194.077H77.2666ZM69.845 198.876C71.1714 198.411 72.1332 197.221 72.1332 195.93V195.464H70.0981V194.806H74.948V195.464H72.9331V195.93C72.9331 197.094 73.8342 198.223 75.1505 198.674L74.7354 199.312C73.7229 198.942 72.9382 198.188 72.5484 197.256C72.1585 198.299 71.3283 199.124 70.2601 199.524L69.845 198.876ZM71.4852 202.876V200.081H72.2851V202.208H77.5197V202.876H71.4852ZM85.7514 194.067V197.904H87.1891V198.573H85.7514V203.068H84.9515V194.067H85.7514ZM78.6537 200.669C79.3878 200.669 80.2434 200.663 81.1344 200.638V199.646C80.0864 199.524 79.403 198.907 79.4131 198.016C79.403 196.998 80.2636 196.34 81.5394 196.345C82.7949 196.34 83.6707 196.998 83.6757 198.016C83.6707 198.912 82.9771 199.524 81.9342 199.646V200.608C82.7695 200.567 83.62 200.496 84.4047 200.385L84.4554 200.993C82.4911 201.327 80.3649 201.347 78.7854 201.347L78.6537 200.669ZM78.8157 195.819V195.171H81.1344V194.087H81.9342V195.171H84.2427V195.819H78.8157ZM80.1522 198.016C80.1573 198.638 80.704 199.049 81.5394 199.038C82.3595 199.049 82.9113 198.638 82.9164 198.016C82.9113 197.388 82.3595 196.963 81.5394 196.963C80.704 196.963 80.1573 197.388 80.1522 198.016ZM95.1879 194.077V200.739H94.388V197.277H92.2617V199.2H88.1814V194.675H88.9711V196.274H91.4821V194.675H92.2617V196.608H94.388V194.077H95.1879ZM88.9711 198.542H91.4821V196.902H88.9711V198.542ZM89.366 202.876V200.081H90.1659V202.208H95.3904V202.876H89.366ZM104.462 195.404V196.062H97.0914V195.404H100.392V194.219H101.172V195.404H104.462ZM96.6864 202.015V201.357H100.392V200.091C98.7873 200.005 97.8204 199.383 97.8305 198.37C97.8204 197.302 98.9493 196.669 100.787 196.679C102.599 196.669 103.749 197.302 103.743 198.37C103.749 199.383 102.761 200.005 101.172 200.091V201.357H104.928V202.015H96.6864ZM98.6304 198.37C98.6202 199.054 99.4454 199.448 100.787 199.454C102.113 199.448 102.939 199.054 102.933 198.37C102.939 197.702 102.113 197.307 100.787 197.307C99.4454 197.307 98.6202 197.702 98.6304 198.37Z" fill="#131214"/>
<path d="M120.951 202.349C119.256 202.349 118.258 200.982 118.258 198.583C118.258 196.198 119.266 194.816 120.951 194.816C122.632 194.816 123.64 196.198 123.645 198.583C123.64 200.982 122.647 202.349 120.951 202.349ZM119.372 198.583C119.367 200.41 119.959 201.387 120.951 201.387C121.939 201.387 122.531 200.41 122.531 198.583C122.531 196.76 121.934 195.763 120.951 195.758C119.964 195.763 119.372 196.76 119.372 198.583ZM127.583 194.918V202.248H126.459V196.031H126.419L124.667 197.175V196.112L126.49 194.918H127.583ZM131.998 202.349C130.302 202.349 129.305 200.982 129.305 198.583C129.305 196.198 130.312 194.816 131.998 194.816C133.679 194.816 134.686 196.198 134.691 198.583C134.686 200.982 133.694 202.349 131.998 202.349ZM130.418 198.583C130.413 200.41 131.006 201.387 131.998 201.387C132.985 201.387 133.577 200.41 133.577 198.583C133.577 196.76 132.98 195.763 131.998 195.758C131.011 195.763 130.418 196.76 130.418 198.583ZM139.095 198.117V199.049H135.845V198.117H139.095ZM143.176 194.918V202.248H142.052V196.031H142.011L140.26 197.175V196.112L142.082 194.918H143.176ZM145.039 202.248V201.438L147.58 198.876C148.385 198.041 148.785 197.575 148.785 196.932C148.785 196.208 148.198 195.748 147.428 195.748C146.613 195.748 146.097 196.264 146.092 197.044H145.039C145.029 195.702 146.051 194.816 147.449 194.816C148.861 194.816 149.838 195.712 149.848 196.902C149.838 197.722 149.453 198.375 148.076 199.727L146.588 201.236V201.296H149.97V202.248H145.039ZM153.807 202.349C152.288 202.349 151.21 201.534 151.164 200.334H152.298C152.339 200.977 152.977 201.387 153.797 201.387C154.683 201.387 155.326 200.906 155.326 200.193C155.326 199.469 154.723 198.952 153.675 198.947H153.048V198.036H153.675C154.511 198.041 155.093 197.575 155.093 196.872C155.093 196.203 154.592 195.748 153.817 195.748C153.083 195.748 152.425 196.158 152.4 196.821H151.326C151.357 195.626 152.46 194.816 153.827 194.816C155.27 194.816 156.176 195.728 156.166 196.811C156.176 197.646 155.66 198.244 154.87 198.441V198.492C155.873 198.633 156.455 199.307 156.45 200.233C156.455 201.453 155.326 202.349 153.807 202.349ZM157.513 200.82V199.919L160.753 194.918H162.13V199.879H163.132V200.82H162.13V202.248H161.077V200.82H157.513ZM158.687 199.879H161.077V196.244H160.996L158.687 199.818V199.879ZM167.506 198.117V199.049H164.256V198.117H167.506ZM171.293 202.349C169.906 202.349 168.863 201.504 168.812 200.334H169.896C169.956 200.957 170.554 201.413 171.293 201.418C172.184 201.413 172.822 200.77 172.822 199.899C172.822 199.008 172.164 198.36 171.242 198.35C170.655 198.35 170.205 198.547 169.956 198.998H168.903L169.379 194.918H173.531V195.869H170.301L170.058 197.925H170.129C170.432 197.631 170.949 197.434 171.506 197.429C172.888 197.434 173.905 198.456 173.905 199.869C173.905 201.311 172.822 202.349 171.293 202.349ZM177.743 202.349C176.386 202.339 174.968 201.534 174.968 198.826C174.973 196.274 176.077 194.816 177.834 194.816C179.185 194.816 180.122 195.657 180.294 196.821H179.19C179.044 196.224 178.573 195.793 177.834 195.788C176.7 195.793 176.042 196.775 176.042 198.431H176.123C176.523 197.808 177.211 197.444 178.006 197.439C179.312 197.444 180.365 198.446 180.365 199.848C180.365 201.271 179.317 202.359 177.743 202.349ZM176.173 199.879C176.178 200.694 176.831 201.413 177.732 201.418C178.618 201.413 179.282 200.724 179.282 199.869C179.282 199.028 178.644 198.345 177.763 198.35C176.867 198.345 176.183 199.064 176.173 199.879ZM181.803 202.248L185.073 195.93V195.869H181.296V194.918H186.227V195.91L182.967 202.248H181.803ZM189.771 202.349C188.176 202.349 187.068 201.489 187.078 200.294C187.068 199.352 187.741 198.583 188.607 198.451V198.411C187.852 198.239 187.351 197.57 187.351 196.77C187.351 195.641 188.369 194.816 189.771 194.816C191.153 194.816 192.176 195.641 192.181 196.77C192.176 197.57 191.664 198.239 190.925 198.411V198.451C191.781 198.583 192.459 199.352 192.464 200.294C192.459 201.489 191.34 202.349 189.771 202.349ZM188.212 200.213C188.197 200.932 188.804 201.428 189.771 201.428C190.723 201.428 191.33 200.932 191.33 200.213C191.33 199.459 190.672 198.907 189.771 198.907C188.86 198.907 188.197 199.459 188.212 200.213ZM188.435 196.872C188.44 197.555 188.986 198.031 189.771 198.026C190.536 198.031 191.092 197.56 191.087 196.872C191.092 196.188 190.556 195.722 189.771 195.728C188.966 195.722 188.44 196.188 188.435 196.872Z" fill="#131214"/>
<rect x="60.692" y="226.004" width="221.616" height="80.6" rx="4.86" fill="#F2F7FE"/>
<rect x="60.692" y="226.004" width="221.616" height="80.6" rx="4.86" stroke="#8FBCFF" stroke-width="0.648"/>
<path d="M75.534 238.778V239.803H74.6227V242.725C74.9986 242.696 75.3745 242.662 75.7276 242.617V241.694H77.14V240.806H75.7276V239.792H77.14V238.06H78.4044V244.371H77.14V242.708H75.7561L75.8073 243.551C73.8424 243.875 71.57 243.909 69.9298 243.915L69.7931 242.867C70.1519 242.867 70.5449 242.867 70.9549 242.862V239.803H70.0551V238.778H75.534ZM71.4219 246.455C71.4106 245.242 72.7376 244.553 74.9189 244.553C77.1173 244.553 78.4329 245.242 78.4386 246.455C78.4329 247.64 77.1173 248.346 74.9189 248.346C72.7376 248.346 71.4106 247.64 71.4219 246.455ZM72.1851 242.844C72.5838 242.833 72.9938 242.816 73.4039 242.799V239.803H72.1851V242.844ZM72.6749 246.455C72.6692 247.053 73.4779 247.367 74.9189 247.367C76.3655 247.367 77.1742 247.053 77.1742 246.455C77.1742 245.846 76.3655 245.521 74.9189 245.521C73.4779 245.521 72.6692 245.846 72.6749 246.455ZM87.927 238.06V242.081H89.4533V243.141H87.927V248.335H86.6626V238.06H87.927ZM79.8054 245.521C82.3114 244.268 83.6669 242.526 83.9175 240.179H80.3636V239.131H85.2046C85.1989 242.155 83.9459 244.815 80.5231 246.501L79.8054 245.521ZM96.4016 239.849C96.4016 241.119 97.216 242.366 98.8392 242.901L98.2013 243.881C97.0452 243.494 96.2307 242.725 95.7808 241.762C95.3252 242.816 94.4709 243.653 93.2692 244.063L92.5971 243.084C94.2544 242.531 95.1258 241.199 95.1258 239.849V239.723H92.9502V238.71H98.543V239.723H96.4016V239.849ZM93.9754 245.76V244.747H100.833V248.358H99.5682V245.76H93.9754ZM99.5682 244.268V238.06H100.833V240.635H102.268V241.694H100.833V244.268H99.5682ZM106.562 239.541C106.556 240.942 107.376 242.224 108.988 242.731L108.305 243.722C107.183 243.323 106.397 242.571 105.958 241.597C105.503 242.719 104.643 243.602 103.395 244.04L102.723 243.015C104.426 242.457 105.281 241.085 105.286 239.598V238.619H106.562V239.541ZM104.432 246.376C104.421 245.123 105.759 244.388 107.929 244.394C110.11 244.388 111.443 245.123 111.449 246.376C111.443 247.629 110.11 248.346 107.929 248.346C105.759 248.346 104.421 247.629 104.432 246.376ZM105.685 246.376C105.679 247.002 106.499 247.349 107.929 247.355C109.37 247.349 110.184 247.002 110.184 246.376C110.184 245.726 109.37 245.379 107.929 245.373C106.499 245.379 105.679 245.726 105.685 246.376ZM108.1 241.09V240.054H110.15V238.06H111.414V244.12H110.15V241.09H108.1ZM116.563 240.988C116.557 242.577 117.514 244.388 119.137 245.145L118.431 246.148C117.269 245.601 116.409 244.496 115.948 243.209C115.481 244.621 114.581 245.829 113.396 246.398L112.656 245.407C114.296 244.627 115.293 242.702 115.299 240.988V240.122H113.055V239.074H118.716V240.122H116.563V240.988ZM119.673 248.358V238.06H120.937V242.07H122.52V243.129H120.937V248.358H119.673Z" fill="#131214"/>
<line x1="69.44" y1="258.092" x2="273.56" y2="258.092" stroke="#131214" stroke-opacity="0.1" stroke-width="0.648"/>
<path d="M77.2261 268.307V277.329H76.4262V268.307H77.2261ZM70.1386 272.145C70.1437 270.231 71.0954 269.011 72.437 269.006C73.7735 269.011 74.7404 270.231 74.7354 272.145C74.7404 274.063 73.7735 275.278 72.437 275.273C71.0954 275.278 70.1437 274.063 70.1386 272.145ZM70.9081 272.145C70.9081 273.608 71.5359 274.57 72.437 274.565C73.3432 274.57 73.9659 273.608 73.9659 272.145C73.9659 270.682 73.3432 269.72 72.437 269.715C71.5359 269.72 70.9081 270.682 70.9081 272.145ZM86.9967 272.955V273.613H78.755V272.955H86.9967ZM79.7979 269.168V268.53H85.9336V270.656H80.618V271.557H86.126V272.175H79.8282V270.059H85.1337V269.168H79.7979ZM79.8789 277.187V274.433H85.9336V277.187H79.8789ZM80.6585 276.539H85.154V275.081H80.6585V276.539Z" fill="#131214"/>
<path d="M122.721 274.544C124.741 274.549 125.885 275.045 125.89 275.972C125.885 276.898 124.741 277.379 122.721 277.379C120.676 277.379 119.532 276.898 119.532 275.972C119.532 275.045 120.676 274.549 122.721 274.544ZM118.56 274.119V273.238H122.164V272.686C120.575 272.605 119.684 272.165 119.684 271.395C119.684 270.53 120.782 270.084 122.721 270.079C124.68 270.084 125.764 270.53 125.769 271.395C125.764 272.165 124.888 272.605 123.288 272.686V273.238H126.903V274.119H118.56ZM118.975 269.796V268.935H122.164V268.145H123.288V268.935H126.447V269.796H118.975ZM120.686 275.972C120.686 276.372 121.359 276.559 122.721 276.549C124.068 276.559 124.751 276.372 124.756 275.972C124.751 275.572 124.068 275.375 122.721 275.375C121.359 275.375 120.686 275.572 120.686 275.972ZM120.888 271.395C120.888 271.745 121.511 271.927 122.721 271.932C123.951 271.927 124.559 271.745 124.564 271.395C124.559 271.021 123.951 270.849 122.721 270.849C121.511 270.849 120.888 271.021 120.888 271.395ZM135.144 268.236V272.874H134.01V268.236H135.144ZM127.662 272.145C129.935 271.699 130.998 270.742 131.13 269.522H128.148V268.611H132.38C132.375 271.066 130.892 272.459 128.057 273.056L127.662 272.145ZM129.069 274.129V273.248H135.144V275.638H130.224V276.417H135.418V277.298H129.09V274.818H134.01V274.129H129.069ZM144.834 272.621V273.522H136.481V272.621H140.106V271.75H137.504V268.652H143.822V269.532H138.627V270.859H143.872V271.75H141.209V272.621H144.834ZM137.453 275.719C137.453 274.646 138.653 274.043 140.642 274.048C142.617 274.043 143.806 274.646 143.811 275.719C143.806 276.782 142.617 277.384 140.642 277.389C138.653 277.384 137.453 276.782 137.453 275.719ZM138.597 275.719C138.592 276.25 139.311 276.524 140.642 276.519C141.954 276.524 142.677 276.25 142.688 275.719C142.677 275.192 141.954 274.909 140.642 274.909C139.311 274.909 138.592 275.192 138.597 275.719Z" fill="#131214"/>
<path d="M77.2666 286.093V292.694H76.4667V289.242H74.6139V288.584H76.4667V286.093H77.2666ZM69.845 290.892C71.1714 290.426 72.1332 289.237 72.1332 287.946V287.48H70.0981V286.822H74.948V287.48H72.9331V287.946C72.9331 289.11 73.8342 290.239 75.1505 290.69L74.7354 291.327C73.7229 290.958 72.9382 290.204 72.5484 289.272C72.1585 290.315 71.3283 291.14 70.2601 291.54L69.845 290.892ZM71.4852 294.891V292.097H72.2851V294.223H77.5197V294.891H71.4852ZM85.7514 286.083V289.92H87.1891V290.588H85.7514V295.084H84.9515V286.083H85.7514ZM78.6537 292.684C79.3878 292.684 80.2434 292.679 81.1344 292.654V291.662C80.0864 291.54 79.403 290.922 79.4131 290.031C79.403 289.014 80.2636 288.356 81.5394 288.361C82.7949 288.356 83.6707 289.014 83.6757 290.031C83.6707 290.927 82.9771 291.54 81.9342 291.662V292.623C82.7695 292.583 83.62 292.512 84.4047 292.401L84.4554 293.008C82.4911 293.342 80.3649 293.363 78.7854 293.363L78.6537 292.684ZM78.8157 287.834V287.186H81.1344V286.103H81.9342V287.186H84.2427V287.834H78.8157ZM80.1522 290.031C80.1573 290.654 80.704 291.064 81.5394 291.054C82.3595 291.064 82.9113 290.654 82.9164 290.031C82.9113 289.404 82.3595 288.978 81.5394 288.978C80.704 288.978 80.1573 289.404 80.1522 290.031ZM95.1879 286.093V292.755H94.388V289.292H92.2617V291.216H88.1814V286.69H88.9711V288.29H91.4821V286.69H92.2617V288.624H94.388V286.093H95.1879ZM88.9711 290.558H91.4821V288.918H88.9711V290.558ZM89.366 294.891V292.097H90.1659V294.223H95.3904V294.891H89.366ZM104.462 287.419V288.077H97.0914V287.419H100.392V286.235H101.172V287.419H104.462ZM96.6864 294.031V293.373H100.392V292.107C98.7873 292.021 97.8204 291.398 97.8305 290.386C97.8204 289.318 98.9493 288.685 100.787 288.695C102.599 288.685 103.749 289.318 103.743 290.386C103.749 291.398 102.761 292.021 101.172 292.107V293.373H104.928V294.031H96.6864ZM98.6304 290.386C98.6202 291.069 99.4454 291.464 100.787 291.469C102.113 291.464 102.939 291.069 102.933 290.386C102.939 289.718 102.113 289.323 100.787 289.323C99.4454 289.323 98.6202 289.718 98.6304 290.386Z" fill="#131214"/>
<path d="M121.063 294.365C119.296 294.365 118.243 292.998 118.248 290.598C118.243 288.209 119.306 286.832 121.063 286.832C122.82 286.832 123.878 288.209 123.878 290.598C123.878 293.003 122.825 294.365 121.063 294.365ZM119.574 290.598C119.574 292.36 120.141 293.256 121.063 293.261C121.979 293.256 122.551 292.36 122.551 290.598C122.546 288.852 121.979 287.93 121.063 287.925C120.147 287.93 119.58 288.852 119.574 290.598ZM127.958 286.933V294.264H126.632V288.219H126.591L124.88 289.313V288.108L126.692 286.933H127.958ZM132.443 294.365C130.677 294.365 129.624 292.998 129.629 290.598C129.624 288.209 130.687 286.832 132.443 286.832C134.2 286.832 135.258 288.209 135.258 290.598C135.258 293.003 134.205 294.365 132.443 294.365ZM130.955 290.598C130.955 292.36 131.522 293.256 132.443 293.261C133.36 293.256 133.932 292.36 133.932 290.598C133.927 288.852 133.36 287.93 132.443 287.925C131.527 287.93 130.96 288.852 130.955 290.598ZM139.703 290.072V291.135H136.402V290.072H139.703ZM143.935 286.933V294.264H142.609V288.219H142.568L140.857 289.313V288.108L142.67 286.933H143.935ZM145.717 294.264V293.312L148.309 290.811C149.048 290.072 149.433 289.637 149.433 289.019C149.433 288.335 148.891 287.905 148.178 287.905C147.423 287.905 146.937 288.376 146.942 289.12H145.687C145.682 287.733 146.725 286.832 148.188 286.832C149.686 286.832 150.694 287.728 150.699 288.958C150.694 289.783 150.299 290.452 148.856 291.813L147.55 293.109V293.16H150.81V294.264H145.717ZM154.627 294.365C153.063 294.365 151.944 293.514 151.914 292.279H153.24C153.276 292.866 153.863 293.256 154.627 293.251C155.432 293.256 156.014 292.811 156.014 292.158C156.014 291.5 155.447 291.029 154.496 291.024H153.837V290.011H154.496C155.275 290.011 155.817 289.576 155.812 288.938C155.817 288.32 155.351 287.905 154.637 287.905C153.949 287.905 153.357 288.29 153.331 288.908H152.066C152.096 287.677 153.215 286.832 154.647 286.832C156.136 286.832 157.098 287.743 157.088 288.867C157.098 289.687 156.551 290.279 155.751 290.447V290.507C156.784 290.644 157.371 291.307 157.361 292.229C157.371 293.469 156.212 294.365 154.627 294.365ZM158.384 292.897V291.844L161.553 286.933H163.193V291.813H164.155V292.897H163.193V294.264H161.937V292.897H158.384ZM159.73 291.813H161.958V288.432H161.877L159.73 291.763V291.813ZM168.549 290.072V291.135H165.248V290.072H168.549ZM172.407 294.365C170.944 294.365 169.865 293.489 169.825 292.279H171.111C171.151 292.871 171.713 293.297 172.407 293.302C173.227 293.297 173.819 292.704 173.814 291.894C173.819 291.054 173.212 290.462 172.366 290.457C171.794 290.452 171.379 290.654 171.151 291.084H169.926L170.372 286.933H174.705V288.037H171.455L171.232 289.981H171.303C171.587 289.662 172.118 289.429 172.721 289.424C174.082 289.429 175.095 290.441 175.09 291.854C175.095 293.317 173.991 294.365 172.407 294.365ZM178.947 294.365C177.515 294.355 176.087 293.504 176.092 290.801C176.092 288.295 177.231 286.832 179.028 286.832C180.441 286.832 181.413 287.718 181.58 288.908H180.274C180.142 288.346 179.697 287.971 179.028 287.976C177.965 287.971 177.373 288.913 177.368 290.457H177.439C177.813 289.824 178.517 289.449 179.322 289.454C180.638 289.449 181.656 290.447 181.651 291.834C181.656 293.292 180.567 294.375 178.947 294.365ZM177.51 291.874C177.52 292.639 178.117 293.297 178.947 293.302C179.763 293.297 180.37 292.669 180.375 291.864C180.37 291.084 179.783 290.457 178.968 290.457C178.143 290.457 177.52 291.11 177.51 291.874ZM183.038 294.264L186.217 288.087V288.037H182.532V286.933H187.584V288.057L184.405 294.264H183.038ZM191.168 294.365C189.533 294.365 188.379 293.494 188.384 292.299C188.379 291.368 189.072 290.609 189.953 290.467V290.426C189.184 290.264 188.662 289.596 188.657 288.796C188.662 287.662 189.72 286.832 191.168 286.832C192.606 286.832 193.669 287.662 193.669 288.796C193.669 289.601 193.133 290.264 192.373 290.426V290.467C193.249 290.609 193.948 291.368 193.953 292.299C193.948 293.494 192.788 294.365 191.168 294.365ZM189.741 292.178C189.736 292.856 190.298 293.322 191.168 293.322C192.029 293.322 192.591 292.856 192.596 292.178C192.591 291.489 191.994 290.978 191.168 290.983C190.343 290.978 189.736 291.484 189.741 292.178ZM189.943 288.918C189.948 289.561 190.455 290.001 191.168 290.001C191.872 290.001 192.383 289.561 192.383 288.918C192.383 288.295 191.887 287.865 191.168 287.865C190.434 287.865 189.948 288.295 189.943 288.918Z" fill="#131214"/>
<rect x="50" y="326.768" width="243" height="9.072" fill="#70737C" fill-opacity="0.08"/>
<rect width="243" height="34.992" transform="translate(50 41)" fill="white"/>
<path d="M85.9999 55.4924C87.5221 55.5032 89.0389 56.4122 89.0443 59.2577C89.0443 61.9417 87.8287 63.4962 85.9138 63.4962C84.4131 63.4962 83.3749 62.5603 83.2028 61.2694H84.5906C84.7304 61.888 85.2092 62.2806 85.9138 62.2806C87.0434 62.2806 87.6781 61.2855 87.6888 59.6127H87.6028C87.2101 60.2904 86.4571 60.6938 85.6018 60.6885C84.2087 60.6938 83.1329 59.6342 83.1275 58.1604C83.1275 56.6381 84.2732 55.4817 85.9999 55.4924ZM84.4938 58.1281C84.4938 58.9672 85.1177 59.6234 85.9891 59.6234C86.8551 59.6234 87.5221 58.9242 87.5167 58.1173C87.5167 57.3266 86.882 56.6274 86.0106 56.622C85.1338 56.6274 84.483 57.2944 84.4938 58.1281ZM91.0668 62.4205C90.6042 62.4205 90.2223 62.0439 90.2277 61.5814C90.2223 61.1295 90.6042 60.7584 91.0668 60.753C91.5132 60.7584 91.8951 61.1295 91.8951 61.5814C91.8951 62.0439 91.5132 62.4205 91.0668 62.4205ZM90.2277 57.4073C90.2223 56.9555 90.6042 56.5844 91.0668 56.579C91.5132 56.5844 91.8951 56.9555 91.8951 57.4073C91.8951 57.8699 91.5132 58.2464 91.0668 58.2464C90.6042 58.2464 90.2223 57.8699 90.2277 57.4073ZM93.0677 61.9364V60.8176L96.4349 55.6H98.1777V60.7853H99.1997V61.9364H98.1777V63.3887H96.8437V61.9364H93.0677ZM94.4985 60.7853H96.8652V57.1922H96.7792L94.4985 60.7315V60.7853ZM103.374 55.6V63.3887H101.964V56.9663H101.921L100.103 58.1281V56.8479L102.029 55.6H103.374Z" fill="#131214"/>
<rect opacity="0.35" x="256.994" y="55.7322" width="15.552" height="7.776" rx="2.4624" stroke="#131214" stroke-width="0.648"/>
<path opacity="0.4" d="M273.518 58.5059V61.1468C274.039 60.9231 274.379 60.4028 274.379 59.8263C274.379 59.2498 274.039 58.7295 273.518 58.5059Z" fill="#131214"/>
<rect x="257.966" y="56.7051" width="13.608" height="5.832" rx="1.62" fill="#131214"/>
<path fill-rule="evenodd" clip-rule="evenodd" d="M246.477 57.4204C248.089 57.4205 249.639 58.018 250.807 59.0894C250.895 59.1722 251.035 59.1711 251.122 59.0871L251.963 58.2684C252.007 58.2258 252.031 58.168 252.031 58.108C252.03 58.0479 252.005 57.9905 251.961 57.9484C248.895 55.1136 244.059 55.1136 240.993 57.9484C240.949 57.9905 240.923 58.0479 240.923 58.1079C240.923 58.168 240.947 58.2257 240.991 58.2684L241.832 59.0871C241.918 59.1713 242.059 59.1723 242.147 59.0894C243.315 58.0179 244.865 57.4204 246.477 57.4204ZM246.475 60.1552C247.355 60.1551 248.203 60.4867 248.855 61.0855C248.943 61.1705 249.082 61.1687 249.168 61.0814L250.002 60.2265C250.046 60.1816 250.07 60.1208 250.07 60.0576C250.069 59.9944 250.043 59.9341 249.999 59.8901C248.013 58.0169 244.939 58.0169 242.953 59.8901C242.908 59.9341 242.883 59.9944 242.882 60.0576C242.882 60.1209 242.906 60.1817 242.95 60.2265L243.784 61.0814C243.87 61.1687 244.009 61.1705 244.097 61.0855C244.749 60.4871 245.596 60.1555 246.475 60.1552ZM248.111 61.9654C248.112 62.0336 248.088 62.0995 248.045 62.1473L246.634 63.738C246.593 63.7847 246.536 63.811 246.478 63.811C246.419 63.811 246.362 63.7847 246.321 63.738L244.91 62.1473C244.867 62.0994 244.843 62.0336 244.844 61.9653C244.845 61.8971 244.872 61.8324 244.917 61.7866C245.818 60.9352 247.137 60.9352 248.038 61.7866C248.083 61.8324 248.11 61.8971 248.111 61.9654Z" fill="#131214"/>
<path fill-rule="evenodd" clip-rule="evenodd" d="M236.064 56.4967C236.064 56.0864 235.754 55.7539 235.372 55.7539H234.681C234.299 55.7539 233.99 56.0864 233.99 56.4967V62.9339C233.99 63.3441 234.299 63.6766 234.681 63.6766H235.372C235.754 63.6766 236.064 63.3441 236.064 62.9339V56.4967ZM231.246 57.3384H231.937C232.319 57.3384 232.629 57.679 232.629 58.099V62.916C232.629 63.3361 232.319 63.6766 231.937 63.6766H231.246C230.865 63.6766 230.555 63.3361 230.555 62.916V58.099C230.555 57.679 230.865 57.3384 231.246 57.3384ZM228.439 59.055H227.748C227.366 59.055 227.057 59.3999 227.057 59.8253V62.9064C227.057 63.3318 227.366 63.6766 227.748 63.6766H228.439C228.821 63.6766 229.13 63.3318 229.13 62.9064V59.8253C229.13 59.3999 228.821 59.055 228.439 59.055ZM225.004 60.6396H224.313C223.931 60.6396 223.622 60.9795 223.622 61.3988V62.9174C223.622 63.3367 223.931 63.6766 224.313 63.6766H225.004C225.386 63.6766 225.696 63.3367 225.696 62.9174V61.3988C225.696 60.9795 225.386 60.6396 225.004 60.6396Z" fill="#131214"/>
<rect width="243" height="41.472" transform="translate(50 75.9922)" fill="white"/>
<path d="M153.723 92.9202C153.723 94.3314 154.628 95.7173 156.431 96.3121L155.722 97.4005C154.438 96.9702 153.533 96.1159 153.033 95.0465C152.527 96.2172 151.578 97.1474 150.242 97.603L149.496 96.5146C151.337 95.9008 152.305 94.42 152.305 92.9202V92.781H149.888V91.6546H156.102V92.781H153.723V92.9202ZM151.027 99.4888V98.3624H158.646V102.374H157.241V99.4888H151.027ZM157.241 97.8309V90.9332H158.646V93.7935H160.241V94.9705H158.646V97.8309H157.241ZM165.012 92.5785C165.006 94.1352 165.917 95.5591 167.708 96.1223L166.949 97.2234C165.702 96.7804 164.829 95.9451 164.341 94.863C163.835 96.1096 162.88 97.0905 161.494 97.5777L160.747 96.4387C162.639 95.8185 163.588 94.2934 163.595 92.6418V91.5534H165.012V92.5785ZM162.645 100.172C162.633 98.7801 164.12 97.9638 166.531 97.9701C168.955 97.9638 170.435 98.7801 170.442 100.172C170.435 101.564 168.955 102.362 166.531 102.362C164.12 102.362 162.633 101.564 162.645 100.172ZM164.038 100.172C164.031 100.868 164.943 101.254 166.531 101.261C168.132 101.254 169.037 100.868 169.037 100.172C169.037 99.4509 168.132 99.0648 166.531 99.0585C164.943 99.0648 164.031 99.4509 164.038 100.172ZM166.721 94.2998V93.148H168.999V90.9332H170.404V97.6663H168.999V94.2998H166.721ZM180.984 90.9332V95.4895H182.744V96.6538H180.984V102.374H179.592V90.9332H180.984ZM171.96 93.8188V92.6924H174.669V91.0977H176.074V92.6924H178.706V93.8188H171.96ZM172.492 97.2613C172.479 95.6793 173.707 94.5592 175.378 94.5655C177.023 94.5592 178.244 95.6793 178.251 97.2613C178.244 98.837 177.023 99.9445 175.378 99.9445C173.707 99.9445 172.479 98.837 172.492 97.2613ZM173.834 97.2613C173.827 98.1916 174.479 98.7864 175.378 98.7801C176.257 98.7864 176.896 98.1916 176.909 97.2613C176.896 96.3311 176.257 95.7173 175.378 95.7173C174.479 95.7173 173.827 96.3311 173.834 97.2613ZM192.78 90.9332V102.374H191.362V90.9332H192.78ZM183.3 99.223C186.3 97.7992 187.679 95.8628 187.933 93.262H183.883V92.1482H189.363C189.363 95.5527 188.04 98.4447 184.034 100.349L183.3 99.223Z" fill="#131214"/>
<path d="M68.792 101.913L63.8798 97.3399C63.5174 97.0024 63.5174 96.4554 63.8798 96.118L68.792 91.5449" stroke="#131214" stroke-width="0.972" stroke-linecap="round"/>
<g opacity="0.7">
<rect width="243" height="526.176" transform="translate(50 41)" fill="black" fill-opacity="0.7"/>
</g>
<rect x="60.368" y="140" width="222.264" height="154.808" rx="10.368" fill="white"/>
<rect x="160.547" y="154.642" width="21.9068" height="21.9068" rx="10.9534" stroke="#04B014" stroke-width="0.773182"/>
<path d="M176.225 162.613L170.563 168.275C170.102 168.736 169.354 168.736 168.893 168.275L166.775 166.157" stroke="#04B014" stroke-width="1.06313" stroke-linecap="round" stroke-linejoin="round"/>
<path d="M123.745 189.513C123.745 190.783 124.559 192.03 126.182 192.565L125.544 193.545C124.388 193.158 123.574 192.389 123.124 191.426C122.668 192.48 121.814 193.317 120.612 193.727L119.94 192.748C121.598 192.195 122.469 190.863 122.469 189.513V189.387H120.293V188.374H125.886V189.387H123.745V189.513ZM121.319 195.425V194.411H128.176V198.022H126.911V195.425H121.319ZM126.911 193.932V187.724H128.176V190.299H129.611V191.358H128.176V193.932H126.911ZM133.905 189.205C133.9 190.606 134.72 191.888 136.331 192.395L135.648 193.386C134.526 192.987 133.74 192.235 133.302 191.261C132.846 192.383 131.986 193.266 130.739 193.705L130.067 192.679C131.769 192.121 132.624 190.749 132.629 189.262V188.283H133.905V189.205ZM131.775 196.04C131.764 194.787 133.102 194.052 135.272 194.058C137.453 194.052 138.786 194.787 138.792 196.04C138.786 197.293 137.453 198.01 135.272 198.01C133.102 198.01 131.764 197.293 131.775 196.04ZM133.028 196.04C133.022 196.666 133.843 197.014 135.272 197.019C136.713 197.014 137.527 196.666 137.527 196.04C137.527 195.39 136.713 195.043 135.272 195.037C133.843 195.043 133.022 195.39 133.028 196.04ZM135.443 190.754V189.718H137.493V187.724H138.758V193.784H137.493V190.754H135.443ZM144.897 187.884C147.244 187.89 148.605 188.51 148.611 189.649C148.605 190.8 147.244 191.421 144.897 191.426C142.556 191.421 141.184 190.8 141.184 189.649C141.184 188.51 142.556 187.89 144.897 187.884ZM140.216 192.987V191.973H149.601V192.987H140.216ZM141.321 194.616V193.682H148.428V196.199H142.573V196.962H148.713V197.93H141.332V195.299H147.187V194.616H141.321ZM142.517 189.649C142.511 190.219 143.331 190.481 144.897 190.481C146.486 190.481 147.301 190.219 147.301 189.649C147.301 189.12 146.486 188.818 144.897 188.818C143.331 188.818 142.511 189.12 142.517 189.649ZM156.174 188.169C157.677 188.169 158.748 189.006 158.76 190.242C158.748 191.267 157.979 192.036 156.835 192.247V193.078C157.695 193.027 158.555 192.953 159.352 192.839L159.454 193.761C157.313 194.143 154.921 194.189 153.178 194.183L153.041 193.169C153.782 193.169 154.648 193.163 155.559 193.135V192.252C154.38 192.053 153.594 191.284 153.6 190.242C153.594 189.006 154.665 188.169 156.174 188.169ZM154.454 197.805V194.901H155.718V196.78H161.584V197.805H154.454ZM154.784 190.242C154.773 190.92 155.354 191.341 156.174 191.347C157 191.341 157.558 190.92 157.564 190.242C157.558 189.547 157 189.137 156.174 189.137C155.354 189.137 154.773 189.547 154.784 190.242ZM159.956 195.595V187.736H161.22V191.062H162.61V192.11H161.22V195.595H159.956ZM172.554 195.778V196.826H163.145V195.778H165.639V194.08H164.261V190.72H170.184V189.456H164.238V188.431H171.437V191.734H165.526V193.055H171.677V194.08H170.173V195.778H172.554ZM166.87 195.778H168.931V194.08H166.87V195.778ZM181.29 187.724V191.825H182.874V192.873H181.29V198.022H180.037V187.724H181.29ZM173.169 190.322V189.308H175.606V187.873H176.871V189.308H179.24V190.322H173.169ZM173.647 193.42C173.636 191.996 174.741 190.988 176.244 190.994C177.725 190.988 178.824 191.996 178.83 193.42C178.824 194.838 177.725 195.835 176.244 195.835C174.741 195.835 173.636 194.838 173.647 193.42ZM174.855 193.42C174.849 194.257 175.435 194.792 176.244 194.787C177.036 194.792 177.611 194.257 177.622 193.42C177.611 192.583 177.036 192.03 176.244 192.03C175.435 192.03 174.849 192.583 174.855 193.42ZM187.077 194.422C187.065 195.288 187.458 196.188 188.347 196.763C189.241 196.142 189.64 195.191 189.651 194.422V193.887H190.893V194.422C190.887 195.481 191.519 196.518 192.897 196.951L192.259 197.885C191.263 197.537 190.602 196.877 190.249 196.051C189.913 196.865 189.298 197.6 188.352 197.976C187.396 197.617 186.786 196.922 186.45 196.097C186.08 196.883 185.431 197.537 184.48 197.885L183.864 196.951C185.197 196.495 185.841 195.425 185.846 194.422V193.887H187.077V194.422ZM183.443 190.72C183.443 189.279 184.605 188.243 186.165 188.248C186.98 188.243 187.697 188.545 188.187 189.046H190.665V187.724H191.929V193.534H190.665V192.349H188.216C187.726 192.862 186.997 193.175 186.165 193.169C184.605 193.175 183.443 192.15 183.443 190.72ZM184.662 190.72C184.656 191.569 185.294 192.11 186.165 192.11C187.014 192.11 187.646 191.569 187.646 190.72C187.646 189.866 187.014 189.308 186.165 189.308C185.294 189.308 184.656 189.866 184.662 190.72ZM188.774 190.06C188.831 190.27 188.865 190.487 188.865 190.72C188.865 190.931 188.837 191.13 188.785 191.324H190.665V190.06H188.774ZM195.768 193.898V194.878H200.301V193.898H201.566V197.896H194.515V193.898H195.768ZM193.387 193.317V192.281H202.773V193.317H193.387ZM193.865 190.743C196.018 190.475 197.425 189.37 197.431 188.226V187.838H198.729V188.226C198.729 189.336 200.142 190.492 202.272 190.743L201.828 191.745C200.102 191.512 198.741 190.743 198.08 189.701C197.414 190.749 196.047 191.512 194.332 191.745L193.865 190.743ZM195.768 196.894H200.301V195.846H195.768V196.894ZM212.056 187.724V198.022H210.803V187.724H212.056ZM204.06 195.436V188.727H205.313V194.354C206.754 194.331 208.292 194.206 209.881 193.887L210.04 194.946C208.229 195.322 206.549 195.442 204.949 195.436H204.06ZM221.613 187.724V191.631H223.196V192.668H221.613V198.033H220.349V187.724H221.613ZM213.97 195.516V188.704H218.788V189.729H215.234V194.456C216.835 194.451 218.105 194.371 219.517 194.126L219.665 195.197C218.065 195.47 216.681 195.516 214.824 195.516H213.97Z" fill="#131214"/>
<path d="M93.8681 216.191V209.319H96.2032C97.8121 209.319 98.5478 210.278 98.5478 211.502C98.5478 212.722 97.8121 213.695 96.2127 213.695H94.7224V216.191H93.8681ZM94.7224 212.936H96.1747C97.2711 212.936 97.6982 212.319 97.703 211.502C97.6982 210.681 97.2711 210.078 96.1652 210.078H94.7224V212.936ZM104.433 211.483C104.234 210.534 103.422 210.021 102.516 210.021C101.272 210.021 100.309 210.98 100.304 212.755C100.309 214.526 101.272 215.484 102.516 215.489C103.422 215.484 104.229 214.976 104.433 214.037H105.287C105.04 215.442 103.911 216.286 102.516 216.286C100.75 216.286 99.4733 214.929 99.478 212.755C99.4733 210.582 100.75 209.224 102.516 209.224C103.906 209.224 105.031 210.055 105.287 211.483H104.433ZM113.783 212.442V213.031H106.056V212.442H113.783ZM106.986 214.264V213.704H112.815V215.498H107.746V216.305H113.09V216.846H106.996V214.986H112.074V214.264H106.986ZM107.034 209.319V208.778H112.786V210.525H107.803V211.265H112.938V211.806H107.062V210.012H112.036V209.319H107.034ZM124.594 213.002V213.61H116.896V213.002H120.37V212.167H117.921V208.769H123.636V209.376H118.671V210.164H123.408V210.733H118.671V211.569H123.683V212.167H121.111V213.002H124.594ZM117.836 215.593C117.831 214.715 118.88 214.236 120.75 214.246C122.601 214.236 123.645 214.715 123.655 215.593C123.645 216.481 122.601 216.941 120.75 216.941C118.88 216.941 117.831 216.481 117.836 215.593ZM118.586 215.593C118.576 216.106 119.355 216.372 120.75 216.362C122.131 216.372 122.9 216.106 122.905 215.593C122.9 215.09 122.131 214.81 120.75 214.806C119.355 214.81 118.576 215.09 118.586 215.593ZM129.521 209.984V210.591H125.287V209.984H127.043V208.778H127.784V209.984H129.521ZM125.591 213.078C125.591 211.958 126.355 211.165 127.404 211.161C128.467 211.165 129.227 211.958 129.236 213.078C129.227 214.212 128.467 215.01 127.404 215.014C126.355 215.01 125.591 214.212 125.591 213.078ZM126.255 213.078C126.255 213.828 126.735 214.364 127.404 214.359C128.078 214.364 128.572 213.828 128.572 213.078C128.572 212.338 128.078 211.797 127.404 211.787C126.735 211.797 126.255 212.338 126.255 213.078ZM129.957 216.543V208.731H130.66V212.081H131.78V208.522H132.492V216.96H131.78V212.698H130.66V216.543H129.957ZM143.114 208.531V214.701H142.373V208.531H143.114ZM136.346 211.189C136.341 209.974 137.295 209.124 138.557 209.12C139.82 209.124 140.764 209.974 140.769 211.189C140.764 212.418 139.82 213.273 138.557 213.268C137.295 213.273 136.341 212.418 136.346 211.189ZM137.077 211.189C137.067 212.029 137.703 212.613 138.557 212.613C139.397 212.613 140.038 212.029 140.038 211.189C140.038 210.363 139.397 209.775 138.557 209.775C137.703 209.775 137.067 210.363 137.077 211.189ZM137.665 216.78V214.075H138.405V216.153H143.379V216.78H137.665ZM147.376 210.79C147.376 212.276 148.358 213.809 149.559 214.397L149.103 214.995C148.173 214.511 147.395 213.51 147.02 212.338C146.645 213.581 145.847 214.649 144.898 215.157L144.424 214.559C145.658 213.951 146.635 212.333 146.645 210.79V209.253H147.376V210.79ZM150.337 216.96V208.522H151.078V211.948H152.492V212.594H151.078V216.96H150.337ZM157.684 209.167V209.784H156.82V212.485C157.209 212.456 157.594 212.423 157.959 212.376L157.997 212.945C156.35 213.197 154.433 213.225 153.061 213.22L152.966 212.594C153.303 212.594 153.669 212.594 154.058 212.589V209.784H153.204V209.167H157.684ZM154.314 215.423C154.31 214.459 155.377 213.909 157.143 213.913C158.909 213.909 159.972 214.459 159.972 215.423C159.972 216.386 158.909 216.941 157.143 216.941C155.377 216.941 154.31 216.386 154.314 215.423ZM154.779 212.575C155.211 212.565 155.658 212.551 156.099 212.527V209.784H154.779V212.575ZM155.055 215.423C155.05 216.011 155.843 216.353 157.143 216.353C158.439 216.353 159.231 216.011 159.231 215.423C159.231 214.844 158.439 214.492 157.143 214.492C155.843 214.492 155.05 214.844 155.055 215.423ZM157.77 212.167V211.55H159.193V210.657H157.77V210.04H159.193V208.522H159.943V213.733H159.193V212.167H157.77ZM167.879 208.522V211.958H169.246V212.584H167.879V216.96H167.138V208.522H167.879ZM161.405 214.768C163.583 213.685 164.77 212.058 164.941 210.059H161.794V209.433H165.696C165.691 211.82 164.571 213.999 161.823 215.356L161.405 214.768ZM175.045 210.088C175.05 211.213 175.876 212.238 177.124 212.67L176.744 213.249C175.781 212.907 175.045 212.219 174.685 211.346C174.324 212.304 173.55 213.049 172.558 213.41L172.16 212.831C173.422 212.385 174.305 211.298 174.314 210.088V209.727H172.387V209.12H176.944V209.727H175.045V210.088ZM173.261 214.663V214.056H178.785V216.96H178.045V214.663H173.261ZM178.045 213.61V208.522H178.785V210.752H180.057V211.388H178.785V213.61H178.045ZM183.493 209.851C183.484 211.056 184.343 212.115 185.582 212.537L185.164 213.116C184.234 212.769 183.503 212.081 183.137 211.194C182.777 212.205 182.008 212.988 180.987 213.372L180.579 212.765C181.88 212.309 182.743 211.189 182.753 209.879V209.006H183.493V209.851ZM181.956 215.366C181.951 214.35 183.028 213.766 184.784 213.771C186.536 213.766 187.613 214.35 187.613 215.366C187.613 216.372 186.536 216.941 184.784 216.941C183.028 216.941 181.951 216.372 181.956 215.366ZM182.696 215.366C182.691 215.978 183.489 216.348 184.784 216.343C186.075 216.348 186.873 215.978 186.873 215.366C186.873 214.734 186.075 214.359 184.784 214.359C183.489 214.359 182.691 214.734 182.696 215.366ZM184.955 210.952V210.335H186.835V208.522H187.584V213.524H186.835V210.952H184.955ZM192.834 208.674C194.708 208.674 195.809 209.191 195.814 210.126C195.809 211.085 194.708 211.602 192.834 211.607C190.949 211.602 189.844 211.085 189.844 210.126C189.844 209.191 190.949 208.674 192.834 208.674ZM188.989 212.784V212.176H196.678V212.784H188.989ZM189.92 214.084V213.515H195.691V215.404H190.679V216.277H195.947V216.865H189.939V214.853H194.96V214.084H189.92ZM190.622 210.126C190.612 210.714 191.434 211.037 192.834 211.037C194.234 211.037 195.05 210.714 195.055 210.126C195.05 209.571 194.234 209.238 192.834 209.234C191.434 209.238 190.612 209.571 190.622 210.126ZM202.402 208.92C203.636 208.92 204.495 209.585 204.5 210.591C204.495 211.464 203.816 212.091 202.8 212.219V213.045C203.588 213.002 204.39 212.931 205.126 212.822L205.183 213.382C203.394 213.7 201.372 213.728 199.915 213.723L199.82 213.106C200.475 213.111 201.244 213.106 202.051 213.078V212.224C201.006 212.11 200.309 211.479 200.314 210.591C200.309 209.585 201.168 208.92 202.402 208.92ZM201.016 210.591C201.006 211.232 201.581 211.668 202.402 211.673C203.228 211.668 203.792 211.232 203.797 210.591C203.792 209.936 203.228 209.499 202.402 209.499C201.581 209.499 201.006 209.936 201.016 210.591ZM201.054 216.77V214.426H201.804V216.144H206.721V216.77H201.054ZM205.667 214.986V208.531H206.417V211.388H207.679V212.024H206.417V214.986H205.667ZM215.957 215.29V215.916H208.23V215.29H210.404V213.685H209.198V211.085H214.248V209.765H209.179V209.148H214.979V211.702H209.939V213.068H215.178V213.685H213.859V215.29H215.957ZM211.135 215.29H213.128V213.685H211.135V215.29ZM220.845 209.984V210.591H216.612V209.984H218.368V208.778H219.108V209.984H220.845ZM216.915 213.078C216.915 211.958 217.679 211.165 218.728 211.161C219.791 211.165 220.551 211.958 220.56 213.078C220.551 214.212 219.791 215.01 218.728 215.014C217.679 215.01 216.915 214.212 216.915 213.078ZM217.58 213.078C217.58 213.828 218.059 214.364 218.728 214.359C219.402 214.364 219.896 213.828 219.896 213.078C219.896 212.338 219.402 211.797 218.728 211.787C218.059 211.797 217.58 212.338 217.58 213.078ZM221.282 216.543V208.731H221.984V212.081H223.104V208.522H223.816V216.96H223.104V212.698H221.984V216.543H221.282ZM229.293 209.718C229.288 210.847 230.793 211.806 232.264 212.024L231.989 212.613C230.674 212.39 229.388 211.687 228.875 210.672C228.363 211.687 227.077 212.39 225.781 212.613L225.487 212.024C226.953 211.806 228.453 210.847 228.458 209.718V209.661H225.753V209.053H231.989V209.661H229.293V209.718ZM225.031 213.951V213.334H232.72V213.951H229.227V216.96H228.496V213.951H225.031ZM236.431 210.79C236.427 212.333 237.475 213.88 238.719 214.445L238.263 215.033C237.3 214.568 236.469 213.567 236.066 212.366C235.677 213.638 234.846 214.706 233.859 215.204L233.384 214.578C234.642 214.003 235.681 212.39 235.691 210.79V209.253H236.431V210.79ZM239.64 216.979V208.522H240.39V216.979H239.64ZM246.104 209.262V210.012H248.078V208.531H248.828V214.692H248.078V212.442H246.104V213.201H242.231V209.262H246.104ZM242.971 212.603H245.373V209.879H242.971V212.603ZM243.37 216.78V214.141H244.12V216.153H249.018V216.78H243.37ZM246.104 211.825H248.078V210.638H246.104V211.825ZM121.291 230.252V230.878H113.564V230.252H115.482V227.978C114.76 227.603 114.324 226.996 114.324 226.227C114.324 224.922 115.605 224.063 117.409 224.053C119.212 224.063 120.494 224.922 120.494 226.227C120.494 226.982 120.071 227.58 119.374 227.955V230.252H121.291ZM115.045 226.227C115.04 227.171 116.023 227.803 117.409 227.803C118.78 227.803 119.772 227.171 119.772 226.227C119.772 225.283 118.78 224.661 117.409 224.67C116.023 224.661 115.04 225.283 115.045 226.227ZM116.213 230.252H118.624V228.244C118.258 228.339 117.85 228.391 117.409 228.391C116.977 228.391 116.573 228.344 116.213 228.249V230.252ZM124.841 225.335C124.846 226.384 125.752 227.333 126.996 227.698L126.635 228.277C125.657 227.983 124.879 227.347 124.495 226.517C124.134 227.437 123.36 228.163 122.354 228.496L121.993 227.926C123.232 227.508 124.105 226.479 124.11 225.335V225.154H122.202V224.556H124.11V223.484H124.86V224.556H126.749V225.154H124.841V225.335ZM123.332 230.404C123.327 229.421 124.404 228.861 126.161 228.866C127.912 228.861 128.989 229.421 128.989 230.404C128.989 231.381 127.912 231.941 126.161 231.941C124.404 231.941 123.327 231.381 123.332 230.404ZM124.072 230.404C124.068 230.992 124.865 231.353 126.161 231.353C127.456 231.353 128.249 230.992 128.249 230.404C128.249 229.801 127.456 229.454 126.161 229.445C124.865 229.454 124.068 229.801 124.072 230.404ZM126.483 226.559V225.942H128.211V223.522H128.961V228.638H128.211V226.559H126.483ZM133.223 226.113C133.213 227.466 134.191 228.956 135.415 229.54L134.988 230.128C134.039 229.663 133.237 228.666 132.857 227.523C132.468 228.761 131.623 229.853 130.679 230.337L130.223 229.749C131.438 229.155 132.482 227.551 132.492 226.113V225.012H130.527V224.395H135.121V225.012H133.223V226.113ZM136.156 231.96V223.522H136.896V226.939H138.311V227.575H136.896V231.96H136.156ZM145.999 223.522V231.96H145.278V223.522H145.999ZM138.871 227.167C138.875 225.373 139.587 224.238 140.684 224.234C141.709 224.238 142.402 225.226 142.497 226.816H143.588V223.702H144.3V231.533H143.588V227.433H142.501C142.43 229.075 141.723 230.105 140.684 230.1C139.587 230.105 138.875 228.961 138.871 227.167ZM139.573 227.167C139.564 228.534 140 229.397 140.684 229.388C141.372 229.397 141.808 228.534 141.804 227.167C141.808 225.795 141.372 224.936 140.684 224.936C140 224.936 139.564 225.795 139.573 227.167ZM154.39 223.522V231.96H153.678V223.522H154.39ZM147.176 229.597C149.008 228.51 149.929 226.986 150.071 225.221H147.537V224.604H150.812C150.812 225.434 150.679 226.236 150.389 226.986H151.903V223.75H152.615V231.533H151.903V227.594H150.114C149.606 228.576 148.79 229.445 147.613 230.138L147.176 229.597ZM164.604 223.522V225.354H165.876V225.98H164.604V227.822H163.864V223.522H164.604ZM158.168 225.705C158.163 224.599 159.094 223.84 160.361 223.835C161.633 223.84 162.554 224.599 162.554 225.705C162.554 226.816 161.633 227.58 160.361 227.584C159.094 227.58 158.163 226.816 158.168 225.705ZM158.899 225.705C158.894 226.445 159.516 226.977 160.361 226.977C161.201 226.977 161.827 226.445 161.823 225.705C161.827 224.974 161.201 224.452 160.361 224.461C159.516 224.452 158.894 224.974 158.899 225.705ZM159.222 228.818V228.22H164.604V230.28H159.972V231.248H164.917V231.846H159.241V229.711H163.864V228.818H159.222ZM173.375 223.531V228.534H172.634V223.531H173.375ZM166.835 224.642V224.044H170.688V226.331H167.575V227.499C169.084 227.508 170.209 227.461 171.581 227.233L171.666 227.86C170.247 228.078 169.094 228.125 167.537 228.125H166.854V225.743H169.948V224.642H166.835ZM167.888 231.846V228.989H173.375V231.846H167.888ZM168.619 231.239H172.644V229.597H168.619V231.239ZM181.766 223.522V231.979H181.016V223.522H181.766ZM175.121 227.119C175.126 225.325 176.018 224.181 177.276 224.177C178.529 224.181 179.435 225.325 179.431 227.119C179.435 228.918 178.529 230.057 177.276 230.052C176.018 230.057 175.126 228.918 175.121 227.119ZM175.843 227.119C175.843 228.491 176.431 229.393 177.276 229.388C178.126 229.393 178.709 228.491 178.709 227.119C178.709 225.748 178.126 224.846 177.276 224.841C176.431 224.846 175.843 225.748 175.843 227.119ZM186.74 223.882V225.097H189.198V223.882H189.939V227.556H186.009V223.882H186.74ZM186.74 226.948H189.198V225.676H186.74V226.948ZM186.863 228.885V228.287H192.245V230.328H187.613V231.258H192.558V231.865H186.882V229.758H191.505V228.885H186.863ZM191.505 227.888V223.522H192.245V225.354H193.517V225.98H192.245V227.888H191.505ZM198.254 226.474V227.717H201.737V228.325H194.049V227.717H197.523V226.474H198.254ZM194.514 226.322C196.004 226.118 197.513 225.178 197.513 224.053V223.655H198.263V224.053C198.263 225.178 199.782 226.118 201.272 226.322L200.968 226.92C199.692 226.697 198.42 226.018 197.893 225.045C197.361 226.028 196.094 226.697 194.799 226.92L194.514 226.322ZM194.979 230.489C194.974 229.554 196.061 229.032 197.893 229.027C199.706 229.032 200.788 229.554 200.798 230.489C200.788 231.429 199.706 231.941 197.893 231.941C196.061 231.941 194.974 231.429 194.979 230.489ZM195.738 230.489C195.729 231.044 196.526 231.367 197.893 231.362C199.246 231.367 200.043 231.044 200.048 230.489C200.043 229.929 199.246 229.616 197.893 229.616C196.526 229.616 195.729 229.929 195.738 230.489ZM209.417 223.531V228.382H208.667V223.531H209.417ZM202.478 227.556C203.194 227.556 204.03 227.556 204.898 227.527V226.616H203.247V223.949H207.252V224.566H203.996V226.018H207.328V226.616H205.648V227.494C206.431 227.456 207.224 227.395 207.964 227.29L208.012 227.831C206.161 228.144 204.115 228.173 202.592 228.173L202.478 227.556ZM203.854 231.846V228.761H204.594V229.663H208.686V228.761H209.417V231.846H203.854ZM204.594 231.239H208.686V230.242H204.594V231.239ZM217.808 223.522V231.96H217.067V223.522H217.808ZM211.4 229.787V224.357H212.131V229.141C213.422 229.132 214.751 229.032 216.165 228.733L216.27 229.369C214.77 229.682 213.436 229.787 212.084 229.787H211.4ZM225.781 223.522V226.863H227.195V227.489H225.781V231.979H225.041V223.522H225.781ZM219.621 229.863V224.348H223.56V224.965H220.361V229.236C221.889 229.231 222.967 229.165 224.224 228.932L224.319 229.578C222.995 229.815 221.889 229.863 220.285 229.863H219.621ZM228.543 231.248C228.211 231.244 227.926 230.968 227.936 230.631C227.926 230.299 228.211 230.024 228.543 230.024C228.88 230.024 229.156 230.299 229.151 230.631C229.156 230.968 228.88 231.244 228.543 231.248Z" fill="#898D8F"/>
<rect x="125.816" y="251.068" width="91.368" height="26.568" rx="3.564" stroke="black" stroke-width="0.648"/>
<path d="M158.064 261.163V263.522H159.279V260.312H160.201V268.767H159.279V264.312H158.064V266.823H154.541V261.163H158.064ZM155.452 266.053H157.163V261.922H155.452V266.053ZM161.122 269.212V260.14H162.043V269.212H161.122ZM170.72 260.15V266.742H169.759V260.15H170.72ZM163.38 263.006C163.385 261.694 164.428 260.763 165.8 260.758C167.167 260.763 168.209 261.694 168.209 263.006C168.209 264.337 167.167 265.263 165.8 265.263C164.428 265.263 163.385 264.337 163.38 263.006ZM164.321 263.006C164.316 263.861 164.954 264.423 165.8 264.423C166.63 264.423 167.268 263.861 167.268 263.006C167.268 262.17 166.63 261.598 165.8 261.598C164.954 261.598 164.316 262.17 164.321 263.006ZM164.787 269.02V266.073H165.759V268.24H170.994V269.02H164.787ZM176.289 260.687C178.193 260.687 179.641 261.694 179.641 263.218C179.641 264.752 178.193 265.754 176.289 265.749C174.391 265.754 172.943 264.752 172.948 263.218C172.943 261.694 174.391 260.687 176.289 260.687ZM172.158 268.038V267.238H180.461V268.038H172.158ZM173.869 263.218C173.864 264.276 174.897 264.96 176.289 264.96C177.676 264.96 178.704 264.276 178.709 263.218C178.704 262.165 177.676 261.461 176.289 261.467C174.897 261.461 173.864 262.165 173.869 263.218ZM189.421 267.319V268.129H181.119V267.319H184.774V265.729H182.131V262.844H187.457V261.568H182.111V260.778H188.409V263.613H183.083V264.939H188.621V265.729H185.726V267.319H189.421Z" fill="#131214"/>
</g>
<rect x="48.5" y="39.5" width="246" height="529.176" rx="27.5" stroke="black" stroke-width="3"/>
</g>
<defs>
<clipPath id="clip0_5328_20968">
<rect width="343" height="343" rx="24" fill="white"/>
</clipPath>
<clipPath id="clip1_5328_20968">
<rect x="50" y="41" width="243" height="526.176" rx="26" fill="white"/>
</clipPath>
</defs>
</svg>
