<svg width="32" height="32" viewBox="0 0 32 32" fill="none" xmlns="http://www.w3.org/2000/svg">
<g id="vuesax/outline/add-circle">
<g id="add-circle">
<path id="Vector" d="M15.5278 29.6878C7.85445 29.6878 1.61746 23.4508 1.61746 15.7775C1.61746 8.10422 7.85445 1.86723 15.5278 1.86723C23.2011 1.86723 29.4381 8.10422 29.4381 15.7775C29.4381 23.4508 23.2011 29.6878 15.5278 29.6878ZM15.5278 3.80821C8.92846 3.80821 3.55843 9.17823 3.55843 15.7775C3.55843 22.3768 8.92846 27.7469 15.5278 27.7469C22.1271 27.7469 27.4971 22.3768 27.4971 15.7775C27.4971 9.17823 22.1271 3.80821 15.5278 3.80821Z" fill="#D6D6D6"/>
<path id="Vector_2" d="M20.7037 16.748H10.3518C9.8213 16.748 9.38135 16.3081 9.38135 15.7775C9.38135 15.247 9.8213 14.8071 10.3518 14.8071H20.7037C21.2342 14.8071 21.6742 15.247 21.6742 15.7775C21.6742 16.3081 21.2342 16.748 20.7037 16.748Z" fill="#D6D6D6"/>
<path id="Vector_3" d="M15.5277 21.924C14.9972 21.924 14.5573 21.484 14.5573 20.9535V10.6016C14.5573 10.0711 14.9972 9.63113 15.5277 9.63113C16.0583 9.63113 16.4982 10.0711 16.4982 10.6016V20.9535C16.4982 21.484 16.0583 21.924 15.5277 21.924Z" fill="#D6D6D6"/>
</g>
</g>
</svg>
