<svg width="27" height="26" viewBox="0 0 27 26" fill="none" xmlns="http://www.w3.org/2000/svg">
<path d="M22.2917 9.74992V6.49992C22.2917 5.3033 21.3217 4.33325 20.125 4.33325H16.875M10.375 4.33325H7.12504C5.92842 4.33325 4.95837 5.3033 4.95837 6.49992V9.74992M4.95837 16.2499V19.4999C4.95837 20.6965 5.92842 21.6666 7.12504 21.6666H10.375M16.875 21.6666H20.125C21.3217 21.6666 22.2917 20.6965 22.2917 19.4999V16.2499M8.20837 17.3333C11.8195 14.4444 15.4306 14.4444 19.0417 17.3333M16.875 11.9166C16.875 13.7115 15.42 15.1666 13.625 15.1666C11.8301 15.1666 10.375 13.7115 10.375 11.9166C10.375 10.1217 11.8301 8.66658 13.625 8.66658C15.42 8.66658 16.875 10.1217 16.875 11.9166Z" stroke="#C90000" stroke-width="1.5" stroke-linecap="round" stroke-linejoin="round"/>
</svg>
