<svg width="19" height="19" viewBox="0 0 19 19" fill="none" xmlns="http://www.w3.org/2000/svg">
<path d="M9.5 16.625C13.435 16.625 16.625 13.435 16.625 9.5C16.625 5.56497 13.435 2.375 9.5 2.375C5.56497 2.375 2.375 5.56497 2.375 9.5C2.375 13.435 5.56497 16.625 9.5 16.625Z" stroke="#585858" stroke-width="1.35714" stroke-linejoin="round"/>
<path d="M8.72353 11.1155C8.7077 10.7276 8.77103 10.3476 8.90561 9.98344C9.07978 9.62719 9.32519 9.31845 9.62603 9.0572C9.87144 8.84345 10.101 8.60593 10.3069 8.34468C10.4494 8.13885 10.5285 7.89347 10.5285 7.64013C10.5444 7.36305 10.4573 7.08595 10.2752 6.88012C10.0694 6.69012 9.80019 6.5951 9.52311 6.61885C9.24603 6.60302 8.96894 6.69803 8.75519 6.88012C8.55728 7.0622 8.45436 7.31554 8.46228 7.57679H7.11644C7.10061 6.99887 7.34603 6.45261 7.78144 6.08052C8.27228 5.70052 8.88978 5.50261 9.5152 5.53427C10.1406 5.49469 10.7581 5.69261 11.2489 6.08052C11.6764 6.46844 11.8981 7.02264 11.8664 7.59264C11.8269 8.24972 11.526 8.8672 11.0273 9.30261L10.3464 9.94386C10.0852 10.2764 9.95061 10.6881 9.97436 11.1076H8.71561L8.72353 11.1155ZM8.62853 12.7701C8.62853 12.5801 8.69186 12.3901 8.83436 12.2634C8.98478 12.1289 9.18269 12.0576 9.38853 12.0655C9.59436 12.0576 9.79228 12.1289 9.9427 12.2634C10.0773 12.398 10.1485 12.5801 10.1485 12.7622C10.1485 12.9443 10.0773 13.1264 9.95061 13.253C9.80019 13.3955 9.59436 13.4668 9.38853 13.4509C9.18269 13.4668 8.97686 13.3955 8.82644 13.253C8.69978 13.1264 8.62853 12.9443 8.62853 12.7622V12.7701Z" fill="#585858"/>
</svg>
