<svg width="27" height="26" viewBox="0 0 27 26" fill="none" xmlns="http://www.w3.org/2000/svg">
<path d="M4.76077 14.0833H8.68591C9.26054 14.0833 9.81164 14.3115 10.218 14.7179L11.1154 15.6153C11.5218 16.0216 12.0729 16.2499 12.6475 16.2499H14.1026C14.6772 16.2499 15.2283 16.0216 15.6346 15.6153L16.5321 14.7179C16.9384 14.3115 17.4895 14.0833 18.0642 14.0833H21.9893M4.70838 13.4L4.70837 18.4166C4.70837 20.2115 6.16345 21.6666 7.95837 21.6666H18.7917C20.5866 21.6666 22.0417 20.2115 22.0417 18.4166V13.4C22.0417 13.1343 22.0091 12.8696 21.9447 12.6118L20.4905 6.79501C20.1288 5.34822 18.8288 4.33325 17.3375 4.33325H9.41257C7.92125 4.33325 6.62131 5.34822 6.25961 6.79501L4.80542 12.6118C4.74097 12.8696 4.70838 13.1343 4.70838 13.4Z" stroke="#C90000" stroke-width="1.5"/>
</svg>
