<svg width="25" height="25" viewBox="0 0 25 25" fill="none" xmlns="http://www.w3.org/2000/svg">
<g id="link">
<path id="Vector" d="M11.4333 14.1289C11.4333 14.1289 11.6164 14.2742 12.1393 14.5598C12.6621 14.8455 13.2403 15.0154 13.8346 15.058C14.4289 15.1005 15.0254 15.0148 15.5837 14.8065C16.1419 14.5983 16.6489 14.2724 17.0701 13.851L19.5632 11.358C20.3201 10.5743 20.7389 9.5247 20.7294 8.43524C20.7199 7.34578 20.283 6.30362 19.5126 5.53323C18.7422 4.76284 17.7 4.32585 16.6105 4.31638C15.5211 4.30691 14.4715 4.72573 13.6878 5.48262L12.2585 6.90367M13.4991 11.0302C13.4991 11.0302 13.3161 10.8683 12.7932 10.5827C12.2703 10.297 11.6921 10.1271 11.0978 10.0846C10.5035 10.042 9.90701 10.1277 9.34876 10.336C8.79052 10.5442 8.28358 10.8701 7.86235 11.2915L5.36927 13.7846C4.61238 14.5682 4.19357 15.6178 4.20304 16.7073C4.21251 17.7967 4.64949 18.8389 5.41989 19.6093C6.19028 20.3797 7.23244 20.8167 8.3219 20.8261C9.41136 20.8356 10.461 20.4168 11.2446 19.6599L12.6657 18.2388" stroke="white" stroke-width="1.32804" stroke-linecap="round" stroke-linejoin="round"/>
</g>
</svg>
