<svg width="111" height="41" viewBox="0 0 111 41" fill="none" xmlns="http://www.w3.org/2000/svg">
<path d="M85.6309 12.9836V10.205H92.5252V6.99221H85.6309V4.43068H93.4563V1.10938H81.2859V16.3049H93.7445V12.9836H85.6309Z" fill="#292626"/>
<path d="M5.35506 16.3049V4.51751H0.588867V1.10938H14.4884V4.51751H9.7444V16.3049H5.35506Z" fill="#292626"/>
<path d="M30.5527 16.3049L37.4028 1.10938H41.7256L48.5978 16.3049H44.0311L38.6664 3.21504H40.3955L35.0307 16.3049H30.5527Z" fill="#292626"/>
<path d="M58.7452 12.5921C58.1466 12.896 57.4771 13.0479 56.7389 13.0479C56.1027 13.0479 55.5197 12.9459 54.9876 12.744C54.4556 12.5421 54.0011 12.2491 53.6243 11.8648C53.2474 11.4806 52.9526 11.0226 52.7375 10.4864C52.5225 9.95021 52.4161 9.35758 52.4161 8.70635C52.4161 8.05511 52.5225 7.46249 52.7375 6.9263C52.9526 6.39012 53.2474 5.93208 53.6243 5.54785C54.0011 5.16363 54.4556 4.87057 54.9876 4.66869C55.5197 4.4668 56.1027 4.36478 56.7389 4.36478C57.4771 4.36478 58.1466 4.51673 58.7452 4.82064C59.3437 5.12455 59.8935 5.56522 60.3967 6.14482L63.1899 3.67012C62.4362 2.7432 61.494 2.03552 60.3634 1.54275C59.2329 1.04999 57.9515 0.804688 56.5172 0.804688C55.2913 0.804688 54.1563 0.995717 53.1144 1.37995C52.0725 1.76417 51.1702 2.30904 50.4099 3.01889C49.6495 3.72874 49.0532 4.56449 48.6253 5.52615C48.1975 6.4878 47.9824 7.54932 47.9824 8.70635C47.9824 9.86338 48.1975 10.9249 48.6253 11.8865C49.0532 12.8482 49.6495 13.684 50.4099 14.3938C51.1702 15.1037 52.0725 15.6485 53.1144 16.0328C54.1563 16.417 55.2913 16.608 56.5172 16.608C57.9515 16.608 59.2329 16.3584 60.3634 15.8591C61.494 15.3598 62.4362 14.6543 63.1899 13.7426L60.3967 11.2679C59.8935 11.8475 59.3437 12.2881 58.7452 12.5921Z" fill="#292626"/>
<path d="M73.6375 7.83013L79.9732 1.10938H75.1405L69.1328 7.42202V1.10938H64.7878V16.3049H69.1328V12.4973V7.61088L75.0895 16.1594L75.207 16.3049H80.3057L73.6375 7.83013Z" fill="#292626"/>
<path d="M26.6318 11.5205C27.5695 11.0841 28.3055 10.4763 28.8331 9.69483C29.3939 8.86342 29.6755 7.87571 29.6755 6.73171C29.6755 5.58771 29.3939 4.57178 28.8331 3.72517C28.2722 2.87857 27.4764 2.23167 26.45 1.78232C25.4236 1.33297 24.1999 1.10938 22.7811 1.10938H15.6873V16.3049H20.0766V4.4958H22.5151C23.4307 4.4958 24.1157 4.69117 24.5657 5.08191C25.0157 5.47265 25.2418 6.02186 25.2418 6.73171C25.2418 7.44156 25.0157 7.96906 24.5657 8.3598C24.1157 8.75054 23.4307 8.94591 22.5151 8.94591H20.1586L22.473 12.2672L25.2862 16.3049H29.9858L26.6318 11.5205Z" fill="#292626"/>
<path d="M107.057 11.5205C107.995 11.0841 108.731 10.4763 109.258 9.69483C109.819 8.86342 110.101 7.87571 110.101 6.73171C110.101 5.58771 109.819 4.57178 109.258 3.72517C108.697 2.87857 107.901 2.23167 106.875 1.78232C105.849 1.33297 104.625 1.10938 103.206 1.10938H96.1123V16.3049H100.502V4.4958H102.94C103.856 4.4958 104.541 4.69117 104.991 5.08191C105.441 5.47265 105.667 6.02186 105.667 6.73171C105.667 7.44156 105.441 7.96906 104.991 8.3598C104.541 8.75054 103.856 8.94591 102.94 8.94591H100.584L102.898 12.2672L105.711 16.3049H110.411L107.057 11.5205Z" fill="#292626"/>
<path d="M27.4413 40.4107C26.2154 40.4107 25.0804 40.2197 24.0385 39.8355C22.9966 39.4513 22.0943 38.9064 21.3339 38.1965C20.5736 37.4867 19.9772 36.6509 19.5494 35.6893C19.1215 34.7276 18.9065 33.6661 18.9065 32.5091C18.9065 31.3521 19.1215 30.2905 19.5494 29.3289C19.9772 28.3672 20.5736 27.5315 21.3339 26.8216C22.0943 26.1118 22.9966 25.5669 24.0385 25.1827C25.0804 24.7985 26.2154 24.6074 27.4413 24.6074C28.8756 24.6074 30.1569 24.8527 31.2875 25.3455C32.4181 25.8383 33.3603 26.5459 34.114 27.4729L31.3208 29.9476C30.8175 29.368 30.2678 28.9273 29.6692 28.6234C29.0707 28.3195 28.4012 28.1675 27.663 28.1675C27.0268 28.1675 26.4437 28.2695 25.9117 28.4714C25.3797 28.6733 24.9252 28.9664 24.5483 29.3506C24.1715 29.7348 23.8766 30.1929 23.6616 30.729C23.4466 31.2652 23.3402 31.8578 23.3402 32.5091C23.3402 33.1603 23.4466 33.7529 23.6616 34.2891C23.8766 34.8253 24.1715 35.2833 24.5483 35.6676C24.9252 36.0518 25.3797 36.3449 25.9117 36.5467C26.4437 36.7486 27.0268 36.8507 27.663 36.8507C28.4012 36.8507 29.0707 36.6987 29.6692 36.3948C30.2678 36.0909 30.8175 35.6502 31.3208 35.0706L34.114 37.5453C33.3603 38.457 32.4181 39.1625 31.2875 39.6618C30.1569 40.1611 28.8756 40.4107 27.4413 40.4107Z" fill="#292626"/>
<path d="M43.133 40.4107C41.8916 40.4107 40.7455 40.2154 39.6969 39.8246C38.6484 39.4339 37.735 38.8803 36.9591 38.164C36.1832 37.4476 35.5803 36.6119 35.1524 35.6567C34.7246 34.7016 34.5095 33.6531 34.5095 32.5091C34.5095 31.3651 34.7246 30.3166 35.1524 29.3614C35.5803 28.4063 36.1832 27.5705 36.9591 26.8542C37.735 26.1378 38.6484 25.5843 39.6969 25.1935C40.7455 24.8028 41.8916 24.6074 43.133 24.6074C44.3744 24.6074 45.5383 24.8028 46.5802 25.1935C47.6221 25.5843 48.5266 26.1378 49.2958 26.8542C50.0651 27.5705 50.6658 28.4063 51.1025 29.3614C51.5393 30.3166 51.7565 31.3651 51.7565 32.5091C51.7565 33.6531 51.5393 34.7059 51.1025 35.6676C50.6658 36.6292 50.0651 37.465 49.2958 38.1748C48.5266 38.8847 47.6221 39.4339 46.5802 39.8246C45.5383 40.2154 44.39 40.4107 43.133 40.4107ZM43.133 36.8507C43.7249 36.8507 44.2747 36.7486 44.7846 36.5467C45.2944 36.3449 45.7378 36.0518 46.1147 35.6676C46.4915 35.2833 46.7864 34.8253 47.0014 34.2891C47.2164 33.7529 47.3228 33.1603 47.3228 32.5091C47.3228 31.8578 47.2164 31.2457 47.0014 30.7182C46.7864 30.1907 46.4915 29.7348 46.1147 29.3506C45.7378 28.9664 45.2944 28.6733 44.7846 28.4714C44.2747 28.2695 43.7249 28.1675 43.133 28.1675C42.5411 28.1675 41.9913 28.2695 41.4815 28.4714C40.9716 28.6733 40.5282 28.9664 40.1514 29.3506C39.7745 29.7348 39.4797 30.1907 39.2646 30.7182C39.0496 31.2457 38.9432 31.8427 38.9432 32.5091C38.9432 33.1755 39.0496 33.7529 39.2646 34.2891C39.4797 34.8253 39.7745 35.2833 40.1514 35.6676C40.5282 36.0518 40.9716 36.3449 41.4815 36.5467C41.9913 36.7486 42.5411 36.8507 43.133 36.8507Z" fill="#292626"/>
<path d="M53.813 40.1076V24.9121H58.2023V36.6995H65.6066V40.1076H53.813Z" fill="#292626"/>
<path d="M66.8459 40.1076V24.9121H71.2353V36.6995H78.6395V40.1076H66.8459Z" fill="#292626"/>
<path d="M81.7629 40.1076V33.6821L82.7827 36.2653L75.844 24.9121H80.4772L85.4872 33.1394H82.8049L87.8371 24.9121H92.0934L85.1769 36.2653L86.1523 33.6821V40.1076H81.7629Z" fill="#292626"/>
</svg>
