<svg width="237" height="20" viewBox="0 0 237 20" fill="none" xmlns="http://www.w3.org/2000/svg">
<path d="M156.291 20C154.772 20 153.365 19.7582 152.074 19.272C150.783 18.7857 149.664 18.0961 148.722 17.1978C147.78 16.2994 147.041 15.2418 146.511 14.0247C145.98 12.8077 145.714 11.4643 145.714 10C145.714 8.53571 145.98 7.19231 146.511 5.97527C147.041 4.75824 147.78 3.70055 148.722 2.8022C149.664 1.90385 150.783 1.21429 152.074 0.728022C153.365 0.241758 154.772 0 156.291 0C158.068 0 159.656 0.310439 161.057 0.934066C162.458 1.55769 163.626 2.4533 164.56 3.62637L161.098 6.75824C160.475 6.02472 159.794 5.46703 159.052 5.08242C158.31 4.6978 157.48 4.50549 156.566 4.50549C155.777 4.50549 155.055 4.63461 154.395 4.89011C153.736 5.1456 153.173 5.51648 152.706 6.00275C152.239 6.48901 151.873 7.06868 151.607 7.74725C151.34 8.42582 151.208 9.17582 151.208 10C151.208 10.8242 151.34 11.5742 151.607 12.2527C151.873 12.9313 152.239 13.511 152.706 13.9972C153.173 14.4835 153.736 14.8544 154.395 15.1099C155.055 15.3654 155.777 15.4945 156.566 15.4945C157.48 15.4945 158.31 15.3022 159.052 14.9176C159.794 14.533 160.475 13.9753 161.098 13.2418L164.56 16.3736C163.626 17.5275 162.458 18.4203 161.057 19.0522C159.656 19.6841 158.068 20 156.291 20Z" fill="white"/>
<path d="M175.736 20C174.198 20 172.777 19.7527 171.478 19.2582C170.179 18.7637 169.047 18.0632 168.085 17.1566C167.124 16.25 166.376 15.1923 165.846 13.9835C165.316 12.7747 165.049 11.4478 165.049 10C165.049 8.5522 165.316 7.22527 165.846 6.01648C166.376 4.80769 167.124 3.75 168.085 2.84341C169.047 1.93681 170.179 1.23626 171.478 0.741758C172.777 0.247253 174.198 0 175.736 0C177.275 0 178.717 0.247253 180.008 0.741758C181.299 1.23626 182.42 1.93681 183.374 2.84341C184.327 3.75 185.071 4.80769 185.613 6.01648C186.154 7.22527 186.423 8.5522 186.423 10C186.423 11.4478 186.154 12.7802 185.613 13.9972C185.071 15.2143 184.327 16.272 183.374 17.1703C182.42 18.0687 181.299 18.7637 180.008 19.2582C178.717 19.7527 177.294 20 175.736 20ZM175.736 15.4945C176.47 15.4945 177.151 15.3654 177.783 15.1099C178.415 14.8544 178.964 14.4835 179.431 13.9972C179.898 13.511 180.264 12.9313 180.53 12.2527C180.797 11.5742 180.929 10.8242 180.929 10C180.929 9.17582 180.797 8.4011 180.53 7.73351C180.264 7.06593 179.898 6.48901 179.431 6.00275C178.964 5.51648 178.415 5.1456 177.783 4.89011C177.151 4.63461 176.47 4.50549 175.736 4.50549C175.003 4.50549 174.321 4.63461 173.69 4.89011C173.058 5.1456 172.508 5.51648 172.041 6.00275C171.574 6.48901 171.209 7.06593 170.942 7.73351C170.676 8.4011 170.544 9.15659 170.544 10C170.544 10.8434 170.676 11.5742 170.942 12.2527C171.209 12.9313 171.574 13.511 172.041 13.9972C172.508 14.4835 173.058 14.8544 173.69 15.1099C174.321 15.3654 175.003 15.4945 175.736 15.4945Z" fill="white"/>
<path d="M188.972 19.6155V0.384766H194.412V15.3023H203.588V19.6155H188.972Z" fill="white"/>
<path d="M205.124 19.6155V0.384766H210.563V15.3023H219.739V19.6155H205.124Z" fill="white"/>
<path d="M223.609 19.6155V11.4837L224.873 14.7529L216.274 0.384766H222.016L228.225 10.7969H224.901L231.137 0.384766H236.412L227.84 14.7529L229.049 11.4837V19.6155H223.609Z" fill="white"/>
<path d="M105.39 15.4122V11.8958H113.934V7.82982H105.39V4.58806H115.088V0.384766H100.005V19.6155H115.445V15.4122H105.39Z" fill="white"/>
<path d="M5.90647 19.6155V4.69795H-0.00012207V0.384766H17.2251V4.69795H11.346V19.6155H5.90647Z" fill="white"/>
<path d="M37.1342 19.6155L45.6232 0.384766H50.9803L59.4968 19.6155H53.8375L47.1891 3.0496H49.332L42.6836 19.6155H37.1342Z" fill="white"/>
<path d="M72.0712 14.9176C71.3294 15.3022 70.4998 15.4945 69.5849 15.4945C68.7965 15.4945 68.0739 15.3654 67.4146 15.1099C66.7553 14.8544 66.1921 14.4835 65.725 13.9972C65.258 13.511 64.8926 12.9313 64.6261 12.2527C64.3597 11.5742 64.2278 10.8242 64.2278 10C64.2278 9.17582 64.3597 8.42582 64.6261 7.74725C64.8926 7.06868 65.258 6.48901 65.725 6.00275C66.1921 5.51648 66.7553 5.1456 67.4146 4.89011C68.0739 4.63461 68.7965 4.50549 69.5849 4.50549C70.4998 4.50549 71.3294 4.6978 72.0712 5.08242C72.8129 5.46703 73.4943 6.02472 74.1179 6.75824L77.5794 3.62637C76.6454 2.4533 75.4778 1.55769 74.0767 0.934066C72.6756 0.310439 71.0877 0 69.3102 0C67.791 0 66.3844 0.241758 65.0932 0.728022C63.802 1.21429 62.6838 1.90385 61.7415 2.8022C60.7992 3.70055 60.0602 4.75824 59.53 5.97527C58.9998 7.19231 58.7333 8.53571 58.7333 10C58.7333 11.4643 58.9998 12.8077 59.53 14.0247C60.0602 15.2418 60.7992 16.2994 61.7415 17.1978C62.6838 18.0961 63.802 18.7857 65.0932 19.272C66.3844 19.7582 67.791 20 69.3102 20C71.0877 20 72.6756 19.6841 74.0767 19.0522C75.4778 18.4203 76.6454 17.5275 77.5794 16.3736L74.1179 13.2418C73.4943 13.9753 72.8129 14.533 72.0712 14.9176Z" fill="white"/>
<path d="M90.527 8.89026L98.3786 0.384766H92.3896L84.9446 8.37377V0.384766H79.5599V19.6155H84.9446V14.7968V8.61279L92.3264 19.4315L92.472 19.6155H98.7907L90.527 8.89026Z" fill="white"/>
<path d="M32.2744 13.5606C33.4364 13.0084 34.3485 12.2392 35.0024 11.2501C35.6974 10.1979 36.0463 8.94795 36.0463 7.50015C36.0463 6.05235 35.6974 4.76663 35.0024 3.6952C34.3073 2.62378 33.3211 1.80509 32.0491 1.23641C30.7771 0.667733 29.2606 0.384766 27.5024 0.384766H18.7112V19.6155H24.1507V4.67048H27.1727C28.3073 4.67048 29.1562 4.91773 29.7139 5.41224C30.2716 5.90674 30.5518 6.6018 30.5518 7.50015C30.5518 8.3985 30.2716 9.06608 29.7139 9.56059C29.1562 10.0551 28.3073 10.3023 27.1727 10.3023H24.2524L27.1205 14.5056L30.6068 19.6155H36.431L32.2744 13.5606Z" fill="white"/>
<path d="M131.942 13.5606C133.104 13.0084 134.016 12.2392 134.67 11.2501C135.365 10.1979 135.714 8.94795 135.714 7.50015C135.714 6.05235 135.365 4.76663 134.67 3.6952C133.975 2.62378 132.989 1.80509 131.717 1.23641C130.445 0.667733 128.928 0.384766 127.17 0.384766H118.379V19.6155H123.818V4.67048H126.84C127.975 4.67048 128.824 4.91773 129.382 5.41224C129.939 5.90674 130.219 6.6018 130.219 7.50015C130.219 8.3985 129.939 9.06608 129.382 9.56059C128.824 10.0551 127.975 10.3023 126.84 10.3023H123.92L126.788 14.5056L130.274 19.6155H136.099L131.942 13.5606Z" fill="white"/>
</svg>
