<svg width="335" height="197" viewBox="0 0 335 197" fill="none" xmlns="http://www.w3.org/2000/svg">
<mask id="mask0_7469_12318" style="mask-type:alpha" maskUnits="userSpaceOnUse" x="0" y="0" width="335" height="197">
<path d="M318.25 0H16.75C7.49923 0 0 7.53046 0 16.8198V179.411C0 188.7 7.49923 196.23 16.75 196.23H318.25C327.501 196.23 335 188.7 335 179.411V16.8198C335 7.53046 327.501 0 318.25 0Z" fill="#A9B1C1"/>
</mask>
<g mask="url(#mask0_7469_12318)">
<path d="M318.25 0H16.75C7.49923 0 0 7.53046 0 16.8198V179.411C0 188.7 7.49923 196.23 16.75 196.23H318.25C327.501 196.23 335 188.7 335 179.411V16.8198C335 7.53046 327.501 0 318.25 0Z" fill="#F8F8F8"/>
<mask id="mask1_7469_12318" style="mask-type:alpha" maskUnits="userSpaceOnUse" x="67" y="33" width="56" height="57">
<path d="M94.9167 89.7055C110.335 89.7055 122.833 77.1547 122.833 61.6726C122.833 46.1904 110.335 33.6396 94.9167 33.6396C79.4987 33.6396 67 46.1904 67 61.6726C67 77.1547 79.4987 89.7055 94.9167 89.7055Z" fill="#8FB2FF"/>
</mask>
<g mask="url(#mask1_7469_12318)">
<path d="M94.9167 89.7055C110.335 89.7055 122.833 77.1547 122.833 61.6726C122.833 46.1904 110.335 33.6396 94.9167 33.6396C79.4987 33.6396 67 46.1904 67 61.6726C67 77.1547 79.4987 89.7055 94.9167 89.7055Z" fill="#D22222" fill-opacity="0.9"/>
<path d="M94.9152 42.0498C87.1209 42.0498 81.9863 47.5008 80.8019 56.2223C79.4989 65.816 76.6403 77.6627 75.3735 82.387H94.9152V42.0498Z" fill="#FFDFDF"/>
<path d="M94.9166 42.0508C102.711 42.0508 107.846 47.5017 109.03 56.2232C110.333 65.8169 113.192 77.6637 114.458 82.388H94.9166V42.0508Z" fill="#FFDFDF"/>
<path d="M85.1445 56.6014C85.1438 55.335 85.3916 54.0809 85.8739 52.9107C86.3561 51.7405 87.0631 50.6771 87.9543 49.7814C88.8456 48.8857 89.9043 48.1752 91.0692 47.6904C92.2347 47.2056 93.4833 46.9561 94.7444 46.9561C97.2918 46.9561 99.7352 47.9723 101.537 49.7811C103.338 51.59 104.35 54.0433 104.35 56.6014C104.347 58.6359 103.704 60.6176 102.514 62.2635C101.322 63.9092 99.6438 65.135 97.7175 65.7655V87.2607H91.7761V65.7655C89.8492 65.1364 88.17 63.911 86.9787 62.2649C85.7873 60.6187 85.1452 58.6363 85.1445 56.6014Z" fill="white"/>
<path d="M94.9021 49.0051L84.7962 56.4827H83.2008L85.3281 50.0734L92.7748 43.6641H95.9657L105.008 49.5392L106.072 56.4827H104.476L94.9021 49.0051Z" fill="#FFDFDF"/>
<path d="M94.9165 120.543C108.022 120.543 118.646 109.874 118.646 96.7142C118.646 83.5541 108.022 72.8857 94.9165 72.8857C81.8113 72.8857 71.1875 83.5541 71.1875 96.7142C71.1875 109.874 81.8113 120.543 94.9165 120.543Z" fill="white"/>
</g>
<mask id="mask2_7469_12318" style="mask-type:alpha" maskUnits="userSpaceOnUse" x="139" y="33" width="57" height="57">
<path d="M167.5 89.7055C182.918 89.7055 195.417 77.1547 195.417 61.6726C195.417 46.1904 182.918 33.6396 167.5 33.6396C152.082 33.6396 139.583 46.1904 139.583 61.6726C139.583 77.1547 152.082 89.7055 167.5 89.7055Z" fill="#B3CBFF"/>
</mask>
<g mask="url(#mask2_7469_12318)">
<path d="M167.5 89.7055C182.918 89.7055 195.417 77.1547 195.417 61.6726C195.417 46.1904 182.918 33.6396 167.5 33.6396C152.082 33.6396 139.583 46.1904 139.583 61.6726C139.583 77.1547 152.082 89.7055 167.5 89.7055Z" fill="#D22222" fill-opacity="0.9"/>
<path d="M160.561 47.1137C158.828 46.4142 156.952 46.1543 155.096 46.3568C153.24 46.5594 151.462 47.2183 149.92 48.2751C144.716 51.9374 145.703 59.0221 151.886 57.1638C151.886 57.1638 149.265 61.732 152.989 62.7386C157.5 63.9542 160.561 55.9405 160.561 55.9405V47.1137Z" fill="#FFDFDF"/>
<path d="M180.726 53.664C180.726 50.5838 179.507 47.6296 177.339 45.4515C175.169 43.2735 172.228 42.0498 169.16 42.0498C166.092 42.0498 163.151 43.2735 160.981 45.4515C158.813 47.6296 157.594 50.5838 157.594 53.664C157.595 56.1598 158.396 58.5889 159.879 60.5916C161.363 62.5942 163.449 64.0638 165.829 64.7826V86.5164H172.483V64.7826C174.864 64.0652 176.953 62.5962 178.437 60.5935C179.922 58.5907 180.725 56.1608 180.726 53.664Z" fill="white"/>
<path d="M180.106 49.9475C179.759 50.1178 169.365 55.0345 158.193 49.9475C158.967 47.6456 160.441 45.6457 162.406 44.2289C164.371 42.8122 166.73 42.05 169.149 42.0498C171.569 42.05 173.927 42.8122 175.893 44.2289C177.858 45.6457 179.332 47.6456 180.106 49.9475Z" fill="#FFDFDF"/>
<path d="M168.896 119.141C182.001 119.141 192.625 108.473 192.625 95.3128C192.625 82.1527 182.001 71.4844 168.896 71.4844C155.791 71.4844 145.167 82.1527 145.167 95.3128C145.167 108.473 155.791 119.141 168.896 119.141Z" fill="white"/>
</g>
<mask id="mask3_7469_12318" style="mask-type:alpha" maskUnits="userSpaceOnUse" x="212" y="33" width="57" height="57">
<path d="M240.083 89.7055C255.501 89.7055 268 77.1547 268 61.6726C268 46.1904 255.501 33.6396 240.083 33.6396C224.665 33.6396 212.167 46.1904 212.167 61.6726C212.167 77.1547 224.665 89.7055 240.083 89.7055Z" fill="#8FB2FF"/>
</mask>
<g mask="url(#mask3_7469_12318)">
<path d="M240.083 89.7055C255.501 89.7055 268 77.1547 268 61.6726C268 46.1904 255.501 33.6396 240.083 33.6396C224.665 33.6396 212.167 46.1904 212.167 61.6726C212.167 77.1547 224.665 89.7055 240.083 89.7055Z" fill="#E0EAFF"/>
<path d="M227.52 55.853C227.52 54.2248 227.838 52.6124 228.458 51.1079C229.078 49.6034 229.987 48.2363 231.133 47.0847C232.279 45.9331 233.64 45.0195 235.138 44.3962C236.636 43.7729 238.242 43.4521 239.863 43.4521C243.138 43.4521 246.28 44.7586 248.595 47.0843C250.912 49.4099 252.213 52.5641 252.213 55.853C252.21 58.4688 251.384 61.0166 249.852 63.1327C248.32 65.2487 246.162 66.8245 243.686 67.6352V95.2714H236.047V67.6352C233.569 66.8264 231.41 65.2509 229.879 63.1345C228.347 61.0181 227.521 58.4692 227.52 55.853Z" fill="#CCDCFF"/>
<path d="M240.082 123.345C253.187 123.345 263.811 112.677 263.811 99.5169C263.811 86.3568 253.187 75.6885 240.082 75.6885C226.977 75.6885 216.353 86.3568 216.353 99.5169C216.353 112.677 226.977 123.345 240.082 123.345Z" fill="#CCDCFF"/>
</g>
<mask id="mask4_7469_12318" style="mask-type:alpha" maskUnits="userSpaceOnUse" x="67" y="106" width="56" height="57">
<path d="M94.9167 162.59C110.335 162.59 122.833 150.039 122.833 134.557C122.833 119.075 110.335 106.524 94.9167 106.524C79.4987 106.524 67 119.075 67 134.557C67 150.039 79.4987 162.59 94.9167 162.59Z" fill="#8FB2FF"/>
</mask>
<g mask="url(#mask4_7469_12318)">
<path d="M94.9167 162.59C110.335 162.59 122.833 150.039 122.833 134.557C122.833 119.075 110.335 106.524 94.9167 106.524C79.4987 106.524 67 119.075 67 134.557C67 150.039 79.4987 162.59 94.9167 162.59Z" fill="#E0EAFF"/>
<path d="M82.3535 128.737C82.3528 127.108 82.6711 125.496 83.2908 123.992C83.9113 122.487 84.82 121.12 85.966 119.968C87.1126 118.817 88.4736 117.903 89.9713 117.28C91.4691 116.657 93.075 116.336 94.6963 116.336C97.9716 116.336 101.113 117.642 103.429 119.968C105.745 122.294 107.046 125.448 107.046 128.737C107.043 131.352 106.217 133.901 104.686 136.016C103.154 138.132 100.996 139.708 98.5195 140.519V168.155H90.88V140.519C88.4024 139.71 86.243 138.134 84.7118 136.019C83.1799 133.902 82.3542 131.353 82.3535 128.737Z" fill="#CCDCFF"/>
<path d="M94.9152 196.23C108.02 196.23 118.644 185.562 118.644 172.402C118.644 159.242 108.02 148.573 94.9152 148.573C81.81 148.573 71.1862 159.242 71.1862 172.402C71.1862 185.562 81.81 196.23 94.9152 196.23Z" fill="#CCDCFF"/>
</g>
<mask id="mask5_7469_12318" style="mask-type:alpha" maskUnits="userSpaceOnUse" x="-6" y="33" width="57" height="57">
<path d="M22.3333 89.7055C37.7512 89.7055 50.25 77.1547 50.25 61.6726C50.25 46.1904 37.7512 33.6396 22.3333 33.6396C6.91534 33.6396 -5.58337 46.1904 -5.58337 61.6726C-5.58337 77.1547 6.91534 89.7055 22.3333 89.7055Z" fill="#8FB2FF"/>
</mask>
<g mask="url(#mask5_7469_12318)">
<path d="M22.3333 89.7055C37.7512 89.7055 50.25 77.1547 50.25 61.6726C50.25 46.1904 37.7512 33.6396 22.3333 33.6396C6.91534 33.6396 -5.58337 46.1904 -5.58337 61.6726C-5.58337 77.1547 6.91534 89.7055 22.3333 89.7055Z" fill="#E0EAFF"/>
<path d="M9.77002 55.8521C9.76911 54.2239 10.0878 52.6115 10.7077 51.107C11.3276 49.6024 12.2366 48.2353 13.3828 47.0837C14.5291 45.9321 15.89 45.0186 17.388 44.3953C18.8859 43.772 20.4915 43.4512 22.1129 43.4512C25.3882 43.4512 28.5294 44.7577 30.8454 47.0833C33.1614 49.4089 34.4625 52.5631 34.4625 55.8521C34.4595 58.4678 33.6332 61.0157 32.1019 63.1317C30.5705 65.2477 28.4123 66.8235 25.9357 67.6343V95.27H18.2967V67.6343C15.819 66.8254 13.6597 65.2499 12.1281 63.1335C10.5964 61.0171 9.771 58.4683 9.77002 55.8521Z" fill="#CCDCFF"/>
<path d="M22.3318 123.345C35.437 123.345 46.0608 112.677 46.0608 99.5169C46.0608 86.3568 35.437 75.6885 22.3318 75.6885C9.22663 75.6885 -1.39722 86.3568 -1.39722 99.5169C-1.39722 112.677 9.22663 123.345 22.3318 123.345Z" fill="#CCDCFF"/>
</g>
<mask id="mask6_7469_12318" style="mask-type:alpha" maskUnits="userSpaceOnUse" x="284" y="33" width="57" height="57">
<path d="M312.667 89.7055C328.085 89.7055 340.583 77.1547 340.583 61.6726C340.583 46.1904 328.085 33.6396 312.667 33.6396C297.249 33.6396 284.75 46.1904 284.75 61.6726C284.75 77.1547 297.249 89.7055 312.667 89.7055Z" fill="#8FB2FF"/>
</mask>
<g mask="url(#mask6_7469_12318)">
<path d="M312.667 89.7055C328.085 89.7055 340.583 77.1547 340.583 61.6726C340.583 46.1904 328.085 33.6396 312.667 33.6396C297.249 33.6396 284.75 46.1904 284.75 61.6726C284.75 77.1547 297.249 89.7055 312.667 89.7055Z" fill="#E0EAFF"/>
<path d="M300.104 55.8521C300.103 54.2239 300.421 52.6115 301.041 51.107C301.661 49.6024 302.57 48.2353 303.716 47.0837C304.863 45.9321 306.224 45.0186 307.721 44.3953C309.219 43.772 310.825 43.4512 312.446 43.4512C315.722 43.4512 318.863 44.7577 321.179 47.0833C323.495 49.4089 324.796 52.5631 324.796 55.8521C324.793 58.4678 323.967 61.0157 322.436 63.1317C320.904 65.2477 318.746 66.8235 316.269 67.6343V95.27H308.63V67.6343C306.152 66.8254 303.993 65.2499 302.462 63.1335C300.93 61.0171 300.104 58.4683 300.104 55.8521Z" fill="#CCDCFF"/>
<path d="M312.665 123.345C325.77 123.345 336.394 112.677 336.394 99.5169C336.394 86.3568 325.77 75.6885 312.665 75.6885C299.56 75.6885 288.936 86.3568 288.936 99.5169C288.936 112.677 299.56 123.345 312.665 123.345Z" fill="#CCDCFF"/>
</g>
<mask id="mask7_7469_12318" style="mask-type:alpha" maskUnits="userSpaceOnUse" x="212" y="106" width="57" height="57">
<path d="M240.083 162.59C255.501 162.59 268 150.039 268 134.557C268 119.075 255.501 106.524 240.083 106.524C224.665 106.524 212.167 119.075 212.167 134.557C212.167 150.039 224.665 162.59 240.083 162.59Z" fill="#8FB2FF"/>
</mask>
<g mask="url(#mask7_7469_12318)">
<path d="M240.083 162.59C255.501 162.59 268 150.039 268 134.557C268 119.075 255.501 106.524 240.083 106.524C224.665 106.524 212.167 119.075 212.167 134.557C212.167 150.039 224.665 162.59 240.083 162.59Z" fill="#E0EAFF"/>
<path d="M227.52 128.737C227.52 127.108 227.838 125.496 228.458 123.992C229.078 122.487 229.987 121.12 231.133 119.968C232.279 118.817 233.64 117.903 235.138 117.28C236.636 116.657 238.242 116.336 239.863 116.336C243.138 116.336 246.28 117.642 248.595 119.968C250.912 122.294 252.213 125.448 252.213 128.737C252.21 131.352 251.384 133.901 249.852 136.016C248.32 138.132 246.162 139.708 243.686 140.519V168.155H236.047V140.519C233.569 139.71 231.41 138.134 229.879 136.019C228.347 133.902 227.521 131.353 227.52 128.737Z" fill="#CCDCFF"/>
<path d="M240.082 196.23C253.187 196.23 263.811 185.562 263.811 172.402C263.811 159.242 253.187 148.573 240.082 148.573C226.977 148.573 216.353 159.242 216.353 172.402C216.353 185.562 226.977 196.23 240.082 196.23Z" fill="#CCDCFF"/>
</g>
<mask id="mask8_7469_12318" style="mask-type:alpha" maskUnits="userSpaceOnUse" x="-6" y="106" width="57" height="57">
<path d="M22.3333 162.59C37.7512 162.59 50.25 150.039 50.25 134.557C50.25 119.075 37.7512 106.524 22.3333 106.524C6.91534 106.524 -5.58337 119.075 -5.58337 134.557C-5.58337 150.039 6.91534 162.59 22.3333 162.59Z" fill="#8FB2FF"/>
</mask>
<g mask="url(#mask8_7469_12318)">
<path d="M22.3333 162.59C37.7512 162.59 50.25 150.039 50.25 134.557C50.25 119.075 37.7512 106.524 22.3333 106.524C6.91534 106.524 -5.58337 119.075 -5.58337 134.557C-5.58337 150.039 6.91534 162.59 22.3333 162.59Z" fill="#E0EAFF"/>
<path d="M9.77002 128.737C9.76911 127.108 10.0878 125.496 10.7077 123.992C11.3276 122.487 12.2366 121.12 13.3828 119.968C14.5291 118.817 15.89 117.903 17.388 117.28C18.8859 116.657 20.4915 116.336 22.1129 116.336C25.3882 116.336 28.5294 117.642 30.8454 119.968C33.1614 122.294 34.4625 125.448 34.4625 128.737C34.4595 131.352 33.6332 133.901 32.1019 136.016C30.5705 138.132 28.4123 139.708 25.9357 140.519V168.155H18.2967V140.519C15.819 139.71 13.6597 138.134 12.1281 136.019C10.5964 133.902 9.771 131.353 9.77002 128.737Z" fill="#CCDCFF"/>
<path d="M22.3318 196.23C35.437 196.23 46.0608 185.562 46.0608 172.402C46.0608 159.242 35.437 148.573 22.3318 148.573C9.22663 148.573 -1.39722 159.242 -1.39722 172.402C-1.39722 185.562 9.22663 196.23 22.3318 196.23Z" fill="#CCDCFF"/>
</g>
<mask id="mask9_7469_12318" style="mask-type:alpha" maskUnits="userSpaceOnUse" x="-6" y="179" width="57" height="57">
<path d="M22.3333 235.476C37.7512 235.476 50.25 222.925 50.25 207.443C50.25 191.961 37.7512 179.41 22.3333 179.41C6.91534 179.41 -5.58337 191.961 -5.58337 207.443C-5.58337 222.925 6.91534 235.476 22.3333 235.476Z" fill="#8FB2FF"/>
</mask>
<g mask="url(#mask9_7469_12318)">
<path d="M22.3333 235.476C37.7512 235.476 50.25 222.925 50.25 207.443C50.25 191.961 37.7512 179.41 22.3333 179.41C6.91534 179.41 -5.58337 191.961 -5.58337 207.443C-5.58337 222.925 6.91534 235.476 22.3333 235.476Z" fill="#D22222" fill-opacity="0.9"/>
<path d="M9.77002 201.623C9.76911 199.994 10.0878 198.382 10.7077 196.877C11.3276 195.373 12.2366 194.006 13.3828 192.854C14.5291 191.703 15.89 190.789 17.388 190.166C18.8859 189.543 20.4915 189.222 22.1129 189.222C25.3882 189.222 28.5294 190.528 30.8454 192.854C33.1614 195.179 34.4625 198.334 34.4625 201.623C34.4595 204.238 33.6332 206.786 32.1019 208.902C30.5705 211.018 28.4123 212.594 25.9357 213.405V241.041H18.2967V213.405C15.819 212.596 13.6597 211.02 12.1281 208.904C10.5964 206.788 9.771 204.239 9.77002 201.623Z" fill="#FFDFDF"/>
</g>
<mask id="mask10_7469_12318" style="mask-type:alpha" maskUnits="userSpaceOnUse" x="-6" y="-40" width="57" height="57">
<path d="M22.3333 16.8188C37.7512 16.8188 50.25 4.26801 50.25 -11.2141C50.25 -26.6963 37.7512 -39.2471 22.3333 -39.2471C6.91534 -39.2471 -5.58337 -26.6963 -5.58337 -11.2141C-5.58337 4.26801 6.91534 16.8188 22.3333 16.8188Z" fill="#8FB2FF"/>
</mask>
<g mask="url(#mask10_7469_12318)">
<path d="M22.3333 16.8188C37.7512 16.8188 50.25 4.26801 50.25 -11.2141C50.25 -26.6963 37.7512 -39.2471 22.3333 -39.2471C6.91534 -39.2471 -5.58337 -26.6963 -5.58337 -11.2141C-5.58337 4.26801 6.91534 16.8188 22.3333 16.8188Z" fill="#E0EAFF"/>
<path d="M9.77002 -17.0346C9.76911 -18.6628 10.0878 -20.2752 10.7077 -21.7798C11.3276 -23.2843 12.2366 -24.6514 13.3828 -25.803C14.5291 -26.9546 15.89 -27.8682 17.388 -28.4915C18.8859 -29.1147 20.4915 -29.4355 22.1129 -29.4355C25.3882 -29.4355 28.5294 -28.129 30.8454 -25.8034C33.1614 -23.4778 34.4625 -20.3236 34.4625 -17.0346C34.4595 -14.4189 33.6332 -11.871 32.1019 -9.75503C30.5705 -7.63904 28.4123 -6.06315 25.9357 -5.25248V22.3835H18.2967V-5.25248C15.819 -6.06136 13.6597 -7.6368 12.1281 -9.75321C10.5964 -11.8696 9.771 -14.4185 9.77002 -17.0346Z" fill="#CCDCFF"/>
<path d="M22.3318 50.4596C35.437 50.4596 46.0608 39.7913 46.0608 26.6312C46.0608 13.4711 35.437 2.80273 22.3318 2.80273C9.22663 2.80273 -1.39722 13.4711 -1.39722 26.6312C-1.39722 39.7913 9.22663 50.4596 22.3318 50.4596Z" fill="#CCDCFF"/>
</g>
<mask id="mask11_7469_12318" style="mask-type:alpha" maskUnits="userSpaceOnUse" x="66" y="179" width="57" height="57">
<path d="M94.2188 235.476C109.637 235.476 122.135 222.925 122.135 207.443C122.135 191.961 109.637 179.41 94.2188 179.41C78.8008 179.41 66.3021 191.961 66.3021 207.443C66.3021 222.925 78.8008 235.476 94.2188 235.476Z" fill="#8FB2FF"/>
</mask>
<g mask="url(#mask11_7469_12318)">
<path d="M94.2188 235.476C109.637 235.476 122.135 222.925 122.135 207.443C122.135 191.961 109.637 179.41 94.2188 179.41C78.8008 179.41 66.3021 191.961 66.3021 207.443C66.3021 222.925 78.8008 235.476 94.2188 235.476Z" fill="#E0EAFF"/>
<path d="M81.6556 201.623C81.6549 199.994 81.9732 198.382 82.593 196.877C83.2134 195.373 84.1221 194.006 85.2681 192.854C86.4148 191.703 87.7757 190.789 89.2735 190.166C90.7712 189.543 92.3771 189.222 93.9984 189.222C97.2737 189.222 100.415 190.528 102.731 192.854C105.047 195.179 106.348 198.334 106.348 201.623C106.345 204.238 105.519 206.786 103.988 208.902C102.456 211.018 100.298 212.594 97.8216 213.405V241.041H90.1822V213.405C87.7045 212.596 85.5452 211.02 84.0139 208.904C82.482 206.788 81.6563 204.239 81.6556 201.623Z" fill="#CCDCFF"/>
</g>
<mask id="mask12_7469_12318" style="mask-type:alpha" maskUnits="userSpaceOnUse" x="66" y="-40" width="57" height="57">
<path d="M94.2187 16.8188C109.637 16.8188 122.135 4.26802 122.135 -11.2141C122.135 -26.6963 109.637 -39.2471 94.2187 -39.2471C78.8007 -39.2471 66.302 -26.6963 66.302 -11.2141C66.302 4.26802 78.8007 16.8188 94.2187 16.8188Z" fill="#8FB2FF"/>
</mask>
<g mask="url(#mask12_7469_12318)">
<path d="M94.2187 16.8188C109.637 16.8188 122.135 4.26802 122.135 -11.2141C122.135 -26.6963 109.637 -39.2471 94.2187 -39.2471C78.8007 -39.2471 66.302 -26.6963 66.302 -11.2141C66.302 4.26802 78.8007 16.8188 94.2187 16.8188Z" fill="#E0EAFF"/>
<path d="M81.6555 -17.0346C81.6548 -18.6628 81.9731 -20.2752 82.5928 -21.7798C83.2133 -23.2843 84.122 -24.6514 85.268 -25.803C86.4146 -26.9546 87.7756 -27.8682 89.2733 -28.4915C90.7711 -29.1147 92.377 -29.4355 93.9983 -29.4355C97.2736 -29.4355 100.415 -28.129 102.731 -25.8034C105.047 -23.4778 106.348 -20.3236 106.348 -17.0346C106.345 -14.4189 105.519 -11.871 103.988 -9.75503C102.456 -7.63904 100.298 -6.06315 97.8215 -5.25248V22.3835H90.182V-5.25248C87.7044 -6.06136 85.545 -7.6368 84.0138 -9.75321C82.4819 -11.8696 81.6562 -14.4185 81.6555 -17.0346Z" fill="#CCDCFF"/>
<path d="M94.2172 50.4596C107.322 50.4596 117.946 39.7913 117.946 26.6312C117.946 13.4711 107.322 2.80273 94.2172 2.80273C81.112 2.80273 70.4882 13.4711 70.4882 26.6312C70.4882 39.7913 81.112 50.4596 94.2172 50.4596Z" fill="#CCDCFF"/>
</g>
<mask id="mask13_7469_12318" style="mask-type:alpha" maskUnits="userSpaceOnUse" x="138" y="179" width="57" height="57">
<path d="M166.104 235.476C181.522 235.476 194.021 222.925 194.021 207.443C194.021 191.961 181.522 179.41 166.104 179.41C150.686 179.41 138.188 191.961 138.188 207.443C138.188 222.925 150.686 235.476 166.104 235.476Z" fill="#8FB2FF"/>
</mask>
<g mask="url(#mask13_7469_12318)">
<path d="M166.104 235.476C181.522 235.476 194.021 222.925 194.021 207.443C194.021 191.961 181.522 179.41 166.104 179.41C150.686 179.41 138.188 191.961 138.188 207.443C138.188 222.925 150.686 235.476 166.104 235.476Z" fill="#E0EAFF"/>
<path d="M153.541 201.623C153.54 199.994 153.859 198.382 154.478 196.877C155.099 195.373 156.007 194.006 157.153 192.854C158.3 191.703 159.661 190.789 161.159 190.166C162.657 189.543 164.262 189.222 165.884 189.222C169.159 189.222 172.3 190.528 174.616 192.854C176.933 195.179 178.233 198.334 178.233 201.623C178.231 204.238 177.404 206.786 175.873 208.902C174.341 211.018 172.183 212.594 169.707 213.405V241.041H162.068V213.405C159.59 212.596 157.431 211.02 155.899 208.904C154.367 206.788 153.542 204.239 153.541 201.623Z" fill="#CCDCFF"/>
</g>
<mask id="mask14_7469_12318" style="mask-type:alpha" maskUnits="userSpaceOnUse" x="138" y="-40" width="57" height="57">
<path d="M166.104 16.8188C181.522 16.8188 194.021 4.26802 194.021 -11.2141C194.021 -26.6963 181.522 -39.2471 166.104 -39.2471C150.686 -39.2471 138.188 -26.6963 138.188 -11.2141C138.188 4.26802 150.686 16.8188 166.104 16.8188Z" fill="#8FB2FF"/>
</mask>
<g mask="url(#mask14_7469_12318)">
<path d="M166.104 16.8188C181.522 16.8188 194.021 4.26802 194.021 -11.2141C194.021 -26.6963 181.522 -39.2471 166.104 -39.2471C150.686 -39.2471 138.188 -26.6963 138.188 -11.2141C138.188 4.26802 150.686 16.8188 166.104 16.8188Z" fill="#E0EAFF"/>
<path d="M153.541 -17.0346C153.54 -18.6628 153.859 -20.2752 154.478 -21.7798C155.099 -23.2843 156.007 -24.6514 157.153 -25.803C158.3 -26.9546 159.661 -27.8682 161.159 -28.4915C162.657 -29.1147 164.262 -29.4355 165.884 -29.4355C169.159 -29.4355 172.3 -28.129 174.616 -25.8034C176.933 -23.4778 178.233 -20.3236 178.233 -17.0346C178.231 -14.4189 177.404 -11.871 175.873 -9.75503C174.341 -7.63904 172.183 -6.06315 169.707 -5.25248V22.3835H162.068V-5.25248C159.59 -6.06136 157.431 -7.6368 155.899 -9.75321C154.367 -11.8696 153.542 -14.4185 153.541 -17.0346Z" fill="#CCDCFF"/>
<path d="M166.103 50.4596C179.208 50.4596 189.832 39.7913 189.832 26.6312C189.832 13.4711 179.208 2.80273 166.103 2.80273C152.998 2.80273 142.374 13.4711 142.374 26.6312C142.374 39.7913 152.998 50.4596 166.103 50.4596Z" fill="#CCDCFF"/>
</g>
<mask id="mask15_7469_12318" style="mask-type:alpha" maskUnits="userSpaceOnUse" x="210" y="179" width="56" height="57">
<path d="M237.99 235.476C253.407 235.476 265.906 222.925 265.906 207.443C265.906 191.961 253.407 179.41 237.99 179.41C222.572 179.41 210.073 191.961 210.073 207.443C210.073 222.925 222.572 235.476 237.99 235.476Z" fill="#8FB2FF"/>
</mask>
<g mask="url(#mask15_7469_12318)">
<path d="M237.99 235.476C253.407 235.476 265.906 222.925 265.906 207.443C265.906 191.961 253.407 179.41 237.99 179.41C222.572 179.41 210.073 191.961 210.073 207.443C210.073 222.925 222.572 235.476 237.99 235.476Z" fill="#E0EAFF"/>
<path d="M225.426 201.623C225.426 199.994 225.744 198.382 226.364 196.877C226.984 195.373 227.893 194.006 229.039 192.854C230.186 191.703 231.546 190.789 233.044 190.166C234.542 189.543 236.148 189.222 237.769 189.222C241.044 189.222 244.186 190.528 246.502 192.854C248.818 195.179 250.119 198.334 250.119 201.623C250.116 204.238 249.29 206.786 247.758 208.902C246.227 211.018 244.069 212.594 241.592 213.405V241.041H233.953V213.405C231.475 212.596 229.316 211.02 227.785 208.904C226.253 206.788 225.427 204.239 225.426 201.623Z" fill="#CCDCFF"/>
</g>
<mask id="mask16_7469_12318" style="mask-type:alpha" maskUnits="userSpaceOnUse" x="210" y="-40" width="56" height="57">
<path d="M237.99 16.8188C253.407 16.8188 265.906 4.26802 265.906 -11.2141C265.906 -26.6963 253.407 -39.2471 237.99 -39.2471C222.572 -39.2471 210.073 -26.6963 210.073 -11.2141C210.073 4.26802 222.572 16.8188 237.99 16.8188Z" fill="#8FB2FF"/>
</mask>
<g mask="url(#mask16_7469_12318)">
<path d="M237.99 16.8188C253.407 16.8188 265.906 4.26802 265.906 -11.2141C265.906 -26.6963 253.407 -39.2471 237.99 -39.2471C222.572 -39.2471 210.073 -26.6963 210.073 -11.2141C210.073 4.26802 222.572 16.8188 237.99 16.8188Z" fill="#E0EAFF"/>
<path d="M225.426 -17.0346C225.426 -18.6628 225.744 -20.2752 226.364 -21.7798C226.984 -23.2843 227.893 -24.6514 229.039 -25.803C230.186 -26.9546 231.546 -27.8682 233.044 -28.4915C234.542 -29.1147 236.148 -29.4355 237.769 -29.4355C241.044 -29.4355 244.186 -28.129 246.502 -25.8034C248.818 -23.4778 250.119 -20.3236 250.119 -17.0346C250.116 -14.4189 249.29 -11.871 247.758 -9.75503C246.227 -7.63904 244.069 -6.06315 241.592 -5.25248V22.3835H233.953V-5.25248C231.475 -6.06136 229.316 -7.6368 227.785 -9.75321C226.253 -11.8696 225.427 -14.4185 225.426 -17.0346Z" fill="#CCDCFF"/>
<path d="M237.988 50.4596C251.093 50.4596 261.717 39.7913 261.717 26.6312C261.717 13.4711 251.093 2.80273 237.988 2.80273C224.883 2.80273 214.259 13.4711 214.259 26.6312C214.259 39.7913 224.883 50.4596 237.988 50.4596Z" fill="#CCDCFF"/>
</g>
<mask id="mask17_7469_12318" style="mask-type:alpha" maskUnits="userSpaceOnUse" x="281" y="179" width="57" height="57">
<path d="M309.875 235.476C325.293 235.476 337.792 222.925 337.792 207.443C337.792 191.961 325.293 179.41 309.875 179.41C294.457 179.41 281.958 191.961 281.958 207.443C281.958 222.925 294.457 235.476 309.875 235.476Z" fill="#8FB2FF"/>
</mask>
<g mask="url(#mask17_7469_12318)">
<path d="M309.875 235.476C325.293 235.476 337.792 222.925 337.792 207.443C337.792 191.961 325.293 179.41 309.875 179.41C294.457 179.41 281.958 191.961 281.958 207.443C281.958 222.925 294.457 235.476 309.875 235.476Z" fill="#E0EAFF"/>
<path d="M297.312 201.623C297.311 199.994 297.629 198.382 298.249 196.877C298.87 195.373 299.778 194.006 300.924 192.854C302.071 191.703 303.432 190.789 304.93 190.166C306.427 189.543 308.033 189.222 309.655 189.222C312.93 189.222 316.071 190.528 318.387 192.854C320.703 195.179 322.004 198.334 322.004 201.623C322.002 204.238 321.175 206.786 319.644 208.902C318.112 211.018 315.954 212.594 313.478 213.405V241.041H305.838V213.405C303.361 212.596 301.201 211.02 299.67 208.904C298.138 206.788 297.313 204.239 297.312 201.623Z" fill="#CCDCFF"/>
</g>
<mask id="mask18_7469_12318" style="mask-type:alpha" maskUnits="userSpaceOnUse" x="281" y="-40" width="57" height="57">
<path d="M309.875 16.8188C325.293 16.8188 337.792 4.26802 337.792 -11.2141C337.792 -26.6963 325.293 -39.2471 309.875 -39.2471C294.457 -39.2471 281.958 -26.6963 281.958 -11.2141C281.958 4.26802 294.457 16.8188 309.875 16.8188Z" fill="#8FB2FF"/>
</mask>
<g mask="url(#mask18_7469_12318)">
<path d="M309.875 16.8188C325.293 16.8188 337.792 4.26802 337.792 -11.2141C337.792 -26.6963 325.293 -39.2471 309.875 -39.2471C294.457 -39.2471 281.958 -26.6963 281.958 -11.2141C281.958 4.26802 294.457 16.8188 309.875 16.8188Z" fill="#D22222" fill-opacity="0.9"/>
<path d="M297.312 -17.0346C297.311 -18.6628 297.629 -20.2752 298.249 -21.7798C298.87 -23.2843 299.778 -24.6514 300.924 -25.803C302.071 -26.9546 303.432 -27.8682 304.93 -28.4915C306.427 -29.1147 308.033 -29.4355 309.655 -29.4355C312.93 -29.4355 316.071 -28.129 318.387 -25.8034C320.703 -23.4778 322.004 -20.3236 322.004 -17.0346C322.002 -14.4189 321.175 -11.871 319.644 -9.75503C318.112 -7.63904 315.954 -6.06315 313.478 -5.25248V22.3835H305.838V-5.25248C303.361 -6.06136 301.201 -7.6368 299.67 -9.75321C298.138 -11.8696 297.313 -14.4185 297.312 -17.0346Z" fill="white"/>
<path d="M309.874 50.4596C322.979 50.4596 333.603 39.7913 333.603 26.6312C333.603 13.4711 322.979 2.80273 309.874 2.80273C296.768 2.80273 286.145 13.4711 286.145 26.6312C286.145 39.7913 296.768 50.4596 309.874 50.4596Z" fill="white"/>
</g>
<mask id="mask19_7469_12318" style="mask-type:alpha" maskUnits="userSpaceOnUse" x="284" y="106" width="57" height="57">
<path d="M312.667 162.59C328.085 162.59 340.583 150.039 340.583 134.557C340.583 119.075 328.085 106.524 312.667 106.524C297.249 106.524 284.75 119.075 284.75 134.557C284.75 150.039 297.249 162.59 312.667 162.59Z" fill="#B3CBFF"/>
</mask>
<g mask="url(#mask19_7469_12318)">
<path d="M312.667 162.59C328.085 162.59 340.583 150.039 340.583 134.557C340.583 119.075 328.085 106.524 312.667 106.524C297.249 106.524 284.75 119.075 284.75 134.557C284.75 150.039 297.249 162.59 312.667 162.59Z" fill="#D22222" fill-opacity="0.9"/>
<path d="M300.104 128.737C300.103 127.109 300.421 125.496 301.041 123.992C301.661 122.488 302.57 121.12 303.716 119.969C304.863 118.818 306.224 117.904 307.721 117.281C309.219 116.657 310.825 116.336 312.446 116.336C315.722 116.336 318.863 117.643 321.179 119.968C323.495 122.294 324.796 125.448 324.796 128.737C324.793 131.353 323.967 133.901 322.436 136.016C320.904 138.133 318.746 139.708 316.269 140.519V168.155H308.63V140.519C306.152 139.71 303.993 138.135 302.462 136.019C300.93 133.902 300.104 131.353 300.104 128.737Z" fill="white"/>
<path d="M306.424 117.913C307.912 121.718 310.223 125.144 313.189 127.943C316.155 130.742 319.703 132.845 323.577 134.1C324.382 132.426 324.799 130.591 324.796 128.731C324.796 125.444 323.496 122.291 321.181 119.967C318.866 117.643 315.726 116.337 312.453 116.337C310.341 116.333 308.265 116.876 306.424 117.913Z" fill="#FFDFDF"/>
<path d="M312.667 196.23C325.772 196.23 336.396 185.562 336.396 172.402C336.396 159.242 325.772 148.573 312.667 148.573C299.561 148.573 288.938 159.242 288.938 172.402C288.938 185.562 299.561 196.23 312.667 196.23Z" fill="white"/>
</g>
<mask id="mask20_7469_12318" style="mask-type:alpha" maskUnits="userSpaceOnUse" x="139" y="106" width="57" height="57">
<path d="M167.5 162.59C182.918 162.59 195.417 150.039 195.417 134.557C195.417 119.075 182.918 106.524 167.5 106.524C152.082 106.524 139.583 119.075 139.583 134.557C139.583 150.039 152.082 162.59 167.5 162.59Z" fill="#8FB2FF"/>
</mask>
<g mask="url(#mask20_7469_12318)">
<path d="M167.5 162.59C182.918 162.59 195.417 150.039 195.417 134.557C195.417 119.075 182.918 106.524 167.5 106.524C152.082 106.524 139.583 119.075 139.583 134.557C139.583 150.039 152.082 162.59 167.5 162.59Z" fill="#D22222" fill-opacity="0.9"/>
<path d="M155.044 131.413C155.042 129.877 155.343 128.356 155.928 126.937C156.513 125.518 157.37 124.228 158.452 123.142C159.533 122.056 160.816 121.194 162.229 120.606C163.642 120.018 165.157 119.715 166.686 119.715C169.776 119.715 172.739 120.948 174.924 123.141C177.108 125.335 178.335 128.311 178.335 131.413C178.333 133.88 177.554 136.284 176.109 138.28C174.664 140.276 172.628 141.762 170.293 142.527V168.597H163.087V142.527C160.749 141.765 158.713 140.278 157.268 138.281C155.823 136.285 155.044 133.881 155.044 131.413Z" fill="white"/>
<path d="M166.893 193.097C179.255 193.097 189.277 183.034 189.277 170.62C189.277 158.206 179.255 148.143 166.893 148.143C154.531 148.143 144.51 158.206 144.51 170.62C144.51 183.034 154.531 193.097 166.893 193.097Z" fill="white"/>
<path d="M172.396 127.868C170.317 128.383 168.614 126.968 168.021 126.197C168.021 129.926 165.834 134.427 160.639 134.556C156.484 134.658 156.448 131.855 156.949 130.44C155.399 131.855 151.809 133.758 149.841 130.055C147.38 125.425 156.665 118.151 163.92 116.81C171.685 115.374 178.411 118.096 178.957 121.696C179.395 124.576 175.95 124.868 174.173 124.654C174.446 125.511 174.474 127.354 172.396 127.868Z" fill="#FFDFDF"/>
</g>
</g>
</svg>
