<svg width="27" height="26" viewBox="0 0 27 26" fill="none" xmlns="http://www.w3.org/2000/svg">
<path d="M17.3992 7.40441L17.7742 8.05393L17.3992 7.40441ZM20.3589 8.19746L21.0084 7.82246V7.82246L20.3589 8.19746ZM20.9005 9.13566L20.251 9.51066L20.9005 9.13566ZM20.1075 12.0954L20.4825 12.7449L20.1075 12.0954ZM20.1075 13.9044L19.7325 14.5539L20.1075 13.9044ZM20.9006 16.8641L21.5501 17.2391L20.9006 16.8641ZM20.3589 17.8023L19.7094 17.4273L20.3589 17.8023ZM17.3992 18.5954L17.7742 17.9459V17.9459L17.3992 18.5954ZM8.84916 18.5954L8.47416 17.9459L8.47416 17.9459L8.84916 18.5954ZM5.88944 17.8023L6.53895 17.4273L5.88944 17.8023ZM5.34777 16.8641L4.69825 17.2391L4.69825 17.2391L5.34777 16.8641ZM6.14082 13.9044L5.76582 13.2549L5.76582 13.2549L6.14082 13.9044ZM6.14085 12.0954L5.76585 12.7449L6.14085 12.0954ZM5.34779 9.13566L4.69827 8.76066H4.69827L5.34779 9.13566ZM5.88946 8.19746L6.53898 8.57246L5.88946 8.19746ZM8.84918 7.40441L8.47418 8.05393L8.84918 7.40441ZM12.5824 3.58325C10.9716 3.58325 9.66574 4.88909 9.66574 6.49992H11.1657C11.1657 5.71752 11.8 5.08325 12.5824 5.08325V3.58325ZM13.6657 3.58325H12.5824V5.08325H13.6657V3.58325ZM16.5824 6.49992C16.5824 4.88909 15.2766 3.58325 13.6657 3.58325V5.08325C14.4481 5.08325 15.0824 5.71752 15.0824 6.49992H16.5824ZM21.0084 7.82246C20.203 6.42744 18.4192 5.94947 17.0242 6.75489L17.7742 8.05393C18.4517 7.66272 19.3182 7.89488 19.7094 8.57246L21.0084 7.82246ZM21.5501 8.76066L21.0084 7.82246L19.7094 8.57246L20.251 9.51066L21.5501 8.76066ZM20.4825 12.7449C21.8775 11.9395 22.3555 10.1557 21.5501 8.76066L20.251 9.51066C20.6422 10.1882 20.4101 11.0547 19.7325 11.4459L20.4825 12.7449ZM21.5501 17.2391C22.3555 15.8441 21.8775 14.0603 20.4825 13.2549L19.7325 14.5539C20.4101 14.9451 20.6423 15.8115 20.251 16.4891L21.5501 17.2391ZM21.0084 18.1773L21.5501 17.2391L20.251 16.4891L19.7094 17.4273L21.0084 18.1773ZM17.0242 19.2449C18.4192 20.0503 20.203 19.5723 21.0084 18.1773L19.7094 17.4273C19.3182 18.1049 18.4518 18.3371 17.7742 17.9459L17.0242 19.2449ZM13.6657 22.4166C15.2766 22.4166 16.5824 21.1107 16.5824 19.4999H15.0824C15.0824 20.2823 14.4481 20.9166 13.6657 20.9166V22.4166ZM12.5824 22.4166H13.6657V20.9166H12.5824V22.4166ZM9.66574 19.4999C9.66574 21.1107 10.9716 22.4166 12.5824 22.4166V20.9166C11.8 20.9166 11.1657 20.2823 11.1657 19.4999H9.66574ZM5.23992 18.1773C6.04533 19.5723 7.82914 20.0503 9.22416 19.2449L8.47416 17.9459C7.79658 18.3371 6.93016 18.1049 6.53895 17.4273L5.23992 18.1773ZM4.69825 17.2391L5.23992 18.1773L6.53895 17.4273L5.99729 16.4891L4.69825 17.2391ZM5.76582 13.2549C4.3708 14.0603 3.89283 15.8441 4.69825 17.2391L5.99729 16.4891C5.60609 15.8115 5.83824 14.9451 6.51582 14.5539L5.76582 13.2549ZM4.69827 8.76066C3.89286 10.1557 4.37083 11.9395 5.76585 12.7449L6.51585 11.4459C5.83827 11.0547 5.60611 10.1882 5.99731 9.51066L4.69827 8.76066ZM5.23994 7.82246L4.69827 8.76066L5.99731 9.51066L6.53898 8.57246L5.23994 7.82246ZM9.22418 6.75489C7.82916 5.94947 6.04536 6.42744 5.23994 7.82246L6.53898 8.57246C6.93018 7.89488 7.7966 7.66272 8.47418 8.05393L9.22418 6.75489ZM8.47418 8.05393C9.67047 8.7446 11.1657 7.88118 11.1657 6.49992H9.66574C9.66574 6.72657 9.42039 6.86817 9.22418 6.75489L8.47418 8.05393ZM6.51582 14.5539C7.71208 13.8633 7.71217 12.1366 6.51585 11.4459L5.76585 12.7449C5.96211 12.8582 5.96214 13.1415 5.76582 13.2549L6.51582 14.5539ZM11.1657 19.4999C11.1657 18.1187 9.6705 17.2552 8.47416 17.9459L9.22416 19.2449C9.42033 19.1316 9.66574 19.2732 9.66574 19.4999H11.1657ZM17.7742 17.9459C16.5779 17.2552 15.0824 18.1185 15.0824 19.4999H16.5824C16.5824 19.2733 16.8278 19.1315 17.0242 19.2449L17.7742 17.9459ZM19.7325 11.4459C18.5362 12.1366 18.5363 13.8633 19.7325 14.5539L20.4825 13.2549C20.2862 13.1415 20.2862 12.8582 20.4825 12.7449L19.7325 11.4459ZM15.0824 6.49992C15.0824 7.88139 16.5779 8.74456 17.7742 8.05393L17.0242 6.75489C16.8278 6.86827 16.5824 6.7265 16.5824 6.49992H15.0824ZM14.7378 12.9998C14.7378 13.891 14.0153 14.6135 13.1241 14.6135V16.1135C14.8437 16.1135 16.2378 14.7195 16.2378 12.9998H14.7378ZM13.1241 14.6135C12.2329 14.6135 11.5105 13.891 11.5105 12.9998H10.0105C10.0105 14.7195 11.4045 16.1135 13.1241 16.1135V14.6135ZM11.5105 12.9998C11.5105 12.1087 12.2329 11.3862 13.1241 11.3862V9.88621C11.4045 9.88621 10.0105 11.2802 10.0105 12.9998H11.5105ZM13.1241 11.3862C14.0153 11.3862 14.7378 12.1087 14.7378 12.9998H16.2378C16.2378 11.2802 14.8437 9.88621 13.1241 9.88621V11.3862Z" fill="#C90000"/>
</svg>
