<svg width="26" height="25" viewBox="0 0 26 25" fill="none" xmlns="http://www.w3.org/2000/svg">
<g id="settings">
<path id="Vector" d="M16.8741 7.24445L17.2061 7.81951V7.81951L16.8741 7.24445ZM19.6961 8.0006L20.2711 7.66859V7.66859L19.6961 8.0006ZM20.2125 8.89514L19.6375 9.22715L20.2125 8.89514ZM19.4564 11.7171L19.7884 12.2922H19.7884L19.4564 11.7171ZM19.4564 13.442L19.1244 14.017L19.4564 13.442ZM20.2126 16.2639L20.7876 16.596L20.2126 16.2639ZM19.6961 17.1585L19.1211 16.8265V16.8265L19.6961 17.1585ZM16.8741 17.9146L17.2061 17.3396L16.8741 17.9146ZM8.722 17.9146L8.38999 17.3396H8.38999L8.722 17.9146ZM5.90002 17.1585L6.47508 16.8265H6.47508L5.90002 17.1585ZM5.38356 16.2639L4.8085 16.596H4.8085L5.38356 16.2639ZM6.13971 13.442L5.8077 12.8669H5.8077L6.13971 13.442ZM6.13973 11.7171L5.80772 12.2922L6.13973 11.7171ZM5.38358 8.89514L4.80853 8.56313H4.80853L5.38358 8.89514ZM5.90004 8.0006L6.4751 8.33261L5.90004 8.0006ZM8.72203 7.24445L8.39002 7.81951H8.39002L8.72203 7.24445ZM12.2815 3.6522C10.7739 3.6522 9.55166 4.8744 9.55166 6.38206H10.8797C10.8797 5.60786 11.5073 4.98024 12.2815 4.98024V3.6522ZM13.3144 3.6522H12.2815V4.98024H13.3144V3.6522ZM16.0443 6.38206C16.0443 4.8744 14.8221 3.6522 13.3144 3.6522V4.98024C14.0886 4.98024 14.7162 5.60786 14.7162 6.38206H16.0443ZM20.2711 7.66859C19.5173 6.36292 17.8478 5.91557 16.5421 6.6694L17.2061 7.81951C17.8766 7.43241 18.7339 7.66213 19.121 8.33261L20.2711 7.66859ZM20.7876 8.56313L20.2711 7.66859L19.121 8.33261L19.6375 9.22715L20.7876 8.56313ZM19.7884 12.2922C21.0941 11.5383 21.5414 9.8688 20.7876 8.56313L19.6375 9.22715C20.0246 9.89762 19.7949 10.755 19.1244 11.1421L19.7884 12.2922ZM20.7876 16.596C21.5415 15.2903 21.0941 13.6207 19.7884 12.8669L19.1244 14.017C19.7949 14.4041 20.0246 15.2615 19.6375 15.9319L20.7876 16.596ZM20.2712 17.4905L20.7876 16.596L19.6375 15.9319L19.1211 16.8265L20.2712 17.4905ZM16.5421 18.4897C17.8478 19.2435 19.5173 18.7962 20.2712 17.4905L19.1211 16.8265C18.734 17.4969 17.8766 17.7267 17.2061 17.3396L16.5421 18.4897ZM13.3144 21.5069C14.8221 21.5069 16.0443 20.2847 16.0443 18.7771H14.7162C14.7162 19.5513 14.0886 20.1789 13.3144 20.1789V21.5069ZM12.2815 21.5069H13.3144V20.1789H12.2815V21.5069ZM9.55166 18.7771C9.55166 20.2847 10.7739 21.5069 12.2815 21.5069V20.1789C11.5073 20.1789 10.8797 19.5513 10.8797 18.7771H9.55166ZM5.32496 17.4905C6.07879 18.7962 7.74834 19.2435 9.05401 18.4897L8.38999 17.3396C7.71952 17.7267 6.86218 17.497 6.47508 16.8265L5.32496 17.4905ZM4.8085 16.596L5.32496 17.4905L6.47508 16.8265L5.95862 15.9319L4.8085 16.596ZM5.8077 12.8669C4.50203 13.6207 4.05467 15.2903 4.8085 16.596L5.95862 15.9319C5.57152 15.2615 5.80124 14.4041 6.47172 14.017L5.8077 12.8669ZM4.80853 8.56313C4.0547 9.8688 4.50205 11.5383 5.80772 12.2922L6.47174 11.1421C5.80126 10.755 5.57154 9.89762 5.95864 9.22715L4.80853 8.56313ZM5.32499 7.66859L4.80853 8.56313L5.95864 9.22715L6.4751 8.33261L5.32499 7.66859ZM9.05404 6.6694C7.74837 5.91557 6.07881 6.36292 5.32499 7.66859L6.4751 8.33261C6.8622 7.66213 7.71954 7.43241 8.39002 7.81951L9.05404 6.6694ZM8.39002 7.81951C9.49658 8.45838 10.8797 7.65972 10.8797 6.38206H9.55166C9.55166 6.63748 9.27517 6.79707 9.05404 6.6694L8.39002 7.81951ZM6.47172 14.017C7.57826 13.3782 7.57833 11.781 6.47174 11.1421L5.80772 12.2922C6.0289 12.4199 6.02893 12.7392 5.8077 12.8669L6.47172 14.017ZM10.8797 18.7771C10.8797 17.4994 9.4966 16.7007 8.38999 17.3396L9.05401 18.4897C9.27512 18.362 9.55166 18.5216 9.55166 18.7771H10.8797ZM17.2061 17.3396C16.0996 16.7007 14.7162 17.4992 14.7162 18.7771H16.0443C16.0443 18.5216 16.3208 18.3619 16.5421 18.4897L17.2061 17.3396ZM19.1244 11.1421C18.0178 11.781 18.0179 13.3782 19.1244 14.017L19.7884 12.8669C19.5672 12.7392 19.5672 12.4199 19.7884 12.2922L19.1244 11.1421ZM14.7162 6.38206C14.7162 7.65991 16.0996 8.45835 17.2061 7.81951L16.5421 6.6694C16.3208 6.79716 16.0443 6.63742 16.0443 6.38206H14.7162ZM14.3876 12.5795C14.3876 13.4574 13.676 14.1691 12.798 14.1691V15.4972C14.4094 15.4972 15.7157 14.1909 15.7157 12.5795H14.3876ZM12.798 14.1691C11.9201 14.1691 11.2084 13.4574 11.2084 12.5795H9.88037C9.88037 14.1909 11.1867 15.4972 12.798 15.4972V14.1691ZM11.2084 12.5795C11.2084 11.7016 11.9201 10.9899 12.798 10.9899V9.66184C11.1867 9.66184 9.88037 10.9681 9.88037 12.5795H11.2084ZM12.798 10.9899C13.676 10.9899 14.3876 11.7016 14.3876 12.5795H15.7157C15.7157 10.9681 14.4094 9.66184 12.798 9.66184V10.9899Z" fill="white"/>
</g>
</svg>
