<svg width="24" height="24" viewBox="0 0 24 24" fill="none" xmlns="http://www.w3.org/2000/svg">
    <g id="star">
        <path id="Vector"
            d="M11.5424 4.58423C11.7296 4.20499 12.2704 4.205 12.4576 4.58423L14.4157 8.55111C14.5642 8.85203 14.8512 9.0607 15.1833 9.10923L19.5629 9.74939C19.9814 9.81055 20.1481 10.3249 19.8452 10.6199L16.6773 13.7054C16.4366 13.9399 16.3267 14.2779 16.3835 14.6091L17.131 18.9675C17.2025 19.3844 16.7649 19.7023 16.3905 19.5054L12.475 17.4463C12.1777 17.2899 11.8223 17.2899 11.525 17.4463L7.60946 19.5054C7.23509 19.7023 6.79749 19.3844 6.86899 18.9675L7.61652 14.6091C7.67332 14.2779 7.56344 13.9399 7.32271 13.7054L4.1548 10.6199C3.85189 10.3249 4.01865 9.81055 4.43705 9.74939L8.81675 9.10923C9.14881 9.0607 9.43578 8.85203 9.58432 8.55111L11.5424 4.58423Z"
            fill="#FFAA00" stroke="#FFAA00" stroke-width="1.5" stroke-linecap="round"
            stroke-linejoin="round" />

    </g>
</svg>