<svg width="26" height="25" viewBox="0 0 26 25" fill="none" xmlns="http://www.w3.org/2000/svg">
<g id="team">
<path id="Vector" d="M7.71064 12.5796C4.58067 13.2098 4.49804 16.7603 5.29343 18.7666V18.7771M8.39286 5.34914C7.00875 5.40079 5.90353 6.537 5.90353 7.93144C5.90353 9.35686 7.0604 10.5137 8.48582 10.5137C8.65109 10.5137 8.81636 10.4931 8.97129 10.4724M20.9744 18.7771V18.7666C21.7699 16.7603 21.6872 13.2098 18.5572 12.5796M17.2965 10.4724C17.4515 10.4931 17.6168 10.5137 17.782 10.5137C19.2074 10.5137 20.3643 9.35686 20.3643 7.93144C20.3643 6.50601 19.2591 5.40079 17.875 5.34914M17.7272 20.8429H8.53994L8.5322 20.8237C7.36398 17.9302 7.62159 12.5796 13.1339 12.5796C18.6463 12.5796 18.9036 17.931 17.7347 20.8244L17.7272 20.8429ZM16.2327 7.41498C16.2327 9.12637 14.8453 10.5137 13.134 10.5137C11.4226 10.5137 10.0352 9.12637 10.0352 7.41498C10.0352 5.70358 11.4226 4.31622 13.134 4.31622C14.8453 4.31622 16.2327 5.70358 16.2327 7.41498Z" stroke="white" stroke-width="1.32804" stroke-linecap="round" stroke-linejoin="round"/>
</g>
</svg>
