<svg width="24" height="24" viewBox="0 0 24 24" fill="none" xmlns="http://www.w3.org/2000/svg">
<path d="M12 12.75C8.83 12.75 6.25 10.17 6.25 7C6.25 3.83 8.83 1.25 12 1.25C15.17 1.25 17.75 3.83 17.75 7C17.75 10.17 15.17 12.75 12 12.75ZM12 2.75C9.66 2.75 7.75 4.66 7.75 7C7.75 9.34 9.66 11.25 12 11.25C14.34 11.25 16.25 9.34 16.25 7C16.25 4.66 14.34 2.75 12 2.75Z" fill="#131214"/>
<path d="M3.41016 22.75C3.00016 22.75 2.66016 22.41 2.66016 22C2.66016 17.73 6.85018 14.25 12.0002 14.25C12.4102 14.25 12.7502 14.59 12.7502 15C12.7502 15.41 12.4102 15.75 12.0002 15.75C7.68018 15.75 4.16016 18.55 4.16016 22C4.16016 22.41 3.82016 22.75 3.41016 22.75Z" fill="#131214"/>
<path d="M18.2 22.15C16.02 22.15 14.25 20.38 14.25 18.2C14.25 16.02 16.02 14.25 18.2 14.25C20.38 14.25 22.15 16.02 22.15 18.2C22.15 20.38 20.38 22.15 18.2 22.15ZM18.2 15.75C16.85 15.75 15.75 16.85 15.75 18.2C15.75 19.55 16.85 20.65 18.2 20.65C19.55 20.65 20.65 19.55 20.65 18.2C20.65 16.85 19.55 15.75 18.2 15.75Z" fill="#131214"/>
<path d="M22.0005 22.7497C21.8105 22.7497 21.6204 22.6798 21.4704 22.5298L20.4704 21.5298C20.1804 21.2398 20.1804 20.7597 20.4704 20.4697C20.7604 20.1797 21.2405 20.1797 21.5305 20.4697L22.5305 21.4697C22.8205 21.7597 22.8205 22.2398 22.5305 22.5298C22.3805 22.6798 22.1905 22.7497 22.0005 22.7497Z" fill="#131214"/>
</svg>
