<svg width="27" height="26" viewBox="0 0 27 26" fill="none" xmlns="http://www.w3.org/2000/svg">
<path d="M14.4166 12.4583C14.4166 12.7574 14.1741 12.9999 13.875 12.9999C13.5758 12.9999 13.3333 12.7574 13.3333 12.4583C13.3333 12.1591 13.5758 11.9166 13.875 11.9166C14.1741 11.9166 14.4166 12.1591 14.4166 12.4583Z" fill="#C4C4C4"/>
<path d="M8.45831 21.6666H19.2916M8.14486 7.9682L7.14623 7.46888C6.34776 7.06965 5.4362 7.75332 5.59589 8.63164L6.88977 15.748C7.17074 17.2933 8.51667 18.4166 10.0873 18.4166H17.6626C19.2333 18.4166 20.5792 17.2933 20.8602 15.748L22.1541 8.63164C22.3137 7.75332 21.4022 7.06965 20.6037 7.46888L19.6051 7.9682C18.7709 8.38527 17.7635 8.22178 17.1041 7.56234L14.641 5.09928C14.2179 4.67622 13.532 4.67622 13.1089 5.09928L10.6459 7.56233C9.98644 8.22178 8.97901 8.38527 8.14486 7.9682ZM14.4166 12.4583C14.4166 12.7574 14.1741 12.9999 13.875 12.9999C13.5758 12.9999 13.3333 12.7574 13.3333 12.4583C13.3333 12.1591 13.5758 11.9166 13.875 11.9166C14.1741 11.9166 14.4166 12.1591 14.4166 12.4583Z" stroke="#C4C4C4" stroke-width="1.5" stroke-linecap="round" stroke-linejoin="round"/>
</svg>
