<svg width="24" height="24" viewBox="0 0 24 24" fill="none" xmlns="http://www.w3.org/2000/svg">
<path d="M17.1996 13.1184C17.1758 10.4513 19.3571 9.17084 19.4534 9.11149C18.2277 7.29936 16.3166 7.04679 15.6387 7.01649C14.0115 6.85106 12.4631 7.98506 11.6401 7.98506C10.8171 7.98506 9.54137 7.04427 8.19558 7.07079C6.41954 7.09478 4.78858 8.11261 3.8743 9.71007C2.03322 12.9353 3.40152 17.7163 5.19882 20.3316C6.07434 21.6121 7.1187 23.0504 8.49075 22.9986C9.81528 22.9469 10.3156 22.1361 11.914 22.1361C13.5124 22.1361 13.9615 22.9986 15.361 22.9772C16.7831 22.9469 17.6849 21.6664 18.5529 20.3859C19.5585 18.8996 19.9762 17.4612 20 17.3854C19.9687 17.3741 17.2259 16.3108 17.1984 13.1184H17.1996Z" fill="#111111"/>
<path d="M14.6893 5.45597C15.5524 4.54139 16.1332 3.26745 15.9736 2C14.7337 2.04151 13.2307 2.72778 12.3425 3.63847C11.5429 4.45187 10.8409 5.75175 11.0316 6.99196C12.4134 7.08407 13.8307 6.37315 14.6893 5.45597Z" fill="#111111"/>
</svg>
