<svg width="24" height="24" viewBox="0 0 24 24" fill="none" xmlns="http://www.w3.org/2000/svg">
<path d="M3.36967 2.31823C3.11284 2.6219 2.98178 3.01226 3.00335 3.4094V20.6499C2.97683 21.0477 3.10849 21.4398 3.36967 21.741L3.42423 21.8034L13.0811 12.1465V11.9127L3.42423 2.26367L3.36967 2.31823Z" fill="url(#paint0_linear_2007_492)"/>
<path d="M16.2776 15.3631L13.082 12.1442V11.9104L16.2776 8.69141L16.3477 8.73817L20.1746 10.9049C21.2658 11.5207 21.2658 12.5339 20.1746 13.1574L16.3633 15.3242L16.2776 15.3631Z" fill="url(#paint1_linear_2007_492)"/>
<path d="M16.3677 15.3184L13.0786 12.0293L3.36719 21.7407C3.58743 21.9367 3.86933 22.0495 4.16402 22.0595C4.4587 22.0695 4.74758 21.976 4.98056 21.7953L16.3677 15.3184Z" fill="url(#paint2_linear_2007_492)"/>
<path d="M16.3716 8.74003L4.98446 2.27096C4.753 2.08773 4.46435 1.99197 4.16926 2.00053C3.87418 2.00908 3.59156 2.12139 3.37109 2.31772L13.0825 12.0291L16.3716 8.74003Z" fill="url(#paint3_linear_2007_492)"/>
<path opacity="0.2" d="M16.2742 15.248L4.98056 21.6781C4.75605 21.8476 4.48243 21.9393 4.20115 21.9393C3.91987 21.9393 3.64626 21.8476 3.42175 21.6781L3.36719 21.7327L3.42175 21.7951C3.64626 21.9645 3.91987 22.0562 4.20115 22.0562C4.48243 22.0562 4.75605 21.9645 4.98056 21.7951L16.3677 15.3182L16.2742 15.248Z" fill="black"/>
<path opacity="0.12" d="M3.37085 21.6322C3.1205 21.323 2.99781 20.9299 3.02791 20.5332V20.6501C3.00139 21.0479 3.13305 21.4401 3.39423 21.7413L3.44879 21.6867L3.37085 21.6322Z" fill="black"/>
<path opacity="0.12" d="M20.1705 13.0425L16.2734 15.2482L16.3436 15.3184L20.1705 13.1516C20.3964 13.0561 20.5923 12.9015 20.7377 12.704C20.8831 12.5064 20.9726 12.2734 20.9966 12.0293C20.9479 12.2511 20.8478 12.4583 20.7043 12.6343C20.5608 12.8103 20.3779 12.9501 20.1705 13.0425Z" fill="black"/>
<path opacity="0.25" d="M4.9836 2.38023L20.1742 11.0161C20.3817 11.1084 20.5645 11.2483 20.708 11.4243C20.8515 11.6002 20.9517 11.8075 21.0004 12.0293C20.9763 11.7852 20.8869 11.5521 20.7415 11.3546C20.5961 11.1571 20.4001 11.0025 20.1742 10.9069L4.9836 2.27111C3.90022 1.64759 3.00391 2.162 3.00391 3.40905V3.52596C3.02729 2.27891 3.90022 1.7645 4.9836 2.38023Z" fill="white"/>
<defs>
<linearGradient id="paint0_linear_2007_492" x1="12.2237" y1="3.23014" x2="-0.85471" y2="16.3086" gradientUnits="userSpaceOnUse">
<stop stop-color="#00A0FF"/>
<stop offset="0.01" stop-color="#00A1FF"/>
<stop offset="0.26" stop-color="#00BEFF"/>
<stop offset="0.51" stop-color="#00D2FF"/>
<stop offset="0.76" stop-color="#00DFFF"/>
<stop offset="1" stop-color="#00E3FF"/>
</linearGradient>
<linearGradient id="paint1_linear_2007_492" x1="21.6009" y1="12.0273" x2="2.7471" y2="12.0273" gradientUnits="userSpaceOnUse">
<stop stop-color="#FFE000"/>
<stop offset="0.41" stop-color="#FFBD00"/>
<stop offset="0.78" stop-color="#FFA500"/>
<stop offset="1" stop-color="#FF9C00"/>
</linearGradient>
<linearGradient id="paint2_linear_2007_492" x1="14.5828" y1="13.8219" x2="-3.15645" y2="31.5534" gradientUnits="userSpaceOnUse">
<stop stop-color="#FF3A44"/>
<stop offset="1" stop-color="#C31162"/>
</linearGradient>
<linearGradient id="paint3_linear_2007_492" x1="0.923758" y1="-3.41871" x2="8.84253" y2="4.50006" gradientUnits="userSpaceOnUse">
<stop stop-color="#32A071"/>
<stop offset="0.07" stop-color="#2DA771"/>
<stop offset="0.48" stop-color="#15CF74"/>
<stop offset="0.8" stop-color="#06E775"/>
<stop offset="1" stop-color="#00F076"/>
</linearGradient>
</defs>
</svg>
